<svg width="89" height="26" viewBox="0 0 89 26" fill="none" xmlns="http://www.w3.org/2000/svg">
<path d="M37.4639 8.43408L36.3828 5.50293L35.3281 8.43408H37.4639ZM38.4175 11.0005L37.688 9.04053H35.1128L34.4097 11.0005H33.2583V10.9829L36.3301 4.02637H36.6421L39.5337 10.9829V11.0005H38.4175ZM42.188 10.4072C42.5747 10.4072 42.8677 10.2534 43.0669 9.9458C43.2661 9.63525 43.3657 9.21924 43.3657 8.69775C43.3569 8.25537 43.2529 7.91699 43.0537 7.68262C42.8574 7.44531 42.5747 7.32666 42.2056 7.32666C41.9185 7.32666 41.5889 7.43506 41.2168 7.65186L41.252 10.0732C41.5156 10.2959 41.8276 10.4072 42.188 10.4072ZM42.1045 11.0884C41.8291 11.0884 41.5508 11.0503 41.2695 10.9741L41.3047 13.2505H40.3247L40.4126 7.59033L40.2544 6.51807V6.50049H41.1816L41.208 7.14648C41.457 6.92676 41.6943 6.74951 41.9199 6.61475C42.1484 6.47998 42.3813 6.4126 42.6187 6.4126C42.897 6.4126 43.1431 6.47852 43.3569 6.61035C43.5737 6.73926 43.7451 6.91211 43.8711 7.12891C43.9971 7.3457 44.0908 7.58154 44.1523 7.83643C44.2168 8.08838 44.249 8.35059 44.249 8.62305C44.249 8.7666 44.2402 8.91016 44.2227 9.05371C44.208 9.19434 44.1787 9.34814 44.1348 9.51514C44.0938 9.6792 44.0396 9.83447 43.9722 9.98096C43.9048 10.1274 43.814 10.2695 43.6997 10.4072C43.5884 10.5449 43.4595 10.6636 43.313 10.7632C43.1694 10.8599 42.9937 10.939 42.7856 11.0005C42.5806 11.0591 42.3535 11.0884 42.1045 11.0884ZM47.312 10.4072C47.6987 10.4072 47.9917 10.2534 48.1909 9.9458C48.3901 9.63525 48.4897 9.21924 48.4897 8.69775C48.481 8.25537 48.377 7.91699 48.1777 7.68262C47.9814 7.44531 47.6987 7.32666 47.3296 7.32666C47.0425 7.32666 46.7129 7.43506 46.3408 7.65186L46.376 10.0732C46.6396 10.2959 46.9517 10.4072 47.312 10.4072ZM47.2285 11.0884C46.9531 11.0884 46.6748 11.0503 46.3936 10.9741L46.4287 13.2505H45.4487L45.5366 7.59033L45.3784 6.51807V6.50049H46.3057L46.332 7.14648C46.5811 6.92676 46.8184 6.74951 47.0439 6.61475C47.2725 6.47998 47.5054 6.4126 47.7427 6.4126C48.021 6.4126 48.2671 6.47852 48.481 6.61035C48.6978 6.73926 48.8691 6.91211 48.9951 7.12891C49.1211 7.3457 49.2148 7.58154 49.2764 7.83643C49.3408 8.08838 49.373 8.35059 49.373 8.62305C49.373 8.7666 49.3643 8.91016 49.3467 9.05371C49.332 9.19434 49.3027 9.34814 49.2588 9.51514C49.2178 9.6792 49.1636 9.83447 49.0962 9.98096C49.0288 10.1274 48.938 10.2695 48.8237 10.4072C48.7124 10.5449 48.5835 10.6636 48.437 10.7632C48.2935 10.8599 48.1177 10.939 47.9097 11.0005C47.7046 11.0591 47.4775 11.0884 47.2285 11.0884ZM53.0908 10.4775C52.6074 10.8848 52.1636 11.0884 51.7593 11.0884C51.3843 11.0884 51.0957 10.9419 50.8936 10.6489C50.6943 10.353 50.5903 9.95166 50.5815 9.44482L50.5552 7.67822L50.3662 6.51807V6.50049H51.4648L51.4077 9.146C51.3989 9.53271 51.4648 9.80371 51.6055 9.95898C51.749 10.1143 51.96 10.1919 52.2383 10.1919C52.5752 10.1919 52.9224 10.0688 53.2798 9.82275L53.1919 6.50049H54.1982L54.0928 9.82275L54.2554 10.9829V11.0005H53.3193L53.3018 10.2974L53.0908 10.4775ZM56.0483 4.61963C56.2124 4.61963 56.3472 4.6665 56.4526 4.76025C56.561 4.85107 56.6152 4.97559 56.6152 5.13379C56.6152 5.30078 56.561 5.43408 56.4526 5.53369C56.3472 5.6333 56.2124 5.68311 56.0483 5.68311C55.8931 5.68311 55.7612 5.6333 55.6528 5.53369C55.5444 5.43408 55.4902 5.30078 55.4902 5.13379C55.4902 4.97559 55.5444 4.85107 55.6528 4.76025C55.7612 4.6665 55.8931 4.61963 56.0483 4.61963ZM55.5078 6.50049H56.4438V6.51807L56.5713 11.0005H55.5649L55.6704 7.67822L55.5078 6.51807V6.50049ZM61.2295 10.6313C60.9072 10.936 60.4312 11.0884 59.8013 11.0884C59.4585 11.0884 59.1494 11.0225 58.874 10.8906C58.6016 10.7588 58.3818 10.5815 58.2148 10.3589C58.0479 10.1362 57.9204 9.88721 57.8325 9.61182C57.7446 9.33643 57.7007 9.04639 57.7007 8.7417C57.7007 8.36377 57.7534 8.02539 57.8589 7.72656C57.9673 7.4248 58.1138 7.18018 58.2983 6.99268C58.4829 6.80225 58.6924 6.65869 58.9268 6.56201C59.1611 6.4624 59.4102 6.4126 59.6738 6.4126C60.3242 6.4126 60.8105 6.64258 61.1328 7.10254C61.458 7.55957 61.5781 8.19824 61.4932 9.01855H58.6016C58.6455 9.45508 58.7788 9.79639 59.0015 10.0425C59.2271 10.2856 59.5742 10.4072 60.043 10.4072C60.4238 10.4072 60.8442 10.2725 61.3042 10.0029H61.3218L61.2295 10.6313ZM58.6016 8.57031L60.6802 8.30225C60.7065 7.98291 60.6333 7.72363 60.4604 7.52441C60.2876 7.32227 60.0195 7.22119 59.6562 7.22119C59.5244 7.22119 59.3984 7.24609 59.2783 7.2959C59.1582 7.3457 59.0454 7.42188 58.9399 7.52441C58.8374 7.62402 58.7554 7.76465 58.6938 7.94629C58.6323 8.125 58.6016 8.33301 58.6016 8.57031ZM66.4282 10.4072C66.8149 10.4072 67.1079 10.2534 67.3071 9.9458C67.5063 9.63525 67.606 9.21924 67.606 8.69775C67.5972 8.25537 67.4932 7.91699 67.2939 7.68262C67.0977 7.44531 66.8149 7.32666 66.4458 7.32666C66.1587 7.32666 65.8291 7.43506 65.457 7.65186L65.4922 10.0732C65.7559 10.2959 66.0679 10.4072 66.4282 10.4072ZM66.3447 11.0884C66.0693 11.0884 65.791 11.0503 65.5098 10.9741L65.5449 13.2505H64.5649L64.6528 7.59033L64.4946 6.51807V6.50049H65.4219L65.4482 7.14648C65.6973 6.92676 65.9346 6.74951 66.1602 6.61475C66.3887 6.47998 66.6216 6.4126 66.8589 6.4126C67.1372 6.4126 67.3833 6.47852 67.5972 6.61035C67.814 6.73926 67.9854 6.91211 68.1113 7.12891C68.2373 7.3457 68.3311 7.58154 68.3926 7.83643C68.457 8.08838 68.4893 8.35059 68.4893 8.62305C68.4893 8.7666 68.4805 8.91016 68.4629 9.05371C68.4482 9.19434 68.4189 9.34814 68.375 9.51514C68.334 9.6792 68.2798 9.83447 68.2124 9.98096C68.145 10.1274 68.0542 10.2695 67.9399 10.4072C67.8286 10.5449 67.6997 10.6636 67.5532 10.7632C67.4097 10.8599 67.2339 10.939 67.0259 11.0005C66.8208 11.0591 66.5938 11.0884 66.3447 11.0884ZM71.4995 6.4126C71.8276 6.4126 72.1265 6.47266 72.396 6.59277C72.6655 6.71289 72.8867 6.87695 73.0596 7.08496C73.2354 7.29004 73.3701 7.53027 73.4639 7.80566C73.5576 8.07812 73.6045 8.36963 73.6045 8.68018C73.6045 9.01416 73.5576 9.32617 73.4639 9.61621C73.3701 9.90625 73.2368 10.1611 73.064 10.3809C72.8911 10.6006 72.6699 10.7734 72.4004 10.8994C72.1309 11.0254 71.8306 11.0884 71.4995 11.0884C71.0601 11.0884 70.6777 10.9785 70.3525 10.7588C70.0303 10.5361 69.7886 10.2461 69.6274 9.88867C69.4692 9.52832 69.3901 9.12549 69.3901 8.68018C69.3901 8.26123 69.4707 7.88184 69.6318 7.54199C69.793 7.20215 70.0347 6.92969 70.3569 6.72461C70.6821 6.5166 71.063 6.4126 71.4995 6.4126ZM70.5942 9.93262C70.8022 10.249 71.104 10.4072 71.4995 10.4072C71.895 10.4072 72.1953 10.249 72.4004 9.93262C72.6084 9.61621 72.7124 9.20459 72.7124 8.69775C72.7124 8.28467 72.604 7.9375 72.3872 7.65625C72.1733 7.37207 71.8774 7.22998 71.4995 7.22998C71.1187 7.22998 70.8198 7.37061 70.603 7.65186C70.3892 7.93311 70.2822 8.28174 70.2822 8.69775C70.2822 9.20166 70.3862 9.61328 70.5942 9.93262ZM77.3223 10.4775C76.8389 10.8848 76.395 11.0884 75.9907 11.0884C75.6157 11.0884 75.3271 10.9419 75.125 10.6489C74.9258 10.353 74.8218 9.95166 74.813 9.44482L74.7866 7.67822L74.5977 6.51807V6.50049H75.6963L75.6392 9.146C75.6304 9.53271 75.6963 9.80371 75.8369 9.95898C75.9805 10.1143 76.1914 10.1919 76.4697 10.1919C76.8066 10.1919 77.1538 10.0688 77.5112 9.82275L77.4233 6.50049H78.4297L78.3242 9.82275L78.4868 10.9829V11.0005H77.5508L77.5332 10.2974L77.3223 10.4775ZM81.7388 7.36621C81.5806 7.36621 81.4092 7.40137 81.2246 7.47168C81.04 7.54199 80.8701 7.62988 80.7148 7.73535L80.8027 11.0005H79.7964L79.9019 7.67822L79.7393 6.51807V6.50049H80.6753L80.6929 7.23877L80.9214 7.0498C80.939 7.03516 80.9785 7.00146 81.04 6.94873C81.1045 6.896 81.147 6.86084 81.1675 6.84326C81.188 6.82568 81.2261 6.79492 81.2817 6.75098C81.3403 6.7041 81.3828 6.67188 81.4092 6.6543C81.4385 6.63672 81.4795 6.61182 81.5322 6.57959C81.585 6.54443 81.6289 6.521 81.6641 6.50928C81.6992 6.49463 81.7402 6.47852 81.7871 6.46094C81.8369 6.44043 81.8838 6.42725 81.9277 6.42139C81.9717 6.41553 82.0171 6.4126 82.064 6.4126C82.2192 6.4126 82.3394 6.41846 82.4243 6.43018L82.6045 7.54639H82.5869C82.3438 7.42627 82.061 7.36621 81.7388 7.36621ZM29.6592 22.4072C29.9346 22.4072 30.21 22.3164 30.4854 22.1348L30.5776 19.4629C30.2993 19.3076 29.9961 19.23 29.668 19.23C29.4512 19.23 29.2578 19.2725 29.0879 19.3574C28.918 19.4395 28.7817 19.5522 28.6792 19.6958C28.5767 19.8394 28.499 20.0005 28.4463 20.1792C28.3965 20.355 28.3716 20.5425 28.3716 20.7417C28.3716 21.2778 28.4814 21.6895 28.7012 21.9766C28.9238 22.2637 29.2432 22.4072 29.6592 22.4072ZM30.4854 23.0005L30.4766 22.6577C30.0811 22.9448 29.7134 23.0884 29.3735 23.0884C28.9839 23.0884 28.6411 22.9785 28.3452 22.7588C28.0522 22.5391 27.8325 22.2534 27.686 21.9019C27.5425 21.5503 27.4707 21.1606 27.4707 20.7329C27.4707 20.3726 27.5278 20.0444 27.6421 19.7485C27.7593 19.4497 27.916 19.2051 28.1123 19.0146C28.3115 18.8213 28.5415 18.6733 28.8022 18.5708C29.063 18.4653 29.3398 18.4126 29.6328 18.4126C29.9756 18.4126 30.2847 18.4712 30.5601 18.5884L30.459 16.0703H31.4609L31.3423 19.186L31.4609 23.0005H30.4854ZM34.6953 18.4126C35.0234 18.4126 35.3223 18.4727 35.5918 18.5928C35.8613 18.7129 36.0825 18.877 36.2554 19.085C36.4312 19.29 36.5659 19.5303 36.6597 19.8057C36.7534 20.0781 36.8003 20.3696 36.8003 20.6802C36.8003 21.0142 36.7534 21.3262 36.6597 21.6162C36.5659 21.9062 36.4326 22.1611 36.2598 22.3809C36.0869 22.6006 35.8657 22.7734 35.5962 22.8994C35.3267 23.0254 35.0264 23.0884 34.6953 23.0884C34.2559 23.0884 33.8735 22.9785 33.5483 22.7588C33.2261 22.5361 32.9844 22.2461 32.8232 21.8887C32.665 21.5283 32.5859 21.1255 32.5859 20.6802C32.5859 20.2612 32.6665 19.8818 32.8276 19.542C32.9888 19.2021 33.2305 18.9297 33.5527 18.7246C33.8779 18.5166 34.2588 18.4126 34.6953 18.4126ZM33.79 21.9326C33.998 22.249 34.2998 22.4072 34.6953 22.4072C35.0908 22.4072 35.3911 22.249 35.5962 21.9326C35.8042 21.6162 35.9082 21.2046 35.9082 20.6978C35.9082 20.2847 35.7998 19.9375 35.583 19.6562C35.3691 19.3721 35.0732 19.23 34.6953 19.23C34.3145 19.23 34.0156 19.3706 33.7988 19.6519C33.585 19.9331 33.478 20.2817 33.478 20.6978C33.478 21.2017 33.582 21.6133 33.79 21.9326ZM39.8545 19.3091C39.5557 19.3003 39.2231 19.4233 38.8569 19.6782L38.9448 23.0005H37.9385L38.0439 19.6782L37.8813 18.5181V18.5005H38.8174L38.835 19.1948L39.0063 19.0498C39.5103 18.625 39.9585 18.4126 40.3511 18.4126C40.7583 18.4126 41.0688 18.5591 41.2827 18.8521C41.4995 19.1421 41.6167 19.5464 41.6343 20.0649L41.7354 23.0005H40.729L40.8081 20.3638C40.8198 19.9565 40.7422 19.6782 40.5752 19.5288C40.4082 19.3765 40.168 19.3032 39.8545 19.3091ZM45.0137 19.3091C44.7148 19.3003 44.3823 19.4233 44.0161 19.6782L44.104 23.0005H43.0977L43.2031 19.6782L43.0405 18.5181V18.5005H43.9766L43.9941 19.1948L44.1655 19.0498C44.6694 18.625 45.1177 18.4126 45.5103 18.4126C45.9175 18.4126 46.228 18.5591 46.4419 18.8521C46.6587 19.1421 46.7759 19.5464 46.7935 20.0649L46.8945 23.0005H45.8882L45.9673 20.3638C45.979 19.9565 45.9014 19.6782 45.7344 19.5288C45.5674 19.3765 45.3271 19.3032 45.0137 19.3091ZM51.5483 22.6313C51.2261 22.936 50.75 23.0884 50.1201 23.0884C49.7773 23.0884 49.4683 23.0225 49.1929 22.8906C48.9204 22.7588 48.7007 22.5815 48.5337 22.3589C48.3667 22.1362 48.2393 21.8872 48.1514 21.6118C48.0635 21.3364 48.0195 21.0464 48.0195 20.7417C48.0195 20.3638 48.0723 20.0254 48.1777 19.7266C48.2861 19.4248 48.4326 19.1802 48.6172 18.9927C48.8018 18.8022 49.0112 18.6587 49.2456 18.562C49.48 18.4624 49.729 18.4126 49.9927 18.4126C50.6431 18.4126 51.1294 18.6426 51.4517 19.1025C51.7769 19.5596 51.897 20.1982 51.812 21.0186H48.9204C48.9644 21.4551 49.0977 21.7964 49.3203 22.0425C49.5459 22.2856 49.8931 22.4072 50.3618 22.4072C50.7427 22.4072 51.1631 22.2725 51.623 22.0029H51.6406L51.5483 22.6313ZM48.9204 20.5703L50.999 20.3022C51.0254 19.9829 50.9521 19.7236 50.7793 19.5244C50.6064 19.3223 50.3384 19.2212 49.9751 19.2212C49.8433 19.2212 49.7173 19.2461 49.5972 19.2959C49.4771 19.3457 49.3643 19.4219 49.2588 19.5244C49.1562 19.624 49.0742 19.7646 49.0127 19.9463C48.9512 20.125 48.9204 20.333 48.9204 20.5703ZM54.9629 19.3662C54.8047 19.3662 54.6333 19.4014 54.4487 19.4717C54.2642 19.542 54.0942 19.6299 53.939 19.7354L54.0269 23.0005H53.0205L53.126 19.6782L52.9634 18.5181V18.5005H53.8994L53.917 19.2388L54.1455 19.0498C54.1631 19.0352 54.2026 19.0015 54.2642 18.9487C54.3286 18.896 54.3711 18.8608 54.3916 18.8433C54.4121 18.8257 54.4502 18.7949 54.5059 18.751C54.5645 18.7041 54.6069 18.6719 54.6333 18.6543C54.6626 18.6367 54.7036 18.6118 54.7563 18.5796C54.8091 18.5444 54.853 18.521 54.8882 18.5093C54.9233 18.4946 54.9644 18.4785 55.0112 18.4609C55.061 18.4404 55.1079 18.4272 55.1519 18.4214C55.1958 18.4155 55.2412 18.4126 55.2881 18.4126C55.4434 18.4126 55.5635 18.4185 55.6484 18.4302L55.8286 19.5464H55.811C55.5679 19.4263 55.2852 19.3662 54.9629 19.3662ZM59.375 17.4546H59.4937L59.5024 18.5269L60.8516 18.4126V19.2388L59.5024 19.1289L59.5112 21.3525C59.5112 21.7305 59.5859 22.0015 59.7354 22.1655C59.8877 22.3267 60.0767 22.4072 60.3022 22.4072C60.4927 22.4072 60.6758 22.3647 60.8516 22.2798H60.8691L60.7812 22.7764C60.7021 22.8643 60.5835 22.939 60.4253 23.0005C60.2671 23.0591 60.103 23.0884 59.9331 23.0884C59.5405 23.0884 59.2241 22.9624 58.9839 22.7104C58.7437 22.4556 58.6279 22.0967 58.6367 21.6338L58.6851 19.0586L57.9907 19.0059V18.896L59.375 17.4546ZM63.8311 18.4126C64.1592 18.4126 64.458 18.4727 64.7275 18.5928C64.9971 18.7129 65.2183 18.877 65.3911 19.085C65.5669 19.29 65.7017 19.5303 65.7954 19.8057C65.8892 20.0781 65.936 20.3696 65.936 20.6802C65.936 21.0142 65.8892 21.3262 65.7954 21.6162C65.7017 21.9062 65.5684 22.1611 65.3955 22.3809C65.2227 22.6006 65.0015 22.7734 64.7319 22.8994C64.4624 23.0254 64.1621 23.0884 63.8311 23.0884C63.3916 23.0884 63.0093 22.9785 62.6841 22.7588C62.3618 22.5361 62.1201 22.2461 61.959 21.8887C61.8008 21.5283 61.7217 21.1255 61.7217 20.6802C61.7217 20.2612 61.8022 19.8818 61.9634 19.542C62.1245 19.2021 62.3662 18.9297 62.6885 18.7246C63.0137 18.5166 63.3945 18.4126 63.8311 18.4126ZM62.9258 21.9326C63.1338 22.249 63.4355 22.4072 63.8311 22.4072C64.2266 22.4072 64.5269 22.249 64.7319 21.9326C64.9399 21.6162 65.0439 21.2046 65.0439 20.6978C65.0439 20.2847 64.9355 19.9375 64.7188 19.6562C64.5049 19.3721 64.209 19.23 63.8311 19.23C63.4502 19.23 63.1514 19.3706 62.9346 19.6519C62.7207 19.9331 62.6138 20.2817 62.6138 20.6978C62.6138 21.2017 62.7178 21.6133 62.9258 21.9326ZM68.9902 19.3091C68.6914 19.3003 68.3589 19.4233 67.9927 19.6782L68.0806 23.0005H67.0742L67.1797 19.6782L67.0171 18.5181V18.5005H67.9531L67.9707 19.1948L68.1421 19.0498C68.646 18.625 69.0942 18.4126 69.4868 18.4126C69.894 18.4126 70.2046 18.5591 70.4185 18.8521C70.6353 19.1421 70.7524 19.5464 70.77 20.0649L70.8711 23.0005H69.8647L69.9438 20.3638C69.9556 19.9565 69.8779 19.6782 69.7109 19.5288C69.5439 19.3765 69.3037 19.3032 68.9902 19.3091ZM75.4634 22.4336C75.7183 22.4336 76.0156 22.3018 76.3555 22.0381L76.3818 21.2559C76.165 21.1357 75.9131 21.0757 75.626 21.0757C75.3506 21.0757 75.1323 21.1357 74.9712 21.2559C74.813 21.376 74.7339 21.543 74.7339 21.7568C74.7339 21.959 74.7998 22.123 74.9316 22.249C75.0664 22.3721 75.2437 22.4336 75.4634 22.4336ZM76.3291 23.0005L76.3379 22.5786C75.8838 22.9185 75.5 23.0884 75.1865 23.0884C74.7676 23.0884 74.4395 22.9683 74.2021 22.728C73.9648 22.4878 73.8462 22.186 73.8462 21.8228C73.8462 21.603 73.8872 21.4097 73.9692 21.2427C74.0513 21.0757 74.1582 20.9424 74.29 20.8428C74.4219 20.7402 74.5801 20.6567 74.7646 20.5923C74.9521 20.5278 75.1396 20.4839 75.3271 20.4604C75.5146 20.437 75.7168 20.4253 75.9336 20.4253C76.0156 20.4253 76.1709 20.4312 76.3994 20.4429L76.4082 20.21C76.4141 19.999 76.395 19.8232 76.3511 19.6826C76.3101 19.542 76.2441 19.438 76.1533 19.3706C76.0625 19.3003 75.9658 19.252 75.8633 19.2256C75.7637 19.1992 75.6421 19.186 75.4985 19.186C75.1001 19.186 74.6211 19.312 74.0615 19.564H74.0439L74.2153 18.5093C74.8276 18.4448 75.2979 18.4126 75.626 18.4126C76.1416 18.4126 76.5342 18.5591 76.8037 18.8521C77.0762 19.1421 77.2212 19.5464 77.2388 20.0649L77.3354 23.0005H76.3291ZM80.3853 23.0884H79.9238L78.0078 18.5181V18.5005H79.0625L80.3018 22.0381L81.3652 18.5005H82.4375V18.5181L80.3853 23.0884ZM83.6504 16.6196C83.8145 16.6196 83.9492 16.6665 84.0547 16.7603C84.1631 16.8511 84.2173 16.9756 84.2173 17.1338C84.2173 17.3008 84.1631 17.4341 84.0547 17.5337C83.9492 17.6333 83.8145 17.6831 83.6504 17.6831C83.4951 17.6831 83.3633 17.6333 83.2549 17.5337C83.1465 17.4341 83.0923 17.3008 83.0923 17.1338C83.0923 16.9756 83.1465 16.8511 83.2549 16.7603C83.3633 16.6665 83.4951 16.6196 83.6504 16.6196ZM83.1099 18.5005H84.0459V18.5181L84.1733 23.0005H83.167L83.2725 19.6782L83.1099 18.5181V18.5005ZM86.9419 19.2036C86.731 19.2036 86.5654 19.2446 86.4453 19.3267C86.3281 19.4058 86.2695 19.5112 86.2695 19.6431C86.2695 19.7778 86.3193 19.8994 86.4189 20.0078C86.5186 20.1133 86.6899 20.2202 86.9331 20.3286L87.3945 20.5352C87.7637 20.7051 88.0288 20.8838 88.1899 21.0713C88.354 21.2588 88.436 21.4902 88.436 21.7656C88.436 22.1465 88.3027 22.4629 88.0361 22.7148C87.7725 22.9639 87.3901 23.0884 86.8892 23.0884C86.3911 23.0884 85.9648 22.9844 85.6104 22.7764L85.439 21.7964H85.4565C85.7319 22.0015 85.9868 22.1582 86.2212 22.2666C86.4585 22.3721 86.7046 22.4248 86.9595 22.4248C87.1528 22.4248 87.3022 22.3765 87.4077 22.2798C87.5161 22.1831 87.5703 22.0513 87.5703 21.8843C87.5703 21.7319 87.519 21.603 87.4165 21.4976C87.314 21.3892 87.1616 21.2925 86.9595 21.2075L86.3662 20.957C85.7188 20.6816 85.395 20.2554 85.395 19.6782C85.395 19.2944 85.5386 18.9883 85.8257 18.7598C86.1157 18.5283 86.4966 18.4126 86.9683 18.4126C87.4048 18.4126 87.8164 18.4932 88.2031 18.6543L88.3657 19.6782H88.3481C88.1401 19.5229 87.9116 19.4058 87.6626 19.3267C87.4136 19.2446 87.1733 19.2036 86.9419 19.2036Z" fill="white"/>
<path d="M25.6506 13.8047C16.476 13.8047 10.4761 12.4907 1.01103 2.38208M1.01103 2.38208L5.47608 1.49065M1.01103 2.38208L1.01103 6.99061" stroke="white" stroke-width="2" stroke-linecap="round"/>
</svg>
