<svg width="89" height="26" viewBox="0 0 89 26" fill="none" xmlns="http://www.w3.org/2000/svg">
<path d="M35.4028 8.43408L34.3218 5.50293L33.2671 8.43408H35.4028ZM36.3564 11.0005L35.627 9.04053H33.0518L32.3486 11.0005H31.1973V10.9829L34.269 4.02637H34.5811L37.4727 10.9829V11.0005H36.3564ZM40.127 10.4072C40.5137 10.4072 40.8066 10.2534 41.0059 9.9458C41.2051 9.63525 41.3047 9.21924 41.3047 8.69775C41.2959 8.25537 41.1919 7.91699 40.9927 7.68262C40.7964 7.44531 40.5137 7.32666 40.1445 7.32666C39.8574 7.32666 39.5278 7.43506 39.1558 7.65186L39.1909 10.0732C39.4546 10.2959 39.7666 10.4072 40.127 10.4072ZM40.0435 11.0884C39.7681 11.0884 39.4897 11.0503 39.2085 10.9741L39.2437 13.2505H38.2637L38.3516 7.59033L38.1934 6.51807V6.50049H39.1206L39.147 7.14648C39.396 6.92676 39.6333 6.74951 39.8589 6.61475C40.0874 6.47998 40.3203 6.4126 40.5576 6.4126C40.8359 6.4126 41.082 6.47852 41.2959 6.61035C41.5127 6.73926 41.6841 6.91211 41.8101 7.12891C41.936 7.3457 42.0298 7.58154 42.0913 7.83643C42.1558 8.08838 42.188 8.35059 42.188 8.62305C42.188 8.7666 42.1792 8.91016 42.1616 9.05371C42.147 9.19434 42.1177 9.34814 42.0737 9.51514C42.0327 9.6792 41.9785 9.83447 41.9111 9.98096C41.8438 10.1274 41.7529 10.2695 41.6387 10.4072C41.5273 10.5449 41.3984 10.6636 41.252 10.7632C41.1084 10.8599 40.9326 10.939 40.7246 11.0005C40.5195 11.0591 40.2925 11.0884 40.0435 11.0884ZM45.251 10.4072C45.6377 10.4072 45.9307 10.2534 46.1299 9.9458C46.3291 9.63525 46.4287 9.21924 46.4287 8.69775C46.4199 8.25537 46.3159 7.91699 46.1167 7.68262C45.9204 7.44531 45.6377 7.32666 45.2686 7.32666C44.9814 7.32666 44.6519 7.43506 44.2798 7.65186L44.3149 10.0732C44.5786 10.2959 44.8906 10.4072 45.251 10.4072ZM45.1675 11.0884C44.8921 11.0884 44.6138 11.0503 44.3325 10.9741L44.3677 13.2505H43.3877L43.4756 7.59033L43.3174 6.51807V6.50049H44.2446L44.271 7.14648C44.52 6.92676 44.7573 6.74951 44.9829 6.61475C45.2114 6.47998 45.4443 6.4126 45.6816 6.4126C45.96 6.4126 46.2061 6.47852 46.4199 6.61035C46.6367 6.73926 46.8081 6.91211 46.9341 7.12891C47.0601 7.3457 47.1538 7.58154 47.2153 7.83643C47.2798 8.08838 47.312 8.35059 47.312 8.62305C47.312 8.7666 47.3032 8.91016 47.2856 9.05371C47.271 9.19434 47.2417 9.34814 47.1978 9.51514C47.1567 9.6792 47.1025 9.83447 47.0352 9.98096C46.9678 10.1274 46.877 10.2695 46.7627 10.4072C46.6514 10.5449 46.5225 10.6636 46.376 10.7632C46.2324 10.8599 46.0566 10.939 45.8486 11.0005C45.6436 11.0591 45.4165 11.0884 45.1675 11.0884ZM51.0298 10.4775C50.5464 10.8848 50.1025 11.0884 49.6982 11.0884C49.3232 11.0884 49.0347 10.9419 48.8325 10.6489C48.6333 10.353 48.5293 9.95166 48.5205 9.44482L48.4941 7.67822L48.3052 6.51807V6.50049H49.4038L49.3467 9.146C49.3379 9.53271 49.4038 9.80371 49.5444 9.95898C49.688 10.1143 49.8989 10.1919 50.1772 10.1919C50.5142 10.1919 50.8613 10.0688 51.2188 9.82275L51.1309 6.50049H52.1372L52.0317 9.82275L52.1943 10.9829V11.0005H51.2583L51.2407 10.2974L51.0298 10.4775ZM53.9873 4.61963C54.1514 4.61963 54.2861 4.6665 54.3916 4.76025C54.5 4.85107 54.5542 4.97559 54.5542 5.13379C54.5542 5.30078 54.5 5.43408 54.3916 5.53369C54.2861 5.6333 54.1514 5.68311 53.9873 5.68311C53.832 5.68311 53.7002 5.6333 53.5918 5.53369C53.4834 5.43408 53.4292 5.30078 53.4292 5.13379C53.4292 4.97559 53.4834 4.85107 53.5918 4.76025C53.7002 4.6665 53.832 4.61963 53.9873 4.61963ZM53.4468 6.50049H54.3828V6.51807L54.5103 11.0005H53.5039L53.6094 7.67822L53.4468 6.51807V6.50049ZM59.1685 10.6313C58.8462 10.936 58.3701 11.0884 57.7402 11.0884C57.3975 11.0884 57.0884 11.0225 56.813 10.8906C56.5405 10.7588 56.3208 10.5815 56.1538 10.3589C55.9868 10.1362 55.8594 9.88721 55.7715 9.61182C55.6836 9.33643 55.6396 9.04639 55.6396 8.7417C55.6396 8.36377 55.6924 8.02539 55.7979 7.72656C55.9062 7.4248 56.0527 7.18018 56.2373 6.99268C56.4219 6.80225 56.6313 6.65869 56.8657 6.56201C57.1001 6.4624 57.3491 6.4126 57.6128 6.4126C58.2632 6.4126 58.7495 6.64258 59.0718 7.10254C59.397 7.55957 59.5171 8.19824 59.4321 9.01855H56.5405C56.5845 9.45508 56.7178 9.79639 56.9404 10.0425C57.166 10.2856 57.5132 10.4072 57.9819 10.4072C58.3628 10.4072 58.7832 10.2725 59.2432 10.0029H59.2607L59.1685 10.6313ZM56.5405 8.57031L58.6191 8.30225C58.6455 7.98291 58.5723 7.72363 58.3994 7.52441C58.2266 7.32227 57.9585 7.22119 57.5952 7.22119C57.4634 7.22119 57.3374 7.24609 57.2173 7.2959C57.0972 7.3457 56.9844 7.42188 56.8789 7.52441C56.7764 7.62402 56.6943 7.76465 56.6328 7.94629C56.5713 8.125 56.5405 8.33301 56.5405 8.57031ZM62.0425 7.20361C61.8315 7.20361 61.666 7.24463 61.5459 7.32666C61.4287 7.40576 61.3701 7.51123 61.3701 7.64307C61.3701 7.77783 61.4199 7.89941 61.5195 8.00781C61.6191 8.11328 61.7905 8.22021 62.0337 8.32861L62.4951 8.53516C62.8643 8.70508 63.1294 8.88379 63.2905 9.07129C63.4546 9.25879 63.5366 9.49023 63.5366 9.76562C63.5366 10.1465 63.4033 10.4629 63.1367 10.7148C62.873 10.9639 62.4907 11.0884 61.9897 11.0884C61.4917 11.0884 61.0654 10.9844 60.7109 10.7764L60.5396 9.79639H60.5571C60.8325 10.0015 61.0874 10.1582 61.3218 10.2666C61.5591 10.3721 61.8052 10.4248 62.0601 10.4248C62.2534 10.4248 62.4028 10.3765 62.5083 10.2798C62.6167 10.1831 62.6709 10.0513 62.6709 9.88428C62.6709 9.73193 62.6196 9.60303 62.5171 9.49756C62.4146 9.38916 62.2622 9.29248 62.0601 9.20752L61.4668 8.95703C60.8193 8.68164 60.4956 8.25537 60.4956 7.67822C60.4956 7.29443 60.6392 6.98828 60.9263 6.75977C61.2163 6.52832 61.5972 6.4126 62.0688 6.4126C62.5054 6.4126 62.917 6.49316 63.3037 6.6543L63.4663 7.67822H63.4487C63.2407 7.52295 63.0122 7.40576 62.7632 7.32666C62.5142 7.24463 62.2739 7.20361 62.0425 7.20361ZM68.4893 10.4072C68.876 10.4072 69.1689 10.2534 69.3682 9.9458C69.5674 9.63525 69.667 9.21924 69.667 8.69775C69.6582 8.25537 69.5542 7.91699 69.355 7.68262C69.1587 7.44531 68.876 7.32666 68.5068 7.32666C68.2197 7.32666 67.8901 7.43506 67.5181 7.65186L67.5532 10.0732C67.8169 10.2959 68.1289 10.4072 68.4893 10.4072ZM68.4058 11.0884C68.1304 11.0884 67.8521 11.0503 67.5708 10.9741L67.606 13.2505H66.626L66.7139 7.59033L66.5557 6.51807V6.50049H67.4829L67.5093 7.14648C67.7583 6.92676 67.9956 6.74951 68.2212 6.61475C68.4497 6.47998 68.6826 6.4126 68.9199 6.4126C69.1982 6.4126 69.4443 6.47852 69.6582 6.61035C69.875 6.73926 70.0464 6.91211 70.1724 7.12891C70.2983 7.3457 70.3921 7.58154 70.4536 7.83643C70.5181 8.08838 70.5503 8.35059 70.5503 8.62305C70.5503 8.7666 70.5415 8.91016 70.5239 9.05371C70.5093 9.19434 70.48 9.34814 70.436 9.51514C70.395 9.6792 70.3408 9.83447 70.2734 9.98096C70.2061 10.1274 70.1152 10.2695 70.001 10.4072C69.8896 10.5449 69.7607 10.6636 69.6143 10.7632C69.4707 10.8599 69.2949 10.939 69.0869 11.0005C68.8818 11.0591 68.6548 11.0884 68.4058 11.0884ZM73.5605 6.4126C73.8887 6.4126 74.1875 6.47266 74.457 6.59277C74.7266 6.71289 74.9478 6.87695 75.1206 7.08496C75.2964 7.29004 75.4312 7.53027 75.5249 7.80566C75.6187 8.07812 75.6655 8.36963 75.6655 8.68018C75.6655 9.01416 75.6187 9.32617 75.5249 9.61621C75.4312 9.90625 75.2979 10.1611 75.125 10.3809C74.9521 10.6006 74.731 10.7734 74.4614 10.8994C74.1919 11.0254 73.8916 11.0884 73.5605 11.0884C73.1211 11.0884 72.7388 10.9785 72.4136 10.7588C72.0913 10.5361 71.8496 10.2461 71.6885 9.88867C71.5303 9.52832 71.4512 9.12549 71.4512 8.68018C71.4512 8.26123 71.5317 7.88184 71.6929 7.54199C71.854 7.20215 72.0957 6.92969 72.418 6.72461C72.7432 6.5166 73.124 6.4126 73.5605 6.4126ZM72.6553 9.93262C72.8633 10.249 73.165 10.4072 73.5605 10.4072C73.9561 10.4072 74.2563 10.249 74.4614 9.93262C74.6694 9.61621 74.7734 9.20459 74.7734 8.69775C74.7734 8.28467 74.665 7.9375 74.4482 7.65625C74.2344 7.37207 73.9385 7.22998 73.5605 7.22998C73.1797 7.22998 72.8809 7.37061 72.6641 7.65186C72.4502 7.93311 72.3433 8.28174 72.3433 8.69775C72.3433 9.20166 72.4473 9.61328 72.6553 9.93262ZM79.3833 10.4775C78.8999 10.8848 78.4561 11.0884 78.0518 11.0884C77.6768 11.0884 77.3882 10.9419 77.186 10.6489C76.9868 10.353 76.8828 9.95166 76.874 9.44482L76.8477 7.67822L76.6587 6.51807V6.50049H77.7573L77.7002 9.146C77.6914 9.53271 77.7573 9.80371 77.8979 9.95898C78.0415 10.1143 78.2524 10.1919 78.5308 10.1919C78.8677 10.1919 79.2148 10.0688 79.5723 9.82275L79.4844 6.50049H80.4907L80.3853 9.82275L80.5479 10.9829V11.0005H79.6118L79.5942 10.2974L79.3833 10.4775ZM83.7998 7.36621C83.6416 7.36621 83.4702 7.40137 83.2856 7.47168C83.1011 7.54199 82.9312 7.62988 82.7759 7.73535L82.8638 11.0005H81.8574L81.9629 7.67822L81.8003 6.51807V6.50049H82.7363L82.7539 7.23877L82.9824 7.0498C83 7.03516 83.0396 7.00146 83.1011 6.94873C83.1655 6.896 83.208 6.86084 83.2285 6.84326C83.249 6.82568 83.2871 6.79492 83.3428 6.75098C83.4014 6.7041 83.4438 6.67188 83.4702 6.6543C83.4995 6.63672 83.5405 6.61182 83.5933 6.57959C83.646 6.54443 83.6899 6.521 83.7251 6.50928C83.7603 6.49463 83.8013 6.47852 83.8481 6.46094C83.8979 6.44043 83.9448 6.42725 83.9888 6.42139C84.0327 6.41553 84.0781 6.4126 84.125 6.4126C84.2803 6.4126 84.4004 6.41846 84.4854 6.43018L84.6655 7.54639H84.6479C84.4048 7.42627 84.1221 7.36621 83.7998 7.36621ZM29.6592 22.4072C29.9346 22.4072 30.21 22.3164 30.4854 22.1348L30.5776 19.4629C30.2993 19.3076 29.9961 19.23 29.668 19.23C29.4512 19.23 29.2578 19.2725 29.0879 19.3574C28.918 19.4395 28.7817 19.5522 28.6792 19.6958C28.5767 19.8394 28.499 20.0005 28.4463 20.1792C28.3965 20.355 28.3716 20.5425 28.3716 20.7417C28.3716 21.2778 28.4814 21.6895 28.7012 21.9766C28.9238 22.2637 29.2432 22.4072 29.6592 22.4072ZM30.4854 23.0005L30.4766 22.6577C30.0811 22.9448 29.7134 23.0884 29.3735 23.0884C28.9839 23.0884 28.6411 22.9785 28.3452 22.7588C28.0522 22.5391 27.8325 22.2534 27.686 21.9019C27.5425 21.5503 27.4707 21.1606 27.4707 20.7329C27.4707 20.3726 27.5278 20.0444 27.6421 19.7485C27.7593 19.4497 27.916 19.2051 28.1123 19.0146C28.3115 18.8213 28.5415 18.6733 28.8022 18.5708C29.063 18.4653 29.3398 18.4126 29.6328 18.4126C29.9756 18.4126 30.2847 18.4712 30.5601 18.5884L30.459 16.0703H31.4609L31.3423 19.186L31.4609 23.0005H30.4854ZM34.6953 18.4126C35.0234 18.4126 35.3223 18.4727 35.5918 18.5928C35.8613 18.7129 36.0825 18.877 36.2554 19.085C36.4312 19.29 36.5659 19.5303 36.6597 19.8057C36.7534 20.0781 36.8003 20.3696 36.8003 20.6802C36.8003 21.0142 36.7534 21.3262 36.6597 21.6162C36.5659 21.9062 36.4326 22.1611 36.2598 22.3809C36.0869 22.6006 35.8657 22.7734 35.5962 22.8994C35.3267 23.0254 35.0264 23.0884 34.6953 23.0884C34.2559 23.0884 33.8735 22.9785 33.5483 22.7588C33.2261 22.5361 32.9844 22.2461 32.8232 21.8887C32.665 21.5283 32.5859 21.1255 32.5859 20.6802C32.5859 20.2612 32.6665 19.8818 32.8276 19.542C32.9888 19.2021 33.2305 18.9297 33.5527 18.7246C33.8779 18.5166 34.2588 18.4126 34.6953 18.4126ZM33.79 21.9326C33.998 22.249 34.2998 22.4072 34.6953 22.4072C35.0908 22.4072 35.3911 22.249 35.5962 21.9326C35.8042 21.6162 35.9082 21.2046 35.9082 20.6978C35.9082 20.2847 35.7998 19.9375 35.583 19.6562C35.3691 19.3721 35.0732 19.23 34.6953 19.23C34.3145 19.23 34.0156 19.3706 33.7988 19.6519C33.585 19.9331 33.478 20.2817 33.478 20.6978C33.478 21.2017 33.582 21.6133 33.79 21.9326ZM39.8545 19.3091C39.5557 19.3003 39.2231 19.4233 38.8569 19.6782L38.9448 23.0005H37.9385L38.0439 19.6782L37.8813 18.5181V18.5005H38.8174L38.835 19.1948L39.0063 19.0498C39.5103 18.625 39.9585 18.4126 40.3511 18.4126C40.7583 18.4126 41.0688 18.5591 41.2827 18.8521C41.4995 19.1421 41.6167 19.5464 41.6343 20.0649L41.7354 23.0005H40.729L40.8081 20.3638C40.8198 19.9565 40.7422 19.6782 40.5752 19.5288C40.4082 19.3765 40.168 19.3032 39.8545 19.3091ZM45.0137 19.3091C44.7148 19.3003 44.3823 19.4233 44.0161 19.6782L44.104 23.0005H43.0977L43.2031 19.6782L43.0405 18.5181V18.5005H43.9766L43.9941 19.1948L44.1655 19.0498C44.6694 18.625 45.1177 18.4126 45.5103 18.4126C45.9175 18.4126 46.228 18.5591 46.4419 18.8521C46.6587 19.1421 46.7759 19.5464 46.7935 20.0649L46.8945 23.0005H45.8882L45.9673 20.3638C45.979 19.9565 45.9014 19.6782 45.7344 19.5288C45.5674 19.3765 45.3271 19.3032 45.0137 19.3091ZM51.5483 22.6313C51.2261 22.936 50.75 23.0884 50.1201 23.0884C49.7773 23.0884 49.4683 23.0225 49.1929 22.8906C48.9204 22.7588 48.7007 22.5815 48.5337 22.3589C48.3667 22.1362 48.2393 21.8872 48.1514 21.6118C48.0635 21.3364 48.0195 21.0464 48.0195 20.7417C48.0195 20.3638 48.0723 20.0254 48.1777 19.7266C48.2861 19.4248 48.4326 19.1802 48.6172 18.9927C48.8018 18.8022 49.0112 18.6587 49.2456 18.562C49.48 18.4624 49.729 18.4126 49.9927 18.4126C50.6431 18.4126 51.1294 18.6426 51.4517 19.1025C51.7769 19.5596 51.897 20.1982 51.812 21.0186H48.9204C48.9644 21.4551 49.0977 21.7964 49.3203 22.0425C49.5459 22.2856 49.8931 22.4072 50.3618 22.4072C50.7427 22.4072 51.1631 22.2725 51.623 22.0029H51.6406L51.5483 22.6313ZM48.9204 20.5703L50.999 20.3022C51.0254 19.9829 50.9521 19.7236 50.7793 19.5244C50.6064 19.3223 50.3384 19.2212 49.9751 19.2212C49.8433 19.2212 49.7173 19.2461 49.5972 19.2959C49.4771 19.3457 49.3643 19.4219 49.2588 19.5244C49.1562 19.624 49.0742 19.7646 49.0127 19.9463C48.9512 20.125 48.9204 20.333 48.9204 20.5703ZM54.9629 19.3662C54.8047 19.3662 54.6333 19.4014 54.4487 19.4717C54.2642 19.542 54.0942 19.6299 53.939 19.7354L54.0269 23.0005H53.0205L53.126 19.6782L52.9634 18.5181V18.5005H53.8994L53.917 19.2388L54.1455 19.0498C54.1631 19.0352 54.2026 19.0015 54.2642 18.9487C54.3286 18.896 54.3711 18.8608 54.3916 18.8433C54.4121 18.8257 54.4502 18.7949 54.5059 18.751C54.5645 18.7041 54.6069 18.6719 54.6333 18.6543C54.6626 18.6367 54.7036 18.6118 54.7563 18.5796C54.8091 18.5444 54.853 18.521 54.8882 18.5093C54.9233 18.4946 54.9644 18.4785 55.0112 18.4609C55.061 18.4404 55.1079 18.4272 55.1519 18.4214C55.1958 18.4155 55.2412 18.4126 55.2881 18.4126C55.4434 18.4126 55.5635 18.4185 55.6484 18.4302L55.8286 19.5464H55.811C55.5679 19.4263 55.2852 19.3662 54.9629 19.3662ZM59.375 17.4546H59.4937L59.5024 18.5269L60.8516 18.4126V19.2388L59.5024 19.1289L59.5112 21.3525C59.5112 21.7305 59.5859 22.0015 59.7354 22.1655C59.8877 22.3267 60.0767 22.4072 60.3022 22.4072C60.4927 22.4072 60.6758 22.3647 60.8516 22.2798H60.8691L60.7812 22.7764C60.7021 22.8643 60.5835 22.939 60.4253 23.0005C60.2671 23.0591 60.103 23.0884 59.9331 23.0884C59.5405 23.0884 59.2241 22.9624 58.9839 22.7104C58.7437 22.4556 58.6279 22.0967 58.6367 21.6338L58.6851 19.0586L57.9907 19.0059V18.896L59.375 17.4546ZM63.8311 18.4126C64.1592 18.4126 64.458 18.4727 64.7275 18.5928C64.9971 18.7129 65.2183 18.877 65.3911 19.085C65.5669 19.29 65.7017 19.5303 65.7954 19.8057C65.8892 20.0781 65.936 20.3696 65.936 20.6802C65.936 21.0142 65.8892 21.3262 65.7954 21.6162C65.7017 21.9062 65.5684 22.1611 65.3955 22.3809C65.2227 22.6006 65.0015 22.7734 64.7319 22.8994C64.4624 23.0254 64.1621 23.0884 63.8311 23.0884C63.3916 23.0884 63.0093 22.9785 62.6841 22.7588C62.3618 22.5361 62.1201 22.2461 61.959 21.8887C61.8008 21.5283 61.7217 21.1255 61.7217 20.6802C61.7217 20.2612 61.8022 19.8818 61.9634 19.542C62.1245 19.2021 62.3662 18.9297 62.6885 18.7246C63.0137 18.5166 63.3945 18.4126 63.8311 18.4126ZM62.9258 21.9326C63.1338 22.249 63.4355 22.4072 63.8311 22.4072C64.2266 22.4072 64.5269 22.249 64.7319 21.9326C64.9399 21.6162 65.0439 21.2046 65.0439 20.6978C65.0439 20.2847 64.9355 19.9375 64.7188 19.6562C64.5049 19.3721 64.209 19.23 63.8311 19.23C63.4502 19.23 63.1514 19.3706 62.9346 19.6519C62.7207 19.9331 62.6138 20.2817 62.6138 20.6978C62.6138 21.2017 62.7178 21.6133 62.9258 21.9326ZM68.9902 19.3091C68.6914 19.3003 68.3589 19.4233 67.9927 19.6782L68.0806 23.0005H67.0742L67.1797 19.6782L67.0171 18.5181V18.5005H67.9531L67.9707 19.1948L68.1421 19.0498C68.646 18.625 69.0942 18.4126 69.4868 18.4126C69.894 18.4126 70.2046 18.5591 70.4185 18.8521C70.6353 19.1421 70.7524 19.5464 70.77 20.0649L70.8711 23.0005H69.8647L69.9438 20.3638C69.9556 19.9565 69.8779 19.6782 69.7109 19.5288C69.5439 19.3765 69.3037 19.3032 68.9902 19.3091ZM75.4634 22.4336C75.7183 22.4336 76.0156 22.3018 76.3555 22.0381L76.3818 21.2559C76.165 21.1357 75.9131 21.0757 75.626 21.0757C75.3506 21.0757 75.1323 21.1357 74.9712 21.2559C74.813 21.376 74.7339 21.543 74.7339 21.7568C74.7339 21.959 74.7998 22.123 74.9316 22.249C75.0664 22.3721 75.2437 22.4336 75.4634 22.4336ZM76.3291 23.0005L76.3379 22.5786C75.8838 22.9185 75.5 23.0884 75.1865 23.0884C74.7676 23.0884 74.4395 22.9683 74.2021 22.728C73.9648 22.4878 73.8462 22.186 73.8462 21.8228C73.8462 21.603 73.8872 21.4097 73.9692 21.2427C74.0513 21.0757 74.1582 20.9424 74.29 20.8428C74.4219 20.7402 74.5801 20.6567 74.7646 20.5923C74.9521 20.5278 75.1396 20.4839 75.3271 20.4604C75.5146 20.437 75.7168 20.4253 75.9336 20.4253C76.0156 20.4253 76.1709 20.4312 76.3994 20.4429L76.4082 20.21C76.4141 19.999 76.395 19.8232 76.3511 19.6826C76.3101 19.542 76.2441 19.438 76.1533 19.3706C76.0625 19.3003 75.9658 19.252 75.8633 19.2256C75.7637 19.1992 75.6421 19.186 75.4985 19.186C75.1001 19.186 74.6211 19.312 74.0615 19.564H74.0439L74.2153 18.5093C74.8276 18.4448 75.2979 18.4126 75.626 18.4126C76.1416 18.4126 76.5342 18.5591 76.8037 18.8521C77.0762 19.1421 77.2212 19.5464 77.2388 20.0649L77.3354 23.0005H76.3291ZM80.3853 23.0884H79.9238L78.0078 18.5181V18.5005H79.0625L80.3018 22.0381L81.3652 18.5005H82.4375V18.5181L80.3853 23.0884ZM83.6504 16.6196C83.8145 16.6196 83.9492 16.6665 84.0547 16.7603C84.1631 16.8511 84.2173 16.9756 84.2173 17.1338C84.2173 17.3008 84.1631 17.4341 84.0547 17.5337C83.9492 17.6333 83.8145 17.6831 83.6504 17.6831C83.4951 17.6831 83.3633 17.6333 83.2549 17.5337C83.1465 17.4341 83.0923 17.3008 83.0923 17.1338C83.0923 16.9756 83.1465 16.8511 83.2549 16.7603C83.3633 16.6665 83.4951 16.6196 83.6504 16.6196ZM83.1099 18.5005H84.0459V18.5181L84.1733 23.0005H83.167L83.2725 19.6782L83.1099 18.5181V18.5005ZM86.9419 19.2036C86.731 19.2036 86.5654 19.2446 86.4453 19.3267C86.3281 19.4058 86.2695 19.5112 86.2695 19.6431C86.2695 19.7778 86.3193 19.8994 86.4189 20.0078C86.5186 20.1133 86.6899 20.2202 86.9331 20.3286L87.3945 20.5352C87.7637 20.7051 88.0288 20.8838 88.1899 21.0713C88.354 21.2588 88.436 21.4902 88.436 21.7656C88.436 22.1465 88.3027 22.4629 88.0361 22.7148C87.7725 22.9639 87.3901 23.0884 86.8892 23.0884C86.3911 23.0884 85.9648 22.9844 85.6104 22.7764L85.439 21.7964H85.4565C85.7319 22.0015 85.9868 22.1582 86.2212 22.2666C86.4585 22.3721 86.7046 22.4248 86.9595 22.4248C87.1528 22.4248 87.3022 22.3765 87.4077 22.2798C87.5161 22.1831 87.5703 22.0513 87.5703 21.8843C87.5703 21.7319 87.519 21.603 87.4165 21.4976C87.314 21.3892 87.1616 21.2925 86.9595 21.2075L86.3662 20.957C85.7188 20.6816 85.395 20.2554 85.395 19.6782C85.395 19.2944 85.5386 18.9883 85.8257 18.7598C86.1157 18.5283 86.4966 18.4126 86.9683 18.4126C87.4048 18.4126 87.8164 18.4932 88.2031 18.6543L88.3657 19.6782H88.3481C88.1401 19.5229 87.9116 19.4058 87.6626 19.3267C87.4136 19.2446 87.1733 19.2036 86.9419 19.2036Z" fill="white"/>
<path d="M25.6506 13.8047C16.476 13.8047 10.4761 12.4907 1.01103 2.38208M1.01103 2.38208L5.47608 1.49065M1.01103 2.38208L1.01103 6.99061" stroke="white" stroke-width="2" stroke-linecap="round"/>
</svg>
