<svg width="97" height="36" viewBox="0 0 97 36" fill="none" xmlns="http://www.w3.org/2000/svg">
<path d="M54.9389 6.43359L53.8578 3.50244L52.8031 6.43359H54.9389ZM55.8925 9L55.163 7.04004H52.5878L51.8847 9H50.7333V8.98242L53.8051 2.02588H54.1171L57.0087 8.98242V9H55.8925ZM59.663 8.40674C60.0497 8.40674 60.3427 8.25293 60.5419 7.94531C60.7411 7.63477 60.8407 7.21875 60.8407 6.69727C60.832 6.25488 60.728 5.9165 60.5287 5.68213C60.3324 5.44482 60.0497 5.32617 59.6806 5.32617C59.3935 5.32617 59.0639 5.43457 58.6918 5.65137L58.727 8.07275C58.9906 8.29541 59.3027 8.40674 59.663 8.40674ZM59.5795 9.08789C59.3041 9.08789 59.0258 9.0498 58.7446 8.97363L58.7797 11.25H57.7997L57.8876 5.58984L57.7294 4.51758V4.5H58.6567L58.683 5.146C58.9321 4.92627 59.1694 4.74902 59.3949 4.61426C59.6235 4.47949 59.8564 4.41211 60.0937 4.41211C60.372 4.41211 60.6181 4.47803 60.832 4.60986C61.0488 4.73877 61.2201 4.91162 61.3461 5.12842C61.4721 5.34521 61.5658 5.58105 61.6274 5.83594C61.6918 6.08789 61.724 6.3501 61.724 6.62256C61.724 6.76611 61.7153 6.90967 61.6977 7.05322C61.683 7.19385 61.6537 7.34766 61.6098 7.51465C61.5688 7.67871 61.5146 7.83398 61.4472 7.98047C61.3798 8.12695 61.289 8.26904 61.1747 8.40674C61.0634 8.54443 60.9345 8.66309 60.788 8.7627C60.6445 8.85938 60.4687 8.93848 60.2607 9C60.0556 9.05859 59.8285 9.08789 59.5795 9.08789ZM64.787 8.40674C65.1738 8.40674 65.4667 8.25293 65.6659 7.94531C65.8652 7.63477 65.9648 7.21875 65.9648 6.69727C65.956 6.25488 65.852 5.9165 65.6528 5.68213C65.4565 5.44482 65.1738 5.32617 64.8046 5.32617C64.5175 5.32617 64.1879 5.43457 63.8158 5.65137L63.851 8.07275C64.1147 8.29541 64.4267 8.40674 64.787 8.40674ZM64.7035 9.08789C64.4281 9.08789 64.1498 9.0498 63.8686 8.97363L63.9037 11.25H62.9238L63.0116 5.58984L62.8534 4.51758V4.5H63.7807L63.8071 5.146C64.0561 4.92627 64.2934 4.74902 64.519 4.61426C64.7475 4.47949 64.9804 4.41211 65.2177 4.41211C65.496 4.41211 65.7421 4.47803 65.956 4.60986C66.1728 4.73877 66.3442 4.91162 66.4701 5.12842C66.5961 5.34521 66.6899 5.58105 66.7514 5.83594C66.8158 6.08789 66.8481 6.3501 66.8481 6.62256C66.8481 6.76611 66.8393 6.90967 66.8217 7.05322C66.8071 7.19385 66.7778 7.34766 66.7338 7.51465C66.6928 7.67871 66.6386 7.83398 66.5712 7.98047C66.5038 8.12695 66.413 8.26904 66.2988 8.40674C66.1874 8.54443 66.0585 8.66309 65.912 8.7627C65.7685 8.85938 65.5927 8.93848 65.3847 9C65.1796 9.05859 64.9526 9.08789 64.7035 9.08789ZM70.5658 8.47705C70.0824 8.88428 69.6386 9.08789 69.2343 9.08789C68.8593 9.08789 68.5707 8.94141 68.3686 8.64844C68.1694 8.35254 68.0654 7.95117 68.0566 7.44434L68.0302 5.67773L67.8412 4.51758V4.5H68.9399L68.8827 7.14551C68.8739 7.53223 68.9399 7.80322 69.0805 7.9585C69.224 8.11377 69.435 8.19141 69.7133 8.19141C70.0502 8.19141 70.3974 8.06836 70.7548 7.82227L70.6669 4.5H71.6733L71.5678 7.82227L71.7304 8.98242V9H70.7944L70.7768 8.29688L70.5658 8.47705ZM73.5234 2.61914C73.6874 2.61914 73.8222 2.66602 73.9277 2.75977C74.0361 2.85059 74.0903 2.9751 74.0903 3.1333C74.0903 3.30029 74.0361 3.43359 73.9277 3.5332C73.8222 3.63281 73.6874 3.68262 73.5234 3.68262C73.3681 3.68262 73.2363 3.63281 73.1279 3.5332C73.0195 3.43359 72.9653 3.30029 72.9653 3.1333C72.9653 2.9751 73.0195 2.85059 73.1279 2.75977C73.2363 2.66602 73.3681 2.61914 73.5234 2.61914ZM72.9828 4.5H73.9189V4.51758L74.0463 9H73.04L73.1454 5.67773L72.9828 4.51758V4.5ZM78.7045 8.63086C78.3822 8.93555 77.9062 9.08789 77.2763 9.08789C76.9335 9.08789 76.6244 9.02197 76.349 8.89014C76.0766 8.7583 75.8569 8.58105 75.6899 8.3584C75.5229 8.13574 75.3954 7.88672 75.3075 7.61133C75.2197 7.33594 75.1757 7.0459 75.1757 6.74121C75.1757 6.36328 75.2284 6.0249 75.3339 5.72607C75.4423 5.42432 75.5888 5.17969 75.7734 4.99219C75.9579 4.80176 76.1674 4.6582 76.4018 4.56152C76.6362 4.46191 76.8852 4.41211 77.1488 4.41211C77.7992 4.41211 78.2856 4.64209 78.6078 5.10205C78.933 5.55908 79.0531 6.19775 78.9682 7.01807H76.0766C76.1205 7.45459 76.2538 7.7959 76.4765 8.04199C76.7021 8.28516 77.0492 8.40674 77.518 8.40674C77.8988 8.40674 78.3193 8.27197 78.7792 8.00244H78.7968L78.7045 8.63086ZM76.0766 6.56982L78.1552 6.30176C78.1816 5.98242 78.1083 5.72314 77.9355 5.52393C77.7626 5.32178 77.4946 5.2207 77.1313 5.2207C76.9994 5.2207 76.8735 5.24561 76.7533 5.29541C76.6332 5.34521 76.5204 5.42139 76.415 5.52393C76.3124 5.62354 76.2304 5.76416 76.1689 5.9458C76.1073 6.12451 76.0766 6.33252 76.0766 6.56982ZM82.4618 2.61914C82.6259 2.61914 82.7607 2.66602 82.8661 2.75977C82.9745 2.85059 83.0287 2.9751 83.0287 3.1333C83.0287 3.30029 82.9745 3.43359 82.8661 3.5332C82.7607 3.63281 82.6259 3.68262 82.4618 3.68262C82.3066 3.68262 82.1747 3.63281 82.0663 3.5332C81.9579 3.43359 81.9037 3.30029 81.9037 3.1333C81.9037 2.9751 81.9579 2.85059 82.0663 2.75977C82.1747 2.66602 82.3066 2.61914 82.4618 2.61914ZM81.9213 4.5H82.8573V4.51758L82.9848 9H81.9784L82.0839 5.67773L81.9213 4.51758V4.5ZM86.3027 4.41211C86.7568 4.41211 87.12 4.48389 87.3925 4.62744L87.5727 5.67773H87.5551C87.1537 5.37891 86.7275 5.22949 86.2763 5.22949C85.9072 5.22949 85.6025 5.354 85.3622 5.60303C85.1249 5.85205 85.0063 6.22266 85.0063 6.71484C85.0063 7.26855 85.1279 7.68896 85.371 7.97607C85.6171 8.26318 85.9482 8.40674 86.3642 8.40674C86.581 8.40674 86.7831 8.37012 86.9706 8.29688C87.1581 8.22363 87.3559 8.12256 87.5639 7.99365H87.5815L87.4892 8.62207C87.3691 8.74219 87.1947 8.85059 86.9662 8.94727C86.7406 9.04102 86.5048 9.08789 86.2587 9.08789C85.6259 9.08789 85.1103 8.86377 84.7118 8.41553C84.3134 7.96436 84.1142 7.3916 84.1142 6.69727C84.1142 6.32812 84.1728 5.99561 84.29 5.69971C84.4101 5.40381 84.5727 5.16357 84.7778 4.979C84.9828 4.79443 85.2143 4.65381 85.4721 4.55713C85.7328 4.46045 86.0097 4.41211 86.3027 4.41211ZM89.1064 2.61914C89.2704 2.61914 89.4052 2.66602 89.5107 2.75977C89.6191 2.85059 89.6733 2.9751 89.6733 3.1333C89.6733 3.30029 89.6191 3.43359 89.5107 3.5332C89.4052 3.63281 89.2704 3.68262 89.1064 3.68262C88.9511 3.68262 88.8193 3.63281 88.7109 3.5332C88.6025 3.43359 88.5483 3.30029 88.5483 3.1333C88.5483 2.9751 88.6025 2.85059 88.7109 2.75977C88.8193 2.66602 88.9511 2.61914 89.1064 2.61914ZM88.5658 4.5H89.5019V4.51758L89.6293 9H88.623L88.7284 5.67773L88.5658 4.51758V4.5ZM46.8442 20.4067C47.2309 20.4067 47.5238 20.2529 47.7231 19.9453C47.9223 19.6348 48.0219 19.2188 48.0219 18.6973C48.0131 18.2549 47.9091 17.9165 47.7099 17.6821C47.5136 17.4448 47.2309 17.3262 46.8617 17.3262C46.5746 17.3262 46.245 17.4346 45.873 17.6514L45.9081 20.0728C46.1718 20.2954 46.4838 20.4067 46.8442 20.4067ZM46.7607 21.0879C46.4853 21.0879 46.207 21.0498 45.9257 20.9736L45.9609 23.25H44.9809L45.0688 17.5898L44.9106 16.5176V16.5H45.8378L45.8642 17.146C46.1132 16.9263 46.3505 16.749 46.5761 16.6143C46.8046 16.4795 47.0375 16.4121 47.2748 16.4121C47.5531 16.4121 47.7992 16.478 48.0131 16.6099C48.2299 16.7388 48.4013 16.9116 48.5273 17.1284C48.6532 17.3452 48.747 17.5811 48.8085 17.8359C48.873 18.0879 48.9052 18.3501 48.9052 18.6226C48.9052 18.7661 48.8964 18.9097 48.8788 19.0532C48.8642 19.1938 48.8349 19.3477 48.7909 19.5146C48.7499 19.6787 48.6957 19.834 48.6283 19.9805C48.561 20.127 48.4701 20.269 48.3559 20.4067C48.2446 20.5444 48.1156 20.6631 47.9692 20.7627C47.8256 20.8594 47.6498 20.9385 47.4418 21C47.2367 21.0586 47.0097 21.0879 46.7607 21.0879ZM51.9155 16.4121C52.2436 16.4121 52.5424 16.4722 52.8119 16.5923C53.0815 16.7124 53.3027 16.8765 53.4755 17.0845C53.6513 17.2896 53.7861 17.5298 53.8798 17.8052C53.9736 18.0776 54.0204 18.3691 54.0204 18.6797C54.0204 19.0137 53.9736 19.3257 53.8798 19.6157C53.7861 19.9058 53.6528 20.1606 53.4799 20.3804C53.3071 20.6001 53.0859 20.7729 52.8163 20.8989C52.5468 21.0249 52.2465 21.0879 51.9155 21.0879C51.476 21.0879 51.0937 20.978 50.7685 20.7583C50.4462 20.5356 50.2045 20.2456 50.0434 19.8882C49.8852 19.5278 49.8061 19.125 49.8061 18.6797C49.8061 18.2607 49.8866 17.8813 50.0478 17.5415C50.2089 17.2017 50.4506 16.9292 50.7729 16.7241C51.0981 16.5161 51.4789 16.4121 51.9155 16.4121ZM51.0102 19.9321C51.2182 20.2485 51.5199 20.4067 51.9155 20.4067C52.311 20.4067 52.6113 20.2485 52.8163 19.9321C53.0243 19.6157 53.1283 19.2041 53.1283 18.6973C53.1283 18.2842 53.0199 17.937 52.8031 17.6558C52.5893 17.3716 52.2934 17.2295 51.9155 17.2295C51.5346 17.2295 51.2358 17.3701 51.019 17.6514C50.8051 17.9326 50.6982 18.2812 50.6982 18.6973C50.6982 19.2012 50.8022 19.6128 51.0102 19.9321ZM57.7382 20.4771C57.2548 20.8843 56.811 21.0879 56.4067 21.0879C56.0317 21.0879 55.7431 20.9414 55.5409 20.6484C55.3417 20.3525 55.2377 19.9512 55.2289 19.4443L55.2026 17.6777L55.0136 16.5176V16.5H56.1122L56.0551 19.1455C56.0463 19.5322 56.1122 19.8032 56.2529 19.9585C56.3964 20.1138 56.6073 20.1914 56.8857 20.1914C57.2226 20.1914 57.5697 20.0684 57.9272 19.8223L57.8393 16.5H58.8456L58.7402 19.8223L58.9028 20.9824V21H57.9667L57.9491 20.2969L57.7382 20.4771ZM62.1547 17.3657C61.9965 17.3657 61.8251 17.4009 61.6405 17.4712C61.456 17.5415 61.2861 17.6294 61.1308 17.7349L61.2187 21H60.2123L60.3178 17.6777L60.1552 16.5176V16.5H61.0912L61.1088 17.2383L61.3373 17.0493C61.3549 17.0347 61.3945 17.001 61.456 16.9482C61.5204 16.8955 61.5629 16.8604 61.5834 16.8428C61.6039 16.8252 61.642 16.7944 61.6977 16.7505C61.7563 16.7036 61.7988 16.6714 61.8251 16.6538C61.8544 16.6362 61.8954 16.6113 61.9482 16.5791C62.0009 16.5439 62.0448 16.5205 62.08 16.5088C62.1152 16.4941 62.1562 16.478 62.203 16.4604C62.2529 16.4399 62.2997 16.4268 62.3437 16.4209C62.3876 16.415 62.433 16.4121 62.4799 16.4121C62.6352 16.4121 62.7553 16.418 62.8403 16.4297L63.0204 17.5459H63.0029C62.7597 17.4258 62.477 17.3657 62.1547 17.3657ZM67.0898 17.2031C66.8788 17.2031 66.7133 17.2441 66.5932 17.3262C66.476 17.4053 66.4174 17.5107 66.4174 17.6426C66.4174 17.7773 66.4672 17.8989 66.5668 18.0073C66.6664 18.1128 66.8378 18.2197 67.081 18.3281L67.5424 18.5347C67.9115 18.7046 68.1767 18.8833 68.3378 19.0708C68.5019 19.2583 68.5839 19.4897 68.5839 19.7651C68.5839 20.146 68.4506 20.4624 68.184 20.7144C67.9203 20.9634 67.538 21.0879 67.037 21.0879C66.539 21.0879 66.1127 20.9839 65.7582 20.7759L65.5868 19.7959H65.6044C65.8798 20.001 66.1347 20.1577 66.3691 20.2661C66.6064 20.3716 66.8525 20.4243 67.1073 20.4243C67.3007 20.4243 67.4501 20.376 67.5556 20.2793C67.664 20.1826 67.7182 20.0508 67.7182 19.8838C67.7182 19.7314 67.6669 19.6025 67.5644 19.4971C67.4618 19.3887 67.3095 19.292 67.1073 19.207L66.5141 18.9565C65.8666 18.6812 65.5429 18.2549 65.5429 17.6777C65.5429 17.2939 65.6864 16.9878 65.9736 16.7593C66.2636 16.5278 66.6445 16.4121 67.1161 16.4121C67.5527 16.4121 67.9643 16.4927 68.351 16.6538L68.5136 17.6777H68.496C68.288 17.5225 68.0595 17.4053 67.8105 17.3262C67.5614 17.2441 67.3212 17.2031 67.0898 17.2031ZM71.7612 16.4121C72.2153 16.4121 72.5785 16.4839 72.851 16.6274L73.0312 17.6777H73.0136C72.6122 17.3789 72.186 17.2295 71.7348 17.2295C71.3656 17.2295 71.061 17.354 70.8207 17.603C70.5834 17.8521 70.4648 18.2227 70.4648 18.7148C70.4648 19.2686 70.5863 19.689 70.8295 19.9761C71.0756 20.2632 71.4067 20.4067 71.8227 20.4067C72.0395 20.4067 72.2416 20.3701 72.4291 20.2969C72.6166 20.2236 72.8144 20.1226 73.0224 19.9937H73.04L72.9477 20.6221C72.8276 20.7422 72.6532 20.8506 72.4247 20.9473C72.1991 21.041 71.9633 21.0879 71.7172 21.0879C71.0844 21.0879 70.5688 20.8638 70.1703 20.4155C69.7719 19.9644 69.5727 19.3916 69.5727 18.6973C69.5727 18.3281 69.6313 17.9956 69.7485 17.6997C69.8686 17.4038 70.0312 17.1636 70.2363 16.979C70.4413 16.7944 70.6728 16.6538 70.9306 16.5571C71.1913 16.4604 71.4682 16.4121 71.7612 16.4121ZM75.5097 20.4331C75.7646 20.4331 76.0619 20.3013 76.4018 20.0376L76.4281 19.2554C76.2113 19.1353 75.9594 19.0752 75.6723 19.0752C75.3969 19.0752 75.1786 19.1353 75.0175 19.2554C74.8593 19.3755 74.7802 19.5425 74.7802 19.7563C74.7802 19.9585 74.8461 20.1226 74.978 20.2485C75.1127 20.3716 75.29 20.4331 75.5097 20.4331ZM76.3754 21L76.3842 20.5781C75.9301 20.918 75.5463 21.0879 75.2328 21.0879C74.8139 21.0879 74.4858 20.9678 74.2485 20.7275C74.0112 20.4873 73.8925 20.1855 73.8925 19.8223C73.8925 19.6025 73.9335 19.4092 74.0155 19.2422C74.0976 19.0752 74.2045 18.9419 74.3363 18.8423C74.4682 18.7397 74.6264 18.6562 74.811 18.5918C74.9985 18.5273 75.186 18.4834 75.3735 18.46C75.561 18.4365 75.7631 18.4248 75.9799 18.4248C76.0619 18.4248 76.2172 18.4307 76.4457 18.4424L76.4545 18.2095C76.4604 17.9985 76.4413 17.8228 76.3974 17.6821C76.3564 17.5415 76.2905 17.4375 76.1996 17.3701C76.1088 17.2998 76.0121 17.2515 75.9096 17.2251C75.81 17.1987 75.6884 17.1855 75.5448 17.1855C75.1464 17.1855 74.6674 17.3115 74.1078 17.5635H74.0903L74.2616 16.5088C74.8739 16.4443 75.3442 16.4121 75.6723 16.4121C76.1879 16.4121 76.5805 16.5586 76.85 16.8516C77.1225 17.1416 77.2675 17.5459 77.2851 18.0645L77.3818 21H76.3754ZM80.6117 17.3086C80.3129 17.2998 79.9804 17.4229 79.6142 17.6777L79.7021 21H78.6957L78.8012 17.6777L78.6386 16.5176V16.5H79.5746L79.5922 17.1943L79.7636 17.0493C80.2675 16.6245 80.7157 16.4121 81.1083 16.4121C81.5155 16.4121 81.8261 16.5586 82.04 16.8516C82.2568 17.1416 82.3739 17.5459 82.3915 18.0645L82.4926 21H81.4863L81.5654 18.3633C81.5771 17.9561 81.4994 17.6777 81.3324 17.5283C81.1655 17.376 80.9252 17.3027 80.6117 17.3086ZM85.7709 17.3086C85.4721 17.2998 85.1396 17.4229 84.7734 17.6777L84.8613 21H83.8549L83.9604 17.6777L83.7978 16.5176V16.5H84.7338L84.7514 17.1943L84.9228 17.0493C85.4267 16.6245 85.8749 16.4121 86.2675 16.4121C86.6747 16.4121 86.9853 16.5586 87.1991 16.8516C87.4159 17.1416 87.5331 17.5459 87.5507 18.0645L87.6518 21H86.6454L86.7245 18.3633C86.7363 17.9561 86.6586 17.6777 86.4916 17.5283C86.3246 17.376 86.0844 17.3027 85.7709 17.3086ZM92.3056 20.6309C91.9833 20.9355 91.5072 21.0879 90.8774 21.0879C90.5346 21.0879 90.2255 21.022 89.9501 20.8901C89.6777 20.7583 89.4579 20.5811 89.2909 20.3584C89.1239 20.1357 88.9965 19.8867 88.9086 19.6113C88.8207 19.3359 88.7768 19.0459 88.7768 18.7412C88.7768 18.3633 88.8295 18.0249 88.935 17.7261C89.0434 17.4243 89.1899 17.1797 89.3744 16.9922C89.559 16.8018 89.7685 16.6582 90.0029 16.5615C90.2372 16.4619 90.4863 16.4121 90.7499 16.4121C91.4003 16.4121 91.8866 16.6421 92.2089 17.1021C92.5341 17.5591 92.6542 18.1978 92.5693 19.0181H89.6777C89.7216 19.4546 89.8549 19.7959 90.0776 20.042C90.3031 20.2852 90.6503 20.4067 91.1191 20.4067C91.4999 20.4067 91.9203 20.272 92.3803 20.0024H92.3979L92.3056 20.6309ZM89.6777 18.5698L91.7563 18.3018C91.7826 17.9824 91.7094 17.7231 91.5365 17.5239C91.3637 17.3218 91.0956 17.2207 90.7323 17.2207C90.6005 17.2207 90.4745 17.2456 90.3544 17.2954C90.2343 17.3452 90.1215 17.4214 90.016 17.5239C89.9135 17.6235 89.8315 17.7642 89.7699 17.9458C89.7084 18.1245 89.6777 18.3325 89.6777 18.5698ZM95.7201 17.3657C95.5619 17.3657 95.3905 17.4009 95.206 17.4712C95.0214 17.5415 94.8515 17.6294 94.6962 17.7349L94.7841 21H93.7778L93.8832 17.6777L93.7206 16.5176V16.5H94.6567L94.6742 17.2383L94.9028 17.0493C94.9203 17.0347 94.9599 17.001 95.0214 16.9482C95.0859 16.8955 95.1283 16.8604 95.1488 16.8428C95.1694 16.8252 95.2074 16.7944 95.2631 16.7505C95.3217 16.7036 95.3642 16.6714 95.3905 16.6538C95.4198 16.6362 95.4609 16.6113 95.5136 16.5791C95.5663 16.5439 95.6103 16.5205 95.6454 16.5088C95.6806 16.4941 95.7216 16.478 95.7685 16.4604C95.8183 16.4399 95.8652 16.4268 95.9091 16.4209C95.953 16.415 95.9985 16.4121 96.0453 16.4121C96.2006 16.4121 96.3207 16.418 96.4057 16.4297L96.5859 17.5459H96.5683C96.3251 17.4258 96.0424 17.3657 95.7201 17.3657ZM50.474 32.4771C49.9906 32.8843 49.5468 33.0879 49.1425 33.0879C48.7675 33.0879 48.4789 32.9414 48.2768 32.6484C48.0776 32.3525 47.9736 31.9512 47.9648 31.4443L47.9384 29.6777L47.7494 28.5176V28.5H48.8481L48.7909 31.1455C48.7822 31.5322 48.8481 31.8032 48.9887 31.9585C49.1322 32.1138 49.3432 32.1914 49.6215 32.1914C49.9584 32.1914 50.3056 32.0684 50.663 31.8223L50.5751 28.5H51.5815L51.476 31.8223L51.6386 32.9824V33H50.7026L50.685 32.2969L50.474 32.4771ZM54.8642 29.3086C54.5654 29.2998 54.2328 29.4229 53.8666 29.6777L53.9545 33H52.9482L53.0536 29.6777L52.891 28.5176V28.5H53.8271L53.8447 29.1943L54.016 29.0493C54.5199 28.6245 54.9682 28.4121 55.3608 28.4121C55.768 28.4121 56.0785 28.5586 56.2924 28.8516C56.5092 29.1416 56.6264 29.5459 56.644 30.0645L56.745 33H55.7387L55.8178 30.3633C55.8295 29.9561 55.7519 29.6777 55.5849 29.5283C55.4179 29.376 55.1777 29.3027 54.8642 29.3086ZM66.6855 34.2129H66.6679L62.6073 33.0879C62.0478 33.0117 61.5541 32.811 61.1264 32.4858C60.7016 32.1577 60.3749 31.7432 60.1464 31.2422C59.9208 30.7383 59.808 30.1875 59.808 29.5898C59.808 29.0742 59.8915 28.6011 60.0585 28.1704C60.2255 27.7368 60.454 27.375 60.7441 27.085C61.037 26.792 61.3827 26.5649 61.7812 26.4038C62.1825 26.2427 62.6147 26.1621 63.0776 26.1621C63.5375 26.1621 63.9667 26.2427 64.3652 26.4038C64.7636 26.5649 65.1078 26.792 65.3979 27.085C65.6879 27.375 65.9164 27.7368 66.0834 28.1704C66.2504 28.6011 66.3339 29.0742 66.3339 29.5898C66.3339 30.4102 66.1156 31.1338 65.6791 31.7607C65.2455 32.3848 64.6625 32.792 63.9301 32.9824H66.5053L66.6855 34.2129ZM63.0776 32.3145C63.3998 32.3145 63.7016 32.25 63.9828 32.1211C64.267 31.9922 64.5131 31.812 64.7211 31.5806C64.9291 31.3462 65.0917 31.0562 65.2089 30.7104C65.329 30.3618 65.3891 29.9795 65.3891 29.5635C65.3891 28.8076 65.1767 28.1997 64.7519 27.7397C64.3271 27.2798 63.769 27.0498 63.0776 27.0498C62.3891 27.0498 61.831 27.2812 61.4032 27.7441C60.9755 28.2041 60.7616 28.8076 60.7616 29.5547C60.7616 29.9736 60.8202 30.3574 60.9374 30.7061C61.0575 31.0547 61.2216 31.3462 61.4296 31.5806C61.6376 31.812 61.8822 31.9922 62.1635 32.1211C62.4477 32.25 62.7524 32.3145 63.0776 32.3145ZM68.8564 29.4536L68.9882 33H67.9028L68.0346 29.4536L67.9028 26.25H69.7177C70.3476 26.25 70.8427 26.4038 71.203 26.7114C71.5634 27.019 71.7436 27.4204 71.7436 27.9155C71.7436 28.3579 71.6264 28.7344 71.392 29.0449C71.1606 29.3555 70.8075 29.5752 70.3329 29.7041L72.4994 32.9824V33H71.203L69.5947 29.8228V29.3174C69.9843 29.2734 70.2846 29.1519 70.4955 28.9526C70.7094 28.7505 70.8163 28.4766 70.8163 28.1309C70.8163 27.8203 70.705 27.564 70.4823 27.3618C70.2626 27.1597 69.9418 27.0586 69.5199 27.0586H68.953L68.8564 29.4536ZM77.162 28.4121C77.6161 28.4121 77.9794 28.4839 78.2519 28.6274L78.4321 29.6777H78.4145C78.0131 29.3789 77.5868 29.2295 77.1357 29.2295C76.7665 29.2295 76.4618 29.354 76.2216 29.603C75.9843 29.8521 75.8656 30.2227 75.8656 30.7148C75.8656 31.2686 75.9872 31.689 76.2304 31.9761C76.4765 32.2632 76.8075 32.4067 77.2236 32.4067C77.4404 32.4067 77.6425 32.3701 77.83 32.2969C78.0175 32.2236 78.2153 32.1226 78.4233 31.9937H78.4408L78.3486 32.6221C78.2284 32.7422 78.0541 32.8506 77.8256 32.9473C77.6 33.041 77.3642 33.0879 77.1181 33.0879C76.4853 33.0879 75.9697 32.8638 75.5712 32.4155C75.1728 31.9644 74.9736 31.3916 74.9736 30.6973C74.9736 30.3281 75.0322 29.9956 75.1493 29.6997C75.2695 29.4038 75.4321 29.1636 75.6371 28.979C75.8422 28.7944 76.0737 28.6538 76.3315 28.5571C76.5922 28.4604 76.8691 28.4121 77.162 28.4121ZM81.3544 28.4121C81.6825 28.4121 81.9814 28.4722 82.2509 28.5923C82.5204 28.7124 82.7416 28.8765 82.9145 29.0845C83.0903 29.2896 83.225 29.5298 83.3188 29.8052C83.4125 30.0776 83.4594 30.3691 83.4594 30.6797C83.4594 31.0137 83.4125 31.3257 83.3188 31.6157C83.225 31.9058 83.0917 32.1606 82.9189 32.3804C82.746 32.6001 82.5248 32.7729 82.2553 32.8989C81.9858 33.0249 81.6855 33.0879 81.3544 33.0879C80.915 33.0879 80.5326 32.978 80.2074 32.7583C79.8852 32.5356 79.6435 32.2456 79.4823 31.8882C79.3241 31.5278 79.245 31.125 79.245 30.6797C79.245 30.2607 79.3256 29.8813 79.4867 29.5415C79.6479 29.2017 79.8896 28.9292 80.2118 28.7241C80.537 28.5161 80.9179 28.4121 81.3544 28.4121ZM80.4491 31.9321C80.6572 32.2485 80.9589 32.4067 81.3544 32.4067C81.7499 32.4067 82.0502 32.2485 82.2553 31.9321C82.4633 31.6157 82.5673 31.2041 82.5673 30.6973C82.5673 30.2842 82.4589 29.937 82.2421 29.6558C82.0282 29.3716 81.7323 29.2295 81.3544 29.2295C80.9736 29.2295 80.6747 29.3701 80.4579 29.6514C80.2441 29.9326 80.1371 30.2812 80.1371 30.6973C80.1371 31.2012 80.2411 31.6128 80.4491 31.9321ZM86.5488 32.4067C86.8241 32.4067 87.0995 32.3159 87.3749 32.1343L87.4672 29.4624C87.1889 29.3071 86.8857 29.2295 86.5575 29.2295C86.3407 29.2295 86.1474 29.272 85.9775 29.3569C85.8075 29.439 85.6713 29.5518 85.5688 29.6953C85.4662 29.8389 85.3886 30 85.3359 30.1787C85.2861 30.3545 85.2612 30.542 85.2612 30.7412C85.2612 31.2773 85.371 31.689 85.5907 31.9761C85.8134 32.2632 86.1327 32.4067 86.5488 32.4067ZM87.3749 33L87.3661 32.6572C86.9706 32.9443 86.603 33.0879 86.2631 33.0879C85.8735 33.0879 85.5307 32.978 85.2348 32.7583C84.9418 32.5386 84.7221 32.2529 84.5756 31.9014C84.4321 31.5498 84.3603 31.1602 84.3603 30.7324C84.3603 30.3721 84.4174 30.0439 84.5317 29.748C84.6488 29.4492 84.8056 29.2046 85.0019 29.0142C85.2011 28.8208 85.4311 28.6729 85.6918 28.5703C85.9526 28.4648 86.2294 28.4121 86.5224 28.4121C86.8652 28.4121 87.1742 28.4707 87.4496 28.5879L87.3486 26.0698H88.3505L88.2319 29.1855L88.3505 33H87.3749ZM93.0043 32.6309C92.6821 32.9355 92.206 33.0879 91.5761 33.0879C91.2333 33.0879 90.9242 33.022 90.6488 32.8901C90.3764 32.7583 90.1567 32.5811 89.9897 32.3584C89.8227 32.1357 89.6952 31.8867 89.6073 31.6113C89.5195 31.3359 89.4755 31.0459 89.4755 30.7412C89.4755 30.3633 89.5282 30.0249 89.6337 29.7261C89.7421 29.4243 89.8886 29.1797 90.0732 28.9922C90.2577 28.8018 90.4672 28.6582 90.7016 28.5615C90.936 28.4619 91.185 28.4121 91.4487 28.4121C92.099 28.4121 92.5854 28.6421 92.9076 29.1021C93.2328 29.5591 93.353 30.1978 93.268 31.0181H90.3764C90.4203 31.4546 90.5536 31.7959 90.7763 32.042C91.0019 32.2852 91.349 32.4067 91.8178 32.4067C92.1987 32.4067 92.6191 32.272 93.079 32.0024H93.0966L93.0043 32.6309ZM90.3764 30.5698L92.455 30.3018C92.4814 29.9824 92.4081 29.7231 92.2353 29.5239C92.0624 29.3218 91.7944 29.2207 91.4311 29.2207C91.2992 29.2207 91.1733 29.2456 91.0531 29.2954C90.933 29.3452 90.8202 29.4214 90.7148 29.5239C90.6122 29.6235 90.5302 29.7642 90.4687 29.9458C90.4072 30.1245 90.3764 30.3325 90.3764 30.5698Z" fill="black"/>
<path d="M1.43878 20C6.9824 15.9085 21 10 37 19.9999" stroke="black" stroke-width="2" stroke-linecap="round"/>
<path d="M1.8179 13.6248L1.40234 20.6124L7.3027 22.466" stroke="black" stroke-width="2" stroke-linecap="round"/>
</svg>
