<svg width="50" height="45" viewBox="0 0 50 45" fill="none" xmlns="http://www.w3.org/2000/svg">
<path d="M37.8922 27.0593L21.0001 27.0328L37.9182 43.951L37.8922 27.0593Z" fill="#EBEBEB" stroke="#C2C2C2" stroke-width="0.6"/>
<path d="M4 31L4 42.8892L16.0739 31L4 31Z" fill="#EBEBEB" stroke="#C2C2C2" stroke-width="0.6"/>
<path d="M13.0002 6.96242L18.9817 12.9257V0.999878L13.0002 6.96242Z" fill="#EBEBEB" stroke="#C2C2C2" stroke-width="0.6"/>
<path d="M13.074 6.98153L7 1.00004L7 12.963L13.074 6.98153Z" fill="#EBEBEB" stroke="#C2C2C2" stroke-width="0.6" stroke-linejoin="bevel"/>
<path d="M13.0002 19.0001L1 31.0369L24.9997 31.0369L13.0002 19.0001Z" fill="#EBEBEB" stroke="#C2C2C2" stroke-width="0.6"/>
<path d="M19.0001 13.0186L13 7L6.99994 13.0186L13 19.0371L19.0001 13.0186Z" fill="#EBEBEB" stroke="#C2C2C2" stroke-width="0.6"/>
<path d="M49.2205 11.8424L45.5469 23.2272L38 27.0774L41.6738 15.692L49.2205 11.8424Z" fill="#EBEBEB" stroke="#C2C2C2" stroke-width="0.6"/>
</svg>
