<svg width="123" height="72" viewBox="0 0 123 72" fill="none" xmlns="http://www.w3.org/2000/svg">
<path d="M42.0694 5.36615C41.8672 4.85221 42.1199 4.27166 42.6339 4.06944L51.0089 0.77412C51.5228 0.571903 52.1034 0.824598 52.3056 1.33853C52.5078 1.85246 52.2551 2.43302 51.7412 2.63523L44.2967 5.56441L47.2259 13.0089C47.4281 13.5228 47.1754 14.1034 46.6615 14.3056C46.1475 14.5078 45.567 14.2551 45.3648 13.7412L42.0694 5.36615ZM61.9891 35L60.9897 34.9672C61.2169 28.0437 57.8305 12.5458 42.6009 5.91691L43 5L43.3991 4.08309C59.6774 11.1685 63.2302 27.6706 62.9886 35.0328L61.9891 35Z" fill="black"/>
<path d="M7.254 60.3375C6.7895 60.6363 6.17076 60.5019 5.872 60.0374L1.00354 52.4678C0.704782 52.0033 0.839151 51.3846 1.30366 51.0858C1.76816 50.7871 2.3869 50.9215 2.68566 51.386L7.01318 58.1144L13.7417 53.7869C14.2062 53.4882 14.8249 53.6225 15.1237 54.087C15.4224 54.5515 15.2881 55.1703 14.8236 55.469L7.254 60.3375ZM32.4237 35.0107L32.5868 35.9973C25.7525 37.1275 11.2151 43.4773 7.69029 59.7087L6.71306 59.4965L5.73584 59.2842C9.50343 41.9351 24.993 35.2259 32.2605 34.0241L32.4237 35.0107Z" fill="black"/>
<path d="M41.7493 51.5649C41.5366 51.6938 41.2289 51.8147 40.826 51.9275C40.4264 52.0403 40.022 52.0967 39.6127 52.0967C39.0681 52.0967 38.5621 52.0097 38.0948 51.8356C37.6275 51.6616 37.2199 51.4135 36.8718 51.0912C36.527 50.7689 36.2547 50.3645 36.0549 49.8779C35.8583 49.3913 35.76 48.8515 35.76 48.2585C35.76 47.0822 36.1113 46.1589 36.8138 45.4886C37.5164 44.8151 38.4687 44.4783 39.6707 44.4783C40.3894 44.4783 41.1048 44.5927 41.817 44.8215L42.0152 46.2282H41.9959C41.6317 45.9704 41.253 45.7771 40.8599 45.6481C40.4667 45.5192 40.001 45.4548 39.4628 45.4548C39.2308 45.4548 38.9972 45.4822 38.7619 45.537C38.5299 45.5917 38.293 45.6868 38.0513 45.8222C37.8128 45.9543 37.6018 46.1187 37.4181 46.3152C37.2376 46.5118 37.0894 46.7664 36.9733 47.079C36.8573 47.3916 36.7993 47.7413 36.7993 48.128C36.7993 49.0787 37.0459 49.8376 37.5389 50.4048C38.0352 50.972 38.7329 51.2556 39.632 51.2556C40.3797 51.2556 41.1451 50.9784 41.9282 50.4241H41.9475L41.7493 51.5649ZM45.3555 47.9395C45.0203 47.9298 44.6465 48.0684 44.234 48.3552L44.3452 52H43.2479L43.3832 47.8041L43.2479 44.3768H44.3452L44.2147 47.8041V47.8234L44.4128 47.6542C44.6771 47.4351 44.9285 47.2627 45.1669 47.137C45.4086 47.0113 45.6487 46.9501 45.8872 46.9533C46.3352 46.9501 46.6784 47.1096 46.9168 47.4319C47.1553 47.7542 47.2842 48.2005 47.3036 48.7709L47.4147 52H46.3126L46.3948 49.0996C46.4077 48.6517 46.3239 48.3455 46.1434 48.1812C45.9629 48.0136 45.7003 47.933 45.3555 47.9395ZM50.9242 46.9533C51.2852 46.9533 51.6139 47.0194 51.9104 47.1515C52.2068 47.2836 52.4501 47.4641 52.6403 47.6929C52.8336 47.9185 52.9819 48.1828 53.085 48.4857C53.1881 48.7854 53.2397 49.1061 53.2397 49.4477C53.2397 49.815 53.1881 50.1583 53.085 50.4773C52.9819 50.7963 52.8353 51.0767 52.6451 51.3184C52.455 51.5601 52.2117 51.7502 51.9152 51.8888C51.6187 52.0274 51.2884 52.0967 50.9242 52.0967C50.4408 52.0967 50.0203 51.9758 49.6626 51.7341C49.3081 51.4892 49.0422 51.1702 48.8649 50.777C48.6909 50.3806 48.6039 49.9375 48.6039 49.4477C48.6039 48.9868 48.6925 48.5695 48.8698 48.1957C49.047 47.8218 49.3129 47.5221 49.6674 47.2965C50.0251 47.0677 50.444 46.9533 50.9242 46.9533ZM49.9284 50.8253C50.1572 51.1734 50.4892 51.3474 50.9242 51.3474C51.3593 51.3474 51.6896 51.1734 51.9152 50.8253C52.144 50.4773 52.2584 50.0245 52.2584 49.467C52.2584 49.0126 52.1392 48.6307 51.9007 48.3213C51.6654 48.0087 51.3399 47.8524 50.9242 47.8524C50.5053 47.8524 50.1766 48.0071 49.9381 48.3165C49.7028 48.6259 49.5852 49.0094 49.5852 49.467C49.5852 50.0213 49.6996 50.4741 49.9284 50.8253ZM55.0234 44.9811C55.2039 44.9811 55.3521 45.0326 55.4682 45.1357C55.5874 45.2356 55.647 45.3726 55.647 45.5466C55.647 45.7303 55.5874 45.877 55.4682 45.9865C55.3521 46.0961 55.2039 46.1509 55.0234 46.1509C54.8526 46.1509 54.7076 46.0961 54.5884 45.9865C54.4691 45.877 54.4095 45.7303 54.4095 45.5466C54.4095 45.3726 54.4691 45.2356 54.5884 45.1357C54.7076 45.0326 54.8526 44.9811 55.0234 44.9811ZM54.4289 47.05H55.4585V47.0693L55.5987 52H54.4917L54.6077 48.3455L54.4289 47.0693V47.05ZM58.6441 47.8234C58.4121 47.8234 58.23 47.8686 58.0979 47.9588C57.9689 48.0458 57.9045 48.1618 57.9045 48.3068C57.9045 48.4551 57.9593 48.5888 58.0688 48.7081C58.1784 48.8241 58.3669 48.9417 58.6344 49.0609L59.142 49.2881C59.548 49.475 59.8397 49.6716 60.0169 49.8779C60.1974 50.0841 60.2876 50.3387 60.2876 50.6417C60.2876 51.0606 60.141 51.4086 59.8478 51.6858C59.5577 51.9597 59.1372 52.0967 58.5861 52.0967C58.0382 52.0967 57.5693 51.9823 57.1794 51.7535L56.9909 50.6755H57.0102C57.3131 50.9011 57.5935 51.0735 57.8513 51.1927C58.1124 51.3087 58.3831 51.3667 58.6634 51.3667C58.8761 51.3667 59.0405 51.3136 59.1565 51.2072C59.2757 51.1009 59.3354 50.9559 59.3354 50.7722C59.3354 50.6046 59.279 50.4628 59.1662 50.3468C59.0534 50.2275 58.8858 50.1212 58.6634 50.0277L58.0108 49.7522C57.2986 49.4493 56.9425 48.9804 56.9425 48.3455C56.9425 47.9233 57.1004 47.5866 57.4163 47.3352C57.7353 47.0806 58.1542 46.9533 58.6731 46.9533C59.1533 46.9533 59.6061 47.0419 60.0314 47.2192L60.2103 48.3455H60.191C59.9622 48.1747 59.7108 48.0458 59.4369 47.9588C59.1629 47.8686 58.8987 47.8234 58.6441 47.8234ZM62.1681 44.9811C62.3485 44.9811 62.4968 45.0326 62.6128 45.1357C62.732 45.2356 62.7917 45.3726 62.7917 45.5466C62.7917 45.7303 62.732 45.877 62.6128 45.9865C62.4968 46.0961 62.3485 46.1509 62.1681 46.1509C61.9973 46.1509 61.8522 46.0961 61.733 45.9865C61.6138 45.877 61.5542 45.7303 61.5542 45.5466C61.5542 45.3726 61.6138 45.2356 61.733 45.1357C61.8522 45.0326 61.9973 44.9811 62.1681 44.9811ZM61.5735 47.05H62.6031V47.0693L62.7433 52H61.6363L61.7523 48.3455L61.5735 47.0693V47.05ZM65.7887 47.8234C65.5567 47.8234 65.3746 47.8686 65.2425 47.9588C65.1136 48.0458 65.0491 48.1618 65.0491 48.3068C65.0491 48.4551 65.1039 48.5888 65.2135 48.7081C65.323 48.8241 65.5116 48.9417 65.7791 49.0609L66.2866 49.2881C66.6927 49.475 66.9843 49.6716 67.1616 49.8779C67.342 50.0841 67.4323 50.3387 67.4323 50.6417C67.4323 51.0606 67.2856 51.4086 66.9924 51.6858C66.7023 51.9597 66.2818 52.0967 65.7307 52.0967C65.1829 52.0967 64.714 51.9823 64.324 51.7535L64.1355 50.6755H64.1548C64.4578 50.9011 64.7381 51.0735 64.9959 51.1927C65.257 51.3087 65.5277 51.3667 65.8081 51.3667C66.0208 51.3667 66.1851 51.3136 66.3011 51.2072C66.4204 51.1009 66.48 50.9559 66.48 50.7722C66.48 50.6046 66.4236 50.4628 66.3108 50.3468C66.198 50.2275 66.0304 50.1212 65.8081 50.0277L65.1555 49.7522C64.4433 49.4493 64.0872 48.9804 64.0872 48.3455C64.0872 47.9233 64.2451 47.5866 64.5609 47.3352C64.8799 47.0806 65.2989 46.9533 65.8177 46.9533C66.2979 46.9533 66.7507 47.0419 67.1761 47.2192L67.3549 48.3455H67.3356C67.1068 48.1747 66.8554 48.0458 66.5815 47.9588C66.3076 47.8686 66.0433 47.8234 65.7887 47.8234ZM73.6004 51.4248C73.0687 51.8727 72.5805 52.0967 72.1357 52.0967C71.7232 52.0967 71.4058 51.9355 71.1834 51.6133C70.9643 51.2878 70.8499 50.8463 70.8402 50.2888L70.8112 48.3455L70.6034 47.0693V47.05H71.8119L71.749 49.9601C71.7394 50.3854 71.8119 50.6835 71.9666 50.8543C72.1245 51.0251 72.3565 51.1105 72.6626 51.1105C73.0333 51.1105 73.4151 50.9752 73.8083 50.7045L73.7116 47.05H74.8186L74.7026 50.7045L74.8814 51.9807V52H73.8518L73.8325 51.2266L73.6004 51.4248ZM78.4296 47.9395C78.1009 47.9298 77.7351 48.0651 77.3323 48.3455L77.429 52H76.322L76.438 48.3455L76.2591 47.0693V47.05H77.2888L77.3081 47.8138L77.4966 47.6542C78.0509 47.187 78.544 46.9533 78.9758 46.9533C79.4238 46.9533 79.7654 47.1145 80.0006 47.4367C80.2391 47.7558 80.368 48.2005 80.3874 48.7709L80.4985 52H79.3916L79.4786 49.0996C79.4915 48.6517 79.4061 48.3455 79.2224 48.1812C79.0387 48.0136 78.7744 47.933 78.4296 47.9395ZM86.9277 45.8995H87.0583L87.0679 47.079L88.552 46.9533V47.8621L87.0679 47.7413L87.0776 50.1873C87.0776 50.603 87.1598 50.9011 87.3241 51.0815C87.4917 51.2588 87.6996 51.3474 87.9477 51.3474C88.1572 51.3474 88.3586 51.3007 88.552 51.2072H88.5713L88.4746 51.7535C88.3876 51.8501 88.2571 51.9323 88.0831 52C87.909 52.0645 87.7286 52.0967 87.5417 52.0967C87.1098 52.0967 86.7618 51.9581 86.4975 51.681C86.2333 51.4006 86.106 51.0058 86.1156 50.4966L86.1688 47.6639L85.405 47.6059V47.4851L86.9277 45.8995ZM91.3412 51.3764C91.6215 51.3764 91.9486 51.2314 92.3225 50.9414L92.3515 50.0809C92.113 49.9488 91.8358 49.8827 91.52 49.8827C91.2171 49.8827 90.977 49.9488 90.7998 50.0809C90.6257 50.213 90.5387 50.3967 90.5387 50.632C90.5387 50.8543 90.6112 51.0348 90.7562 51.1734C90.9045 51.3087 91.0995 51.3764 91.3412 51.3764ZM92.2935 52L92.3031 51.5359C91.8036 51.9098 91.3814 52.0967 91.0366 52.0967C90.5758 52.0967 90.2148 51.9646 89.9538 51.7003C89.6928 51.436 89.5623 51.1041 89.5623 50.7045C89.5623 50.4628 89.6074 50.2501 89.6976 50.0664C89.7878 49.8827 89.9055 49.7361 90.0505 49.6265C90.1955 49.5137 90.3695 49.4219 90.5726 49.351C90.7788 49.2801 90.9851 49.2317 91.1913 49.206C91.3976 49.1802 91.6199 49.1673 91.8584 49.1673C91.9486 49.1673 92.1194 49.1737 92.3708 49.1866L92.3805 48.9304C92.3869 48.6984 92.366 48.505 92.3176 48.3503C92.2725 48.1957 92.2 48.0813 92.1001 48.0071C92.0002 47.9298 91.8938 47.8766 91.7811 47.8476C91.6715 47.8186 91.5377 47.8041 91.3798 47.8041C90.9416 47.8041 90.4146 47.9427 89.7991 48.2198H89.7798L89.9683 47.0597C90.6418 46.9888 91.1591 46.9533 91.52 46.9533C92.0872 46.9533 92.519 47.1145 92.8155 47.4367C93.1152 47.7558 93.2748 48.2005 93.2941 48.7709L93.4004 52H92.2935ZM96.9534 47.9395C96.6247 47.9298 96.2589 48.0651 95.8561 48.3455L95.9528 52H94.8458L94.9618 48.3455L94.783 47.0693V47.05H95.8126L95.8319 47.8138L96.0205 47.6542C96.5748 47.187 97.0678 46.9533 97.4997 46.9533C97.9476 46.9533 98.2892 47.1145 98.5245 47.4367C98.7629 47.7558 98.8918 48.2005 98.9112 48.7709L99.0224 52H97.9154L98.0024 49.0996C98.0153 48.6517 97.9299 48.3455 97.7462 48.1812C97.5625 48.0136 97.2982 47.933 96.9534 47.9395ZM102.667 51.3474C102.996 51.3474 103.329 51.2314 103.668 50.9994L103.697 48.128C103.4 47.9443 103.06 47.8524 102.677 47.8524C102.438 47.8524 102.226 47.8992 102.039 47.9926C101.852 48.0829 101.702 48.2069 101.589 48.3648C101.476 48.5228 101.391 48.7 101.333 48.8966C101.278 49.0899 101.251 49.2962 101.251 49.5153C101.251 50.1051 101.372 50.5579 101.613 50.8737C101.858 51.1895 102.21 51.3474 102.667 51.3474ZM102.43 54.5717C101.986 54.5717 101.481 54.5104 100.917 54.388L100.618 53.2278H100.656C100.962 53.3664 101.19 53.4663 101.338 53.5275C101.489 53.5888 101.67 53.6484 101.879 53.7064C102.092 53.7644 102.282 53.7934 102.45 53.7934C102.856 53.7934 103.154 53.6629 103.344 53.4019C103.537 53.1408 103.639 52.7332 103.648 52.1789L103.658 51.5553C103.204 51.9162 102.769 52.0967 102.353 52.0967C101.924 52.0967 101.547 51.9758 101.222 51.7341C100.9 51.4924 100.658 51.1782 100.497 50.7915C100.339 50.4048 100.26 49.9762 100.26 49.5057C100.26 49.1093 100.323 48.7483 100.448 48.4229C100.577 48.0941 100.75 47.825 100.966 47.6156C101.185 47.4029 101.438 47.2401 101.725 47.1273C102.011 47.0113 102.316 46.9533 102.638 46.9533C103.031 46.9533 103.384 47.0226 103.697 47.1612L104.649 47.05H104.668L104.557 48.2585L104.63 51.7631C104.633 51.9243 104.63 52.0773 104.62 52.2224C104.614 52.3706 104.593 52.543 104.557 52.7396C104.525 52.9362 104.48 53.115 104.422 53.2762C104.364 53.4373 104.279 53.6 104.166 53.7644C104.053 53.932 103.921 54.0722 103.769 54.185C103.621 54.2978 103.431 54.3896 103.199 54.4605C102.97 54.5346 102.714 54.5717 102.43 54.5717ZM108.304 48.0023C108.13 48.0023 107.941 48.041 107.738 48.1183C107.535 48.1957 107.348 48.2923 107.177 48.4083L107.274 52H106.167L106.283 48.3455L106.104 47.0693V47.05H107.134L107.153 47.8621L107.404 47.6542C107.424 47.6381 107.467 47.6011 107.535 47.5431C107.606 47.4851 107.653 47.4464 107.675 47.4271C107.698 47.4077 107.74 47.3739 107.801 47.3255C107.865 47.274 107.912 47.2385 107.941 47.2192C107.973 47.1999 108.018 47.1725 108.076 47.137C108.134 47.0983 108.183 47.0726 108.221 47.0597C108.26 47.0436 108.305 47.0258 108.357 47.0065C108.412 46.9839 108.463 46.9694 108.511 46.963C108.56 46.9565 108.61 46.9533 108.661 46.9533C108.832 46.9533 108.964 46.9598 109.058 46.9727L109.256 48.2005H109.237C108.969 48.0684 108.658 48.0023 108.304 48.0023ZM111.779 51.3764C112.06 51.3764 112.387 51.2314 112.761 50.9414L112.79 50.0809C112.551 49.9488 112.274 49.8827 111.958 49.8827C111.655 49.8827 111.415 49.9488 111.238 50.0809C111.064 50.213 110.977 50.3967 110.977 50.632C110.977 50.8543 111.049 51.0348 111.194 51.1734C111.343 51.3087 111.538 51.3764 111.779 51.3764ZM112.732 52L112.741 51.5359C112.242 51.9098 111.82 52.0967 111.475 52.0967C111.014 52.0967 110.653 51.9646 110.392 51.7003C110.131 51.436 110 51.1041 110 50.7045C110 50.4628 110.045 50.2501 110.136 50.0664C110.226 49.8827 110.344 49.7361 110.489 49.6265C110.634 49.5137 110.808 49.4219 111.011 49.351C111.217 49.2801 111.423 49.2317 111.629 49.206C111.836 49.1802 112.058 49.1673 112.296 49.1673C112.387 49.1673 112.558 49.1737 112.809 49.1866L112.819 48.9304C112.825 48.6984 112.804 48.505 112.756 48.3503C112.711 48.1957 112.638 48.0813 112.538 48.0071C112.438 47.9298 112.332 47.8766 112.219 47.8476C112.11 47.8186 111.976 47.8041 111.818 47.8041C111.38 47.8041 110.853 47.9427 110.237 48.2198H110.218L110.406 47.0597C111.08 46.9888 111.597 46.9533 111.958 46.9533C112.525 46.9533 112.957 47.1145 113.254 47.4367C113.553 47.7558 113.713 48.2005 113.732 48.7709L113.839 52H112.732ZM117.28 47.9491C116.948 47.9491 116.62 48.0748 116.294 48.3262L116.391 52H115.284L115.4 48.3358L115.221 47.0693V47.05H116.251L116.27 47.8041L116.43 47.6639C116.687 47.4416 116.927 47.2675 117.15 47.1418C117.375 47.0162 117.604 46.9533 117.836 46.9533C118.439 46.9533 118.845 47.2691 119.054 47.9008L119.32 47.6639C119.578 47.4416 119.818 47.2675 120.041 47.1418C120.266 47.0162 120.495 46.9533 120.727 46.9533C121.156 46.9533 121.484 47.1145 121.713 47.4367C121.942 47.759 122.066 48.2005 122.085 48.7612L122.192 52H121.085L121.172 49.0899C121.178 48.8611 121.16 48.671 121.119 48.5195C121.077 48.3648 121.007 48.2472 120.911 48.1667C120.817 48.0861 120.712 48.0297 120.596 47.9975C120.48 47.9652 120.339 47.9491 120.171 47.9491C119.836 47.9491 119.496 48.078 119.151 48.3358C119.17 48.4809 119.185 48.6227 119.195 48.7612L119.291 52H118.184L118.281 49.0899C118.287 48.8611 118.27 48.671 118.228 48.5195C118.186 48.3648 118.117 48.2472 118.02 48.1667C117.926 48.0861 117.822 48.0297 117.706 47.9975C117.59 47.9652 117.448 47.9491 117.28 47.9491ZM44.4854 67.3474C44.9107 67.3474 45.233 67.1782 45.4522 66.8398C45.6713 66.4982 45.7809 66.0406 45.7809 65.467C45.7712 64.9804 45.6568 64.6082 45.4376 64.3503C45.2217 64.0893 44.9107 63.9588 44.5047 63.9588C44.1889 63.9588 43.8263 64.078 43.417 64.3165L43.4557 66.98C43.7458 67.225 44.089 67.3474 44.4854 67.3474ZM44.3935 68.0967C44.0906 68.0967 43.7844 68.0548 43.4751 67.971L43.5137 70.475H42.4357L42.5324 64.2488L42.3584 63.0693V63.05H43.3784L43.4074 63.7606C43.6813 63.5189 43.9423 63.3239 44.1905 63.1757C44.4418 63.0274 44.698 62.9533 44.9591 62.9533C45.2652 62.9533 45.5359 63.0258 45.7712 63.1708C46.0097 63.3126 46.1982 63.5028 46.3368 63.7413C46.4753 63.9797 46.5785 64.2392 46.6461 64.5195C46.717 64.7967 46.7525 65.0851 46.7525 65.3848C46.7525 65.5427 46.7428 65.7006 46.7235 65.8585C46.7074 66.0132 46.6751 66.1824 46.6268 66.3661C46.5817 66.5466 46.5221 66.7174 46.448 66.8785C46.3738 67.0396 46.2739 67.1959 46.1482 67.3474C46.0258 67.4989 45.884 67.6294 45.7229 67.739C45.5649 67.8453 45.3716 67.9323 45.1428 68C44.9172 68.0645 44.6674 68.0967 44.3935 68.0967ZM50.0638 62.9533C50.4247 62.9533 50.7534 63.0194 51.0499 63.1515C51.3464 63.2836 51.5897 63.4641 51.7798 63.6929C51.9732 63.9185 52.1214 64.1828 52.2246 64.4857C52.3277 64.7854 52.3793 65.1061 52.3793 65.4477C52.3793 65.815 52.3277 66.1583 52.2246 66.4773C52.1214 66.7963 51.9748 67.0767 51.7847 67.3184C51.5945 67.5601 51.3512 67.7502 51.0547 67.8888C50.7583 68.0274 50.4279 68.0967 50.0638 68.0967C49.5804 68.0967 49.1598 67.9758 48.8021 67.7341C48.4476 67.4892 48.1817 67.1702 48.0045 66.777C47.8305 66.3806 47.7435 65.9375 47.7435 65.4477C47.7435 64.9868 47.8321 64.5695 48.0093 64.1957C48.1866 63.8218 48.4524 63.5221 48.8069 63.2965C49.1647 63.0677 49.5836 62.9533 50.0638 62.9533ZM49.068 66.8253C49.2968 67.1734 49.6287 67.3474 50.0638 67.3474C50.4988 67.3474 50.8292 67.1734 51.0547 66.8253C51.2835 66.4773 51.398 66.0245 51.398 65.467C51.398 65.0126 51.2787 64.6307 51.0402 64.3213C50.805 64.0087 50.4795 63.8524 50.0638 63.8524C49.6448 63.8524 49.3161 64.0071 49.0776 64.3165C48.8424 64.6259 48.7248 65.0094 48.7248 65.467C48.7248 66.0213 48.8392 66.4741 49.068 66.8253ZM56.4688 67.4248C55.9371 67.8727 55.4488 68.0967 55.0041 68.0967C54.5916 68.0967 54.2742 67.9355 54.0518 67.6133C53.8327 67.2878 53.7183 66.8463 53.7086 66.2888L53.6796 64.3455L53.4717 63.0693V63.05H54.6802L54.6174 65.9601C54.6077 66.3854 54.6802 66.6835 54.8349 66.8543C54.9928 67.0251 55.2249 67.1105 55.531 67.1105C55.9016 67.1105 56.2835 66.9752 56.6767 66.7045L56.58 63.05H57.687L57.571 66.7045L57.7498 67.9807V68H56.7202L56.7008 67.2266L56.4688 67.4248ZM61.327 64.0023C61.1529 64.0023 60.9644 64.041 60.7614 64.1183C60.5584 64.1957 60.3714 64.2923 60.2006 64.4083L60.2973 68H59.1903L59.3064 64.3455L59.1275 63.0693V63.05H60.1571L60.1765 63.8621L60.4278 63.6542C60.4472 63.6381 60.4907 63.6011 60.5584 63.5431C60.6293 63.4851 60.676 63.4464 60.6985 63.4271C60.7211 63.4077 60.763 63.3739 60.8242 63.3255C60.8887 63.274 60.9354 63.2385 60.9644 63.2192C60.9966 63.1999 61.0418 63.1725 61.0998 63.137C61.1578 63.0983 61.2061 63.0726 61.2448 63.0597C61.2835 63.0436 61.3286 63.0258 61.3801 63.0065C61.4349 62.9839 61.4865 62.9694 61.5348 62.963C61.5832 62.9565 61.6331 62.9533 61.6847 62.9533C61.8555 62.9533 61.9876 62.9598 62.0811 62.9727L62.2793 64.2005H62.2599C61.9924 64.0684 61.6814 64.0023 61.327 64.0023ZM67.3598 62.9533C67.8593 62.9533 68.2589 63.0323 68.5586 63.1902L68.7568 64.3455H68.7375C68.2959 64.0168 67.8271 63.8524 67.3308 63.8524C66.9247 63.8524 66.5896 63.9894 66.3253 64.2633C66.0643 64.5373 65.9337 64.9449 65.9337 65.4863C65.9337 66.0954 66.0675 66.5579 66.335 66.8737C66.6057 67.1895 66.9698 67.3474 67.4274 67.3474C67.6659 67.3474 67.8883 67.3071 68.0945 67.2266C68.3008 67.146 68.5183 67.0348 68.7471 66.893H68.7665L68.6649 67.5843C68.5328 67.7164 68.3411 67.8356 68.0897 67.942C67.8416 68.0451 67.5821 68.0967 67.3114 68.0967C66.6153 68.0967 66.0481 67.8501 65.6099 67.3571C65.1716 66.8608 64.9524 66.2308 64.9524 65.467C64.9524 65.0609 65.0169 64.6952 65.1458 64.3697C65.2779 64.0442 65.4568 63.7799 65.6824 63.5769C65.908 63.3739 66.1626 63.2192 66.4461 63.1128C66.733 63.0065 67.0375 62.9533 67.3598 62.9533ZM71.9714 62.9533C72.3323 62.9533 72.661 63.0194 72.9575 63.1515C73.254 63.2836 73.4973 63.4641 73.6875 63.6929C73.8808 63.9185 74.0291 64.1828 74.1322 64.4857C74.2353 64.7854 74.2869 65.1061 74.2869 65.4477C74.2869 65.815 74.2353 66.1583 74.1322 66.4773C74.0291 66.7963 73.8824 67.0767 73.6923 67.3184C73.5022 67.5601 73.2588 67.7502 72.9624 67.8888C72.6659 68.0274 72.3356 68.0967 71.9714 68.0967C71.488 68.0967 71.0674 67.9758 70.7097 67.7341C70.3552 67.4892 70.0894 67.1702 69.9121 66.777C69.7381 66.3806 69.6511 65.9375 69.6511 65.4477C69.6511 64.9868 69.7397 64.5695 69.9169 64.1957C70.0942 63.8218 70.3601 63.5221 70.7146 63.2965C71.0723 63.0677 71.4912 62.9533 71.9714 62.9533ZM70.9756 66.8253C71.2044 67.1734 71.5363 67.3474 71.9714 67.3474C72.4064 67.3474 72.7368 67.1734 72.9624 66.8253C73.1912 66.4773 73.3056 66.0245 73.3056 65.467C73.3056 65.0126 73.1863 64.6307 72.9479 64.3213C72.7126 64.0087 72.3871 63.8524 71.9714 63.8524C71.5524 63.8524 71.2237 64.0071 70.9853 64.3165C70.75 64.6259 70.6324 65.0094 70.6324 65.467C70.6324 66.0213 70.7468 66.4741 70.9756 66.8253ZM77.5353 63.9491C77.2034 63.9491 76.8747 64.0748 76.5492 64.3262L76.6459 68H75.5389L75.6549 64.3358L75.476 63.0693V63.05H76.5057L76.525 63.8041L76.6845 63.6639C76.9423 63.4416 77.1824 63.2675 77.4048 63.1418C77.6304 63.0162 77.8592 62.9533 78.0912 62.9533C78.6938 62.9533 79.0999 63.2691 79.3094 63.9008L79.5752 63.6639C79.8331 63.4416 80.0731 63.2675 80.2955 63.1418C80.5211 63.0162 80.7499 62.9533 80.9819 62.9533C81.4105 62.9533 81.7393 63.1145 81.9681 63.4367C82.1969 63.759 82.3209 64.2005 82.3403 64.7612L82.4466 68H81.3396L81.4267 65.0899C81.4331 64.8611 81.4154 64.671 81.3735 64.5195C81.3316 64.3648 81.2623 64.2472 81.1656 64.1667C81.0722 64.0861 80.9674 64.0297 80.8514 63.9975C80.7354 63.9652 80.5936 63.9491 80.426 63.9491C80.0909 63.9491 79.7509 64.078 79.4061 64.3358C79.4254 64.4809 79.4399 64.6227 79.4496 64.7612L79.5462 68H78.4393L78.5359 65.0899C78.5424 64.8611 78.5247 64.671 78.4828 64.5195C78.4409 64.3648 78.3716 64.2472 78.2749 64.1667C78.1814 64.0861 78.0767 64.0297 77.9607 63.9975C77.8447 63.9652 77.7029 63.9491 77.5353 63.9491ZM85.8884 63.9491C85.5565 63.9491 85.2278 64.0748 84.9023 64.3262L84.999 68H83.892L84.008 64.3358L83.8292 63.0693V63.05H84.8588L84.8781 63.8041L85.0376 63.6639C85.2955 63.4416 85.5355 63.2675 85.7579 63.1418C85.9835 63.0162 86.2123 62.9533 86.4443 62.9533C87.047 62.9533 87.453 63.2691 87.6625 63.9008L87.9284 63.6639C88.1862 63.4416 88.4263 63.2675 88.6486 63.1418C88.8742 63.0162 89.103 62.9533 89.3351 62.9533C89.7637 62.9533 90.0924 63.1145 90.3212 63.4367C90.55 63.759 90.6741 64.2005 90.6934 64.7612L90.7998 68H89.6928L89.7798 65.0899C89.7862 64.8611 89.7685 64.671 89.7266 64.5195C89.6847 64.3648 89.6154 64.2472 89.5188 64.1667C89.4253 64.0861 89.3206 64.0297 89.2045 63.9975C89.0885 63.9652 88.9467 63.9491 88.7792 63.9491C88.444 63.9491 88.104 64.078 87.7592 64.3358C87.7785 64.4809 87.793 64.6227 87.8027 64.7612L87.8994 68H86.7924L86.8891 65.0899C86.8955 64.8611 86.8778 64.671 86.8359 64.5195C86.794 64.3648 86.7247 64.2472 86.628 64.1667C86.5346 64.0861 86.4298 64.0297 86.3138 63.9975C86.1978 63.9652 86.056 63.9491 85.8884 63.9491ZM95.8658 67.5939C95.5113 67.9291 94.9876 68.0967 94.2947 68.0967C93.9177 68.0967 93.5777 68.0242 93.2748 67.8792C92.975 67.7341 92.7334 67.5392 92.5497 67.2942C92.366 67.0493 92.2258 66.7754 92.1291 66.4725C92.0324 66.1695 91.9841 65.8505 91.9841 65.5153C91.9841 65.0996 92.0421 64.7274 92.1581 64.3987C92.2773 64.0667 92.4385 63.7977 92.6415 63.5914C92.8445 63.3819 93.075 63.224 93.3328 63.1177C93.5906 63.0081 93.8645 62.9533 94.1545 62.9533C94.87 62.9533 95.4049 63.2063 95.7594 63.7123C96.1171 64.215 96.2493 64.9175 96.1558 65.8199H92.975C93.0234 66.3 93.17 66.6755 93.4149 66.9462C93.6631 67.2137 94.045 67.3474 94.5606 67.3474C94.9795 67.3474 95.442 67.1992 95.9479 66.9027H95.9673L95.8658 67.5939ZM92.975 65.3268L95.2615 65.0319C95.2905 64.6807 95.21 64.3955 95.0198 64.1763C94.8297 63.954 94.5348 63.8428 94.1352 63.8428C93.9902 63.8428 93.8516 63.8702 93.7195 63.925C93.5874 63.9797 93.4633 64.0635 93.3473 64.1763C93.2345 64.2859 93.1442 64.4406 93.0766 64.6404C93.0089 64.837 92.975 65.0658 92.975 65.3268ZM99.5928 63.9395C99.2641 63.9298 98.8983 64.0651 98.4955 64.3455L98.5921 68H97.4852L97.6012 64.3455L97.4223 63.0693V63.05H98.452L98.4713 63.8138L98.6598 63.6542C99.2141 63.187 99.7072 62.9533 100.139 62.9533C100.587 62.9533 100.929 63.1145 101.164 63.4367C101.402 63.7558 101.531 64.2005 101.551 64.7709L101.662 68H100.555L100.642 65.0996C100.655 64.6517 100.569 64.3455 100.386 64.1812C100.202 64.0136 99.9376 63.933 99.5928 63.9395ZM105.307 62.9533C105.806 62.9533 106.206 63.0323 106.505 63.1902L106.704 64.3455H106.684C106.243 64.0168 105.774 63.8524 105.278 63.8524C104.871 63.8524 104.536 63.9894 104.272 64.2633C104.011 64.5373 103.881 64.9449 103.881 65.4863C103.881 66.0954 104.014 66.5579 104.282 66.8737C104.552 67.1895 104.917 67.3474 105.374 67.3474C105.613 67.3474 105.835 67.3071 106.041 67.2266C106.248 67.146 106.465 67.0348 106.694 66.893H106.713L106.612 67.5843C106.48 67.7164 106.288 67.8356 106.036 67.942C105.788 68.0451 105.529 68.0967 105.258 68.0967C104.562 68.0967 103.995 67.8501 103.557 67.3571C103.118 66.8608 102.899 66.2308 102.899 65.467C102.899 65.0609 102.964 64.6952 103.093 64.3697C103.225 64.0442 103.404 63.7799 103.629 63.5769C103.855 63.3739 104.109 63.2192 104.393 63.1128C104.68 63.0065 104.984 62.9533 105.307 62.9533ZM111.48 67.5939C111.125 67.9291 110.601 68.0967 109.908 68.0967C109.531 68.0967 109.191 68.0242 108.889 67.8792C108.589 67.7341 108.347 67.5392 108.163 67.2942C107.98 67.0493 107.84 66.7754 107.743 66.4725C107.646 66.1695 107.598 65.8505 107.598 65.5153C107.598 65.0996 107.656 64.7274 107.772 64.3987C107.891 64.0667 108.052 63.7977 108.255 63.5914C108.458 63.3819 108.689 63.224 108.947 63.1177C109.204 63.0081 109.478 62.9533 109.768 62.9533C110.484 62.9533 111.019 63.2063 111.373 63.7123C111.731 64.215 111.863 64.9175 111.77 65.8199H108.589C108.637 66.3 108.784 66.6755 109.029 66.9462C109.277 67.2137 109.659 67.3474 110.174 67.3474C110.593 67.3474 111.056 67.1992 111.562 66.9027H111.581L111.48 67.5939ZM108.589 65.3268L110.875 65.0319C110.904 64.6807 110.824 64.3955 110.634 64.1763C110.443 63.954 110.149 63.8428 109.749 63.8428C109.604 63.8428 109.465 63.8702 109.333 63.925C109.201 63.9797 109.077 64.0635 108.961 64.1763C108.848 64.2859 108.758 64.4406 108.69 64.6404C108.623 64.837 108.589 65.0658 108.589 65.3268ZM115.236 64.0023C115.062 64.0023 114.873 64.041 114.67 64.1183C114.467 64.1957 114.28 64.2923 114.109 64.4083L114.206 68H113.099L113.215 64.3455L113.036 63.0693V63.05H114.066L114.085 63.8621L114.336 63.6542C114.356 63.6381 114.399 63.6011 114.467 63.5431C114.538 63.4851 114.585 63.4464 114.607 63.4271C114.63 63.4077 114.672 63.3739 114.733 63.3255C114.797 63.274 114.844 63.2385 114.873 63.2192C114.905 63.1999 114.95 63.1725 115.008 63.137C115.066 63.0983 115.115 63.0726 115.153 63.0597C115.192 63.0436 115.237 63.0258 115.289 63.0065C115.344 62.9839 115.395 62.9694 115.443 62.963C115.492 62.9565 115.542 62.9533 115.593 62.9533C115.764 62.9533 115.896 62.9598 115.99 62.9727L116.188 64.2005H116.169C115.901 64.0684 115.59 64.0023 115.236 64.0023Z" fill="black"/>
</svg>
