<svg width="99" height="61" viewBox="0 0 99 61" fill="none" xmlns="http://www.w3.org/2000/svg">
<path d="M21.8877 15.3438C21.6006 15.5306 21.1608 15.7106 20.5684 15.8838C19.9759 16.0524 19.388 16.1367 18.8047 16.1367C18.0527 16.1367 17.3486 16.0114 16.6924 15.7607C16.0361 15.5055 15.4665 15.1478 14.9834 14.6875C14.5003 14.2272 14.1198 13.6553 13.8418 12.9717C13.5684 12.2881 13.4316 11.5339 13.4316 10.709C13.4316 9.05924 13.9329 7.75586 14.9355 6.79883C15.9382 5.8418 17.2894 5.36328 18.9893 5.36328C19.7458 5.36328 20.7301 5.47493 21.9424 5.69824L22.2363 8.34375H22.0928C21.154 7.61458 20.026 7.25 18.709 7.25C18.3991 7.25 18.096 7.28646 17.7998 7.35938C17.5081 7.43229 17.221 7.55534 16.9385 7.72852C16.6605 7.89714 16.4144 8.10677 16.2002 8.35742C15.9906 8.60352 15.8219 8.91797 15.6943 9.30078C15.5667 9.68359 15.5029 10.1097 15.5029 10.5791C15.5029 11.1169 15.569 11.6136 15.7012 12.0693C15.8379 12.5205 16.0384 12.9238 16.3027 13.2793C16.5716 13.6302 16.9294 13.9059 17.376 14.1064C17.8226 14.307 18.3353 14.4072 18.9141 14.4072C20.0443 14.4072 21.0811 14.0973 22.0244 13.4775H22.168L21.8877 15.3438ZM30.9111 16L31.1777 11.3242H26.2217L26.4883 16H23.9658L24.2871 10.4834L23.9658 5.5H26.4883L26.208 9.99121H31.2051L30.9111 5.5H33.4268L33.1191 10.4834L33.4268 16H30.9111ZM40.9736 12.2197L39.5449 7.76953L38.1572 12.2197H40.9736ZM42.1768 16L41.3906 13.5527H37.7402L36.9678 16H34.6162V15.8633L39.21 5.36328H40.4268L44.7812 15.8633V16H42.1768ZM48.1855 10.4834L48.5 16H45.9775L46.2988 10.4834L45.9775 5.5H49.5596C50.7536 5.5 51.6878 5.78255 52.3623 6.34766C53.0413 6.91276 53.3809 7.63737 53.3809 8.52148C53.3809 9.01823 53.2988 9.47396 53.1348 9.88867C52.9707 10.2988 52.7223 10.6657 52.3896 10.9893C52.0615 11.3128 51.6217 11.5703 51.0703 11.7617C50.5234 11.9531 49.89 12.0602 49.1699 12.083V10.8457C49.8672 10.8457 50.4004 10.6839 50.7695 10.3604C51.1387 10.0368 51.3232 9.56055 51.3232 8.93164C51.3232 8.39844 51.1182 7.986 50.708 7.69434C50.3024 7.39811 49.6872 7.25 48.8623 7.25H48.3838L48.1855 10.4834ZM55.0557 16L55.377 10.4834L55.0557 5.5H61.0576L61.3516 7.6123H61.2148L57.5029 6.7168L57.2979 9.92285L60.8389 9.81348L60.6953 11.6318L57.2979 11.0166L57.5029 14.7695L61.2422 13.6484H61.3857L61.1055 16H55.0557ZM68.4541 12.2197L67.0254 7.76953L65.6377 12.2197H68.4541ZM69.6572 16L68.8711 13.5527H65.2207L64.4482 16H62.0967V15.8633L66.6904 5.36328H67.9072L72.2617 15.8633V16H69.6572ZM75.8984 13.6895C76.3542 14.2044 76.9671 14.4619 77.7373 14.4619C78.5075 14.4619 79.1182 14.1999 79.5693 13.6758C80.0251 13.1517 80.2529 12.3678 80.2529 11.3242L79.8496 5.5H82.3516L82.1465 11.3242C82.1465 12.0215 82.0576 12.6572 81.8799 13.2314C81.7067 13.8057 81.4447 14.3115 81.0938 14.749C80.7474 15.1865 80.2871 15.5283 79.7129 15.7744C79.1432 16.016 78.4847 16.1367 77.7373 16.1367C76.9899 16.1367 76.3291 16.016 75.7549 15.7744C75.1852 15.5329 74.7249 15.1956 74.374 14.7627C74.0231 14.3252 73.7588 13.8193 73.5811 13.2451C73.4079 12.6709 73.3213 12.0352 73.3213 11.3379L73.1162 5.5H75.6182L75.2148 11.3379C75.2148 12.3861 75.4427 13.1699 75.8984 13.6895ZM87.7041 5.5H90.1514L89.6934 12.459H88.1689L87.7041 5.5ZM88.9209 16.1367C88.6019 16.1367 88.3262 16.0273 88.0938 15.8086C87.8613 15.5853 87.7451 15.2936 87.7451 14.9336C87.7451 14.569 87.859 14.2773 88.0869 14.0586C88.3193 13.8398 88.5973 13.7305 88.9209 13.7305C89.2536 13.7305 89.5339 13.8398 89.7617 14.0586C89.9941 14.2728 90.1104 14.5645 90.1104 14.9336C90.1104 15.2936 89.9941 15.5853 89.7617 15.8086C89.5339 16.0273 89.2536 16.1367 88.9209 16.1367Z" fill="black"/>
<path d="M0.12113 54.3442C-0.142391 54.8296 0.037446 55.4367 0.522807 55.7002L8.43222 59.9945C8.91758 60.2581 9.52467 60.0782 9.78819 59.5929C10.0517 59.1075 9.87187 58.5004 9.38651 58.2369L2.35592 54.4197L6.1731 47.3891C6.43662 46.9038 6.25678 46.2967 5.77142 46.0332C5.28606 45.7696 4.67897 45.9495 4.41545 46.4348L0.12113 54.3442ZM26.2974 24.2848L25.2998 24.2152C24.7706 31.8102 19.1016 48.4162 0.715925 53.8626L0.999954 54.8214L1.28398 55.7802C20.7512 50.0135 26.7312 32.4449 27.295 24.3543L26.2974 24.2848Z" fill="black"/>
<path d="M42.9852 33.5649C42.7725 33.6938 42.4647 33.8147 42.0619 33.9275C41.6623 34.0403 41.2579 34.0967 40.8486 34.0967C40.304 34.0967 39.798 34.0097 39.3307 33.8356C38.8634 33.6616 38.4558 33.4135 38.1077 33.0912C37.7629 32.7689 37.4906 32.3645 37.2908 31.8779C37.0942 31.3913 36.9959 30.8515 36.9959 30.2585C36.9959 29.0822 37.3472 28.1589 38.0497 27.4886C38.7522 26.8151 39.7045 26.4783 40.9066 26.4783C41.6252 26.4783 42.3407 26.5927 43.0529 26.8215L43.2511 28.2282H43.2317C42.8676 27.9704 42.4889 27.7771 42.0958 27.6481C41.7026 27.5192 41.2369 27.4548 40.6987 27.4548C40.4667 27.4548 40.2331 27.4822 39.9978 27.537C39.7658 27.5917 39.5289 27.6868 39.2872 27.8222C39.0487 27.9543 38.8376 28.1187 38.654 28.3152C38.4735 28.5118 38.3252 28.7664 38.2092 29.079C38.0932 29.3916 38.0352 29.7413 38.0352 30.128C38.0352 31.0787 38.2817 31.8376 38.7748 32.4048C39.2711 32.972 39.9688 33.2556 40.8679 33.2556C41.6156 33.2556 42.381 32.9784 43.1641 32.4241H43.1834L42.9852 33.5649ZM48.1237 33.5939C47.7692 33.9291 47.2456 34.0967 46.5527 34.0967C46.1756 34.0967 45.8356 34.0242 45.5327 33.8792C45.233 33.7341 44.9913 33.5392 44.8076 33.2942C44.6239 33.0493 44.4837 32.7754 44.3871 32.4725C44.2904 32.1695 44.242 31.8505 44.242 31.5153C44.242 31.0996 44.3 30.7274 44.4161 30.3987C44.5353 30.0667 44.6964 29.7977 44.8995 29.5914C45.1025 29.3819 45.3329 29.224 45.5907 29.1177C45.8485 29.0081 46.1225 28.9533 46.4125 28.9533C47.1279 28.9533 47.6629 29.2063 48.0174 29.7123C48.3751 30.215 48.5072 30.9175 48.4138 31.8199H45.233C45.2813 32.3 45.428 32.6755 45.6729 32.9462C45.921 33.2137 46.3029 33.3474 46.8186 33.3474C47.2375 33.3474 47.7 33.1992 48.2059 32.9027H48.2252L48.1237 33.5939ZM45.233 31.3268L47.5195 31.0319C47.5485 30.6807 47.4679 30.3955 47.2778 30.1763C47.0876 29.954 46.7928 29.8428 46.3932 29.8428C46.2481 29.8428 46.1096 29.8702 45.9774 29.925C45.8453 29.9797 45.7212 30.0635 45.6052 30.1763C45.4924 30.2859 45.4022 30.4406 45.3345 30.6404C45.2668 30.837 45.233 31.0658 45.233 31.3268ZM52.6918 27.8995H52.8224L52.832 29.079L54.3161 28.9533V29.8621L52.832 29.7413L52.8417 32.1873C52.8417 32.603 52.9239 32.9011 53.0882 33.0815C53.2558 33.2588 53.4637 33.3474 53.7118 33.3474C53.9213 33.3474 54.1227 33.3007 54.3161 33.2072H54.3354L54.2387 33.7535C54.1517 33.8501 54.0212 33.9323 53.8472 34C53.6731 34.0645 53.4927 34.0967 53.3058 34.0967C52.8739 34.0967 52.5259 33.9581 52.2616 33.681C51.9974 33.4006 51.8701 33.0058 51.8797 32.4966L51.9329 29.6639L51.1691 29.6059V29.4851L52.6918 27.8995ZM57.1053 33.3764C57.3856 33.3764 57.7127 33.2314 58.0866 32.9414L58.1156 32.0809C57.8771 31.9488 57.6 31.8827 57.2841 31.8827C56.9812 31.8827 56.7411 31.9488 56.5639 32.0809C56.3898 32.213 56.3028 32.3967 56.3028 32.632C56.3028 32.8543 56.3753 33.0348 56.5204 33.1734C56.6686 33.3087 56.8636 33.3764 57.1053 33.3764ZM58.0576 34L58.0672 33.5359C57.5677 33.9098 57.1456 34.0967 56.8007 34.0967C56.3399 34.0967 55.979 33.9646 55.7179 33.7003C55.4569 33.436 55.3264 33.1041 55.3264 32.7045C55.3264 32.4628 55.3715 32.2501 55.4617 32.0664C55.552 31.8827 55.6696 31.7361 55.8146 31.6265C55.9596 31.5137 56.1336 31.4219 56.3367 31.351C56.5429 31.2801 56.7492 31.2317 56.9554 31.206C57.1617 31.1802 57.384 31.1673 57.6225 31.1673C57.7127 31.1673 57.8835 31.1737 58.1349 31.1866L58.1446 30.9304C58.151 30.6984 58.1301 30.505 58.0817 30.3503C58.0366 30.1957 57.9641 30.0813 57.8642 30.0071C57.7643 29.9298 57.658 29.8766 57.5452 29.8476C57.4356 29.8186 57.3019 29.8041 57.1439 29.8041C56.7057 29.8041 56.1788 29.9427 55.5632 30.2198H55.5439L55.7324 29.0597C56.406 28.9888 56.9232 28.9533 57.2841 28.9533C57.8513 28.9533 58.2832 29.1145 58.5796 29.4367C58.8793 29.7558 59.0389 30.2005 59.0582 30.7709L59.1646 34H58.0576ZM62.7175 29.9395C62.3888 29.9298 62.023 30.0651 61.6202 30.3455L61.7169 34H60.6099L60.7259 30.3455L60.5471 29.0693V29.05H61.5767L61.596 29.8138L61.7846 29.6542C62.3389 29.187 62.8319 28.9533 63.2638 28.9533C63.7117 28.9533 64.0533 29.1145 64.2886 29.4367C64.5271 29.7558 64.656 30.2005 64.6753 30.7709L64.7865 34H63.6795L63.7665 31.0996C63.7794 30.6517 63.694 30.3455 63.5103 30.1812C63.3266 30.0136 63.0624 29.933 62.7175 29.9395ZM68.4313 33.3474C68.76 33.3474 69.0936 33.2314 69.4319 32.9994L69.4609 30.128C69.1645 29.9443 68.8245 29.8524 68.441 29.8524C68.2025 29.8524 67.9898 29.8992 67.8029 29.9926C67.616 30.0829 67.4661 30.2069 67.3533 30.3648C67.2405 30.5228 67.1551 30.7 67.0971 30.8966C67.0423 31.0899 67.0149 31.2962 67.0149 31.5153C67.0149 32.1051 67.1358 32.5579 67.3775 32.8737C67.6224 33.1895 67.9737 33.3474 68.4313 33.3474ZM68.1944 36.5717C67.7497 36.5717 67.2454 36.5104 66.6814 36.388L66.3817 35.2278H66.4204C66.7265 35.3664 66.9537 35.4663 67.102 35.5275C67.2534 35.5888 67.4339 35.6484 67.6434 35.7064C67.8561 35.7644 68.0462 35.7934 68.2138 35.7934C68.6198 35.7934 68.9179 35.6629 69.1081 35.4019C69.3014 35.1408 69.4029 34.7332 69.4126 34.1789L69.4223 33.5553C68.9679 33.9162 68.5328 34.0967 68.1171 34.0967C67.6885 34.0967 67.3114 33.9758 66.9859 33.7341C66.6637 33.4924 66.422 33.1782 66.2608 32.7915C66.1029 32.4048 66.024 31.9762 66.024 31.5057C66.024 31.1093 66.0868 30.7483 66.2125 30.4229C66.3414 30.0941 66.5138 29.825 66.7297 29.6156C66.9489 29.4029 67.2019 29.2401 67.4887 29.1273C67.7755 29.0113 68.08 28.9533 68.4023 28.9533C68.7955 28.9533 69.1483 29.0226 69.4609 29.1612L70.4132 29.05H70.4326L70.3214 30.2585L70.3939 33.7631C70.3971 33.9243 70.3939 34.0773 70.3842 34.2224C70.3778 34.3706 70.3568 34.543 70.3214 34.7396C70.2892 34.9362 70.244 35.115 70.186 35.2762C70.128 35.4373 70.0426 35.6 69.9298 35.7644C69.817 35.932 69.6849 36.0722 69.5334 36.185C69.3852 36.2978 69.1951 36.3896 68.963 36.4605C68.7342 36.5346 68.478 36.5717 68.1944 36.5717ZM74.0677 30.0023C73.8937 30.0023 73.7052 30.041 73.5021 30.1183C73.2991 30.1957 73.1122 30.2923 72.9414 30.4083L73.0381 34H71.9311L72.0471 30.3455L71.8683 29.0693V29.05H72.8979L72.9172 29.8621L73.1686 29.6542C73.1879 29.6381 73.2314 29.6011 73.2991 29.5431C73.37 29.4851 73.4167 29.4464 73.4393 29.4271C73.4619 29.4077 73.5038 29.3739 73.565 29.3255C73.6294 29.274 73.6762 29.2385 73.7052 29.2192C73.7374 29.1999 73.7825 29.1725 73.8405 29.137C73.8985 29.0983 73.9469 29.0726 73.9855 29.0597C74.0242 29.0436 74.0693 29.0258 74.1209 29.0065C74.1757 28.9839 74.2272 28.9694 74.2756 28.963C74.3239 28.9565 74.3739 28.9533 74.4254 28.9533C74.5962 28.9533 74.7284 28.9598 74.8218 28.9727L75.02 30.2005H75.0007C74.7332 30.0684 74.4222 30.0023 74.0677 30.0023ZM77.5434 33.3764C77.8237 33.3764 78.1508 33.2314 78.5247 32.9414L78.5537 32.0809C78.3152 31.9488 78.038 31.8827 77.7222 31.8827C77.4193 31.8827 77.1792 31.9488 77.002 32.0809C76.8279 32.213 76.7409 32.3967 76.7409 32.632C76.7409 32.8543 76.8134 33.0348 76.9585 33.1734C77.1067 33.3087 77.3017 33.3764 77.5434 33.3764ZM78.4957 34L78.5053 33.5359C78.0058 33.9098 77.5836 34.0967 77.2388 34.0967C76.778 34.0967 76.417 33.9646 76.156 33.7003C75.895 33.436 75.7645 33.1041 75.7645 32.7045C75.7645 32.4628 75.8096 32.2501 75.8998 32.0664C75.99 31.8827 76.1077 31.7361 76.2527 31.6265C76.3977 31.5137 76.5717 31.4219 76.7748 31.351C76.981 31.2801 77.1873 31.2317 77.3935 31.206C77.5998 31.1802 77.8221 31.1673 78.0606 31.1673C78.1508 31.1673 78.3216 31.1737 78.573 31.1866L78.5827 30.9304C78.5891 30.6984 78.5682 30.505 78.5198 30.3503C78.4747 30.1957 78.4022 30.0813 78.3023 30.0071C78.2024 29.9298 78.096 29.8766 77.9833 29.8476C77.8737 29.8186 77.7399 29.8041 77.582 29.8041C77.1438 29.8041 76.6168 29.9427 76.0013 30.2198H75.982L76.1705 29.0597C76.844 28.9888 77.3613 28.9533 77.7222 28.9533C78.2894 28.9533 78.7212 29.1145 79.0177 29.4367C79.3174 29.7558 79.477 30.2005 79.4963 30.7709L79.6026 34H78.4957ZM83.0444 29.9491C82.7125 29.9491 82.3838 30.0748 82.0583 30.3262L82.155 34H81.048L81.164 30.3358L80.9852 29.0693V29.05H82.0148L82.0341 29.8041L82.1937 29.6639C82.4515 29.4416 82.6916 29.2675 82.9139 29.1418C83.1395 29.0162 83.3683 28.9533 83.6003 28.9533C84.203 28.9533 84.609 29.2691 84.8185 29.9008L85.0844 29.6639C85.3422 29.4416 85.5823 29.2675 85.8046 29.1418C86.0302 29.0162 86.259 28.9533 86.4911 28.9533C86.9197 28.9533 87.2484 29.1145 87.4772 29.4367C87.706 29.759 87.8301 30.2005 87.8494 30.7612L87.9558 34H86.8488L86.9358 31.0899C86.9422 30.8611 86.9245 30.671 86.8826 30.5195C86.8407 30.3648 86.7714 30.2472 86.6748 30.1667C86.5813 30.0861 86.4766 30.0297 86.3605 29.9975C86.2445 29.9652 86.1027 29.9491 85.9352 29.9491C85.6 29.9491 85.26 30.078 84.9152 30.3358C84.9345 30.4809 84.949 30.6227 84.9587 30.7612L85.0554 34H83.9484L84.0451 31.0899C84.0515 30.8611 84.0338 30.671 83.9919 30.5195C83.95 30.3648 83.8807 30.2472 83.784 30.1667C83.6906 30.0861 83.5858 30.0297 83.4698 29.9975C83.3538 29.9652 83.212 29.9491 83.0444 29.9491ZM41.8299 49.5939C41.4754 49.9291 40.9517 50.0967 40.2588 50.0967C39.8818 50.0967 39.5418 50.0242 39.2389 49.8792C38.9392 49.7341 38.6975 49.5392 38.5138 49.2942C38.3301 49.0493 38.1899 48.7754 38.0932 48.4725C37.9965 48.1695 37.9482 47.8505 37.9482 47.5153C37.9482 47.0996 38.0062 46.7274 38.1222 46.3987C38.2415 46.0667 38.4026 45.7977 38.6056 45.5914C38.8086 45.3819 39.0391 45.224 39.2969 45.1177C39.5547 45.0081 39.8286 44.9533 40.1187 44.9533C40.8341 44.9533 41.369 45.2063 41.7235 45.7123C42.0813 46.215 42.2134 46.9175 42.1199 47.8199H38.9392C38.9875 48.3 39.1341 48.6755 39.3791 48.9462C39.6272 49.2137 40.0091 49.3474 40.5247 49.3474C40.9437 49.3474 41.4061 49.1992 41.9121 48.9027H41.9314L41.8299 49.5939ZM38.9392 47.3268L41.2256 47.0319C41.2546 46.6807 41.1741 46.3955 40.9839 46.1763C40.7938 45.954 40.4989 45.8428 40.0993 45.8428C39.9543 45.8428 39.8157 45.8702 39.6836 45.925C39.5515 45.9797 39.4274 46.0635 39.3114 46.1763C39.1986 46.2859 39.1084 46.4406 39.0407 46.6404C38.973 46.837 38.9392 47.0658 38.9392 47.3268ZM44.9913 45.8234C44.7593 45.8234 44.5772 45.8686 44.4451 45.9588C44.3162 46.0458 44.2517 46.1618 44.2517 46.3068C44.2517 46.4551 44.3065 46.5888 44.4161 46.7081C44.5256 46.8241 44.7142 46.9417 44.9816 47.0609L45.4892 47.2881C45.8953 47.475 46.1869 47.6716 46.3642 47.8779C46.5446 48.0841 46.6349 48.3387 46.6349 48.6417C46.6349 49.0606 46.4882 49.4086 46.195 49.6858C45.9049 49.9597 45.4844 50.0967 44.9333 50.0967C44.3855 50.0967 43.9166 49.9823 43.5266 49.7535L43.3381 48.6755H43.3574C43.6604 48.9011 43.9407 49.0735 44.1985 49.1927C44.4596 49.3087 44.7303 49.3667 45.0106 49.3667C45.2233 49.3667 45.3877 49.3136 45.5037 49.2072C45.623 49.1009 45.6826 48.9559 45.6826 48.7722C45.6826 48.6046 45.6262 48.4628 45.5134 48.3468C45.4006 48.2275 45.233 48.1212 45.0106 48.0277L44.3581 47.7522C43.6459 47.4493 43.2897 46.9804 43.2897 46.3455C43.2897 45.9233 43.4477 45.5866 43.7635 45.3352C44.0825 45.0806 44.5015 44.9533 45.0203 44.9533C45.5005 44.9533 45.9533 45.0419 46.3787 45.2192L46.5575 46.3455H46.5382C46.3094 46.1747 46.058 46.0458 45.7841 45.9588C45.5102 45.8686 45.2459 45.8234 44.9913 45.8234ZM48.9503 43.8995H49.0809L49.0905 45.079L50.5746 44.9533V45.8621L49.0905 45.7413L49.1002 48.1873C49.1002 48.603 49.1824 48.9011 49.3467 49.0815C49.5143 49.2588 49.7222 49.3474 49.9703 49.3474C50.1798 49.3474 50.3812 49.3007 50.5746 49.2072H50.5939L50.4972 49.7535C50.4102 49.8501 50.2797 49.9323 50.1057 50C49.9316 50.0645 49.7512 50.0967 49.5643 50.0967C49.1324 50.0967 48.7844 49.9581 48.5201 49.681C48.2559 49.4006 48.1286 49.0058 48.1382 48.4966L48.1914 45.6639L47.4276 45.6059V45.4851L48.9503 43.8995ZM55.7808 50.0967C55.4424 50.0967 55.0911 50.0435 54.727 49.9372C54.366 49.8276 54.0518 49.6906 53.7843 49.5263L53.9003 45.8041L53.765 42.3768H54.8623L54.7318 45.7848C54.8704 45.6655 54.988 45.5688 55.0847 45.4947C55.1813 45.4174 55.3022 45.332 55.4472 45.2385C55.5922 45.1418 55.7373 45.0709 55.8823 45.0258C56.0305 44.9775 56.1755 44.9533 56.3173 44.9533C56.5623 44.9533 56.7862 45.0017 56.9893 45.0983C57.1923 45.1918 57.3615 45.3175 57.4968 45.4754C57.6354 45.6333 57.7514 45.817 57.8449 46.0265C57.9416 46.2359 58.0108 46.4551 58.0527 46.6839C58.0979 46.9095 58.1204 47.1399 58.1204 47.3751C58.1204 47.5331 58.1107 47.691 58.0914 47.8489C58.0753 48.0036 58.0431 48.1728 57.9947 48.3564C57.9496 48.5401 57.89 48.7125 57.8159 48.8737C57.7417 49.0348 57.6418 49.1911 57.5162 49.3426C57.3937 49.494 57.2535 49.6246 57.0956 49.7341C56.9409 49.8437 56.7492 49.9323 56.5204 50C56.2948 50.0645 56.0482 50.0967 55.7808 50.0967ZM55.8726 49.3474C56.2851 49.3474 56.5977 49.1782 56.8104 48.8398C57.0231 48.4982 57.1294 48.0406 57.1294 47.467C57.1198 46.9804 57.007 46.6082 56.7911 46.3503C56.5784 46.0893 56.2722 45.9588 55.8726 45.9588C55.5181 45.9588 55.1443 46.0813 54.7511 46.3262L54.8333 48.98C55.1233 49.225 55.4698 49.3474 55.8726 49.3474ZM61.4317 44.9533C61.7926 44.9533 62.1213 45.0194 62.4178 45.1515C62.7143 45.2836 62.9576 45.4641 63.1478 45.6929C63.3411 45.9185 63.4894 46.1828 63.5925 46.4857C63.6956 46.7854 63.7472 47.1061 63.7472 47.4477C63.7472 47.815 63.6956 48.1583 63.5925 48.4773C63.4894 48.7963 63.3427 49.0767 63.1526 49.3184C62.9624 49.5601 62.7191 49.7502 62.4227 49.8888C62.1262 50.0274 61.7958 50.0967 61.4317 50.0967C60.9483 50.0967 60.5277 49.9758 60.17 49.7341C59.8155 49.4892 59.5497 49.1702 59.3724 48.777C59.1984 48.3806 59.1114 47.9375 59.1114 47.4477C59.1114 46.9868 59.2 46.5695 59.3772 46.1957C59.5545 45.8218 59.8204 45.5221 60.1749 45.2965C60.5326 45.0677 60.9515 44.9533 61.4317 44.9533ZM60.4359 48.8253C60.6647 49.1734 60.9966 49.3474 61.4317 49.3474C61.8667 49.3474 62.1971 49.1734 62.4227 48.8253C62.6515 48.4773 62.7659 48.0245 62.7659 47.467C62.7659 47.0126 62.6466 46.6307 62.4082 46.3213C62.1729 46.0087 61.8474 45.8524 61.4317 45.8524C61.0127 45.8524 60.684 46.0071 60.4456 46.3165C60.2103 46.6259 60.0927 47.0094 60.0927 47.467C60.0927 48.0213 60.2071 48.4741 60.4359 48.8253ZM67.8367 49.4248C67.305 49.8727 66.8167 50.0967 66.372 50.0967C65.9595 50.0967 65.6421 49.9355 65.4197 49.6133C65.2006 49.2878 65.0862 48.8463 65.0765 48.2888L65.0475 46.3455L64.8396 45.0693V45.05H66.0481L65.9853 47.9601C65.9756 48.3854 66.0481 48.6835 66.2028 48.8543C66.3607 49.0251 66.5928 49.1105 66.8989 49.1105C67.2695 49.1105 67.6514 48.9752 68.0446 48.7045L67.9479 45.05H69.0549L68.9389 48.7045L69.1177 49.9807V50H68.0881L68.0687 49.2266L67.8367 49.4248ZM72.7045 44.9533C73.2041 44.9533 73.6037 45.0323 73.9034 45.1902L74.1016 46.3455H74.0822C73.6407 46.0168 73.1718 45.8524 72.6755 45.8524C72.2695 45.8524 71.9343 45.9894 71.6701 46.2633C71.409 46.5373 71.2785 46.9449 71.2785 47.4863C71.2785 48.0954 71.4123 48.5579 71.6797 48.8737C71.9504 49.1895 72.3146 49.3474 72.7722 49.3474C73.0107 49.3474 73.2331 49.3071 73.4393 49.2266C73.6456 49.146 73.8631 49.0348 74.0919 48.893H74.1112L74.0097 49.5843C73.8776 49.7164 73.6858 49.8356 73.4345 49.942C73.1863 50.0451 72.9269 50.0967 72.6562 50.0967C71.9601 50.0967 71.3929 49.8501 70.9546 49.3571C70.5164 48.8608 70.2972 48.2308 70.2972 47.467C70.2972 47.0609 70.3617 46.6952 70.4906 46.3697C70.6227 46.0442 70.8016 45.7799 71.0271 45.5769C71.2527 45.3739 71.5073 45.2192 71.7909 45.1128C72.0777 45.0065 72.3823 44.9533 72.7045 44.9533ZM75.2472 50L75.3826 45.8041L75.2472 42.3768H76.3445L76.214 45.8041L76.3445 50H75.2472ZM80.0619 42.4783H81.2897V42.4977L80.0425 44.3974H79.3899L80.0619 42.4783ZM81.4589 49.5939C81.1044 49.9291 80.5807 50.0967 79.8878 50.0967C79.5108 50.0967 79.1708 50.0242 78.8679 49.8792C78.5682 49.7341 78.3265 49.5392 78.1428 49.2942C77.9591 49.0493 77.8189 48.7754 77.7222 48.4725C77.6255 48.1695 77.5772 47.8505 77.5772 47.5153C77.5772 47.0996 77.6352 46.7274 77.7512 46.3987C77.8705 46.0667 78.0316 45.7977 78.2346 45.5914C78.4376 45.3819 78.6681 45.224 78.9259 45.1177C79.1837 45.0081 79.4576 44.9533 79.7477 44.9533C80.4631 44.9533 80.998 45.2063 81.3525 45.7123C81.7103 46.215 81.8424 46.9175 81.7489 47.8199H78.5682C78.6165 48.3 78.7631 48.6755 79.0081 48.9462C79.2562 49.2137 79.6381 49.3474 80.1537 49.3474C80.5727 49.3474 81.0351 49.1992 81.5411 48.9027H81.5604L81.4589 49.5939ZM78.5682 47.3268L80.8546 47.0319C80.8836 46.6807 80.8031 46.3955 80.6129 46.1763C80.4228 45.954 80.1279 45.8428 79.7283 45.8428C79.5833 45.8428 79.4447 45.8702 79.3126 45.925C79.1805 45.9797 79.0564 46.0635 78.9404 46.1763C78.8276 46.2859 78.7374 46.4406 78.6697 46.6404C78.602 46.837 78.5682 47.0658 78.5682 47.3268ZM85.3647 42.575H86.4766L86.2445 47.7909H85.5919L85.3647 42.575ZM85.9207 50.0967C85.7466 50.0967 85.5984 50.0419 85.4759 49.9323C85.3567 49.8228 85.2971 49.6777 85.2971 49.4973C85.2971 49.3007 85.3567 49.1476 85.4759 49.038C85.5952 48.9285 85.7434 48.8737 85.9207 48.8737C86.1011 48.8737 86.251 48.9285 86.3702 49.038C86.4927 49.1476 86.5539 49.3007 86.5539 49.4973C86.5539 49.6777 86.4927 49.8228 86.3702 49.9323C86.2478 50.0419 86.0979 50.0967 85.9207 50.0967Z" fill="black"/>
</svg>
