<svg width="95" height="58" viewBox="0 0 95 58" fill="none" xmlns="http://www.w3.org/2000/svg">
<path d="M34.3682 43.8652L30.5742 42.8877L30.9844 52H28.4756L28.9268 42.9014L25.1602 43.8652H25.0166L25.3105 41.5H34.2314L34.5117 43.8652H34.3682ZM41.8672 51.8359C41.3112 52.0365 40.7233 52.1367 40.1035 52.1367C39.4837 52.1367 38.8958 52.0387 38.3398 51.8428C37.7839 51.6423 37.2962 51.3688 36.877 51.0225C36.4577 50.6715 36.0931 50.2682 35.7832 49.8125C35.4779 49.3568 35.2454 48.8646 35.0859 48.3359C34.931 47.8027 34.8535 47.2604 34.8535 46.709C34.8535 45.8978 34.988 45.1572 35.2568 44.4873C35.5257 43.8128 35.8926 43.25 36.3574 42.7988C36.8268 42.3431 37.3828 41.9899 38.0254 41.7393C38.668 41.4886 39.3607 41.3633 40.1035 41.3633C40.8464 41.3633 41.5391 41.4886 42.1816 41.7393C42.8242 41.9899 43.3779 42.3431 43.8428 42.7988C44.3122 43.25 44.6813 43.8128 44.9502 44.4873C45.2191 45.1572 45.3535 45.8978 45.3535 46.709C45.3535 47.2467 45.2738 47.7799 45.1143 48.3086C44.9593 48.8327 44.7269 49.3249 44.417 49.7852C44.1071 50.2409 43.7425 50.6465 43.3232 51.002C42.9085 51.3529 42.4232 51.6309 41.8672 51.8359ZM40.1035 50.4619C40.7005 50.4574 41.2406 50.291 41.7236 49.9629C42.2113 49.6348 42.5918 49.1882 42.8652 48.623C43.1432 48.0579 43.2822 47.4336 43.2822 46.75C43.2731 45.6836 42.9792 44.8337 42.4004 44.2002C41.8262 43.5622 41.0605 43.2454 40.1035 43.25C39.1465 43.2363 38.3763 43.5531 37.793 44.2002C37.2142 44.8428 36.9248 45.6882 36.9248 46.7363C36.9248 47.7845 37.2256 48.6641 37.8271 49.375C38.4333 50.0859 39.1921 50.4482 40.1035 50.4619ZM49.4688 46.4834L49.7832 52H47.2607L47.582 46.4834L47.2607 41.5H50.8428C52.0368 41.5 52.971 41.7826 53.6455 42.3477C54.3245 42.9128 54.6641 43.6374 54.6641 44.5215C54.6641 45.0182 54.582 45.474 54.418 45.8887C54.2539 46.2988 54.0055 46.6657 53.6729 46.9893C53.3447 47.3128 52.9049 47.5703 52.3535 47.7617C51.8066 47.9531 51.1732 48.0602 50.4531 48.083V46.8457C51.1504 46.8457 51.6836 46.6839 52.0527 46.3604C52.4219 46.0368 52.6064 45.5605 52.6064 44.9316C52.6064 44.3984 52.4014 43.986 51.9912 43.6943C51.5856 43.3981 50.9704 43.25 50.1455 43.25H49.667L49.4688 46.4834ZM59.4697 41.5H61.917L61.459 48.459H59.9346L59.4697 41.5ZM60.6865 52.1367C60.3675 52.1367 60.0918 52.0273 59.8594 51.8086C59.627 51.5853 59.5107 51.2936 59.5107 50.9336C59.5107 50.569 59.6247 50.2773 59.8525 50.0586C60.085 49.8398 60.363 49.7305 60.6865 49.7305C61.0192 49.7305 61.2995 49.8398 61.5273 50.0586C61.7598 50.2728 61.876 50.5645 61.876 50.9336C61.876 51.2936 61.7598 51.5853 61.5273 51.8086C61.2995 52.0273 61.0192 52.1367 60.6865 52.1367Z" fill="black"/>
<path d="M26.0694 5.36615C25.8672 4.85221 26.1199 4.27166 26.6339 4.06944L35.0089 0.77412C35.5228 0.571903 36.1034 0.824598 36.3056 1.33853C36.5078 1.85246 36.2551 2.43302 35.7412 2.63523L28.2967 5.56441L31.2259 13.0089C31.4281 13.5228 31.1754 14.1034 30.6615 14.3056C30.1475 14.5078 29.567 14.2551 29.3648 13.7412L26.0694 5.36615ZM45.9891 35L44.9897 34.9672C45.2169 28.0437 41.8305 12.5458 26.6009 5.91691L27 5L27.3991 4.08309C43.6774 11.1685 47.2302 27.6706 46.9886 35.0328L45.9891 35Z" fill="black"/>
<path d="M61.6244 12.7738L58.8738 12.2856L59.0527 19H57.8635L58.0424 12.2856L55.3015 12.7738H55.2773L55.4852 11.575H61.4358L61.6437 12.7738H61.6244ZM63.2776 18.3764C63.558 18.3764 63.8851 18.2314 64.2589 17.9414L64.2879 17.0809C64.0494 16.9488 63.7723 16.8827 63.4564 16.8827C63.1535 16.8827 62.9134 16.9488 62.7362 17.0809C62.5622 17.213 62.4751 17.3967 62.4751 17.632C62.4751 17.8543 62.5477 18.0348 62.6927 18.1734C62.8409 18.3087 63.0359 18.3764 63.2776 18.3764ZM64.2299 19L64.2396 18.5359C63.74 18.9098 63.3179 19.0967 62.973 19.0967C62.5122 19.0967 62.1513 18.9646 61.8902 18.7003C61.6292 18.436 61.4987 18.1041 61.4987 17.7045C61.4987 17.4628 61.5438 17.2501 61.634 17.0664C61.7243 16.8827 61.8419 16.7361 61.9869 16.6265C62.1319 16.5137 62.306 16.4219 62.509 16.351C62.7152 16.2801 62.9215 16.2317 63.1277 16.206C63.334 16.1802 63.5563 16.1673 63.7948 16.1673C63.8851 16.1673 64.0559 16.1737 64.3072 16.1866L64.3169 15.9304C64.3233 15.6984 64.3024 15.505 64.2541 15.3503C64.2089 15.1957 64.1364 15.0813 64.0365 15.0071C63.9366 14.9298 63.8303 14.8766 63.7175 14.8476C63.6079 14.8186 63.4742 14.8041 63.3163 14.8041C62.878 14.8041 62.3511 14.9427 61.7355 15.2198H61.7162L61.9047 14.0597C62.5783 13.9888 63.0955 13.9533 63.4564 13.9533C64.0236 13.9533 64.4555 14.1145 64.752 14.4367C65.0517 14.7558 65.2112 15.2005 65.2305 15.7709L65.3369 19H64.2299ZM68.8898 14.9395C68.5611 14.9298 68.1954 15.0651 67.7925 15.3455L67.8892 19H66.7822L66.8982 15.3455L66.7194 14.0693V14.05H67.749L67.7684 14.8138L67.9569 14.6542C68.5112 14.187 69.0042 13.9533 69.4361 13.9533C69.884 13.9533 70.2256 14.1145 70.4609 14.4367C70.6994 14.7558 70.8283 15.2005 70.8476 15.7709L70.9588 19H69.8518L69.9388 16.0996C69.9517 15.6517 69.8663 15.3455 69.6826 15.1812C69.4989 15.0136 69.2347 14.933 68.8898 14.9395ZM74.6036 18.3474C74.9323 18.3474 75.2659 18.2314 75.6042 17.9994L75.6333 15.128C75.3368 14.9443 74.9968 14.8524 74.6133 14.8524C74.3748 14.8524 74.1621 14.8992 73.9752 14.9926C73.7883 15.0829 73.6384 15.2069 73.5256 15.3648C73.4128 15.5228 73.3274 15.7 73.2694 15.8966C73.2146 16.0899 73.1873 16.2962 73.1873 16.5153C73.1873 17.1051 73.3081 17.5579 73.5498 17.8737C73.7947 18.1895 74.146 18.3474 74.6036 18.3474ZM74.3667 21.5717C73.922 21.5717 73.4177 21.5104 72.8537 21.388L72.554 20.2278H72.5927C72.8988 20.3664 73.126 20.4663 73.2743 20.5275C73.4257 20.5888 73.6062 20.6484 73.8157 20.7064C74.0284 20.7644 74.2185 20.7934 74.3861 20.7934C74.7921 20.7934 75.0902 20.6629 75.2804 20.4019C75.4737 20.1408 75.5752 19.7332 75.5849 19.1789L75.5946 18.5553C75.1402 18.9162 74.7051 19.0967 74.2894 19.0967C73.8608 19.0967 73.4837 18.9758 73.1583 18.7341C72.836 18.4924 72.5943 18.1782 72.4332 17.7915C72.2752 17.4048 72.1963 16.9762 72.1963 16.5057C72.1963 16.1093 72.2591 15.7483 72.3848 15.4229C72.5137 15.0941 72.6861 14.825 72.9021 14.6156C73.1212 14.4029 73.3742 14.2401 73.661 14.1273C73.9478 14.0113 74.2523 13.9533 74.5746 13.9533C74.9678 13.9533 75.3207 14.0226 75.6333 14.1612L76.5855 14.05H76.6049L76.4937 15.2585L76.5662 18.7631C76.5694 18.9243 76.5662 19.0773 76.5565 19.2224C76.5501 19.3706 76.5291 19.543 76.4937 19.7396C76.4615 19.9362 76.4164 20.115 76.3583 20.2762C76.3003 20.4373 76.2149 20.6 76.1021 20.7644C75.9894 20.932 75.8572 21.0722 75.7058 21.185C75.5575 21.2978 75.3674 21.3896 75.1354 21.4605C74.9065 21.5346 74.6503 21.5717 74.3667 21.5717ZM80.24 15.0023C80.066 15.0023 79.8775 15.041 79.6745 15.1183C79.4714 15.1957 79.2845 15.2923 79.1137 15.4083L79.2104 19H78.1034L78.2194 15.3455L78.0406 14.0693V14.05H79.0702L79.0895 14.8621L79.3409 14.6542C79.3603 14.6381 79.4038 14.6011 79.4714 14.5431C79.5423 14.4851 79.5891 14.4464 79.6116 14.4271C79.6342 14.4077 79.6761 14.3739 79.7373 14.3255C79.8018 14.274 79.8485 14.2385 79.8775 14.2192C79.9097 14.1999 79.9548 14.1725 80.0128 14.137C80.0708 14.0983 80.1192 14.0726 80.1579 14.0597C80.1965 14.0436 80.2416 14.0258 80.2932 14.0065C80.348 13.9839 80.3996 13.9694 80.4479 13.963C80.4962 13.9565 80.5462 13.9533 80.5978 13.9533C80.7686 13.9533 80.9007 13.9598 80.9941 13.9727L81.1923 15.2005H81.173C80.9055 15.0684 80.5945 15.0023 80.24 15.0023ZM83.7157 18.3764C83.996 18.3764 84.3231 18.2314 84.697 17.9414L84.726 17.0809C84.4875 16.9488 84.2103 16.8827 83.8945 16.8827C83.5916 16.8827 83.3515 16.9488 83.1743 17.0809C83.0002 17.213 82.9132 17.3967 82.9132 17.632C82.9132 17.8543 82.9857 18.0348 83.1308 18.1734C83.279 18.3087 83.474 18.3764 83.7157 18.3764ZM84.668 19L84.6776 18.5359C84.1781 18.9098 83.756 19.0967 83.4111 19.0967C82.9503 19.0967 82.5894 18.9646 82.3283 18.7003C82.0673 18.436 81.9368 18.1041 81.9368 17.7045C81.9368 17.4628 81.9819 17.2501 82.0721 17.0664C82.1624 16.8827 82.28 16.7361 82.425 16.6265C82.57 16.5137 82.744 16.4219 82.9471 16.351C83.1533 16.2801 83.3596 16.2317 83.5658 16.206C83.7721 16.1802 83.9944 16.1673 84.2329 16.1673C84.3231 16.1673 84.4939 16.1737 84.7453 16.1866L84.755 15.9304C84.7614 15.6984 84.7405 15.505 84.6921 15.3503C84.647 15.1957 84.5745 15.0813 84.4746 15.0071C84.3747 14.9298 84.2684 14.8766 84.1556 14.8476C84.046 14.8186 83.9123 14.8041 83.7543 14.8041C83.3161 14.8041 82.7892 14.9427 82.1736 15.2198H82.1543L82.3428 14.0597C83.0164 13.9888 83.5336 13.9533 83.8945 13.9533C84.4617 13.9533 84.8936 14.1145 85.19 14.4367C85.4897 14.7558 85.6493 15.2005 85.6686 15.7709L85.7749 19H84.668ZM89.2167 14.9491C88.8848 14.9491 88.5561 15.0748 88.2306 15.3262L88.3273 19H87.2203L87.3363 15.3358L87.1575 14.0693V14.05H88.1871L88.2064 14.8041L88.366 14.6639C88.6238 14.4416 88.8639 14.2675 89.0862 14.1418C89.3118 14.0162 89.5406 13.9533 89.7727 13.9533C90.3753 13.9533 90.7813 14.2691 90.9908 14.9008L91.2567 14.6639C91.5145 14.4416 91.7546 14.2675 91.977 14.1418C92.2025 14.0162 92.4313 13.9533 92.6634 13.9533C93.092 13.9533 93.4207 14.1145 93.6495 14.4367C93.8783 14.759 94.0024 15.2005 94.0217 15.7612L94.1281 19H93.0211L93.1081 16.0899C93.1145 15.8611 93.0968 15.671 93.0549 15.5195C93.013 15.3648 92.9437 15.2472 92.8471 15.1667C92.7536 15.0861 92.6489 15.0297 92.5329 14.9975C92.4168 14.9652 92.275 14.9491 92.1075 14.9491C91.7723 14.9491 91.4323 15.078 91.0875 15.3358C91.1068 15.4809 91.1213 15.6227 91.131 15.7612L91.2277 19H90.1207L90.2174 16.0899C90.2238 15.8611 90.2061 15.671 90.1642 15.5195C90.1223 15.3648 90.053 15.2472 89.9563 15.1667C89.8629 15.0861 89.7582 15.0297 89.6421 14.9975C89.5261 14.9652 89.3843 14.9491 89.2167 14.9491ZM61.5905 31.0023C61.4165 31.0023 61.228 31.041 61.025 31.1183C60.8219 31.1957 60.635 31.2923 60.4642 31.4083L60.5609 35H59.4539L59.5699 31.3455L59.3911 30.0693V30.05H60.4207L60.44 30.8621L60.6914 30.6542C60.7107 30.6381 60.7542 30.6011 60.8219 30.5431C60.8928 30.4851 60.9396 30.4464 60.9621 30.4271C60.9847 30.4077 61.0266 30.3739 61.0878 30.3255C61.1522 30.274 61.199 30.2385 61.228 30.2192C61.2602 30.1999 61.3053 30.1725 61.3633 30.137C61.4213 30.0983 61.4697 30.0726 61.5084 30.0597C61.547 30.0436 61.5921 30.0258 61.6437 30.0065C61.6985 29.9839 61.7501 29.9694 61.7984 29.963C61.8467 29.9565 61.8967 29.9533 61.9482 29.9533C62.119 29.9533 62.2512 29.9598 62.3446 29.9727L62.5428 31.2005H62.5235C62.256 31.0684 61.945 31.0023 61.5905 31.0023ZM65.5157 27.4783H66.7436V27.4977L65.4964 29.3974H64.8438L65.5157 27.4783ZM66.9127 34.5939C66.5583 34.9291 66.0346 35.0967 65.3417 35.0967C64.9646 35.0967 64.6247 35.0242 64.3217 34.8792C64.022 34.7341 63.7803 34.5392 63.5966 34.2942C63.4129 34.0493 63.2728 33.7754 63.1761 33.4725C63.0794 33.1695 63.0311 32.8505 63.0311 32.5153C63.0311 32.0996 63.0891 31.7274 63.2051 31.3987C63.3243 31.0667 63.4855 30.7977 63.6885 30.5914C63.8915 30.3819 64.1219 30.224 64.3797 30.1177C64.6376 30.0081 64.9115 29.9533 65.2015 29.9533C65.9169 29.9533 66.4519 30.2063 66.8064 30.7123C67.1641 31.215 67.2962 31.9175 67.2028 32.8199H64.022C64.0704 33.3 64.217 33.6755 64.4619 33.9462C64.7101 34.2137 65.0919 34.3474 65.6076 34.3474C66.0265 34.3474 66.489 34.1992 66.9949 33.9027H67.0143L66.9127 34.5939ZM64.022 32.3268L66.3085 32.0319C66.3375 31.6807 66.2569 31.3955 66.0668 31.1763C65.8767 30.954 65.5818 30.8428 65.1822 30.8428C65.0372 30.8428 64.8986 30.8702 64.7665 30.925C64.6343 30.9797 64.5103 31.0635 64.3942 31.1763C64.2814 31.2859 64.1912 31.4406 64.1235 31.6404C64.0559 31.837 64.022 32.0658 64.022 32.3268ZM70.0742 30.8234C69.8421 30.8234 69.6601 30.8686 69.5279 30.9588C69.399 31.0458 69.3346 31.1618 69.3346 31.3068C69.3346 31.4551 69.3894 31.5888 69.4989 31.7081C69.6085 31.8241 69.797 31.9417 70.0645 32.0609L70.5721 32.2881C70.9781 32.475 71.2698 32.6716 71.447 32.8779C71.6275 33.0841 71.7177 33.3387 71.7177 33.6417C71.7177 34.0606 71.5711 34.4086 71.2778 34.6858C70.9878 34.9597 70.5672 35.0967 70.0162 35.0967C69.4683 35.0967 68.9994 34.9823 68.6095 34.7535L68.4209 33.6755H68.4403C68.7432 33.9011 69.0236 34.0735 69.2814 34.1927C69.5424 34.3087 69.8131 34.3667 70.0935 34.3667C70.3062 34.3667 70.4706 34.3136 70.5866 34.2072C70.7058 34.1009 70.7654 33.9559 70.7654 33.7722C70.7654 33.6046 70.709 33.4628 70.5962 33.3468C70.4834 33.2275 70.3159 33.1212 70.0935 33.0277L69.4409 32.7522C68.7287 32.4493 68.3726 31.9804 68.3726 31.3455C68.3726 30.9233 68.5305 30.5866 68.8463 30.3352C69.1654 30.0806 69.5843 29.9533 70.1032 29.9533C70.5834 29.9533 71.0361 30.0419 71.4615 30.2192L71.6404 31.3455H71.621C71.3922 31.1747 71.1409 31.0458 70.8669 30.9588C70.593 30.8686 70.3288 30.8234 70.0742 30.8234ZM75.1257 29.9533C75.4866 29.9533 75.8153 30.0194 76.1118 30.1515C76.4083 30.2836 76.6516 30.4641 76.8417 30.6929C77.0351 30.9185 77.1834 31.1828 77.2865 31.4857C77.3896 31.7854 77.4412 32.1061 77.4412 32.4477C77.4412 32.815 77.3896 33.1583 77.2865 33.4773C77.1834 33.7963 77.0367 34.0767 76.8466 34.3184C76.6564 34.5601 76.4131 34.7502 76.1167 34.8888C75.8202 35.0274 75.4898 35.0967 75.1257 35.0967C74.6423 35.0967 74.2217 34.9758 73.864 34.7341C73.5095 34.4892 73.2437 34.1702 73.0664 33.777C72.8924 33.3806 72.8054 32.9375 72.8054 32.4477C72.8054 31.9868 72.894 31.5695 73.0712 31.1957C73.2485 30.8218 73.5144 30.5221 73.8688 30.2965C74.2266 30.0677 74.6455 29.9533 75.1257 29.9533ZM74.1299 33.8253C74.3587 34.1734 74.6906 34.3474 75.1257 34.3474C75.5607 34.3474 75.8911 34.1734 76.1167 33.8253C76.3455 33.4773 76.4599 33.0245 76.4599 32.467C76.4599 32.0126 76.3406 31.6307 76.1021 31.3213C75.8669 31.0087 75.5414 30.8524 75.1257 30.8524C74.7067 30.8524 74.378 31.0071 74.1396 31.3165C73.9043 31.6259 73.7867 32.0094 73.7867 32.467C73.7867 33.0213 73.9011 33.4741 74.1299 33.8253ZM78.6835 35L78.8188 30.8041L78.6835 27.3768H79.7808L79.6503 30.8041L79.7808 35H78.6835ZM84.1121 34.4248C83.5803 34.8727 83.0921 35.0967 82.6474 35.0967C82.2349 35.0967 81.9174 34.9355 81.6951 34.6133C81.4759 34.2878 81.3615 33.8463 81.3519 33.2888L81.3229 31.3455L81.115 30.0693V30.05H82.3235L82.2606 32.9601C82.251 33.3854 82.3235 33.6835 82.4782 33.8543C82.6361 34.0251 82.8681 34.1105 83.1743 34.1105C83.5449 34.1105 83.9268 33.9752 84.3199 33.7045L84.2232 30.05H85.3302L85.2142 33.7045L85.3931 34.9807V35H84.3634L84.3441 34.2266L84.1121 34.4248ZM89.1201 27.575H90.2319L89.9999 32.7909H89.3473L89.1201 27.575ZM89.676 35.0967C89.502 35.0967 89.3537 35.0419 89.2312 34.9323C89.112 34.8228 89.0524 34.6777 89.0524 34.4973C89.0524 34.3007 89.112 34.1476 89.2312 34.038C89.3505 33.9285 89.4987 33.8737 89.676 33.8737C89.8564 33.8737 90.0063 33.9285 90.1255 34.038C90.248 34.1476 90.3092 34.3007 90.3092 34.4973C90.3092 34.6777 90.248 34.8228 90.1255 34.9323C90.0031 35.0419 89.8532 35.0967 89.676 35.0967Z" fill="black"/>
</svg>
