<svg width="104" height="60" viewBox="0 0 104 60" fill="none" xmlns="http://www.w3.org/2000/svg">
<path d="M7.39355 5.5H10.4834C11.682 5.5 12.6071 5.7347 13.2588 6.2041C13.9105 6.66895 14.2363 7.28418 14.2363 8.0498C14.2363 8.63314 14.0677 9.13216 13.7305 9.54688C13.3932 9.95703 12.9284 10.2282 12.3359 10.3604V10.4971C13.1016 10.6292 13.6598 10.9163 14.0107 11.3584C14.3662 11.7959 14.5439 12.3063 14.5439 12.8896C14.5439 13.2861 14.4574 13.6667 14.2842 14.0312C14.1156 14.3913 13.8672 14.7217 13.5391 15.0225C13.2109 15.3187 12.7712 15.5557 12.2197 15.7334C11.6683 15.9111 11.0439 16 10.3467 16H7.39355L7.71484 10.4834L7.39355 5.5ZM9.60156 10.4834L9.82715 14.3184H10.5723C11.1693 14.3184 11.6296 14.1634 11.9531 13.8535C12.2812 13.5391 12.4453 13.1061 12.4453 12.5547C12.4453 12.2129 12.3587 11.9189 12.1855 11.6729C12.0124 11.4222 11.805 11.2376 11.5635 11.1191C11.3219 11.0007 11.0508 10.9186 10.75 10.873V10.0664C11.2103 9.97982 11.5635 9.82715 11.8096 9.6084C12.0557 9.38965 12.1787 9.06152 12.1787 8.62402C12.1787 8.23665 12.0306 7.91081 11.7344 7.64648C11.4427 7.38216 10.9893 7.25 10.374 7.25H9.81348L9.60156 10.4834ZM16.335 16L16.6562 10.4834L16.335 5.5H18.8574L18.543 10.4834L18.8574 16H16.335ZM21.1201 16L21.4414 10.4834L21.1201 5.5H27.1221L27.416 7.6123H27.2793L23.5674 6.7168L23.3623 9.92285L26.9033 9.81348L26.7598 11.6318L23.3623 11.0166L23.5674 14.7695L27.3066 13.6484H27.4502L27.1699 16H21.1201ZM37.3623 16L30.9912 9.38965L31.5791 16H29.1113L29.3916 5.5H29.8291L36.2686 12.2197L35.7764 5.5H38.2441L37.793 16H37.3623ZM42.8311 13.7305C43.1729 13.8809 43.5534 14.0153 43.9727 14.1338C44.3965 14.2477 44.7428 14.3047 45.0117 14.3047C45.5039 14.3047 45.832 14.0859 45.9961 13.6484C46.1602 13.2064 46.2012 12.4727 46.1191 11.4473L45.668 5.5H48.1904L48.04 13.0195C47.9945 15.0977 47.0283 16.1367 45.1416 16.1367C44.6084 16.1367 43.9772 16.0456 43.248 15.8633L42.6875 13.7305H42.8311ZM57.0566 15.8359C56.5007 16.0365 55.9128 16.1367 55.293 16.1367C54.6732 16.1367 54.0853 16.0387 53.5293 15.8428C52.9733 15.6423 52.4857 15.3688 52.0664 15.0225C51.6471 14.6715 51.2826 14.2682 50.9727 13.8125C50.6673 13.3568 50.4349 12.8646 50.2754 12.3359C50.1204 11.8027 50.043 11.2604 50.043 10.709C50.043 9.89779 50.1774 9.15723 50.4463 8.4873C50.7152 7.81283 51.082 7.25 51.5469 6.79883C52.0163 6.3431 52.5723 5.98991 53.2148 5.73926C53.8574 5.48861 54.5501 5.36328 55.293 5.36328C56.0358 5.36328 56.7285 5.48861 57.3711 5.73926C58.0137 5.98991 58.5674 6.3431 59.0322 6.79883C59.5016 7.25 59.8708 7.81283 60.1396 8.4873C60.4085 9.15723 60.543 9.89779 60.543 10.709C60.543 11.2467 60.4632 11.7799 60.3037 12.3086C60.1488 12.8327 59.9163 13.3249 59.6064 13.7852C59.2965 14.2409 58.932 14.6465 58.5127 15.002C58.098 15.3529 57.6126 15.6309 57.0566 15.8359ZM55.293 14.4619C55.89 14.4574 56.43 14.291 56.9131 13.9629C57.4007 13.6348 57.7812 13.1882 58.0547 12.623C58.3327 12.0579 58.4717 11.4336 58.4717 10.75C58.4626 9.68359 58.1686 8.83366 57.5898 8.2002C57.0156 7.56217 56.25 7.24544 55.293 7.25C54.3359 7.23633 53.5658 7.55306 52.9824 8.2002C52.4036 8.84277 52.1143 9.68815 52.1143 10.7363C52.1143 11.7845 52.415 12.6641 53.0166 13.375C53.6227 14.0859 54.3815 14.4482 55.293 14.4619ZM65.1777 13.6895C65.6335 14.2044 66.2464 14.4619 67.0166 14.4619C67.7868 14.4619 68.3975 14.1999 68.8486 13.6758C69.3044 13.1517 69.5322 12.3678 69.5322 11.3242L69.1289 5.5H71.6309L71.4258 11.3242C71.4258 12.0215 71.3369 12.6572 71.1592 13.2314C70.986 13.8057 70.724 14.3115 70.373 14.749C70.0267 15.1865 69.5664 15.5283 68.9922 15.7744C68.4225 16.016 67.764 16.1367 67.0166 16.1367C66.2692 16.1367 65.6084 16.016 65.0342 15.7744C64.4645 15.5329 64.0042 15.1956 63.6533 14.7627C63.3024 14.3252 63.0381 13.8193 62.8604 13.2451C62.6872 12.6709 62.6006 12.0352 62.6006 11.3379L62.3955 5.5H64.8975L64.4941 11.3379C64.4941 12.3861 64.722 13.1699 65.1777 13.6895ZM76.9902 2.64258H79.6768V2.66992L77.9814 4.52246H76.1768L76.9902 2.64258ZM73.8525 16L74.1738 10.4834L73.8525 5.5H79.8545L80.1484 7.6123H80.0117L76.2998 6.7168L76.0947 9.92285L79.6357 9.81348L79.4922 11.6318L76.0947 11.0166L76.2998 14.7695L80.0391 13.6484H80.1826L79.9023 16H73.8525ZM85.1045 5.5H87.5518L87.0938 12.459H85.5693L85.1045 5.5ZM86.3213 16.1367C86.0023 16.1367 85.7266 16.0273 85.4941 15.8086C85.2617 15.5853 85.1455 15.2936 85.1455 14.9336C85.1455 14.569 85.2594 14.2773 85.4873 14.0586C85.7197 13.8398 85.9977 13.7305 86.3213 13.7305C86.654 13.7305 86.9342 13.8398 87.1621 14.0586C87.3945 14.2728 87.5107 14.5645 87.5107 14.9336C87.5107 15.2936 87.3945 15.5853 87.1621 15.8086C86.9342 16.0273 86.654 16.1367 86.3213 16.1367Z" fill="black"/>
<path d="M44.4909 33.2459C45.0935 33.2459 45.5672 33.0429 45.9121 32.6368C46.2569 32.2308 46.4293 31.6362 46.4293 30.8531L46.2504 26.575H47.4493L47.3333 30.8531C47.3333 31.8682 47.0867 32.6626 46.5937 33.2362C46.1006 33.8099 45.3997 34.0967 44.4909 34.0967C43.5853 34.0967 42.8812 33.8099 42.3784 33.2362C41.8789 32.6594 41.6292 31.865 41.6292 30.8531L41.5083 26.575H42.7071L42.5283 30.8531C42.5283 31.633 42.7055 32.2275 43.06 32.6368C43.4177 33.0429 43.8947 33.2459 44.4909 33.2459ZM51.2053 29.9395C50.8766 29.9298 50.5108 30.0651 50.108 30.3455L50.2046 34H49.0977L49.2137 30.3455L49.0348 29.0693V29.05H50.0645L50.0838 29.8138L50.2723 29.6542C50.8266 29.187 51.3197 28.9533 51.7515 28.9533C52.1995 28.9533 52.5411 29.1145 52.7763 29.4367C53.0148 29.7558 53.1437 30.2005 53.163 30.7709L53.2742 34H52.1672L52.2542 31.0996C52.2671 30.6517 52.1817 30.3455 51.998 30.1812C51.8144 30.0136 51.5501 29.933 51.2053 29.9395ZM58.901 33.3474C59.2039 33.3474 59.5068 33.2475 59.8098 33.0477L59.9113 30.1086C59.6051 29.9378 59.2716 29.8524 58.9106 29.8524C58.6722 29.8524 58.4595 29.8992 58.2726 29.9926C58.0856 30.0829 57.9358 30.2069 57.823 30.3648C57.7102 30.5228 57.6248 30.7 57.5668 30.8966C57.512 31.0899 57.4846 31.2962 57.4846 31.5153C57.4846 32.1051 57.6055 32.5579 57.8472 32.8737C58.0921 33.1895 58.4434 33.3474 58.901 33.3474ZM59.8098 34L59.8001 33.6229C59.365 33.9388 58.9606 34.0967 58.5868 34.0967C58.1582 34.0967 57.7811 33.9758 57.4556 33.7341C57.1334 33.4924 56.8917 33.1782 56.7305 32.7915C56.5726 32.4048 56.4937 31.9762 56.4937 31.5057C56.4937 31.1093 56.5565 30.7483 56.6822 30.4229C56.8111 30.0941 56.9835 29.825 57.1994 29.6156C57.4186 29.4029 57.6715 29.2401 57.9584 29.1273C58.2452 29.0113 58.5497 28.9533 58.872 28.9533C59.249 28.9533 59.589 29.0178 59.8919 29.1467L59.7808 26.3768H60.8829L60.7524 29.8041L60.8829 34H59.8098ZM66.0021 33.5939C65.6476 33.9291 65.1239 34.0967 64.4311 34.0967C64.054 34.0967 63.714 34.0242 63.4111 33.8792C63.1114 33.7341 62.8697 33.5392 62.686 33.2942C62.5023 33.0493 62.3621 32.7754 62.2654 32.4725C62.1687 32.1695 62.1204 31.8505 62.1204 31.5153C62.1204 31.0996 62.1784 30.7274 62.2944 30.3987C62.4137 30.0667 62.5748 29.7977 62.7778 29.5914C62.9809 29.3819 63.2113 29.224 63.4691 29.1177C63.7269 29.0081 64.0008 28.9533 64.2909 28.9533C65.0063 28.9533 65.5413 29.2063 65.8958 29.7123C66.2535 30.215 66.3856 30.9175 66.2921 31.8199H63.1114C63.1597 32.3 63.3063 32.6755 63.5513 32.9462C63.7994 33.2137 64.1813 33.3474 64.6969 33.3474C65.1159 33.3474 65.5783 33.1992 66.0843 32.9027H66.1036L66.0021 33.5939ZM63.1114 31.3268L65.3978 31.0319C65.4269 30.6807 65.3463 30.3955 65.1562 30.1763C64.966 29.954 64.6711 29.8428 64.2715 29.8428C64.1265 29.8428 63.9879 29.8702 63.8558 29.925C63.7237 29.9797 63.5996 30.0635 63.4836 30.1763C63.3708 30.2859 63.2806 30.4406 63.2129 30.6404C63.1452 30.837 63.1114 31.0658 63.1114 31.3268ZM71.7207 33.3474C72.1461 33.3474 72.4684 33.1782 72.6875 32.8398C72.9066 32.4982 73.0162 32.0406 73.0162 31.467C73.0065 30.9804 72.8921 30.6082 72.673 30.3503C72.4571 30.0893 72.1461 29.9588 71.74 29.9588C71.4242 29.9588 71.0617 30.078 70.6524 30.3165L70.6911 32.98C70.9811 33.225 71.3243 33.3474 71.7207 33.3474ZM71.6289 34.0967C71.3259 34.0967 71.0198 34.0548 70.7104 33.971L70.7491 36.475H69.6711L69.7678 30.2488L69.5937 29.0693V29.05H70.6137L70.6427 29.7606C70.9166 29.5189 71.1777 29.3239 71.4258 29.1757C71.6772 29.0274 71.9334 28.9533 72.1944 28.9533C72.5006 28.9533 72.7713 29.0258 73.0065 29.1708C73.245 29.3126 73.4335 29.5028 73.5721 29.7413C73.7107 29.9797 73.8138 30.2392 73.8815 30.5195C73.9524 30.7967 73.9878 31.0851 73.9878 31.3848C73.9878 31.5427 73.9782 31.7006 73.9588 31.8585C73.9427 32.0132 73.9105 32.1824 73.8622 32.3661C73.817 32.5466 73.7574 32.7174 73.6833 32.8785C73.6092 33.0396 73.5093 33.1959 73.3836 33.3474C73.2611 33.4989 73.1193 33.6294 72.9582 33.739C72.8003 33.8453 72.6069 33.9323 72.3781 34C72.1525 34.0645 71.9028 34.0967 71.6289 34.0967ZM75.2302 34L75.3655 29.8041L75.2302 26.3768H76.3275L76.197 29.8041L76.3275 34H75.2302ZM80.6587 33.4248C80.127 33.8727 79.6388 34.0967 79.194 34.0967C78.7815 34.0967 78.4641 33.9355 78.2418 33.6133C78.0226 33.2878 77.9082 32.8463 77.8985 32.2888L77.8695 30.3455L77.6617 29.0693V29.05H78.8702L78.8073 31.9601C78.7977 32.3854 78.8702 32.6835 79.0249 32.8543C79.1828 33.0251 79.4148 33.1105 79.721 33.1105C80.0916 33.1105 80.4734 32.9752 80.8666 32.7045L80.7699 29.05H81.8769L81.7609 32.7045L81.9397 33.9807V34H80.9101L80.8908 33.2266L80.6587 33.4248ZM84.9223 29.8234C84.6903 29.8234 84.5082 29.8686 84.3761 29.9588C84.2472 30.0458 84.1827 30.1618 84.1827 30.3068C84.1827 30.4551 84.2375 30.5888 84.3471 30.7081C84.4566 30.8241 84.6452 30.9417 84.9126 31.0609L85.4202 31.2881C85.8263 31.475 86.1179 31.6716 86.2952 31.8779C86.4756 32.0841 86.5659 32.3387 86.5659 32.6417C86.5659 33.0606 86.4192 33.4086 86.126 33.6858C85.8359 33.9597 85.4154 34.0967 84.8643 34.0967C84.3165 34.0967 83.8476 33.9823 83.4576 33.7535L83.2691 32.6755H83.2884C83.5914 32.9011 83.8717 33.0735 84.1295 33.1927C84.3906 33.3087 84.6613 33.3667 84.9417 33.3667C85.1543 33.3667 85.3187 33.3136 85.4347 33.2072C85.554 33.1009 85.6136 32.9559 85.6136 32.7722C85.6136 32.6046 85.5572 32.4628 85.4444 32.3468C85.3316 32.2275 85.164 32.1212 84.9417 32.0277L84.2891 31.7522C83.5769 31.4493 83.2208 30.9804 83.2208 30.3455C83.2208 29.9233 83.3787 29.5866 83.6945 29.3352C84.0135 29.0806 84.4325 28.9533 84.9513 28.9533C85.4315 28.9533 85.8843 29.0419 86.3097 29.2192L86.4885 30.3455H86.4692C86.2404 30.1747 85.989 30.0458 85.7151 29.9588C85.4412 29.8686 85.1769 29.8234 84.9223 29.8234ZM90.201 26.575H91.3128L91.0808 31.7909H90.4282L90.201 26.575ZM90.7569 34.0967C90.5829 34.0967 90.4347 34.0419 90.3122 33.9323C90.193 33.8228 90.1333 33.6777 90.1333 33.4973C90.1333 33.3007 90.193 33.1476 90.3122 33.038C90.4314 32.9285 90.5797 32.8737 90.7569 32.8737C90.9374 32.8737 91.0873 32.9285 91.2065 33.038C91.329 33.1476 91.3902 33.3007 91.3902 33.4973C91.3902 33.6777 91.329 33.8228 91.2065 33.9323C91.084 34.0419 90.9342 34.0967 90.7569 34.0967Z" fill="black"/>
<path d="M39.9215 54.6116C40.136 55.1205 39.8973 55.707 39.3884 55.9215L31.0951 59.4173C30.5862 59.6319 29.9997 59.3932 29.7852 58.8843C29.5707 58.3754 29.8093 57.7889 30.3183 57.5744L37.6901 54.4669L34.5827 47.0951C34.3681 46.5862 34.6068 45.9997 35.1157 45.7852C35.6246 45.5707 36.2111 45.8093 36.4256 46.3183L39.9215 54.6116ZM18.012 24L19.0114 24.0351C18.7613 31.1584 22.4843 47.1995 39.3769 54.0738L39 55L38.6231 55.9262C20.6912 48.6291 16.7445 31.6035 17.0126 23.9649L18.012 24Z" fill="black"/>
</svg>
