<svg width="90" height="65" viewBox="0 0 90 65" fill="none" xmlns="http://www.w3.org/2000/svg">
<path d="M31.2939 48.5H34.3838C35.5824 48.5 36.5075 48.7347 37.1592 49.2041C37.8109 49.6689 38.1367 50.2842 38.1367 51.0498C38.1367 51.6331 37.9681 52.1322 37.6309 52.5469C37.2936 52.957 36.8288 53.2282 36.2363 53.3604V53.4971C37.002 53.6292 37.5602 53.9163 37.9111 54.3584C38.2666 54.7959 38.4443 55.3063 38.4443 55.8896C38.4443 56.2861 38.3577 56.6667 38.1846 57.0312C38.016 57.3913 37.7676 57.7217 37.4395 58.0225C37.1113 58.3187 36.6715 58.5557 36.1201 58.7334C35.5687 58.9111 34.9443 59 34.2471 59H31.2939L31.6152 53.4834L31.2939 48.5ZM33.502 53.4834L33.7275 57.3184H34.4727C35.0697 57.3184 35.5299 57.1634 35.8535 56.8535C36.1816 56.5391 36.3457 56.1061 36.3457 55.5547C36.3457 55.2129 36.2591 54.9189 36.0859 54.6729C35.9128 54.4222 35.7054 54.2376 35.4639 54.1191C35.2223 54.0007 34.9512 53.9186 34.6504 53.873V53.0664C35.1107 52.9798 35.4639 52.8271 35.71 52.6084C35.9561 52.3896 36.0791 52.0615 36.0791 51.624C36.0791 51.2367 35.931 50.9108 35.6348 50.6465C35.3431 50.3822 34.8896 50.25 34.2744 50.25H33.7139L33.502 53.4834ZM42.4434 53.4834L42.7578 59H40.2354L40.5566 53.4834L40.2354 48.5H43.7217C44.8519 48.5 45.7178 48.7461 46.3193 49.2383C46.9209 49.7305 47.2217 50.3844 47.2217 51.2002C47.2217 51.82 47.0417 52.3646 46.6816 52.834C46.3216 53.2988 45.7633 53.6497 45.0068 53.8867L48.5957 58.8633V59H45.7793L43.3867 54.167V53.5244C43.9837 53.4242 44.4281 53.2327 44.7197 52.9502C45.016 52.6676 45.1641 52.262 45.1641 51.7334C45.1641 51.2822 44.9818 50.9222 44.6172 50.6533C44.2526 50.3844 43.7992 50.25 43.2568 50.25H42.6416L42.4434 53.4834ZM55.2334 55.2197L53.8047 50.7695L52.417 55.2197H55.2334ZM56.4365 59L55.6504 56.5527H52L51.2275 59H48.876V58.8633L53.4697 48.3633H54.6865L59.041 58.8633V59H56.4365ZM63.6826 59.1367H62.459L58.1045 48.6367V48.5H60.709L63.3408 56.7305L65.9727 48.5H68.3242V48.6367L63.6826 59.1367ZM75.6797 58.8359C75.1237 59.0365 74.5358 59.1367 73.916 59.1367C73.2962 59.1367 72.7083 59.0387 72.1523 58.8428C71.5964 58.6423 71.1087 58.3688 70.6895 58.0225C70.2702 57.6715 69.9056 57.2682 69.5957 56.8125C69.2904 56.3568 69.0579 55.8646 68.8984 55.3359C68.7435 54.8027 68.666 54.2604 68.666 53.709C68.666 52.8978 68.8005 52.1572 69.0693 51.4873C69.3382 50.8128 69.7051 50.25 70.1699 49.7988C70.6393 49.3431 71.1953 48.9899 71.8379 48.7393C72.4805 48.4886 73.1732 48.3633 73.916 48.3633C74.6589 48.3633 75.3516 48.4886 75.9941 48.7393C76.6367 48.9899 77.1904 49.3431 77.6553 49.7988C78.1247 50.25 78.4938 50.8128 78.7627 51.4873C79.0316 52.1572 79.166 52.8978 79.166 53.709C79.166 54.2467 79.0863 54.7799 78.9268 55.3086C78.7718 55.8327 78.5394 56.3249 78.2295 56.7852C77.9196 57.2409 77.555 57.6465 77.1357 58.002C76.721 58.3529 76.2357 58.6309 75.6797 58.8359ZM73.916 57.4619C74.513 57.4574 75.0531 57.291 75.5361 56.9629C76.0238 56.6348 76.4043 56.1882 76.6777 55.623C76.9557 55.0579 77.0947 54.4336 77.0947 53.75C77.0856 52.6836 76.7917 51.8337 76.2129 51.2002C75.6387 50.5622 74.873 50.2454 73.916 50.25C72.959 50.2363 72.1888 50.5531 71.6055 51.2002C71.0267 51.8428 70.7373 52.6882 70.7373 53.7363C70.7373 54.7845 71.0381 55.6641 71.6396 56.375C72.2458 57.0859 73.0046 57.4482 73.916 57.4619ZM84.2041 48.5H86.6514L86.1934 55.459H84.6689L84.2041 48.5ZM85.4209 59.1367C85.1019 59.1367 84.8262 59.0273 84.5938 58.8086C84.3613 58.5853 84.2451 58.2936 84.2451 57.9336C84.2451 57.569 84.359 57.2773 84.5869 57.0586C84.8193 56.8398 85.0973 56.7305 85.4209 56.7305C85.7536 56.7305 86.0339 56.8398 86.2617 57.0586C86.4941 57.2728 86.6104 57.5645 86.6104 57.9336C86.6104 58.2936 86.4941 58.5853 86.2617 58.8086C86.0339 59.0273 85.7536 59.1367 85.4209 59.1367Z" fill="black"/>
<path d="M88.9107 7.41308C89.1388 6.91011 88.916 6.31744 88.4131 6.0893L80.2168 2.37162C79.7138 2.14348 79.1212 2.36627 78.893 2.86924C78.6649 3.3722 78.8877 3.96488 79.3907 4.19301L86.6762 7.49762L83.3716 14.7832C83.1435 15.2862 83.3663 15.8788 83.8692 16.107C84.3722 16.3351 84.9649 16.1123 85.193 15.6093L88.9107 7.41308ZM66.0126 37L67.0119 36.962C66.752 30.1251 70.6187 14.6021 88.3519 7.93605L88 7L87.6481 6.06395C68.8985 13.1121 64.7302 29.5892 65.0133 37.038L66.0126 37Z" fill="black"/>
<path d="M7.00391 11.5649C6.79121 11.6938 6.48345 11.8147 6.08062 11.9275C5.68101 12.0403 5.27656 12.0967 4.86729 12.0967C4.32266 12.0967 3.8167 12.0097 3.34942 11.8356C2.88213 11.6616 2.47446 11.4135 2.12642 11.0912C1.78159 10.7689 1.50928 10.3645 1.30947 9.87788C1.11289 9.39126 1.0146 8.85146 1.0146 8.2585C1.0146 7.08223 1.36587 6.15894 2.06841 5.48862C2.77095 4.81509 3.72324 4.47832 4.92529 4.47832C5.64395 4.47832 6.35938 4.59272 7.07158 4.82153L7.26978 6.22822H7.25044C6.88628 5.97041 6.50762 5.77705 6.11445 5.64814C5.72129 5.51924 5.25562 5.45479 4.71743 5.45479C4.4854 5.45479 4.25176 5.48218 4.01651 5.53696C3.78447 5.59175 3.54761 5.68682 3.30591 5.82217C3.06743 5.9543 2.85635 6.11865 2.67266 6.31523C2.49219 6.51182 2.34395 6.76641 2.22793 7.079C2.11192 7.3916 2.05391 7.74126 2.05391 8.12798C2.05391 9.07866 2.30044 9.8376 2.79351 10.4048C3.2898 10.972 3.9875 11.2556 4.88662 11.2556C5.63428 11.2556 6.39966 10.9784 7.18276 10.4241H7.2021L7.00391 11.5649ZM12.1424 11.5939C11.7879 11.9291 11.2643 12.0967 10.5714 12.0967C10.1943 12.0967 9.85435 12.0242 9.55142 11.8792C9.25171 11.7341 9.01001 11.5392 8.82632 11.2942C8.64263 11.0493 8.50244 10.7754 8.40576 10.4725C8.30908 10.1695 8.26074 9.85049 8.26074 9.51533C8.26074 9.09961 8.31875 8.72739 8.43477 8.39868C8.554 8.06675 8.71514 7.79766 8.91817 7.59141C9.12119 7.38193 9.35161 7.22402 9.60942 7.11768C9.86724 7.00811 10.1412 6.95332 10.4312 6.95332C11.1466 6.95332 11.6816 7.2063 12.0361 7.71226C12.3938 8.21499 12.5259 8.91753 12.4325 9.81987H9.25171C9.30005 10.3 9.44668 10.6755 9.6916 10.9462C9.93975 11.2137 10.3216 11.3474 10.8373 11.3474C11.2562 11.3474 11.7187 11.1992 12.2246 10.9027H12.2439L12.1424 11.5939ZM9.25171 9.32681L11.5382 9.03193C11.5672 8.68066 11.4866 8.39546 11.2965 8.17632C11.1063 7.95396 10.8115 7.84277 10.4119 7.84277C10.2668 7.84277 10.1283 7.87017 9.99614 7.92495C9.86401 7.97974 9.73994 8.06353 9.62393 8.17632C9.51113 8.28589 9.4209 8.44058 9.35322 8.64038C9.28555 8.83696 9.25171 9.06577 9.25171 9.32681ZM21.4333 5.77383L18.6828 5.2856L18.8617 12H17.6725L17.8514 5.2856L15.1105 5.77383H15.0863L15.2942 4.575H21.2448L21.4527 5.77383H21.4333ZM23.0866 11.3764C23.3669 11.3764 23.694 11.2314 24.0679 10.9414L24.0969 10.0809C23.8584 9.94878 23.5813 9.88271 23.2654 9.88271C22.9625 9.88271 22.7224 9.94878 22.5452 10.0809C22.3711 10.213 22.2841 10.3967 22.2841 10.632C22.2841 10.8543 22.3566 11.0348 22.5017 11.1734C22.6499 11.3087 22.8449 11.3764 23.0866 11.3764ZM24.0389 12L24.0485 11.5359C23.549 11.9098 23.1269 12.0967 22.782 12.0967C22.3212 12.0967 21.9603 11.9646 21.6992 11.7003C21.4382 11.436 21.3077 11.1041 21.3077 10.7045C21.3077 10.4628 21.3528 10.2501 21.443 10.0664C21.5333 9.88271 21.6509 9.73608 21.7959 9.62651C21.9409 9.51372 22.1149 9.42188 22.318 9.35098C22.5242 9.28008 22.7305 9.23174 22.9367 9.20596C23.143 9.18018 23.3653 9.16729 23.6038 9.16729C23.694 9.16729 23.8648 9.17373 24.1162 9.18662L24.1259 8.93042C24.1323 8.69839 24.1114 8.50503 24.063 8.35034C24.0179 8.19565 23.9454 8.08125 23.8455 8.00713C23.7456 7.92979 23.6393 7.87661 23.5265 7.84761C23.4169 7.8186 23.2832 7.8041 23.1252 7.8041C22.687 7.8041 22.1601 7.94268 21.5445 8.21982H21.5252L21.7137 7.05967C22.3873 6.98877 22.9045 6.95332 23.2654 6.95332C23.8326 6.95332 24.2645 7.11445 24.5609 7.43672C24.8606 7.75576 25.0202 8.20049 25.0395 8.7709L25.1459 12H24.0389ZM28.6988 7.93945C28.3701 7.92979 28.0043 8.06514 27.6015 8.34551L27.6982 12H26.5912L26.7072 8.34551L26.5284 7.06934V7.05H27.558L27.5773 7.81377L27.7659 7.65425C28.3202 7.18696 28.8132 6.95332 29.2451 6.95332C29.693 6.95332 30.0346 7.11445 30.2699 7.43672C30.5084 7.75576 30.6373 8.20049 30.6566 8.7709L30.7678 12H29.6608L29.7478 9.09961C29.7607 8.65166 29.6753 8.34551 29.4916 8.18115C29.3079 8.01357 29.0437 7.93301 28.6988 7.93945ZM34.4126 11.3474C34.7413 11.3474 35.0749 11.2314 35.4132 10.9994L35.4422 8.12798C35.1458 7.94429 34.8058 7.85244 34.4223 7.85244C34.1838 7.85244 33.9711 7.89917 33.7842 7.99263C33.5973 8.08286 33.4474 8.20693 33.3346 8.36484C33.2218 8.52275 33.1364 8.7 33.0784 8.89658C33.0236 9.08994 32.9962 9.29619 32.9962 9.51533C32.9962 10.1051 33.1171 10.5579 33.3588 10.8737C33.6037 11.1895 33.955 11.3474 34.4126 11.3474ZM34.1757 14.5717C33.731 14.5717 33.2267 14.5104 32.6627 14.388L32.363 13.2278H32.4017C32.7078 13.3664 32.935 13.4663 33.0833 13.5275C33.2347 13.5888 33.4152 13.6484 33.6247 13.7064C33.8374 13.7644 34.0275 13.7934 34.1951 13.7934C34.6011 13.7934 34.8992 13.6629 35.0894 13.4019C35.2827 13.1408 35.3842 12.7332 35.3939 12.1789L35.4036 11.5553C34.9492 11.9162 34.5141 12.0967 34.0984 12.0967C33.6698 12.0967 33.2927 11.9758 32.9672 11.7341C32.645 11.4924 32.4033 11.1782 32.2421 10.7915C32.0842 10.4048 32.0053 9.97617 32.0053 9.50566C32.0053 9.10928 32.0681 8.74834 32.1938 8.42285C32.3227 8.09414 32.4951 7.82505 32.711 7.61558C32.9302 7.40288 33.1832 7.24014 33.47 7.12734C33.7568 7.01133 34.0613 6.95332 34.3836 6.95332C34.7768 6.95332 35.1296 7.02261 35.4422 7.16118L36.3945 7.05H36.4139L36.3027 8.2585L36.3752 11.7631C36.3784 11.9243 36.3752 12.0773 36.3655 12.2224C36.3591 12.3706 36.3381 12.543 36.3027 12.7396C36.2705 12.9362 36.2253 13.115 36.1673 13.2762C36.1093 13.4373 36.0239 13.6 35.9111 13.7644C35.7983 13.932 35.6662 14.0722 35.5147 14.185C35.3665 14.2978 35.1764 14.3896 34.9443 14.4605C34.7155 14.5346 34.4593 14.5717 34.1757 14.5717ZM40.049 8.0023C39.875 8.0023 39.6865 8.04097 39.4834 8.11831C39.2804 8.19565 39.0935 8.29233 38.9227 8.40835L39.0194 12H37.9124L38.0284 8.34551L37.8496 7.06934V7.05H38.8792L38.8985 7.86211L39.1499 7.65425C39.1692 7.63813 39.2127 7.60107 39.2804 7.54307C39.3513 7.48506 39.398 7.44639 39.4206 7.42705C39.4432 7.40772 39.4851 7.37388 39.5463 7.32554C39.6107 7.27397 39.6575 7.23853 39.6865 7.21919C39.7187 7.19985 39.7638 7.17246 39.8218 7.13701C39.8798 7.09834 39.9282 7.07256 39.9668 7.05967C40.0055 7.04355 40.0506 7.02583 40.1022 7.00649C40.157 6.98394 40.2085 6.96943 40.2569 6.96299C40.3052 6.95654 40.3552 6.95332 40.4067 6.95332C40.5775 6.95332 40.7097 6.95977 40.8031 6.97266L41.0013 8.20049H40.982C40.7145 8.06836 40.4035 8.0023 40.049 8.0023ZM43.5247 11.3764C43.805 11.3764 44.1321 11.2314 44.506 10.9414L44.535 10.0809C44.2965 9.94878 44.0193 9.88271 43.7035 9.88271C43.4006 9.88271 43.1605 9.94878 42.9833 10.0809C42.8092 10.213 42.7222 10.3967 42.7222 10.632C42.7222 10.8543 42.7947 11.0348 42.9397 11.1734C43.088 11.3087 43.283 11.3764 43.5247 11.3764ZM44.477 12L44.4866 11.5359C43.9871 11.9098 43.5649 12.0967 43.2201 12.0967C42.7593 12.0967 42.3983 11.9646 42.1373 11.7003C41.8763 11.436 41.7458 11.1041 41.7458 10.7045C41.7458 10.4628 41.7909 10.2501 41.8811 10.0664C41.9713 9.88271 42.089 9.73608 42.234 9.62651C42.379 9.51372 42.553 9.42188 42.7561 9.35098C42.9623 9.28008 43.1686 9.23174 43.3748 9.20596C43.5811 9.18018 43.8034 9.16729 44.0419 9.16729C44.1321 9.16729 44.3029 9.17373 44.5543 9.18662L44.564 8.93042C44.5704 8.69839 44.5495 8.50503 44.5011 8.35034C44.456 8.19565 44.3835 8.08125 44.2836 8.00713C44.1837 7.92979 44.0773 7.87661 43.9646 7.84761C43.855 7.8186 43.7212 7.8041 43.5633 7.8041C43.125 7.8041 42.5981 7.94268 41.9826 8.21982H41.9633L42.1518 7.05967C42.8253 6.98877 43.3426 6.95332 43.7035 6.95332C44.2707 6.95332 44.7025 7.11445 44.999 7.43672C45.2987 7.75576 45.4583 8.20049 45.4776 8.7709L45.5839 12H44.477ZM49.0257 7.94912C48.6938 7.94912 48.3651 8.0748 48.0396 8.32617L48.1363 12H47.0293L47.1453 8.33584L46.9665 7.06934V7.05H47.9961L48.0154 7.8041L48.175 7.66392C48.4328 7.44155 48.6729 7.26753 48.8952 7.14185C49.1208 7.01616 49.3496 6.95332 49.5816 6.95332C50.1843 6.95332 50.5903 7.26914 50.7998 7.90078L51.0657 7.66392C51.3235 7.44155 51.5636 7.26753 51.7859 7.14185C52.0115 7.01616 52.2403 6.95332 52.4724 6.95332C52.901 6.95332 53.2297 7.11445 53.4585 7.43672C53.6873 7.75898 53.8114 8.20049 53.8307 8.76123L53.9371 12H52.8301L52.9171 9.08994C52.9235 8.86113 52.9058 8.671 52.8639 8.51953C52.822 8.36484 52.7527 8.24722 52.6561 8.16665C52.5626 8.08608 52.4579 8.02969 52.3418 7.99746C52.2258 7.96523 52.084 7.94912 51.9165 7.94912C51.5813 7.94912 51.2413 8.07803 50.8965 8.33584C50.9158 8.48086 50.9303 8.62266 50.94 8.76123L51.0367 12H49.9297L50.0264 9.08994C50.0328 8.86113 50.0151 8.671 49.9732 8.51953C49.9313 8.36484 49.862 8.24722 49.7653 8.16665C49.6719 8.08608 49.5671 8.02969 49.4511 7.99746C49.3351 7.96523 49.1933 7.94912 49.0257 7.94912ZM6.11929 27.5939C5.7648 27.9291 5.24111 28.0967 4.54824 28.0967C4.17119 28.0967 3.8312 28.0242 3.52827 27.8792C3.22856 27.7341 2.98687 27.5392 2.80317 27.2942C2.61948 27.0493 2.4793 26.7754 2.38262 26.4725C2.28594 26.1695 2.2376 25.8505 2.2376 25.5153C2.2376 25.0996 2.29561 24.7274 2.41162 24.3987C2.53086 24.0667 2.69199 23.7977 2.89502 23.5914C3.09805 23.3819 3.32847 23.224 3.58628 23.1177C3.84409 23.0081 4.11802 22.9533 4.40806 22.9533C5.12349 22.9533 5.65845 23.2063 6.01294 23.7123C6.37065 24.215 6.50278 24.9175 6.40933 25.8199H3.22856C3.2769 26.3 3.42354 26.6755 3.66846 26.9462C3.9166 27.2137 4.29849 27.3474 4.81411 27.3474C5.23306 27.3474 5.69551 27.1992 6.20147 26.9027H6.2208L6.11929 27.5939ZM3.22856 25.3268L5.51504 25.0319C5.54404 24.6807 5.46348 24.3955 5.27334 24.1763C5.0832 23.954 4.78833 23.8428 4.38872 23.8428C4.2437 23.8428 4.10513 23.8702 3.973 23.925C3.84087 23.9797 3.7168 24.0635 3.60078 24.1763C3.48799 24.2859 3.39775 24.4406 3.33008 24.6404C3.2624 24.837 3.22856 25.0658 3.22856 25.3268ZM9.28071 23.8234C9.04868 23.8234 8.8666 23.8686 8.73447 23.9588C8.60557 24.0458 8.54111 24.1618 8.54111 24.3068C8.54111 24.4551 8.5959 24.5888 8.70547 24.7081C8.81504 24.8241 9.00356 24.9417 9.27105 25.0609L9.77861 25.2881C10.1847 25.475 10.4763 25.6716 10.6536 25.8779C10.834 26.0841 10.9243 26.3387 10.9243 26.6417C10.9243 27.0606 10.7776 27.4086 10.4844 27.6858C10.1943 27.9597 9.77378 28.0967 9.22271 28.0967C8.67485 28.0967 8.20596 27.9823 7.81602 27.7535L7.62749 26.6755H7.64683C7.94976 26.9011 8.23013 27.0735 8.48794 27.1927C8.74897 27.3087 9.01968 27.3667 9.30005 27.3667C9.51274 27.3667 9.6771 27.3136 9.79312 27.2072C9.91235 27.1009 9.97197 26.9559 9.97197 26.7722C9.97197 26.6046 9.91558 26.4628 9.80278 26.3468C9.68999 26.2275 9.52241 26.1212 9.30005 26.0277L8.64746 25.7522C7.93525 25.4493 7.57915 24.9804 7.57915 24.3455C7.57915 23.9233 7.73706 23.5866 8.05288 23.3352C8.37192 23.0806 8.79087 22.9533 9.30972 22.9533C9.78989 22.9533 10.2427 23.0419 10.6681 23.2192L10.8469 24.3455H10.8276C10.5988 24.1747 10.3474 24.0458 10.0735 23.9588C9.79956 23.8686 9.5353 23.8234 9.28071 23.8234ZM13.2397 21.8995H13.3703L13.3799 23.079L14.864 22.9533V23.8621L13.3799 23.7413L13.3896 26.1873C13.3896 26.603 13.4718 26.9011 13.6361 27.0815C13.8037 27.2588 14.0116 27.3474 14.2597 27.3474C14.4692 27.3474 14.6706 27.3007 14.864 27.2072H14.8833L14.7866 27.7535C14.6996 27.8501 14.5691 27.9323 14.3951 28C14.221 28.0645 14.0406 28.0967 13.8537 28.0967C13.4218 28.0967 13.0738 27.9581 12.8095 27.681C12.5453 27.4006 12.418 27.0058 12.4276 26.4966L12.4808 23.6639L11.717 23.6059V23.4851L13.2397 21.8995ZM20.2103 22.9533C20.7099 22.9533 21.1095 23.0323 21.4092 23.1902L21.6074 24.3455H21.588C21.1465 24.0168 20.6776 23.8524 20.1813 23.8524C19.7753 23.8524 19.4401 23.9894 19.1759 24.2633C18.9148 24.5373 18.7843 24.9449 18.7843 25.4863C18.7843 26.0954 18.9181 26.5579 19.1855 26.8737C19.4562 27.1895 19.8204 27.3474 20.278 27.3474C20.5165 27.3474 20.7389 27.3071 20.9451 27.2266C21.1514 27.146 21.3689 27.0348 21.5977 26.893H21.617L21.5155 27.5843C21.3834 27.7164 21.1916 27.8356 20.9403 27.942C20.6921 28.0451 20.4327 28.0967 20.162 28.0967C19.4659 28.0967 18.8987 27.8501 18.4604 27.3571C18.0222 26.8608 17.803 26.2308 17.803 25.467C17.803 25.0609 17.8675 24.6952 17.9964 24.3697C18.1285 24.0442 18.3074 23.7799 18.533 23.5769C18.7585 23.3739 19.0131 23.2192 19.2967 23.1128C19.5835 23.0065 19.8881 22.9533 20.2103 22.9533ZM24.822 22.9533C25.1829 22.9533 25.5116 23.0194 25.8081 23.1515C26.1046 23.2836 26.3479 23.4641 26.538 23.6929C26.7314 23.9185 26.8796 24.1828 26.9828 24.4857C27.0859 24.7854 27.1374 25.1061 27.1374 25.4477C27.1374 25.815 27.0859 26.1583 26.9828 26.4773C26.8796 26.7963 26.733 27.0767 26.5429 27.3184C26.3527 27.5601 26.1094 27.7502 25.8129 27.8888C25.5165 28.0274 25.1861 28.0967 24.822 28.0967C24.3386 28.0967 23.918 27.9758 23.5603 27.7341C23.2058 27.4892 22.9399 27.1702 22.7627 26.777C22.5887 26.3806 22.5017 25.9375 22.5017 25.4477C22.5017 24.9868 22.5903 24.5695 22.7675 24.1957C22.9448 23.8218 23.2106 23.5221 23.5651 23.2965C23.9229 23.0677 24.3418 22.9533 24.822 22.9533ZM23.8262 26.8253C24.055 27.1734 24.3869 27.3474 24.822 27.3474C25.257 27.3474 25.5874 27.1734 25.8129 26.8253C26.0417 26.4773 26.1562 26.0245 26.1562 25.467C26.1562 25.0126 26.0369 24.6307 25.7984 24.3213C25.5632 24.0087 25.2377 23.8524 24.822 23.8524C24.403 23.8524 24.0743 24.0071 23.8358 24.3165C23.6006 24.6259 23.483 25.0094 23.483 25.467C23.483 26.0213 23.5974 26.4741 23.8262 26.8253ZM30.3859 23.9491C30.054 23.9491 29.7252 24.0748 29.3998 24.3262L29.4964 28H28.3895L28.5055 24.3358L28.3266 23.0693V23.05H29.3562L29.3756 23.8041L29.5351 23.6639C29.7929 23.4416 30.033 23.2675 30.2554 23.1418C30.481 23.0162 30.7098 22.9533 30.9418 22.9533C31.5444 22.9533 31.9505 23.2691 32.16 23.9008L32.4258 23.6639C32.6836 23.4416 32.9237 23.2675 33.1461 23.1418C33.3717 23.0162 33.6005 22.9533 33.8325 22.9533C34.2611 22.9533 34.5898 23.1145 34.8187 23.4367C35.0475 23.759 35.1715 24.2005 35.1909 24.7612L35.2972 28H34.1902L34.2772 25.0899C34.2837 24.8611 34.266 24.671 34.2241 24.5195C34.1822 24.3648 34.1129 24.2472 34.0162 24.1667C33.9228 24.0861 33.818 24.0297 33.702 23.9975C33.586 23.9652 33.4442 23.9491 33.2766 23.9491C32.9415 23.9491 32.6015 24.078 32.2566 24.3358C32.276 24.4809 32.2905 24.6227 32.3001 24.7612L32.3968 28H31.2898L31.3865 25.0899C31.393 24.8611 31.3752 24.671 31.3333 24.5195C31.2915 24.3648 31.2222 24.2472 31.1255 24.1667C31.032 24.0861 30.9273 24.0297 30.8113 23.9975C30.6953 23.9652 30.5535 23.9491 30.3859 23.9491ZM38.8599 27.3474C39.2852 27.3474 39.6075 27.1782 39.8267 26.8398C40.0458 26.4982 40.1554 26.0406 40.1554 25.467C40.1457 24.9804 40.0313 24.6082 39.8122 24.3503C39.5962 24.0893 39.2852 23.9588 38.8792 23.9588C38.5634 23.9588 38.2008 24.078 37.7915 24.3165L37.8302 26.98C38.1203 27.225 38.4635 27.3474 38.8599 27.3474ZM38.768 28.0967C38.4651 28.0967 38.1589 28.0548 37.8496 27.971L37.8882 30.475H36.8102L36.9069 24.2488L36.7329 23.0693V23.05H37.7529L37.7819 23.7606C38.0558 23.5189 38.3168 23.3239 38.565 23.1757C38.8164 23.0274 39.0726 22.9533 39.3336 22.9533C39.6397 22.9533 39.9104 23.0258 40.1457 23.1708C40.3842 23.3126 40.5727 23.5028 40.7113 23.7413C40.8498 23.9797 40.953 24.2392 41.0206 24.5195C41.0915 24.7967 41.127 25.0851 41.127 25.3848C41.127 25.5427 41.1173 25.7006 41.098 25.8585C41.0819 26.0132 41.0497 26.1824 41.0013 26.3661C40.9562 26.5466 40.8966 26.7174 40.8225 26.8785C40.7483 27.0396 40.6484 27.1959 40.5227 27.3474C40.4003 27.4989 40.2585 27.6294 40.0974 27.739C39.9394 27.8453 39.7461 27.9323 39.5173 28C39.2917 28.0645 39.0419 28.0967 38.768 28.0967ZM42.3693 28L42.5047 23.8041L42.3693 20.3768H43.4666L43.3361 23.8041L43.4666 28H42.3693ZM48.581 27.5939C48.2265 27.9291 47.7028 28.0967 47.01 28.0967C46.6329 28.0967 46.2929 28.0242 45.99 27.8792C45.6903 27.7341 45.4486 27.5392 45.2649 27.2942C45.0812 27.0493 44.941 26.7754 44.8443 26.4725C44.7477 26.1695 44.6993 25.8505 44.6993 25.5153C44.6993 25.0996 44.7573 24.7274 44.8733 24.3987C44.9926 24.0667 45.1537 23.7977 45.3567 23.5914C45.5598 23.3819 45.7902 23.224 46.048 23.1177C46.3058 23.0081 46.5797 22.9533 46.8698 22.9533C47.5852 22.9533 48.1202 23.2063 48.4747 23.7123C48.8324 24.215 48.9645 24.9175 48.871 25.8199H45.6903C45.7386 26.3 45.8852 26.6755 46.1302 26.9462C46.3783 27.2137 46.7602 27.3474 47.2758 27.3474C47.6948 27.3474 48.1572 27.1992 48.6632 26.9027H48.6825L48.581 27.5939ZM45.6903 25.3268L47.9768 25.0319C48.0058 24.6807 47.9252 24.3955 47.7351 24.1763C47.5449 23.954 47.25 23.8428 46.8504 23.8428C46.7054 23.8428 46.5668 23.8702 46.4347 23.925C46.3026 23.9797 46.1785 24.0635 46.0625 24.1763C45.9497 24.2859 45.8595 24.4406 45.7918 24.6404C45.7241 24.837 45.6903 25.0658 45.6903 25.3268ZM51.1672 21.8995H51.2977L51.3074 23.079L52.7914 22.9533V23.8621L51.3074 23.7413L51.317 26.1873C51.317 26.603 51.3992 26.9011 51.5636 27.0815C51.7312 27.2588 51.939 27.3474 52.1872 27.3474C52.3966 27.3474 52.598 27.3007 52.7914 27.2072H52.8107L52.7141 27.7535C52.6271 27.8501 52.4965 27.9323 52.3225 28C52.1485 28.0645 51.968 28.0967 51.7811 28.0967C51.3493 28.0967 51.0012 27.9581 50.737 27.681C50.4727 27.4006 50.3454 27.0058 50.3551 26.4966L50.4083 23.6639L49.6445 23.6059V23.4851L51.1672 21.8995Z" fill="black"/>
</svg>
