<svg width="111" height="61" viewBox="0 0 111 61" fill="none" xmlns="http://www.w3.org/2000/svg">
<path d="M49.1064 54.3438C48.8193 54.5306 48.3796 54.7106 47.7871 54.8838C47.1947 55.0524 46.6068 55.1367 46.0234 55.1367C45.2715 55.1367 44.5674 55.0114 43.9111 54.7607C43.2549 54.5055 42.6852 54.1478 42.2021 53.6875C41.7191 53.2272 41.3385 52.6553 41.0605 51.9717C40.7871 51.2881 40.6504 50.5339 40.6504 49.709C40.6504 48.0592 41.1517 46.7559 42.1543 45.7988C43.1569 44.8418 44.5081 44.3633 46.208 44.3633C46.9645 44.3633 47.9489 44.4749 49.1611 44.6982L49.4551 47.3438H49.3115C48.3727 46.6146 47.2448 46.25 45.9277 46.25C45.6178 46.25 45.3148 46.2865 45.0186 46.3594C44.7269 46.4323 44.4398 46.5553 44.1572 46.7285C43.8792 46.8971 43.6331 47.1068 43.4189 47.3574C43.2093 47.6035 43.0407 47.918 42.9131 48.3008C42.7855 48.6836 42.7217 49.1097 42.7217 49.5791C42.7217 50.1169 42.7878 50.6136 42.9199 51.0693C43.0566 51.5205 43.2572 51.9238 43.5215 52.2793C43.7904 52.6302 44.1481 52.9059 44.5947 53.1064C45.0413 53.307 45.554 53.4072 46.1328 53.4072C47.263 53.4072 48.2998 53.0973 49.2432 52.4775H49.3867L49.1064 54.3438ZM57.8359 54.8359C57.2799 55.0365 56.6921 55.1367 56.0723 55.1367C55.4525 55.1367 54.8646 55.0387 54.3086 54.8428C53.7526 54.6423 53.265 54.3688 52.8457 54.0225C52.4264 53.6715 52.0618 53.2682 51.752 52.8125C51.4466 52.3568 51.2142 51.8646 51.0547 51.3359C50.8997 50.8027 50.8223 50.2604 50.8223 49.709C50.8223 48.8978 50.9567 48.1572 51.2256 47.4873C51.4945 46.8128 51.8613 46.25 52.3262 45.7988C52.7956 45.3431 53.3516 44.9899 53.9941 44.7393C54.6367 44.4886 55.3294 44.3633 56.0723 44.3633C56.8151 44.3633 57.5078 44.4886 58.1504 44.7393C58.793 44.9899 59.3467 45.3431 59.8115 45.7988C60.2809 46.25 60.6501 46.8128 60.9189 47.4873C61.1878 48.1572 61.3223 48.8978 61.3223 49.709C61.3223 50.2467 61.2425 50.7799 61.083 51.3086C60.9281 51.8327 60.6956 52.3249 60.3857 52.7852C60.0758 53.2409 59.7113 53.6465 59.292 54.002C58.8773 54.3529 58.3919 54.6309 57.8359 54.8359ZM56.0723 53.4619C56.6693 53.4574 57.2093 53.291 57.6924 52.9629C58.18 52.6348 58.5605 52.1882 58.834 51.623C59.112 51.0579 59.251 50.4336 59.251 49.75C59.2419 48.6836 58.9479 47.8337 58.3691 47.2002C57.7949 46.5622 57.0293 46.2454 56.0723 46.25C55.1152 46.2363 54.3451 46.5531 53.7617 47.2002C53.1829 47.8428 52.8936 48.6882 52.8936 49.7363C52.8936 50.7845 53.1943 51.6641 53.7959 52.375C54.402 53.0859 55.1608 53.4482 56.0723 53.4619ZM69.8809 54.8359C69.3249 55.0365 68.737 55.1367 68.1172 55.1367C67.4974 55.1367 66.9095 55.0387 66.3535 54.8428C65.7975 54.6423 65.3099 54.3688 64.8906 54.0225C64.4714 53.6715 64.1068 53.2682 63.7969 52.8125C63.4915 52.3568 63.2591 51.8646 63.0996 51.3359C62.9447 50.8027 62.8672 50.2604 62.8672 49.709C62.8672 48.8978 63.0016 48.1572 63.2705 47.4873C63.5394 46.8128 63.9062 46.25 64.3711 45.7988C64.8405 45.3431 65.3965 44.9899 66.0391 44.7393C66.6816 44.4886 67.3743 44.3633 68.1172 44.3633C68.86 44.3633 69.5527 44.4886 70.1953 44.7393C70.8379 44.9899 71.3916 45.3431 71.8564 45.7988C72.3258 46.25 72.695 46.8128 72.9639 47.4873C73.2327 48.1572 73.3672 48.8978 73.3672 49.709C73.3672 50.2467 73.2874 50.7799 73.1279 51.3086C72.973 51.8327 72.7406 52.3249 72.4307 52.7852C72.1208 53.2409 71.7562 53.6465 71.3369 54.002C70.9222 54.3529 70.4368 54.6309 69.8809 54.8359ZM68.1172 53.4619C68.7142 53.4574 69.2542 53.291 69.7373 52.9629C70.2249 52.6348 70.6055 52.1882 70.8789 51.623C71.1569 51.0579 71.2959 50.4336 71.2959 49.75C71.2868 48.6836 70.9928 47.8337 70.4141 47.2002C69.8398 46.5622 69.0742 46.2454 68.1172 46.25C67.1602 46.2363 66.39 46.5531 65.8066 47.2002C65.2279 47.8428 64.9385 48.6882 64.9385 49.7363C64.9385 50.7845 65.2393 51.6641 65.8408 52.375C66.4469 53.0859 67.2057 53.4482 68.1172 53.4619ZM75.2744 55L75.5957 49.4834L75.2744 44.5H77.7354L77.4004 53.7285L81.543 52.5391H81.6865L81.4062 55H75.2744ZM86.4854 44.5H88.9326L88.4746 51.459H86.9502L86.4854 44.5ZM87.7021 55.1367C87.3831 55.1367 87.1074 55.0273 86.875 54.8086C86.6426 54.5853 86.5264 54.2936 86.5264 53.9336C86.5264 53.569 86.6403 53.2773 86.8682 53.0586C87.1006 52.8398 87.3786 52.7305 87.7021 52.7305C88.0348 52.7305 88.3151 52.8398 88.543 53.0586C88.7754 53.2728 88.8916 53.5645 88.8916 53.9336C88.8916 54.2936 88.7754 54.5853 88.543 54.8086C88.3151 55.0273 88.0348 55.1367 87.7021 55.1367Z" fill="black"/>
<path d="M79.9107 5.41308C80.1388 4.91011 79.916 4.31744 79.4131 4.0893L71.2168 0.371618C70.7138 0.143483 70.1212 0.366275 69.893 0.869239C69.6649 1.3722 69.8877 1.96488 70.3907 2.19301L77.6762 5.49762L74.3716 12.7832C74.1435 13.2862 74.3663 13.8788 74.8692 14.107C75.3722 14.3351 75.9649 14.1123 76.193 13.6093L79.9107 5.41308ZM57.0126 35L58.0119 34.962C57.752 28.1251 61.6187 12.6021 79.3519 5.93605L79 5L78.6481 4.06395C59.8985 11.1121 55.7302 27.5892 56.0133 35.038L57.0126 35Z" fill="black"/>
<path d="M10.1244 10.7738L7.37383 10.2856L7.55269 17H6.36353L6.54238 10.2856L3.80151 10.7738H3.77734L3.98521 9.575H9.93584L10.1437 10.7738H10.1244ZM11.7776 16.3764C12.058 16.3764 12.3851 16.2314 12.7589 15.9414L12.7879 15.0809C12.5494 14.9488 12.2723 14.8827 11.9564 14.8827C11.6535 14.8827 11.4134 14.9488 11.2362 15.0809C11.0622 15.213 10.9751 15.3967 10.9751 15.632C10.9751 15.8543 11.0477 16.0348 11.1927 16.1734C11.3409 16.3087 11.5359 16.3764 11.7776 16.3764ZM12.7299 17L12.7396 16.5359C12.24 16.9098 11.8179 17.0967 11.473 17.0967C11.0122 17.0967 10.6513 16.9646 10.3902 16.7003C10.1292 16.436 9.99868 16.1041 9.99868 15.7045C9.99868 15.4628 10.0438 15.2501 10.134 15.0664C10.2243 14.8827 10.3419 14.7361 10.4869 14.6265C10.6319 14.5137 10.806 14.4219 11.009 14.351C11.2152 14.2801 11.4215 14.2317 11.6277 14.206C11.834 14.1802 12.0563 14.1673 12.2948 14.1673C12.3851 14.1673 12.5559 14.1737 12.8072 14.1866L12.8169 13.9304C12.8233 13.6984 12.8024 13.505 12.7541 13.3503C12.7089 13.1957 12.6364 13.0813 12.5365 13.0071C12.4366 12.9298 12.3303 12.8766 12.2175 12.8476C12.1079 12.8186 11.9742 12.8041 11.8163 12.8041C11.378 12.8041 10.8511 12.9427 10.2355 13.2198H10.2162L10.4047 12.0597C11.0783 11.9888 11.5955 11.9533 11.9564 11.9533C12.5236 11.9533 12.9555 12.1145 13.252 12.4367C13.5517 12.7558 13.7112 13.2005 13.7305 13.7709L13.8369 17H12.7299ZM17.3898 12.9395C17.0611 12.9298 16.6954 13.0651 16.2925 13.3455L16.3892 17H15.2822L15.3982 13.3455L15.2194 12.0693V12.05H16.249L16.2684 12.8138L16.4569 12.6542C17.0112 12.187 17.5042 11.9533 17.9361 11.9533C18.384 11.9533 18.7256 12.1145 18.9609 12.4367C19.1994 12.7558 19.3283 13.2005 19.3476 13.7709L19.4588 17H18.3518L18.4388 14.0996C18.4517 13.6517 18.3663 13.3455 18.1826 13.1812C17.9989 13.0136 17.7347 12.933 17.3898 12.9395ZM23.1036 16.3474C23.4323 16.3474 23.7659 16.2314 24.1042 15.9994L24.1333 13.128C23.8368 12.9443 23.4968 12.8524 23.1133 12.8524C22.8748 12.8524 22.6621 12.8992 22.4752 12.9926C22.2883 13.0829 22.1384 13.2069 22.0256 13.3648C21.9128 13.5228 21.8274 13.7 21.7694 13.8966C21.7146 14.0899 21.6873 14.2962 21.6873 14.5153C21.6873 15.1051 21.8081 15.5579 22.0498 15.8737C22.2947 16.1895 22.646 16.3474 23.1036 16.3474ZM22.8667 19.5717C22.422 19.5717 21.9177 19.5104 21.3537 19.388L21.054 18.2278H21.0927C21.3988 18.3664 21.626 18.4663 21.7743 18.5275C21.9257 18.5888 22.1062 18.6484 22.3157 18.7064C22.5284 18.7644 22.7185 18.7934 22.8861 18.7934C23.2921 18.7934 23.5902 18.6629 23.7804 18.4019C23.9737 18.1408 24.0752 17.7332 24.0849 17.1789L24.0946 16.5553C23.6402 16.9162 23.2051 17.0967 22.7894 17.0967C22.3608 17.0967 21.9837 16.9758 21.6583 16.7341C21.336 16.4924 21.0943 16.1782 20.9332 15.7915C20.7752 15.4048 20.6963 14.9762 20.6963 14.5057C20.6963 14.1093 20.7591 13.7483 20.8848 13.4229C21.0137 13.0941 21.1861 12.825 21.4021 12.6156C21.6212 12.4029 21.8742 12.2401 22.161 12.1273C22.4478 12.0113 22.7523 11.9533 23.0746 11.9533C23.4678 11.9533 23.8207 12.0226 24.1333 12.1612L25.0855 12.05H25.1049L24.9937 13.2585L25.0662 16.7631C25.0694 16.9243 25.0662 17.0773 25.0565 17.2224C25.0501 17.3706 25.0291 17.543 24.9937 17.7396C24.9615 17.9362 24.9164 18.115 24.8583 18.2762C24.8003 18.4373 24.7149 18.6 24.6021 18.7644C24.4894 18.932 24.3572 19.0722 24.2058 19.185C24.0575 19.2978 23.8674 19.3896 23.6354 19.4605C23.4065 19.5346 23.1503 19.5717 22.8667 19.5717ZM28.74 13.0023C28.566 13.0023 28.3775 13.041 28.1745 13.1183C27.9714 13.1957 27.7845 13.2923 27.6137 13.4083L27.7104 17H26.6034L26.7194 13.3455L26.5406 12.0693V12.05H27.5702L27.5895 12.8621L27.8409 12.6542C27.8603 12.6381 27.9038 12.6011 27.9714 12.5431C28.0423 12.4851 28.0891 12.4464 28.1116 12.4271C28.1342 12.4077 28.1761 12.3739 28.2373 12.3255C28.3018 12.274 28.3485 12.2385 28.3775 12.2192C28.4097 12.1999 28.4548 12.1725 28.5128 12.137C28.5708 12.0983 28.6192 12.0726 28.6579 12.0597C28.6965 12.0436 28.7416 12.0258 28.7932 12.0065C28.848 11.9839 28.8996 11.9694 28.9479 11.963C28.9962 11.9565 29.0462 11.9533 29.0978 11.9533C29.2686 11.9533 29.4007 11.9598 29.4941 11.9727L29.6923 13.2005H29.673C29.4055 13.0684 29.0945 13.0023 28.74 13.0023ZM32.2157 16.3764C32.496 16.3764 32.8231 16.2314 33.197 15.9414L33.226 15.0809C32.9875 14.9488 32.7103 14.8827 32.3945 14.8827C32.0916 14.8827 31.8515 14.9488 31.6743 15.0809C31.5002 15.213 31.4132 15.3967 31.4132 15.632C31.4132 15.8543 31.4857 16.0348 31.6308 16.1734C31.779 16.3087 31.974 16.3764 32.2157 16.3764ZM33.168 17L33.1776 16.5359C32.6781 16.9098 32.256 17.0967 31.9111 17.0967C31.4503 17.0967 31.0894 16.9646 30.8283 16.7003C30.5673 16.436 30.4368 16.1041 30.4368 15.7045C30.4368 15.4628 30.4819 15.2501 30.5721 15.0664C30.6624 14.8827 30.78 14.7361 30.925 14.6265C31.07 14.5137 31.244 14.4219 31.4471 14.351C31.6533 14.2801 31.8596 14.2317 32.0658 14.206C32.2721 14.1802 32.4944 14.1673 32.7329 14.1673C32.8231 14.1673 32.9939 14.1737 33.2453 14.1866L33.255 13.9304C33.2614 13.6984 33.2405 13.505 33.1921 13.3503C33.147 13.1957 33.0745 13.0813 32.9746 13.0071C32.8747 12.9298 32.7684 12.8766 32.6556 12.8476C32.546 12.8186 32.4123 12.8041 32.2543 12.8041C31.8161 12.8041 31.2892 12.9427 30.6736 13.2198H30.6543L30.8428 12.0597C31.5164 11.9888 32.0336 11.9533 32.3945 11.9533C32.9617 11.9533 33.3936 12.1145 33.69 12.4367C33.9897 12.7558 34.1493 13.2005 34.1686 13.7709L34.2749 17H33.168ZM37.7167 12.9491C37.3848 12.9491 37.0561 13.0748 36.7306 13.3262L36.8273 17H35.7203L35.8363 13.3358L35.6575 12.0693V12.05H36.6871L36.7064 12.8041L36.866 12.6639C37.1238 12.4416 37.3639 12.2675 37.5862 12.1418C37.8118 12.0162 38.0406 11.9533 38.2727 11.9533C38.8753 11.9533 39.2813 12.2691 39.4908 12.9008L39.7567 12.6639C40.0145 12.4416 40.2546 12.2675 40.477 12.1418C40.7025 12.0162 40.9313 11.9533 41.1634 11.9533C41.592 11.9533 41.9207 12.1145 42.1495 12.4367C42.3783 12.759 42.5024 13.2005 42.5217 13.7612L42.6281 17H41.5211L41.6081 14.0899C41.6145 13.8611 41.5968 13.671 41.5549 13.5195C41.513 13.3648 41.4437 13.2472 41.3471 13.1667C41.2536 13.0861 41.1489 13.0297 41.0329 12.9975C40.9168 12.9652 40.775 12.9491 40.6075 12.9491C40.2723 12.9491 39.9323 13.078 39.5875 13.3358C39.6068 13.4809 39.6213 13.6227 39.631 13.7612L39.7277 17H38.6207L38.7174 14.0899C38.7238 13.8611 38.7061 13.671 38.6642 13.5195C38.6223 13.3648 38.553 13.2472 38.4563 13.1667C38.3629 13.0861 38.2582 13.0297 38.1421 12.9975C38.0261 12.9652 37.8843 12.9491 37.7167 12.9491ZM3.19727 27.9533C3.69678 27.9533 4.09639 28.0323 4.3961 28.1902L4.59429 29.3455H4.57495C4.13345 29.0168 3.66455 28.8524 3.16826 28.8524C2.76221 28.8524 2.42705 28.9894 2.16279 29.2633C1.90176 29.5373 1.77124 29.9449 1.77124 30.4863C1.77124 31.0954 1.90498 31.5579 2.17246 31.8737C2.44317 32.1895 2.80733 32.3474 3.26494 32.3474C3.50342 32.3474 3.72578 32.3071 3.93203 32.2266C4.13828 32.146 4.35581 32.0348 4.58462 31.893H4.60396L4.50244 32.5843C4.37031 32.7164 4.17857 32.8356 3.9272 32.942C3.67905 33.0451 3.41963 33.0967 3.14893 33.0967C2.45283 33.0967 1.88565 32.8501 1.44737 32.3571C1.00908 31.8608 0.789943 31.2308 0.789943 30.467C0.789943 30.0609 0.854396 29.6952 0.983303 29.3697C1.11543 29.0442 1.29429 28.7799 1.51987 28.5769C1.74546 28.3739 2.00005 28.2192 2.28364 28.1128C2.57046 28.0065 2.875 27.9533 3.19727 27.9533ZM7.80889 27.9533C8.16983 27.9533 8.49854 28.0194 8.79502 28.1515C9.09151 28.2836 9.33482 28.4641 9.52495 28.6929C9.71831 28.9185 9.86655 29.1828 9.96968 29.4857C10.0728 29.7854 10.1244 30.1061 10.1244 30.4477C10.1244 30.815 10.0728 31.1583 9.96968 31.4773C9.86655 31.7963 9.71992 32.0767 9.52979 32.3184C9.33965 32.5601 9.09634 32.7502 8.79986 32.8888C8.50337 33.0274 8.17305 33.0967 7.80889 33.0967C7.32549 33.0967 6.90493 32.9758 6.54722 32.7341C6.19273 32.4892 5.92686 32.1702 5.74961 31.777C5.57559 31.3806 5.48858 30.9375 5.48858 30.4477C5.48858 29.9868 5.5772 29.5695 5.75445 29.1957C5.93169 28.8218 6.19756 28.5221 6.55205 28.2965C6.90977 28.0677 7.32871 27.9533 7.80889 27.9533ZM6.81309 31.8253C7.0419 32.1734 7.37383 32.3474 7.80889 32.3474C8.24395 32.3474 8.57427 32.1734 8.79986 31.8253C9.02866 31.4773 9.14307 31.0245 9.14307 30.467C9.14307 30.0126 9.02383 29.6307 8.78535 29.3213C8.5501 29.0087 8.22461 28.8524 7.80889 28.8524C7.38994 28.8524 7.06123 29.0071 6.82276 29.3165C6.5875 29.6259 6.46987 30.0094 6.46987 30.467C6.46987 31.0213 6.58428 31.4741 6.81309 31.8253ZM13.3728 28.9491C13.0409 28.9491 12.7122 29.0748 12.3867 29.3262L12.4834 33H11.3764L11.4924 29.3358L11.3135 28.0693V28.05H12.3432L12.3625 28.8041L12.522 28.6639C12.7798 28.4416 13.0199 28.2675 13.2423 28.1418C13.4679 28.0162 13.6967 27.9533 13.9287 27.9533C14.5313 27.9533 14.9374 28.2691 15.1469 28.9008L15.4127 28.6639C15.6706 28.4416 15.9106 28.2675 16.133 28.1418C16.3586 28.0162 16.5874 27.9533 16.8194 27.9533C17.248 27.9533 17.5768 28.1145 17.8056 28.4367C18.0344 28.759 18.1584 29.2005 18.1778 29.7612L18.2841 33H17.1771L17.2642 30.0899C17.2706 29.8611 17.2529 29.671 17.211 29.5195C17.1691 29.3648 17.0998 29.2472 17.0031 29.1667C16.9097 29.0861 16.8049 29.0297 16.6889 28.9975C16.5729 28.9652 16.4311 28.9491 16.2635 28.9491C15.9284 28.9491 15.5884 29.078 15.2436 29.3358C15.2629 29.4809 15.2774 29.6227 15.2871 29.7612L15.3837 33H14.2768L14.3734 30.0899C14.3799 29.8611 14.3622 29.671 14.3203 29.5195C14.2784 29.3648 14.2091 29.2472 14.1124 29.1667C14.0189 29.0861 13.9142 29.0297 13.7982 28.9975C13.6822 28.9652 13.5404 28.9491 13.3728 28.9491ZM21.8468 32.3474C22.2722 32.3474 22.5944 32.1782 22.8136 31.8398C23.0327 31.4982 23.1423 31.0406 23.1423 30.467C23.1326 29.9804 23.0182 29.6082 22.7991 29.3503C22.5832 29.0893 22.2722 28.9588 21.8661 28.9588C21.5503 28.9588 21.1877 29.078 20.7785 29.3165L20.8171 31.98C21.1072 32.225 21.4504 32.3474 21.8468 32.3474ZM21.7549 33.0967C21.452 33.0967 21.1459 33.0548 20.8365 32.971L20.8751 35.475H19.7972L19.8938 29.2488L19.7198 28.0693V28.05H20.7398L20.7688 28.7606C21.0427 28.5189 21.3038 28.3239 21.5519 28.1757C21.8033 28.0274 22.0595 27.9533 22.3205 27.9533C22.6267 27.9533 22.8974 28.0258 23.1326 28.1708C23.3711 28.3126 23.5596 28.5028 23.6982 28.7413C23.8368 28.9797 23.9399 29.2392 24.0076 29.5195C24.0785 29.7967 24.1139 30.0851 24.1139 30.3848C24.1139 30.5427 24.1042 30.7006 24.0849 30.8585C24.0688 31.0132 24.0366 31.1824 23.9882 31.3661C23.9431 31.5466 23.8835 31.7174 23.8094 31.8785C23.7353 32.0396 23.6354 32.1959 23.5097 32.3474C23.3872 32.4989 23.2454 32.6294 23.0843 32.739C22.9264 32.8453 22.733 32.9323 22.5042 33C22.2786 33.0645 22.0289 33.0967 21.7549 33.0967ZM25.3563 33L25.4916 28.8041L25.3563 25.3768H26.4536L26.323 28.8041L26.4536 33H25.3563ZM31.5679 32.5939C31.2134 32.9291 30.6897 33.0967 29.9969 33.0967C29.6198 33.0967 29.2798 33.0242 28.9769 32.8792C28.6772 32.7341 28.4355 32.5392 28.2518 32.2942C28.0681 32.0493 27.9279 31.7754 27.8313 31.4725C27.7346 31.1695 27.6862 30.8505 27.6862 30.5153C27.6862 30.0996 27.7442 29.7274 27.8603 29.3987C27.9795 29.0667 28.1406 28.7977 28.3437 28.5914C28.5467 28.3819 28.7771 28.224 29.0349 28.1177C29.2927 28.0081 29.5667 27.9533 29.8567 27.9533C30.5721 27.9533 31.1071 28.2063 31.4616 28.7123C31.8193 29.215 31.9514 29.9175 31.858 30.8199H28.6772C28.7255 31.3 28.8722 31.6755 29.1171 31.9462C29.3652 32.2137 29.7471 32.3474 30.2627 32.3474C30.6817 32.3474 31.1441 32.1992 31.6501 31.9027H31.6694L31.5679 32.5939ZM28.6772 30.3268L30.9637 30.0319C30.9927 29.6807 30.9121 29.3955 30.722 29.1763C30.5318 28.954 30.237 28.8428 29.8374 28.8428C29.6923 28.8428 29.5538 28.8702 29.4216 28.925C29.2895 28.9797 29.1654 29.0635 29.0494 29.1763C28.9366 29.2859 28.8464 29.4406 28.7787 29.6404C28.711 29.837 28.6772 30.0658 28.6772 30.3268ZM34.1541 26.8995H34.2846L34.2943 28.079L35.7783 27.9533V28.8621L34.2943 28.7413L34.304 31.1873C34.304 31.603 34.3861 31.9011 34.5505 32.0815C34.7181 32.2588 34.9259 32.3474 35.1741 32.3474C35.3835 32.3474 35.585 32.3007 35.7783 32.2072H35.7977L35.701 32.7535C35.614 32.8501 35.4834 32.9323 35.3094 33C35.1354 33.0645 34.9549 33.0967 34.768 33.0967C34.3362 33.0967 33.9881 32.9581 33.7239 32.681C33.4596 32.4006 33.3323 32.0058 33.342 31.4966L33.3952 28.6639L32.6314 28.6059V28.4851L34.1541 26.8995ZM39.2201 25.4783H40.448V25.4977L39.2008 27.3974H38.5482L39.2201 25.4783ZM40.6171 32.5939C40.2626 32.9291 39.739 33.0967 39.0461 33.0967C38.669 33.0967 38.3291 33.0242 38.0261 32.8792C37.7264 32.7341 37.4847 32.5392 37.301 32.2942C37.1173 32.0493 36.9772 31.7754 36.8805 31.4725C36.7838 31.1695 36.7355 30.8505 36.7355 30.5153C36.7355 30.0996 36.7935 29.7274 36.9095 29.3987C37.0287 29.0667 37.1898 28.7977 37.3929 28.5914C37.5959 28.3819 37.8263 28.224 38.0841 28.1177C38.3419 28.0081 38.6159 27.9533 38.9059 27.9533C39.6213 27.9533 40.1563 28.2063 40.5108 28.7123C40.8685 29.215 41.0006 29.9175 40.9072 30.8199H37.7264C37.7748 31.3 37.9214 31.6755 38.1663 31.9462C38.4145 32.2137 38.7963 32.3474 39.312 32.3474C39.7309 32.3474 40.1934 32.1992 40.6993 31.9027H40.7187L40.6171 32.5939ZM37.7264 30.3268L40.0129 30.0319C40.0419 29.6807 39.9613 29.3955 39.7712 29.1763C39.5811 28.954 39.2862 28.8428 38.8866 28.8428C38.7416 28.8428 38.603 28.8702 38.4709 28.925C38.3387 28.9797 38.2147 29.0635 38.0986 29.1763C37.9858 29.2859 37.8956 29.4406 37.8279 29.6404C37.7603 29.837 37.7264 30.0658 37.7264 30.3268ZM44.523 25.575H45.6348L45.4028 30.7909H44.7502L44.523 25.575ZM45.0789 33.0967C44.9049 33.0967 44.7566 33.0419 44.6342 32.9323C44.5149 32.8228 44.4553 32.6777 44.4553 32.4973C44.4553 32.3007 44.5149 32.1476 44.6342 32.038C44.7534 31.9285 44.9017 31.8737 45.0789 31.8737C45.2594 31.8737 45.4092 31.9285 45.5285 32.038C45.6509 32.1476 45.7122 32.3007 45.7122 32.4973C45.7122 32.6777 45.6509 32.8228 45.5285 32.9323C45.406 33.0419 45.2562 33.0967 45.0789 33.0967Z" fill="black"/>
</svg>
