<svg width="104" height="60" viewBox="0 0 104 60" fill="none" xmlns="http://www.w3.org/2000/svg">
<path d="M6.41797 48.9893C5.2513 48.251 4.66797 47.2985 4.66797 46.1318C4.66797 45.3525 4.95508 44.6963 5.5293 44.1631C6.10352 43.6299 6.89648 43.3633 7.9082 43.3633C8.79232 43.3633 9.70605 43.4499 10.6494 43.623L10.9297 46.0771H10.7861C10.2666 45.6715 9.79264 45.3776 9.36426 45.1953C8.94043 45.0085 8.51888 44.915 8.09961 44.915C7.74414 44.915 7.4502 45.0107 7.21777 45.2021C6.98535 45.3936 6.86914 45.6374 6.86914 45.9336C6.86914 46.207 6.94661 46.4577 7.10156 46.6855C7.26107 46.9089 7.55729 47.1686 7.99023 47.4648L8.99512 48.1484C9.35514 48.39 9.64909 48.611 9.87695 48.8115C10.1094 49.0075 10.319 49.2262 10.5059 49.4678C10.6973 49.7093 10.8363 49.9691 10.9229 50.2471C11.0094 50.5205 11.0527 50.8281 11.0527 51.1699C11.0527 51.4661 11.014 51.7533 10.9365 52.0312C10.8636 52.3047 10.7406 52.5713 10.5674 52.8311C10.3942 53.0908 10.1823 53.3164 9.93164 53.5078C9.68099 53.6992 9.36426 53.8519 8.98145 53.9658C8.60319 54.0798 8.18392 54.1367 7.72363 54.1367C7.36816 54.1367 6.89421 54.1048 6.30176 54.041C5.70931 53.9818 5.25358 53.9066 4.93457 53.8154L4.6543 51.2861H4.79785C5.43587 51.8011 5.97363 52.1657 6.41113 52.3799C6.85319 52.5941 7.25879 52.7012 7.62793 52.7012C8.01986 52.7012 8.32747 52.5941 8.55078 52.3799C8.77409 52.1611 8.88574 51.8763 8.88574 51.5254C8.88574 51.1654 8.78548 50.8532 8.58496 50.5889C8.38444 50.32 7.98568 49.9919 7.38867 49.6045L6.41797 48.9893ZM15.6943 51.6895C16.1501 52.2044 16.763 52.4619 17.5332 52.4619C18.3034 52.4619 18.9141 52.1999 19.3652 51.6758C19.821 51.1517 20.0488 50.3678 20.0488 49.3242L19.6455 43.5H22.1475L21.9424 49.3242C21.9424 50.0215 21.8535 50.6572 21.6758 51.2314C21.5026 51.8057 21.2406 52.3115 20.8896 52.749C20.5433 53.1865 20.083 53.5283 19.5088 53.7744C18.9391 54.016 18.2806 54.1367 17.5332 54.1367C16.7858 54.1367 16.125 54.016 15.5508 53.7744C14.9811 53.5329 14.5208 53.1956 14.1699 52.7627C13.819 52.3252 13.5547 51.8193 13.377 51.2451C13.2038 50.6709 13.1172 50.0352 13.1172 49.3379L12.9121 43.5H15.4141L15.0107 49.3379C15.0107 50.3861 15.2386 51.1699 15.6943 51.6895ZM26.5771 48.4834L26.8916 54H24.3691L24.6904 48.4834L24.3691 43.5H27.9512C29.1452 43.5 30.0794 43.7826 30.7539 44.3477C31.4329 44.9128 31.7725 45.6374 31.7725 46.5215C31.7725 47.0182 31.6904 47.474 31.5264 47.8887C31.3623 48.2988 31.1139 48.6657 30.7812 48.9893C30.4531 49.3128 30.0133 49.5703 29.4619 49.7617C28.915 49.9531 28.2816 50.0602 27.5615 50.083V48.8457C28.2588 48.8457 28.792 48.6839 29.1611 48.3604C29.5303 48.0368 29.7148 47.5605 29.7148 46.9316C29.7148 46.3984 29.5098 45.986 29.0996 45.6943C28.694 45.3981 28.0788 45.25 27.2539 45.25H26.7754L26.5771 48.4834ZM33.4473 54L33.7686 48.4834L33.4473 43.5H39.4492L39.7432 45.6123H39.6064L35.8945 44.7168L35.6895 47.9229L39.2305 47.8135L39.0869 49.6318L35.6895 49.0166L35.8945 52.7695L39.6338 51.6484H39.7773L39.4971 54H33.4473ZM43.7764 48.4834L44.0908 54H41.5684L41.8896 48.4834L41.5684 43.5H45.0547C46.1849 43.5 47.0508 43.7461 47.6523 44.2383C48.2539 44.7305 48.5547 45.3844 48.5547 46.2002C48.5547 46.82 48.3747 47.3646 48.0146 47.834C47.6546 48.2988 47.0964 48.6497 46.3398 48.8867L49.9287 53.8633V54H47.1123L44.7197 49.167V48.5244C45.3167 48.4242 45.7611 48.2327 46.0527 47.9502C46.349 47.6676 46.4971 47.262 46.4971 46.7334C46.4971 46.2822 46.3148 45.9222 45.9502 45.6533C45.5856 45.3844 45.1322 45.25 44.5898 45.25H43.9746L43.7764 48.4834ZM54.4199 43.5H56.8672L56.4092 50.459H54.8848L54.4199 43.5ZM55.6367 54.1367C55.3177 54.1367 55.042 54.0273 54.8096 53.8086C54.5771 53.5853 54.4609 53.2936 54.4609 52.9336C54.4609 52.569 54.5749 52.2773 54.8027 52.0586C55.0352 51.8398 55.3132 51.7305 55.6367 51.7305C55.9694 51.7305 56.2497 51.8398 56.4775 52.0586C56.71 52.2728 56.8262 52.5645 56.8262 52.9336C56.8262 53.2936 56.71 53.5853 56.4775 53.8086C56.2497 54.0273 55.9694 54.1367 55.6367 54.1367Z" fill="black"/>
<path d="M19.0694 5.36615C18.8672 4.85221 19.1199 4.27166 19.6339 4.06944L28.0089 0.77412C28.5228 0.571903 29.1034 0.824598 29.3056 1.33853C29.5078 1.85246 29.2551 2.43302 28.7412 2.63523L21.2967 5.56441L24.2259 13.0089C24.4281 13.5228 24.1754 14.1034 23.6615 14.3056C23.1475 14.5078 22.567 14.2551 22.3648 13.7412L19.0694 5.36615ZM38.9891 35L37.9897 34.9672C38.2169 28.0437 34.8305 12.5458 19.6009 5.91691L20 5L20.3991 4.08309C36.6774 11.1685 40.2302 27.6706 39.9886 35.0328L38.9891 35Z" fill="black"/>
<path d="M56.4852 13.5649C56.2725 13.6938 55.9647 13.8147 55.5619 13.9275C55.1623 14.0403 54.7579 14.0967 54.3486 14.0967C53.804 14.0967 53.298 14.0097 52.8307 13.8356C52.3634 13.6616 51.9558 13.4135 51.6077 13.0912C51.2629 12.7689 50.9906 12.3645 50.7908 11.8779C50.5942 11.3913 50.4959 10.8515 50.4959 10.2585C50.4959 9.08223 50.8472 8.15894 51.5497 7.48862C52.2522 6.81509 53.2045 6.47832 54.4066 6.47832C55.1252 6.47832 55.8407 6.59272 56.5529 6.82153L56.7511 8.22822H56.7317C56.3676 7.97041 55.9889 7.77705 55.5958 7.64814C55.2026 7.51924 54.7369 7.45479 54.1987 7.45479C53.9667 7.45479 53.7331 7.48218 53.4978 7.53696C53.2658 7.59175 53.0289 7.68682 52.7872 7.82217C52.5487 7.9543 52.3376 8.11865 52.154 8.31523C51.9735 8.51182 51.8252 8.76641 51.7092 9.079C51.5932 9.3916 51.5352 9.74126 51.5352 10.128C51.5352 11.0787 51.7817 11.8376 52.2748 12.4048C52.7711 12.972 53.4688 13.2556 54.3679 13.2556C55.1156 13.2556 55.881 12.9784 56.6641 12.4241H56.6834L56.4852 13.5649ZM61.6237 13.5939C61.2692 13.9291 60.7456 14.0967 60.0527 14.0967C59.6756 14.0967 59.3356 14.0242 59.0327 13.8792C58.733 13.7341 58.4913 13.5392 58.3076 13.2942C58.1239 13.0493 57.9837 12.7754 57.8871 12.4725C57.7904 12.1695 57.742 11.8505 57.742 11.5153C57.742 11.0996 57.8 10.7274 57.9161 10.3987C58.0353 10.0667 58.1964 9.79766 58.3995 9.59141C58.6025 9.38193 58.8329 9.22402 59.0907 9.11768C59.3485 9.00811 59.6225 8.95332 59.9125 8.95332C60.6279 8.95332 61.1629 9.2063 61.5174 9.71226C61.8751 10.215 62.0072 10.9175 61.9138 11.8199H58.733C58.7813 12.3 58.928 12.6755 59.1729 12.9462C59.421 13.2137 59.8029 13.3474 60.3186 13.3474C60.7375 13.3474 61.2 13.1992 61.7059 12.9027H61.7252L61.6237 13.5939ZM58.733 11.3268L61.0195 11.0319C61.0485 10.6807 60.9679 10.3955 60.7778 10.1763C60.5876 9.95396 60.2928 9.84277 59.8932 9.84277C59.7481 9.84277 59.6096 9.87017 59.4774 9.92495C59.3453 9.97974 59.2212 10.0635 59.1052 10.1763C58.9924 10.2859 58.9022 10.4406 58.8345 10.6404C58.7668 10.837 58.733 11.0658 58.733 11.3268ZM66.1918 7.89951H66.3224L66.332 9.079L67.8161 8.95332V9.86211L66.332 9.74126L66.3417 12.1873C66.3417 12.603 66.4239 12.9011 66.5882 13.0815C66.7558 13.2588 66.9637 13.3474 67.2118 13.3474C67.4213 13.3474 67.6227 13.3007 67.8161 13.2072H67.8354L67.7387 13.7535C67.6517 13.8501 67.5212 13.9323 67.3472 14C67.1731 14.0645 66.9927 14.0967 66.8058 14.0967C66.3739 14.0967 66.0259 13.9581 65.7616 13.681C65.4974 13.4006 65.3701 13.0058 65.3797 12.4966L65.4329 9.66392L64.6691 9.60591V9.48506L66.1918 7.89951ZM70.6053 13.3764C70.8856 13.3764 71.2127 13.2314 71.5866 12.9414L71.6156 12.0809C71.3771 11.9488 71.1 11.8827 70.7841 11.8827C70.4812 11.8827 70.2411 11.9488 70.0639 12.0809C69.8898 12.213 69.8028 12.3967 69.8028 12.632C69.8028 12.8543 69.8753 13.0348 70.0204 13.1734C70.1686 13.3087 70.3636 13.3764 70.6053 13.3764ZM71.5576 14L71.5672 13.5359C71.0677 13.9098 70.6456 14.0967 70.3007 14.0967C69.8399 14.0967 69.479 13.9646 69.2179 13.7003C68.9569 13.436 68.8264 13.1041 68.8264 12.7045C68.8264 12.4628 68.8715 12.2501 68.9617 12.0664C69.052 11.8827 69.1696 11.7361 69.3146 11.6265C69.4596 11.5137 69.6336 11.4219 69.8367 11.351C70.0429 11.2801 70.2492 11.2317 70.4554 11.206C70.6617 11.1802 70.884 11.1673 71.1225 11.1673C71.2127 11.1673 71.3835 11.1737 71.6349 11.1866L71.6446 10.9304C71.651 10.6984 71.6301 10.505 71.5817 10.3503C71.5366 10.1957 71.4641 10.0813 71.3642 10.0071C71.2643 9.92979 71.158 9.87661 71.0452 9.84761C70.9356 9.8186 70.8019 9.8041 70.6439 9.8041C70.2057 9.8041 69.6788 9.94268 69.0632 10.2198H69.0439L69.2324 9.05967C69.906 8.98877 70.4232 8.95332 70.7841 8.95332C71.3513 8.95332 71.7832 9.11445 72.0796 9.43672C72.3793 9.75576 72.5389 10.2005 72.5582 10.7709L72.6646 14H71.5576ZM76.2175 9.93945C75.8888 9.92979 75.523 10.0651 75.1202 10.3455L75.2169 14H74.1099L74.2259 10.3455L74.0471 9.06934V9.05H75.0767L75.096 9.81377L75.2846 9.65425C75.8389 9.18696 76.3319 8.95332 76.7638 8.95332C77.2117 8.95332 77.5533 9.11445 77.7886 9.43672C78.0271 9.75576 78.156 10.2005 78.1753 10.7709L78.2865 14H77.1795L77.2665 11.0996C77.2794 10.6517 77.194 10.3455 77.0103 10.1812C76.8266 10.0136 76.5624 9.93301 76.2175 9.93945ZM81.9313 13.3474C82.26 13.3474 82.5936 13.2314 82.9319 12.9994L82.9609 10.128C82.6645 9.94429 82.3245 9.85244 81.941 9.85244C81.7025 9.85244 81.4898 9.89917 81.3029 9.99263C81.116 10.0829 80.9661 10.2069 80.8533 10.3648C80.7405 10.5228 80.6551 10.7 80.5971 10.8966C80.5423 11.0899 80.5149 11.2962 80.5149 11.5153C80.5149 12.1051 80.6358 12.5579 80.8775 12.8737C81.1224 13.1895 81.4737 13.3474 81.9313 13.3474ZM81.6944 16.5717C81.2497 16.5717 80.7454 16.5104 80.1814 16.388L79.8817 15.2278H79.9204C80.2265 15.3664 80.4537 15.4663 80.602 15.5275C80.7534 15.5888 80.9339 15.6484 81.1434 15.7064C81.3561 15.7644 81.5462 15.7934 81.7138 15.7934C82.1198 15.7934 82.4179 15.6629 82.6081 15.4019C82.8014 15.1408 82.9029 14.7332 82.9126 14.1789L82.9223 13.5553C82.4679 13.9162 82.0328 14.0967 81.6171 14.0967C81.1885 14.0967 80.8114 13.9758 80.4859 13.7341C80.1637 13.4924 79.922 13.1782 79.7608 12.7915C79.6029 12.4048 79.524 11.9762 79.524 11.5057C79.524 11.1093 79.5868 10.7483 79.7125 10.4229C79.8414 10.0941 80.0138 9.82505 80.2297 9.61558C80.4489 9.40288 80.7019 9.24014 80.9887 9.12734C81.2755 9.01133 81.58 8.95332 81.9023 8.95332C82.2955 8.95332 82.6483 9.02261 82.9609 9.16118L83.9132 9.05H83.9326L83.8214 10.2585L83.8939 13.7631C83.8971 13.9243 83.8939 14.0773 83.8842 14.2224C83.8778 14.3706 83.8568 14.543 83.8214 14.7396C83.7892 14.9362 83.744 15.115 83.686 15.2762C83.628 15.4373 83.5426 15.6 83.4298 15.7644C83.317 15.932 83.1849 16.0722 83.0334 16.185C82.8852 16.2978 82.6951 16.3896 82.463 16.4605C82.2342 16.5346 81.978 16.5717 81.6944 16.5717ZM87.5677 10.0023C87.3937 10.0023 87.2052 10.041 87.0021 10.1183C86.7991 10.1957 86.6122 10.2923 86.4414 10.4083L86.5381 14H85.4311L85.5471 10.3455L85.3683 9.06934V9.05H86.3979L86.4172 9.86211L86.6686 9.65425C86.6879 9.63813 86.7314 9.60107 86.7991 9.54307C86.87 9.48506 86.9167 9.44639 86.9393 9.42705C86.9619 9.40772 87.0038 9.37388 87.065 9.32554C87.1294 9.27397 87.1762 9.23853 87.2052 9.21919C87.2374 9.19985 87.2825 9.17246 87.3405 9.13701C87.3985 9.09834 87.4469 9.07256 87.4855 9.05967C87.5242 9.04355 87.5693 9.02583 87.6209 9.00649C87.6757 8.98394 87.7272 8.96943 87.7756 8.96299C87.8239 8.95654 87.8739 8.95332 87.9254 8.95332C88.0962 8.95332 88.2284 8.95977 88.3218 8.97266L88.52 10.2005H88.5007C88.2332 10.0684 87.9222 10.0023 87.5677 10.0023ZM91.0434 13.3764C91.3237 13.3764 91.6508 13.2314 92.0247 12.9414L92.0537 12.0809C91.8152 11.9488 91.538 11.8827 91.2222 11.8827C90.9193 11.8827 90.6792 11.9488 90.502 12.0809C90.3279 12.213 90.2409 12.3967 90.2409 12.632C90.2409 12.8543 90.3134 13.0348 90.4585 13.1734C90.6067 13.3087 90.8017 13.3764 91.0434 13.3764ZM91.9957 14L92.0053 13.5359C91.5058 13.9098 91.0836 14.0967 90.7388 14.0967C90.278 14.0967 89.917 13.9646 89.656 13.7003C89.395 13.436 89.2645 13.1041 89.2645 12.7045C89.2645 12.4628 89.3096 12.2501 89.3998 12.0664C89.49 11.8827 89.6077 11.7361 89.7527 11.6265C89.8977 11.5137 90.0717 11.4219 90.2748 11.351C90.481 11.2801 90.6873 11.2317 90.8935 11.206C91.0998 11.1802 91.3221 11.1673 91.5606 11.1673C91.6508 11.1673 91.8216 11.1737 92.073 11.1866L92.0827 10.9304C92.0891 10.6984 92.0682 10.505 92.0198 10.3503C91.9747 10.1957 91.9022 10.0813 91.8023 10.0071C91.7024 9.92979 91.596 9.87661 91.4833 9.84761C91.3737 9.8186 91.2399 9.8041 91.082 9.8041C90.6438 9.8041 90.1168 9.94268 89.5013 10.2198H89.482L89.6705 9.05967C90.344 8.98877 90.8613 8.95332 91.2222 8.95332C91.7894 8.95332 92.2212 9.11445 92.5177 9.43672C92.8174 9.75576 92.977 10.2005 92.9963 10.7709L93.1026 14H91.9957ZM96.5444 9.94912C96.2125 9.94912 95.8838 10.0748 95.5583 10.3262L95.655 14H94.548L94.664 10.3358L94.4852 9.06934V9.05H95.5148L95.5341 9.8041L95.6937 9.66392C95.9515 9.44155 96.1916 9.26753 96.4139 9.14185C96.6395 9.01616 96.8683 8.95332 97.1003 8.95332C97.703 8.95332 98.109 9.26914 98.3185 9.90078L98.5844 9.66392C98.8422 9.44155 99.0823 9.26753 99.3046 9.14185C99.5302 9.01616 99.759 8.95332 99.9911 8.95332C100.42 8.95332 100.748 9.11445 100.977 9.43672C101.206 9.75898 101.33 10.2005 101.349 10.7612L101.456 14H100.349L100.436 11.0899C100.442 10.8611 100.425 10.671 100.383 10.5195C100.341 10.3648 100.271 10.2472 100.175 10.1667C100.081 10.0861 99.9766 10.0297 99.8605 9.99746C99.7445 9.96523 99.6027 9.94912 99.4352 9.94912C99.1 9.94912 98.76 10.078 98.4152 10.3358C98.4345 10.4809 98.449 10.6227 98.4587 10.7612L98.5554 14H97.4484L97.5451 11.0899C97.5515 10.8611 97.5338 10.671 97.4919 10.5195C97.45 10.3648 97.3807 10.2472 97.284 10.1667C97.1906 10.0861 97.0858 10.0297 96.9698 9.99746C96.8538 9.96523 96.712 9.94912 96.5444 9.94912ZM52.4972 29.5939C52.1427 29.9291 51.619 30.0967 50.9261 30.0967C50.5491 30.0967 50.2091 30.0242 49.9062 29.8792C49.6064 29.7341 49.3647 29.5392 49.1811 29.2942C48.9974 29.0493 48.8572 28.7754 48.7605 28.4725C48.6638 28.1695 48.6155 27.8505 48.6155 27.5153C48.6155 27.0996 48.6735 26.7274 48.7895 26.3987C48.9087 26.0667 49.0699 25.7977 49.2729 25.5914C49.4759 25.3819 49.7063 25.224 49.9642 25.1177C50.222 25.0081 50.4959 24.9533 50.7859 24.9533C51.5014 24.9533 52.0363 25.2063 52.3908 25.7123C52.7485 26.215 52.8807 26.9175 52.7872 27.8199H49.6064C49.6548 28.3 49.8014 28.6755 50.0463 28.9462C50.2945 29.2137 50.6764 29.3474 51.192 29.3474C51.6109 29.3474 52.0734 29.1992 52.5793 28.9027H52.5987L52.4972 29.5939ZM49.6064 27.3268L51.8929 27.0319C51.9219 26.6807 51.8414 26.3955 51.6512 26.1763C51.4611 25.954 51.1662 25.8428 50.7666 25.8428C50.6216 25.8428 50.483 25.8702 50.3509 25.925C50.2188 25.9797 50.0947 26.0635 49.9787 26.1763C49.8659 26.2859 49.7756 26.4406 49.708 26.6404C49.6403 26.837 49.6064 27.0658 49.6064 27.3268ZM55.6586 25.8234C55.4266 25.8234 55.2445 25.8686 55.1124 25.9588C54.9834 26.0458 54.919 26.1618 54.919 26.3068C54.919 26.4551 54.9738 26.5888 55.0834 26.7081C55.1929 26.8241 55.3814 26.9417 55.6489 27.0609L56.1565 27.2881C56.5626 27.475 56.8542 27.6716 57.0314 27.8779C57.2119 28.0841 57.3021 28.3387 57.3021 28.6417C57.3021 29.0606 57.1555 29.4086 56.8623 29.6858C56.5722 29.9597 56.1517 30.0967 55.6006 30.0967C55.0527 30.0967 54.5838 29.9823 54.1939 29.7535L54.0054 28.6755H54.0247C54.3276 28.9011 54.608 29.0735 54.8658 29.1927C55.1269 29.3087 55.3976 29.3667 55.6779 29.3667C55.8906 29.3667 56.055 29.3136 56.171 29.2072C56.2902 29.1009 56.3499 28.9559 56.3499 28.7722C56.3499 28.6046 56.2935 28.4628 56.1807 28.3468C56.0679 28.2275 55.9003 28.1212 55.6779 28.0277L55.0253 27.7522C54.3131 27.4493 53.957 26.9804 53.957 26.3455C53.957 25.9233 54.1149 25.5866 54.4308 25.3352C54.7498 25.0806 55.1688 24.9533 55.6876 24.9533C56.1678 24.9533 56.6206 25.0419 57.0459 25.2192L57.2248 26.3455H57.2055C56.9767 26.1747 56.7253 26.0458 56.4514 25.9588C56.1774 25.8686 55.9132 25.8234 55.6586 25.8234ZM59.6176 23.8995H59.7481L59.7578 25.079L61.2418 24.9533V25.8621L59.7578 25.7413L59.7675 28.1873C59.7675 28.603 59.8497 28.9011 60.014 29.0815C60.1816 29.2588 60.3895 29.3474 60.6376 29.3474C60.8471 29.3474 61.0485 29.3007 61.2418 29.2072H61.2612L61.1645 29.7535C61.0775 29.8501 60.947 29.9323 60.773 30C60.5989 30.0645 60.4185 30.0967 60.2315 30.0967C59.7997 30.0967 59.4517 29.9581 59.1874 29.681C58.9231 29.4006 58.7959 29.0058 58.8055 28.4966L58.8587 25.6639L58.0949 25.6059V25.4851L59.6176 23.8995ZM65.4087 23.8995H65.5393L65.5489 25.079L67.033 24.9533V25.8621L65.5489 25.7413L65.5586 28.1873C65.5586 28.603 65.6408 28.9011 65.8051 29.0815C65.9727 29.2588 66.1806 29.3474 66.4287 29.3474C66.6382 29.3474 66.8396 29.3007 67.033 29.2072H67.0523L66.9556 29.7535C66.8686 29.8501 66.7381 29.9323 66.5641 30C66.39 30.0645 66.2096 30.0967 66.0227 30.0967C65.5908 30.0967 65.2428 29.9581 64.9785 29.681C64.7143 29.4006 64.587 29.0058 64.5966 28.4966L64.6498 25.6639L63.886 25.6059V25.4851L65.4087 23.8995ZM71.8718 29.5939C71.5173 29.9291 70.9936 30.0967 70.3007 30.0967C69.9237 30.0967 69.5837 30.0242 69.2808 29.8792C68.9811 29.7341 68.7394 29.5392 68.5557 29.2942C68.372 29.0493 68.2318 28.7754 68.1351 28.4725C68.0384 28.1695 67.9901 27.8505 67.9901 27.5153C67.9901 27.0996 68.0481 26.7274 68.1641 26.3987C68.2834 26.0667 68.4445 25.7977 68.6475 25.5914C68.8505 25.3819 69.081 25.224 69.3388 25.1177C69.5966 25.0081 69.8705 24.9533 70.1605 24.9533C70.876 24.9533 71.4109 25.2063 71.7654 25.7123C72.1231 26.215 72.2553 26.9175 72.1618 27.8199H68.9811C69.0294 28.3 69.176 28.6755 69.4209 28.9462C69.6691 29.2137 70.051 29.3474 70.5666 29.3474C70.9855 29.3474 71.448 29.1992 71.954 28.9027H71.9733L71.8718 29.5939ZM68.9811 27.3268L71.2675 27.0319C71.2965 26.6807 71.216 26.3955 71.0258 26.1763C70.8357 25.954 70.5408 25.8428 70.1412 25.8428C69.9962 25.8428 69.8576 25.8702 69.7255 25.925C69.5934 25.9797 69.4693 26.0635 69.3533 26.1763C69.2405 26.2859 69.1502 26.4406 69.0826 26.6404C69.0149 26.837 68.9811 27.0658 68.9811 27.3268ZM75.6278 26.0023C75.4538 26.0023 75.2652 26.041 75.0622 26.1183C74.8592 26.1957 74.6723 26.2923 74.5015 26.4083L74.5981 30H73.4912L73.6072 26.3455L73.4283 25.0693V25.05H74.458L74.4773 25.8621L74.7287 25.6542C74.748 25.6381 74.7915 25.6011 74.8592 25.5431C74.9301 25.4851 74.9768 25.4464 74.9994 25.4271C75.0219 25.4077 75.0638 25.3739 75.125 25.3255C75.1895 25.274 75.2362 25.2385 75.2652 25.2192C75.2975 25.1999 75.3426 25.1725 75.4006 25.137C75.4586 25.0983 75.5069 25.0726 75.5456 25.0597C75.5843 25.0436 75.6294 25.0258 75.681 25.0065C75.7357 24.9839 75.7873 24.9694 75.8356 24.963C75.884 24.9565 75.9339 24.9533 75.9855 24.9533C76.1563 24.9533 76.2884 24.9598 76.3819 24.9727L76.5801 26.2005H76.5607C76.2933 26.0684 75.9823 26.0023 75.6278 26.0023ZM79.5288 25.9491C79.1969 25.9491 78.8682 26.0748 78.5427 26.3262L78.6394 30H77.5324L77.6484 26.3358L77.4695 25.0693V25.05H78.4992L78.5185 25.8041L78.678 25.6639C78.9358 25.4416 79.1759 25.2675 79.3983 25.1418C79.6239 25.0162 79.8527 24.9533 80.0847 24.9533C80.6874 24.9533 81.0934 25.2691 81.3029 25.9008L81.5687 25.6639C81.8266 25.4416 82.0666 25.2675 82.289 25.1418C82.5146 25.0162 82.7434 24.9533 82.9754 24.9533C83.4041 24.9533 83.7328 25.1145 83.9616 25.4367C84.1904 25.759 84.3145 26.2005 84.3338 26.7612L84.4401 30H83.3332L83.4202 27.0899C83.4266 26.8611 83.4089 26.671 83.367 26.5195C83.3251 26.3648 83.2558 26.2472 83.1591 26.1667C83.0657 26.0861 82.9609 26.0297 82.8449 25.9975C82.7289 25.9652 82.5871 25.9491 82.4195 25.9491C82.0844 25.9491 81.7444 26.078 81.3996 26.3358C81.4189 26.4809 81.4334 26.6227 81.4431 26.7612L81.5397 30H80.4328L80.5294 27.0899C80.5359 26.8611 80.5182 26.671 80.4763 26.5195C80.4344 26.3648 80.3651 26.2472 80.2684 26.1667C80.175 26.0861 80.0702 26.0297 79.9542 25.9975C79.8382 25.9652 79.6964 25.9491 79.5288 25.9491ZM86.4172 22.9811C86.5977 22.9811 86.7459 23.0326 86.862 23.1357C86.9812 23.2356 87.0408 23.3726 87.0408 23.5466C87.0408 23.7303 86.9812 23.877 86.862 23.9865C86.7459 24.0961 86.5977 24.1509 86.4172 24.1509C86.2464 24.1509 86.1014 24.0961 85.9822 23.9865C85.8629 23.877 85.8033 23.7303 85.8033 23.5466C85.8033 23.3726 85.8629 23.2356 85.9822 23.1357C86.1014 23.0326 86.2464 22.9811 86.4172 22.9811ZM85.8227 25.05H86.8523V25.0693L86.9925 30H85.8855L86.0015 26.3455L85.8227 25.0693V25.05ZM90.6035 25.9395C90.2748 25.9298 89.909 26.0651 89.5062 26.3455L89.6028 30H88.4959L88.6119 26.3455L88.433 25.0693V25.05H89.4626L89.482 25.8138L89.6705 25.6542C90.2248 25.187 90.7179 24.9533 91.1497 24.9533C91.5977 24.9533 91.9393 25.1145 92.1745 25.4367C92.413 25.7558 92.5419 26.2005 92.5612 26.7709L92.6724 30H91.5654L91.6524 27.0996C91.6653 26.6517 91.5799 26.3455 91.3962 26.1812C91.2125 26.0136 90.9483 25.933 90.6035 25.9395ZM96.3946 22.4783H97.6224V22.4977L96.3752 24.3974H95.7227L96.3946 22.4783ZM97.7916 29.5939C97.4371 29.9291 96.9134 30.0967 96.2206 30.0967C95.8435 30.0967 95.5035 30.0242 95.2006 29.8792C94.9009 29.7341 94.6592 29.5392 94.4755 29.2942C94.2918 29.0493 94.1516 28.7754 94.0549 28.4725C93.9582 28.1695 93.9099 27.8505 93.9099 27.5153C93.9099 27.0996 93.9679 26.7274 94.0839 26.3987C94.2032 26.0667 94.3643 25.7977 94.5673 25.5914C94.7704 25.3819 95.0008 25.224 95.2586 25.1177C95.5164 25.0081 95.7903 24.9533 96.0804 24.9533C96.7958 24.9533 97.3308 25.2063 97.6853 25.7123C98.043 26.215 98.1751 26.9175 98.0816 27.8199H94.9009C94.9492 28.3 95.0958 28.6755 95.3408 28.9462C95.5889 29.2137 95.9708 29.3474 96.4864 29.3474C96.9054 29.3474 97.3678 29.1992 97.8738 28.9027H97.8931L97.7916 29.5939ZM94.9009 27.3268L97.1874 27.0319C97.2164 26.6807 97.1358 26.3955 96.9457 26.1763C96.7555 25.954 96.4606 25.8428 96.061 25.8428C95.916 25.8428 95.7774 25.8702 95.6453 25.925C95.5132 25.9797 95.3891 26.0635 95.2731 26.1763C95.1603 26.2859 95.0701 26.4406 95.0024 26.6404C94.9347 26.837 94.9009 27.0658 94.9009 27.3268ZM101.697 22.575H102.809L102.577 27.7909H101.925L101.697 22.575ZM102.253 30.0967C102.079 30.0967 101.931 30.0419 101.809 29.9323C101.689 29.8228 101.63 29.6777 101.63 29.4973C101.63 29.3007 101.689 29.1476 101.809 29.038C101.928 28.9285 102.076 28.8737 102.253 28.8737C102.434 28.8737 102.584 28.9285 102.703 29.038C102.825 29.1476 102.887 29.3007 102.887 29.4973C102.887 29.6777 102.825 29.8228 102.703 29.9323C102.58 30.0419 102.431 30.0967 102.253 30.0967Z" fill="black"/>
</svg>
