<svg width="135" height="63" viewBox="0 0 135 63" fill="none" xmlns="http://www.w3.org/2000/svg">
<path d="M34.9375 5.36328C35.4069 5.36328 35.9674 5.40202 36.6191 5.47949C37.2754 5.55697 37.7516 5.63444 38.0479 5.71191L38.3418 8.34375H38.2051C37.7995 8.03841 37.3027 7.78092 36.7148 7.57129C36.1315 7.3571 35.4753 7.25 34.7461 7.25C34.2585 7.25 33.8118 7.31152 33.4062 7.43457C33.0007 7.55306 32.6338 7.73991 32.3057 7.99512C31.9821 8.25033 31.7292 8.59896 31.5469 9.04102C31.3646 9.47852 31.2734 9.99121 31.2734 10.5791C31.2734 11.126 31.3486 11.6318 31.499 12.0967C31.654 12.557 31.875 12.9603 32.1621 13.3066C32.4492 13.6484 32.8138 13.9173 33.2559 14.1133C33.6979 14.3092 34.1947 14.4072 34.7461 14.4072C35.1973 14.4072 35.6279 14.3617 36.0381 14.2705C36.4528 14.1794 36.7878 14.0472 37.043 13.874L35.5664 10.9209V10.7773H38.6494L38.3965 15.0225C37.3346 15.7653 36.0837 16.1367 34.6436 16.1367C33.6136 16.1367 32.6908 15.9248 31.875 15.501C31.0592 15.0771 30.4098 14.4505 29.9268 13.6211C29.4437 12.7917 29.2021 11.821 29.2021 10.709C29.2021 9.03646 29.7012 7.72852 30.6992 6.78516C31.7018 5.83724 33.1146 5.36328 34.9375 5.36328ZM43.5303 2.64258H46.2168V2.66992L44.5215 4.52246H42.7168L43.5303 2.64258ZM40.3926 16L40.7139 10.4834L40.3926 5.5H46.3945L46.6885 7.6123H46.5518L42.8398 6.7168L42.6348 9.92285L46.1758 9.81348L46.0322 11.6318L42.6348 11.0166L42.8398 14.7695L46.5791 13.6484H46.7227L46.4424 16H40.3926ZM56.6348 16L50.2637 9.38965L50.8516 16H48.3838L48.6641 5.5H49.1016L55.541 12.2197L55.0488 5.5H57.5166L57.0654 16H56.6348ZM59.6562 16L59.9775 10.4834L59.6562 5.5H62.1787L61.8643 10.4834L62.1787 16H59.6562ZM69.7188 12.2197L68.29 7.76953L66.9023 12.2197H69.7188ZM70.9219 16L70.1357 13.5527H66.4854L65.7129 16H63.3613V15.8633L67.9551 5.36328H69.1719L73.5264 15.8633V16H70.9219ZM74.7227 16L75.0439 10.4834L74.7227 5.5H77.1836L76.8486 14.7285L80.9912 13.5391H81.1348L80.8545 16H74.7227ZM85.9336 5.5H88.3809L87.9229 12.459H86.3984L85.9336 5.5ZM87.1504 16.1367C86.8314 16.1367 86.5557 16.0273 86.3232 15.8086C86.0908 15.5853 85.9746 15.2936 85.9746 14.9336C85.9746 14.569 86.0885 14.2773 86.3164 14.0586C86.5488 13.8398 86.8268 13.7305 87.1504 13.7305C87.4831 13.7305 87.7633 13.8398 87.9912 14.0586C88.2236 14.2728 88.3398 14.5645 88.3398 14.9336C88.3398 15.2936 88.2236 15.5853 87.9912 15.8086C87.7633 16.0273 87.4831 16.1367 87.1504 16.1367Z" fill="black"/>
<path d="M66.6564 58.7646C66.7942 59.2994 66.4723 59.8446 65.9375 59.9824L57.2221 62.2278C56.6873 62.3656 56.142 62.0437 56.0043 61.5089C55.8665 60.974 56.1883 60.4288 56.7231 60.291L64.4702 58.2951L62.4743 50.5481C62.3365 50.0133 62.6584 49.468 63.1932 49.3302C63.728 49.1925 64.2733 49.5143 64.4111 50.0491L66.6564 58.7646ZM50.514 26.9152L51.502 27.0701C50.4289 33.9137 51.8928 49.7096 66.1964 58.1529L65.688 59.014L65.1797 59.8752C49.8911 50.8505 48.3851 34.0376 49.5261 26.7603L50.514 26.9152Z" fill="black"/>
<path d="M67.4713 27.7738L64.7208 27.2856L64.8996 34H63.7104L63.8893 27.2856L61.1484 27.7738H61.1243L61.3321 26.575H67.2828L67.4906 27.7738H67.4713ZM69.1245 33.3764C69.4049 33.3764 69.732 33.2314 70.1058 32.9414L70.1348 32.0809C69.8963 31.9488 69.6192 31.8827 69.3034 31.8827C69.0004 31.8827 68.7604 31.9488 68.5831 32.0809C68.4091 32.213 68.3221 32.3967 68.3221 32.632C68.3221 32.8543 68.3946 33.0348 68.5396 33.1734C68.6878 33.3087 68.8828 33.3764 69.1245 33.3764ZM70.0768 34L70.0865 33.5359C69.587 33.9098 69.1648 34.0967 68.82 34.0967C68.3591 34.0967 67.9982 33.9646 67.7372 33.7003C67.4761 33.436 67.3456 33.1041 67.3456 32.7045C67.3456 32.4628 67.3907 32.2501 67.481 32.0664C67.5712 31.8827 67.6888 31.7361 67.8338 31.6265C67.9789 31.5137 68.1529 31.4219 68.3559 31.351C68.5622 31.2801 68.7684 31.2317 68.9747 31.206C69.1809 31.1802 69.4033 31.1673 69.6417 31.1673C69.732 31.1673 69.9028 31.1737 70.1542 31.1866L70.1638 30.9304C70.1703 30.6984 70.1493 30.505 70.101 30.3503C70.0559 30.1957 69.9833 30.0813 69.8834 30.0071C69.7835 29.9298 69.6772 29.8766 69.5644 29.8476C69.4548 29.8186 69.3211 29.8041 69.1632 29.8041C68.7249 29.8041 68.198 29.9427 67.5825 30.2198H67.5631L67.7517 29.0597C68.4252 28.9888 68.9424 28.9533 69.3034 28.9533C69.8706 28.9533 70.3024 29.1145 70.5989 29.4367C70.8986 29.7558 71.0581 30.2005 71.0774 30.7709L71.1838 34H70.0768ZM74.7368 29.9395C74.4081 29.9298 74.0423 30.0651 73.6395 30.3455L73.7361 34H72.6292L72.7452 30.3455L72.5663 29.0693V29.05H73.5959L73.6153 29.8138L73.8038 29.6542C74.3581 29.187 74.8512 28.9533 75.283 28.9533C75.731 28.9533 76.0726 29.1145 76.3078 29.4367C76.5463 29.7558 76.6752 30.2005 76.6945 30.7709L76.8057 34H75.6987L75.7857 31.0996C75.7986 30.6517 75.7132 30.3455 75.5295 30.1812C75.3458 30.0136 75.0816 29.933 74.7368 29.9395ZM80.4505 33.3474C80.7792 33.3474 81.1128 33.2314 81.4512 32.9994L81.4802 30.128C81.1837 29.9443 80.8437 29.8524 80.4602 29.8524C80.2217 29.8524 80.009 29.8992 79.8221 29.9926C79.6352 30.0829 79.4854 30.2069 79.3726 30.3648C79.2598 30.5228 79.1744 30.7 79.1164 30.8966C79.0616 31.0899 79.0342 31.2962 79.0342 31.5153C79.0342 32.1051 79.155 32.5579 79.3967 32.8737C79.6416 33.1895 79.9929 33.3474 80.4505 33.3474ZM80.2137 36.5717C79.7689 36.5717 79.2646 36.5104 78.7006 36.388L78.4009 35.2278H78.4396C78.7458 35.3664 78.9729 35.4663 79.1212 35.5275C79.2727 35.5888 79.4531 35.6484 79.6626 35.7064C79.8753 35.7644 80.0654 35.7934 80.233 35.7934C80.6391 35.7934 80.9372 35.6629 81.1273 35.4019C81.3207 35.1408 81.4222 34.7332 81.4318 34.1789L81.4415 33.5553C80.9871 33.9162 80.5521 34.0967 80.1363 34.0967C79.7077 34.0967 79.3307 33.9758 79.0052 33.7341C78.6829 33.4924 78.4412 33.1782 78.2801 32.7915C78.1222 32.4048 78.0432 31.9762 78.0432 31.5057C78.0432 31.1093 78.1061 30.7483 78.2317 30.4229C78.3606 30.0941 78.5331 29.825 78.749 29.6156C78.9681 29.4029 79.2211 29.2401 79.5079 29.1273C79.7947 29.0113 80.0993 28.9533 80.4215 28.9533C80.8147 28.9533 81.1676 29.0226 81.4802 29.1612L82.4325 29.05H82.4518L82.3406 30.2585L82.4131 33.7631C82.4164 33.9243 82.4131 34.0773 82.4035 34.2224C82.397 34.3706 82.3761 34.543 82.3406 34.7396C82.3084 34.9362 82.2633 35.115 82.2053 35.2762C82.1473 35.4373 82.0619 35.6 81.9491 35.7644C81.8363 35.932 81.7041 36.0722 81.5527 36.185C81.4044 36.2978 81.2143 36.3896 80.9823 36.4605C80.7535 36.5346 80.4973 36.5717 80.2137 36.5717ZM86.087 30.0023C85.9129 30.0023 85.7244 30.041 85.5214 30.1183C85.3184 30.1957 85.1314 30.2923 84.9606 30.4083L85.0573 34H83.9503L84.0664 30.3455L83.8875 29.0693V29.05H84.9171L84.9365 29.8621L85.1878 29.6542C85.2072 29.6381 85.2507 29.6011 85.3184 29.5431C85.3893 29.4851 85.436 29.4464 85.4585 29.4271C85.4811 29.4077 85.523 29.3739 85.5842 29.3255C85.6487 29.274 85.6954 29.2385 85.7244 29.2192C85.7566 29.1999 85.8018 29.1725 85.8598 29.137C85.9178 29.0983 85.9661 29.0726 86.0048 29.0597C86.0435 29.0436 86.0886 29.0258 86.1401 29.0065C86.1949 28.9839 86.2465 28.9694 86.2948 28.963C86.3432 28.9565 86.3931 28.9533 86.4447 28.9533C86.6155 28.9533 86.7476 28.9598 86.8411 28.9727L87.0393 30.2005H87.0199C86.7524 30.0684 86.4415 30.0023 86.087 30.0023ZM89.5626 33.3764C89.843 33.3764 90.1701 33.2314 90.5439 32.9414L90.5729 32.0809C90.3344 31.9488 90.0573 31.8827 89.7415 31.8827C89.4385 31.8827 89.1984 31.9488 89.0212 32.0809C88.8472 32.213 88.7602 32.3967 88.7602 32.632C88.7602 32.8543 88.8327 33.0348 88.9777 33.1734C89.1259 33.3087 89.3209 33.3764 89.5626 33.3764ZM90.5149 34L90.5246 33.5359C90.025 33.9098 89.6029 34.0967 89.2581 34.0967C88.7972 34.0967 88.4363 33.9646 88.1752 33.7003C87.9142 33.436 87.7837 33.1041 87.7837 32.7045C87.7837 32.4628 87.8288 32.2501 87.919 32.0664C88.0093 31.8827 88.1269 31.7361 88.2719 31.6265C88.4169 31.5137 88.591 31.4219 88.794 31.351C89.0002 31.2801 89.2065 31.2317 89.4127 31.206C89.619 31.1802 89.8414 31.1673 90.0798 31.1673C90.1701 31.1673 90.3409 31.1737 90.5922 31.1866L90.6019 30.9304C90.6083 30.6984 90.5874 30.505 90.5391 30.3503C90.4939 30.1957 90.4214 30.0813 90.3215 30.0071C90.2216 29.9298 90.1153 29.8766 90.0025 29.8476C89.8929 29.8186 89.7592 29.8041 89.6013 29.8041C89.163 29.8041 88.6361 29.9427 88.0206 30.2198H88.0012L88.1897 29.0597C88.8633 28.9888 89.3805 28.9533 89.7415 28.9533C90.3086 28.9533 90.7405 29.1145 91.037 29.4367C91.3367 29.7558 91.4962 30.2005 91.5155 30.7709L91.6219 34H90.5149ZM95.0637 29.9491C94.7317 29.9491 94.403 30.0748 94.0775 30.3262L94.1742 34H93.0672L93.1833 30.3358L93.0044 29.0693V29.05H94.034L94.0534 29.8041L94.2129 29.6639C94.4707 29.4416 94.7108 29.2675 94.9332 29.1418C95.1587 29.0162 95.3875 28.9533 95.6196 28.9533C96.2222 28.9533 96.6283 29.2691 96.8377 29.9008L97.1036 29.6639C97.3614 29.4416 97.6015 29.2675 97.8239 29.1418C98.0495 29.0162 98.2783 28.9533 98.5103 28.9533C98.9389 28.9533 99.2676 29.1145 99.4964 29.4367C99.7252 29.759 99.8493 30.2005 99.8687 30.7612L99.975 34H98.868L98.955 31.0899C98.9615 30.8611 98.9437 30.671 98.9019 30.5195C98.86 30.3648 98.7907 30.2472 98.694 30.1667C98.6005 30.0861 98.4958 30.0297 98.3798 29.9975C98.2638 29.9652 98.122 29.9491 97.9544 29.9491C97.6192 29.9491 97.2792 30.078 96.9344 30.3358C96.9538 30.4809 96.9683 30.6227 96.9779 30.7612L97.0746 34H95.9676L96.0643 31.0899C96.0708 30.8611 96.053 30.671 96.0111 30.5195C95.9692 30.3648 95.8999 30.2472 95.8033 30.1667C95.7098 30.0861 95.6051 30.0297 95.4891 29.9975C95.373 29.9652 95.2312 29.9491 95.0637 29.9491ZM105.312 34.0967H104.804L102.697 29.0693V29.05H103.857L105.22 32.9414L106.39 29.05H107.569V29.0693L105.312 34.0967ZM109.943 33.3764C110.223 33.3764 110.55 33.2314 110.924 32.9414L110.953 32.0809C110.714 31.9488 110.437 31.8827 110.122 31.8827C109.819 31.8827 109.579 31.9488 109.401 32.0809C109.227 32.213 109.14 32.3967 109.14 32.632C109.14 32.8543 109.213 33.0348 109.358 33.1734C109.506 33.3087 109.701 33.3764 109.943 33.3764ZM110.895 34L110.905 33.5359C110.405 33.9098 109.983 34.0967 109.638 34.0967C109.177 34.0967 108.816 33.9646 108.555 33.7003C108.294 33.436 108.164 33.1041 108.164 32.7045C108.164 32.4628 108.209 32.2501 108.299 32.0664C108.389 31.8827 108.507 31.7361 108.652 31.6265C108.797 31.5137 108.971 31.4219 109.174 31.351C109.38 31.2801 109.587 31.2317 109.793 31.206C109.999 31.1802 110.221 31.1673 110.46 31.1673C110.55 31.1673 110.721 31.1737 110.972 31.1866L110.982 30.9304C110.988 30.6984 110.967 30.505 110.919 30.3503C110.874 30.1957 110.802 30.0813 110.702 30.0071C110.602 29.9298 110.495 29.8766 110.383 29.8476C110.273 29.8186 110.139 29.8041 109.981 29.8041C109.543 29.8041 109.016 29.9427 108.401 30.2198H108.381L108.57 29.0597C109.243 28.9888 109.761 28.9533 110.122 28.9533C110.689 28.9533 111.121 29.1145 111.417 29.4367C111.717 29.7558 111.876 30.2005 111.896 30.7709L112.002 34H110.895ZM113.438 34L113.573 29.8041L113.438 26.3768H114.535L114.404 29.8041L114.535 34H113.438ZM116.56 26.9811C116.741 26.9811 116.889 27.0326 117.005 27.1357C117.124 27.2356 117.184 27.3726 117.184 27.5466C117.184 27.7303 117.124 27.877 117.005 27.9865C116.889 28.0961 116.741 28.1509 116.56 28.1509C116.39 28.1509 116.245 28.0961 116.125 27.9865C116.006 27.877 115.946 27.7303 115.946 27.5466C115.946 27.3726 116.006 27.2356 116.125 27.1357C116.245 27.0326 116.39 26.9811 116.56 26.9811ZM115.966 29.05H116.995V29.0693L117.136 34H116.029L116.145 30.3455L115.966 29.0693V29.05ZM120.785 33.3474C121.088 33.3474 121.391 33.2475 121.694 33.0477L121.796 30.1086C121.489 29.9378 121.156 29.8524 120.795 29.8524C120.556 29.8524 120.344 29.8992 120.157 29.9926C119.97 30.0829 119.82 30.2069 119.707 30.3648C119.595 30.5228 119.509 30.7 119.451 30.8966C119.396 31.0899 119.369 31.2962 119.369 31.5153C119.369 32.1051 119.49 32.5579 119.731 32.8737C119.976 33.1895 120.328 33.3474 120.785 33.3474ZM121.694 34L121.684 33.6229C121.249 33.9388 120.845 34.0967 120.471 34.0967C120.042 34.0967 119.665 33.9758 119.34 33.7341C119.018 33.4924 118.776 33.1782 118.615 32.7915C118.457 32.4048 118.378 31.9762 118.378 31.5057C118.378 31.1093 118.441 30.7483 118.567 30.4229C118.695 30.0941 118.868 29.825 119.084 29.6156C119.303 29.4029 119.556 29.2401 119.843 29.1273C120.129 29.0113 120.434 28.9533 120.756 28.9533C121.133 28.9533 121.473 29.0178 121.776 29.1467L121.665 26.3768H122.767L122.637 29.8041L122.767 34H121.694ZM126.489 26.4783H127.717V26.4977L126.47 28.3974H125.817L126.489 26.4783ZM127.886 33.5939C127.532 33.9291 127.008 34.0967 126.315 34.0967C125.938 34.0967 125.598 34.0242 125.295 33.8792C124.996 33.7341 124.754 33.5392 124.57 33.2942C124.387 33.0493 124.246 32.7754 124.15 32.4725C124.053 32.1695 124.005 31.8505 124.005 31.5153C124.005 31.0996 124.063 30.7274 124.179 30.3987C124.298 30.0667 124.459 29.7977 124.662 29.5914C124.865 29.3819 125.096 29.224 125.353 29.1177C125.611 29.0081 125.885 28.9533 126.175 28.9533C126.891 28.9533 127.426 29.2063 127.78 29.7123C128.138 30.215 128.27 30.9175 128.176 31.8199H124.996C125.044 32.3 125.191 32.6755 125.436 32.9462C125.684 33.2137 126.066 33.3474 126.581 33.3474C127 33.3474 127.463 33.1992 127.969 32.9027H127.988L127.886 33.5939ZM124.996 31.3268L127.282 31.0319C127.311 30.6807 127.231 30.3955 127.04 30.1763C126.85 29.954 126.555 29.8428 126.156 29.8428C126.011 29.8428 125.872 29.8702 125.74 29.925C125.608 29.9797 125.484 30.0635 125.368 30.1763C125.255 30.2859 125.165 30.4406 125.097 30.6404C125.03 30.837 124.996 31.0658 124.996 31.3268ZM131.792 26.575H132.904L132.672 31.7909H132.019L131.792 26.575ZM132.348 34.0967C132.174 34.0967 132.026 34.0419 131.903 33.9323C131.784 33.8228 131.725 33.6777 131.725 33.4973C131.725 33.3007 131.784 33.1476 131.903 33.038C132.023 32.9285 132.171 32.8737 132.348 32.8737C132.529 32.8737 132.679 32.9285 132.798 33.038C132.92 33.1476 132.981 33.3007 132.981 33.4973C132.981 33.6777 132.92 33.8228 132.798 33.9323C132.675 34.0419 132.525 34.0967 132.348 34.0967Z" fill="black"/>
</svg>
