<svg width="90" height="63" viewBox="0 0 90 63" fill="none" xmlns="http://www.w3.org/2000/svg">
<path d="M31.2939 46.5H34.3838C35.5824 46.5 36.5075 46.7347 37.1592 47.2041C37.8109 47.6689 38.1367 48.2842 38.1367 49.0498C38.1367 49.6331 37.9681 50.1322 37.6309 50.5469C37.2936 50.957 36.8288 51.2282 36.2363 51.3604V51.4971C37.002 51.6292 37.5602 51.9163 37.9111 52.3584C38.2666 52.7959 38.4443 53.3063 38.4443 53.8896C38.4443 54.2861 38.3577 54.6667 38.1846 55.0312C38.016 55.3913 37.7676 55.7217 37.4395 56.0225C37.1113 56.3187 36.6715 56.5557 36.1201 56.7334C35.5687 56.9111 34.9443 57 34.2471 57H31.2939L31.6152 51.4834L31.2939 46.5ZM33.502 51.4834L33.7275 55.3184H34.4727C35.0697 55.3184 35.5299 55.1634 35.8535 54.8535C36.1816 54.5391 36.3457 54.1061 36.3457 53.5547C36.3457 53.2129 36.2591 52.9189 36.0859 52.6729C35.9128 52.4222 35.7054 52.2376 35.4639 52.1191C35.2223 52.0007 34.9512 51.9186 34.6504 51.873V51.0664C35.1107 50.9798 35.4639 50.8271 35.71 50.6084C35.9561 50.3896 36.0791 50.0615 36.0791 49.624C36.0791 49.2367 35.931 48.9108 35.6348 48.6465C35.3431 48.3822 34.8896 48.25 34.2744 48.25H33.7139L33.502 51.4834ZM42.4434 51.4834L42.7578 57H40.2354L40.5566 51.4834L40.2354 46.5H43.7217C44.8519 46.5 45.7178 46.7461 46.3193 47.2383C46.9209 47.7305 47.2217 48.3844 47.2217 49.2002C47.2217 49.82 47.0417 50.3646 46.6816 50.834C46.3216 51.2988 45.7633 51.6497 45.0068 51.8867L48.5957 56.8633V57H45.7793L43.3867 52.167V51.5244C43.9837 51.4242 44.4281 51.2327 44.7197 50.9502C45.016 50.6676 45.1641 50.262 45.1641 49.7334C45.1641 49.2822 44.9818 48.9222 44.6172 48.6533C44.2526 48.3844 43.7992 48.25 43.2568 48.25H42.6416L42.4434 51.4834ZM55.2334 53.2197L53.8047 48.7695L52.417 53.2197H55.2334ZM56.4365 57L55.6504 54.5527H52L51.2275 57H48.876V56.8633L53.4697 46.3633H54.6865L59.041 56.8633V57H56.4365ZM63.6826 57.1367H62.459L58.1045 46.6367V46.5H60.709L63.3408 54.7305L65.9727 46.5H68.3242V46.6367L63.6826 57.1367ZM75.6797 56.8359C75.1237 57.0365 74.5358 57.1367 73.916 57.1367C73.2962 57.1367 72.7083 57.0387 72.1523 56.8428C71.5964 56.6423 71.1087 56.3688 70.6895 56.0225C70.2702 55.6715 69.9056 55.2682 69.5957 54.8125C69.2904 54.3568 69.0579 53.8646 68.8984 53.3359C68.7435 52.8027 68.666 52.2604 68.666 51.709C68.666 50.8978 68.8005 50.1572 69.0693 49.4873C69.3382 48.8128 69.7051 48.25 70.1699 47.7988C70.6393 47.3431 71.1953 46.9899 71.8379 46.7393C72.4805 46.4886 73.1732 46.3633 73.916 46.3633C74.6589 46.3633 75.3516 46.4886 75.9941 46.7393C76.6367 46.9899 77.1904 47.3431 77.6553 47.7988C78.1247 48.25 78.4938 48.8128 78.7627 49.4873C79.0316 50.1572 79.166 50.8978 79.166 51.709C79.166 52.2467 79.0863 52.7799 78.9268 53.3086C78.7718 53.8327 78.5394 54.3249 78.2295 54.7852C77.9196 55.2409 77.555 55.6465 77.1357 56.002C76.721 56.3529 76.2357 56.6309 75.6797 56.8359ZM73.916 55.4619C74.513 55.4574 75.0531 55.291 75.5361 54.9629C76.0238 54.6348 76.4043 54.1882 76.6777 53.623C76.9557 53.0579 77.0947 52.4336 77.0947 51.75C77.0856 50.6836 76.7917 49.8337 76.2129 49.2002C75.6387 48.5622 74.873 48.2454 73.916 48.25C72.959 48.2363 72.1888 48.5531 71.6055 49.2002C71.0267 49.8428 70.7373 50.6882 70.7373 51.7363C70.7373 52.7845 71.0381 53.6641 71.6396 54.375C72.2458 55.0859 73.0046 55.4482 73.916 55.4619ZM84.2041 46.5H86.6514L86.1934 53.459H84.6689L84.2041 46.5ZM85.4209 57.1367C85.1019 57.1367 84.8262 57.0273 84.5938 56.8086C84.3613 56.5853 84.2451 56.2936 84.2451 55.9336C84.2451 55.569 84.359 55.2773 84.5869 55.0586C84.8193 54.8398 85.0973 54.7305 85.4209 54.7305C85.7536 54.7305 86.0339 54.8398 86.2617 55.0586C86.4941 55.2728 86.6104 55.5645 86.6104 55.9336C86.6104 56.2936 86.4941 56.5853 86.2617 56.8086C86.0339 57.0273 85.7536 57.1367 85.4209 57.1367Z" fill="black"/>
<path d="M88.9107 5.41308C89.1388 4.91011 88.916 4.31744 88.4131 4.0893L80.2168 0.371618C79.7138 0.143483 79.1212 0.366275 78.893 0.869239C78.6649 1.3722 78.8877 1.96488 79.3907 2.19301L86.6762 5.49762L83.3716 12.7832C83.1435 13.2862 83.3663 13.8788 83.8692 14.107C84.3722 14.3351 84.9649 14.1123 85.193 13.6093L88.9107 5.41308ZM66.0126 35L67.0119 34.962C66.752 28.1251 70.6187 12.6021 88.3519 5.93605L88 5L87.6481 4.06395C68.8985 11.1121 64.7302 27.5892 65.0133 35.038L66.0126 35Z" fill="black"/>
<path d="M8.98521 18.5649C8.77251 18.6938 8.46475 18.8147 8.06191 18.9275C7.66231 19.0403 7.25786 19.0967 6.84858 19.0967C6.30396 19.0967 5.798 19.0097 5.33071 18.8356C4.86343 18.6616 4.45576 18.4135 4.10772 18.0912C3.76289 17.7689 3.49058 17.3645 3.29077 16.8779C3.09419 16.3913 2.9959 15.8515 2.9959 15.2585C2.9959 14.0822 3.34717 13.1589 4.04971 12.4886C4.75225 11.8151 5.70454 11.4783 6.90659 11.4783C7.62525 11.4783 8.34067 11.5927 9.05288 11.8215L9.25108 13.2282H9.23174C8.86758 12.9704 8.48892 12.7771 8.09575 12.6481C7.70259 12.5192 7.23692 12.4548 6.69873 12.4548C6.4667 12.4548 6.23306 12.4822 5.9978 12.537C5.76577 12.5917 5.52891 12.6868 5.28721 12.8222C5.04873 12.9543 4.83765 13.1187 4.65396 13.3152C4.47349 13.5118 4.32525 13.7664 4.20923 14.079C4.09321 14.3916 4.03521 14.7413 4.03521 15.128C4.03521 16.0787 4.28174 16.8376 4.77481 17.4048C5.27109 17.972 5.9688 18.2556 6.86792 18.2556C7.61558 18.2556 8.38096 17.9784 9.16406 17.4241H9.1834L8.98521 18.5649ZM14.1237 18.5939C13.7692 18.9291 13.2456 19.0967 12.5527 19.0967C12.1756 19.0967 11.8356 19.0242 11.5327 18.8792C11.233 18.7341 10.9913 18.5392 10.8076 18.2942C10.6239 18.0493 10.4837 17.7754 10.3871 17.4725C10.2904 17.1695 10.242 16.8505 10.242 16.5153C10.242 16.0996 10.3 15.7274 10.4161 15.3987C10.5353 15.0667 10.6964 14.7977 10.8995 14.5914C11.1025 14.3819 11.3329 14.224 11.5907 14.1177C11.8485 14.0081 12.1225 13.9533 12.4125 13.9533C13.1279 13.9533 13.6629 14.2063 14.0174 14.7123C14.3751 15.215 14.5072 15.9175 14.4138 16.8199H11.233C11.2813 17.3 11.428 17.6755 11.6729 17.9462C11.921 18.2137 12.3029 18.3474 12.8186 18.3474C13.2375 18.3474 13.7 18.1992 14.2059 17.9027H14.2252L14.1237 18.5939ZM11.233 16.3268L13.5195 16.0319C13.5485 15.6807 13.4679 15.3955 13.2778 15.1763C13.0876 14.954 12.7928 14.8428 12.3932 14.8428C12.2481 14.8428 12.1096 14.8702 11.9774 14.925C11.8453 14.9797 11.7212 15.0635 11.6052 15.1763C11.4924 15.2859 11.4022 15.4406 11.3345 15.6404C11.2668 15.837 11.233 16.0658 11.233 16.3268ZM18.6918 12.8995H18.8224L18.832 14.079L20.3161 13.9533V14.8621L18.832 14.7413L18.8417 17.1873C18.8417 17.603 18.9239 17.9011 19.0882 18.0815C19.2558 18.2588 19.4637 18.3474 19.7118 18.3474C19.9213 18.3474 20.1227 18.3007 20.3161 18.2072H20.3354L20.2387 18.7535C20.1517 18.8501 20.0212 18.9323 19.8472 19C19.6731 19.0645 19.4927 19.0967 19.3058 19.0967C18.8739 19.0967 18.5259 18.9581 18.2616 18.681C17.9974 18.4006 17.8701 18.0058 17.8797 17.4966L17.9329 14.6639L17.1691 14.6059V14.4851L18.6918 12.8995ZM23.1053 18.3764C23.3856 18.3764 23.7127 18.2314 24.0866 17.9414L24.1156 17.0809C23.8771 16.9488 23.6 16.8827 23.2841 16.8827C22.9812 16.8827 22.7411 16.9488 22.5639 17.0809C22.3898 17.213 22.3028 17.3967 22.3028 17.632C22.3028 17.8543 22.3753 18.0348 22.5204 18.1734C22.6686 18.3087 22.8636 18.3764 23.1053 18.3764ZM24.0576 19L24.0672 18.5359C23.5677 18.9098 23.1456 19.0967 22.8007 19.0967C22.3399 19.0967 21.979 18.9646 21.7179 18.7003C21.4569 18.436 21.3264 18.1041 21.3264 17.7045C21.3264 17.4628 21.3715 17.2501 21.4617 17.0664C21.552 16.8827 21.6696 16.7361 21.8146 16.6265C21.9596 16.5137 22.1336 16.4219 22.3367 16.351C22.5429 16.2801 22.7492 16.2317 22.9554 16.206C23.1617 16.1802 23.384 16.1673 23.6225 16.1673C23.7127 16.1673 23.8835 16.1737 24.1349 16.1866L24.1446 15.9304C24.151 15.6984 24.1301 15.505 24.0817 15.3503C24.0366 15.1957 23.9641 15.0813 23.8642 15.0071C23.7643 14.9298 23.658 14.8766 23.5452 14.8476C23.4356 14.8186 23.3019 14.8041 23.1439 14.8041C22.7057 14.8041 22.1788 14.9427 21.5632 15.2198H21.5439L21.7324 14.0597C22.406 13.9888 22.9232 13.9533 23.2841 13.9533C23.8513 13.9533 24.2832 14.1145 24.5796 14.4367C24.8793 14.7558 25.0389 15.2005 25.0582 15.7709L25.1646 19H24.0576ZM28.7175 14.9395C28.3888 14.9298 28.023 15.0651 27.6202 15.3455L27.7169 19H26.6099L26.7259 15.3455L26.5471 14.0693V14.05H27.5767L27.596 14.8138L27.7846 14.6542C28.3389 14.187 28.8319 13.9533 29.2638 13.9533C29.7117 13.9533 30.0533 14.1145 30.2886 14.4367C30.5271 14.7558 30.656 15.2005 30.6753 15.7709L30.7865 19H29.6795L29.7665 16.0996C29.7794 15.6517 29.694 15.3455 29.5103 15.1812C29.3266 15.0136 29.0624 14.933 28.7175 14.9395ZM34.4313 18.3474C34.76 18.3474 35.0936 18.2314 35.4319 17.9994L35.4609 15.128C35.1645 14.9443 34.8245 14.8524 34.441 14.8524C34.2025 14.8524 33.9898 14.8992 33.8029 14.9926C33.616 15.0829 33.4661 15.2069 33.3533 15.3648C33.2405 15.5228 33.1551 15.7 33.0971 15.8966C33.0423 16.0899 33.0149 16.2962 33.0149 16.5153C33.0149 17.1051 33.1358 17.5579 33.3775 17.8737C33.6224 18.1895 33.9737 18.3474 34.4313 18.3474ZM34.1944 21.5717C33.7497 21.5717 33.2454 21.5104 32.6814 21.388L32.3817 20.2278H32.4204C32.7265 20.3664 32.9537 20.4663 33.102 20.5275C33.2534 20.5888 33.4339 20.6484 33.6434 20.7064C33.8561 20.7644 34.0462 20.7934 34.2138 20.7934C34.6198 20.7934 34.9179 20.6629 35.1081 20.4019C35.3014 20.1408 35.4029 19.7332 35.4126 19.1789L35.4223 18.5553C34.9679 18.9162 34.5328 19.0967 34.1171 19.0967C33.6885 19.0967 33.3114 18.9758 32.9859 18.7341C32.6637 18.4924 32.422 18.1782 32.2608 17.7915C32.1029 17.4048 32.024 16.9762 32.024 16.5057C32.024 16.1093 32.0868 15.7483 32.2125 15.4229C32.3414 15.0941 32.5138 14.825 32.7297 14.6156C32.9489 14.4029 33.2019 14.2401 33.4887 14.1273C33.7755 14.0113 34.08 13.9533 34.4023 13.9533C34.7955 13.9533 35.1483 14.0226 35.4609 14.1612L36.4132 14.05H36.4326L36.3214 15.2585L36.3939 18.7631C36.3971 18.9243 36.3939 19.0773 36.3842 19.2224C36.3778 19.3706 36.3568 19.543 36.3214 19.7396C36.2892 19.9362 36.244 20.115 36.186 20.2762C36.128 20.4373 36.0426 20.6 35.9298 20.7644C35.817 20.932 35.6849 21.0722 35.5334 21.185C35.3852 21.2978 35.1951 21.3896 34.963 21.4605C34.7342 21.5346 34.478 21.5717 34.1944 21.5717ZM40.0677 15.0023C39.8937 15.0023 39.7052 15.041 39.5021 15.1183C39.2991 15.1957 39.1122 15.2923 38.9414 15.4083L39.0381 19H37.9311L38.0471 15.3455L37.8683 14.0693V14.05H38.8979L38.9172 14.8621L39.1686 14.6542C39.1879 14.6381 39.2314 14.6011 39.2991 14.5431C39.37 14.4851 39.4167 14.4464 39.4393 14.4271C39.4619 14.4077 39.5038 14.3739 39.565 14.3255C39.6294 14.274 39.6762 14.2385 39.7052 14.2192C39.7374 14.1999 39.7825 14.1725 39.8405 14.137C39.8985 14.0983 39.9469 14.0726 39.9855 14.0597C40.0242 14.0436 40.0693 14.0258 40.1209 14.0065C40.1757 13.9839 40.2272 13.9694 40.2756 13.963C40.3239 13.9565 40.3739 13.9533 40.4254 13.9533C40.5962 13.9533 40.7284 13.9598 40.8218 13.9727L41.02 15.2005H41.0007C40.7332 15.0684 40.4222 15.0023 40.0677 15.0023ZM43.5434 18.3764C43.8237 18.3764 44.1508 18.2314 44.5247 17.9414L44.5537 17.0809C44.3152 16.9488 44.038 16.8827 43.7222 16.8827C43.4193 16.8827 43.1792 16.9488 43.002 17.0809C42.8279 17.213 42.7409 17.3967 42.7409 17.632C42.7409 17.8543 42.8134 18.0348 42.9585 18.1734C43.1067 18.3087 43.3017 18.3764 43.5434 18.3764ZM44.4957 19L44.5053 18.5359C44.0058 18.9098 43.5836 19.0967 43.2388 19.0967C42.778 19.0967 42.417 18.9646 42.156 18.7003C41.895 18.436 41.7645 18.1041 41.7645 17.7045C41.7645 17.4628 41.8096 17.2501 41.8998 17.0664C41.99 16.8827 42.1077 16.7361 42.2527 16.6265C42.3977 16.5137 42.5717 16.4219 42.7748 16.351C42.981 16.2801 43.1873 16.2317 43.3935 16.206C43.5998 16.1802 43.8221 16.1673 44.0606 16.1673C44.1508 16.1673 44.3216 16.1737 44.573 16.1866L44.5827 15.9304C44.5891 15.6984 44.5682 15.505 44.5198 15.3503C44.4747 15.1957 44.4022 15.0813 44.3023 15.0071C44.2024 14.9298 44.096 14.8766 43.9833 14.8476C43.8737 14.8186 43.7399 14.8041 43.582 14.8041C43.1438 14.8041 42.6168 14.9427 42.0013 15.2198H41.982L42.1705 14.0597C42.844 13.9888 43.3613 13.9533 43.7222 13.9533C44.2894 13.9533 44.7212 14.1145 45.0177 14.4367C45.3174 14.7558 45.477 15.2005 45.4963 15.7709L45.6026 19H44.4957ZM49.0444 14.9491C48.7125 14.9491 48.3838 15.0748 48.0583 15.3262L48.155 19H47.048L47.164 15.3358L46.9852 14.0693V14.05H48.0148L48.0341 14.8041L48.1937 14.6639C48.4515 14.4416 48.6916 14.2675 48.9139 14.1418C49.1395 14.0162 49.3683 13.9533 49.6003 13.9533C50.203 13.9533 50.609 14.2691 50.8185 14.9008L51.0844 14.6639C51.3422 14.4416 51.5823 14.2675 51.8046 14.1418C52.0302 14.0162 52.259 13.9533 52.4911 13.9533C52.9197 13.9533 53.2484 14.1145 53.4772 14.4367C53.706 14.759 53.8301 15.2005 53.8494 15.7612L53.9558 19H52.8488L52.9358 16.0899C52.9422 15.8611 52.9245 15.671 52.8826 15.5195C52.8407 15.3648 52.7714 15.2472 52.6748 15.1667C52.5813 15.0861 52.4766 15.0297 52.3605 14.9975C52.2445 14.9652 52.1027 14.9491 51.9352 14.9491C51.6 14.9491 51.26 15.078 50.9152 15.3358C50.9345 15.4809 50.949 15.6227 50.9587 15.7612L51.0554 19H49.9484L50.0451 16.0899C50.0515 15.8611 50.0338 15.671 49.9919 15.5195C49.95 15.3648 49.8807 15.2472 49.784 15.1667C49.6906 15.0861 49.5858 15.0297 49.4698 14.9975C49.3538 14.9652 49.212 14.9491 49.0444 14.9491ZM4.50894 34.5939C4.15445 34.9291 3.63076 35.0967 2.93789 35.0967C2.56084 35.0967 2.22085 35.0242 1.91792 34.8792C1.61822 34.7341 1.37652 34.5392 1.19282 34.2942C1.00913 34.0493 0.868948 33.7754 0.772268 33.4725C0.675588 33.1695 0.627248 32.8505 0.627248 32.5153C0.627248 32.0996 0.685256 31.7274 0.801272 31.3987C0.92051 31.0667 1.08164 30.7977 1.28467 30.5914C1.4877 30.3819 1.71812 30.224 1.97593 30.1177C2.23374 30.0081 2.50767 29.9533 2.79771 29.9533C3.51314 29.9533 4.0481 30.2063 4.40259 30.7123C4.7603 31.215 4.89243 31.9175 4.79898 32.8199H1.61822C1.66655 33.3 1.81319 33.6755 2.05811 33.9462C2.30625 34.2137 2.68814 34.3474 3.20376 34.3474C3.62271 34.3474 4.08516 34.1992 4.59112 33.9027H4.61045L4.50894 34.5939ZM1.61822 32.3268L3.90469 32.0319C3.93369 31.6807 3.85313 31.3955 3.66299 31.1763C3.47285 30.954 3.17798 30.8428 2.77837 30.8428C2.63335 30.8428 2.49478 30.8702 2.36265 30.925C2.23052 30.9797 2.10645 31.0635 1.99043 31.1763C1.87764 31.2859 1.7874 31.4406 1.71973 31.6404C1.65205 31.837 1.61822 32.0658 1.61822 32.3268ZM7.67036 30.8234C7.43833 30.8234 7.25625 30.8686 7.12412 30.9588C6.99522 31.0458 6.93076 31.1618 6.93076 31.3068C6.93076 31.4551 6.98555 31.5888 7.09512 31.7081C7.20469 31.8241 7.39321 31.9417 7.6607 32.0609L8.16826 32.2881C8.57432 32.475 8.86597 32.6716 9.04321 32.8779C9.22368 33.0841 9.31392 33.3387 9.31392 33.6417C9.31392 34.0606 9.16729 34.4086 8.87403 34.6858C8.58399 34.9597 8.16343 35.0967 7.61236 35.0967C7.0645 35.0967 6.59561 34.9823 6.20567 34.7535L6.01714 33.6755H6.03648C6.33941 33.9011 6.61978 34.0735 6.87759 34.1927C7.13863 34.3087 7.40933 34.3667 7.6897 34.3667C7.90239 34.3667 8.06675 34.3136 8.18277 34.2072C8.302 34.1009 8.36162 33.9559 8.36162 33.7722C8.36162 33.6046 8.30523 33.4628 8.19243 33.3468C8.07964 33.2275 7.91206 33.1212 7.6897 33.0277L7.03711 32.7522C6.3249 32.4493 5.9688 31.9804 5.9688 31.3455C5.9688 30.9233 6.12671 30.5866 6.44253 30.3352C6.76157 30.0806 7.18052 29.9533 7.69937 29.9533C8.17954 29.9533 8.63233 30.0419 9.05772 30.2192L9.23657 31.3455H9.21724C8.98843 31.1747 8.73706 31.0458 8.46314 30.9588C8.18921 30.8686 7.92495 30.8234 7.67036 30.8234ZM11.6294 28.8995H11.7599L11.7696 30.079L13.2536 29.9533V30.8621L11.7696 30.7413L11.7792 33.1873C11.7792 33.603 11.8614 33.9011 12.0258 34.0815C12.1934 34.2588 12.4012 34.3474 12.6494 34.3474C12.8588 34.3474 13.0603 34.3007 13.2536 34.2072H13.273L13.1763 34.7535C13.0893 34.8501 12.9587 34.9323 12.7847 35C12.6107 35.0645 12.4302 35.0967 12.2433 35.0967C11.8115 35.0967 11.4634 34.9581 11.1992 34.681C10.9349 34.4006 10.8076 34.0058 10.8173 33.4966L10.8705 30.6639L10.1067 30.6059V30.4851L11.6294 28.8995ZM18.6 29.9533C19.0995 29.9533 19.4991 30.0323 19.7988 30.1902L19.997 31.3455H19.9777C19.5362 31.0168 19.0673 30.8524 18.571 30.8524C18.1649 30.8524 17.8298 30.9894 17.5655 31.2633C17.3045 31.5373 17.174 31.9449 17.174 32.4863C17.174 33.0954 17.3077 33.5579 17.5752 33.8737C17.8459 34.1895 18.2101 34.3474 18.6677 34.3474C18.9062 34.3474 19.1285 34.3071 19.3348 34.2266C19.541 34.146 19.7585 34.0348 19.9874 33.893H20.0067L19.9052 34.5843C19.773 34.7164 19.5813 34.8356 19.3299 34.942C19.0818 35.0451 18.8224 35.0967 18.5517 35.0967C17.8556 35.0967 17.2884 34.8501 16.8501 34.3571C16.4118 33.8608 16.1927 33.2308 16.1927 32.467C16.1927 32.0609 16.2571 31.6952 16.386 31.3697C16.5182 31.0442 16.697 30.7799 16.9226 30.5769C17.1482 30.3739 17.4028 30.2192 17.6864 30.1128C17.9732 30.0065 18.2777 29.9533 18.6 29.9533ZM23.2116 29.9533C23.5726 29.9533 23.9013 30.0194 24.1978 30.1515C24.4942 30.2836 24.7375 30.4641 24.9277 30.6929C25.121 30.9185 25.2693 31.1828 25.3724 31.4857C25.4755 31.7854 25.5271 32.1061 25.5271 32.4477C25.5271 32.815 25.4755 33.1583 25.3724 33.4773C25.2693 33.7963 25.1227 34.0767 24.9325 34.3184C24.7424 34.5601 24.4991 34.7502 24.2026 34.8888C23.9061 35.0274 23.5758 35.0967 23.2116 35.0967C22.7282 35.0967 22.3077 34.9758 21.95 34.7341C21.5955 34.4892 21.3296 34.1702 21.1523 33.777C20.9783 33.3806 20.8913 32.9375 20.8913 32.4477C20.8913 31.9868 20.9799 31.5695 21.1572 31.1957C21.3344 30.8218 21.6003 30.5221 21.9548 30.2965C22.3125 30.0677 22.7314 29.9533 23.2116 29.9533ZM22.2158 33.8253C22.4446 34.1734 22.7766 34.3474 23.2116 34.3474C23.6467 34.3474 23.977 34.1734 24.2026 33.8253C24.4314 33.4773 24.5458 33.0245 24.5458 32.467C24.5458 32.0126 24.4266 31.6307 24.1881 31.3213C23.9528 31.0087 23.6273 30.8524 23.2116 30.8524C22.7927 30.8524 22.464 31.0071 22.2255 31.3165C21.9902 31.6259 21.8726 32.0094 21.8726 32.467C21.8726 33.0213 21.987 33.4741 22.2158 33.8253ZM28.7755 30.9491C28.4436 30.9491 28.1149 31.0748 27.7894 31.3262L27.8861 35H26.7791L26.8951 31.3358L26.7163 30.0693V30.05H27.7459L27.7652 30.8041L27.9248 30.6639C28.1826 30.4416 28.4227 30.2675 28.645 30.1418C28.8706 30.0162 29.0994 29.9533 29.3314 29.9533C29.9341 29.9533 30.3401 30.2691 30.5496 30.9008L30.8155 30.6639C31.0733 30.4416 31.3134 30.2675 31.5357 30.1418C31.7613 30.0162 31.9901 29.9533 32.2222 29.9533C32.6508 29.9533 32.9795 30.1145 33.2083 30.4367C33.4371 30.759 33.5612 31.2005 33.5805 31.7612L33.6869 35H32.5799L32.6669 32.0899C32.6733 31.8611 32.6556 31.671 32.6137 31.5195C32.5718 31.3648 32.5025 31.2472 32.4059 31.1667C32.3124 31.0861 32.2077 31.0297 32.0917 30.9975C31.9756 30.9652 31.8338 30.9491 31.6663 30.9491C31.3311 30.9491 30.9911 31.078 30.6463 31.3358C30.6656 31.4809 30.6801 31.6227 30.6898 31.7612L30.7865 35H29.6795L29.7762 32.0899C29.7826 31.8611 29.7649 31.671 29.723 31.5195C29.6811 31.3648 29.6118 31.2472 29.5151 31.1667C29.4217 31.0861 29.3169 31.0297 29.2009 30.9975C29.0849 30.9652 28.9431 30.9491 28.7755 30.9491ZM37.2495 34.3474C37.6749 34.3474 37.9972 34.1782 38.2163 33.8398C38.4354 33.4982 38.545 33.0406 38.545 32.467C38.5354 31.9804 38.4209 31.6082 38.2018 31.3503C37.9859 31.0893 37.6749 30.9588 37.2688 30.9588C36.953 30.9588 36.5905 31.078 36.1812 31.3165L36.2199 33.98C36.5099 34.225 36.8531 34.3474 37.2495 34.3474ZM37.1577 35.0967C36.8547 35.0967 36.5486 35.0548 36.2392 34.971L36.2779 37.475H35.1999L35.2966 31.2488L35.1226 30.0693V30.05H36.1425L36.1715 30.7606C36.4455 30.5189 36.7065 30.3239 36.9546 30.1757C37.206 30.0274 37.4622 29.9533 37.7232 29.9533C38.0294 29.9533 38.3001 30.0258 38.5354 30.1708C38.7738 30.3126 38.9624 30.5028 39.1009 30.7413C39.2395 30.9797 39.3426 31.2392 39.4103 31.5195C39.4812 31.7967 39.5166 32.0851 39.5166 32.3848C39.5166 32.5427 39.507 32.7006 39.4876 32.8585C39.4715 33.0132 39.4393 33.1824 39.391 33.3661C39.3458 33.5466 39.2862 33.7174 39.2121 33.8785C39.138 34.0396 39.0381 34.1959 38.9124 34.3474C38.7899 34.4989 38.6481 34.6294 38.487 34.739C38.3291 34.8453 38.1357 34.9323 37.9069 35C37.6813 35.0645 37.4316 35.0967 37.1577 35.0967ZM40.759 35L40.8943 30.8041L40.759 27.3768H41.8563L41.7258 30.8041L41.8563 35H40.759ZM46.9707 34.5939C46.6162 34.9291 46.0925 35.0967 45.3996 35.0967C45.0226 35.0967 44.6826 35.0242 44.3796 34.8792C44.0799 34.7341 43.8382 34.5392 43.6545 34.2942C43.4708 34.0493 43.3307 33.7754 43.234 33.4725C43.1373 33.1695 43.089 32.8505 43.089 32.5153C43.089 32.0996 43.147 31.7274 43.263 31.3987C43.3822 31.0667 43.5434 30.7977 43.7464 30.5914C43.9494 30.3819 44.1798 30.224 44.4376 30.1177C44.6955 30.0081 44.9694 29.9533 45.2594 29.9533C45.9749 29.9533 46.5098 30.2063 46.8643 30.7123C47.222 31.215 47.3541 31.9175 47.2607 32.8199H44.0799C44.1283 33.3 44.2749 33.6755 44.5198 33.9462C44.768 34.2137 45.1499 34.3474 45.6655 34.3474C46.0844 34.3474 46.5469 34.1992 47.0528 33.9027H47.0722L46.9707 34.5939ZM44.0799 32.3268L46.3664 32.0319C46.3954 31.6807 46.3148 31.3955 46.1247 31.1763C45.9346 30.954 45.6397 30.8428 45.2401 30.8428C45.0951 30.8428 44.9565 30.8702 44.8244 30.925C44.6922 30.9797 44.5682 31.0635 44.4521 31.1763C44.3394 31.2859 44.2491 31.4406 44.1814 31.6404C44.1138 31.837 44.0799 32.0658 44.0799 32.3268ZM49.5568 28.8995H49.6874L49.697 30.079L51.1811 29.9533V30.8621L49.697 30.7413L49.7067 33.1873C49.7067 33.603 49.7889 33.9011 49.9532 34.0815C50.1208 34.2588 50.3287 34.3474 50.5768 34.3474C50.7863 34.3474 50.9877 34.3007 51.1811 34.2072H51.2004L51.1037 34.7535C51.0167 34.8501 50.8862 34.9323 50.7122 35C50.5381 35.0645 50.3577 35.0967 50.1708 35.0967C49.7389 35.0967 49.3909 34.9581 49.1266 34.681C48.8624 34.4006 48.7351 34.0058 48.7447 33.4966L48.7979 30.6639L48.0341 30.6059V30.4851L49.5568 28.8995ZM54.6857 27.575H55.7975L55.5655 32.7909H54.9129L54.6857 27.575ZM55.2416 35.0967C55.0676 35.0967 54.9193 35.0419 54.7969 34.9323C54.6776 34.8228 54.618 34.6777 54.618 34.4973C54.618 34.3007 54.6776 34.1476 54.7969 34.038C54.9161 33.9285 55.0644 33.8737 55.2416 33.8737C55.4221 33.8737 55.5719 33.9285 55.6912 34.038C55.8136 34.1476 55.8749 34.3007 55.8749 34.4973C55.8749 34.6777 55.8136 34.8228 55.6912 34.9323C55.5687 35.0419 55.4188 35.0967 55.2416 35.0967Z" fill="black"/>
</svg>
