<svg width="97" height="70" viewBox="0 0 97 70" fill="none" xmlns="http://www.w3.org/2000/svg">
<path d="M28 22C33.3942 32.8645 38.4173 33.8417 52 36.3814M52 36.3814L48.236 40M52 36.3814L48.236 31.7288" stroke="black" stroke-width="2" stroke-linecap="round"/>
<path d="M6.63223 11.5649C6.41953 11.6938 6.11177 11.8147 5.70894 11.9275C5.30933 12.0403 4.90488 12.0967 4.49561 12.0967C3.95098 12.0967 3.44502 12.0097 2.97773 11.8356C2.51045 11.6616 2.10278 11.4135 1.75474 11.0912C1.40991 10.7689 1.1376 10.3645 0.937793 9.87788C0.741211 9.39126 0.64292 8.85146 0.64292 8.2585C0.64292 7.08223 0.994189 6.15894 1.69673 5.48862C2.39927 4.81509 3.35156 4.47832 4.55361 4.47832C5.27227 4.47832 5.9877 4.59272 6.6999 4.82153L6.8981 6.22822H6.87876C6.5146 5.97041 6.13594 5.77705 5.74277 5.64814C5.34961 5.51924 4.88394 5.45479 4.34575 5.45479C4.11372 5.45479 3.88008 5.48218 3.64482 5.53696C3.41279 5.59175 3.17593 5.68682 2.93423 5.82217C2.69575 5.9543 2.48467 6.11865 2.30098 6.31523C2.12051 6.51182 1.97227 6.76641 1.85625 7.079C1.74023 7.3916 1.68223 7.74126 1.68223 8.12798C1.68223 9.07866 1.92876 9.8376 2.42183 10.4048C2.91812 10.972 3.61582 11.2556 4.51494 11.2556C5.2626 11.2556 6.02798 10.9784 6.81108 10.4241H6.83042L6.63223 11.5649ZM10.2094 6.95332C10.5703 6.95332 10.899 7.01938 11.1955 7.15151C11.492 7.28364 11.7353 7.46411 11.9254 7.69292C12.1188 7.91851 12.267 8.18276 12.3702 8.48569C12.4733 8.7854 12.5249 9.10605 12.5249 9.44766C12.5249 9.81504 12.4733 10.1583 12.3702 10.4773C12.267 10.7963 12.1204 11.0767 11.9303 11.3184C11.7401 11.5601 11.4968 11.7502 11.2003 11.8888C10.9039 12.0274 10.5735 12.0967 10.2094 12.0967C9.72598 12.0967 9.30542 11.9758 8.9477 11.7341C8.59321 11.4892 8.32734 11.1702 8.1501 10.777C7.97607 10.3806 7.88906 9.9375 7.88906 9.44766C7.88906 8.98682 7.97769 8.56948 8.15493 8.19565C8.33218 7.82183 8.59805 7.52212 8.95254 7.29653C9.31025 7.06772 9.7292 6.95332 10.2094 6.95332ZM9.21357 10.8253C9.44238 11.1734 9.77432 11.3474 10.2094 11.3474C10.6444 11.3474 10.9748 11.1734 11.2003 10.8253C11.4291 10.4773 11.5436 10.0245 11.5436 9.46699C11.5436 9.0126 11.4243 8.63071 11.1858 8.32134C10.9506 8.00874 10.6251 7.85244 10.2094 7.85244C9.79043 7.85244 9.46172 8.00713 9.22324 8.3165C8.98799 8.62588 8.87036 9.00938 8.87036 9.46699C8.87036 10.0213 8.98477 10.4741 9.21357 10.8253ZM15.8845 7.93945C15.5558 7.92979 15.19 8.06514 14.7872 8.34551L14.8838 12H13.7769L13.8929 8.34551L13.714 7.06934V7.05H14.7437L14.763 7.81377L14.9515 7.65425C15.5058 7.18696 15.9989 6.95332 16.4307 6.95332C16.8787 6.95332 17.2203 7.11445 17.4555 7.43672C17.694 7.75576 17.8229 8.20049 17.8422 8.7709L17.9534 12H16.8464L16.9334 9.09961C16.9463 8.65166 16.8609 8.34551 16.6772 8.18115C16.4936 8.01357 16.2293 7.93301 15.8845 7.93945ZM20.4187 5.89951H20.5493L20.5589 7.079L22.043 6.95332V7.86211L20.5589 7.74126L20.5686 10.1873C20.5686 10.603 20.6508 10.9011 20.8151 11.0815C20.9827 11.2588 21.1906 11.3474 21.4387 11.3474C21.6482 11.3474 21.8496 11.3007 22.043 11.2072H22.0623L21.9656 11.7535C21.8786 11.8501 21.7481 11.9323 21.5741 12C21.4 12.0645 21.2196 12.0967 21.0327 12.0967C20.6008 12.0967 20.2528 11.9581 19.9885 11.681C19.7243 11.4006 19.597 11.0058 19.6066 10.4966L19.6598 7.66392L18.896 7.60591V7.48506L20.4187 5.89951ZM23.7929 4.98105C23.9733 4.98105 24.1216 5.03262 24.2376 5.13574C24.3568 5.23564 24.4165 5.37261 24.4165 5.54663C24.4165 5.73032 24.3568 5.87695 24.2376 5.98652C24.1216 6.09609 23.9733 6.15088 23.7929 6.15088C23.6221 6.15088 23.477 6.09609 23.3578 5.98652C23.2386 5.87695 23.179 5.73032 23.179 5.54663C23.179 5.37261 23.2386 5.23564 23.3578 5.13574C23.477 5.03262 23.6221 4.98105 23.7929 4.98105ZM23.1983 7.05H24.2279V7.06934L24.3681 12H23.2611L23.3771 8.34551L23.1983 7.06934V7.05ZM27.9791 7.93945C27.6504 7.92979 27.2846 8.06514 26.8818 8.34551L26.9785 12H25.8715L25.9875 8.34551L25.8086 7.06934V7.05H26.8383L26.8576 7.81377L27.0461 7.65425C27.6004 7.18696 28.0935 6.95332 28.5253 6.95332C28.9733 6.95332 29.3149 7.11445 29.5501 7.43672C29.7886 7.75576 29.9175 8.20049 29.9369 8.7709L30.048 12H28.9411L29.0281 9.09961C29.041 8.65166 28.9556 8.34551 28.7719 8.18115C28.5882 8.01357 28.3239 7.93301 27.9791 7.93945ZM34.3841 11.4248C33.8524 11.8727 33.3642 12.0967 32.9194 12.0967C32.5069 12.0967 32.1895 11.9355 31.9671 11.6133C31.748 11.2878 31.6336 10.8463 31.6239 10.2888L31.5949 8.34551L31.3871 7.06934V7.05H32.5956L32.5327 9.96006C32.523 10.3854 32.5956 10.6835 32.7502 10.8543C32.9082 11.0251 33.1402 11.1105 33.4463 11.1105C33.8169 11.1105 34.1988 10.9752 34.592 10.7045L34.4953 7.05H35.6023L35.4863 10.7045L35.6651 11.9807V12H34.6355L34.6162 11.2266L34.3841 11.4248ZM40.7263 11.5939C40.3718 11.9291 39.8481 12.0967 39.1553 12.0967C38.7782 12.0967 38.4382 12.0242 38.1353 11.8792C37.8356 11.7341 37.5939 11.5392 37.4102 11.2942C37.2265 11.0493 37.0863 10.7754 36.9896 10.4725C36.893 10.1695 36.8446 9.85049 36.8446 9.51533C36.8446 9.09961 36.9026 8.72739 37.0187 8.39868C37.1379 8.06675 37.299 7.79766 37.5021 7.59141C37.7051 7.38193 37.9355 7.22402 38.1933 7.11768C38.4511 7.00811 38.725 6.95332 39.0151 6.95332C39.7305 6.95332 40.2655 7.2063 40.62 7.71226C40.9777 8.21499 41.1098 8.91753 41.0164 9.81987H37.8356C37.8839 10.3 38.0306 10.6755 38.2755 10.9462C38.5236 11.2137 38.9055 11.3474 39.4211 11.3474C39.8401 11.3474 40.3025 11.1992 40.8085 10.9027H40.8278L40.7263 11.5939ZM37.8356 9.32681L40.1221 9.03193C40.1511 8.68066 40.0705 8.39546 39.8804 8.17632C39.6902 7.95396 39.3954 7.84277 38.9958 7.84277C38.8507 7.84277 38.7122 7.87017 38.58 7.92495C38.4479 7.97974 38.3238 8.06353 38.2078 8.17632C38.095 8.28589 38.0048 8.44058 37.9371 8.64038C37.8694 8.83696 37.8356 9.06577 37.8356 9.32681ZM44.4823 8.0023C44.3083 8.0023 44.1198 8.04097 43.9167 8.11831C43.7137 8.19565 43.5268 8.29233 43.356 8.40835L43.4527 12H42.3457L42.4617 8.34551L42.2829 7.06934V7.05H43.3125L43.3318 7.86211L43.5832 7.65425C43.6025 7.63813 43.646 7.60107 43.7137 7.54307C43.7846 7.48506 43.8313 7.44639 43.8539 7.42705C43.8765 7.40772 43.9184 7.37388 43.9796 7.32554C44.044 7.27397 44.0908 7.23853 44.1198 7.21919C44.152 7.19985 44.1971 7.17246 44.2551 7.13701C44.3131 7.09834 44.3615 7.07256 44.4001 7.05967C44.4388 7.04355 44.4839 7.02583 44.5355 7.00649C44.5903 6.98394 44.6418 6.96943 44.6902 6.96299C44.7385 6.95654 44.7885 6.95332 44.84 6.95332C45.0108 6.95332 45.143 6.95977 45.2364 6.97266L45.4346 8.20049H45.4153C45.1478 8.06836 44.8368 8.0023 44.4823 8.0023Z" fill="black"/>
<path d="M63.6729 57.6724L63.6842 65.029L71.0291 57.684L63.6729 57.6724Z" fill="#EBEBEB" stroke="#C2C2C2" stroke-width="0.6"/>
<path d="M75.6842 65.425L83.1091 65.368L75.7412 58.0001L75.6842 65.425Z" fill="#EBEBEB" stroke="#C2C2C2" stroke-width="0.6"/>
<path d="M61.6952 33.0001L69.063 40.3678L69.0518 47.7472L61.6836 40.379L61.6952 33.0001Z" fill="#EBEBEB" stroke="#C2C2C2" stroke-width="0.6"/>
<path d="M95.8554 38H85.5L95.8554 48.5164L95.8554 38Z" fill="#EBEBEB" stroke="#C2C2C2" stroke-width="0.6" stroke-linejoin="bevel"/>
<path d="M74.8515 59.4842L85.3037 49.0001L64.4 49.0001L74.8515 59.4842Z" fill="#EBEBEB" stroke="#C2C2C2" stroke-width="0.6"/>
<path d="M70.6317 48.7128L85.3447 48.736L70.609 34.0002L70.6317 48.7128Z" fill="#EBEBEB" stroke="#C2C2C2" stroke-width="0.6"/>
<path d="M90.9521 43.5342L85.718 38.3L80.5001 43.5503L85.7342 48.7844L90.9521 43.5342Z" fill="#EBEBEB" stroke="#C2C2C2" stroke-width="0.6"/>
</svg>
