<svg width="102" height="70" viewBox="0 0 102 70" fill="none" xmlns="http://www.w3.org/2000/svg">
<path d="M28 22C33.3942 32.8645 38.4173 33.8417 52 36.3814M52 36.3814L48.236 40M52 36.3814L48.236 31.7288" stroke="black" stroke-width="2" stroke-linecap="round"/>
<path d="M1.9916 8.09897L2.13662 12H0.942627L1.08765 8.09897L0.942627 4.575H2.93906C3.63193 4.575 4.17656 4.74419 4.57295 5.08257C4.96934 5.42095 5.16753 5.86245 5.16753 6.40708C5.16753 6.8937 5.03862 7.30781 4.78081 7.64941C4.52622 7.99102 4.13789 8.23271 3.61582 8.37451L5.99897 11.9807V12H4.57295L2.80371 8.50503V7.94912C3.23232 7.90078 3.56265 7.76704 3.79468 7.5479C4.02993 7.32554 4.14756 7.02422 4.14756 6.64395C4.14756 6.30234 4.0251 6.02036 3.78018 5.798C3.53848 5.57564 3.1856 5.46445 2.72153 5.46445H2.09795L1.9916 8.09897ZM10.5236 11.5939C10.1691 11.9291 9.64541 12.0967 8.95254 12.0967C8.57549 12.0967 8.2355 12.0242 7.93257 11.8792C7.63286 11.7341 7.39116 11.5392 7.20747 11.2942C7.02378 11.0493 6.88359 10.7754 6.78691 10.4725C6.69023 10.1695 6.64189 9.85049 6.64189 9.51533C6.64189 9.09961 6.6999 8.72739 6.81592 8.39868C6.93516 8.06675 7.09629 7.79766 7.29932 7.59141C7.50234 7.38193 7.73276 7.22402 7.99058 7.11768C8.24839 7.00811 8.52231 6.95332 8.81235 6.95332C9.52778 6.95332 10.0627 7.2063 10.4172 7.71226C10.775 8.21499 10.9071 8.91753 10.8136 9.81987H7.63286C7.6812 10.3 7.82783 10.6755 8.07275 10.9462C8.3209 11.2137 8.70278 11.3474 9.21841 11.3474C9.63735 11.3474 10.0998 11.1992 10.6058 10.9027H10.6251L10.5236 11.5939ZM7.63286 9.32681L9.91934 9.03193C9.94834 8.68066 9.86777 8.39546 9.67764 8.17632C9.4875 7.95396 9.19263 7.84277 8.79302 7.84277C8.648 7.84277 8.50942 7.87017 8.37729 7.92495C8.24517 7.97974 8.12109 8.06353 8.00508 8.17632C7.89228 8.28589 7.80205 8.44058 7.73437 8.64038C7.6667 8.83696 7.63286 9.06577 7.63286 9.32681ZM13.1098 5.89951H13.2403L13.25 7.079L14.734 6.95332V7.86211L13.25 7.74126L13.2596 10.1873C13.2596 10.603 13.3418 10.9011 13.5062 11.0815C13.6737 11.2588 13.8816 11.3474 14.1297 11.3474C14.3392 11.3474 14.5406 11.3007 14.734 11.2072H14.7533L14.6566 11.7535C14.5696 11.8501 14.4391 11.9323 14.2651 12C14.0911 12.0645 13.9106 12.0967 13.7237 12.0967C13.2918 12.0967 12.9438 11.9581 12.6795 11.681C12.4153 11.4006 12.288 11.0058 12.2977 10.4966L12.3508 7.66392L11.5871 7.60591V7.48506L13.1098 5.89951ZM18.0114 6.95332C18.3724 6.95332 18.7011 7.01938 18.9976 7.15151C19.294 7.28364 19.5374 7.46411 19.7275 7.69292C19.9208 7.91851 20.0691 8.18276 20.1722 8.48569C20.2753 8.7854 20.3269 9.10605 20.3269 9.44766C20.3269 9.81504 20.2753 10.1583 20.1722 10.4773C20.0691 10.7963 19.9225 11.0767 19.7323 11.3184C19.5422 11.5601 19.2989 11.7502 19.0024 11.8888C18.7059 12.0274 18.3756 12.0967 18.0114 12.0967C17.528 12.0967 17.1075 11.9758 16.7498 11.7341C16.3953 11.4892 16.1294 11.1702 15.9521 10.777C15.7781 10.3806 15.6911 9.9375 15.6911 9.44766C15.6911 8.98682 15.7797 8.56948 15.957 8.19565C16.1342 7.82183 16.4001 7.52212 16.7546 7.29653C17.1123 7.06772 17.5312 6.95332 18.0114 6.95332ZM17.0156 10.8253C17.2444 11.1734 17.5764 11.3474 18.0114 11.3474C18.4465 11.3474 18.7768 11.1734 19.0024 10.8253C19.2312 10.4773 19.3456 10.0245 19.3456 9.46699C19.3456 9.0126 19.2264 8.63071 18.9879 8.32134C18.7526 8.00874 18.4271 7.85244 18.0114 7.85244C17.5925 7.85244 17.2638 8.00713 17.0253 8.3165C16.79 8.62588 16.6724 9.00938 16.6724 9.46699C16.6724 10.0213 16.7868 10.4741 17.0156 10.8253ZM24.4165 11.4248C23.8847 11.8727 23.3965 12.0967 22.9518 12.0967C22.5393 12.0967 22.2218 11.9355 21.9995 11.6133C21.7803 11.2878 21.6659 10.8463 21.6562 10.2888L21.6272 8.34551L21.4194 7.06934V7.05H22.6279L22.565 9.96006C22.5554 10.3854 22.6279 10.6835 22.7826 10.8543C22.9405 11.0251 23.1725 11.1105 23.4787 11.1105C23.8493 11.1105 24.2312 10.9752 24.6243 10.7045L24.5276 7.05H25.6346L25.5186 10.7045L25.6975 11.9807V12H24.6678L24.6485 11.2266L24.4165 11.4248ZM29.2746 8.0023C29.1006 8.0023 28.9121 8.04097 28.709 8.11831C28.506 8.19565 28.3191 8.29233 28.1483 8.40835L28.245 12H27.138L27.254 8.34551L27.0751 7.06934V7.05H28.1048L28.1241 7.86211L28.3755 7.65425C28.3948 7.63813 28.4383 7.60107 28.506 7.54307C28.5769 7.48506 28.6236 7.44639 28.6462 7.42705C28.6687 7.40772 28.7106 7.37388 28.7719 7.32554C28.8363 7.27397 28.8831 7.23853 28.9121 7.21919C28.9443 7.19985 28.9894 7.17246 29.0474 7.13701C29.1054 7.09834 29.1538 7.07256 29.1924 7.05967C29.2311 7.04355 29.2762 7.02583 29.3278 7.00649C29.3826 6.98394 29.4341 6.96943 29.4825 6.96299C29.5308 6.95654 29.5808 6.95332 29.6323 6.95332C29.8031 6.95332 29.9353 6.95977 30.0287 6.97266L30.2269 8.20049H30.2076C29.9401 8.06836 29.6291 8.0023 29.2746 8.0023ZM34.7322 11.3764C35.0125 11.3764 35.3396 11.2314 35.7135 10.9414L35.7425 10.0809C35.504 9.94878 35.2269 9.88271 34.911 9.88271C34.6081 9.88271 34.368 9.94878 34.1908 10.0809C34.0167 10.213 33.9297 10.3967 33.9297 10.632C33.9297 10.8543 34.0022 11.0348 34.1473 11.1734C34.2955 11.3087 34.4905 11.3764 34.7322 11.3764ZM35.6845 12L35.6941 11.5359C35.1946 11.9098 34.7725 12.0967 34.4276 12.0967C33.9668 12.0967 33.6059 11.9646 33.3448 11.7003C33.0838 11.436 32.9533 11.1041 32.9533 10.7045C32.9533 10.4628 32.9984 10.2501 33.0886 10.0664C33.1789 9.88271 33.2965 9.73608 33.4415 9.62651C33.5865 9.51372 33.7605 9.42188 33.9636 9.35098C34.1698 9.28008 34.3761 9.23174 34.5823 9.20596C34.7886 9.18018 35.0109 9.16729 35.2494 9.16729C35.3396 9.16729 35.5104 9.17373 35.7618 9.18662L35.7715 8.93042C35.7779 8.69839 35.757 8.50503 35.7086 8.35034C35.6635 8.19565 35.591 8.08125 35.4911 8.00713C35.3912 7.92979 35.2849 7.87661 35.1721 7.84761C35.0625 7.8186 34.9288 7.8041 34.7709 7.8041C34.3326 7.8041 33.8057 7.94268 33.1901 8.21982H33.1708L33.3593 7.05967C34.0329 6.98877 34.5501 6.95332 34.911 6.95332C35.4782 6.95332 35.9101 7.11445 36.2065 7.43672C36.5063 7.75576 36.6658 8.20049 36.6851 8.7709L36.7915 12H35.6845ZM41.0744 11.4248C40.5426 11.8727 40.0544 12.0967 39.6097 12.0967C39.1972 12.0967 38.8797 11.9355 38.6574 11.6133C38.4382 11.2878 38.3238 10.8463 38.3142 10.2888L38.2852 8.34551L38.0773 7.06934V7.05H39.2858L39.2229 9.96006C39.2133 10.3854 39.2858 10.6835 39.4405 10.8543C39.5984 11.0251 39.8304 11.1105 40.1366 11.1105C40.5072 11.1105 40.8891 10.9752 41.2822 10.7045L41.1855 7.05H42.2925L42.1765 10.7045L42.3554 11.9807V12H41.3257L41.3064 11.2266L41.0744 11.4248ZM44.376 12H43.0901V11.9807L45.0334 9.496L43.2787 7.06934V7.05H44.5452L45.5265 8.84341L46.4594 7.05H47.6969V7.06934L45.8358 9.32681L47.7356 11.9807V12H46.4884L45.3476 10.0181L44.376 12ZM51.4819 5.89951H51.6124L51.6221 7.079L53.1061 6.95332V7.86211L51.6221 7.74126L51.6318 10.1873C51.6318 10.603 51.714 10.9011 51.8783 11.0815C52.0459 11.2588 52.2538 11.3474 52.5019 11.3474C52.7114 11.3474 52.9128 11.3007 53.1061 11.2072H53.1255L53.0288 11.7535C52.9418 11.8501 52.8113 11.9323 52.6373 12C52.4632 12.0645 52.2828 12.0967 52.0958 12.0967C51.664 12.0967 51.316 11.9581 51.0517 11.681C50.7874 11.4006 50.6602 11.0058 50.6698 10.4966L50.723 7.66392L49.9592 7.60591V7.48506L51.4819 5.89951ZM55.8954 11.3764C56.1757 11.3764 56.5028 11.2314 56.8767 10.9414L56.9057 10.0809C56.6672 9.94878 56.39 9.88271 56.0742 9.88271C55.7713 9.88271 55.5312 9.94878 55.354 10.0809C55.1799 10.213 55.0929 10.3967 55.0929 10.632C55.0929 10.8543 55.1654 11.0348 55.3104 11.1734C55.4587 11.3087 55.6537 11.3764 55.8954 11.3764ZM56.8477 12L56.8573 11.5359C56.3578 11.9098 55.9356 12.0967 55.5908 12.0967C55.13 12.0967 54.769 11.9646 54.508 11.7003C54.247 11.436 54.1165 11.1041 54.1165 10.7045C54.1165 10.4628 54.1616 10.2501 54.2518 10.0664C54.342 9.88271 54.4597 9.73608 54.6047 9.62651C54.7497 9.51372 54.9237 9.42188 55.1268 9.35098C55.333 9.28008 55.5393 9.23174 55.7455 9.20596C55.9518 9.18018 56.1741 9.16729 56.4126 9.16729C56.5028 9.16729 56.6736 9.17373 56.925 9.18662L56.9347 8.93042C56.9411 8.69839 56.9202 8.50503 56.8718 8.35034C56.8267 8.19565 56.7542 8.08125 56.6543 8.00713C56.5544 7.92979 56.448 7.87661 56.3353 7.84761C56.2257 7.8186 56.0919 7.8041 55.934 7.8041C55.4958 7.8041 54.9688 7.94268 54.3533 8.21982H54.334L54.5225 7.05967C55.196 6.98877 55.7133 6.95332 56.0742 6.95332C56.6414 6.95332 57.0732 7.11445 57.3697 7.43672C57.6694 7.75576 57.829 8.20049 57.8483 8.7709L57.9546 12H56.8477ZM61.5076 7.93945C61.1789 7.92979 60.8131 8.06514 60.4103 8.34551L60.507 12H59.4L59.516 8.34551L59.3372 7.06934V7.05H60.3668L60.3861 7.81377L60.5747 7.65425C61.129 7.18696 61.622 6.95332 62.0539 6.95332C62.5018 6.95332 62.8434 7.11445 63.0787 7.43672C63.3171 7.75576 63.446 8.20049 63.4654 8.7709L63.5766 12H62.4696L62.5566 9.09961C62.5695 8.65166 62.4841 8.34551 62.3004 8.18115C62.1167 8.01357 61.8524 7.93301 61.5076 7.93945ZM67.2214 11.3474C67.5501 11.3474 67.8836 11.2314 68.222 10.9994L68.251 8.12798C67.9545 7.94429 67.6145 7.85244 67.231 7.85244C66.9926 7.85244 66.7799 7.89917 66.593 7.99263C66.4061 8.08286 66.2562 8.20693 66.1434 8.36484C66.0306 8.52275 65.9452 8.7 65.8872 8.89658C65.8324 9.08994 65.805 9.29619 65.805 9.51533C65.805 10.1051 65.9259 10.5579 66.1676 10.8737C66.4125 11.1895 66.7638 11.3474 67.2214 11.3474ZM66.9845 14.5717C66.5398 14.5717 66.0354 14.5104 65.4715 14.388L65.1718 13.2278H65.2104C65.5166 13.3664 65.7438 13.4663 65.892 13.5275C66.0435 13.5888 66.224 13.6484 66.4334 13.7064C66.6461 13.7644 66.8363 13.7934 67.0039 13.7934C67.4099 13.7934 67.708 13.6629 67.8981 13.4019C68.0915 13.1408 68.193 12.7332 68.2027 12.1789L68.2123 11.5553C67.758 11.9162 67.3229 12.0967 66.9072 12.0967C66.4786 12.0967 66.1015 11.9758 65.776 11.7341C65.4538 11.4924 65.2121 11.1782 65.0509 10.7915C64.893 10.4048 64.8141 9.97617 64.8141 9.50566C64.8141 9.10928 64.8769 8.74834 65.0026 8.42285C65.1315 8.09414 65.3039 7.82505 65.5198 7.61558C65.739 7.40288 65.9919 7.24014 66.2788 7.12734C66.5656 7.01133 66.8701 6.95332 67.1924 6.95332C67.5855 6.95332 67.9384 7.02261 68.251 7.16118L69.2033 7.05H69.2227L69.1115 8.2585L69.184 11.7631C69.1872 11.9243 69.184 12.0773 69.1743 12.2224C69.1679 12.3706 69.1469 12.543 69.1115 12.7396C69.0792 12.9362 69.0341 13.115 68.9761 13.2762C68.9181 13.4373 68.8327 13.6 68.7199 13.7644C68.6071 13.932 68.475 14.0722 68.3235 14.185C68.1753 14.2978 67.9852 14.3896 67.7531 14.4605C67.5243 14.5346 67.2681 14.5717 66.9845 14.5717ZM72.8578 8.0023C72.6838 8.0023 72.4953 8.04097 72.2922 8.11831C72.0892 8.19565 71.9023 8.29233 71.7315 8.40835L71.8282 12H70.7212L70.8372 8.34551L70.6583 7.06934V7.05H71.688L71.7073 7.86211L71.9587 7.65425C71.978 7.63813 72.0215 7.60107 72.0892 7.54307C72.1601 7.48506 72.2068 7.44639 72.2294 7.42705C72.2519 7.40772 72.2938 7.37388 72.3551 7.32554C72.4195 7.27397 72.4663 7.23853 72.4953 7.21919C72.5275 7.19985 72.5726 7.17246 72.6306 7.13701C72.6886 7.09834 72.737 7.07256 72.7756 7.05967C72.8143 7.04355 72.8594 7.02583 72.911 7.00649C72.9658 6.98394 73.0173 6.96943 73.0657 6.96299C73.114 6.95654 73.164 6.95332 73.2155 6.95332C73.3863 6.95332 73.5185 6.95977 73.6119 6.97266L73.8101 8.20049H73.7908C73.5233 8.06836 73.2123 8.0023 72.8578 8.0023ZM76.3334 11.3764C76.6138 11.3764 76.9409 11.2314 77.3147 10.9414L77.3437 10.0809C77.1053 9.94878 76.8281 9.88271 76.5123 9.88271C76.2094 9.88271 75.9693 9.94878 75.792 10.0809C75.618 10.213 75.531 10.3967 75.531 10.632C75.531 10.8543 75.6035 11.0348 75.7485 11.1734C75.8968 11.3087 76.0917 11.3764 76.3334 11.3764ZM77.2857 12L77.2954 11.5359C76.7959 11.9098 76.3737 12.0967 76.0289 12.0967C75.5681 12.0967 75.2071 11.9646 74.9461 11.7003C74.6851 11.436 74.5545 11.1041 74.5545 10.7045C74.5545 10.4628 74.5997 10.2501 74.6899 10.0664C74.7801 9.88271 74.8978 9.73608 75.0428 9.62651C75.1878 9.51372 75.3618 9.42188 75.5648 9.35098C75.7711 9.28008 75.9773 9.23174 76.1836 9.20596C76.3898 9.18018 76.6122 9.16729 76.8507 9.16729C76.9409 9.16729 77.1117 9.17373 77.3631 9.18662L77.3728 8.93042C77.3792 8.69839 77.3583 8.50503 77.3099 8.35034C77.2648 8.19565 77.1923 8.08125 77.0924 8.00713C76.9925 7.92979 76.8861 7.87661 76.7733 7.84761C76.6638 7.8186 76.53 7.8041 76.3721 7.8041C75.9338 7.8041 75.4069 7.94268 74.7914 8.21982H74.7721L74.9606 7.05967C75.6341 6.98877 76.1514 6.95332 76.5123 6.95332C77.0795 6.95332 77.5113 7.11445 77.8078 7.43672C78.1075 7.75576 78.267 8.20049 78.2864 8.7709L78.3927 12H77.2857ZM81.8345 7.94912C81.5026 7.94912 81.1739 8.0748 80.8484 8.32617L80.9451 12H79.8381L79.9541 8.33584L79.7752 7.06934V7.05H80.8049L80.8242 7.8041L80.9837 7.66392C81.2416 7.44155 81.4816 7.26753 81.704 7.14185C81.9296 7.01616 82.1584 6.95332 82.3904 6.95332C82.9931 6.95332 83.3991 7.26914 83.6086 7.90078L83.8745 7.66392C84.1323 7.44155 84.3724 7.26753 84.5947 7.14185C84.8203 7.01616 85.0491 6.95332 85.2812 6.95332C85.7098 6.95332 86.0385 7.11445 86.2673 7.43672C86.4961 7.75898 86.6202 8.20049 86.6395 8.76123L86.7458 12H85.6389L85.7259 9.08994C85.7323 8.86113 85.7146 8.671 85.6727 8.51953C85.6308 8.36484 85.5615 8.24722 85.4648 8.16665C85.3714 8.08608 85.2667 8.02969 85.1506 7.99746C85.0346 7.96523 84.8928 7.94912 84.7252 7.94912C84.3901 7.94912 84.0501 8.07803 83.7053 8.33584C83.7246 8.48086 83.7391 8.62266 83.7488 8.76123L83.8455 12H82.7385L82.8352 9.08994C82.8416 8.86113 82.8239 8.671 82.782 8.51953C82.7401 8.36484 82.6708 8.24722 82.5741 8.16665C82.4807 8.08608 82.3759 8.02969 82.2599 7.99746C82.1439 7.96523 82.0021 7.94912 81.8345 7.94912ZM89.7332 7.82344C89.5012 7.82344 89.3191 7.86855 89.187 7.95879C89.0581 8.0458 88.9936 8.16182 88.9936 8.30684C88.9936 8.45508 89.0484 8.58882 89.158 8.70806C89.2676 8.82407 89.4561 8.9417 89.7236 9.06094L90.2311 9.28813C90.6372 9.47505 90.9289 9.67163 91.1061 9.87788C91.2866 10.0841 91.3768 10.3387 91.3768 10.6417C91.3768 11.0606 91.2302 11.4086 90.9369 11.6858C90.6469 11.9597 90.2263 12.0967 89.6752 12.0967C89.1274 12.0967 88.6585 11.9823 88.2685 11.7535L88.08 10.6755H88.0994C88.4023 10.9011 88.6827 11.0735 88.9405 11.1927C89.2015 11.3087 89.4722 11.3667 89.7526 11.3667C89.9653 11.3667 90.1296 11.3136 90.2456 11.2072C90.3649 11.1009 90.4245 10.9559 90.4245 10.7722C90.4245 10.6046 90.3681 10.4628 90.2553 10.3468C90.1425 10.2275 89.9749 10.1212 89.7526 10.0277L89.1 9.7522C88.3878 9.44927 88.0317 8.98037 88.0317 8.34551C88.0317 7.92334 88.1896 7.58657 88.5054 7.33521C88.8245 7.08062 89.2434 6.95332 89.7622 6.95332C90.2424 6.95332 90.6952 7.04194 91.1206 7.21919L91.2995 8.34551H91.2801C91.0513 8.17471 90.7999 8.0458 90.526 7.95879C90.2521 7.86855 89.9878 7.82344 89.7332 7.82344Z" fill="black"/>
<path d="M91.1335 53.6978L76.4204 53.6747L91.1561 68.4104L91.1335 53.6978Z" fill="#EBEBEB" stroke="#C2C2C2" stroke-width="0.6"/>
<path d="M61.6133 57.1302L61.6133 67.4856L72.1296 57.1302L61.6133 57.1302Z" fill="#EBEBEB" stroke="#C2C2C2" stroke-width="0.6"/>
<path d="M69.4526 36.1934L74.6625 41.3874V31L69.4526 36.1934Z" fill="#EBEBEB" stroke="#C2C2C2" stroke-width="0.6"/>
<path d="M69.5168 36.2099L64.2263 31.0001L64.2263 41.4198L69.5168 36.2099Z" fill="#EBEBEB" stroke="#C2C2C2" stroke-width="0.6" stroke-linejoin="bevel"/>
<path d="M69.4524 46.6782L59.0002 57.1622L79.9039 57.1622L69.4524 46.6782Z" fill="#EBEBEB" stroke="#C2C2C2" stroke-width="0.6"/>
<path d="M74.6784 41.4684L69.4524 36.2262L64.2264 41.4684L69.4524 46.7105L74.6784 41.4684Z" fill="#EBEBEB" stroke="#C2C2C2" stroke-width="0.6"/>
<path d="M101 40.4439L97.8006 50.36L91.2273 53.7135L94.4271 43.7968L101 40.4439Z" fill="#EBEBEB" stroke="#C2C2C2" stroke-width="0.6"/>
</svg>
