<svg width="102" height="77" viewBox="0 0 102 77" fill="none" xmlns="http://www.w3.org/2000/svg">
<path d="M5.20459 46.4537L5.33643 50.0001H4.25098L4.38281 46.4537L4.25098 43.2501H6.06592C6.6958 43.2501 7.19092 43.4039 7.55127 43.7115C7.91162 44.0191 8.0918 44.4205 8.0918 44.9156C8.0918 45.358 7.97461 45.7344 7.74023 46.045C7.50879 46.3555 7.15576 46.5753 6.68115 46.7042L8.84766 49.9825V50.0001H7.55127L5.94287 46.8228V46.3174C6.33252 46.2735 6.63281 46.1519 6.84375 45.9527C7.05762 45.7505 7.16455 45.4766 7.16455 45.1309C7.16455 44.8204 7.05322 44.564 6.83057 44.3619C6.61084 44.1597 6.29004 44.0587 5.86816 44.0587H5.30127L5.20459 46.4537ZM12.9609 49.6309C12.6387 49.9356 12.1626 50.088 11.5327 50.088C11.1899 50.088 10.8809 50.022 10.6055 49.8902C10.333 49.7584 10.1133 49.5811 9.94629 49.3585C9.7793 49.1358 9.65186 48.8868 9.56396 48.6114C9.47607 48.336 9.43213 48.046 9.43213 47.7413C9.43213 47.3633 9.48486 47.025 9.59033 46.7261C9.69873 46.4244 9.84521 46.1797 10.0298 45.9922C10.2144 45.8018 10.4238 45.6583 10.6582 45.5616C10.8926 45.462 11.1416 45.4122 11.4053 45.4122C12.0557 45.4122 12.542 45.6422 12.8643 46.1021C13.1895 46.5591 13.3096 47.1978 13.2246 48.0181H10.333C10.377 48.4547 10.5103 48.796 10.7329 49.0421C10.9585 49.2852 11.3057 49.4068 11.7744 49.4068C12.1553 49.4068 12.5757 49.272 13.0356 49.0025H13.0532L12.9609 49.6309ZM10.333 47.5699L12.4116 47.3018C12.438 46.9825 12.3647 46.7232 12.1919 46.524C12.019 46.3218 11.751 46.2208 11.3877 46.2208C11.2559 46.2208 11.1299 46.2457 11.0098 46.2955C10.8896 46.3453 10.7769 46.4214 10.6714 46.524C10.5688 46.6236 10.4868 46.7642 10.4253 46.9459C10.3638 47.1246 10.333 47.3326 10.333 47.5699ZM15.312 44.4542H15.4307L15.4395 45.5264L16.7886 45.4122V46.2383L15.4395 46.1285L15.4482 48.3521C15.4482 48.73 15.5229 49.001 15.6724 49.1651C15.8247 49.3262 16.0137 49.4068 16.2393 49.4068C16.4297 49.4068 16.6128 49.3643 16.7886 49.2794H16.8062L16.7183 49.7759C16.6392 49.8638 16.5205 49.9385 16.3623 50.0001C16.2041 50.0587 16.04 50.088 15.8701 50.088C15.4775 50.088 15.1611 49.962 14.9209 49.71C14.6807 49.4551 14.5649 49.0963 14.5737 48.6334L14.6221 46.0582L13.9277 46.0054V45.8956L15.312 44.4542ZM19.8384 46.3658C19.6802 46.3658 19.5088 46.4009 19.3242 46.4713C19.1396 46.5416 18.9697 46.6295 18.8145 46.7349L18.9023 50.0001H17.896L18.0015 46.6778L17.8389 45.5176V45.5001H18.7749L18.7925 46.2383L19.021 46.0494C19.0386 46.0347 19.0781 46.001 19.1396 45.9483C19.2041 45.8956 19.2466 45.8604 19.2671 45.8428C19.2876 45.8253 19.3257 45.7945 19.3813 45.7505C19.4399 45.7037 19.4824 45.6714 19.5088 45.6539C19.5381 45.6363 19.5791 45.6114 19.6318 45.5792C19.6846 45.544 19.7285 45.5206 19.7637 45.5089C19.7988 45.4942 19.8398 45.4781 19.8867 45.4605C19.9365 45.44 19.9834 45.4268 20.0273 45.421C20.0713 45.4151 20.1167 45.4122 20.1636 45.4122C20.3188 45.4122 20.439 45.418 20.5239 45.4297L20.7041 46.546H20.6865C20.4434 46.4258 20.1606 46.3658 19.8384 46.3658ZM23.2573 45.4122C23.5854 45.4122 23.8843 45.4722 24.1538 45.5923C24.4233 45.7125 24.6445 45.8765 24.8174 46.0845C24.9932 46.2896 25.1279 46.5298 25.2217 46.8052C25.3154 47.0777 25.3623 47.3692 25.3623 47.6797C25.3623 48.0137 25.3154 48.3257 25.2217 48.6158C25.1279 48.9058 24.9946 49.1607 24.8218 49.3804C24.6489 49.6002 24.4277 49.773 24.1582 49.899C23.8887 50.025 23.5884 50.088 23.2573 50.088C22.8179 50.088 22.4355 49.9781 22.1104 49.7584C21.7881 49.5357 21.5464 49.2457 21.3853 48.8882C21.2271 48.5279 21.1479 48.1251 21.1479 47.6797C21.1479 47.2608 21.2285 46.8814 21.3896 46.5416C21.5508 46.2017 21.7925 45.9293 22.1147 45.7242C22.4399 45.5162 22.8208 45.4122 23.2573 45.4122ZM22.3521 48.9322C22.5601 49.2486 22.8618 49.4068 23.2573 49.4068C23.6528 49.4068 23.9531 49.2486 24.1582 48.9322C24.3662 48.6158 24.4702 48.2042 24.4702 47.6973C24.4702 47.2842 24.3618 46.9371 24.145 46.6558C23.9312 46.3716 23.6353 46.2296 23.2573 46.2296C22.8765 46.2296 22.5776 46.3702 22.3608 46.6514C22.147 46.9327 22.04 47.2813 22.04 47.6973C22.04 48.2012 22.144 48.6129 22.3521 48.9322ZM29.0801 49.4771C28.5967 49.8843 28.1528 50.088 27.7485 50.088C27.3735 50.088 27.085 49.9415 26.8828 49.6485C26.6836 49.3526 26.5796 48.9512 26.5708 48.4444L26.5444 46.6778L26.3555 45.5176V45.5001H27.4541L27.397 48.1456C27.3882 48.5323 27.4541 48.8033 27.5947 48.9586C27.7383 49.1138 27.9492 49.1915 28.2275 49.1915C28.5645 49.1915 28.9116 49.0684 29.269 48.8223L29.1812 45.5001H30.1875L30.082 48.8223L30.2446 49.9825V50.0001H29.3086L29.291 49.2969L29.0801 49.4771ZM33.29 50.088H32.8286L30.9126 45.5176V45.5001H31.9673L33.2065 49.0377L34.27 45.5001H35.3423V45.5176L33.29 50.088ZM39.3633 49.6309C39.041 49.9356 38.5649 50.088 37.9351 50.088C37.5923 50.088 37.2832 50.022 37.0078 49.8902C36.7354 49.7584 36.5156 49.5811 36.3486 49.3585C36.1816 49.1358 36.0542 48.8868 35.9663 48.6114C35.8784 48.336 35.8345 48.046 35.8345 47.7413C35.8345 47.3633 35.8872 47.025 35.9927 46.7261C36.1011 46.4244 36.2476 46.1797 36.4321 45.9922C36.6167 45.8018 36.8262 45.6583 37.0605 45.5616C37.2949 45.462 37.5439 45.4122 37.8076 45.4122C38.458 45.4122 38.9443 45.6422 39.2666 46.1021C39.5918 46.5591 39.7119 47.1978 39.627 48.0181H36.7354C36.7793 48.4547 36.9126 48.796 37.1353 49.0421C37.3608 49.2852 37.708 49.4068 38.1768 49.4068C38.5576 49.4068 38.978 49.272 39.438 49.0025H39.4556L39.3633 49.6309ZM36.7354 47.5699L38.814 47.3018C38.8403 46.9825 38.7671 46.7232 38.5942 46.524C38.4214 46.3218 38.1533 46.2208 37.79 46.2208C37.6582 46.2208 37.5322 46.2457 37.4121 46.2955C37.292 46.3453 37.1792 46.4214 37.0737 46.524C36.9712 46.6236 36.8892 46.7642 36.8276 46.9459C36.7661 47.1246 36.7354 47.3326 36.7354 47.5699ZM44.5884 45.4122C45.0425 45.4122 45.4058 45.4839 45.6782 45.6275L45.8584 46.6778H45.8408C45.4395 46.379 45.0132 46.2296 44.562 46.2296C44.1929 46.2296 43.8882 46.3541 43.6479 46.6031C43.4106 46.8521 43.292 47.2227 43.292 47.7149C43.292 48.2686 43.4136 48.689 43.6567 48.9761C43.9028 49.2632 44.2339 49.4068 44.6499 49.4068C44.8667 49.4068 45.0688 49.3702 45.2563 49.2969C45.4438 49.2237 45.6416 49.1226 45.8496 48.9937H45.8672L45.7749 49.6221C45.6548 49.7422 45.4805 49.8506 45.252 49.9473C45.0264 50.0411 44.7905 50.088 44.5444 50.088C43.9116 50.088 43.396 49.8638 42.9976 49.4156C42.5991 48.9644 42.3999 48.3917 42.3999 47.6973C42.3999 47.3282 42.4585 46.9957 42.5757 46.6998C42.6958 46.4039 42.8584 46.1636 43.0635 45.9791C43.2686 45.7945 43.5 45.6539 43.7578 45.5572C44.0186 45.4605 44.2954 45.4122 44.5884 45.4122ZM48.8071 46.3087C48.5024 46.2999 48.1626 46.4258 47.7876 46.6866L47.8887 50.0001H46.8911L47.0142 46.1856L46.8911 43.0699H47.8887L47.77 46.1856V46.2032L47.9502 46.0494C48.1904 45.8502 48.4189 45.6934 48.6357 45.5792C48.8555 45.4649 49.0737 45.4092 49.2905 45.4122C49.6978 45.4092 50.0098 45.5543 50.2266 45.8472C50.4434 46.1402 50.5605 46.546 50.5781 47.0645L50.6792 50.0001H49.6772L49.752 47.3633C49.7637 46.9561 49.6875 46.6778 49.5234 46.5284C49.3594 46.376 49.1206 46.3028 48.8071 46.3087ZM53.4258 49.4332C53.6807 49.4332 53.978 49.3013 54.3179 49.0377L54.3442 48.2554C54.1274 48.1353 53.8755 48.0753 53.5884 48.0753C53.313 48.0753 53.0947 48.1353 52.9336 48.2554C52.7754 48.3755 52.6963 48.5425 52.6963 48.7564C52.6963 48.9586 52.7622 49.1226 52.894 49.2486C53.0288 49.3716 53.2061 49.4332 53.4258 49.4332ZM54.2915 50.0001L54.3003 49.5782C53.8462 49.918 53.4624 50.088 53.1489 50.088C52.73 50.088 52.4019 49.9678 52.1646 49.7276C51.9272 49.4874 51.8086 49.1856 51.8086 48.8223C51.8086 48.6026 51.8496 48.4092 51.9316 48.2422C52.0137 48.0753 52.1206 47.942 52.2524 47.8423C52.3843 47.7398 52.5425 47.6563 52.7271 47.5919C52.9146 47.5274 53.1021 47.4835 53.2896 47.46C53.4771 47.4366 53.6792 47.4249 53.896 47.4249C53.978 47.4249 54.1333 47.4307 54.3618 47.4424L54.3706 47.2095C54.3765 46.9986 54.3574 46.8228 54.3135 46.6822C54.2725 46.5416 54.2065 46.4376 54.1157 46.3702C54.0249 46.2999 53.9282 46.2515 53.8257 46.2252C53.7261 46.1988 53.6045 46.1856 53.4609 46.1856C53.0625 46.1856 52.5835 46.3116 52.0239 46.5635H52.0063L52.1777 45.5089C52.79 45.4444 53.2603 45.4122 53.5884 45.4122C54.104 45.4122 54.4966 45.5587 54.7661 45.8516C55.0386 46.1417 55.1836 46.546 55.2012 47.0645L55.2979 50.0001H54.2915ZM60.3999 52.2501H59.4199L59.4551 49.6046C59.0479 49.9268 58.6553 50.088 58.2773 50.088C57.8877 50.088 57.5449 49.9781 57.249 49.7584C56.9561 49.5386 56.7363 49.253 56.5898 48.9014C56.4463 48.5499 56.3745 48.1602 56.3745 47.7325C56.3745 47.0118 56.5781 46.4449 56.9854 46.0318C57.3926 45.6187 57.9097 45.4122 58.5366 45.4122C58.8911 45.4122 59.2061 45.4708 59.4814 45.588L60.3647 45.5001H60.3823L60.2812 46.5987L60.3999 52.2501ZM58.563 49.4068C58.8647 49.4068 59.165 49.3013 59.4639 49.0904L59.499 46.48C59.2295 46.313 58.9204 46.2296 58.5718 46.2296C58.3433 46.2296 58.1426 46.272 57.9697 46.357C57.7998 46.439 57.665 46.5533 57.5654 46.6998C57.4688 46.8433 57.3955 47.003 57.3457 47.1788C57.2988 47.3516 57.2754 47.5391 57.2754 47.7413C57.2754 48.2774 57.3853 48.689 57.605 48.9761C57.8276 49.2632 58.147 49.4068 58.563 49.4068ZM64.3418 49.4771C63.8584 49.8843 63.4146 50.088 63.0103 50.088C62.6353 50.088 62.3467 49.9415 62.1445 49.6485C61.9453 49.3526 61.8413 48.9512 61.8325 48.4444L61.8062 46.6778L61.6172 45.5176V45.5001H62.7158L62.6587 48.1456C62.6499 48.5323 62.7158 48.8033 62.8564 48.9586C63 49.1138 63.2109 49.1915 63.4893 49.1915C63.8262 49.1915 64.1733 49.0684 64.5308 48.8223L64.4429 45.5001H65.4492L65.3438 48.8223L65.5063 49.9825V50.0001H64.5703L64.5527 49.2969L64.3418 49.4771ZM70.1074 49.6309C69.7852 49.9356 69.3091 50.088 68.6792 50.088C68.3364 50.088 68.0273 50.022 67.752 49.8902C67.4795 49.7584 67.2598 49.5811 67.0928 49.3585C66.9258 49.1358 66.7983 48.8868 66.7104 48.6114C66.6226 48.336 66.5786 48.046 66.5786 47.7413C66.5786 47.3633 66.6313 47.025 66.7368 46.7261C66.8452 46.4244 66.9917 46.1797 67.1763 45.9922C67.3608 45.8018 67.5703 45.6583 67.8047 45.5616C68.0391 45.462 68.2881 45.4122 68.5518 45.4122C69.2021 45.4122 69.6885 45.6422 70.0107 46.1021C70.3359 46.5591 70.4561 47.1978 70.3711 48.0181H67.4795C67.5234 48.4547 67.6567 48.796 67.8794 49.0421C68.105 49.2852 68.4521 49.4068 68.9209 49.4068C69.3018 49.4068 69.7222 49.272 70.1821 49.0025H70.1997L70.1074 49.6309ZM67.4795 47.5699L69.5581 47.3018C69.5845 46.9825 69.5112 46.7232 69.3384 46.524C69.1655 46.3218 68.8975 46.2208 68.5342 46.2208C68.4023 46.2208 68.2764 46.2457 68.1562 46.2955C68.0361 46.3453 67.9233 46.4214 67.8179 46.524C67.7153 46.6236 67.6333 46.7642 67.5718 46.9459C67.5103 47.1246 67.4795 47.3326 67.4795 47.5699ZM78.5625 50.088C77.8389 50.088 77.2866 49.8126 76.9058 49.2618C76.5132 49.8126 75.9624 50.088 75.2534 50.088C74.814 50.088 74.4316 49.9781 74.1064 49.7584C73.7842 49.5357 73.5425 49.2457 73.3813 48.8882C73.2231 48.5279 73.144 48.1251 73.144 47.6797C73.144 47.2608 73.2246 46.8814 73.3857 46.5416C73.5469 46.2017 73.7886 45.9293 74.1108 45.7242C74.436 45.5162 74.8169 45.4122 75.2534 45.4122C75.9653 45.4122 76.5132 45.6729 76.897 46.1944C77.0786 45.9395 77.3042 45.7462 77.5737 45.6143C77.8433 45.4796 78.1318 45.4122 78.4395 45.4122C79.0898 45.4122 79.5762 45.6422 79.8984 46.1021C80.2207 46.5591 80.3394 47.1978 80.2544 48.0181H77.3672C77.4111 48.4547 77.5444 48.796 77.7671 49.0421C77.9927 49.2852 78.3398 49.4068 78.8086 49.4068C79.0371 49.4068 79.2495 49.3716 79.4458 49.3013C79.645 49.2281 79.8516 49.1285 80.0654 49.0025H80.083L79.9951 49.6309C79.6729 49.9356 79.1953 50.088 78.5625 50.088ZM77.3672 47.5699L79.4458 47.3018C79.4722 46.9825 79.3989 46.7232 79.2261 46.524C79.0532 46.3218 78.7852 46.2208 78.4219 46.2208C78.29 46.2208 78.1641 46.2457 78.0439 46.2955C77.9238 46.3453 77.811 46.4214 77.7056 46.524C77.603 46.6236 77.521 46.7642 77.4595 46.9459C77.3979 47.1246 77.3672 47.3326 77.3672 47.5699ZM74.3481 48.9322C74.5562 49.2486 74.8579 49.4068 75.2534 49.4068C75.6489 49.4068 75.9492 49.2486 76.1543 48.9322C76.3623 48.6158 76.4663 48.2042 76.4663 47.6973C76.4663 47.2842 76.3579 46.9371 76.1411 46.6558C75.9272 46.3716 75.6313 46.2296 75.2534 46.2296C74.8726 46.2296 74.5737 46.3702 74.3569 46.6514C74.1431 46.9327 74.0361 47.2813 74.0361 47.6973C74.0361 48.2012 74.1401 48.6129 74.3481 48.9322ZM84.0469 49.4771C83.5635 49.8843 83.1196 50.088 82.7153 50.088C82.3403 50.088 82.0518 49.9415 81.8496 49.6485C81.6504 49.3526 81.5464 48.9512 81.5376 48.4444L81.5112 46.6778L81.3223 45.5176V45.5001H82.4209L82.3638 48.1456C82.355 48.5323 82.4209 48.8033 82.5615 48.9586C82.7051 49.1138 82.916 49.1915 83.1943 49.1915C83.5312 49.1915 83.8784 49.0684 84.2358 48.8223L84.1479 45.5001H85.1543L85.0488 48.8223L85.2114 49.9825V50.0001H84.2754L84.2578 49.2969L84.0469 49.4771ZM88.2568 50.088H87.7954L85.8794 45.5176V45.5001H86.9341L88.1733 49.0377L89.2368 45.5001H90.3091V45.5176L88.2568 50.088ZM92.981 46.3658C92.8228 46.3658 92.6514 46.4009 92.4668 46.4713C92.2822 46.5416 92.1123 46.6295 91.957 46.7349L92.0449 50.0001H91.0386L91.144 46.6778L90.9814 45.5176V45.5001H91.9175L91.9351 46.2383L92.1636 46.0494C92.1812 46.0347 92.2207 46.001 92.2822 45.9483C92.3467 45.8956 92.3892 45.8604 92.4097 45.8428C92.4302 45.8253 92.4683 45.7945 92.5239 45.7505C92.5825 45.7037 92.625 45.6714 92.6514 45.6539C92.6807 45.6363 92.7217 45.6114 92.7744 45.5792C92.8271 45.544 92.8711 45.5206 92.9062 45.5089C92.9414 45.4942 92.9824 45.4781 93.0293 45.4605C93.0791 45.44 93.126 45.4268 93.1699 45.421C93.2139 45.4151 93.2593 45.4122 93.3062 45.4122C93.4614 45.4122 93.5815 45.418 93.6665 45.4297L93.8467 46.546H93.8291C93.5859 46.4258 93.3032 46.3658 92.981 46.3658ZM97.8193 49.6309C97.4971 49.9356 97.021 50.088 96.3911 50.088C96.0483 50.088 95.7393 50.022 95.4639 49.8902C95.1914 49.7584 94.9717 49.5811 94.8047 49.3585C94.6377 49.1358 94.5103 48.8868 94.4224 48.6114C94.3345 48.336 94.2905 48.046 94.2905 47.7413C94.2905 47.3633 94.3433 47.025 94.4487 46.7261C94.5571 46.4244 94.7036 46.1797 94.8882 45.9922C95.0728 45.8018 95.2822 45.6583 95.5166 45.5616C95.751 45.462 96 45.4122 96.2637 45.4122C96.9141 45.4122 97.4004 45.6422 97.7227 46.1021C98.0479 46.5591 98.168 47.1978 98.083 48.0181H95.1914C95.2354 48.4547 95.3687 48.796 95.5913 49.0421C95.8169 49.2852 96.1641 49.4068 96.6328 49.4068C97.0137 49.4068 97.4341 49.272 97.894 49.0025H97.9116L97.8193 49.6309ZM95.1914 47.5699L97.27 47.3018C97.2964 46.9825 97.2231 46.7232 97.0503 46.524C96.8774 46.3218 96.6094 46.2208 96.2461 46.2208C96.1143 46.2208 95.9883 46.2457 95.8682 46.2955C95.748 46.3453 95.6353 46.4214 95.5298 46.524C95.4272 46.6236 95.3452 46.7642 95.2837 46.9459C95.2222 47.1246 95.1914 47.3326 95.1914 47.5699ZM4.01367 61.6309C3.69141 61.9356 3.21533 62.088 2.58545 62.088C2.24268 62.088 1.93359 62.022 1.6582 61.8902C1.38574 61.7584 1.16602 61.5811 0.999023 61.3585C0.832031 61.1358 0.70459 60.8868 0.616699 60.6114C0.528809 60.336 0.484863 60.046 0.484863 59.7413C0.484863 59.3633 0.537598 59.025 0.643066 58.7261C0.751465 58.4244 0.897949 58.1797 1.08252 57.9922C1.26709 57.8018 1.47656 57.6583 1.71094 57.5616C1.94531 57.462 2.19434 57.4122 2.45801 57.4122C3.1084 57.4122 3.59473 57.6422 3.91699 58.1021C4.24219 58.5591 4.3623 59.1978 4.27734 60.0181H1.38574C1.42969 60.4547 1.56299 60.796 1.78564 61.0421C2.01123 61.2852 2.3584 61.4068 2.82715 61.4068C3.20801 61.4068 3.62842 61.272 4.08838 61.0025H4.10596L4.01367 61.6309ZM1.38574 59.5699L3.46436 59.3018C3.49072 58.9825 3.41748 58.7232 3.24463 58.524C3.07178 58.3218 2.80371 58.2208 2.44043 58.2208C2.30859 58.2208 2.18262 58.2457 2.0625 58.2955C1.94238 58.3453 1.82959 58.4214 1.72412 58.524C1.62158 58.6236 1.53955 58.7642 1.47803 58.9459C1.4165 59.1246 1.38574 59.3326 1.38574 59.5699ZM7.40186 58.3087C7.10303 58.2999 6.77051 58.4229 6.4043 58.6778L6.49219 62.0001H5.48584L5.59131 58.6778L5.42871 57.5176V57.5001H6.36475L6.38232 58.1944L6.55371 58.0494C7.05762 57.6246 7.50586 57.4122 7.89844 57.4122C8.30566 57.4122 8.61621 57.5587 8.83008 57.8516C9.04688 58.1417 9.16406 58.546 9.18164 59.0645L9.28271 62.0001H8.27637L8.35547 59.3633C8.36719 58.9561 8.28955 58.6778 8.12256 58.5284C7.95557 58.376 7.71533 58.3028 7.40186 58.3087ZM14.3979 57.4122C14.8521 57.4122 15.2153 57.4839 15.4878 57.6275L15.668 58.6778H15.6504C15.249 58.379 14.8228 58.2296 14.3716 58.2296C14.0024 58.2296 13.6978 58.3541 13.4575 58.6031C13.2202 58.8521 13.1016 59.2227 13.1016 59.7149C13.1016 60.2686 13.2231 60.689 13.4663 60.9761C13.7124 61.2632 14.0435 61.4068 14.4595 61.4068C14.6763 61.4068 14.8784 61.3702 15.0659 61.2969C15.2534 61.2237 15.4512 61.1226 15.6592 60.9937H15.6768L15.5845 61.6221C15.4644 61.7422 15.29 61.8506 15.0615 61.9473C14.8359 62.0411 14.6001 62.088 14.354 62.088C13.7212 62.088 13.2056 61.8638 12.8071 61.4156C12.4087 60.9644 12.2095 60.3917 12.2095 59.6973C12.2095 59.3282 12.2681 58.9957 12.3853 58.6998C12.5054 58.4039 12.668 58.1636 12.873 57.9791C13.0781 57.7945 13.3096 57.6539 13.5674 57.5572C13.8281 57.4605 14.105 57.4122 14.3979 57.4122ZM16.7095 62.0001L16.8325 58.1856L16.7095 55.0699H17.707L17.5884 58.1856L17.707 62.0001H16.7095ZM19.5483 55.6192C19.7124 55.6192 19.8472 55.6661 19.9526 55.7598C20.061 55.8506 20.1152 55.9752 20.1152 56.1334C20.1152 56.3004 20.061 56.4337 19.9526 56.5333C19.8472 56.6329 19.7124 56.6827 19.5483 56.6827C19.3931 56.6827 19.2612 56.6329 19.1528 56.5333C19.0444 56.4337 18.9902 56.3004 18.9902 56.1334C18.9902 55.9752 19.0444 55.8506 19.1528 55.7598C19.2612 55.6661 19.3931 55.6192 19.5483 55.6192ZM19.0078 57.5001H19.9438V57.5176L20.0713 62.0001H19.0649L19.1704 58.6778L19.0078 57.5176V57.5001ZM25.2261 64.2501H24.2461L24.2812 61.6046C23.874 61.9268 23.4814 62.088 23.1035 62.088C22.7139 62.088 22.3711 61.9781 22.0752 61.7584C21.7822 61.5386 21.5625 61.253 21.416 60.9014C21.2725 60.5499 21.2007 60.1602 21.2007 59.7325C21.2007 59.0118 21.4043 58.4449 21.8115 58.0318C22.2188 57.6187 22.7358 57.4122 23.3628 57.4122C23.7173 57.4122 24.0322 57.4708 24.3076 57.588L25.1909 57.5001H25.2085L25.1074 58.5987L25.2261 64.2501ZM23.3892 61.4068C23.6909 61.4068 23.9912 61.3013 24.29 61.0904L24.3252 58.48C24.0557 58.313 23.7466 58.2296 23.3979 58.2296C23.1694 58.2296 22.9688 58.272 22.7959 58.357C22.626 58.439 22.4912 58.5533 22.3916 58.6998C22.2949 58.8433 22.2217 59.003 22.1719 59.1788C22.125 59.3516 22.1016 59.5391 22.1016 59.7413C22.1016 60.2774 22.2114 60.689 22.4312 60.9761C22.6538 61.2632 22.9731 61.4068 23.3892 61.4068ZM29.168 61.4771C28.6846 61.8843 28.2407 62.088 27.8364 62.088C27.4614 62.088 27.1729 61.9415 26.9707 61.6485C26.7715 61.3526 26.6675 60.9512 26.6587 60.4444L26.6323 58.6778L26.4434 57.5176V57.5001H27.542L27.4849 60.1456C27.4761 60.5323 27.542 60.8033 27.6826 60.9586C27.8262 61.1138 28.0371 61.1915 28.3154 61.1915C28.6523 61.1915 28.9995 61.0684 29.3569 60.8223L29.269 57.5001H30.2754L30.1699 60.8223L30.3325 61.9825V62.0001H29.3965L29.3789 61.2969L29.168 61.4771ZM33.0703 61.4332C33.3252 61.4332 33.6226 61.3013 33.9624 61.0377L33.9888 60.2554C33.772 60.1353 33.52 60.0753 33.2329 60.0753C32.9575 60.0753 32.7393 60.1353 32.5781 60.2554C32.4199 60.3755 32.3408 60.5425 32.3408 60.7564C32.3408 60.9586 32.4067 61.1226 32.5386 61.2486C32.6733 61.3716 32.8506 61.4332 33.0703 61.4332ZM33.936 62.0001L33.9448 61.5782C33.4907 61.918 33.1069 62.088 32.7935 62.088C32.3745 62.088 32.0464 61.9678 31.8091 61.7276C31.5718 61.4874 31.4531 61.1856 31.4531 60.8223C31.4531 60.6026 31.4941 60.4092 31.5762 60.2422C31.6582 60.0753 31.7651 59.942 31.897 59.8423C32.0288 59.7398 32.187 59.6563 32.3716 59.5919C32.5591 59.5274 32.7466 59.4835 32.9341 59.46C33.1216 59.4366 33.3237 59.4249 33.5405 59.4249C33.6226 59.4249 33.7778 59.4307 34.0063 59.4424L34.0151 59.2095C34.021 58.9986 34.002 58.8228 33.958 58.6822C33.917 58.5416 33.8511 58.4376 33.7603 58.3702C33.6694 58.2999 33.5728 58.2515 33.4702 58.2252C33.3706 58.1988 33.249 58.1856 33.1055 58.1856C32.707 58.1856 32.228 58.3116 31.6685 58.5635H31.6509L31.8223 57.5089C32.4346 57.4444 32.9048 57.4122 33.2329 57.4122C33.7485 57.4122 34.1411 57.5587 34.4106 57.8516C34.6831 58.1417 34.8281 58.546 34.8457 59.0645L34.9424 62.0001H33.936ZM38.1724 58.3087C37.8735 58.2999 37.541 58.4229 37.1748 58.6778L37.2627 62.0001H36.2563L36.3618 58.6778L36.1992 57.5176V57.5001H37.1353L37.1528 58.1944L37.3242 58.0494C37.8281 57.6246 38.2764 57.4122 38.6689 57.4122C39.0762 57.4122 39.3867 57.5587 39.6006 57.8516C39.8174 58.1417 39.9346 58.546 39.9521 59.0645L40.0532 62.0001H39.0469L39.126 59.3633C39.1377 58.9561 39.0601 58.6778 38.8931 58.5284C38.7261 58.376 38.4858 58.3028 38.1724 58.3087ZM42.2944 56.4542H42.4131L42.4219 57.5264L43.771 57.4122V58.2383L42.4219 58.1285L42.4307 60.3521C42.4307 60.73 42.5054 61.001 42.6548 61.1651C42.8071 61.3262 42.9961 61.4068 43.2217 61.4068C43.4121 61.4068 43.5952 61.3643 43.771 61.2794H43.7886L43.7007 61.7759C43.6216 61.8638 43.5029 61.9385 43.3447 62.0001C43.1865 62.0587 43.0225 62.088 42.8525 62.088C42.46 62.088 42.1436 61.962 41.9033 61.71C41.6631 61.4551 41.5474 61.0963 41.5562 60.6334L41.6045 58.0582L40.9102 58.0054V57.8956L42.2944 56.4542ZM48.082 58.2032C47.8711 58.2032 47.7056 58.2442 47.5854 58.3262C47.4683 58.4053 47.4097 58.5108 47.4097 58.6426C47.4097 58.7774 47.4595 58.899 47.5591 59.0074C47.6587 59.1129 47.8301 59.2198 48.0732 59.3282L48.5347 59.5347C48.9038 59.7047 49.1689 59.8834 49.3301 60.0709C49.4941 60.2584 49.5762 60.4898 49.5762 60.7652C49.5762 61.1461 49.4429 61.4625 49.1763 61.7144C48.9126 61.9634 48.5303 62.088 48.0293 62.088C47.5312 62.088 47.105 61.9839 46.7505 61.7759L46.5791 60.796H46.5967C46.8721 61.001 47.127 61.1578 47.3613 61.2662C47.5986 61.3716 47.8447 61.4244 48.0996 61.4244C48.293 61.4244 48.4424 61.376 48.5479 61.2794C48.6562 61.1827 48.7104 61.0508 48.7104 60.8839C48.7104 60.7315 48.6592 60.6026 48.5566 60.4971C48.4541 60.3887 48.3018 60.2921 48.0996 60.2071L47.5063 59.9566C46.8589 59.6812 46.5352 59.2549 46.5352 58.6778C46.5352 58.294 46.6787 57.9879 46.9658 57.7593C47.2559 57.5279 47.6367 57.4122 48.1084 57.4122C48.5449 57.4122 48.9565 57.4927 49.3433 57.6539L49.5059 58.6778H49.4883C49.2803 58.5225 49.0518 58.4053 48.8027 58.3262C48.5537 58.2442 48.3135 58.2032 48.082 58.2032ZM53.3818 61.4771C52.8984 61.8843 52.4546 62.088 52.0503 62.088C51.6753 62.088 51.3867 61.9415 51.1846 61.6485C50.9854 61.3526 50.8813 60.9512 50.8726 60.4444L50.8462 58.6778L50.6572 57.5176V57.5001H51.7559L51.6987 60.1456C51.6899 60.5323 51.7559 60.8033 51.8965 60.9586C52.04 61.1138 52.251 61.1915 52.5293 61.1915C52.8662 61.1915 53.2134 61.0684 53.5708 60.8223L53.4829 57.5001H54.4893L54.3838 60.8223L54.5464 61.9825V62.0001H53.6104L53.5928 61.2969L53.3818 61.4771ZM57.7983 58.3658C57.6401 58.3658 57.4688 58.4009 57.2842 58.4713C57.0996 58.5416 56.9297 58.6295 56.7744 58.7349L56.8623 62.0001H55.856L55.9614 58.6778L55.7988 57.5176V57.5001H56.7349L56.7524 58.2383L56.981 58.0494C56.9985 58.0347 57.0381 58.001 57.0996 57.9483C57.1641 57.8956 57.2065 57.8604 57.2271 57.8428C57.2476 57.8253 57.2856 57.7945 57.3413 57.7505C57.3999 57.7037 57.4424 57.6714 57.4688 57.6539C57.498 57.6363 57.5391 57.6114 57.5918 57.5792C57.6445 57.544 57.6885 57.5206 57.7236 57.5089C57.7588 57.4942 57.7998 57.4781 57.8467 57.4605C57.8965 57.44 57.9434 57.4268 57.9873 57.421C58.0312 57.4151 58.0767 57.4122 58.1235 57.4122C58.2788 57.4122 58.3989 57.418 58.4839 57.4297L58.6641 58.546H58.6465C58.4033 58.4258 58.1206 58.3658 57.7983 58.3658ZM61.3228 62.0001L61.4458 58.1856L61.3228 55.0699H62.3203L62.2017 58.1856L62.3203 62.0001H61.3228ZM66.9697 61.6309C66.6475 61.9356 66.1714 62.088 65.5415 62.088C65.1987 62.088 64.8896 62.022 64.6143 61.8902C64.3418 61.7584 64.1221 61.5811 63.9551 61.3585C63.7881 61.1358 63.6606 60.8868 63.5728 60.6114C63.4849 60.336 63.4409 60.046 63.4409 59.7413C63.4409 59.3633 63.4937 59.025 63.5991 58.7261C63.7075 58.4244 63.854 58.1797 64.0386 57.9922C64.2231 57.8018 64.4326 57.6583 64.667 57.5616C64.9014 57.462 65.1504 57.4122 65.4141 57.4122C66.0645 57.4122 66.5508 57.6422 66.873 58.1021C67.1982 58.5591 67.3184 59.1978 67.2334 60.0181H64.3418C64.3857 60.4547 64.519 60.796 64.7417 61.0421C64.9673 61.2852 65.3145 61.4068 65.7832 61.4068C66.1641 61.4068 66.5845 61.272 67.0444 61.0025H67.062L66.9697 61.6309ZM64.3418 59.5699L66.4204 59.3018C66.4468 58.9825 66.3735 58.7232 66.2007 58.524C66.0278 58.3218 65.7598 58.2208 65.3965 58.2208C65.2646 58.2208 65.1387 58.2457 65.0186 58.2955C64.8984 58.3453 64.7856 58.4214 64.6802 58.524C64.5776 58.6236 64.4956 58.7642 64.4341 58.9459C64.3726 59.1246 64.3418 59.3326 64.3418 59.5699ZM69.8438 58.2032C69.6328 58.2032 69.4673 58.2442 69.3472 58.3262C69.23 58.4053 69.1714 58.5108 69.1714 58.6426C69.1714 58.7774 69.2212 58.899 69.3208 59.0074C69.4204 59.1129 69.5918 59.2198 69.835 59.3282L70.2964 59.5347C70.6655 59.7047 70.9307 59.8834 71.0918 60.0709C71.2559 60.2584 71.3379 60.4898 71.3379 60.7652C71.3379 61.1461 71.2046 61.4625 70.938 61.7144C70.6743 61.9634 70.292 62.088 69.791 62.088C69.293 62.088 68.8667 61.9839 68.5122 61.7759L68.3408 60.796H68.3584C68.6338 61.001 68.8887 61.1578 69.123 61.2662C69.3604 61.3716 69.6064 61.4244 69.8613 61.4244C70.0547 61.4244 70.2041 61.376 70.3096 61.2794C70.418 61.1827 70.4722 61.0508 70.4722 60.8839C70.4722 60.7315 70.4209 60.6026 70.3184 60.4971C70.2158 60.3887 70.0635 60.2921 69.8613 60.2071L69.2681 59.9566C68.6206 59.6812 68.2969 59.2549 68.2969 58.6778C68.2969 58.294 68.4404 57.9879 68.7275 57.7593C69.0176 57.5279 69.3984 57.4122 69.8701 57.4122C70.3066 57.4122 70.7183 57.4927 71.105 57.6539L71.2676 58.6778H71.25C71.042 58.5225 70.8135 58.4053 70.5645 58.3262C70.3154 58.2442 70.0752 58.2032 69.8438 58.2032ZM75.4072 58.1021L75.5259 62.0001H74.5283L74.6514 58.1021H73.9043V57.4122L74.625 57.5001L74.6074 56.9332C74.6016 56.8013 74.6045 56.671 74.6162 56.5421C74.6309 56.4102 74.6558 56.2725 74.6909 56.129C74.729 55.9825 74.7847 55.8492 74.8579 55.7291C74.9341 55.606 75.0249 55.4947 75.1304 55.3951C75.2358 55.2925 75.3721 55.2134 75.5391 55.1578C75.7061 55.0992 75.8936 55.0699 76.1016 55.0699C76.3506 55.0699 76.5337 55.0875 76.6509 55.1226L76.8311 55.9883H76.8135C76.5498 55.8858 76.3359 55.8345 76.1719 55.8345C76.0518 55.8345 75.9478 55.855 75.8599 55.8961C75.7749 55.9371 75.7046 55.9927 75.6489 56.063C75.5962 56.1304 75.5522 56.2213 75.5171 56.3355C75.4849 56.4468 75.4614 56.5626 75.4468 56.6827C75.4321 56.8028 75.4219 56.9464 75.416 57.1133V57.5089L76.6772 57.4122V58.1021H75.4072ZM79.2524 57.4122C79.5806 57.4122 79.8794 57.4722 80.1489 57.5923C80.4185 57.7125 80.6396 57.8765 80.8125 58.0845C80.9883 58.2896 81.123 58.5298 81.2168 58.8052C81.3105 59.0777 81.3574 59.3692 81.3574 59.6797C81.3574 60.0137 81.3105 60.3257 81.2168 60.6158C81.123 60.9058 80.9897 61.1607 80.8169 61.3804C80.644 61.6002 80.4229 61.773 80.1533 61.899C79.8838 62.025 79.5835 62.088 79.2524 62.088C78.813 62.088 78.4307 61.9781 78.1055 61.7584C77.7832 61.5357 77.5415 61.2457 77.3804 60.8882C77.2222 60.5279 77.1431 60.1251 77.1431 59.6797C77.1431 59.2608 77.2236 58.8814 77.3848 58.5416C77.5459 58.2017 77.7876 57.9293 78.1099 57.7242C78.4351 57.5162 78.8159 57.4122 79.2524 57.4122ZM78.3472 60.9322C78.5552 61.2486 78.8569 61.4068 79.2524 61.4068C79.6479 61.4068 79.9482 61.2486 80.1533 60.9322C80.3613 60.6158 80.4653 60.2042 80.4653 59.6973C80.4653 59.2842 80.3569 58.9371 80.1401 58.6558C79.9263 58.3716 79.6304 58.2296 79.2524 58.2296C78.8716 58.2296 78.5728 58.3702 78.356 58.6514C78.1421 58.9327 78.0352 59.2813 78.0352 59.6973C78.0352 60.2012 78.1392 60.6129 78.3472 60.9322ZM84.438 58.3658C84.2798 58.3658 84.1084 58.4009 83.9238 58.4713C83.7393 58.5416 83.5693 58.6295 83.4141 58.7349L83.502 62.0001H82.4956L82.6011 58.6778L82.4385 57.5176V57.5001H83.3745L83.3921 58.2383L83.6206 58.0494C83.6382 58.0347 83.6777 58.001 83.7393 57.9483C83.8037 57.8956 83.8462 57.8604 83.8667 57.8428C83.8872 57.8253 83.9253 57.7945 83.981 57.7505C84.0396 57.7037 84.082 57.6714 84.1084 57.6539C84.1377 57.6363 84.1787 57.6114 84.2314 57.5792C84.2842 57.544 84.3281 57.5206 84.3633 57.5089C84.3984 57.4942 84.4395 57.4781 84.4863 57.4605C84.5361 57.44 84.583 57.4268 84.627 57.421C84.6709 57.4151 84.7163 57.4122 84.7632 57.4122C84.9185 57.4122 85.0386 57.418 85.1235 57.4297L85.3037 58.546H85.2861C85.043 58.4258 84.7603 58.3658 84.438 58.3658ZM87.9844 58.3174C87.6826 58.3174 87.3838 58.4317 87.0879 58.6602L87.1758 62.0001H86.1694L86.2749 58.669L86.1123 57.5176V57.5001H87.0483L87.0659 58.1856L87.2109 58.0582C87.4453 57.856 87.6636 57.6978 87.8657 57.5836C88.0708 57.4693 88.2788 57.4122 88.4897 57.4122C89.0376 57.4122 89.4067 57.6993 89.5972 58.2735L89.8389 58.0582C90.0732 57.856 90.2915 57.6978 90.4937 57.5836C90.6987 57.4693 90.9067 57.4122 91.1177 57.4122C91.5073 57.4122 91.8062 57.5587 92.0142 57.8516C92.2222 58.1446 92.335 58.546 92.3525 59.0557L92.4492 62.0001H91.4429L91.522 59.3546C91.5278 59.1465 91.5117 58.9737 91.4736 58.836C91.4355 58.6954 91.3726 58.5884 91.2847 58.5152C91.1997 58.442 91.1045 58.3907 90.999 58.3614C90.8936 58.3321 90.7646 58.3174 90.6123 58.3174C90.3076 58.3174 89.9985 58.4346 89.6851 58.669C89.7026 58.8008 89.7158 58.9297 89.7246 59.0557L89.8125 62.0001H88.8062L88.894 59.3546C88.8999 59.1465 88.8838 58.9737 88.8457 58.836C88.8076 58.6954 88.7446 58.5884 88.6567 58.5152C88.5718 58.442 88.4766 58.3907 88.3711 58.3614C88.2656 58.3321 88.1367 58.3174 87.9844 58.3174ZM97.0547 61.6309C96.7324 61.9356 96.2563 62.088 95.6265 62.088C95.2837 62.088 94.9746 62.022 94.6992 61.8902C94.4268 61.7584 94.207 61.5811 94.04 61.3585C93.873 61.1358 93.7456 60.8868 93.6577 60.6114C93.5698 60.336 93.5259 60.046 93.5259 59.7413C93.5259 59.3633 93.5786 59.025 93.6841 58.7261C93.7925 58.4244 93.939 58.1797 94.1235 57.9922C94.3081 57.8018 94.5176 57.6583 94.752 57.5616C94.9863 57.462 95.2354 57.4122 95.499 57.4122C96.1494 57.4122 96.6357 57.6422 96.958 58.1021C97.2832 58.5591 97.4033 59.1978 97.3184 60.0181H94.4268C94.4707 60.4547 94.604 60.796 94.8267 61.0421C95.0522 61.2852 95.3994 61.4068 95.8682 61.4068C96.249 61.4068 96.6694 61.272 97.1294 61.0025H97.147L97.0547 61.6309ZM94.4268 59.5699L96.5054 59.3018C96.5317 58.9825 96.4585 58.7232 96.2856 58.524C96.1128 58.3218 95.8447 58.2208 95.4814 58.2208C95.3496 58.2208 95.2236 58.2457 95.1035 58.2955C94.9834 58.3453 94.8706 58.4214 94.7651 58.524C94.6626 58.6236 94.5806 58.7642 94.519 58.9459C94.4575 59.1246 94.4268 59.3326 94.4268 59.5699ZM99.9287 58.2032C99.7178 58.2032 99.5522 58.2442 99.4321 58.3262C99.3149 58.4053 99.2563 58.5108 99.2563 58.6426C99.2563 58.7774 99.3062 58.899 99.4058 59.0074C99.5054 59.1129 99.6768 59.2198 99.9199 59.3282L100.381 59.5347C100.75 59.7047 101.016 59.8834 101.177 60.0709C101.341 60.2584 101.423 60.4898 101.423 60.7652C101.423 61.1461 101.29 61.4625 101.023 61.7144C100.759 61.9634 100.377 62.088 99.876 62.088C99.3779 62.088 98.9517 61.9839 98.5972 61.7759L98.4258 60.796H98.4434C98.7188 61.001 98.9736 61.1578 99.208 61.2662C99.4453 61.3716 99.6914 61.4244 99.9463 61.4244C100.14 61.4244 100.289 61.376 100.395 61.2794C100.503 61.1827 100.557 61.0508 100.557 60.8839C100.557 60.7315 100.506 60.6026 100.403 60.4971C100.301 60.3887 100.148 60.2921 99.9463 60.2071L99.353 59.9566C98.7056 59.6812 98.3818 59.2549 98.3818 58.6778C98.3818 58.294 98.5254 57.9879 98.8125 57.7593C99.1025 57.5279 99.4834 57.4122 99.9551 57.4122C100.392 57.4122 100.803 57.4927 101.19 57.6539L101.353 58.6778H101.335C101.127 58.5225 100.898 58.4053 100.649 58.3262C100.4 58.2442 100.16 58.2032 99.9287 58.2032ZM12.6313 69.4122C13.0854 69.4122 13.4487 69.4839 13.7212 69.6275L13.9014 70.6778H13.8838C13.4824 70.379 13.0562 70.2296 12.605 70.2296C12.2358 70.2296 11.9312 70.3541 11.6909 70.6031C11.4536 70.8521 11.335 71.2227 11.335 71.7149C11.335 72.2686 11.4565 72.689 11.6997 72.9761C11.9458 73.2632 12.2769 73.4068 12.6929 73.4068C12.9097 73.4068 13.1118 73.3702 13.2993 73.2969C13.4868 73.2237 13.6846 73.1226 13.8926 72.9937H13.9102L13.8179 73.6221C13.6978 73.7422 13.5234 73.8506 13.2949 73.9473C13.0693 74.0411 12.8335 74.088 12.5874 74.088C11.9546 74.088 11.439 73.8638 11.0405 73.4156C10.6421 72.9644 10.4429 72.3917 10.4429 71.6973C10.4429 71.3282 10.5015 70.9957 10.6187 70.6998C10.7388 70.4039 10.9014 70.1636 11.1064 69.9791C11.3115 69.7945 11.543 69.6539 11.8008 69.5572C12.0615 69.4605 12.3384 69.4122 12.6313 69.4122ZM16.8237 69.4122C17.1519 69.4122 17.4507 69.4722 17.7202 69.5923C17.9897 69.7125 18.2109 69.8765 18.3838 70.0845C18.5596 70.2896 18.6943 70.5298 18.7881 70.8052C18.8818 71.0777 18.9287 71.3692 18.9287 71.6797C18.9287 72.0137 18.8818 72.3257 18.7881 72.6158C18.6943 72.9058 18.561 73.1607 18.3882 73.3804C18.2153 73.6002 17.9941 73.773 17.7246 73.899C17.4551 74.025 17.1548 74.088 16.8237 74.088C16.3843 74.088 16.002 73.9781 15.6768 73.7584C15.3545 73.5357 15.1128 73.2457 14.9517 72.8882C14.7935 72.5279 14.7144 72.1251 14.7144 71.6797C14.7144 71.2608 14.7949 70.8814 14.9561 70.5416C15.1172 70.2017 15.3589 69.9293 15.6812 69.7242C16.0063 69.5162 16.3872 69.4122 16.8237 69.4122ZM15.9185 72.9322C16.1265 73.2486 16.4282 73.4068 16.8237 73.4068C17.2192 73.4068 17.5195 73.2486 17.7246 72.9322C17.9326 72.6158 18.0366 72.2042 18.0366 71.6973C18.0366 71.2842 17.9282 70.9371 17.7114 70.6558C17.4976 70.3716 17.2017 70.2296 16.8237 70.2296C16.4429 70.2296 16.144 70.3702 15.9272 70.6514C15.7134 70.9327 15.6064 71.2813 15.6064 71.6973C15.6064 72.2012 15.7104 72.6129 15.9185 72.9322ZM20.0581 74.0001L20.1812 70.1856L20.0581 67.0699H21.0557L20.937 70.1856L21.0557 74.0001H20.0581ZM24.2856 69.4122C24.6138 69.4122 24.9126 69.4722 25.1821 69.5923C25.4517 69.7125 25.6729 69.8765 25.8457 70.0845C26.0215 70.2896 26.1562 70.5298 26.25 70.8052C26.3438 71.0777 26.3906 71.3692 26.3906 71.6797C26.3906 72.0137 26.3438 72.3257 26.25 72.6158C26.1562 72.9058 26.0229 73.1607 25.8501 73.3804C25.6772 73.6002 25.4561 73.773 25.1865 73.899C24.917 74.025 24.6167 74.088 24.2856 74.088C23.8462 74.088 23.4639 73.9781 23.1387 73.7584C22.8164 73.5357 22.5747 73.2457 22.4136 72.8882C22.2554 72.5279 22.1763 72.1251 22.1763 71.6797C22.1763 71.2608 22.2568 70.8814 22.418 70.5416C22.5791 70.2017 22.8208 69.9293 23.1431 69.7242C23.4683 69.5162 23.8491 69.4122 24.2856 69.4122ZM23.3804 72.9322C23.5884 73.2486 23.8901 73.4068 24.2856 73.4068C24.6812 73.4068 24.9814 73.2486 25.1865 72.9322C25.3945 72.6158 25.4985 72.2042 25.4985 71.6973C25.4985 71.2842 25.3901 70.9371 25.1733 70.6558C24.9595 70.3716 24.6636 70.2296 24.2856 70.2296C23.9048 70.2296 23.606 70.3702 23.3892 70.6514C23.1753 70.9327 23.0684 71.2813 23.0684 71.6973C23.0684 72.2012 23.1724 72.6129 23.3804 72.9322ZM29.4712 70.3658C29.313 70.3658 29.1416 70.4009 28.957 70.4713C28.7725 70.5416 28.6025 70.6295 28.4473 70.7349L28.5352 74.0001H27.5288L27.6343 70.6778L27.4717 69.5176V69.5001H28.4077L28.4253 70.2383L28.6538 70.0494C28.6714 70.0347 28.7109 70.001 28.7725 69.9483C28.8369 69.8956 28.8794 69.8604 28.8999 69.8428C28.9204 69.8253 28.9585 69.7945 29.0142 69.7505C29.0728 69.7037 29.1152 69.6714 29.1416 69.6539C29.1709 69.6363 29.2119 69.6114 29.2646 69.5792C29.3174 69.544 29.3613 69.5206 29.3965 69.5089C29.4316 69.4942 29.4727 69.4781 29.5195 69.4605C29.5693 69.44 29.6162 69.4268 29.6602 69.421C29.7041 69.4151 29.7495 69.4122 29.7964 69.4122C29.9517 69.4122 30.0718 69.418 30.1567 69.4297L30.3369 70.546H30.3193C30.0762 70.4258 29.7935 70.3658 29.4712 70.3658ZM33.0396 67.1622H34.1558V67.1797L33.022 68.9068H32.4287L33.0396 67.1622ZM34.3096 73.6309C33.9873 73.9356 33.5112 74.088 32.8813 74.088C32.5386 74.088 32.2295 74.022 31.9541 73.8902C31.6816 73.7584 31.4619 73.5811 31.2949 73.3585C31.1279 73.1358 31.0005 72.8868 30.9126 72.6114C30.8247 72.336 30.7808 72.046 30.7808 71.7413C30.7808 71.3633 30.8335 71.025 30.939 70.7261C31.0474 70.4244 31.1938 70.1797 31.3784 69.9922C31.563 69.8018 31.7725 69.6583 32.0068 69.5616C32.2412 69.462 32.4902 69.4122 32.7539 69.4122C33.4043 69.4122 33.8906 69.6422 34.2129 70.1021C34.5381 70.5591 34.6582 71.1978 34.5732 72.0181H31.6816C31.7256 72.4547 31.8589 72.796 32.0815 73.0421C32.3071 73.2852 32.6543 73.4068 33.123 73.4068C33.5039 73.4068 33.9243 73.272 34.3843 73.0025H34.4019L34.3096 73.6309ZM31.6816 71.5699L33.7603 71.3018C33.7866 70.9825 33.7134 70.7232 33.5405 70.524C33.3677 70.3218 33.0996 70.2208 32.7363 70.2208C32.6045 70.2208 32.4785 70.2457 32.3584 70.2955C32.2383 70.3453 32.1255 70.4214 32.02 70.524C31.9175 70.6236 31.8354 70.7642 31.7739 70.9459C31.7124 71.1246 31.6816 71.3326 31.6816 71.5699ZM39.0732 73.6309C38.751 73.9356 38.2749 74.088 37.645 74.088C37.3022 74.088 36.9932 74.022 36.7178 73.8902C36.4453 73.7584 36.2256 73.5811 36.0586 73.3585C35.8916 73.1358 35.7642 72.8868 35.6763 72.6114C35.5884 72.336 35.5444 72.046 35.5444 71.7413C35.5444 71.3633 35.5972 71.025 35.7026 70.7261C35.811 70.4244 35.9575 70.1797 36.1421 69.9922C36.3267 69.8018 36.5361 69.6583 36.7705 69.5616C37.0049 69.462 37.2539 69.4122 37.5176 69.4122C38.168 69.4122 38.6543 69.6422 38.9766 70.1021C39.3018 70.5591 39.4219 71.1978 39.3369 72.0181H36.4453C36.4893 72.4547 36.6226 72.796 36.8452 73.0421C37.0708 73.2852 37.418 73.4068 37.8867 73.4068C38.2676 73.4068 38.688 73.272 39.1479 73.0025H39.1655L39.0732 73.6309ZM36.4453 71.5699L38.5239 71.3018C38.5503 70.9825 38.4771 70.7232 38.3042 70.524C38.1313 70.3218 37.8633 70.2208 37.5 70.2208C37.3682 70.2208 37.2422 70.2457 37.1221 70.2955C37.002 70.3453 36.8892 70.4214 36.7837 70.524C36.6812 70.6236 36.5991 70.7642 36.5376 70.9459C36.4761 71.1246 36.4453 71.3326 36.4453 71.5699ZM41.9473 70.2032C41.7363 70.2032 41.5708 70.2442 41.4507 70.3262C41.3335 70.4053 41.2749 70.5108 41.2749 70.6426C41.2749 70.7774 41.3247 70.899 41.4243 71.0074C41.5239 71.1129 41.6953 71.2198 41.9385 71.3282L42.3999 71.5347C42.769 71.7047 43.0342 71.8834 43.1953 72.0709C43.3594 72.2584 43.4414 72.4898 43.4414 72.7652C43.4414 73.1461 43.3081 73.4625 43.0415 73.7144C42.7778 73.9634 42.3955 74.088 41.8945 74.088C41.3965 74.088 40.9702 73.9839 40.6157 73.7759L40.4443 72.796H40.4619C40.7373 73.001 40.9922 73.1578 41.2266 73.2662C41.4639 73.3716 41.71 73.4244 41.9648 73.4244C42.1582 73.4244 42.3076 73.376 42.4131 73.2794C42.5215 73.1827 42.5757 73.0508 42.5757 72.8839C42.5757 72.7315 42.5244 72.6026 42.4219 72.4971C42.3193 72.3887 42.167 72.2921 41.9648 72.2071L41.3716 71.9566C40.7241 71.6812 40.4004 71.2549 40.4004 70.6778C40.4004 70.294 40.5439 69.9879 40.8311 69.7593C41.1211 69.5279 41.502 69.4122 41.9736 69.4122C42.4102 69.4122 42.8218 69.4927 43.2085 69.6539L43.3711 70.6778H43.3535C43.1455 70.5225 42.917 70.4053 42.668 70.3262C42.4189 70.2442 42.1787 70.2032 41.9473 70.2032ZM48.4204 73.4068C48.6958 73.4068 48.9712 73.316 49.2466 73.1343L49.3389 70.4625C49.0605 70.3072 48.7573 70.2296 48.4292 70.2296C48.2124 70.2296 48.019 70.272 47.8491 70.357C47.6792 70.439 47.543 70.5518 47.4404 70.6954C47.3379 70.8389 47.2603 71.0001 47.2075 71.1788C47.1577 71.3546 47.1328 71.5421 47.1328 71.7413C47.1328 72.2774 47.2427 72.689 47.4624 72.9761C47.6851 73.2632 48.0044 73.4068 48.4204 73.4068ZM49.2466 74.0001L49.2378 73.6573C48.8423 73.9444 48.4746 74.088 48.1348 74.088C47.7451 74.088 47.4023 73.9781 47.1064 73.7584C46.8135 73.5386 46.5938 73.253 46.4473 72.9014C46.3037 72.5499 46.2319 72.1602 46.2319 71.7325C46.2319 71.3721 46.2891 71.044 46.4033 70.7481C46.5205 70.4493 46.6772 70.2047 46.8735 70.0142C47.0728 69.8209 47.3027 69.6729 47.5635 69.5704C47.8242 69.4649 48.1011 69.4122 48.394 69.4122C48.7368 69.4122 49.0459 69.4708 49.3213 69.588L49.2202 67.0699H50.2222L50.1035 70.1856L50.2222 74.0001H49.2466ZM54.1641 73.4771C53.6807 73.8843 53.2368 74.088 52.8325 74.088C52.4575 74.088 52.1689 73.9415 51.9668 73.6485C51.7676 73.3526 51.6636 72.9512 51.6548 72.4444L51.6284 70.6778L51.4395 69.5176V69.5001H52.5381L52.481 72.1456C52.4722 72.5323 52.5381 72.8033 52.6787 72.9586C52.8223 73.1138 53.0332 73.1915 53.3115 73.1915C53.6484 73.1915 53.9956 73.0684 54.353 72.8223L54.2651 69.5001H55.2715L55.166 72.8223L55.3286 73.9825V74.0001H54.3926L54.375 73.2969L54.1641 73.4771ZM59.3188 68.4542H59.4375L59.4463 69.5264L60.7954 69.4122V70.2383L59.4463 70.1285L59.4551 72.3521C59.4551 72.73 59.5298 73.001 59.6792 73.1651C59.8315 73.3262 60.0205 73.4068 60.2461 73.4068C60.4365 73.4068 60.6196 73.3643 60.7954 73.2794H60.813L60.7251 73.7759C60.646 73.8638 60.5273 73.9385 60.3691 74.0001C60.2109 74.0587 60.0469 74.088 59.877 74.088C59.4844 74.088 59.168 73.962 58.9277 73.71C58.6875 73.4551 58.5718 73.0963 58.5806 72.6334L58.6289 70.0582L57.9346 70.0054V69.8956L59.3188 68.4542ZM63.3311 73.4332C63.5859 73.4332 63.8833 73.3013 64.2231 73.0377L64.2495 72.2554C64.0327 72.1353 63.7808 72.0753 63.4937 72.0753C63.2183 72.0753 63 72.1353 62.8389 72.2554C62.6807 72.3755 62.6016 72.5425 62.6016 72.7564C62.6016 72.9586 62.6675 73.1226 62.7993 73.2486C62.9341 73.3716 63.1113 73.4332 63.3311 73.4332ZM64.1968 74.0001L64.2056 73.5782C63.7515 73.918 63.3677 74.088 63.0542 74.088C62.6353 74.088 62.3071 73.9678 62.0698 73.7276C61.8325 73.4874 61.7139 73.1856 61.7139 72.8223C61.7139 72.6026 61.7549 72.4092 61.8369 72.2422C61.9189 72.0753 62.0259 71.942 62.1577 71.8423C62.2896 71.7398 62.4478 71.6563 62.6323 71.5919C62.8198 71.5274 63.0073 71.4835 63.1948 71.46C63.3823 71.4366 63.5845 71.4249 63.8013 71.4249C63.8833 71.4249 64.0386 71.4307 64.2671 71.4424L64.2759 71.2095C64.2817 70.9986 64.2627 70.8228 64.2188 70.6822C64.1777 70.5416 64.1118 70.4376 64.021 70.3702C63.9302 70.2999 63.8335 70.2515 63.731 70.2252C63.6313 70.1988 63.5098 70.1856 63.3662 70.1856C62.9678 70.1856 62.4888 70.3116 61.9292 70.5635H61.9116L62.083 69.5089C62.6953 69.4444 63.1655 69.4122 63.4937 69.4122C64.0093 69.4122 64.4019 69.5587 64.6714 69.8516C64.9438 70.1417 65.0889 70.546 65.1064 71.0645L65.2031 74.0001H64.1968ZM68.4331 70.3087C68.1343 70.2999 67.8018 70.4229 67.4355 70.6778L67.5234 74.0001H66.5171L66.6226 70.6778L66.46 69.5176V69.5001H67.396L67.4136 70.1944L67.585 70.0494C68.0889 69.6246 68.5371 69.4122 68.9297 69.4122C69.3369 69.4122 69.6475 69.5587 69.8613 69.8516C70.0781 70.1417 70.1953 70.546 70.2129 71.0645L70.314 74.0001H69.3076L69.3867 71.3633C69.3984 70.9561 69.3208 70.6778 69.1538 70.5284C68.9868 70.376 68.7466 70.3028 68.4331 70.3087ZM73.6274 73.4068C73.9263 73.4068 74.2295 73.3013 74.5371 73.0904L74.5635 70.48C74.2939 70.313 73.9849 70.2296 73.6362 70.2296C73.4194 70.2296 73.2261 70.272 73.0562 70.357C72.8862 70.439 72.75 70.5518 72.6475 70.6954C72.5449 70.8389 72.4673 71.0001 72.4146 71.1788C72.3647 71.3546 72.3398 71.5421 72.3398 71.7413C72.3398 72.2774 72.4497 72.689 72.6694 72.9761C72.8921 73.2632 73.2114 73.4068 73.6274 73.4068ZM73.4121 76.338C73.0078 76.338 72.5493 76.2823 72.0366 76.171L71.7642 75.1163H71.7993C72.0776 75.2422 72.2842 75.3331 72.4189 75.3887C72.5566 75.4444 72.7207 75.4986 72.9111 75.5513C73.1045 75.6041 73.2773 75.6304 73.4297 75.6304C73.7988 75.6304 74.0698 75.5118 74.2427 75.2745C74.4185 75.0372 74.5107 74.6666 74.5195 74.1627L74.5283 73.5958C74.1152 73.9239 73.7197 74.088 73.3418 74.088C72.9521 74.088 72.6094 73.9781 72.3135 73.7584C72.0205 73.5386 71.8008 73.253 71.6543 72.9014C71.5107 72.5499 71.439 72.1602 71.439 71.7325C71.439 71.3721 71.4961 71.044 71.6104 70.7481C71.7275 70.4493 71.8843 70.2047 72.0806 70.0142C72.2798 69.8209 72.5098 69.6729 72.7705 69.5704C73.0312 69.4649 73.3081 69.4122 73.6011 69.4122C73.9585 69.4122 74.2793 69.4752 74.5635 69.6011L75.4292 69.5001H75.4468L75.3457 70.5987L75.4116 73.7847C75.4146 73.9312 75.4116 74.0704 75.4028 74.2022C75.397 74.337 75.3779 74.4937 75.3457 74.6724C75.3164 74.8511 75.2754 75.0137 75.2227 75.1602C75.1699 75.3067 75.0923 75.4547 74.9897 75.6041C74.8872 75.7564 74.7671 75.8839 74.6294 75.9864C74.4946 76.0889 74.3218 76.1724 74.1108 76.2369C73.9028 76.3043 73.6699 76.338 73.4121 76.338ZM78.7515 70.3658C78.5933 70.3658 78.4219 70.4009 78.2373 70.4713C78.0527 70.5416 77.8828 70.6295 77.7275 70.7349L77.8154 74.0001H76.8091L76.9146 70.6778L76.752 69.5176V69.5001H77.688L77.7056 70.2383L77.9341 70.0494C77.9517 70.0347 77.9912 70.001 78.0527 69.9483C78.1172 69.8956 78.1597 69.8604 78.1802 69.8428C78.2007 69.8253 78.2388 69.7945 78.2944 69.7505C78.353 69.7037 78.3955 69.6714 78.4219 69.6539C78.4512 69.6363 78.4922 69.6114 78.5449 69.5792C78.5977 69.544 78.6416 69.5206 78.6768 69.5089C78.7119 69.4942 78.7529 69.4781 78.7998 69.4605C78.8496 69.44 78.8965 69.4268 78.9404 69.421C78.9844 69.4151 79.0298 69.4122 79.0767 69.4122C79.2319 69.4122 79.3521 69.418 79.437 69.4297L79.6172 70.546H79.5996C79.3564 70.4258 79.0737 70.3658 78.7515 70.3658ZM81.9111 73.4332C82.166 73.4332 82.4634 73.3013 82.8032 73.0377L82.8296 72.2554C82.6128 72.1353 82.3608 72.0753 82.0737 72.0753C81.7983 72.0753 81.5801 72.1353 81.4189 72.2554C81.2607 72.3755 81.1816 72.5425 81.1816 72.7564C81.1816 72.9586 81.2476 73.1226 81.3794 73.2486C81.5142 73.3716 81.6914 73.4332 81.9111 73.4332ZM82.7769 74.0001L82.7856 73.5782C82.3315 73.918 81.9478 74.088 81.6343 74.088C81.2153 74.088 80.8872 73.9678 80.6499 73.7276C80.4126 73.4874 80.2939 73.1856 80.2939 72.8223C80.2939 72.6026 80.335 72.4092 80.417 72.2422C80.499 72.0753 80.606 71.942 80.7378 71.8423C80.8696 71.7398 81.0278 71.6563 81.2124 71.5919C81.3999 71.5274 81.5874 71.4835 81.7749 71.46C81.9624 71.4366 82.1646 71.4249 82.3813 71.4249C82.4634 71.4249 82.6187 71.4307 82.8472 71.4424L82.856 71.2095C82.8618 70.9986 82.8428 70.8228 82.7988 70.6822C82.7578 70.5416 82.6919 70.4376 82.6011 70.3702C82.5103 70.2999 82.4136 70.2515 82.311 70.2252C82.2114 70.1988 82.0898 70.1856 81.9463 70.1856C81.5479 70.1856 81.0688 70.3116 80.5093 70.5635H80.4917L80.6631 69.5089C81.2754 69.4444 81.7456 69.4122 82.0737 69.4122C82.5894 69.4122 82.9819 69.5587 83.2515 69.8516C83.5239 70.1417 83.6689 70.546 83.6865 71.0645L83.7832 74.0001H82.7769ZM86.9121 70.3174C86.6104 70.3174 86.3115 70.4317 86.0156 70.6602L86.1035 74.0001H85.0972L85.2026 70.669L85.04 69.5176V69.5001H85.9761L85.9937 70.1856L86.1387 70.0582C86.373 69.856 86.5913 69.6978 86.7935 69.5836C86.9985 69.4693 87.2065 69.4122 87.4175 69.4122C87.9653 69.4122 88.3345 69.6993 88.5249 70.2735L88.7666 70.0582C89.001 69.856 89.2192 69.6978 89.4214 69.5836C89.6265 69.4693 89.8345 69.4122 90.0454 69.4122C90.4351 69.4122 90.7339 69.5587 90.9419 69.8516C91.1499 70.1446 91.2627 70.546 91.2803 71.0557L91.377 74.0001H90.3706L90.4497 71.3546C90.4556 71.1465 90.4395 70.9737 90.4014 70.836C90.3633 70.6954 90.3003 70.5884 90.2124 70.5152C90.1274 70.442 90.0322 70.3907 89.9268 70.3614C89.8213 70.3321 89.6924 70.3174 89.54 70.3174C89.2354 70.3174 88.9263 70.4346 88.6128 70.669C88.6304 70.8008 88.6436 70.9297 88.6523 71.0557L88.7402 74.0001H87.7339L87.8218 71.3546C87.8276 71.1465 87.8115 70.9737 87.7734 70.836C87.7354 70.6954 87.6724 70.5884 87.5845 70.5152C87.4995 70.442 87.4043 70.3907 87.2988 70.3614C87.1934 70.3321 87.0645 70.3174 86.9121 70.3174Z" fill="black"/>
<path d="M92.055 10.5639C89.8332 17.0859 79.6536 31.0787 56.7104 34.8746" stroke="black" stroke-width="2" stroke-linecap="round"/>
<path d="M95.3781 16.0178L91.7359 10.0401L85.8316 11.8811" stroke="black" stroke-width="2" stroke-linecap="round"/>
</svg>
