<svg width="199" height="48" viewBox="0 0 199 48" fill="none" xmlns="http://www.w3.org/2000/svg">
<g filter="url(#filter0_d_2452_391)">
<rect width="189" height="38" fill="white" shape-rendering="crispEdges"/>
<rect x="0.5" y="0.5" width="188" height="37" stroke="black" shape-rendering="crispEdges"/>
<path d="M26.5244 25.1094C26.1348 25.363 25.5379 25.6073 24.7339 25.8423C23.9299 26.0711 23.132 26.1855 22.3403 26.1855C21.3198 26.1855 20.3643 26.0155 19.4736 25.6753C18.583 25.3289 17.8099 24.8434 17.1543 24.2188C16.4987 23.5941 15.9823 22.8179 15.605 21.8901C15.2339 20.9624 15.0483 19.9388 15.0483 18.8193C15.0483 16.5804 15.7287 14.8115 17.0894 13.5127C18.45 12.2139 20.2839 11.5645 22.5908 11.5645C23.6175 11.5645 24.9535 11.716 26.5986 12.019L26.9976 15.6094H26.8027C25.5286 14.6198 23.9979 14.125 22.2104 14.125C21.7899 14.125 21.3786 14.1745 20.9766 14.2734C20.5807 14.3724 20.1911 14.5394 19.8076 14.7744C19.4303 15.0033 19.0964 15.2878 18.8057 15.6279C18.5212 15.9619 18.2923 16.3887 18.1191 16.9082C17.946 17.4277 17.8594 18.006 17.8594 18.6431C17.8594 19.3729 17.9491 20.047 18.1284 20.6655C18.314 21.2778 18.5861 21.8252 18.9448 22.3076C19.3097 22.7839 19.7952 23.158 20.4014 23.4302C21.0075 23.7023 21.7033 23.8384 22.4888 23.8384C24.0226 23.8384 25.4297 23.4178 26.71 22.5767H26.9048L26.5244 25.1094ZM39.5305 26L39.8923 19.6543H33.1663L33.5281 26H30.1047L30.5408 18.5132L30.1047 11.75H33.5281L33.1477 17.8452H39.9294L39.5305 11.75H42.9446L42.5271 18.5132L42.9446 26H39.5305ZM49.7812 18.5132L50.208 26H46.7846L47.2207 18.5132L46.7846 11.75H51.5161C53.0499 11.75 54.2251 12.084 55.0415 12.752C55.8579 13.4199 56.2661 14.3075 56.2661 15.4146C56.2661 16.2557 56.0218 16.9948 55.5332 17.6318C55.0446 18.2627 54.2869 18.7389 53.2602 19.0605L58.1308 25.8145V26H54.3086L51.0615 19.4409V18.5688C51.8717 18.4328 52.4748 18.173 52.8706 17.7896C53.2726 17.4061 53.4736 16.8556 53.4736 16.1382C53.4736 15.5259 53.2262 15.0373 52.7314 14.6724C52.2366 14.3075 51.6212 14.125 50.8852 14.125H50.0503L49.7812 18.5132ZM69.0031 25.7773C68.2486 26.0495 67.4507 26.1855 66.6096 26.1855C65.7684 26.1855 64.9706 26.0526 64.216 25.7866C63.4615 25.5145 62.7997 25.1434 62.2307 24.6733C61.6617 24.1971 61.1669 23.6497 60.7463 23.0312C60.3319 22.4128 60.0165 21.7448 59.8 21.0273C59.5897 20.3037 59.4846 19.5677 59.4846 18.8193C59.4846 17.7184 59.667 16.7134 60.032 15.8042C60.3969 14.8888 60.8947 14.125 61.5256 13.5127C62.1626 12.8942 62.9172 12.4149 63.7893 12.0747C64.6613 11.7345 65.6015 11.5645 66.6096 11.5645C67.6177 11.5645 68.5578 11.7345 69.4299 12.0747C70.302 12.4149 71.0534 12.8942 71.6843 13.5127C72.3213 14.125 72.8223 14.8888 73.1872 15.8042C73.5521 16.7134 73.7346 17.7184 73.7346 18.8193C73.7346 19.5492 73.6264 20.2728 73.4099 20.9902C73.1996 21.7015 72.8842 22.3695 72.4636 22.9941C72.043 23.6126 71.5482 24.1631 70.9792 24.6455C70.4164 25.1217 69.7577 25.499 69.0031 25.7773ZM66.6096 23.9126C67.4198 23.9064 68.1527 23.6807 68.8083 23.2354C69.4701 22.79 69.9865 22.1839 70.3576 21.417C70.7349 20.6501 70.9236 19.8027 70.9236 18.875C70.9112 17.4277 70.5123 16.2743 69.7268 15.4146C68.9475 14.5487 67.9084 14.1188 66.6096 14.125C65.3108 14.1064 64.2655 14.5363 63.4738 15.4146C62.6884 16.2866 62.2956 17.4339 62.2956 18.8564C62.2956 20.279 62.7038 21.4727 63.5202 22.4375C64.3428 23.4023 65.3726 23.894 66.6096 23.9126ZM84.143 26L80.2094 17.4648L78.8735 26H75.7192L78.8178 11.75H80.1723L84.3286 21.1758L88.7539 11.75H90.1455L93.1235 26H89.9692L88.624 17.3535L84.3657 26H84.143ZM105.016 25.7773C104.262 26.0495 103.464 26.1855 102.623 26.1855C101.782 26.1855 100.984 26.0526 100.229 25.7866C99.4746 25.5145 98.8129 25.1434 98.2439 24.6733C97.6748 24.1971 97.18 23.6497 96.7595 23.0312C96.3451 22.4128 96.0297 21.7448 95.8132 21.0273C95.6029 20.3037 95.4978 19.5677 95.4978 18.8193C95.4978 17.7184 95.6802 16.7134 96.0451 15.8042C96.41 14.8888 96.9079 14.125 97.5388 13.5127C98.1758 12.8942 98.9304 12.4149 99.8024 12.0747C100.675 11.7345 101.615 11.5645 102.623 11.5645C103.631 11.5645 104.571 11.7345 105.443 12.0747C106.315 12.4149 107.067 12.8942 107.697 13.5127C108.335 14.125 108.835 14.8888 109.2 15.8042C109.565 16.7134 109.748 17.7184 109.748 18.8193C109.748 19.5492 109.64 20.2728 109.423 20.9902C109.213 21.7015 108.897 22.3695 108.477 22.9941C108.056 23.6126 107.561 24.1631 106.992 24.6455C106.43 25.1217 105.771 25.499 105.016 25.7773ZM102.623 23.9126C103.433 23.9064 104.166 23.6807 104.821 23.2354C105.483 22.79 106 22.1839 106.371 21.417C106.748 20.6501 106.937 19.8027 106.937 18.875C106.924 17.4277 106.525 16.2743 105.74 15.4146C104.961 14.5487 103.922 14.1188 102.623 14.125C101.324 14.1064 100.279 14.5363 99.487 15.4146C98.7015 16.2866 98.3088 17.4339 98.3088 18.8564C98.3088 20.279 98.717 21.4727 99.5334 22.4375C100.356 23.4023 101.386 23.894 102.623 23.9126ZM120.388 11.5645C121.025 11.5645 121.786 11.617 122.67 11.7222C123.561 11.8273 124.207 11.9325 124.609 12.0376L125.008 15.6094H124.823C124.272 15.195 123.598 14.8455 122.8 14.561C122.009 14.2703 121.118 14.125 120.128 14.125C119.467 14.125 118.86 14.2085 118.31 14.3755C117.76 14.5363 117.262 14.7899 116.816 15.1362C116.377 15.4826 116.034 15.9557 115.787 16.5557C115.539 17.1494 115.415 17.8452 115.415 18.6431C115.415 19.3853 115.518 20.0718 115.722 20.7026C115.932 21.3273 116.232 21.8747 116.622 22.3447C117.011 22.8086 117.506 23.1735 118.106 23.4395C118.706 23.7054 119.38 23.8384 120.128 23.8384C120.741 23.8384 121.325 23.7765 121.882 23.6528C122.445 23.5291 122.899 23.3498 123.246 23.1147L121.242 19.1069V18.9121H125.426L125.082 24.6733C123.641 25.6815 121.944 26.1855 119.989 26.1855C118.591 26.1855 117.339 25.8979 116.232 25.3228C115.125 24.7476 114.243 23.8971 113.588 22.7715C112.932 21.6458 112.604 20.3285 112.604 18.8193C112.604 16.5495 113.282 14.7744 114.636 13.4941C115.997 12.2077 117.914 11.5645 120.388 11.5645ZM131.548 18.5132L131.975 26H128.551L128.987 18.5132L128.551 11.75H133.283C134.817 11.75 135.992 12.084 136.808 12.752C137.625 13.4199 138.033 14.3075 138.033 15.4146C138.033 16.2557 137.789 16.9948 137.3 17.6318C136.811 18.2627 136.054 18.7389 135.027 19.0605L139.898 25.8145V26H136.075L132.828 19.4409V18.5688C133.639 18.4328 134.242 18.173 134.637 17.7896C135.039 17.4061 135.24 16.8556 135.24 16.1382C135.24 15.5259 134.993 15.0373 134.498 14.6724C134.003 14.3075 133.388 14.125 132.652 14.125H131.817L131.548 18.5132ZM149.666 20.8696L147.727 14.8301L145.844 20.8696H149.666ZM151.299 26L150.232 22.6787H145.278L144.229 26H141.038V25.8145L147.272 11.5645H148.924L154.833 25.8145V26H151.299ZM164.667 26L160.733 17.4648L159.397 26H156.243L159.341 11.75H160.696L164.852 21.1758L169.277 11.75H170.669L173.647 26H170.493L169.148 17.3535L164.889 26H164.667Z" fill="black"/>
</g>
<defs>
<filter id="filter0_d_2452_391" x="0" y="0" width="199" height="48" filterUnits="userSpaceOnUse" color-interpolation-filters="sRGB">
<feFlood flood-opacity="0" result="BackgroundImageFix"/>
<feColorMatrix in="SourceAlpha" type="matrix" values="0 0 0 0 0 0 0 0 0 0 0 0 0 0 0 0 0 0 127 0" result="hardAlpha"/>
<feOffset dx="10" dy="10"/>
<feComposite in2="hardAlpha" operator="out"/>
<feColorMatrix type="matrix" values="0 0 0 0 0 0 0 0 0 0 0 0 0 0 0 0 0 0 1 0"/>
<feBlend mode="normal" in2="BackgroundImageFix" result="effect1_dropShadow_2452_391"/>
<feBlend mode="normal" in="SourceGraphic" in2="effect1_dropShadow_2452_391" result="shape"/>
</filter>
</defs>
</svg>
