<svg width="105" height="41" viewBox="0 0 105 41" fill="none" xmlns="http://www.w3.org/2000/svg">
<path d="M51.4033 11.4336L50.3223 8.50244L49.2676 11.4336H51.4033ZM52.3569 14L51.6274 12.04H49.0522L48.3491 14H47.1978V13.9824L50.2695 7.02588H50.5815L53.4731 13.9824V14H52.3569ZM56.1274 13.4067C56.5142 13.4067 56.8071 13.2529 57.0063 12.9453C57.2056 12.6348 57.3052 12.2188 57.3052 11.6973C57.2964 11.2549 57.1924 10.9165 56.9932 10.6821C56.7969 10.4448 56.5142 10.3262 56.145 10.3262C55.8579 10.3262 55.5283 10.4346 55.1562 10.6514L55.1914 13.0728C55.4551 13.2954 55.7671 13.4067 56.1274 13.4067ZM56.0439 14.0879C55.7686 14.0879 55.4902 14.0498 55.209 13.9736L55.2441 16.25H54.2642L54.3521 10.5898L54.1938 9.51758V9.5H55.1211L55.1475 10.146C55.3965 9.92627 55.6338 9.74902 55.8594 9.61426C56.0879 9.47949 56.3208 9.41211 56.5581 9.41211C56.8364 9.41211 57.0825 9.47803 57.2964 9.60986C57.5132 9.73877 57.6846 9.91162 57.8105 10.1284C57.9365 10.3452 58.0303 10.5811 58.0918 10.8359C58.1562 11.0879 58.1885 11.3501 58.1885 11.6226C58.1885 11.7661 58.1797 11.9097 58.1621 12.0532C58.1475 12.1938 58.1182 12.3477 58.0742 12.5146C58.0332 12.6787 57.979 12.834 57.9116 12.9805C57.8442 13.127 57.7534 13.269 57.6392 13.4067C57.5278 13.5444 57.3989 13.6631 57.2524 13.7627C57.1089 13.8594 56.9331 13.9385 56.7251 14C56.52 14.0586 56.293 14.0879 56.0439 14.0879ZM61.2515 13.4067C61.6382 13.4067 61.9312 13.2529 62.1304 12.9453C62.3296 12.6348 62.4292 12.2188 62.4292 11.6973C62.4204 11.2549 62.3164 10.9165 62.1172 10.6821C61.9209 10.4448 61.6382 10.3262 61.269 10.3262C60.9819 10.3262 60.6523 10.4346 60.2803 10.6514L60.3154 13.0728C60.5791 13.2954 60.8911 13.4067 61.2515 13.4067ZM61.168 14.0879C60.8926 14.0879 60.6143 14.0498 60.333 13.9736L60.3682 16.25H59.3882L59.4761 10.5898L59.3179 9.51758V9.5H60.2451L60.2715 10.146C60.5205 9.92627 60.7578 9.74902 60.9834 9.61426C61.2119 9.47949 61.4448 9.41211 61.6821 9.41211C61.9604 9.41211 62.2065 9.47803 62.4204 9.60986C62.6372 9.73877 62.8086 9.91162 62.9346 10.1284C63.0605 10.3452 63.1543 10.5811 63.2158 10.8359C63.2803 11.0879 63.3125 11.3501 63.3125 11.6226C63.3125 11.7661 63.3037 11.9097 63.2861 12.0532C63.2715 12.1938 63.2422 12.3477 63.1982 12.5146C63.1572 12.6787 63.103 12.834 63.0356 12.9805C62.9683 13.127 62.8774 13.269 62.7632 13.4067C62.6519 13.5444 62.5229 13.6631 62.3765 13.7627C62.2329 13.8594 62.0571 13.9385 61.8491 14C61.644 14.0586 61.417 14.0879 61.168 14.0879ZM67.0303 13.4771C66.5469 13.8843 66.103 14.0879 65.6987 14.0879C65.3237 14.0879 65.0352 13.9414 64.833 13.6484C64.6338 13.3525 64.5298 12.9512 64.521 12.4443L64.4946 10.6777L64.3057 9.51758V9.5H65.4043L65.3472 12.1455C65.3384 12.5322 65.4043 12.8032 65.5449 12.9585C65.6885 13.1138 65.8994 13.1914 66.1777 13.1914C66.5146 13.1914 66.8618 13.0684 67.2192 12.8223L67.1313 9.5H68.1377L68.0322 12.8223L68.1948 13.9824V14H67.2588L67.2412 13.2969L67.0303 13.4771ZM69.9878 7.61914C70.1519 7.61914 70.2866 7.66602 70.3921 7.75977C70.5005 7.85059 70.5547 7.9751 70.5547 8.1333C70.5547 8.30029 70.5005 8.43359 70.3921 8.5332C70.2866 8.63281 70.1519 8.68262 69.9878 8.68262C69.8325 8.68262 69.7007 8.63281 69.5923 8.5332C69.4839 8.43359 69.4297 8.30029 69.4297 8.1333C69.4297 7.9751 69.4839 7.85059 69.5923 7.75977C69.7007 7.66602 69.8325 7.61914 69.9878 7.61914ZM69.4473 9.5H70.3833V9.51758L70.5107 14H69.5044L69.6099 10.6777L69.4473 9.51758V9.5ZM75.1689 13.6309C74.8467 13.9355 74.3706 14.0879 73.7407 14.0879C73.3979 14.0879 73.0889 14.022 72.8135 13.8901C72.541 13.7583 72.3213 13.5811 72.1543 13.3584C71.9873 13.1357 71.8599 12.8867 71.772 12.6113C71.6841 12.3359 71.6401 12.0459 71.6401 11.7412C71.6401 11.3633 71.6929 11.0249 71.7983 10.7261C71.9067 10.4243 72.0532 10.1797 72.2378 9.99219C72.4224 9.80176 72.6318 9.6582 72.8662 9.56152C73.1006 9.46191 73.3496 9.41211 73.6133 9.41211C74.2637 9.41211 74.75 9.64209 75.0723 10.1021C75.3975 10.5591 75.5176 11.1978 75.4326 12.0181H72.541C72.585 12.4546 72.7183 12.7959 72.9409 13.042C73.1665 13.2852 73.5137 13.4067 73.9824 13.4067C74.3633 13.4067 74.7837 13.272 75.2437 13.0024H75.2612L75.1689 13.6309ZM72.541 11.5698L74.6196 11.3018C74.646 10.9824 74.5728 10.7231 74.3999 10.5239C74.2271 10.3218 73.959 10.2207 73.5957 10.2207C73.4639 10.2207 73.3379 10.2456 73.2178 10.2954C73.0977 10.3452 72.9849 10.4214 72.8794 10.5239C72.7769 10.6235 72.6948 10.7642 72.6333 10.9458C72.5718 11.1245 72.541 11.3325 72.541 11.5698ZM78.043 10.2031C77.832 10.2031 77.6665 10.2441 77.5464 10.3262C77.4292 10.4053 77.3706 10.5107 77.3706 10.6426C77.3706 10.7773 77.4204 10.8989 77.52 11.0073C77.6196 11.1128 77.791 11.2197 78.0342 11.3281L78.4956 11.5347C78.8647 11.7046 79.1299 11.8833 79.291 12.0708C79.4551 12.2583 79.5371 12.4897 79.5371 12.7651C79.5371 13.146 79.4038 13.4624 79.1372 13.7144C78.8735 13.9634 78.4912 14.0879 77.9902 14.0879C77.4922 14.0879 77.0659 13.9839 76.7114 13.7759L76.54 12.7959H76.5576C76.833 13.001 77.0879 13.1577 77.3223 13.2661C77.5596 13.3716 77.8057 13.4243 78.0605 13.4243C78.2539 13.4243 78.4033 13.376 78.5088 13.2793C78.6172 13.1826 78.6714 13.0508 78.6714 12.8838C78.6714 12.7314 78.6201 12.6025 78.5176 12.4971C78.415 12.3887 78.2627 12.292 78.0605 12.207L77.4673 11.9565C76.8198 11.6812 76.4961 11.2549 76.4961 10.6777C76.4961 10.2939 76.6396 9.98779 76.9268 9.75928C77.2168 9.52783 77.5977 9.41211 78.0693 9.41211C78.5059 9.41211 78.9175 9.49268 79.3042 9.65381L79.4668 10.6777H79.4492C79.2412 10.5225 79.0127 10.4053 78.7637 10.3262C78.5146 10.2441 78.2744 10.2031 78.043 10.2031ZM84.4897 13.4067C84.8765 13.4067 85.1694 13.2529 85.3687 12.9453C85.5679 12.6348 85.6675 12.2188 85.6675 11.6973C85.6587 11.2549 85.5547 10.9165 85.3555 10.6821C85.1592 10.4448 84.8765 10.3262 84.5073 10.3262C84.2202 10.3262 83.8906 10.4346 83.5186 10.6514L83.5537 13.0728C83.8174 13.2954 84.1294 13.4067 84.4897 13.4067ZM84.4062 14.0879C84.1309 14.0879 83.8525 14.0498 83.5713 13.9736L83.6064 16.25H82.6265L82.7144 10.5898L82.5562 9.51758V9.5H83.4834L83.5098 10.146C83.7588 9.92627 83.9961 9.74902 84.2217 9.61426C84.4502 9.47949 84.6831 9.41211 84.9204 9.41211C85.1987 9.41211 85.4448 9.47803 85.6587 9.60986C85.8755 9.73877 86.0469 9.91162 86.1729 10.1284C86.2988 10.3452 86.3926 10.5811 86.4541 10.8359C86.5186 11.0879 86.5508 11.3501 86.5508 11.6226C86.5508 11.7661 86.542 11.9097 86.5244 12.0532C86.5098 12.1938 86.4805 12.3477 86.4365 12.5146C86.3955 12.6787 86.3413 12.834 86.2739 12.9805C86.2065 13.127 86.1157 13.269 86.0015 13.4067C85.8901 13.5444 85.7612 13.6631 85.6147 13.7627C85.4712 13.8594 85.2954 13.9385 85.0874 14C84.8823 14.0586 84.6553 14.0879 84.4062 14.0879ZM89.561 9.41211C89.8892 9.41211 90.188 9.47217 90.4575 9.59229C90.7271 9.7124 90.9482 9.87646 91.1211 10.0845C91.2969 10.2896 91.4316 10.5298 91.5254 10.8052C91.6191 11.0776 91.666 11.3691 91.666 11.6797C91.666 12.0137 91.6191 12.3257 91.5254 12.6157C91.4316 12.9058 91.2983 13.1606 91.1255 13.3804C90.9526 13.6001 90.7314 13.7729 90.4619 13.8989C90.1924 14.0249 89.8921 14.0879 89.561 14.0879C89.1216 14.0879 88.7393 13.978 88.4141 13.7583C88.0918 13.5356 87.8501 13.2456 87.689 12.8882C87.5308 12.5278 87.4517 12.125 87.4517 11.6797C87.4517 11.2607 87.5322 10.8813 87.6934 10.5415C87.8545 10.2017 88.0962 9.9292 88.4185 9.72412C88.7437 9.51611 89.1245 9.41211 89.561 9.41211ZM88.6558 12.9321C88.8638 13.2485 89.1655 13.4067 89.561 13.4067C89.9565 13.4067 90.2568 13.2485 90.4619 12.9321C90.6699 12.6157 90.7739 12.2041 90.7739 11.6973C90.7739 11.2842 90.6655 10.937 90.4487 10.6558C90.2349 10.3716 89.939 10.2295 89.561 10.2295C89.1802 10.2295 88.8813 10.3701 88.6646 10.6514C88.4507 10.9326 88.3438 11.2812 88.3438 11.6973C88.3438 12.2012 88.4478 12.6128 88.6558 12.9321ZM95.3838 13.4771C94.9004 13.8843 94.4565 14.0879 94.0522 14.0879C93.6772 14.0879 93.3887 13.9414 93.1865 13.6484C92.9873 13.3525 92.8833 12.9512 92.8745 12.4443L92.8481 10.6777L92.6592 9.51758V9.5H93.7578L93.7007 12.1455C93.6919 12.5322 93.7578 12.8032 93.8984 12.9585C94.042 13.1138 94.2529 13.1914 94.5312 13.1914C94.8682 13.1914 95.2153 13.0684 95.5728 12.8223L95.4849 9.5H96.4912L96.3857 12.8223L96.5483 13.9824V14H95.6123L95.5947 13.2969L95.3838 13.4771ZM99.8003 10.3657C99.6421 10.3657 99.4707 10.4009 99.2861 10.4712C99.1016 10.5415 98.9316 10.6294 98.7764 10.7349L98.8643 14H97.8579L97.9634 10.6777L97.8008 9.51758V9.5H98.7368L98.7544 10.2383L98.9829 10.0493C99.0005 10.0347 99.04 10.001 99.1016 9.94824C99.166 9.89551 99.2085 9.86035 99.229 9.84277C99.2495 9.8252 99.2876 9.79443 99.3433 9.75049C99.4019 9.70361 99.4443 9.67139 99.4707 9.65381C99.5 9.63623 99.541 9.61133 99.5938 9.5791C99.6465 9.54395 99.6904 9.52051 99.7256 9.50879C99.7607 9.49414 99.8018 9.47803 99.8486 9.46045C99.8984 9.43994 99.9453 9.42676 99.9893 9.4209C100.033 9.41504 100.079 9.41211 100.125 9.41211C100.281 9.41211 100.401 9.41797 100.486 9.42969L100.666 10.5459H100.648C100.405 10.4258 100.123 10.3657 99.8003 10.3657ZM45.6597 25.4067C45.9351 25.4067 46.2104 25.3159 46.4858 25.1343L46.5781 22.4624C46.2998 22.3071 45.9966 22.2295 45.6685 22.2295C45.4517 22.2295 45.2583 22.272 45.0884 22.3569C44.9185 22.439 44.7822 22.5518 44.6797 22.6953C44.5771 22.8389 44.4995 23 44.4468 23.1787C44.397 23.3545 44.3721 23.542 44.3721 23.7412C44.3721 24.2773 44.4819 24.689 44.7017 24.9761C44.9243 25.2632 45.2437 25.4067 45.6597 25.4067ZM46.4858 26L46.4771 25.6572C46.0815 25.9443 45.7139 26.0879 45.374 26.0879C44.9844 26.0879 44.6416 25.978 44.3457 25.7583C44.0527 25.5386 43.833 25.2529 43.6865 24.9014C43.543 24.5498 43.4712 24.1602 43.4712 23.7324C43.4712 23.3721 43.5283 23.0439 43.6426 22.748C43.7598 22.4492 43.9165 22.2046 44.1128 22.0142C44.312 21.8208 44.542 21.6729 44.8027 21.5703C45.0635 21.4648 45.3403 21.4121 45.6333 21.4121C45.9761 21.4121 46.2852 21.4707 46.5605 21.5879L46.4595 19.0698H47.4614L47.3428 22.1855L47.4614 26H46.4858ZM50.6958 21.4121C51.0239 21.4121 51.3228 21.4722 51.5923 21.5923C51.8618 21.7124 52.083 21.8765 52.2559 22.0845C52.4316 22.2896 52.5664 22.5298 52.6602 22.8052C52.7539 23.0776 52.8008 23.3691 52.8008 23.6797C52.8008 24.0137 52.7539 24.3257 52.6602 24.6157C52.5664 24.9058 52.4331 25.1606 52.2603 25.3804C52.0874 25.6001 51.8662 25.7729 51.5967 25.8989C51.3271 26.0249 51.0269 26.0879 50.6958 26.0879C50.2563 26.0879 49.874 25.978 49.5488 25.7583C49.2266 25.5356 48.9849 25.2456 48.8237 24.8882C48.6655 24.5278 48.5864 24.125 48.5864 23.6797C48.5864 23.2607 48.667 22.8813 48.8281 22.5415C48.9893 22.2017 49.231 21.9292 49.5532 21.7241C49.8784 21.5161 50.2593 21.4121 50.6958 21.4121ZM49.7905 24.9321C49.9985 25.2485 50.3003 25.4067 50.6958 25.4067C51.0913 25.4067 51.3916 25.2485 51.5967 24.9321C51.8047 24.6157 51.9087 24.2041 51.9087 23.6973C51.9087 23.2842 51.8003 22.937 51.5835 22.6558C51.3696 22.3716 51.0737 22.2295 50.6958 22.2295C50.3149 22.2295 50.0161 22.3701 49.7993 22.6514C49.5854 22.9326 49.4785 23.2812 49.4785 23.6973C49.4785 24.2012 49.5825 24.6128 49.7905 24.9321ZM55.855 22.3086C55.5562 22.2998 55.2236 22.4229 54.8574 22.6777L54.9453 26H53.939L54.0444 22.6777L53.8818 21.5176V21.5H54.8179L54.8354 22.1943L55.0068 22.0493C55.5107 21.6245 55.959 21.4121 56.3516 21.4121C56.7588 21.4121 57.0693 21.5586 57.2832 21.8516C57.5 22.1416 57.6172 22.5459 57.6348 23.0645L57.7358 26H56.7295L56.8086 23.3633C56.8203 22.9561 56.7427 22.6777 56.5757 22.5283C56.4087 22.376 56.1685 22.3027 55.855 22.3086ZM61.0142 22.3086C60.7153 22.2998 60.3828 22.4229 60.0166 22.6777L60.1045 26H59.0981L59.2036 22.6777L59.041 21.5176V21.5H59.9771L59.9946 22.1943L60.166 22.0493C60.6699 21.6245 61.1182 21.4121 61.5107 21.4121C61.918 21.4121 62.2285 21.5586 62.4424 21.8516C62.6592 22.1416 62.7764 22.5459 62.7939 23.0645L62.895 26H61.8887L61.9678 23.3633C61.9795 22.9561 61.9019 22.6777 61.7349 22.5283C61.5679 22.376 61.3276 22.3027 61.0142 22.3086ZM67.5488 25.6309C67.2266 25.9355 66.7505 26.0879 66.1206 26.0879C65.7778 26.0879 65.4688 26.022 65.1934 25.8901C64.9209 25.7583 64.7012 25.5811 64.5342 25.3584C64.3672 25.1357 64.2397 24.8867 64.1519 24.6113C64.064 24.3359 64.02 24.0459 64.02 23.7412C64.02 23.3633 64.0728 23.0249 64.1782 22.7261C64.2866 22.4243 64.4331 22.1797 64.6177 21.9922C64.8022 21.8018 65.0117 21.6582 65.2461 21.5615C65.4805 21.4619 65.7295 21.4121 65.9932 21.4121C66.6436 21.4121 67.1299 21.6421 67.4521 22.1021C67.7773 22.5591 67.8975 23.1978 67.8125 24.0181H64.9209C64.9648 24.4546 65.0981 24.7959 65.3208 25.042C65.5464 25.2852 65.8936 25.4067 66.3623 25.4067C66.7432 25.4067 67.1636 25.272 67.6235 25.0024H67.6411L67.5488 25.6309ZM64.9209 23.5698L66.9995 23.3018C67.0259 22.9824 66.9526 22.7231 66.7798 22.5239C66.6069 22.3218 66.3389 22.2207 65.9756 22.2207C65.8438 22.2207 65.7178 22.2456 65.5977 22.2954C65.4775 22.3452 65.3647 22.4214 65.2593 22.5239C65.1567 22.6235 65.0747 22.7642 65.0132 22.9458C64.9517 23.1245 64.9209 23.3325 64.9209 23.5698ZM70.9634 22.3657C70.8052 22.3657 70.6338 22.4009 70.4492 22.4712C70.2646 22.5415 70.0947 22.6294 69.9395 22.7349L70.0273 26H69.021L69.1265 22.6777L68.9639 21.5176V21.5H69.8999L69.9175 22.2383L70.146 22.0493C70.1636 22.0347 70.2031 22.001 70.2646 21.9482C70.3291 21.8955 70.3716 21.8604 70.3921 21.8428C70.4126 21.8252 70.4507 21.7944 70.5063 21.7505C70.5649 21.7036 70.6074 21.6714 70.6338 21.6538C70.6631 21.6362 70.7041 21.6113 70.7568 21.5791C70.8096 21.5439 70.8535 21.5205 70.8887 21.5088C70.9238 21.4941 70.9648 21.478 71.0117 21.4604C71.0615 21.4399 71.1084 21.4268 71.1523 21.4209C71.1963 21.415 71.2417 21.4121 71.2886 21.4121C71.4438 21.4121 71.564 21.418 71.6489 21.4297L71.8291 22.5459H71.8115C71.5684 22.4258 71.2856 22.3657 70.9634 22.3657ZM75.3755 20.4541H75.4941L75.5029 21.5264L76.8521 21.4121V22.2383L75.5029 22.1284L75.5117 24.3521C75.5117 24.73 75.5864 25.001 75.7358 25.165C75.8882 25.3262 76.0771 25.4067 76.3027 25.4067C76.4932 25.4067 76.6763 25.3643 76.8521 25.2793H76.8696L76.7817 25.7759C76.7026 25.8638 76.584 25.9385 76.4258 26C76.2676 26.0586 76.1035 26.0879 75.9336 26.0879C75.541 26.0879 75.2246 25.9619 74.9844 25.71C74.7441 25.4551 74.6284 25.0962 74.6372 24.6333L74.6855 22.0581L73.9912 22.0054V21.8955L75.3755 20.4541ZM79.8315 21.4121C80.1597 21.4121 80.4585 21.4722 80.728 21.5923C80.9976 21.7124 81.2188 21.8765 81.3916 22.0845C81.5674 22.2896 81.7021 22.5298 81.7959 22.8052C81.8896 23.0776 81.9365 23.3691 81.9365 23.6797C81.9365 24.0137 81.8896 24.3257 81.7959 24.6157C81.7021 24.9058 81.5688 25.1606 81.396 25.3804C81.2231 25.6001 81.002 25.7729 80.7324 25.8989C80.4629 26.0249 80.1626 26.0879 79.8315 26.0879C79.3921 26.0879 79.0098 25.978 78.6846 25.7583C78.3623 25.5356 78.1206 25.2456 77.9595 24.8882C77.8013 24.5278 77.7222 24.125 77.7222 23.6797C77.7222 23.2607 77.8027 22.8813 77.9639 22.5415C78.125 22.2017 78.3667 21.9292 78.689 21.7241C79.0142 21.5161 79.395 21.4121 79.8315 21.4121ZM78.9263 24.9321C79.1343 25.2485 79.436 25.4067 79.8315 25.4067C80.2271 25.4067 80.5273 25.2485 80.7324 24.9321C80.9404 24.6157 81.0444 24.2041 81.0444 23.6973C81.0444 23.2842 80.936 22.937 80.7192 22.6558C80.5054 22.3716 80.2095 22.2295 79.8315 22.2295C79.4507 22.2295 79.1519 22.3701 78.9351 22.6514C78.7212 22.9326 78.6143 23.2812 78.6143 23.6973C78.6143 24.2012 78.7183 24.6128 78.9263 24.9321ZM84.9907 22.3086C84.6919 22.2998 84.3594 22.4229 83.9932 22.6777L84.0811 26H83.0747L83.1802 22.6777L83.0176 21.5176V21.5H83.9536L83.9712 22.1943L84.1426 22.0493C84.6465 21.6245 85.0947 21.4121 85.4873 21.4121C85.8945 21.4121 86.2051 21.5586 86.4189 21.8516C86.6357 22.1416 86.7529 22.5459 86.7705 23.0645L86.8716 26H85.8652L85.9443 23.3633C85.9561 22.9561 85.8784 22.6777 85.7114 22.5283C85.5444 22.376 85.3042 22.3027 84.9907 22.3086ZM91.4639 25.4331C91.7188 25.4331 92.0161 25.3013 92.356 25.0376L92.3823 24.2554C92.1655 24.1353 91.9136 24.0752 91.6265 24.0752C91.3511 24.0752 91.1328 24.1353 90.9717 24.2554C90.8135 24.3755 90.7344 24.5425 90.7344 24.7563C90.7344 24.9585 90.8003 25.1226 90.9321 25.2485C91.0669 25.3716 91.2441 25.4331 91.4639 25.4331ZM92.3296 26L92.3384 25.5781C91.8843 25.918 91.5005 26.0879 91.187 26.0879C90.7681 26.0879 90.4399 25.9678 90.2026 25.7275C89.9653 25.4873 89.8467 25.1855 89.8467 24.8223C89.8467 24.6025 89.8877 24.4092 89.9697 24.2422C90.0518 24.0752 90.1587 23.9419 90.2905 23.8423C90.4224 23.7397 90.5806 23.6562 90.7651 23.5918C90.9526 23.5273 91.1401 23.4834 91.3276 23.46C91.5151 23.4365 91.7173 23.4248 91.9341 23.4248C92.0161 23.4248 92.1714 23.4307 92.3999 23.4424L92.4087 23.2095C92.4146 22.9985 92.3955 22.8228 92.3516 22.6821C92.3105 22.5415 92.2446 22.4375 92.1538 22.3701C92.063 22.2998 91.9663 22.2515 91.8638 22.2251C91.7642 22.1987 91.6426 22.1855 91.499 22.1855C91.1006 22.1855 90.6216 22.3115 90.062 22.5635H90.0444L90.2158 21.5088C90.8281 21.4443 91.2983 21.4121 91.6265 21.4121C92.1421 21.4121 92.5347 21.5586 92.8042 21.8516C93.0767 22.1416 93.2217 22.5459 93.2393 23.0645L93.3359 26H92.3296ZM96.3857 26.0879H95.9243L94.0083 21.5176V21.5H95.063L96.3022 25.0376L97.3657 21.5H98.438V21.5176L96.3857 26.0879ZM99.6509 19.6191C99.8149 19.6191 99.9497 19.666 100.055 19.7598C100.164 19.8506 100.218 19.9751 100.218 20.1333C100.218 20.3003 100.164 20.4336 100.055 20.5332C99.9497 20.6328 99.8149 20.6826 99.6509 20.6826C99.4956 20.6826 99.3638 20.6328 99.2554 20.5332C99.147 20.4336 99.0928 20.3003 99.0928 20.1333C99.0928 19.9751 99.147 19.8506 99.2554 19.7598C99.3638 19.666 99.4956 19.6191 99.6509 19.6191ZM99.1104 21.5H100.046V21.5176L100.174 26H99.1675L99.2729 22.6777L99.1104 21.5176V21.5ZM102.942 22.2031C102.731 22.2031 102.566 22.2441 102.446 22.3262C102.329 22.4053 102.27 22.5107 102.27 22.6426C102.27 22.7773 102.32 22.8989 102.419 23.0073C102.519 23.1128 102.69 23.2197 102.934 23.3281L103.395 23.5347C103.764 23.7046 104.029 23.8833 104.19 24.0708C104.354 24.2583 104.437 24.4897 104.437 24.7651C104.437 25.146 104.303 25.4624 104.037 25.7144C103.773 25.9634 103.391 26.0879 102.89 26.0879C102.392 26.0879 101.965 25.9839 101.611 25.7759L101.439 24.7959H101.457C101.732 25.001 101.987 25.1577 102.222 25.2661C102.459 25.3716 102.705 25.4243 102.96 25.4243C103.153 25.4243 103.303 25.376 103.408 25.2793C103.517 25.1826 103.571 25.0508 103.571 24.8838C103.571 24.7314 103.52 24.6025 103.417 24.4971C103.314 24.3887 103.162 24.292 102.96 24.207L102.367 23.9565C101.719 23.6812 101.396 23.2549 101.396 22.6777C101.396 22.2939 101.539 21.9878 101.826 21.7593C102.116 21.5278 102.497 21.4121 102.969 21.4121C103.405 21.4121 103.817 21.4927 104.204 21.6538L104.366 22.6777H104.349C104.141 22.5225 103.912 22.4053 103.663 22.3262C103.414 22.2441 103.174 22.2031 102.942 22.2031Z" fill="white"/>
<path d="M37.78 11.9247C29.2694 13.2279 17.6585 14.0357 2.51721 30.609M2.51721 30.609L2.81057 25.0815M2.51721 30.609L8.56425 29.683" stroke="white" stroke-width="2" stroke-linecap="round"/>
</svg>
