<svg width="106" height="48" viewBox="0 0 106 48" fill="none" xmlns="http://www.w3.org/2000/svg">
<path d="M13.7856 32.6045C13.5923 32.7217 13.3125 32.8315 12.9463 32.9341C12.583 33.0366 12.2153 33.0879 11.8433 33.0879C11.3481 33.0879 10.8882 33.0088 10.4634 32.8506C10.0386 32.6924 9.66797 32.4668 9.35156 32.1738C9.03809 31.8809 8.79053 31.5132 8.60889 31.0708C8.43018 30.6284 8.34082 30.1377 8.34082 29.5986C8.34082 28.5293 8.66016 27.6899 9.29883 27.0806C9.9375 26.4683 10.8032 26.1621 11.896 26.1621C12.5493 26.1621 13.1997 26.2661 13.8472 26.4741L14.0273 27.7529H14.0098C13.6787 27.5186 13.3345 27.3428 12.9771 27.2256C12.6196 27.1084 12.1963 27.0498 11.707 27.0498C11.4961 27.0498 11.2837 27.0747 11.0698 27.1245C10.8589 27.1743 10.6436 27.2607 10.4238 27.3838C10.207 27.5039 10.0151 27.6533 9.84814 27.832C9.68408 28.0107 9.54932 28.2422 9.44385 28.5264C9.33838 28.8105 9.28564 29.1284 9.28564 29.48C9.28564 30.3442 9.50977 31.0342 9.95801 31.5498C10.4092 32.0654 11.0435 32.3232 11.8608 32.3232C12.5405 32.3232 13.2363 32.0713 13.9482 31.5674H13.9658L13.7856 32.6045ZM17.0376 28.4121C17.3657 28.4121 17.6646 28.4722 17.9341 28.5923C18.2036 28.7124 18.4248 28.8765 18.5977 29.0845C18.7734 29.2896 18.9082 29.5298 19.002 29.8052C19.0957 30.0776 19.1426 30.3691 19.1426 30.6797C19.1426 31.0137 19.0957 31.3257 19.002 31.6157C18.9082 31.9058 18.7749 32.1606 18.6021 32.3804C18.4292 32.6001 18.208 32.7729 17.9385 32.8989C17.6689 33.0249 17.3687 33.0879 17.0376 33.0879C16.5981 33.0879 16.2158 32.978 15.8906 32.7583C15.5684 32.5356 15.3267 32.2456 15.1655 31.8882C15.0073 31.5278 14.9282 31.125 14.9282 30.6797C14.9282 30.2607 15.0088 29.8813 15.1699 29.5415C15.3311 29.2017 15.5728 28.9292 15.895 28.7241C16.2202 28.5161 16.6011 28.4121 17.0376 28.4121ZM16.1323 31.9321C16.3403 32.2485 16.6421 32.4067 17.0376 32.4067C17.4331 32.4067 17.7334 32.2485 17.9385 31.9321C18.1465 31.6157 18.2505 31.2041 18.2505 30.6973C18.2505 30.2842 18.1421 29.937 17.9253 29.6558C17.7114 29.3716 17.4155 29.2295 17.0376 29.2295C16.6567 29.2295 16.3579 29.3701 16.1411 29.6514C15.9272 29.9326 15.8203 30.2812 15.8203 30.6973C15.8203 31.2012 15.9243 31.6128 16.1323 31.9321ZM22.1968 29.3086C21.8979 29.2998 21.5654 29.4229 21.1992 29.6777L21.2871 33H20.2808L20.3862 29.6777L20.2236 28.5176V28.5H21.1597L21.1772 29.1943L21.3486 29.0493C21.8525 28.6245 22.3008 28.4121 22.6934 28.4121C23.1006 28.4121 23.4111 28.5586 23.625 28.8516C23.8418 29.1416 23.959 29.5459 23.9766 30.0645L24.0776 33H23.0713L23.1504 30.3633C23.1621 29.9561 23.0845 29.6777 22.9175 29.5283C22.7505 29.376 22.5103 29.3027 22.1968 29.3086ZM26.3188 27.4541H26.4375L26.4463 28.5264L27.7954 28.4121V29.2383L26.4463 29.1284L26.4551 31.3521C26.4551 31.73 26.5298 32.001 26.6792 32.165C26.8315 32.3262 27.0205 32.4067 27.2461 32.4067C27.4365 32.4067 27.6196 32.3643 27.7954 32.2793H27.813L27.7251 32.7759C27.646 32.8638 27.5273 32.9385 27.3691 33C27.2109 33.0586 27.0469 33.0879 26.877 33.0879C26.4844 33.0879 26.168 32.9619 25.9277 32.71C25.6875 32.4551 25.5718 32.0962 25.5806 31.6333L25.6289 29.0581L24.9346 29.0054V28.8955L26.3188 27.4541ZM29.3862 26.6191C29.5503 26.6191 29.6851 26.666 29.7905 26.7598C29.8989 26.8506 29.9531 26.9751 29.9531 27.1333C29.9531 27.3003 29.8989 27.4336 29.7905 27.5332C29.6851 27.6328 29.5503 27.6826 29.3862 27.6826C29.231 27.6826 29.0991 27.6328 28.9907 27.5332C28.8823 27.4336 28.8281 27.3003 28.8281 27.1333C28.8281 26.9751 28.8823 26.8506 28.9907 26.7598C29.0991 26.666 29.231 26.6191 29.3862 26.6191ZM28.8457 28.5H29.7817V28.5176L29.9092 33H28.9028L29.0083 29.6777L28.8457 28.5176V28.5ZM33.1919 29.3086C32.8931 29.2998 32.5605 29.4229 32.1943 29.6777L32.2822 33H31.2759L31.3813 29.6777L31.2188 28.5176V28.5H32.1548L32.1724 29.1943L32.3438 29.0493C32.8477 28.6245 33.2959 28.4121 33.6885 28.4121C34.0957 28.4121 34.4062 28.5586 34.6201 28.8516C34.8369 29.1416 34.9541 29.5459 34.9717 30.0645L35.0728 33H34.0664L34.1455 30.3633C34.1572 29.9561 34.0796 29.6777 33.9126 29.5283C33.7456 29.376 33.5054 29.3027 33.1919 29.3086ZM39.0146 32.4771C38.5312 32.8843 38.0874 33.0879 37.6831 33.0879C37.3081 33.0879 37.0195 32.9414 36.8174 32.6484C36.6182 32.3525 36.5142 31.9512 36.5054 31.4443L36.479 29.6777L36.29 28.5176V28.5H37.3887L37.3315 31.1455C37.3228 31.5322 37.3887 31.8032 37.5293 31.9585C37.6729 32.1138 37.8838 32.1914 38.1621 32.1914C38.499 32.1914 38.8462 32.0684 39.2036 31.8223L39.1157 28.5H40.1221L40.0166 31.8223L40.1792 32.9824V33H39.2432L39.2256 32.2969L39.0146 32.4771ZM44.7803 32.6309C44.458 32.9355 43.9819 33.0879 43.3521 33.0879C43.0093 33.0879 42.7002 33.022 42.4248 32.8901C42.1523 32.7583 41.9326 32.5811 41.7656 32.3584C41.5986 32.1357 41.4712 31.8867 41.3833 31.6113C41.2954 31.3359 41.2515 31.0459 41.2515 30.7412C41.2515 30.3633 41.3042 30.0249 41.4097 29.7261C41.5181 29.4243 41.6646 29.1797 41.8491 28.9922C42.0337 28.8018 42.2432 28.6582 42.4775 28.5615C42.7119 28.4619 42.9609 28.4121 43.2246 28.4121C43.875 28.4121 44.3613 28.6421 44.6836 29.1021C45.0088 29.5591 45.1289 30.1978 45.0439 31.0181H42.1523C42.1963 31.4546 42.3296 31.7959 42.5522 32.042C42.7778 32.2852 43.125 32.4067 43.5938 32.4067C43.9746 32.4067 44.395 32.272 44.855 32.0024H44.8726L44.7803 32.6309ZM42.1523 30.5698L44.231 30.3018C44.2573 29.9824 44.1841 29.7231 44.0112 29.5239C43.8384 29.3218 43.5703 29.2207 43.207 29.2207C43.0752 29.2207 42.9492 29.2456 42.8291 29.2954C42.709 29.3452 42.5962 29.4214 42.4907 29.5239C42.3882 29.6235 42.3062 29.7642 42.2446 29.9458C42.1831 30.1245 42.1523 30.3325 42.1523 30.5698ZM48.9331 27.4541H49.0518L49.0605 28.5264L50.4097 28.4121V29.2383L49.0605 29.1284L49.0693 31.3521C49.0693 31.73 49.144 32.001 49.2935 32.165C49.4458 32.3262 49.6348 32.4067 49.8604 32.4067C50.0508 32.4067 50.2339 32.3643 50.4097 32.2793H50.4272L50.3394 32.7759C50.2603 32.8638 50.1416 32.9385 49.9834 33C49.8252 33.0586 49.6611 33.0879 49.4912 33.0879C49.0986 33.0879 48.7822 32.9619 48.542 32.71C48.3018 32.4551 48.186 32.0962 48.1948 31.6333L48.2432 29.0581L47.5488 29.0054V28.8955L48.9331 27.4541ZM52.9453 32.4331C53.2002 32.4331 53.4976 32.3013 53.8374 32.0376L53.8638 31.2554C53.647 31.1353 53.395 31.0752 53.1079 31.0752C52.8325 31.0752 52.6143 31.1353 52.4531 31.2554C52.2949 31.3755 52.2158 31.5425 52.2158 31.7563C52.2158 31.9585 52.2817 32.1226 52.4136 32.2485C52.5483 32.3716 52.7256 32.4331 52.9453 32.4331ZM53.811 33L53.8198 32.5781C53.3657 32.918 52.9819 33.0879 52.6685 33.0879C52.2495 33.0879 51.9214 32.9678 51.6841 32.7275C51.4468 32.4873 51.3281 32.1855 51.3281 31.8223C51.3281 31.6025 51.3691 31.4092 51.4512 31.2422C51.5332 31.0752 51.6401 30.9419 51.772 30.8423C51.9038 30.7397 52.062 30.6562 52.2466 30.5918C52.4341 30.5273 52.6216 30.4834 52.8091 30.46C52.9966 30.4365 53.1987 30.4248 53.4155 30.4248C53.4976 30.4248 53.6528 30.4307 53.8813 30.4424L53.8901 30.2095C53.896 29.9985 53.877 29.8228 53.833 29.6821C53.792 29.5415 53.7261 29.4375 53.6353 29.3701C53.5444 29.2998 53.4478 29.2515 53.3452 29.2251C53.2456 29.1987 53.124 29.1855 52.9805 29.1855C52.582 29.1855 52.103 29.3115 51.5435 29.5635H51.5259L51.6973 28.5088C52.3096 28.4443 52.7798 28.4121 53.1079 28.4121C53.6235 28.4121 54.0161 28.5586 54.2856 28.8516C54.5581 29.1416 54.7031 29.5459 54.7207 30.0645L54.8174 33H53.811ZM61.7212 35.25H60.7412L60.7764 32.6045C60.3691 32.9268 59.9766 33.0879 59.5986 33.0879C59.209 33.0879 58.8662 32.978 58.5703 32.7583C58.2773 32.5386 58.0576 32.2529 57.9111 31.9014C57.7676 31.5498 57.6958 31.1602 57.6958 30.7324C57.6958 30.0117 57.8994 29.4448 58.3066 29.0317C58.7139 28.6187 59.231 28.4121 59.8579 28.4121C60.2124 28.4121 60.5273 28.4707 60.8027 28.5879L61.686 28.5H61.7036L61.6025 29.5986L61.7212 35.25ZM59.8843 32.4067C60.186 32.4067 60.4863 32.3013 60.7852 32.0903L60.8203 29.48C60.5508 29.313 60.2417 29.2295 59.8931 29.2295C59.6646 29.2295 59.4639 29.272 59.291 29.3569C59.1211 29.439 58.9863 29.5532 58.8867 29.6997C58.79 29.8433 58.7168 30.0029 58.667 30.1787C58.6201 30.3516 58.5967 30.5391 58.5967 30.7412C58.5967 31.2773 58.7065 31.689 58.9263 31.9761C59.1489 32.2632 59.4683 32.4067 59.8843 32.4067ZM65.6631 32.4771C65.1797 32.8843 64.7358 33.0879 64.3315 33.0879C63.9565 33.0879 63.668 32.9414 63.4658 32.6484C63.2666 32.3525 63.1626 31.9512 63.1538 31.4443L63.1274 29.6777L62.9385 28.5176V28.5H64.0371L63.98 31.1455C63.9712 31.5322 64.0371 31.8032 64.1777 31.9585C64.3213 32.1138 64.5322 32.1914 64.8105 32.1914C65.1475 32.1914 65.4946 32.0684 65.8521 31.8223L65.7642 28.5H66.7705L66.665 31.8223L66.8276 32.9824V33H65.8916L65.874 32.2969L65.6631 32.4771ZM68.9194 27.9067H68.3701L69.5215 26.1621H70.0972L71.2485 27.9067H70.6992L69.8115 27.041L68.9194 27.9067ZM71.4287 32.6309C71.1064 32.9355 70.6304 33.0879 70.0005 33.0879C69.6577 33.0879 69.3486 33.022 69.0732 32.8901C68.8008 32.7583 68.5811 32.5811 68.4141 32.3584C68.2471 32.1357 68.1196 31.8867 68.0317 31.6113C67.9438 31.3359 67.8999 31.0459 67.8999 30.7412C67.8999 30.3633 67.9526 30.0249 68.0581 29.7261C68.1665 29.4243 68.313 29.1797 68.4976 28.9922C68.6821 28.8018 68.8916 28.6582 69.126 28.5615C69.3604 28.4619 69.6094 28.4121 69.873 28.4121C70.5234 28.4121 71.0098 28.6421 71.332 29.1021C71.6572 29.5591 71.7773 30.1978 71.6924 31.0181H68.8008C68.8447 31.4546 68.978 31.7959 69.2007 32.042C69.4263 32.2852 69.7734 32.4067 70.2422 32.4067C70.623 32.4067 71.0435 32.272 71.5034 32.0024H71.521L71.4287 32.6309ZM68.8008 30.5698L70.8794 30.3018C70.9058 29.9824 70.8325 29.7231 70.6597 29.5239C70.4868 29.3218 70.2188 29.2207 69.8555 29.2207C69.7236 29.2207 69.5977 29.2456 69.4775 29.2954C69.3574 29.3452 69.2446 29.4214 69.1392 29.5239C69.0366 29.6235 68.9546 29.7642 68.8931 29.9458C68.8315 30.1245 68.8008 30.3325 68.8008 30.5698ZM73.7798 27.4541H73.8984L73.9072 28.5264L75.2563 28.4121V29.2383L73.9072 29.1284L73.916 31.3521C73.916 31.73 73.9907 32.001 74.1401 32.165C74.2925 32.3262 74.4814 32.4067 74.707 32.4067C74.8975 32.4067 75.0806 32.3643 75.2563 32.2793H75.2739L75.186 32.7759C75.1069 32.8638 74.9883 32.9385 74.8301 33C74.6719 33.0586 74.5078 33.0879 74.3379 33.0879C73.9453 33.0879 73.6289 32.9619 73.3887 32.71C73.1484 32.4551 73.0327 32.0962 73.0415 31.6333L73.0898 29.0581L72.3955 29.0054V28.8955L73.7798 27.4541ZM79.6553 32.6309C79.333 32.9355 78.8569 33.0879 78.2271 33.0879C77.8843 33.0879 77.5752 33.022 77.2998 32.8901C77.0273 32.7583 76.8076 32.5811 76.6406 32.3584C76.4736 32.1357 76.3462 31.8867 76.2583 31.6113C76.1704 31.3359 76.1265 31.0459 76.1265 30.7412C76.1265 30.3633 76.1792 30.0249 76.2847 29.7261C76.3931 29.4243 76.5396 29.1797 76.7241 28.9922C76.9087 28.8018 77.1182 28.6582 77.3525 28.5615C77.5869 28.4619 77.8359 28.4121 78.0996 28.4121C78.75 28.4121 79.2363 28.6421 79.5586 29.1021C79.8838 29.5591 80.0039 30.1978 79.9189 31.0181H77.0273C77.0713 31.4546 77.2046 31.7959 77.4272 32.042C77.6528 32.2852 78 32.4067 78.4688 32.4067C78.8496 32.4067 79.27 32.272 79.73 32.0024H79.7476L79.6553 32.6309ZM77.0273 30.5698L79.106 30.3018C79.1323 29.9824 79.0591 29.7231 78.8862 29.5239C78.7134 29.3218 78.4453 29.2207 78.082 29.2207C77.9502 29.2207 77.8242 29.2456 77.7041 29.2954C77.584 29.3452 77.4712 29.4214 77.3657 29.5239C77.2632 29.6235 77.1812 29.7642 77.1196 29.9458C77.0581 30.1245 77.0273 30.3325 77.0273 30.5698ZM2.85205 44.4067C3.12744 44.4067 3.40283 44.3159 3.67822 44.1343L3.77051 41.4624C3.49219 41.3071 3.18896 41.2295 2.86084 41.2295C2.64404 41.2295 2.45068 41.272 2.28076 41.3569C2.11084 41.439 1.97461 41.5518 1.87207 41.6953C1.76953 41.8389 1.69189 42 1.63916 42.1787C1.58936 42.3545 1.56445 42.542 1.56445 42.7412C1.56445 43.2773 1.67432 43.689 1.89404 43.9761C2.1167 44.2632 2.43604 44.4067 2.85205 44.4067ZM3.67822 45L3.66943 44.6572C3.27393 44.9443 2.90625 45.0879 2.56641 45.0879C2.17676 45.0879 1.83398 44.978 1.53809 44.7583C1.24512 44.5386 1.02539 44.2529 0.878906 43.9014C0.735352 43.5498 0.663574 43.1602 0.663574 42.7324C0.663574 42.3721 0.720703 42.0439 0.834961 41.748C0.952148 41.4492 1.10889 41.2046 1.30518 41.0142C1.50439 40.8208 1.73438 40.6729 1.99512 40.5703C2.25586 40.4648 2.53271 40.4121 2.82568 40.4121C3.16846 40.4121 3.47754 40.4707 3.75293 40.5879L3.65186 38.0698H4.65381L4.53516 41.1855L4.65381 45H3.67822ZM7.44434 44.4331C7.69922 44.4331 7.99658 44.3013 8.33643 44.0376L8.36279 43.2554C8.146 43.1353 7.89404 43.0752 7.60693 43.0752C7.33154 43.0752 7.11328 43.1353 6.95215 43.2554C6.79395 43.3755 6.71484 43.5425 6.71484 43.7563C6.71484 43.9585 6.78076 44.1226 6.9126 44.2485C7.04736 44.3716 7.22461 44.4331 7.44434 44.4331ZM8.31006 45L8.31885 44.5781C7.86475 44.918 7.48096 45.0879 7.16748 45.0879C6.74854 45.0879 6.42041 44.9678 6.18311 44.7275C5.9458 44.4873 5.82715 44.1855 5.82715 43.8223C5.82715 43.6025 5.86816 43.4092 5.9502 43.2422C6.03223 43.0752 6.13916 42.9419 6.271 42.8423C6.40283 42.7397 6.56104 42.6562 6.74561 42.5918C6.93311 42.5273 7.12061 42.4834 7.30811 42.46C7.49561 42.4365 7.69775 42.4248 7.91455 42.4248C7.99658 42.4248 8.15186 42.4307 8.38037 42.4424L8.38916 42.2095C8.39502 41.9985 8.37598 41.8228 8.33203 41.6821C8.29102 41.5415 8.2251 41.4375 8.13428 41.3701C8.04346 41.2998 7.94678 41.2515 7.84424 41.2251C7.74463 41.1987 7.62305 41.1855 7.47949 41.1855C7.08105 41.1855 6.60205 41.3115 6.04248 41.5635H6.0249L6.19629 40.5088C6.80859 40.4443 7.27881 40.4121 7.60693 40.4121C8.12256 40.4121 8.51514 40.5586 8.78467 40.8516C9.05713 41.1416 9.20215 41.5459 9.21973 42.0645L9.31641 45H8.31006ZM12.5464 41.3086C12.2476 41.2998 11.915 41.4229 11.5488 41.6777L11.6367 45H10.6304L10.7358 41.6777L10.5732 40.5176V40.5H11.5093L11.5269 41.1943L11.6982 41.0493C12.2021 40.6245 12.6504 40.4121 13.043 40.4121C13.4502 40.4121 13.7607 40.5586 13.9746 40.8516C14.1914 41.1416 14.3086 41.5459 14.3262 42.0645L14.4272 45H13.4209L13.5 42.3633C13.5117 41.9561 13.4341 41.6777 13.2671 41.5283C13.1001 41.376 12.8599 41.3027 12.5464 41.3086ZM17.1914 41.2031C16.9805 41.2031 16.8149 41.2441 16.6948 41.3262C16.5776 41.4053 16.519 41.5107 16.519 41.6426C16.519 41.7773 16.5688 41.8989 16.6685 42.0073C16.7681 42.1128 16.9395 42.2197 17.1826 42.3281L17.644 42.5347C18.0132 42.7046 18.2783 42.8833 18.4395 43.0708C18.6035 43.2583 18.6855 43.4897 18.6855 43.7651C18.6855 44.146 18.5522 44.4624 18.2856 44.7144C18.022 44.9634 17.6396 45.0879 17.1387 45.0879C16.6406 45.0879 16.2144 44.9839 15.8599 44.7759L15.6885 43.7959H15.7061C15.9814 44.001 16.2363 44.1577 16.4707 44.2661C16.708 44.3716 16.9541 44.4243 17.209 44.4243C17.4023 44.4243 17.5518 44.376 17.6572 44.2793C17.7656 44.1826 17.8198 44.0508 17.8198 43.8838C17.8198 43.7314 17.7686 43.6025 17.666 43.4971C17.5635 43.3887 17.4111 43.292 17.209 43.207L16.6157 42.9565C15.9683 42.6812 15.6445 42.2549 15.6445 41.6777C15.6445 41.2939 15.7881 40.9878 16.0752 40.7593C16.3652 40.5278 16.7461 40.4121 17.2178 40.4121C17.6543 40.4121 18.0659 40.4927 18.4526 40.6538L18.6152 41.6777H18.5977C18.3896 41.5225 18.1611 41.4053 17.9121 41.3262C17.6631 41.2441 17.4229 41.2031 17.1914 41.2031ZM21.7046 45L21.8276 41.1855L21.7046 38.0698H22.7021L22.5835 41.1855L22.7021 45H21.7046ZM25.4883 44.4331C25.7432 44.4331 26.0405 44.3013 26.3804 44.0376L26.4067 43.2554C26.1899 43.1353 25.938 43.0752 25.6509 43.0752C25.3755 43.0752 25.1572 43.1353 24.9961 43.2554C24.8379 43.3755 24.7588 43.5425 24.7588 43.7563C24.7588 43.9585 24.8247 44.1226 24.9565 44.2485C25.0913 44.3716 25.2686 44.4331 25.4883 44.4331ZM26.354 45L26.3628 44.5781C25.9087 44.918 25.5249 45.0879 25.2114 45.0879C24.7925 45.0879 24.4644 44.9678 24.2271 44.7275C23.9897 44.4873 23.8711 44.1855 23.8711 43.8223C23.8711 43.6025 23.9121 43.4092 23.9941 43.2422C24.0762 43.0752 24.1831 42.9419 24.3149 42.8423C24.4468 42.7397 24.605 42.6562 24.7896 42.5918C24.9771 42.5273 25.1646 42.4834 25.3521 42.46C25.5396 42.4365 25.7417 42.4248 25.9585 42.4248C26.0405 42.4248 26.1958 42.4307 26.4243 42.4424L26.4331 42.2095C26.439 41.9985 26.4199 41.8228 26.376 41.6821C26.335 41.5415 26.269 41.4375 26.1782 41.3701C26.0874 41.2998 25.9907 41.2515 25.8882 41.2251C25.7886 41.1987 25.667 41.1855 25.5234 41.1855C25.125 41.1855 24.646 41.3115 24.0864 41.5635H24.0688L24.2402 40.5088C24.8525 40.4443 25.3228 40.4121 25.6509 40.4121C26.1665 40.4121 26.5591 40.5586 26.8286 40.8516C27.1011 41.1416 27.2461 41.5459 27.2637 42.0645L27.3604 45H26.354ZM32.4009 44.4067C32.7876 44.4067 33.0806 44.2529 33.2798 43.9453C33.479 43.6348 33.5786 43.2188 33.5786 42.6973C33.5698 42.2549 33.4658 41.9165 33.2666 41.6821C33.0703 41.4448 32.7876 41.3262 32.4185 41.3262C32.1313 41.3262 31.8018 41.4346 31.4297 41.6514L31.4648 44.0728C31.7285 44.2954 32.0405 44.4067 32.4009 44.4067ZM32.3174 45.0879C32.042 45.0879 31.7637 45.0498 31.4824 44.9736L31.5176 47.25H30.5376L30.6255 41.5898L30.4673 40.5176V40.5H31.3945L31.4209 41.146C31.6699 40.9263 31.9072 40.749 32.1328 40.6143C32.3613 40.4795 32.5942 40.4121 32.8315 40.4121C33.1099 40.4121 33.356 40.478 33.5698 40.6099C33.7866 40.7388 33.958 40.9116 34.084 41.1284C34.21 41.3452 34.3037 41.5811 34.3652 41.8359C34.4297 42.0879 34.4619 42.3501 34.4619 42.6226C34.4619 42.7661 34.4531 42.9097 34.4355 43.0532C34.4209 43.1938 34.3916 43.3477 34.3477 43.5146C34.3066 43.6787 34.2524 43.834 34.1851 43.9805C34.1177 44.127 34.0269 44.269 33.9126 44.4067C33.8013 44.5444 33.6724 44.6631 33.5259 44.7627C33.3823 44.8594 33.2065 44.9385 32.9985 45C32.7935 45.0586 32.5664 45.0879 32.3174 45.0879ZM37.5425 41.3657C37.3843 41.3657 37.2129 41.4009 37.0283 41.4712C36.8438 41.5415 36.6738 41.6294 36.5186 41.7349L36.6064 45H35.6001L35.7056 41.6777L35.543 40.5176V40.5H36.479L36.4966 41.2383L36.7251 41.0493C36.7427 41.0347 36.7822 41.001 36.8438 40.9482C36.9082 40.8955 36.9507 40.8604 36.9712 40.8428C36.9917 40.8252 37.0298 40.7944 37.0854 40.7505C37.144 40.7036 37.1865 40.6714 37.2129 40.6538C37.2422 40.6362 37.2832 40.6113 37.3359 40.5791C37.3887 40.5439 37.4326 40.5205 37.4678 40.5088C37.5029 40.4941 37.5439 40.478 37.5908 40.4604C37.6406 40.4399 37.6875 40.4268 37.7314 40.4209C37.7754 40.415 37.8208 40.4121 37.8677 40.4121C38.0229 40.4121 38.1431 40.418 38.228 40.4297L38.4082 41.5459H38.3906C38.1475 41.4258 37.8647 41.3657 37.5425 41.3657ZM40.9614 40.4121C41.2896 40.4121 41.5884 40.4722 41.8579 40.5923C42.1274 40.7124 42.3486 40.8765 42.5215 41.0845C42.6973 41.2896 42.832 41.5298 42.9258 41.8052C43.0195 42.0776 43.0664 42.3691 43.0664 42.6797C43.0664 43.0137 43.0195 43.3257 42.9258 43.6157C42.832 43.9058 42.6987 44.1606 42.5259 44.3804C42.353 44.6001 42.1318 44.7729 41.8623 44.8989C41.5928 45.0249 41.2925 45.0879 40.9614 45.0879C40.522 45.0879 40.1396 44.978 39.8145 44.7583C39.4922 44.5356 39.2505 44.2456 39.0894 43.8882C38.9312 43.5278 38.8521 43.125 38.8521 42.6797C38.8521 42.2607 38.9326 41.8813 39.0938 41.5415C39.2549 41.2017 39.4966 40.9292 39.8188 40.7241C40.144 40.5161 40.5249 40.4121 40.9614 40.4121ZM40.0562 43.9321C40.2642 44.2485 40.5659 44.4067 40.9614 44.4067C41.3569 44.4067 41.6572 44.2485 41.8623 43.9321C42.0703 43.6157 42.1743 43.2041 42.1743 42.6973C42.1743 42.2842 42.0659 41.937 41.8491 41.6558C41.6353 41.3716 41.3394 41.2295 40.9614 41.2295C40.5806 41.2295 40.2817 41.3701 40.0649 41.6514C39.8511 41.9326 39.7441 42.2812 39.7441 42.6973C39.7441 43.2012 39.8481 43.6128 40.0562 43.9321ZM46.1558 40.4121C46.6099 40.4121 46.9731 40.4839 47.2456 40.6274L47.4258 41.6777H47.4082C47.0068 41.3789 46.5806 41.2295 46.1294 41.2295C45.7603 41.2295 45.4556 41.354 45.2153 41.603C44.978 41.8521 44.8594 42.2227 44.8594 42.7148C44.8594 43.2686 44.981 43.689 45.2241 43.9761C45.4702 44.2632 45.8013 44.4067 46.2173 44.4067C46.4341 44.4067 46.6362 44.3701 46.8237 44.2969C47.0112 44.2236 47.209 44.1226 47.417 43.9937H47.4346L47.3423 44.6221C47.2222 44.7422 47.0479 44.8506 46.8193 44.9473C46.5938 45.041 46.3579 45.0879 46.1118 45.0879C45.479 45.0879 44.9634 44.8638 44.5649 44.4155C44.1665 43.9644 43.9673 43.3916 43.9673 42.6973C43.9673 42.3281 44.0259 41.9956 44.1431 41.6997C44.2632 41.4038 44.4258 41.1636 44.6309 40.979C44.8359 40.7944 45.0674 40.6538 45.3252 40.5571C45.5859 40.4604 45.8628 40.4121 46.1558 40.4121ZM50.3745 41.3086C50.0698 41.2998 49.73 41.4258 49.355 41.6865L49.4561 45H48.4585L48.5815 41.1855L48.4585 38.0698H49.4561L49.3374 41.1855V41.2031L49.5176 41.0493C49.7578 40.8501 49.9863 40.6934 50.2031 40.5791C50.4229 40.4648 50.6411 40.4092 50.8579 40.4121C51.2651 40.4092 51.5771 40.5542 51.7939 40.8472C52.0107 41.1401 52.1279 41.5459 52.1455 42.0645L52.2466 45H51.2446L51.3193 42.3633C51.3311 41.9561 51.2549 41.6777 51.0908 41.5283C50.9268 41.376 50.688 41.3027 50.3745 41.3086ZM54.9932 44.4331C55.248 44.4331 55.5454 44.3013 55.8853 44.0376L55.9116 43.2554C55.6948 43.1353 55.4429 43.0752 55.1558 43.0752C54.8804 43.0752 54.6621 43.1353 54.501 43.2554C54.3428 43.3755 54.2637 43.5425 54.2637 43.7563C54.2637 43.9585 54.3296 44.1226 54.4614 44.2485C54.5962 44.3716 54.7734 44.4331 54.9932 44.4331ZM55.8589 45L55.8677 44.5781C55.4136 44.918 55.0298 45.0879 54.7163 45.0879C54.2974 45.0879 53.9692 44.9678 53.7319 44.7275C53.4946 44.4873 53.376 44.1855 53.376 43.8223C53.376 43.6025 53.417 43.4092 53.499 43.2422C53.5811 43.0752 53.688 42.9419 53.8198 42.8423C53.9517 42.7397 54.1099 42.6562 54.2944 42.5918C54.4819 42.5273 54.6694 42.4834 54.8569 42.46C55.0444 42.4365 55.2466 42.4248 55.4634 42.4248C55.5454 42.4248 55.7007 42.4307 55.9292 42.4424L55.938 42.2095C55.9438 41.9985 55.9248 41.8228 55.8809 41.6821C55.8398 41.5415 55.7739 41.4375 55.6831 41.3701C55.5923 41.2998 55.4956 41.2515 55.3931 41.2251C55.2935 41.1987 55.1719 41.1855 55.0283 41.1855C54.6299 41.1855 54.1509 41.3115 53.5913 41.5635H53.5737L53.7451 40.5088C54.3574 40.4443 54.8276 40.4121 55.1558 40.4121C55.6714 40.4121 56.064 40.5586 56.3335 40.8516C56.606 41.1416 56.751 41.5459 56.7686 42.0645L56.8652 45H55.8589ZM58.6626 38.6191C58.8267 38.6191 58.9614 38.666 59.0669 38.7598C59.1753 38.8506 59.2295 38.9751 59.2295 39.1333C59.2295 39.3003 59.1753 39.4336 59.0669 39.5332C58.9614 39.6328 58.8267 39.6826 58.6626 39.6826C58.5073 39.6826 58.3755 39.6328 58.2671 39.5332C58.1587 39.4336 58.1045 39.3003 58.1045 39.1333C58.1045 38.9751 58.1587 38.8506 58.2671 38.7598C58.3755 38.666 58.5073 38.6191 58.6626 38.6191ZM58.1221 40.5H59.0581V40.5176L59.1855 45H58.1792L58.2847 41.6777L58.1221 40.5176V40.5ZM62.4683 41.3086C62.1694 41.2998 61.8369 41.4229 61.4707 41.6777L61.5586 45H60.5522L60.6577 41.6777L60.4951 40.5176V40.5H61.4312L61.4487 41.1943L61.6201 41.0493C62.124 40.6245 62.5723 40.4121 62.9648 40.4121C63.3721 40.4121 63.6826 40.5586 63.8965 40.8516C64.1133 41.1416 64.2305 41.5459 64.248 42.0645L64.3491 45H63.3428L63.4219 42.3633C63.4336 41.9561 63.356 41.6777 63.189 41.5283C63.022 41.376 62.7817 41.3027 62.4683 41.3086ZM69.0029 44.6309C68.6807 44.9355 68.2046 45.0879 67.5747 45.0879C67.2319 45.0879 66.9229 45.022 66.6475 44.8901C66.375 44.7583 66.1553 44.5811 65.9883 44.3584C65.8213 44.1357 65.6938 43.8867 65.606 43.6113C65.5181 43.3359 65.4741 43.0459 65.4741 42.7412C65.4741 42.3633 65.5269 42.0249 65.6323 41.7261C65.7407 41.4243 65.8872 41.1797 66.0718 40.9922C66.2563 40.8018 66.4658 40.6582 66.7002 40.5615C66.9346 40.4619 67.1836 40.4121 67.4473 40.4121C68.0977 40.4121 68.584 40.6421 68.9062 41.1021C69.2314 41.5591 69.3516 42.1978 69.2666 43.0181H66.375C66.4189 43.4546 66.5522 43.7959 66.7749 44.042C67.0005 44.2852 67.3477 44.4067 67.8164 44.4067C68.1973 44.4067 68.6177 44.272 69.0776 44.0024H69.0952L69.0029 44.6309ZM66.375 42.5698L68.4536 42.3018C68.48 41.9824 68.4067 41.7231 68.2339 41.5239C68.061 41.3218 67.793 41.2207 67.4297 41.2207C67.2979 41.2207 67.1719 41.2456 67.0518 41.2954C66.9316 41.3452 66.8188 41.4214 66.7134 41.5239C66.6108 41.6235 66.5288 41.7642 66.4673 41.9458C66.4058 42.1245 66.375 42.3325 66.375 42.5698ZM73.6787 41.2031C73.4678 41.2031 73.3022 41.2441 73.1821 41.3262C73.0649 41.4053 73.0063 41.5107 73.0063 41.6426C73.0063 41.7773 73.0562 41.8989 73.1558 42.0073C73.2554 42.1128 73.4268 42.2197 73.6699 42.3281L74.1313 42.5347C74.5005 42.7046 74.7656 42.8833 74.9268 43.0708C75.0908 43.2583 75.1729 43.4897 75.1729 43.7651C75.1729 44.146 75.0396 44.4624 74.7729 44.7144C74.5093 44.9634 74.127 45.0879 73.626 45.0879C73.1279 45.0879 72.7017 44.9839 72.3472 44.7759L72.1758 43.7959H72.1934C72.4688 44.001 72.7236 44.1577 72.958 44.2661C73.1953 44.3716 73.4414 44.4243 73.6963 44.4243C73.8896 44.4243 74.0391 44.376 74.1445 44.2793C74.2529 44.1826 74.3071 44.0508 74.3071 43.8838C74.3071 43.7314 74.2559 43.6025 74.1533 43.4971C74.0508 43.3887 73.8984 43.292 73.6963 43.207L73.103 42.9565C72.4556 42.6812 72.1318 42.2549 72.1318 41.6777C72.1318 41.2939 72.2754 40.9878 72.5625 40.7593C72.8525 40.5278 73.2334 40.4121 73.7051 40.4121C74.1416 40.4121 74.5532 40.4927 74.9399 40.6538L75.1025 41.6777H75.085C74.877 41.5225 74.6484 41.4053 74.3994 41.3262C74.1504 41.2441 73.9102 41.2031 73.6787 41.2031ZM77.8271 44.4331C78.082 44.4331 78.3794 44.3013 78.7192 44.0376L78.7456 43.2554C78.5288 43.1353 78.2769 43.0752 77.9897 43.0752C77.7144 43.0752 77.4961 43.1353 77.335 43.2554C77.1768 43.3755 77.0977 43.5425 77.0977 43.7563C77.0977 43.9585 77.1636 44.1226 77.2954 44.2485C77.4302 44.3716 77.6074 44.4331 77.8271 44.4331ZM78.6929 45L78.7017 44.5781C78.2476 44.918 77.8638 45.0879 77.5503 45.0879C77.1313 45.0879 76.8032 44.9678 76.5659 44.7275C76.3286 44.4873 76.21 44.1855 76.21 43.8223C76.21 43.6025 76.251 43.4092 76.333 43.2422C76.415 43.0752 76.522 42.9419 76.6538 42.8423C76.7856 42.7397 76.9438 42.6562 77.1284 42.5918C77.3159 42.5273 77.5034 42.4834 77.6909 42.46C77.8784 42.4365 78.0806 42.4248 78.2974 42.4248C78.3794 42.4248 78.5347 42.4307 78.7632 42.4424L78.772 42.2095C78.7778 41.9985 78.7588 41.8228 78.7148 41.6821C78.6738 41.5415 78.6079 41.4375 78.5171 41.3701C78.4263 41.2998 78.3296 41.2515 78.2271 41.2251C78.1274 41.1987 78.0059 41.1855 77.8623 41.1855C77.4639 41.1855 76.9849 41.3115 76.4253 41.5635H76.4077L76.5791 40.5088C77.1914 40.4443 77.6616 40.4121 77.9897 40.4121C78.5054 40.4121 78.8979 40.5586 79.1675 40.8516C79.4399 41.1416 79.585 41.5459 79.6025 42.0645L79.6992 45H78.6929ZM81.0044 45L81.1274 41.1855L81.0044 38.0698H82.002L81.8833 41.1855L82.002 45H81.0044ZM83.3511 45L83.4741 41.1855L83.3511 38.0698H84.3486L84.23 41.1855L84.3486 45H83.3511ZM88.998 44.6309C88.6758 44.9355 88.1997 45.0879 87.5698 45.0879C87.2271 45.0879 86.918 45.022 86.6426 44.8901C86.3701 44.7583 86.1504 44.5811 85.9834 44.3584C85.8164 44.1357 85.689 43.8867 85.6011 43.6113C85.5132 43.3359 85.4692 43.0459 85.4692 42.7412C85.4692 42.3633 85.522 42.0249 85.6274 41.7261C85.7358 41.4243 85.8823 41.1797 86.0669 40.9922C86.2515 40.8018 86.4609 40.6582 86.6953 40.5615C86.9297 40.4619 87.1787 40.4121 87.4424 40.4121C88.0928 40.4121 88.5791 40.6421 88.9014 41.1021C89.2266 41.5591 89.3467 42.1978 89.2617 43.0181H86.3701C86.4141 43.4546 86.5474 43.7959 86.77 44.042C86.9956 44.2852 87.3428 44.4067 87.8115 44.4067C88.1924 44.4067 88.6128 44.272 89.0728 44.0024H89.0903L88.998 44.6309ZM86.3701 42.5698L88.4487 42.3018C88.4751 41.9824 88.4019 41.7231 88.229 41.5239C88.0562 41.3218 87.7881 41.2207 87.4248 41.2207C87.293 41.2207 87.167 41.2456 87.0469 41.2954C86.9268 41.3452 86.814 41.4214 86.7085 41.5239C86.606 41.6235 86.5239 41.7642 86.4624 41.9458C86.4009 42.1245 86.3701 42.3325 86.3701 42.5698Z" fill="black"/>
<path d="M64 18.7584C72.4273 15.7247 83.5191 10.6679 104.468 18.7584M104.468 18.7584L101.887 13.6754M104.468 18.7584L98.4804 20.9139" stroke="black" stroke-width="2" stroke-linecap="round"/>
</svg>
