<svg width="197" height="37" viewBox="0 0 197 37" fill="none" xmlns="http://www.w3.org/2000/svg">
<g clip-path="url(#clip0_1797_200)">
<path d="M73.7578 10.9963C73.4272 10.9963 73.1595 11.2563 73.1595 11.5785V25.4398C73.1595 25.761 73.4272 26.022 73.7578 26.022C74.0884 26.022 74.356 25.761 74.356 25.4398V11.5785C74.356 11.2573 74.0884 10.9963 73.7578 10.9963Z" fill="white"/>
<path d="M76.3889 12.0096C76.0583 12.0096 75.7907 12.2695 75.7907 12.5917V24.4283C75.7907 24.7494 76.0583 25.0104 76.3889 25.0104C76.7195 25.0104 76.9871 24.7494 76.9871 24.4283V12.5907C76.9871 12.2695 76.7195 12.0085 76.3889 12.0085V12.0096Z" fill="white"/>
<path d="M79.021 14.2373C78.6904 14.2373 78.4228 14.4973 78.4228 14.8194V22.1916C78.4228 22.5127 78.6904 22.7737 79.021 22.7737C79.3516 22.7737 79.6193 22.5137 79.6193 22.1916V14.8194C79.6193 14.4983 79.3516 14.2373 79.021 14.2373Z" fill="white"/>
<path d="M82.6319 18.5016C82.6326 17.9959 82.2117 17.5855 81.6918 17.5848C81.1719 17.5841 80.7498 17.9934 80.7491 18.499C80.7484 19.0047 81.1693 19.4151 81.6892 19.4158C82.2091 19.4165 82.6312 19.0072 82.6319 18.5016Z" fill="white"/>
<path d="M72.6862 9.44751C72.7975 9.29764 72.8636 9.11413 72.8636 8.91431C72.8636 8.40862 72.4417 7.99878 71.9222 7.99878C71.4027 7.99878 70.9808 8.40862 70.9808 8.91431C70.9808 9.15083 71.0742 9.36595 71.2253 9.52805C70.4151 10.4813 69.3509 11.0604 68.9395 11.2612C68.7957 10.935 68.462 10.7066 68.0737 10.7066C67.5531 10.7066 67.1323 11.1165 67.1323 11.6221C67.1323 12.1278 67.5542 12.5377 68.0737 12.5377C68.2867 12.5377 68.4819 12.4683 68.6393 12.3521C69.6794 13.9089 69.9733 15.7502 70.0562 16.6708C69.1064 16.5913 67.2099 16.3078 65.6073 15.2955C65.7207 15.1446 65.7878 14.959 65.7878 14.7582C65.7878 14.2525 65.3659 13.8426 64.8464 13.8426C64.3269 13.8426 63.905 14.2525 63.905 14.7582C63.905 15.1385 64.1433 15.4637 64.4823 15.6023C64.2461 16.0611 63.5702 17.2529 62.6278 17.8728C62.4557 17.6944 62.2122 17.5833 61.9414 17.5833C61.4209 17.5833 61 17.9931 61 18.4988C61 19.0045 61.4219 19.4143 61.9414 19.4143C62.2132 19.4143 62.4567 19.3022 62.6288 19.1227C63.5713 19.7426 64.2461 20.9364 64.4823 21.3942C64.1433 21.5329 63.905 21.8581 63.905 22.2384C63.905 22.744 64.3269 23.1539 64.8464 23.1539C65.3659 23.1539 65.7878 22.744 65.7878 22.2384C65.7878 22.0375 65.7207 21.852 65.6073 21.7011C67.211 20.6877 69.1085 20.4043 70.0572 20.3258C69.9754 21.2454 69.6836 23.0825 68.6393 24.6444C68.4819 24.5292 68.2857 24.4589 68.0737 24.4589C67.5531 24.4589 67.1323 24.8687 67.1323 25.3744C67.1323 25.8801 67.5542 26.2899 68.0737 26.2899C68.462 26.2899 68.7957 26.0616 68.9395 25.7353C69.3509 25.9351 70.413 26.5112 71.2253 27.4685C71.0731 27.6306 70.9797 27.8457 70.9797 28.0833C70.9797 28.5889 71.4016 28.9988 71.9211 28.9988C72.4406 28.9988 72.8626 28.5889 72.8626 28.0833C72.8626 27.8844 72.7964 27.7009 72.6852 27.55C71.876 26.2012 70.5767 25.3377 69.8179 24.9207C71.2453 22.5432 71.2421 19.8517 71.2411 19.7304L71.2369 19.1788L70.6701 19.1737C70.5442 19.1727 67.7756 19.1655 65.3292 20.5511C65.0102 19.9903 64.4476 19.136 63.6815 18.4967C64.4476 17.8585 65.0102 17.0052 65.3292 16.4445C67.7756 17.83 70.5452 17.8228 70.6712 17.8218L71.2379 17.8167L71.2421 17.2652C71.2421 17.1438 71.2463 14.4523 69.819 12.0748C70.5778 11.6578 71.8771 10.7943 72.6862 9.44547V9.44751Z" fill="white"/>
<path d="M87.8044 21.116C86.3036 21.116 85.1271 20.0231 85.1271 18.6284C85.1271 17.2337 86.2784 16.155 87.8044 16.155C89.3303 16.155 90.4816 17.2418 90.4816 18.6284C90.4816 20.0149 89.3062 21.116 87.8044 21.116ZM87.8107 16.8544C86.7832 16.8544 85.9478 17.6507 85.9478 18.6294C85.9478 19.6081 86.7832 20.4176 87.8107 20.4176C88.8381 20.4176 89.6515 19.6153 89.6515 18.6294C89.6515 17.6435 88.8423 16.8544 87.8107 16.8544Z" fill="white"/>
<path d="M93.097 21.1088C91.9625 21.1088 91.1701 20.336 91.1701 19.2299C91.1701 18.1237 91.9625 17.3376 93.097 17.3376C93.7656 17.3376 94.3071 17.5415 94.665 17.9279L94.2399 18.4132C93.9587 18.1431 93.5871 18.0003 93.1631 18.0003H93.1348C92.4411 18.0003 91.9562 18.506 91.9562 19.2299C91.9562 19.9537 92.4411 20.4594 93.1348 20.4594C93.6186 20.4594 94.0132 20.3075 94.2798 20.018L94.7091 20.4349C94.3543 20.8754 93.797 21.1078 93.097 21.1078V21.1088Z" fill="white"/>
<path d="M97.188 21.1088C96.0535 21.1088 95.2611 20.336 95.2611 19.2299C95.2611 18.1237 96.0535 17.3376 97.188 17.3376C97.8565 17.3376 98.3981 17.5415 98.756 17.9279L98.3309 18.4132C98.0496 18.1431 97.6781 18.0003 97.2541 18.0003H97.2258C96.5321 18.0003 96.0472 18.506 96.0472 19.2299C96.0472 19.9537 96.5321 20.4594 97.2258 20.4594C97.7096 20.4594 98.1042 20.3075 98.3708 20.018L98.8 20.4349C98.4453 20.8754 97.888 21.1078 97.188 21.1078V21.1088Z" fill="white"/>
<path d="M99.7362 21.0804V17.3663H100.514V21.0804H99.7362ZM100.125 16.727C99.8611 16.727 99.6627 16.5282 99.6627 16.2642C99.6627 16.0001 99.8611 15.7942 100.125 15.7942C100.388 15.7942 100.586 15.9961 100.586 16.2642C100.586 16.5323 100.388 16.727 100.125 16.727Z" fill="white"/>
<path d="M103.152 21.116C102.904 21.116 102.093 21.0385 102.093 20.0445V18.0646H101.547V17.5079H102.093V16.4741H102.871V17.5079H104.015V18.0646H102.871V19.8956C102.871 20.2657 103.007 20.4309 103.313 20.4309C103.475 20.4309 103.651 20.384 103.88 20.2779L104.075 20.8529C103.768 21.0263 103.458 21.115 103.152 21.115V21.116Z" fill="white"/>
<path d="M106.055 21.116C105.268 21.116 104.719 20.646 104.719 19.9741C104.719 19.3023 105.27 18.8741 106.158 18.8669H107.358V18.7272C107.358 18.2226 107.02 17.9443 106.406 17.9443C106.033 17.9443 105.651 18.0686 105.27 18.3154L104.955 17.7954C105.496 17.4855 105.883 17.3376 106.587 17.3376C107.559 17.3376 108.121 17.8107 108.128 18.6365L108.135 21.0813H107.365V20.6072L107.193 20.7581C106.926 20.9926 106.533 21.117 106.055 21.117V21.116ZM106.281 19.4103C105.708 19.4103 105.453 19.5734 105.453 19.9384C105.453 20.3034 105.758 20.5236 106.231 20.5236C106.838 20.5236 107.313 20.2127 107.358 19.7855V19.4103H106.282H106.281Z" fill="white"/>
<path d="M112.316 21.0803V18.9893C112.316 18.4102 111.948 18.0503 111.356 18.0503C110.724 18.0574 110.293 18.4601 110.229 19.1004V21.0803H109.444V17.3662H110.229V18.1033L110.414 17.8658C110.687 17.515 111.114 17.3376 111.684 17.3376C112.557 17.3376 113.1 17.8841 113.1 18.7629V21.0803H112.314H112.316Z" fill="white"/>
<path d="M114.409 21.0804V17.3663H115.187V21.0804H114.409ZM114.798 16.727C114.534 16.727 114.336 16.5282 114.336 16.2642C114.336 16.0001 114.534 15.7942 114.798 15.7942C115.061 15.7942 115.259 15.9961 115.259 16.2642C115.259 16.5323 115.061 16.727 114.798 16.727Z" fill="white"/>
<path d="M118.204 21.1088C117.034 21.1088 116.249 20.3544 116.249 19.2299C116.249 18.1053 117.045 17.3448 118.183 17.3376C118.767 17.3376 119.217 17.4987 119.521 17.8158C119.874 18.1838 120.026 18.7538 119.974 19.5092H117.03L117.069 19.6367C117.23 20.1709 117.691 20.5022 118.273 20.5022C118.691 20.5022 119.077 20.3503 119.365 20.075L119.773 20.4981C119.388 20.8978 118.847 21.1088 118.206 21.1088H118.204ZM118.19 17.9371C117.597 17.9371 117.168 18.2766 117.044 18.8455L117.017 18.9658H119.301L119.29 18.8557C119.228 18.2807 118.816 17.9371 118.191 17.9371H118.19Z" fill="white"/>
<path d="M85.1271 14.7421L85.1355 12.0322L85.6466 12.0404L85.6382 14.2864L86.8325 14.2945L86.8241 14.7421H85.1271Z" fill="white"/>
<path d="M87.8201 14.7614C87.3772 14.7614 87.0676 14.4953 87.0676 14.114C87.0676 13.7327 87.3699 13.4891 87.8747 13.486H88.476L88.4844 13.4452C88.4844 13.1924 88.3197 13.0588 88.008 13.0588C87.8106 13.0588 87.6081 13.1271 87.4055 13.2607L87.3793 13.278L87.1767 12.9263L87.1988 12.9232C87.501 12.7489 87.7141 12.6653 88.1056 12.6653C88.6492 12.6653 88.964 12.9314 88.9682 13.3963L88.9724 14.7512L88.4802 14.7431L88.4886 14.5493V14.53L88.475 14.5432C88.3249 14.686 88.0982 14.7624 87.8211 14.7624L87.8201 14.7614ZM87.9418 13.8449C87.6511 13.8449 87.5325 13.9172 87.5325 14.0946C87.5325 14.272 87.6795 14.375 87.9145 14.375C88.2221 14.375 88.4624 14.2211 88.4844 14.009V13.853L87.9418 13.8449Z" fill="white"/>
<path d="M90.5614 14.7421L90.5698 12.0322L91.7022 12.0404C92.4169 12.0404 92.8262 12.3789 92.8262 12.9692C92.8262 13.3831 92.6321 13.691 92.2784 13.8378L92.8913 14.7421H92.3109L91.8177 13.9418C91.7757 13.9397 91.7379 13.9397 91.7012 13.9397H91.0809L91.0725 14.7503L90.5604 14.7421H90.5614ZM91.0736 13.4881L91.7022 13.4963C92.1294 13.4963 92.3466 13.3229 92.3466 12.9804C92.3466 12.6378 92.1294 12.4839 91.7022 12.4839H91.0736V13.4881Z" fill="white"/>
<path d="M94.2609 14.7574C93.6113 14.7574 93.1757 14.3384 93.1757 13.7144C93.1757 13.0905 93.6176 12.6674 94.2494 12.6643C94.5737 12.6643 94.8234 12.754 94.9935 12.9314C95.1918 13.1384 95.2758 13.4575 95.2443 13.8796L95.2422 13.9061L93.6879 13.8989C93.7582 14.1895 93.9943 14.3638 94.2966 14.3638C94.517 14.3638 94.7195 14.2823 94.8686 14.1345L94.8896 14.113L95.1561 14.4006L95.1383 14.4087C94.9242 14.6371 94.6209 14.7574 94.262 14.7574H94.2609ZM94.2525 13.0538C93.9513 13.0538 93.7278 13.2352 93.669 13.5278L94.8014 13.537C94.7836 13.2301 94.5747 13.0527 94.2536 13.0527L94.2525 13.0538ZM93.923 12.4308L94.3753 11.8181L94.8938 12.0383L94.3701 12.4308H93.923Z" fill="white"/>
<path d="M96.5646 15.4914C96.255 15.4914 95.9601 15.4006 95.6882 15.2222L95.6652 15.2069L95.8898 14.8521L95.9034 14.8736C96.1112 15.0234 96.3096 15.0897 96.5446 15.0897C96.9288 15.0897 97.1775 14.8725 97.1775 14.5361V14.3475L97.1628 14.3658C97.0138 14.5473 96.7881 14.6442 96.51 14.6442C95.9359 14.6442 95.5497 14.2435 95.5497 13.6471C95.5497 13.0507 95.9296 12.6694 96.4943 12.6653C96.7839 12.6653 97.0085 12.7591 97.1628 12.9446L97.1775 12.962V12.6714L97.6739 12.6796L97.6655 14.5249C97.6655 15.1121 97.2331 15.4914 96.5646 15.4914ZM96.6003 13.0578C96.2592 13.0578 96.0188 13.3045 96.0146 13.6573C96.0188 14.0182 96.2539 14.2598 96.6003 14.2598C96.9466 14.2598 97.1785 14.0121 97.1785 13.6563C97.1785 13.3004 96.9414 13.0568 96.6003 13.0568V13.0578Z" fill="white"/>
<path d="M98.2406 14.7421L98.249 12.6715L98.7455 12.6796L98.7371 14.7421H98.2406ZM98.4936 12.4043C98.3319 12.4043 98.2102 12.283 98.2102 12.1219C98.2102 11.9608 98.3319 11.8354 98.4936 11.8354C98.6552 11.8354 98.7769 11.9588 98.7769 12.1219C98.7769 12.2851 98.6552 12.4043 98.4936 12.4043Z" fill="white"/>
<path d="M100.274 14.7574C99.6207 14.7574 99.1642 14.3272 99.1642 13.7104C99.1642 13.0936 99.6103 12.6633 100.274 12.6633C100.937 12.6633 101.379 13.0936 101.379 13.7104C101.379 14.3272 100.924 14.7574 100.274 14.7574ZM100.274 13.0813C99.9104 13.0813 99.6564 13.3423 99.6564 13.7155C99.6564 14.0886 99.9041 14.3527 100.274 14.3527C100.643 14.3527 100.886 14.0907 100.886 13.7155C100.886 13.3403 100.635 13.0813 100.274 13.0813Z" fill="white"/>
<path d="M101.797 14.7421L101.806 12.6714L102.305 12.6796L102.297 12.9844V13.0109L102.313 12.9895C102.465 12.7744 102.712 12.6643 103.043 12.6643C103.534 12.6643 103.839 12.9712 103.839 13.4636V14.7421H103.339L103.348 13.5849C103.348 13.2903 103.168 13.1149 102.868 13.1149C102.549 13.119 102.331 13.3229 102.298 13.6481V14.7502L101.798 14.7421H101.797Z" fill="white"/>
<path d="M86.0013 22.4209C86.5145 22.4209 86.8084 22.6676 86.8084 23.0979C86.8084 23.5281 86.5135 23.8054 86.0013 23.8054H85.5322V24.4028H85.1879V22.4209H86.0013ZM85.5322 23.5046H85.9866C86.3015 23.5046 86.4788 23.3741 86.4788 23.105C86.4788 22.8358 86.3015 22.7196 85.9866 22.7196H85.5322V23.5036V23.5046Z" fill="white"/>
<path d="M87.8117 24.61C87.7151 24.8476 87.5409 24.9668 87.3079 24.9668C87.1684 24.9668 87.0571 24.9271 86.949 24.8394L87.0917 24.5876C87.1642 24.6386 87.2229 24.661 87.2932 24.661C87.395 24.661 87.4769 24.6069 87.5294 24.4938L87.5819 24.3806L86.9406 22.8972H87.2869L87.7508 24.0381L88.1822 22.8972H88.517L87.8117 24.61Z" fill="white"/>
<path d="M89.1026 23.1969C89.2075 22.993 89.3943 22.886 89.6389 22.886V23.1969C89.3272 23.1796 89.1288 23.358 89.1026 23.616V24.403H88.7678V22.8962H89.1026V23.1959V23.1969Z" fill="white"/>
<path d="M91.2793 23.7739H90.107C90.1594 24.0064 90.3431 24.1501 90.5876 24.1501C90.7566 24.1501 90.9109 24.0879 91.0253 23.9748L91.2026 24.1593C91.0515 24.3204 90.829 24.4142 90.5614 24.4142C90.0828 24.4142 89.769 24.1052 89.769 23.6526C89.769 23.1999 90.0923 22.8879 90.553 22.8849C91.0977 22.8849 91.3191 23.2305 91.2793 23.7739ZM90.9875 23.5364C90.9759 23.2927 90.8101 23.1459 90.5561 23.1459C90.3022 23.1459 90.1395 23.2958 90.1017 23.5364H90.9875ZM90.341 22.681L90.6495 22.262L90.9938 22.4037L90.638 22.681H90.341Z" fill="white"/>
<path d="M93.1127 23.4649V24.4018H92.7779V23.5556C92.7779 23.3293 92.6384 23.1906 92.4043 23.1906C92.1482 23.1937 91.9877 23.366 91.9646 23.6015V24.4028H91.6298V22.896H91.9646V23.1845C92.0758 22.9755 92.2731 22.8848 92.5355 22.8848C92.8965 22.8848 93.1127 23.106 93.1127 23.4649Z" fill="white"/>
<path d="M94.9252 23.7739H93.7529C93.8054 24.0064 93.9891 24.1501 94.2336 24.1501C94.4026 24.1501 94.5568 24.0879 94.6712 23.9748L94.8486 24.1593C94.6975 24.3204 94.475 24.4142 94.2074 24.4142C93.7288 24.4142 93.415 24.1052 93.415 23.6526C93.415 23.1999 93.7382 22.8879 94.199 22.8849C94.7437 22.8849 94.9661 23.2305 94.9252 23.7739ZM94.6335 23.5364C94.6219 23.2927 94.4561 23.1459 94.2021 23.1459C93.9481 23.1459 93.7855 23.2958 93.7477 23.5364H94.6335ZM93.987 22.681L94.2955 22.262L94.6398 22.4037L94.284 22.681H93.987Z" fill="white"/>
<path d="M96.6391 23.7738H95.4668C95.5193 24.0062 95.7029 24.15 95.9475 24.15C96.1164 24.15 96.2707 24.0878 96.3851 23.9746L96.5625 24.1592C96.4113 24.3202 96.1888 24.414 95.9212 24.414C95.4426 24.414 95.1288 24.1051 95.1288 23.6525C95.1288 23.1998 95.4521 22.8878 95.9128 22.8848C96.4575 22.8848 96.68 23.2304 96.6391 23.7738ZM96.3473 23.5362C96.3358 23.2926 96.17 23.1458 95.916 23.1458C95.662 23.1458 95.4993 23.2956 95.4615 23.5362H96.3473Z" fill="white"/>
<path d="M97.994 23.0348L97.8712 23.2755C97.7337 23.1929 97.5626 23.1419 97.4251 23.1419C97.2877 23.1419 97.1974 23.1847 97.1974 23.2918C97.1974 23.5691 98.0223 23.4192 98.0192 23.9657C98.0192 24.2746 97.7368 24.4132 97.4241 24.4132C97.1964 24.4132 96.955 24.3398 96.8007 24.2032L96.9203 23.9708C97.0547 24.087 97.2698 24.1573 97.4388 24.1573C97.5815 24.1573 97.6928 24.1094 97.6928 23.9963C97.6928 23.6873 96.8763 23.8607 96.8794 23.3162C96.8794 23.0104 97.1533 22.8799 97.4503 22.8799C97.6455 22.8799 97.8523 22.937 97.9929 23.0328L97.994 23.0348Z" fill="white"/>
<path d="M99.0403 23.6525V23.4292H99.7572V23.6525H99.0403Z" fill="white"/>
<path d="M102.794 24.4028L102.791 22.9215L102.147 24.1959H101.922L101.278 22.9215V24.4028H100.955V22.4209H101.363L102.037 23.7381L102.707 22.4209H103.112V24.4028H102.794Z" fill="white"/>
<path d="M104.994 23.7739H103.822C103.874 24.0064 104.058 24.1501 104.303 24.1501C104.472 24.1501 104.626 24.0879 104.74 23.9748L104.918 24.1593C104.766 24.3204 104.544 24.4142 104.276 24.4142C103.798 24.4142 103.484 24.1052 103.484 23.6526C103.484 23.1999 103.807 22.8879 104.268 22.8849C104.813 22.8849 105.035 23.2305 104.994 23.7739ZM104.703 23.5364C104.692 23.2927 104.526 23.1459 104.272 23.1459C104.018 23.1459 103.855 23.2958 103.818 23.5364H104.703ZM104.056 22.681L104.364 22.262L104.709 22.4037L104.353 22.681H104.056Z" fill="white"/>
<path d="M106.822 24.403H106.488V24.145C106.376 24.3204 106.191 24.4173 105.943 24.4173C105.497 24.4173 105.2 24.1032 105.2 23.6445C105.2 23.1857 105.5 22.8829 105.938 22.8829C106.189 22.8829 106.375 22.9818 106.489 23.1571V22.3018H106.823V24.403H106.822ZM106.487 23.6557C106.487 23.3641 106.291 23.1602 106.011 23.1602C105.731 23.1602 105.536 23.3672 105.533 23.6557C105.536 23.9422 105.728 24.145 106.011 24.145C106.295 24.145 106.487 23.9411 106.487 23.6557Z" fill="white"/>
<path d="M107.694 22.4659C107.694 22.579 107.609 22.6616 107.498 22.6616C107.388 22.6616 107.303 22.579 107.303 22.4659C107.303 22.3527 107.388 22.2681 107.498 22.2681C107.609 22.2681 107.694 22.3506 107.694 22.4659ZM107.331 24.4029V22.8961H107.664V24.4029H107.331Z" fill="white"/>
<path d="M109.037 24.3061C108.914 24.3765 108.786 24.4162 108.655 24.4162C108.422 24.4162 108.22 24.2857 108.22 23.9778V23.1959H108.002V22.9522H108.22V22.5393H108.553V22.9522H109.011V23.1959H108.553V23.9177C108.553 24.0737 108.614 24.1216 108.719 24.1216C108.789 24.1216 108.862 24.0992 108.952 24.0563L109.037 24.3051V24.3061Z" fill="white"/>
<path d="M110.692 23.7738H109.52C109.572 24.0062 109.756 24.15 110 24.15C110.169 24.15 110.324 24.0878 110.438 23.9746L110.615 24.1592C110.464 24.3202 110.242 24.414 109.974 24.414C109.496 24.414 109.182 24.1051 109.182 23.6525C109.182 23.1998 109.505 22.8878 109.966 22.8848C110.51 22.8848 110.733 23.2304 110.692 23.7738ZM110.401 23.5362C110.39 23.2926 110.224 23.1458 109.97 23.1458C109.716 23.1458 109.553 23.2956 109.515 23.5362H110.401Z" fill="white"/>
<path d="M111.377 23.1969C111.482 22.993 111.669 22.886 111.914 22.886V23.1969C111.602 23.1796 111.404 23.358 111.377 23.616V24.403H111.042V22.8962H111.377V23.1959V23.1969Z" fill="white"/>
<path d="M112.525 23.1969C112.63 22.993 112.817 22.886 113.062 22.886V23.1969C112.75 23.1796 112.552 23.358 112.525 23.616V24.403H112.191V22.8962H112.525V23.1959V23.1969Z" fill="white"/>
<path d="M114.207 24.2185C114.095 24.3521 113.918 24.4163 113.694 24.4163C113.359 24.4163 113.149 24.2154 113.149 23.9493C113.149 23.6832 113.362 23.4987 113.734 23.4967H114.204V23.4518C114.204 23.2622 114.079 23.149 113.833 23.149C113.684 23.149 113.53 23.2 113.376 23.3019L113.238 23.0756C113.453 22.9512 113.612 22.886 113.906 22.886C114.305 22.886 114.529 23.0838 114.532 23.4151L114.535 24.403H114.206V24.2185H114.207ZM114.205 23.8729V23.7342H113.785C113.567 23.7342 113.465 23.7913 113.465 23.9351C113.465 24.0707 113.578 24.1583 113.765 24.1583C114.004 24.1583 114.188 24.037 114.205 23.8719V23.8729Z" fill="white"/>
<path d="M116.468 23.4649V24.4018H116.134V23.5556C116.134 23.3293 115.994 23.1906 115.76 23.1906C115.504 23.1937 115.343 23.366 115.32 23.6015V24.4028H114.985V22.896H115.32V23.1845C115.432 22.9755 115.629 22.8848 115.891 22.8848C116.252 22.8848 116.468 23.106 116.468 23.4649Z" fill="white"/>
<path d="M118.282 23.7739H117.11C117.162 24.0064 117.346 24.1501 117.59 24.1501C117.759 24.1501 117.914 24.0879 118.028 23.9748L118.205 24.1593C118.054 24.3204 117.832 24.4142 117.564 24.4142C117.086 24.4142 116.772 24.1052 116.772 23.6526C116.772 23.1999 117.095 22.8879 117.556 22.8849C118.1 22.8849 118.322 23.2305 118.282 23.7739ZM117.99 23.5364C117.979 23.2927 117.813 23.1459 117.559 23.1459C117.305 23.1459 117.142 23.2958 117.104 23.5364H117.99ZM117.343 22.681L117.651 22.262L117.995 22.4037L117.64 22.681H117.343Z" fill="white"/>
<path d="M119.995 23.7738H118.822C118.875 24.0062 119.059 24.15 119.303 24.15C119.472 24.15 119.626 24.0878 119.741 23.9746L119.918 24.1592C119.767 24.3202 119.545 24.414 119.277 24.414C118.798 24.414 118.484 24.1051 118.484 23.6525C118.484 23.1998 118.808 22.8878 119.268 22.8848C119.813 22.8848 120.036 23.2304 119.995 23.7738ZM119.704 23.5362C119.692 23.2926 119.527 23.1458 119.273 23.1458C119.019 23.1458 118.856 23.2956 118.818 23.5362H119.704Z" fill="white"/>
</g>
<path d="M7.29873 0.0012207L6.85497 0.22304C6.68339 0.313959 6.63824 0.520947 6.53891 0.651201C6.48537 0.722132 6.38024 0.793062 6.31316 0.889141C6.2564 0.970388 6.08418 1.27152 6.06741 1.3547C6.03967 1.49012 6.1777 2.19813 6.22995 2.35418C6.30284 2.57148 6.4886 2.67336 6.52472 2.87971C6.35766 2.90228 6.27446 2.7617 6.16867 2.66305L6.27704 2.87971C6.10482 2.84166 6.13062 3.00029 5.94421 2.9184C5.80424 2.85649 5.76619 2.80039 5.57268 2.76428C5.22051 2.69851 4.72578 2.64306 4.51293 2.98868L5.22438 2.81845L4.66773 3.00351C4.90961 2.99771 5.18052 3.03511 5.41079 3.11184C5.55527 3.15956 5.78102 3.34011 5.85907 3.3472C6.03516 3.36268 6.3009 3.24468 6.43184 3.12796C6.4428 3.14215 6.36089 3.45424 6.35186 3.46972C6.34283 3.4852 6.22028 3.59868 6.19641 3.63157C6.18867 3.64253 6.2106 3.67993 6.18673 3.70057C6.13836 3.74248 6.03193 3.76053 5.96808 3.77988L5.9971 3.83856C5.82875 3.91207 5.61138 4.00105 5.50302 4.15001L5.5959 4.18096L5.50302 4.24286C5.92293 4.28284 6.29381 4.09391 6.586 3.80954C6.44732 4.43437 5.35145 4.22868 5.06764 4.50659C5.0412 4.53239 5.07087 4.57688 5.06571 4.5801C5.04958 4.59042 5.00572 4.56914 4.97476 4.60267C4.93412 4.64652 4.8793 4.78387 4.97734 4.78387L4.82318 5.016C4.84318 5.03728 5.21277 4.68585 5.27856 4.65168C5.53463 4.51885 5.83907 4.55753 6.09966 4.51369C6.23963 4.48983 6.59116 4.2938 6.74144 4.22287C6.84723 4.17322 6.90979 4.03587 7.08137 4.0881C7.09943 4.22223 6.95559 4.25834 6.87948 4.33507C6.72403 4.49241 6.57181 4.71681 6.39894 4.84448C6.08353 5.07791 5.61912 5.17269 5.30178 5.41902H0.303589V0.0476479L0.35003 0.0012207H7.29873ZM4.82254 2.53924C4.29685 2.47411 4.05562 3.07251 3.64604 3.29691L3.42996 3.68445C3.64604 3.50841 3.82664 3.26982 4.07948 3.14086C4.10593 3.12732 4.14914 3.15634 4.16591 3.14924C4.23622 3.12087 4.42779 2.7243 4.63806 2.61791C4.69805 2.5876 4.79545 2.62049 4.82189 2.5386L4.82254 2.53924ZM4.60581 3.03446C4.45682 3.04607 4.38909 3.18342 4.32846 3.2982L4.51293 3.34398C4.51293 3.4104 4.36845 3.39363 4.35813 3.40588C4.27815 3.50518 4.47617 3.48068 4.45101 3.54452C4.39941 3.67413 4.13624 3.89401 4.01627 3.97784L3.92533 4.14807C4.18591 4.02749 4.47488 3.77343 4.76771 3.89466L5.68879 3.65285C5.70685 3.58192 5.6746 3.60191 5.65009 3.58256C5.45723 3.43103 5.15988 3.38976 4.93735 3.30658C4.81222 3.25951 4.69482 3.14215 4.54389 3.15763L4.60581 3.03446ZM5.07022 3.96301C5.0141 3.97333 4.83286 3.95334 4.85414 4.05586C4.90961 4.01653 5.09344 4.0694 5.07022 3.96301ZM4.69869 4.42728C4.44327 4.41503 4.14398 4.46404 3.97564 4.67425L3.89437 4.9225C4.16205 4.76517 4.45359 4.63169 4.69869 4.42728ZM4.63677 4.67489C4.60323 4.64201 4.44908 4.79225 4.48262 4.82965C4.51358 4.81482 4.67805 4.71616 4.63677 4.67489Z" fill="white"/>
<path d="M15.1911 0.00128964V5.4178H9.44985C9.43243 5.4178 9.20732 5.28109 9.14605 5.25724C9.02156 5.20952 8.6539 5.12053 8.63068 4.99931C8.56554 4.66142 8.80548 4.05787 9.19894 4.05916C9.46855 4.0598 10.1026 4.35255 10.1407 3.87732C10.1465 3.80252 10.0865 3.75609 10.0974 3.71224C10.1168 3.63228 10.3574 3.55297 10.1155 3.42078L10.2664 3.29246L10.211 3.03582C10.3051 3.0197 10.4348 3.00745 10.4567 2.89267C10.4728 2.72373 10.1129 2.41615 10.0858 2.21045C10.0716 2.10341 10.1187 2.017 10.1136 1.90867C10.1032 1.68428 9.96714 1.37734 9.89877 1.15939L9.91296 1.11425C10.0613 1.08008 10.1052 0.867931 9.94586 0.865996C9.91683 0.865996 9.91619 0.990447 9.8375 0.958851L9.86846 0.866641C9.72462 0.857614 9.65238 0.629346 9.46597 0.618384L9.72656 0.554547C9.96843 0.25277 9.58594 0.159916 9.40405 0H15.1917L15.1911 0.00128964Z" fill="white"/>
<path d="M40.0763 16.8699V13.9915H40.8651L40.9116 14.0379V18.0306L40.8651 18.077H39.8441L38.0019 15.1676V18.077H37.2131L37.1666 18.0306V14.0379L37.2131 13.9915H38.2341L40.0763 16.8699Z" fill="white"/>
<path d="M24.2599 19.8721L26.055 22.7196V19.8721H26.8909V23.9267H25.8073L24.0123 21.0482V23.9267H23.1763V19.8721H24.2599Z" fill="white"/>
<path d="M29.5523 17.3187C28.1674 19.0959 25.1281 17.9532 25.5732 15.5996C25.9183 13.7761 28.3448 13.2822 29.4284 14.7336L28.7673 15.1953C27.8552 14.1224 26.2666 14.7781 26.3956 16.2038C26.4975 17.3297 27.9133 17.7817 28.7163 17.0402V16.3747H27.6637V15.6474L27.7101 15.6009H29.5052L29.5516 15.6474V17.3187H29.5523Z" fill="white"/>
<path d="M1.96904 19.7573C4.88836 19.5142 5.15152 23.8803 2.29993 24.0499C-0.556182 24.2202 -0.849662 19.9921 1.96904 19.7573ZM2.06127 20.5311C0.192676 20.6704 0.598388 23.703 2.49666 23.2258C3.98212 22.8525 3.68799 20.4099 2.06127 20.5311Z" fill="white"/>
<path d="M33.91 13.9067C35.5257 13.7249 36.7558 15.0623 36.3152 16.6524C35.8289 18.4076 33.3636 18.7229 32.4058 17.2192C31.5712 15.9089 32.34 14.0828 33.9093 13.9061L33.91 13.9067ZM34.0022 14.6799C32.4503 14.8914 32.5703 17.5874 34.4234 17.392C36.0462 17.2211 35.8979 14.422 34.0022 14.6799Z" fill="white"/>
<path d="M0.334564 18.077V13.9915H2.14511C3.16874 13.9915 4.09046 14.9793 4.11175 15.9865C4.13432 17.0324 3.21002 18.077 2.14511 18.077H0.334564ZM1.1705 17.3033H2.20768C2.24444 17.3033 2.52115 17.2001 2.5734 17.1743C3.44481 16.7423 3.47899 15.403 2.63467 14.9264C2.56759 14.8884 2.26444 14.7659 2.20768 14.7659H1.1705V17.3039V17.3033Z" fill="white"/>
<path d="M22.1243 18.077H21.1336L20.0964 16.4676L19.6481 16.4366V18.077H18.8122V13.9915H20.2822C20.4402 13.9915 20.8001 14.1153 20.9459 14.1946C21.7322 14.624 21.6954 15.855 20.8988 16.2503L20.8891 16.2922L22.1237 18.077H22.1243ZM19.6481 15.7247H20.1899C20.2003 15.7247 20.3589 15.6796 20.3828 15.6699C20.7169 15.5345 20.7704 15.0019 20.4641 14.8014C20.437 14.7839 20.266 14.7033 20.2525 14.7033H19.6488V15.7247H19.6481Z" fill="white"/>
<path d="M7.11297 12.1962H6.12224L5.08506 10.5867L4.63678 10.5558V12.1962H3.80084V8.1106H5.27082C6.39508 8.1106 6.95108 9.48536 6.07515 10.2456C6.02097 10.2927 5.87262 10.3488 5.87778 10.4113L7.11297 12.1962ZM4.63678 9.84388H5.17859C5.18891 9.84388 5.34758 9.79874 5.37144 9.78907C5.70556 9.65365 5.7591 9.12103 5.45272 8.92049C5.42563 8.90308 5.2547 8.82248 5.24115 8.82248H4.63742V9.84388H4.63678Z" fill="white"/>
<path d="M12.4982 18.077L14.0301 14.0224L15.084 13.9895L16.6766 18.0777H15.7787L15.402 17.0305L13.7656 17.0395L13.3954 18.0777H12.4975L12.4982 18.077ZM15.1292 16.3128L14.5874 14.7962L14.0456 16.3128H15.1285H15.1292Z" fill="white"/>
<path d="M22.5578 23.9268H21.6599L21.2923 22.8925L19.6526 22.8783L19.2772 23.9268H18.3794L19.9107 19.9025C19.9345 19.8715 19.9687 19.8747 20.0029 19.8709C20.1119 19.858 20.9698 19.8586 21.0117 19.887L22.5578 23.9274V23.9268ZM21.0097 22.1626L20.4679 20.6769L19.9261 22.1626H21.0091H21.0097Z" fill="white"/>
<path d="M8.72164 20.6136L8.0876 21.0734C7.15555 19.9204 5.43208 20.7407 5.72943 22.1992C5.96744 23.3677 7.36776 23.6314 8.0876 22.7248L8.72229 23.2C7.93086 24.3471 6.09645 24.3123 5.27341 23.2116C4.3317 21.9516 5.00767 20.0597 6.57891 19.7863C7.35615 19.6509 8.30819 19.9101 8.72164 20.613V20.6136Z" fill="white"/>
<path d="M11.0372 19.7574C11.7429 19.6987 12.5163 19.9798 12.9336 20.5686L12.3008 21.0773C11.3972 19.9553 9.77044 20.664 9.93299 22.1123C10.053 23.1794 11.3333 23.6386 12.128 22.9209C12.1828 22.8712 12.2686 22.7113 12.324 22.7216L12.9291 23.2046C12.9471 23.2729 12.6878 23.5173 12.6227 23.5709C11.5487 24.4504 9.81237 24.0809 9.25315 22.7926C8.65587 21.4165 9.53373 19.8818 11.0379 19.7574H11.0372Z" fill="white"/>
<path d="M16.4295 8.1106V8.82248H14.8815V9.75102H16.2128V10.4629H14.8815V11.4843H16.4295V12.1962H14.0926L14.0462 12.1498V8.15702L14.0926 8.1106H16.4295Z" fill="white"/>
<path d="M9.99168 8.1106V8.82248H8.44366V9.75102H9.77496V10.4629H8.44366V11.4843H9.99168V12.1962H7.65481L7.60837 12.1498V8.15702L7.65481 8.1106H9.99168Z" fill="white"/>
<path d="M25.003 13.9915V14.7033H23.455V15.6319H24.7863V16.3438H23.455V17.3652H25.003V18.077H22.6662L22.6197 18.0306V14.0379L22.6662 13.9915H25.003Z" fill="white"/>
<path d="M7.26778 13.9915V14.7033H5.72039V15.6319H7.02009V16.3438H5.72039V17.3652H7.26778V18.077H4.88446V13.9915H7.26778Z" fill="white"/>
<path d="M32.369 19.8721V20.5375L32.3226 20.584H30.8217V21.5125H32.1213V22.2244H30.8217V23.2148H32.3226L32.369 23.2613V23.9267H29.9857V19.8721H32.369Z" fill="white"/>
<path d="M1.1705 10.5558V12.1962H0.334564V8.1106H1.89743C2.38247 8.1106 2.93976 8.4717 3.07393 8.94629C3.33193 9.85935 2.68434 10.5558 1.77423 10.5558H1.1705ZM1.1705 9.84388H1.80519C1.81615 9.84388 1.98837 9.78584 2.01417 9.77424C2.36764 9.61045 2.36957 9.0559 2.01869 8.88761C1.99353 8.87535 1.84776 8.82248 1.83615 8.82248H1.1705V9.84388Z" fill="white"/>
<path d="M13.3341 8.1106V8.82248H11.7867V9.75102H13.1174V10.4629H11.7867V12.1962H10.9972L10.9508 12.1498V8.15702L10.9972 8.1106H13.3341Z" fill="white"/>
<path d="M19.1528 8.88438V12.1962H18.3175V8.88438H17.079V8.1106H20.3757L20.4221 8.15702V8.83795L20.3757 8.88438H19.1528Z" fill="white"/>
<path d="M18.5651 19.8721V20.6149H17.2958V23.9267H16.4605V20.6149H15.222V19.8721H18.5651Z" fill="white"/>
<path d="M10.5792 13.9915V17.3033H12.0808L12.1273 17.3497V18.077H9.74396V13.9915H10.5792Z" fill="white"/>
<path d="M31.2861 13.9915H30.4501V18.077H31.2861V13.9915Z" fill="white"/>
<path d="M14.4796 19.8721H13.6437V23.9267H14.4796V19.8721Z" fill="white"/>
<path d="M28.8408 19.8721H28.0049V23.9267H28.8408V19.8721Z" fill="white"/>
<path d="M2.7798 30.6123L2.6695 31.1095L2.56308 31.1082C2.64951 30.7 2.21219 30.7335 1.92774 30.7671C1.63491 30.8012 1.58976 31.3713 1.47946 31.6034H1.95935C2.18446 31.6034 2.20574 31.2604 2.40827 31.2939C2.32765 31.4364 2.23541 31.9103 2.14511 32.0058C2.10834 32.0445 2.08641 32.0412 2.03675 32.0367C2.12124 31.5828 1.71682 31.753 1.4227 31.7324L1.13696 32.6042C1.40593 32.7112 1.76971 32.6719 2.02643 32.5371C2.10899 32.4939 2.40376 32.2237 2.46955 32.2843L2.14447 32.8105H0.334564L0.352625 32.7151C0.689965 32.6532 0.772527 32.5848 0.906689 32.2843C0.98151 32.116 1.39561 30.985 1.38077 30.8831C1.36207 30.7555 1.21371 30.7406 1.10987 30.7355L1.10793 30.6136H2.77916L2.7798 30.6123Z" fill="white"/>
<path d="M4.29621 31.2933L4.23558 31.4641L3.92533 31.479C4.02466 31.7769 3.81374 32.1309 3.5351 32.2495C3.4377 32.2914 3.31902 32.2831 3.23323 32.3495C2.93911 32.5777 3.51123 32.6474 3.64604 32.7015C4.42328 33.0143 3.55832 33.5044 3.10165 33.5482C2.15864 33.6385 2.07931 32.9846 2.93524 32.7776C2.84042 32.5171 2.9404 32.4236 3.15196 32.2985C2.58564 32.0451 2.9791 31.2739 3.48092 31.2333C3.6312 31.221 3.69377 31.2829 3.81697 31.2926C3.97371 31.3049 4.13947 31.2829 4.29686 31.2926L4.29621 31.2933ZM3.4835 31.3597C3.24549 31.4067 3.02102 32.1186 3.26613 32.1863C3.59895 32.256 3.82664 31.2913 3.4835 31.3597ZM3.04811 32.8176C2.74947 32.826 2.41858 33.3161 3.01586 33.3631C3.20227 33.378 3.68603 33.3257 3.67442 33.0781C3.65636 33.024 3.10939 32.8163 3.04876 32.8183L3.04811 32.8176Z" fill="white"/>
<path d="M4.57486 26.6504L4.14206 27.8885C4.35298 27.6918 4.48585 27.4351 4.82577 27.5306C4.95542 27.5673 4.95606 27.822 4.94639 27.9349C4.90639 28.3888 4.24848 29.2471 3.73892 29.1123C3.62992 29.0833 3.48866 28.9601 3.49382 28.8363L4.18592 27.016C4.24913 26.8438 4.02208 26.8477 4.04982 26.7129L4.57615 26.6504H4.57486ZM4.6013 27.8311C4.47746 27.7537 4.1756 27.9832 4.09691 28.0761C4.0324 28.1515 3.82407 28.6306 3.81568 28.7209C3.81052 28.7738 3.8389 28.8183 3.88147 28.8447C4.26783 29.0839 4.76191 28.147 4.6013 27.8311Z" fill="white"/>
<path d="M2.7798 34.3576L2.67079 34.8541L2.56308 34.8528C2.69853 34.4253 2.01804 34.3995 1.80325 34.542C1.6749 34.6271 1.53299 35.1791 1.47946 35.348H2.02127C2.15737 35.348 2.21864 35.0018 2.37731 35.0695C2.39666 35.0869 2.23928 35.5118 2.21477 35.5718C2.16769 35.6885 2.16382 35.8129 2.00643 35.7807C2.16704 35.3577 1.63813 35.5357 1.39045 35.5054C1.33885 35.8839 0.853153 36.4171 1.54202 36.4307C1.55557 36.4597 1.51429 36.5235 1.49558 36.5235H0.334564C0.351334 36.3926 0.563543 36.4152 0.67255 36.3507C0.717701 36.3243 0.795747 36.2392 0.824773 36.1934C0.96216 35.9767 1.24403 35.1468 1.32595 34.8683C1.34659 34.7993 1.39948 34.6574 1.38271 34.5955C1.34465 34.4543 1.06472 34.5188 1.10858 34.3569H2.7798V34.3576Z" fill="white"/>
<path d="M9.6511 35.4406C9.69883 35.4942 9.88008 35.2227 9.91233 35.1917C10.0665 35.046 10.4974 34.7997 10.547 35.1492C10.587 35.4284 10.1607 36.0145 10.0529 36.2918C10.189 36.3376 10.2903 36.148 10.3774 36.09C10.4206 36.0616 10.4535 36.0674 10.4541 36.1054C10.4554 36.1983 10.169 36.4846 10.0742 36.5297C9.92458 36.6013 9.6253 36.651 9.69496 36.3995L10.2374 35.3317C10.2206 35.1505 9.70786 35.518 9.64981 35.5877C9.52919 35.7327 9.30086 36.5446 9.24281 36.58C9.15702 36.5974 9.00093 36.6026 8.97384 36.5014C8.93643 36.3614 9.34278 35.7295 9.36923 35.5148C9.386 35.3787 9.37052 35.2227 9.21765 35.1917L9.22152 35.1511C9.49371 34.7565 9.72269 35.0595 9.65045 35.44L9.6511 35.4406Z" fill="white"/>
<path d="M2.19155 26.8979V26.9908C1.67554 26.9747 1.59169 27.515 1.44785 27.9032C1.38335 28.0773 1.12793 28.7247 1.17437 28.8589C1.2479 29.0736 1.76197 28.8447 1.89227 28.7492C1.96064 28.6989 2.25541 28.3546 2.31539 28.4146L2.00579 29.0646H0.334564C0.347464 28.9362 0.539033 28.9511 0.646105 28.8963C0.872503 28.7802 1.05311 28.156 1.14018 27.9045C1.20339 27.7233 1.37561 27.3268 1.3582 27.1604C1.34272 27.0095 1.20984 26.9973 1.07762 26.9908L1.10858 26.8979H2.19155Z" fill="white"/>
<path d="M5.72042 31.1693C5.56885 31.5871 5.30439 31.9882 5.22247 32.4228C5.26956 32.7278 5.48499 32.2693 5.56562 32.3454C5.42049 32.8658 4.87933 33.1676 4.93157 32.3764C4.7929 32.5473 4.47168 33.0593 4.21303 32.8007C4.01243 32.6008 4.31688 32.0056 4.46717 31.8186C4.82644 31.3718 4.97802 31.4356 5.45145 31.2866C5.52821 31.2621 5.57659 31.1164 5.72107 31.1699L5.72042 31.1693ZM5.22506 31.5407C4.84514 31.4614 4.46007 32.0707 4.45814 32.3925C4.45556 32.773 4.91029 32.3151 4.99156 32.1894C5.0251 32.1378 5.25021 31.5646 5.22506 31.5407Z" fill="white"/>
<path d="M5.22502 34.8836C5.27533 34.9307 4.7619 35.9347 4.74319 36.1204C4.73029 36.2506 4.78705 36.2861 4.90187 36.2158C4.91993 36.2048 5.09924 35.9779 5.10053 36.1055C5.10117 36.1739 4.82188 36.5543 4.73868 36.5795C4.45552 36.6659 4.4452 36.3009 4.43552 36.1217C4.31039 36.2861 4.13882 36.5846 3.90919 36.5885C3.4693 36.5956 3.75891 35.9069 3.88726 35.698C4.03949 35.4498 4.3678 35.148 4.65354 35.0712C4.76125 35.0422 4.87413 35.0551 4.95476 35.0319C5.03538 35.0087 5.08698 34.8365 5.22373 34.8836H5.22502ZM4.76061 35.2866C4.54001 35.188 4.31039 35.4311 4.19042 35.5987C4.05819 35.7831 3.92725 36.0501 4.02014 36.2738C4.50712 36.21 4.60903 35.6709 4.75996 35.2866H4.76061Z" fill="white"/>
<path d="M8.69133 30.86L8.56749 31.2927H8.93837C8.94482 31.5764 8.66811 31.4513 8.47848 31.4829L8.10244 32.5462C8.10115 32.6803 8.56104 32.2986 8.58748 32.2883C8.77002 32.2135 8.50363 32.5475 8.47396 32.5771C8.37012 32.6816 7.98827 32.906 7.84637 32.8673C7.78187 32.8338 7.72639 32.7583 7.74445 32.6848L8.19596 31.4938L7.91732 31.4784L7.92119 31.3739L7.96827 31.3281C8.06309 31.3197 8.17145 31.3301 8.25595 31.2752C8.40946 31.1759 8.44945 30.7987 8.69069 30.8593L8.69133 30.86Z" fill="white"/>
<path d="M6.8653 30.3958L6.06097 32.5475C6.04033 32.6243 6.12031 32.5727 6.15965 32.5533C6.2893 32.4901 6.3667 32.3367 6.49377 32.3612C6.38476 32.5656 6.21254 32.8132 5.96873 32.8596C5.78555 32.8944 5.70944 32.7997 5.76491 32.6223L6.48925 30.7124C6.50215 30.5873 6.31252 30.5628 6.33961 30.4267L6.8653 30.3958Z" fill="white"/>
<path d="M8.50555 27.1148L8.38235 27.5474H8.75388L8.72614 27.7151L8.3043 27.7635L7.91794 28.8319C7.98825 28.848 8.12434 28.7687 8.18756 28.73C8.22561 28.7068 8.53393 28.427 8.46878 28.6088C8.43524 28.7023 8.23077 28.9061 8.14498 28.966C7.97083 29.0873 7.50965 29.2846 7.58511 28.9016L8.01211 27.7493L7.79474 27.7331L7.79861 27.6132C7.87408 27.5784 8.01147 27.5971 8.07274 27.5629C8.13079 27.5307 8.37654 26.9845 8.50619 27.1148H8.50555Z" fill="white"/>
<path d="M12.6839 34.6051L12.5601 35.0378H12.931L12.9032 35.1745L12.4814 35.2228L12.095 36.2913C12.2944 36.3332 12.4782 36.0521 12.6065 35.9979C12.6633 35.974 12.6594 36.0295 12.6459 36.0682C12.5704 36.2803 11.9996 36.7227 11.7842 36.5718C11.7532 36.5473 11.7558 36.5118 11.7525 36.4777C11.7313 36.261 12.1079 35.5046 12.1873 35.2377C12.2163 35.1409 11.9351 35.219 11.9093 35.1925V35.07C11.9222 35.0578 12.1905 35.0552 12.2498 35.0223C12.3666 34.9565 12.4434 34.5238 12.6833 34.6051H12.6839Z" fill="white"/>
<path d="M6.27708 34.6052L6.15323 35.0379L6.52412 35.0533L6.44284 35.1887L6.06422 35.1971L5.65787 36.292C5.84943 36.3365 6.02681 36.0818 6.16291 36.0225C6.20355 36.0051 6.24676 36.0077 6.24483 36.0438C6.12421 36.2153 6.03778 36.3449 5.85266 36.4552C5.69399 36.5493 5.25731 36.7266 5.3231 36.392L5.74946 35.2378C5.76558 35.1404 5.52693 35.2184 5.50242 35.1926L5.505 35.0714L5.83718 35.0321C5.88233 34.9747 6.06874 34.6278 6.09712 34.6116C6.1384 34.5878 6.22483 34.6129 6.27643 34.6052H6.27708Z" fill="white"/>
<path d="M10.0149 31.7807C9.94717 31.8593 9.25701 31.9838 9.18348 32.0792C9.07899 32.2153 9.16477 32.597 9.41052 32.5564C9.60596 32.5242 9.67627 32.243 9.86719 32.2985C9.73754 32.5635 9.3041 33.0948 8.99901 32.7647C8.63586 32.3726 9.33828 30.9508 9.92653 31.2797C10.0762 31.3635 10.102 31.6794 10.0149 31.78V31.7807ZM9.74077 31.7542C9.77495 31.2113 9.30926 31.5266 9.24927 31.8503L9.74077 31.7542Z" fill="white"/>
<path d="M8.9732 28.3251C8.94675 28.5734 8.94546 28.9383 9.3028 28.7939C9.43696 28.7397 9.51243 28.5456 9.6511 28.5392C9.73883 28.6275 9.05769 29.4709 8.7784 28.9944C8.49911 28.5179 9.11897 27.2934 9.71367 27.5326C9.90072 27.6081 9.92265 27.9621 9.80526 28.0588C9.71367 28.1342 9.00351 28.2909 8.9732 28.3257V28.3251ZM9.51952 27.7725C9.35311 27.6061 9.05447 27.9588 9.06285 28.1362L9.55371 28.0085C9.57628 27.9737 9.55371 27.806 9.51952 27.7725Z" fill="white"/>
<path d="M14.0082 35.527L13.1864 35.7882C13.1045 36.0371 13.1251 36.3576 13.4664 36.2686C13.6154 36.2299 13.6966 35.9778 13.8605 36.0442C13.0671 37.3197 12.515 36.148 13.2425 35.2711C13.6166 34.8203 14.2288 34.8468 14.0088 35.527H14.0082ZM13.2412 35.5954L13.7063 35.4877C13.8327 34.9454 13.2812 35.2536 13.2412 35.5954Z" fill="white"/>
<path d="M5.356 28.329C5.2199 28.6734 5.40824 28.9874 5.76622 28.7243C5.85136 28.6617 5.9049 28.5244 6.02939 28.5392C5.75074 29.2911 4.83934 29.4226 5.12315 28.36C5.21022 28.0343 5.54563 27.4959 5.92167 27.503C6.23579 27.5088 6.30029 27.8009 6.16871 28.0434L5.356 28.329ZM5.41082 28.1362L5.87652 28.0292C6.0081 27.4772 5.44307 27.7957 5.41082 28.1362Z" fill="white"/>
<path d="M7.42257 36.0289C7.33614 36.2784 7.07362 36.597 6.78788 36.5886C6.30799 36.575 6.5073 35.82 6.64339 35.5433C6.77949 35.2667 7.07749 34.9017 7.4316 34.983C7.63349 35.0294 7.69928 35.3215 7.60317 35.4821C7.53416 35.5968 6.87947 35.6903 6.77175 35.7961C6.70854 35.858 6.71241 36.2081 6.83496 36.2604C7.10974 36.3771 7.34581 35.9567 7.42257 36.0295V36.0289ZM6.80336 35.5956C6.9859 35.5272 7.4445 35.5814 7.31292 35.2867C7.18133 34.992 6.83561 35.4266 6.80336 35.5956Z" fill="white"/>
<path d="M3.27515 35.4408L3.47897 35.0726C3.73633 34.814 3.89565 35.0616 3.79954 35.3466C3.50155 35.2963 3.3461 35.4169 3.20678 35.6671C3.11454 35.8335 2.94877 36.4751 2.85783 36.5557C2.78623 36.6189 2.67658 36.5828 2.59853 36.5512C2.51597 36.419 2.95845 35.6884 2.99457 35.4859C3.0223 35.3273 2.98747 35.2512 2.82945 35.3518C2.76688 35.3918 2.75462 35.5111 2.65594 35.5033C2.74817 34.9965 3.33836 34.6509 3.27515 35.4414V35.4408Z" fill="white"/>
<path d="M8.47525 35.4409L8.67843 35.0714C8.92612 34.8148 9.10866 35.0637 8.99771 35.3442C8.9732 35.3648 8.77325 35.3358 8.70746 35.3487C8.42559 35.4016 8.1921 36.2966 8.07406 36.5416C8.0044 36.6209 7.88056 36.5861 7.79799 36.5506C7.71414 36.4165 8.16113 35.6975 8.19339 35.4841C8.21725 35.3281 8.1921 35.2468 8.02891 35.3506C7.96634 35.3906 7.95409 35.5099 7.8554 35.5022C7.94893 35.0056 8.5404 34.6375 8.47461 35.4403L8.47525 35.4409Z" fill="white"/>
<path d="M7.08202 27.9507L7.28456 27.5812C7.53869 27.391 7.65608 27.5941 7.60835 27.8585C7.59674 27.8701 7.37357 27.8482 7.31487 27.8585C7.24457 27.8714 7.04332 28.1228 7.00269 28.1964C6.88336 28.413 6.79564 28.8953 6.66341 29.0643C6.60278 29.1417 6.51957 29.1462 6.43121 29.1114L6.37509 28.9637C6.4712 28.7077 6.63052 28.4491 6.72533 28.1976C6.75178 28.1274 6.86272 27.8449 6.72598 27.8333C6.60601 27.8656 6.56537 28.0268 6.43185 28.0119C6.59633 27.5522 7.06332 27.1872 7.08202 27.95V27.9507Z" fill="white"/>
<path d="M24.9411 12.8462L24.1826 13.6509H23.455C23.4414 13.5968 23.4776 13.589 23.5014 13.5581C23.6891 13.3098 23.9123 13.0777 24.1206 12.8462H24.9411Z" fill="white"/>
<path d="M9.92976 6.96558L9.17123 7.77031H8.44366C8.43011 7.71615 8.46623 7.70841 8.4901 7.67746C8.6778 7.4292 8.90097 7.19707 9.10931 6.96558H9.92976Z" fill="white"/>
<path d="M7.54192 31.2669C7.62835 31.4023 7.13621 32.3347 7.08267 32.5475C7.07751 32.5688 7.07558 32.5997 7.09751 32.5933L7.40776 32.3463C7.48451 32.3341 7.45613 32.3998 7.43936 32.4405C7.39034 32.5623 7.2278 32.7319 7.11105 32.7932C6.98527 32.859 6.72082 32.9396 6.75501 32.7164L7.20651 31.5261C7.06848 31.5003 6.97689 31.6873 6.88078 31.7576C6.80403 31.7698 6.83241 31.7041 6.84918 31.6635C6.94077 31.4352 7.2923 31.1579 7.54256 31.2669H7.54192Z" fill="white"/>
<path d="M11.0746 36.3073C11.2527 36.3144 11.3055 36.1184 11.4455 36.0597C11.4229 36.3383 11.063 36.6788 10.7786 36.5569L10.7721 36.3918L11.1991 35.2705C11.0656 35.2253 10.9547 35.4684 10.8734 35.502C10.736 35.5587 10.9314 35.2653 10.9521 35.2402C11.083 35.0757 11.5197 34.7804 11.5577 35.1325L11.0753 36.3073H11.0746Z" fill="white"/>
<path d="M3.30096 27.5218L3.33128 27.6792L2.84172 28.8327C2.98555 28.8908 3.11585 28.6361 3.19776 28.6006C3.32547 28.5458 3.12165 28.8521 3.10165 28.8759C2.98878 29.0146 2.6695 29.2577 2.53598 29.0423L2.96491 27.8113C2.80947 27.7643 2.74238 28.0557 2.59339 27.997C2.72045 27.7172 2.96749 27.4657 3.30032 27.5218H3.30096Z" fill="white"/>
<path d="M14.2933 34.2026C14.3003 34.2497 14.2933 34.2749 14.2642 34.3129C14.2442 34.3393 13.8185 34.7346 13.7824 34.7598C13.7295 34.7972 13.6824 34.8313 13.6121 34.8217L13.9572 34.2078L14.2926 34.2026H14.2933Z" fill="white"/>
<path d="M10.0839 26.7433C10.0929 26.7916 10.0794 26.8148 10.0549 26.8529C10.0258 26.8974 9.61883 27.2733 9.55949 27.3172C9.51692 27.3481 9.49692 27.3752 9.43436 27.3623C9.4092 27.3391 9.74525 26.7768 9.77492 26.7594C9.84587 26.7168 9.99874 26.7562 10.0839 26.7439V26.7433Z" fill="white"/>
<path d="M10.3006 30.4885C10.3148 30.542 10.2781 30.5504 10.2542 30.5814C10.2278 30.6162 9.78979 31.0302 9.76076 31.0469C9.71174 31.0753 9.67627 31.0831 9.61951 31.076L9.96007 30.504L10.3 30.4885H10.3006Z" fill="white"/>
<path d="M2.00577 30.4885C2.16896 30.2389 2.32118 29.8269 2.68626 30.0403C2.69722 30.0913 2.64304 30.1016 2.61595 30.1241C2.54436 30.1847 2.05737 30.5284 2.00513 30.4885H2.00577Z" fill="white"/>
<path d="M3.3597 26.6871C3.62415 26.6317 3.69059 27.0147 3.46935 27.0785C3.19909 27.1565 3.11137 26.7393 3.3597 26.6871Z" fill="white"/>
<path d="M11.5926 34.1454C11.8661 34.0964 11.8983 34.5052 11.6764 34.5433C11.3991 34.5904 11.3559 34.188 11.5926 34.1454Z" fill="white"/>
<path d="M7.78639 30.7599C7.61288 30.9334 7.29038 30.6619 7.48453 30.4736C7.67867 30.2853 7.9528 30.5929 7.78639 30.7599Z" fill="white"/>
<path d="M9.88783 2.16084C9.87944 2.17567 9.82784 2.18148 9.80204 2.24145C9.77624 2.30141 9.77431 2.38008 9.77495 2.44714H9.68207L9.66401 2.35107L9.49631 2.32269L9.83623 2.02866L9.58919 1.92097C9.71884 1.92097 9.83107 1.85907 9.94717 1.94999C9.99813 2.02156 9.91492 2.05896 9.88847 2.10797C9.88073 2.1228 9.89492 2.14859 9.88783 2.16149V2.16084Z" fill="white"/>
<g clip-path="url(#clip1_1797_200)">
<path d="M150.157 7C150.389 7.15593 150.679 7.19373 150.932 7.32839C151.792 7.79145 152.246 8.67504 152.312 9.62715C152.491 12.2118 152.17 14.9996 152.312 17.6055C152.137 19.831 149.201 19.779 149.023 17.7189C148.898 16.2753 149.193 14.546 149.026 13.1355C148.969 12.6488 148.386 12.663 148.301 13.0363L148.284 16.2446C148.142 16.8991 147.311 16.9676 147.053 16.3486C146.945 15.3492 147.157 14.168 147.041 13.1922C147.008 12.9111 146.826 12.7008 146.529 12.7953C146.158 12.9111 146.33 13.712 146.307 14.0451C146.033 18.0449 140.618 17.3716 141.043 13.7096C141.169 12.6394 142.222 11.6471 143.281 11.5314C143.84 11.4699 144.41 11.6589 144.254 12.3346C144.131 12.8686 143.33 12.7079 142.888 13.0056C141.445 13.9813 142.77 16.1785 144.32 15.3398C145.407 14.7515 144.811 13.5986 145.088 12.6583C145.345 11.7794 146.3 11.3353 147.167 11.5999C147.294 11.6377 147.608 11.8479 147.637 11.8479C147.703 11.8527 147.852 11.7038 147.949 11.6684C148.997 11.2691 149.973 11.7274 150.257 12.8142L150.273 17.6622C150.346 18.026 150.731 18.1654 150.977 17.863L151.001 9.35546C150.857 8.69631 150.32 8.32302 149.668 8.25451C148.326 8.11512 145.442 8.16001 144.195 8.6018C138.202 10.721 139.482 19.5664 145.652 20.0105C147.072 20.1121 149.453 20.1216 150.868 20.0105C154.433 19.7294 152.283 14.7728 153.398 12.8095C155.217 9.5988 160.145 12.8993 157.691 15.8501C157.299 16.3226 156.812 16.4974 156.283 16.7644L156.233 20.9555C155.9 21.4493 155.201 21.3406 155.043 20.7595C155.123 19.2947 154.891 17.6314 155.028 16.1903C155.099 15.439 155.567 15.6091 156.096 15.4461C157.062 15.146 157.384 13.8797 156.649 13.1639C155.799 12.3393 154.398 12.8875 154.294 14.0404C154.161 15.5193 154.565 17.4826 154.086 18.8647C153.646 20.1263 152.475 21.0689 151.147 21.2461C148.863 21.0855 146.132 21.6171 143.947 20.9296C141.762 20.2421 140.065 18.5127 139.38 16.4336C139.222 15.954 139.177 15.4461 139 14.9759V13.2796C139.158 12.9087 139.196 12.4835 139.312 12.0913C139.931 9.99098 141.608 8.19781 143.673 7.45125C144.202 7.25988 144.757 7.18192 145.289 7H150.16H150.157Z" fill="white"/>
<path d="M148.005 23.9111V27.8708L147.445 27.8637L147.356 27.4738C147.103 27.7621 146.909 27.9227 146.508 27.9298C144.826 27.9629 144.887 24.8703 146.734 25.0971C147.008 25.1302 147.093 25.2979 147.327 25.3806V23.9111H148.008H148.005ZM146.463 25.6216C146.08 25.7208 145.941 26.302 145.974 26.647C146.063 27.6014 147.223 27.6676 147.327 26.7674C147.398 26.1626 147.245 25.4208 146.463 25.6216Z" fill="white"/>
<path d="M166.415 27.644V29.0024H165.791L165.735 25.1562H166.358V25.4964C166.632 25.3854 166.746 25.1539 167.072 25.1066C168.137 24.9531 168.529 25.7799 168.456 26.7155C168.399 27.4621 167.854 28.0267 167.072 27.9228C166.814 27.8897 166.644 27.722 166.415 27.6463V27.644ZM166.965 25.6193C166.19 25.7776 166.242 27.3014 166.956 27.4125C168.097 27.5944 168.047 25.3972 166.965 25.6193Z" fill="white"/>
<path d="M181.085 27.5306L180.509 27.8873C178.545 28.2913 178.557 24.8255 180.485 25.1019C180.728 25.1373 180.849 25.2885 181.057 25.3807L181.085 25.1539H181.765L181.709 29.0001H181.085V27.5282V27.5306ZM180.277 25.6193C179.535 25.7705 179.549 27.2093 180.235 27.3888C181.35 27.6842 181.425 25.383 180.277 25.6193Z" fill="white"/>
<path d="M162.789 17.5771L162.675 18.085C161.563 17.759 160.542 18.1252 160.556 19.4128C160.57 20.7004 161.636 21.0382 162.675 20.6295L162.727 21.1894C161.624 21.5084 160.28 21.3288 159.928 20.0649C159.406 18.1819 161.055 16.9628 162.789 17.5771Z" fill="white"/>
<path d="M187.981 18.4962C190.114 18.2175 190.168 21.6219 187.858 21.3053C186.497 21.1187 186.362 18.7089 187.981 18.4962ZM188.148 18.9451C187.213 19.0325 187.307 20.9273 188.248 20.8588C189.129 20.795 189.086 18.8577 188.148 18.9451Z" fill="white"/>
<path d="M192.639 21.2508H191.959V19.4128C191.959 19.3844 191.803 19.1387 191.756 19.108C191.555 18.9781 191.226 19.0253 191.052 19.1836C191.004 19.2261 190.827 19.4931 190.827 19.5262V21.2508H190.147V18.5363L190.704 18.5433L190.799 18.8765C191.21 18.4914 191.907 18.2835 192.356 18.7347C192.427 18.8056 192.639 19.2285 192.639 19.2994V21.2508Z" fill="white"/>
<path d="M183.18 25.1538V26.9919C183.18 27.1667 183.487 27.3864 183.669 27.3982C183.863 27.41 184.258 27.1691 184.258 26.9919V25.1538H184.938V27.7266C184.938 27.7432 185.016 27.8069 184.995 27.8684H184.371C184.338 27.8353 184.447 27.462 184.286 27.5305C183.922 27.9936 183.109 28.1094 182.727 27.6156C182.658 27.5282 182.5 27.195 182.5 27.1076V25.1562H183.18V25.1538Z" fill="white"/>
<path d="M157.351 27.8683L156.793 27.8612L156.701 27.5871C156.21 28.1636 155.052 28.0053 155.024 27.1642C154.995 26.3232 155.985 26.0491 156.673 26.1176C156.699 25.3899 155.872 25.475 155.397 25.7136L155.262 25.2742C155.841 25.0616 156.758 24.9056 157.15 25.4986C157.218 25.6026 157.353 25.9262 157.353 26.0326V27.8706L157.351 27.8683ZM156.673 26.5122C156.148 26.4862 155.449 26.713 155.796 27.3603C156.443 27.6958 156.795 27.1288 156.673 26.5122Z" fill="white"/>
<path d="M151.064 26.6823H149.253C149.231 27.5139 150.257 27.5399 150.838 27.3037L150.946 27.7242C149.867 28.2416 148.494 27.8234 148.579 26.4366C148.697 24.4875 151.454 24.7025 151.067 26.6823H151.064ZM150.441 26.2287C150.516 25.2671 149.26 25.338 149.25 26.2287H150.441Z" fill="white"/>
<path d="M195.585 21.2508H194.964L194.876 20.9696C194.227 21.7398 192.849 21.1893 193.308 20.138C193.551 19.5804 194.305 19.5001 194.848 19.4978C194.843 18.7276 194.047 18.9449 193.542 19.0796C193.23 18.6142 193.768 18.5244 194.146 18.489C196.031 18.3094 195.37 20.0837 195.583 21.2531L195.585 21.2508ZM194.905 19.9514C194.46 19.8002 193.516 20.2136 193.971 20.7405C194.373 21.2059 195.094 20.4782 194.905 19.9514Z" fill="white"/>
<path d="M182.84 21.2532H182.217C182.297 20.7807 181.909 21.2461 181.666 21.2957C181.118 21.4068 180.558 21.2178 180.513 20.6035C180.447 19.6561 181.432 19.5215 182.16 19.4695C182.091 18.7513 181.262 18.8954 180.799 19.16L180.709 18.7064C181.404 18.3473 182.642 18.3189 182.776 19.3065C182.859 19.9136 182.703 20.6295 182.838 21.2532H182.84ZM182.16 19.9514C181.865 19.9538 181.572 19.8995 181.335 20.1168C181.009 20.4192 181.172 20.8894 181.621 20.8587C182.115 20.8256 182.209 20.3625 182.16 19.9491V19.9514Z" fill="white"/>
<path d="M168.624 21.2508H168V19.5828C168 19.5498 167.889 19.2615 167.858 19.2167C167.717 19.0158 167.374 18.9969 167.166 19.0891C167.098 19.1198 166.868 19.3891 166.868 19.4151V21.2532H166.188V18.5386H166.755L166.783 18.8788C167.216 18.4866 167.92 18.2645 168.371 18.763C168.432 18.8316 168.624 19.1836 168.624 19.2474V21.2555V21.2508Z" fill="white"/>
<path d="M179.894 21.2508H179.271V19.5828C179.271 19.5498 179.16 19.2615 179.129 19.2167C178.987 19.0158 178.645 18.9969 178.437 19.0891C178.368 19.1198 178.139 19.3891 178.139 19.4151V21.2532H177.459V18.5386H178.026L178.054 18.8788C178.486 18.4866 179.19 18.2645 179.642 18.763C179.703 18.8316 179.894 19.1836 179.894 19.2474V21.2555V21.2508Z" fill="white"/>
<path d="M188.051 26.6824H186.183C186.237 27.5494 187.189 27.5093 187.825 27.3037L187.877 27.7196C187.038 28.1921 185.708 27.9156 185.564 26.8194C185.278 24.6246 188.337 24.4285 188.051 26.6824ZM187.428 26.2288C187.442 25.2649 186.27 25.331 186.183 26.2288H187.428Z" fill="white"/>
<path d="M172.644 27.7265C172.647 27.7501 172.722 27.8045 172.701 27.8683H172.077C172.096 27.3816 172.025 27.6297 171.813 27.7454C170.471 28.4849 169.805 26.8217 170.87 26.2948C171.203 26.1294 171.6 26.1011 171.964 26.1153C172.011 25.3238 171.151 25.5175 170.662 25.7184L170.556 25.3569C170.946 24.9954 171.983 24.9812 172.361 25.3522C172.448 25.4372 172.644 25.8105 172.644 25.9168C172.644 26.4673 172.583 27.2044 172.644 27.7265ZM172.021 26.5122C171.574 26.4177 170.641 26.8051 171.114 27.3343C171.543 27.8163 172.226 27.0437 172.021 26.5122Z" fill="white"/>
<path d="M165.564 20.065H163.753C163.708 20.9533 164.681 20.8682 165.302 20.7477L165.427 21.1423C164.338 21.5959 163.013 21.2415 163.072 19.8689C163.157 17.941 165.9 18.0261 165.564 20.065ZM164.941 19.6114C164.983 18.6616 163.769 18.7278 163.75 19.6114H164.941Z" fill="white"/>
<path d="M175.704 20.0649H173.835C173.861 20.9933 174.815 20.8492 175.477 20.7429L175.533 21.1965C174.669 21.4588 173.339 21.3855 173.211 20.2633C172.951 17.9882 175.857 17.8275 175.704 20.0649ZM175.08 19.6113C175.023 18.6733 173.906 18.7229 173.835 19.6113H175.08Z" fill="white"/>
<path d="M175.874 25.6641H175.477V25.1538H175.874L175.9 24.6435C175.94 24.582 176.372 24.4804 176.469 24.4757C176.587 24.4686 176.542 24.4757 176.554 24.5584C176.571 24.6671 176.533 25.1325 176.554 25.1538H177.234V25.6617H176.554V27.1029C176.554 27.3462 176.991 27.4029 177.178 27.358L177.171 27.8589C176.793 27.9983 176.181 27.9652 175.994 27.5518C175.971 27.4974 175.876 27.195 175.876 27.1619V25.6641H175.874Z" fill="white"/>
<path d="M160.353 25.664H159.956V25.1537H160.353L160.379 24.6434L161.031 24.4189V25.1537L161.655 25.1868V25.664H161.031V27.1619C161.031 27.3887 161.501 27.3721 161.655 27.3603L161.648 27.8612C161.265 27.9887 160.705 27.9864 160.49 27.5895C160.462 27.5375 160.353 27.2469 160.353 27.2186V25.664Z" fill="white"/>
<path d="M183.634 19.0465H183.294V18.5362H183.634L183.641 18.0353L184.284 17.8582L184.312 18.5386H184.992V19.0465H184.312V20.4877C184.312 20.5018 184.439 20.731 184.463 20.7475C184.584 20.8255 184.796 20.7948 184.936 20.7995L184.881 21.2838C184.416 21.35 183.894 21.376 183.714 20.8562C183.7 20.8161 183.632 20.5066 183.632 20.4877V19.0465H183.634Z" fill="white"/>
<path d="M190.317 25.2128L190.204 25.664C189.934 25.5743 189.171 25.4018 189.185 25.8625C189.195 26.1932 190.078 26.2688 190.308 26.661C190.83 27.5493 189.795 28.0006 189.048 27.9179C188.503 27.8588 188.422 27.7643 188.618 27.2446C188.874 27.4359 189.726 27.6486 189.757 27.1595C189.783 26.6988 188.9 26.7225 188.652 26.2783C188.099 25.2884 189.599 24.823 190.319 25.2081L190.317 25.2128Z" fill="white"/>
<path d="M175.08 25.2128L174.967 25.664C174.91 25.7137 174.298 25.3664 174.036 25.664C173.658 26.0917 174.548 26.2452 174.782 26.3846C175.309 26.7036 175.323 27.4596 174.782 27.7667C174.501 27.925 174.128 27.9533 173.814 27.9179C173.268 27.8588 173.188 27.7643 173.384 27.2446C173.639 27.4359 174.492 27.6486 174.522 27.1595C174.548 26.6988 173.665 26.7225 173.417 26.2783C172.864 25.2884 174.364 24.823 175.085 25.2081L175.08 25.2128Z" fill="white"/>
<path d="M153.328 25.2151L153.214 25.6617C153.148 25.7089 152.224 25.2647 152.25 25.8625C152.267 26.2358 153.115 26.257 153.354 26.6846C153.956 27.7643 152.248 28.2179 151.518 27.7525L151.631 27.2469C151.891 27.4454 152.768 27.6226 152.822 27.1595C152.869 26.7461 151.957 26.6799 151.719 26.3397C151.069 25.4112 152.588 24.7592 153.328 25.2151Z" fill="white"/>
<path d="M163.864 25.2151L163.755 25.6404C163.703 25.6829 162.786 25.2955 162.784 25.8625C162.784 26.2783 163.845 26.2429 163.965 26.8382C164.201 27.9911 162.834 28.1022 162.052 27.7572L162.165 27.306C162.215 27.2611 163.297 27.7502 163.356 27.1619C163.408 26.6492 162.248 26.7839 162.163 26.0349C162.054 25.0616 163.157 24.9387 163.861 25.2175L163.864 25.2151Z" fill="white"/>
<path d="M169.528 19.0467H169.132V18.5364H169.528L169.552 18.0237L170.121 17.856L170.15 18.5364H170.83V19.0443H170.15V20.4288C170.15 20.6934 170.535 20.8564 170.771 20.7997C170.757 20.932 170.903 21.1942 170.776 21.2793C170.693 21.336 170.105 21.3147 169.977 21.2793C169.812 21.232 169.526 20.932 169.526 20.769V19.0443L169.528 19.0467Z" fill="white"/>
<path d="M169.758 23.9111H169.077V27.8708H169.758V23.9111Z" fill="white"/>
<path d="M197 17.2937H196.32V21.2533H197V17.2937Z" fill="white"/>
<path d="M158.088 25.1539H158.655C158.688 25.187 158.579 25.6288 158.74 25.5484C158.936 25.2177 159.219 25.0429 159.618 25.0972V25.7209C159.33 25.7067 159.137 25.6878 158.938 25.917C158.907 25.9524 158.768 26.184 158.768 26.2005V27.8685H158.088V25.1539Z" fill="white"/>
<path d="M171.399 18.6214C171.399 18.6049 171.314 18.5576 171.343 18.5364H171.966C171.999 18.5694 171.891 19.0112 172.051 18.9309C172.243 18.5931 172.543 18.4466 172.93 18.4797V19.1034C172.692 18.9994 172.08 19.2829 172.08 19.5263V21.2509H171.399C171.319 20.4335 171.508 19.4129 171.399 18.6214Z" fill="white"/>
<path d="M186.183 18.5364H185.503V21.2509H186.183V18.5364Z" fill="white"/>
<path d="M178.423 25.1538H177.742V27.8684H178.423V25.1538Z" fill="white"/>
<path d="M143.517 13.516C144.341 13.3577 144.559 14.5862 143.831 14.7351C142.886 14.9264 142.763 13.6625 143.517 13.516Z" fill="white"/>
<path d="M186.166 18.0142C185.873 18.3261 185.288 17.9859 185.554 17.5441C185.821 17.1023 186.53 17.6291 186.166 18.0142Z" fill="white"/>
<path d="M177.813 24.6317C177.719 24.5372 177.716 24.1899 177.813 24.0931C177.936 23.9702 178.321 23.9891 178.425 24.1616C178.699 24.6176 178.049 24.8704 177.813 24.6317Z" fill="white"/>
</g>
<defs>
<clipPath id="clip0_1797_200">
<rect width="59" height="21" fill="white" transform="translate(61 8)"/>
</clipPath>
<clipPath id="clip1_1797_200">
<rect width="58" height="22" fill="white" transform="translate(139 7)"/>
</clipPath>
</defs>
</svg>
