<svg width="66" height="42" viewBox="0 0 66 42" fill="none" xmlns="http://www.w3.org/2000/svg">
<path d="M15.0713 29.25H14.0913L14.1265 26.6045C13.7192 26.9268 13.3267 27.0879 12.9487 27.0879C12.5591 27.0879 12.2163 26.978 11.9204 26.7583C11.6274 26.5386 11.4077 26.2529 11.2612 25.9014C11.1177 25.5498 11.0459 25.1602 11.0459 24.7324C11.0459 24.0117 11.2495 23.4448 11.6567 23.0317C12.064 22.6187 12.5811 22.4121 13.208 22.4121C13.5625 22.4121 13.8774 22.4707 14.1528 22.5879L15.0361 22.5H15.0537L14.9526 23.5986L15.0713 29.25ZM13.2344 26.4067C13.5361 26.4067 13.8364 26.3013 14.1353 26.0903L14.1704 23.48C13.9009 23.313 13.5918 23.2295 13.2432 23.2295C13.0146 23.2295 12.814 23.272 12.6411 23.3569C12.4712 23.439 12.3364 23.5532 12.2368 23.6997C12.1401 23.8433 12.0669 24.0029 12.0171 24.1787C11.9702 24.3516 11.9468 24.5391 11.9468 24.7412C11.9468 25.2773 12.0566 25.689 12.2764 25.9761C12.499 26.2632 12.8184 26.4067 13.2344 26.4067ZM19.0132 26.4771C18.5298 26.8843 18.0859 27.0879 17.6816 27.0879C17.3066 27.0879 17.0181 26.9414 16.8159 26.6484C16.6167 26.3525 16.5127 25.9512 16.5039 25.4443L16.4775 23.6777L16.2886 22.5176V22.5H17.3872L17.3301 25.1455C17.3213 25.5322 17.3872 25.8032 17.5278 25.9585C17.6714 26.1138 17.8823 26.1914 18.1606 26.1914C18.4976 26.1914 18.8447 26.0684 19.2021 25.8223L19.1143 22.5H20.1206L20.0151 25.8223L20.1777 26.9824V27H19.2417L19.2241 26.2969L19.0132 26.4771ZM21.5664 20.25H22.665V20.2676L21.729 22.6802H21.1621L21.5664 20.25ZM26.1938 26.6309C25.8716 26.9355 25.3955 27.0879 24.7656 27.0879C24.4229 27.0879 24.1138 27.022 23.8384 26.8901C23.5659 26.7583 23.3462 26.5811 23.1792 26.3584C23.0122 26.1357 22.8848 25.8867 22.7969 25.6113C22.709 25.3359 22.665 25.0459 22.665 24.7412C22.665 24.3633 22.7178 24.0249 22.8232 23.7261C22.9316 23.4243 23.0781 23.1797 23.2627 22.9922C23.4473 22.8018 23.6567 22.6582 23.8911 22.5615C24.1255 22.4619 24.3745 22.4121 24.6382 22.4121C25.2886 22.4121 25.7749 22.6421 26.0972 23.1021C26.4224 23.5591 26.5425 24.1978 26.4575 25.0181H23.5659C23.6099 25.4546 23.7432 25.7959 23.9658 26.042C24.1914 26.2852 24.5386 26.4067 25.0073 26.4067C25.3882 26.4067 25.8086 26.272 26.2686 26.0024H26.2861L26.1938 26.6309ZM23.5659 24.5698L25.6445 24.3018C25.6709 23.9824 25.5977 23.7231 25.4248 23.5239C25.252 23.3218 24.9839 23.2207 24.6206 23.2207C24.4888 23.2207 24.3628 23.2456 24.2427 23.2954C24.1226 23.3452 24.0098 23.4214 23.9043 23.5239C23.8018 23.6235 23.7197 23.7642 23.6582 23.9458C23.5967 24.1245 23.5659 24.3325 23.5659 24.5698ZM29.0679 23.2031C28.8569 23.2031 28.6914 23.2441 28.5713 23.3262C28.4541 23.4053 28.3955 23.5107 28.3955 23.6426C28.3955 23.7773 28.4453 23.8989 28.5449 24.0073C28.6445 24.1128 28.8159 24.2197 29.0591 24.3281L29.5205 24.5347C29.8896 24.7046 30.1548 24.8833 30.3159 25.0708C30.48 25.2583 30.562 25.4897 30.562 25.7651C30.562 26.146 30.4287 26.4624 30.1621 26.7144C29.8984 26.9634 29.5161 27.0879 29.0151 27.0879C28.5171 27.0879 28.0908 26.9839 27.7363 26.7759L27.5649 25.7959H27.5825C27.8579 26.001 28.1128 26.1577 28.3472 26.2661C28.5845 26.3716 28.8306 26.4243 29.0854 26.4243C29.2788 26.4243 29.4282 26.376 29.5337 26.2793C29.6421 26.1826 29.6963 26.0508 29.6963 25.8838C29.6963 25.7314 29.645 25.6025 29.5425 25.4971C29.4399 25.3887 29.2876 25.292 29.0854 25.207L28.4922 24.9565C27.8447 24.6812 27.521 24.2549 27.521 23.6777C27.521 23.2939 27.6646 22.9878 27.9517 22.7593C28.2417 22.5278 28.6226 22.4121 29.0942 22.4121C29.5308 22.4121 29.9424 22.4927 30.3291 22.6538L30.4917 23.6777H30.4741C30.2661 23.5225 30.0376 23.4053 29.7886 23.3262C29.5396 23.2441 29.2993 23.2031 29.0679 23.2031ZM32.667 21.4541H32.7856L32.7944 22.5264L34.1436 22.4121V23.2383L32.7944 23.1284L32.8032 25.3521C32.8032 25.73 32.8779 26.001 33.0273 26.165C33.1797 26.3262 33.3687 26.4067 33.5942 26.4067C33.7847 26.4067 33.9678 26.3643 34.1436 26.2793H34.1611L34.0732 26.7759C33.9941 26.8638 33.8755 26.9385 33.7173 27C33.5591 27.0586 33.395 27.0879 33.2251 27.0879C32.8325 27.0879 32.5161 26.9619 32.2759 26.71C32.0356 26.4551 31.9199 26.0962 31.9287 25.6333L31.9771 23.0581L31.2827 23.0054V22.8955L32.667 21.4541ZM39.0039 22.4121C39.458 22.4121 39.8213 22.4839 40.0938 22.6274L40.2739 23.6777H40.2563C39.855 23.3789 39.4287 23.2295 38.9775 23.2295C38.6084 23.2295 38.3037 23.354 38.0635 23.603C37.8262 23.8521 37.7075 24.2227 37.7075 24.7148C37.7075 25.2686 37.8291 25.689 38.0723 25.9761C38.3184 26.2632 38.6494 26.4067 39.0654 26.4067C39.2822 26.4067 39.4844 26.3701 39.6719 26.2969C39.8594 26.2236 40.0571 26.1226 40.2651 25.9937H40.2827L40.1904 26.6221C40.0703 26.7422 39.896 26.8506 39.6675 26.9473C39.4419 27.041 39.2061 27.0879 38.96 27.0879C38.3271 27.0879 37.8115 26.8638 37.4131 26.4155C37.0146 25.9644 36.8154 25.3916 36.8154 24.6973C36.8154 24.3281 36.874 23.9956 36.9912 23.6997C37.1113 23.4038 37.2739 23.1636 37.479 22.979C37.6841 22.7944 37.9155 22.6538 38.1733 22.5571C38.4341 22.4604 38.7109 22.4121 39.0039 22.4121ZM44.6157 26.6309C44.2935 26.9355 43.8174 27.0879 43.1875 27.0879C42.8447 27.0879 42.5356 27.022 42.2603 26.8901C41.9878 26.7583 41.7681 26.5811 41.6011 26.3584C41.4341 26.1357 41.3066 25.8867 41.2188 25.6113C41.1309 25.3359 41.0869 25.0459 41.0869 24.7412C41.0869 24.3633 41.1396 24.0249 41.2451 23.7261C41.3535 23.4243 41.5 23.1797 41.6846 22.9922C41.8691 22.8018 42.0786 22.6582 42.313 22.5615C42.5474 22.4619 42.7964 22.4121 43.0601 22.4121C43.7104 22.4121 44.1968 22.6421 44.519 23.1021C44.8442 23.5591 44.9644 24.1978 44.8794 25.0181H41.9878C42.0317 25.4546 42.165 25.7959 42.3877 26.042C42.6133 26.2852 42.9604 26.4067 43.4292 26.4067C43.8101 26.4067 44.2305 26.272 44.6904 26.0024H44.708L44.6157 26.6309ZM41.9878 24.5698L44.0664 24.3018C44.0928 23.9824 44.0195 23.7231 43.8467 23.5239C43.6738 23.3218 43.4058 23.2207 43.0425 23.2207C42.9106 23.2207 42.7847 23.2456 42.6646 23.2954C42.5444 23.3452 42.4316 23.4214 42.3262 23.5239C42.2236 23.6235 42.1416 23.7642 42.0801 23.9458C42.0186 24.1245 41.9878 24.3325 41.9878 24.5698ZM4.94189 41.25H3.96191L3.99707 38.6045C3.58984 38.9268 3.19727 39.0879 2.81934 39.0879C2.42969 39.0879 2.08691 38.978 1.79102 38.7583C1.49805 38.5386 1.27832 38.2529 1.13184 37.9014C0.988281 37.5498 0.916504 37.1602 0.916504 36.7324C0.916504 36.0117 1.12012 35.4448 1.52734 35.0317C1.93457 34.6187 2.45166 34.4121 3.07861 34.4121C3.43311 34.4121 3.74805 34.4707 4.02344 34.5879L4.90674 34.5H4.92432L4.82324 35.5986L4.94189 41.25ZM3.10498 38.4067C3.40674 38.4067 3.70703 38.3013 4.00586 38.0903L4.04102 35.48C3.77148 35.313 3.4624 35.2295 3.11377 35.2295C2.88525 35.2295 2.68457 35.272 2.51172 35.3569C2.3418 35.439 2.20703 35.5532 2.10742 35.6997C2.01074 35.8433 1.9375 36.0029 1.8877 36.1787C1.84082 36.3516 1.81738 36.5391 1.81738 36.7412C1.81738 37.2773 1.92725 37.689 2.14697 37.9761C2.36963 38.2632 2.68896 38.4067 3.10498 38.4067ZM8.88379 38.4771C8.40039 38.8843 7.95654 39.0879 7.55225 39.0879C7.17725 39.0879 6.88867 38.9414 6.68652 38.6484C6.4873 38.3525 6.3833 37.9512 6.37451 37.4443L6.34814 35.6777L6.15918 34.5176V34.5H7.25781L7.20068 37.1455C7.19189 37.5322 7.25781 37.8032 7.39844 37.9585C7.54199 38.1138 7.75293 38.1914 8.03125 38.1914C8.36816 38.1914 8.71533 38.0684 9.07275 37.8223L8.98486 34.5H9.99121L9.88574 37.8223L10.0483 38.9824V39H9.1123L9.09473 38.2969L8.88379 38.4771ZM11.437 32.25H12.5356V32.2676L11.5996 34.6802H11.0327L11.437 32.25ZM13.9771 32.6191C14.1411 32.6191 14.2759 32.666 14.3813 32.7598C14.4897 32.8506 14.5439 32.9751 14.5439 33.1333C14.5439 33.3003 14.4897 33.4336 14.3813 33.5332C14.2759 33.6328 14.1411 33.6826 13.9771 33.6826C13.8218 33.6826 13.6899 33.6328 13.5815 33.5332C13.4731 33.4336 13.4189 33.3003 13.4189 33.1333C13.4189 32.9751 13.4731 32.8506 13.5815 32.7598C13.6899 32.666 13.8218 32.6191 13.9771 32.6191ZM13.4365 34.5H14.3726V34.5176L14.5 39H13.4937L13.5991 35.6777L13.4365 34.5176V34.5ZM15.8579 39L15.981 35.1855L15.8579 32.0698H16.8555L16.7368 35.1855L16.8555 39H15.8579ZM21.0566 35.1021L21.1753 39H20.1777L20.3008 35.1021H19.5537V34.4121L20.2744 34.5L20.2568 33.9331C20.251 33.8013 20.2539 33.6709 20.2656 33.542C20.2803 33.4102 20.3052 33.2725 20.3403 33.1289C20.3784 32.9824 20.4341 32.8491 20.5073 32.729C20.5835 32.606 20.6743 32.4946 20.7798 32.395C20.8853 32.2925 21.0215 32.2134 21.1885 32.1577C21.3555 32.0991 21.543 32.0698 21.751 32.0698C22 32.0698 22.1831 32.0874 22.3003 32.1226L22.4805 32.9883H22.4629C22.1992 32.8857 21.9854 32.8345 21.8213 32.8345C21.7012 32.8345 21.5972 32.855 21.5093 32.896C21.4243 32.937 21.354 32.9927 21.2983 33.063C21.2456 33.1304 21.2017 33.2212 21.1665 33.3354C21.1343 33.4468 21.1108 33.5625 21.0962 33.6826C21.0815 33.8027 21.0713 33.9463 21.0654 34.1133V34.5088L22.3267 34.4121V35.1021H21.0566ZM24.458 38.4331C24.7129 38.4331 25.0103 38.3013 25.3501 38.0376L25.3765 37.2554C25.1597 37.1353 24.9077 37.0752 24.6206 37.0752C24.3452 37.0752 24.127 37.1353 23.9658 37.2554C23.8076 37.3755 23.7285 37.5425 23.7285 37.7563C23.7285 37.9585 23.7944 38.1226 23.9263 38.2485C24.061 38.3716 24.2383 38.4331 24.458 38.4331ZM25.3237 39L25.3325 38.5781C24.8784 38.918 24.4946 39.0879 24.1812 39.0879C23.7622 39.0879 23.4341 38.9678 23.1968 38.7275C22.9595 38.4873 22.8408 38.1855 22.8408 37.8223C22.8408 37.6025 22.8818 37.4092 22.9639 37.2422C23.0459 37.0752 23.1528 36.9419 23.2847 36.8423C23.4165 36.7397 23.5747 36.6562 23.7593 36.5918C23.9468 36.5273 24.1343 36.4834 24.3218 36.46C24.5093 36.4365 24.7114 36.4248 24.9282 36.4248C25.0103 36.4248 25.1655 36.4307 25.394 36.4424L25.4028 36.2095C25.4087 35.9985 25.3896 35.8228 25.3457 35.6821C25.3047 35.5415 25.2388 35.4375 25.1479 35.3701C25.0571 35.2998 24.9604 35.2515 24.8579 35.2251C24.7583 35.1987 24.6367 35.1855 24.4932 35.1855C24.0947 35.1855 23.6157 35.3115 23.0562 35.5635H23.0386L23.21 34.5088C23.8223 34.4443 24.2925 34.4121 24.6206 34.4121C25.1362 34.4121 25.5288 34.5586 25.7983 34.8516C26.0708 35.1416 26.2158 35.5459 26.2334 36.0645L26.3301 39H25.3237ZM30.2236 38.4771C29.7402 38.8843 29.2964 39.0879 28.8921 39.0879C28.5171 39.0879 28.2285 38.9414 28.0264 38.6484C27.8271 38.3525 27.7231 37.9512 27.7144 37.4443L27.688 35.6777L27.499 34.5176V34.5H28.5977L28.5405 37.1455C28.5317 37.5322 28.5977 37.8032 28.7383 37.9585C28.8818 38.1138 29.0928 38.1914 29.3711 38.1914C29.708 38.1914 30.0552 38.0684 30.4126 37.8223L30.3247 34.5H31.3311L31.2256 37.8223L31.3882 38.9824V39H30.4521L30.4346 38.2969L30.2236 38.4771ZM33.5767 33.4541H33.6953L33.7041 34.5264L35.0532 34.4121V35.2383L33.7041 35.1284L33.7129 37.3521C33.7129 37.73 33.7876 38.001 33.937 38.165C34.0894 38.3262 34.2783 38.4067 34.5039 38.4067C34.6943 38.4067 34.8774 38.3643 35.0532 38.2793H35.0708L34.9829 38.7759C34.9038 38.8638 34.7852 38.9385 34.627 39C34.4688 39.0586 34.3047 39.0879 34.1348 39.0879C33.7422 39.0879 33.4258 38.9619 33.1855 38.71C32.9453 38.4551 32.8296 38.0962 32.8384 37.6333L32.8867 35.0581L32.1924 35.0054V34.8955L33.5767 33.4541ZM39.0039 35.1021L39.1226 39H38.125L38.248 35.1021H37.501V34.4121L38.2217 34.5L38.2041 33.9331C38.1982 33.8013 38.2012 33.6709 38.2129 33.542C38.2275 33.4102 38.2524 33.2725 38.2876 33.1289C38.3257 32.9824 38.3813 32.8491 38.4546 32.729C38.5308 32.606 38.6216 32.4946 38.7271 32.395C38.8325 32.2925 38.9688 32.2134 39.1357 32.1577C39.3027 32.0991 39.4902 32.0698 39.6982 32.0698C39.9473 32.0698 40.1304 32.0874 40.2476 32.1226L40.4277 32.9883H40.4102C40.1465 32.8857 39.9326 32.8345 39.7686 32.8345C39.6484 32.8345 39.5444 32.855 39.4565 32.896C39.3716 32.937 39.3013 32.9927 39.2456 33.063C39.1929 33.1304 39.1489 33.2212 39.1138 33.3354C39.0815 33.4468 39.0581 33.5625 39.0435 33.6826C39.0288 33.8027 39.0186 33.9463 39.0127 34.1133V34.5088L40.2739 34.4121V35.1021H39.0039ZM42.4053 38.4331C42.6602 38.4331 42.9575 38.3013 43.2974 38.0376L43.3237 37.2554C43.1069 37.1353 42.855 37.0752 42.5679 37.0752C42.2925 37.0752 42.0742 37.1353 41.9131 37.2554C41.7549 37.3755 41.6758 37.5425 41.6758 37.7563C41.6758 37.9585 41.7417 38.1226 41.8735 38.2485C42.0083 38.3716 42.1855 38.4331 42.4053 38.4331ZM43.271 39L43.2798 38.5781C42.8257 38.918 42.4419 39.0879 42.1284 39.0879C41.7095 39.0879 41.3813 38.9678 41.144 38.7275C40.9067 38.4873 40.7881 38.1855 40.7881 37.8223C40.7881 37.6025 40.8291 37.4092 40.9111 37.2422C40.9932 37.0752 41.1001 36.9419 41.2319 36.8423C41.3638 36.7397 41.522 36.6562 41.7065 36.5918C41.894 36.5273 42.0815 36.4834 42.269 36.46C42.4565 36.4365 42.6587 36.4248 42.8755 36.4248C42.9575 36.4248 43.1128 36.4307 43.3413 36.4424L43.3501 36.2095C43.356 35.9985 43.3369 35.8228 43.293 35.6821C43.252 35.5415 43.186 35.4375 43.0952 35.3701C43.0044 35.2998 42.9077 35.2515 42.8052 35.2251C42.7056 35.1987 42.584 35.1855 42.4404 35.1855C42.042 35.1855 41.563 35.3115 41.0034 35.5635H40.9858L41.1572 34.5088C41.7695 34.4443 42.2397 34.4121 42.5679 34.4121C43.0835 34.4121 43.4761 34.5586 43.7456 34.8516C44.0181 35.1416 44.1631 35.5459 44.1807 36.0645L44.2773 39H43.271ZM46.0747 32.6191C46.2388 32.6191 46.3735 32.666 46.479 32.7598C46.5874 32.8506 46.6416 32.9751 46.6416 33.1333C46.6416 33.3003 46.5874 33.4336 46.479 33.5332C46.3735 33.6328 46.2388 33.6826 46.0747 33.6826C45.9194 33.6826 45.7876 33.6328 45.6792 33.5332C45.5708 33.4336 45.5166 33.3003 45.5166 33.1333C45.5166 32.9751 45.5708 32.8506 45.6792 32.7598C45.7876 32.666 45.9194 32.6191 46.0747 32.6191ZM45.5342 34.5H46.4702V34.5176L46.5977 39H45.5913L45.6968 35.6777L45.5342 34.5176V34.5ZM49.9067 35.3657C49.7485 35.3657 49.5771 35.4009 49.3926 35.4712C49.208 35.5415 49.0381 35.6294 48.8828 35.7349L48.9707 39H47.9644L48.0698 35.6777L47.9072 34.5176V34.5H48.8433L48.8608 35.2383L49.0894 35.0493C49.1069 35.0347 49.1465 35.001 49.208 34.9482C49.2725 34.8955 49.3149 34.8604 49.3354 34.8428C49.356 34.8252 49.394 34.7944 49.4497 34.7505C49.5083 34.7036 49.5508 34.6714 49.5771 34.6538C49.6064 34.6362 49.6475 34.6113 49.7002 34.5791C49.7529 34.5439 49.7969 34.5205 49.832 34.5088C49.8672 34.4941 49.9082 34.478 49.9551 34.4604C50.0049 34.4399 50.0518 34.4268 50.0957 34.4209C50.1396 34.415 50.1851 34.4121 50.2319 34.4121C50.3872 34.4121 50.5073 34.418 50.5923 34.4297L50.7725 35.5459H50.7549C50.5117 35.4258 50.229 35.3657 49.9067 35.3657ZM54.7451 38.6309C54.4229 38.9355 53.9468 39.0879 53.3169 39.0879C52.9741 39.0879 52.665 39.022 52.3896 38.8901C52.1172 38.7583 51.8975 38.5811 51.7305 38.3584C51.5635 38.1357 51.436 37.8867 51.3481 37.6113C51.2603 37.3359 51.2163 37.0459 51.2163 36.7412C51.2163 36.3633 51.269 36.0249 51.3745 35.7261C51.4829 35.4243 51.6294 35.1797 51.814 34.9922C51.9985 34.8018 52.208 34.6582 52.4424 34.5615C52.6768 34.4619 52.9258 34.4121 53.1895 34.4121C53.8398 34.4121 54.3262 34.6421 54.6484 35.1021C54.9736 35.5591 55.0938 36.1978 55.0088 37.0181H52.1172C52.1611 37.4546 52.2944 37.7959 52.5171 38.042C52.7427 38.2852 53.0898 38.4067 53.5586 38.4067C53.9395 38.4067 54.3599 38.272 54.8198 38.0024H54.8374L54.7451 38.6309ZM52.1172 36.5698L54.1958 36.3018C54.2222 35.9824 54.1489 35.7231 53.9761 35.5239C53.8032 35.3218 53.5352 35.2207 53.1719 35.2207C53.04 35.2207 52.9141 35.2456 52.7939 35.2954C52.6738 35.3452 52.561 35.4214 52.4556 35.5239C52.353 35.6235 52.271 35.7642 52.2095 35.9458C52.1479 36.1245 52.1172 36.3325 52.1172 36.5698Z" fill="black"/>
<path d="M32 14C38.543 12.0395 47.1208 8.67697 63.8854 15.2933M63.8854 15.2933L61.6891 11.4746M63.8854 15.2933L59.2365 16.6864" stroke="black" stroke-width="2" stroke-linecap="round"/>
</svg>
