<svg width="77" height="47" viewBox="0 0 77 47" fill="none" xmlns="http://www.w3.org/2000/svg">
<path d="M15.0713 34.25H14.0913L14.1265 31.6045C13.7192 31.9268 13.3267 32.0879 12.9487 32.0879C12.5591 32.0879 12.2163 31.978 11.9204 31.7583C11.6274 31.5386 11.4077 31.2529 11.2612 30.9014C11.1177 30.5498 11.0459 30.1602 11.0459 29.7324C11.0459 29.0117 11.2495 28.4448 11.6567 28.0317C12.064 27.6187 12.5811 27.4121 13.208 27.4121C13.5625 27.4121 13.8774 27.4707 14.1528 27.5879L15.0361 27.5H15.0537L14.9526 28.5986L15.0713 34.25ZM13.2344 31.4067C13.5361 31.4067 13.8364 31.3013 14.1353 31.0903L14.1704 28.48C13.9009 28.313 13.5918 28.2295 13.2432 28.2295C13.0146 28.2295 12.814 28.272 12.6411 28.3569C12.4712 28.439 12.3364 28.5532 12.2368 28.6997C12.1401 28.8433 12.0669 29.0029 12.0171 29.1787C11.9702 29.3516 11.9468 29.5391 11.9468 29.7412C11.9468 30.2773 12.0566 30.689 12.2764 30.9761C12.499 31.2632 12.8184 31.4067 13.2344 31.4067ZM19.0132 31.4771C18.5298 31.8843 18.0859 32.0879 17.6816 32.0879C17.3066 32.0879 17.0181 31.9414 16.8159 31.6484C16.6167 31.3525 16.5127 30.9512 16.5039 30.4443L16.4775 28.6777L16.2886 27.5176V27.5H17.3872L17.3301 30.1455C17.3213 30.5322 17.3872 30.8032 17.5278 30.9585C17.6714 31.1138 17.8823 31.1914 18.1606 31.1914C18.4976 31.1914 18.8447 31.0684 19.2021 30.8223L19.1143 27.5H20.1206L20.0151 30.8223L20.1777 31.9824V32H19.2417L19.2241 31.2969L19.0132 31.4771ZM21.5664 25.25H22.665V25.2676L21.729 27.6802H21.1621L21.5664 25.25ZM26.1938 31.6309C25.8716 31.9355 25.3955 32.0879 24.7656 32.0879C24.4229 32.0879 24.1138 32.022 23.8384 31.8901C23.5659 31.7583 23.3462 31.5811 23.1792 31.3584C23.0122 31.1357 22.8848 30.8867 22.7969 30.6113C22.709 30.3359 22.665 30.0459 22.665 29.7412C22.665 29.3633 22.7178 29.0249 22.8232 28.7261C22.9316 28.4243 23.0781 28.1797 23.2627 27.9922C23.4473 27.8018 23.6567 27.6582 23.8911 27.5615C24.1255 27.4619 24.3745 27.4121 24.6382 27.4121C25.2886 27.4121 25.7749 27.6421 26.0972 28.1021C26.4224 28.5591 26.5425 29.1978 26.4575 30.0181H23.5659C23.6099 30.4546 23.7432 30.7959 23.9658 31.042C24.1914 31.2852 24.5386 31.4067 25.0073 31.4067C25.3882 31.4067 25.8086 31.272 26.2686 31.0024H26.2861L26.1938 31.6309ZM23.5659 29.5698L25.6445 29.3018C25.6709 28.9824 25.5977 28.7231 25.4248 28.5239C25.252 28.3218 24.9839 28.2207 24.6206 28.2207C24.4888 28.2207 24.3628 28.2456 24.2427 28.2954C24.1226 28.3452 24.0098 28.4214 23.9043 28.5239C23.8018 28.6235 23.7197 28.7642 23.6582 28.9458C23.5967 29.1245 23.5659 29.3325 23.5659 29.5698ZM29.0679 28.2031C28.8569 28.2031 28.6914 28.2441 28.5713 28.3262C28.4541 28.4053 28.3955 28.5107 28.3955 28.6426C28.3955 28.7773 28.4453 28.8989 28.5449 29.0073C28.6445 29.1128 28.8159 29.2197 29.0591 29.3281L29.5205 29.5347C29.8896 29.7046 30.1548 29.8833 30.3159 30.0708C30.48 30.2583 30.562 30.4897 30.562 30.7651C30.562 31.146 30.4287 31.4624 30.1621 31.7144C29.8984 31.9634 29.5161 32.0879 29.0151 32.0879C28.5171 32.0879 28.0908 31.9839 27.7363 31.7759L27.5649 30.7959H27.5825C27.8579 31.001 28.1128 31.1577 28.3472 31.2661C28.5845 31.3716 28.8306 31.4243 29.0854 31.4243C29.2788 31.4243 29.4282 31.376 29.5337 31.2793C29.6421 31.1826 29.6963 31.0508 29.6963 30.8838C29.6963 30.7314 29.645 30.6025 29.5425 30.4971C29.4399 30.3887 29.2876 30.292 29.0854 30.207L28.4922 29.9565C27.8447 29.6812 27.521 29.2549 27.521 28.6777C27.521 28.2939 27.6646 27.9878 27.9517 27.7593C28.2417 27.5278 28.6226 27.4121 29.0942 27.4121C29.5308 27.4121 29.9424 27.4927 30.3291 27.6538L30.4917 28.6777H30.4741C30.2661 28.5225 30.0376 28.4053 29.7886 28.3262C29.5396 28.2441 29.2993 28.2031 29.0679 28.2031ZM32.667 26.4541H32.7856L32.7944 27.5264L34.1436 27.4121V28.2383L32.7944 28.1284L32.8032 30.3521C32.8032 30.73 32.8779 31.001 33.0273 31.165C33.1797 31.3262 33.3687 31.4067 33.5942 31.4067C33.7847 31.4067 33.9678 31.3643 34.1436 31.2793H34.1611L34.0732 31.7759C33.9941 31.8638 33.8755 31.9385 33.7173 32C33.5591 32.0586 33.395 32.0879 33.2251 32.0879C32.8325 32.0879 32.5161 31.9619 32.2759 31.71C32.0356 31.4551 31.9199 31.0962 31.9287 30.6333L31.9771 28.0581L31.2827 28.0054V27.8955L32.667 26.4541ZM39.0039 27.4121C39.458 27.4121 39.8213 27.4839 40.0938 27.6274L40.2739 28.6777H40.2563C39.855 28.3789 39.4287 28.2295 38.9775 28.2295C38.6084 28.2295 38.3037 28.354 38.0635 28.603C37.8262 28.8521 37.7075 29.2227 37.7075 29.7148C37.7075 30.2686 37.8291 30.689 38.0723 30.9761C38.3184 31.2632 38.6494 31.4067 39.0654 31.4067C39.2822 31.4067 39.4844 31.3701 39.6719 31.2969C39.8594 31.2236 40.0571 31.1226 40.2651 30.9937H40.2827L40.1904 31.6221C40.0703 31.7422 39.896 31.8506 39.6675 31.9473C39.4419 32.041 39.2061 32.0879 38.96 32.0879C38.3271 32.0879 37.8115 31.8638 37.4131 31.4155C37.0146 30.9644 36.8154 30.3916 36.8154 29.6973C36.8154 29.3281 36.874 28.9956 36.9912 28.6997C37.1113 28.4038 37.2739 28.1636 37.479 27.979C37.6841 27.7944 37.9155 27.6538 38.1733 27.5571C38.4341 27.4604 38.7109 27.4121 39.0039 27.4121ZM44.6157 31.6309C44.2935 31.9355 43.8174 32.0879 43.1875 32.0879C42.8447 32.0879 42.5356 32.022 42.2603 31.8901C41.9878 31.7583 41.7681 31.5811 41.6011 31.3584C41.4341 31.1357 41.3066 30.8867 41.2188 30.6113C41.1309 30.3359 41.0869 30.0459 41.0869 29.7412C41.0869 29.3633 41.1396 29.0249 41.2451 28.7261C41.3535 28.4243 41.5 28.1797 41.6846 27.9922C41.8691 27.8018 42.0786 27.6582 42.313 27.5615C42.5474 27.4619 42.7964 27.4121 43.0601 27.4121C43.7104 27.4121 44.1968 27.6421 44.519 28.1021C44.8442 28.5591 44.9644 29.1978 44.8794 30.0181H41.9878C42.0317 30.4546 42.165 30.7959 42.3877 31.042C42.6133 31.2852 42.9604 31.4067 43.4292 31.4067C43.8101 31.4067 44.2305 31.272 44.6904 31.0024H44.708L44.6157 31.6309ZM41.9878 29.5698L44.0664 29.3018C44.0928 28.9824 44.0195 28.7231 43.8467 28.5239C43.6738 28.3218 43.4058 28.2207 43.0425 28.2207C42.9106 28.2207 42.7847 28.2456 42.6646 28.2954C42.5444 28.3452 42.4316 28.4214 42.3262 28.5239C42.2236 28.6235 42.1416 28.7642 42.0801 28.9458C42.0186 29.1245 41.9878 29.3325 41.9878 29.5698ZM4.94189 46.25H3.96191L3.99707 43.6045C3.58984 43.9268 3.19727 44.0879 2.81934 44.0879C2.42969 44.0879 2.08691 43.978 1.79102 43.7583C1.49805 43.5386 1.27832 43.2529 1.13184 42.9014C0.988281 42.5498 0.916504 42.1602 0.916504 41.7324C0.916504 41.0117 1.12012 40.4448 1.52734 40.0317C1.93457 39.6187 2.45166 39.4121 3.07861 39.4121C3.43311 39.4121 3.74805 39.4707 4.02344 39.5879L4.90674 39.5H4.92432L4.82324 40.5986L4.94189 46.25ZM3.10498 43.4067C3.40674 43.4067 3.70703 43.3013 4.00586 43.0903L4.04102 40.48C3.77148 40.313 3.4624 40.2295 3.11377 40.2295C2.88525 40.2295 2.68457 40.272 2.51172 40.3569C2.3418 40.439 2.20703 40.5532 2.10742 40.6997C2.01074 40.8433 1.9375 41.0029 1.8877 41.1787C1.84082 41.3516 1.81738 41.5391 1.81738 41.7412C1.81738 42.2773 1.92725 42.689 2.14697 42.9761C2.36963 43.2632 2.68896 43.4067 3.10498 43.4067ZM8.88379 43.4771C8.40039 43.8843 7.95654 44.0879 7.55225 44.0879C7.17725 44.0879 6.88867 43.9414 6.68652 43.6484C6.4873 43.3525 6.3833 42.9512 6.37451 42.4443L6.34814 40.6777L6.15918 39.5176V39.5H7.25781L7.20068 42.1455C7.19189 42.5322 7.25781 42.8032 7.39844 42.9585C7.54199 43.1138 7.75293 43.1914 8.03125 43.1914C8.36816 43.1914 8.71533 43.0684 9.07275 42.8223L8.98486 39.5H9.99121L9.88574 42.8223L10.0483 43.9824V44H9.1123L9.09473 43.2969L8.88379 43.4771ZM11.437 37.25H12.5356V37.2676L11.5996 39.6802H11.0327L11.437 37.25ZM13.9771 37.6191C14.1411 37.6191 14.2759 37.666 14.3813 37.7598C14.4897 37.8506 14.5439 37.9751 14.5439 38.1333C14.5439 38.3003 14.4897 38.4336 14.3813 38.5332C14.2759 38.6328 14.1411 38.6826 13.9771 38.6826C13.8218 38.6826 13.6899 38.6328 13.5815 38.5332C13.4731 38.4336 13.4189 38.3003 13.4189 38.1333C13.4189 37.9751 13.4731 37.8506 13.5815 37.7598C13.6899 37.666 13.8218 37.6191 13.9771 37.6191ZM13.4365 39.5H14.3726V39.5176L14.5 44H13.4937L13.5991 40.6777L13.4365 39.5176V39.5ZM15.8579 44L15.981 40.1855L15.8579 37.0698H16.8555L16.7368 40.1855L16.8555 44H15.8579ZM21.0566 40.1021L21.1753 44H20.1777L20.3008 40.1021H19.5537V39.4121L20.2744 39.5L20.2568 38.9331C20.251 38.8013 20.2539 38.6709 20.2656 38.542C20.2803 38.4102 20.3052 38.2725 20.3403 38.1289C20.3784 37.9824 20.4341 37.8491 20.5073 37.729C20.5835 37.606 20.6743 37.4946 20.7798 37.395C20.8853 37.2925 21.0215 37.2134 21.1885 37.1577C21.3555 37.0991 21.543 37.0698 21.751 37.0698C22 37.0698 22.1831 37.0874 22.3003 37.1226L22.4805 37.9883H22.4629C22.1992 37.8857 21.9854 37.8345 21.8213 37.8345C21.7012 37.8345 21.5972 37.855 21.5093 37.896C21.4243 37.937 21.354 37.9927 21.2983 38.063C21.2456 38.1304 21.2017 38.2212 21.1665 38.3354C21.1343 38.4468 21.1108 38.5625 21.0962 38.6826C21.0815 38.8027 21.0713 38.9463 21.0654 39.1133V39.5088L22.3267 39.4121V40.1021H21.0566ZM24.458 43.4331C24.7129 43.4331 25.0103 43.3013 25.3501 43.0376L25.3765 42.2554C25.1597 42.1353 24.9077 42.0752 24.6206 42.0752C24.3452 42.0752 24.127 42.1353 23.9658 42.2554C23.8076 42.3755 23.7285 42.5425 23.7285 42.7563C23.7285 42.9585 23.7944 43.1226 23.9263 43.2485C24.061 43.3716 24.2383 43.4331 24.458 43.4331ZM25.3237 44L25.3325 43.5781C24.8784 43.918 24.4946 44.0879 24.1812 44.0879C23.7622 44.0879 23.4341 43.9678 23.1968 43.7275C22.9595 43.4873 22.8408 43.1855 22.8408 42.8223C22.8408 42.6025 22.8818 42.4092 22.9639 42.2422C23.0459 42.0752 23.1528 41.9419 23.2847 41.8423C23.4165 41.7397 23.5747 41.6562 23.7593 41.5918C23.9468 41.5273 24.1343 41.4834 24.3218 41.46C24.5093 41.4365 24.7114 41.4248 24.9282 41.4248C25.0103 41.4248 25.1655 41.4307 25.394 41.4424L25.4028 41.2095C25.4087 40.9985 25.3896 40.8228 25.3457 40.6821C25.3047 40.5415 25.2388 40.4375 25.1479 40.3701C25.0571 40.2998 24.9604 40.2515 24.8579 40.2251C24.7583 40.1987 24.6367 40.1855 24.4932 40.1855C24.0947 40.1855 23.6157 40.3115 23.0562 40.5635H23.0386L23.21 39.5088C23.8223 39.4443 24.2925 39.4121 24.6206 39.4121C25.1362 39.4121 25.5288 39.5586 25.7983 39.8516C26.0708 40.1416 26.2158 40.5459 26.2334 41.0645L26.3301 44H25.3237ZM30.2236 43.4771C29.7402 43.8843 29.2964 44.0879 28.8921 44.0879C28.5171 44.0879 28.2285 43.9414 28.0264 43.6484C27.8271 43.3525 27.7231 42.9512 27.7144 42.4443L27.688 40.6777L27.499 39.5176V39.5H28.5977L28.5405 42.1455C28.5317 42.5322 28.5977 42.8032 28.7383 42.9585C28.8818 43.1138 29.0928 43.1914 29.3711 43.1914C29.708 43.1914 30.0552 43.0684 30.4126 42.8223L30.3247 39.5H31.3311L31.2256 42.8223L31.3882 43.9824V44H30.4521L30.4346 43.2969L30.2236 43.4771ZM33.5767 38.4541H33.6953L33.7041 39.5264L35.0532 39.4121V40.2383L33.7041 40.1284L33.7129 42.3521C33.7129 42.73 33.7876 43.001 33.937 43.165C34.0894 43.3262 34.2783 43.4067 34.5039 43.4067C34.6943 43.4067 34.8774 43.3643 35.0532 43.2793H35.0708L34.9829 43.7759C34.9038 43.8638 34.7852 43.9385 34.627 44C34.4688 44.0586 34.3047 44.0879 34.1348 44.0879C33.7422 44.0879 33.4258 43.9619 33.1855 43.71C32.9453 43.4551 32.8296 43.0962 32.8384 42.6333L32.8867 40.0581L32.1924 40.0054V39.8955L33.5767 38.4541ZM39.0039 40.1021L39.1226 44H38.125L38.248 40.1021H37.501V39.4121L38.2217 39.5L38.2041 38.9331C38.1982 38.8013 38.2012 38.6709 38.2129 38.542C38.2275 38.4102 38.2524 38.2725 38.2876 38.1289C38.3257 37.9824 38.3813 37.8491 38.4546 37.729C38.5308 37.606 38.6216 37.4946 38.7271 37.395C38.8325 37.2925 38.9688 37.2134 39.1357 37.1577C39.3027 37.0991 39.4902 37.0698 39.6982 37.0698C39.9473 37.0698 40.1304 37.0874 40.2476 37.1226L40.4277 37.9883H40.4102C40.1465 37.8857 39.9326 37.8345 39.7686 37.8345C39.6484 37.8345 39.5444 37.855 39.4565 37.896C39.3716 37.937 39.3013 37.9927 39.2456 38.063C39.1929 38.1304 39.1489 38.2212 39.1138 38.3354C39.0815 38.4468 39.0581 38.5625 39.0435 38.6826C39.0288 38.8027 39.0186 38.9463 39.0127 39.1133V39.5088L40.2739 39.4121V40.1021H39.0039ZM42.4053 43.4331C42.6602 43.4331 42.9575 43.3013 43.2974 43.0376L43.3237 42.2554C43.1069 42.1353 42.855 42.0752 42.5679 42.0752C42.2925 42.0752 42.0742 42.1353 41.9131 42.2554C41.7549 42.3755 41.6758 42.5425 41.6758 42.7563C41.6758 42.9585 41.7417 43.1226 41.8735 43.2485C42.0083 43.3716 42.1855 43.4331 42.4053 43.4331ZM43.271 44L43.2798 43.5781C42.8257 43.918 42.4419 44.0879 42.1284 44.0879C41.7095 44.0879 41.3813 43.9678 41.144 43.7275C40.9067 43.4873 40.7881 43.1855 40.7881 42.8223C40.7881 42.6025 40.8291 42.4092 40.9111 42.2422C40.9932 42.0752 41.1001 41.9419 41.2319 41.8423C41.3638 41.7397 41.522 41.6562 41.7065 41.5918C41.894 41.5273 42.0815 41.4834 42.269 41.46C42.4565 41.4365 42.6587 41.4248 42.8755 41.4248C42.9575 41.4248 43.1128 41.4307 43.3413 41.4424L43.3501 41.2095C43.356 40.9985 43.3369 40.8228 43.293 40.6821C43.252 40.5415 43.186 40.4375 43.0952 40.3701C43.0044 40.2998 42.9077 40.2515 42.8052 40.2251C42.7056 40.1987 42.584 40.1855 42.4404 40.1855C42.042 40.1855 41.563 40.3115 41.0034 40.5635H40.9858L41.1572 39.5088C41.7695 39.4443 42.2397 39.4121 42.5679 39.4121C43.0835 39.4121 43.4761 39.5586 43.7456 39.8516C44.0181 40.1416 44.1631 40.5459 44.1807 41.0645L44.2773 44H43.271ZM46.0747 37.6191C46.2388 37.6191 46.3735 37.666 46.479 37.7598C46.5874 37.8506 46.6416 37.9751 46.6416 38.1333C46.6416 38.3003 46.5874 38.4336 46.479 38.5332C46.3735 38.6328 46.2388 38.6826 46.0747 38.6826C45.9194 38.6826 45.7876 38.6328 45.6792 38.5332C45.5708 38.4336 45.5166 38.3003 45.5166 38.1333C45.5166 37.9751 45.5708 37.8506 45.6792 37.7598C45.7876 37.666 45.9194 37.6191 46.0747 37.6191ZM45.5342 39.5H46.4702V39.5176L46.5977 44H45.5913L45.6968 40.6777L45.5342 39.5176V39.5ZM49.9067 40.3657C49.7485 40.3657 49.5771 40.4009 49.3926 40.4712C49.208 40.5415 49.0381 40.6294 48.8828 40.7349L48.9707 44H47.9644L48.0698 40.6777L47.9072 39.5176V39.5H48.8433L48.8608 40.2383L49.0894 40.0493C49.1069 40.0347 49.1465 40.001 49.208 39.9482C49.2725 39.8955 49.3149 39.8604 49.3354 39.8428C49.356 39.8252 49.394 39.7944 49.4497 39.7505C49.5083 39.7036 49.5508 39.6714 49.5771 39.6538C49.6064 39.6362 49.6475 39.6113 49.7002 39.5791C49.7529 39.5439 49.7969 39.5205 49.832 39.5088C49.8672 39.4941 49.9082 39.478 49.9551 39.4604C50.0049 39.4399 50.0518 39.4268 50.0957 39.4209C50.1396 39.415 50.1851 39.4121 50.2319 39.4121C50.3872 39.4121 50.5073 39.418 50.5923 39.4297L50.7725 40.5459H50.7549C50.5117 40.4258 50.229 40.3657 49.9067 40.3657ZM54.7451 43.6309C54.4229 43.9355 53.9468 44.0879 53.3169 44.0879C52.9741 44.0879 52.665 44.022 52.3896 43.8901C52.1172 43.7583 51.8975 43.5811 51.7305 43.3584C51.5635 43.1357 51.436 42.8867 51.3481 42.6113C51.2603 42.3359 51.2163 42.0459 51.2163 41.7412C51.2163 41.3633 51.269 41.0249 51.3745 40.7261C51.4829 40.4243 51.6294 40.1797 51.814 39.9922C51.9985 39.8018 52.208 39.6582 52.4424 39.5615C52.6768 39.4619 52.9258 39.4121 53.1895 39.4121C53.8398 39.4121 54.3262 39.6421 54.6484 40.1021C54.9736 40.5591 55.0938 41.1978 55.0088 42.0181H52.1172C52.1611 42.4546 52.2944 42.7959 52.5171 43.042C52.7427 43.2852 53.0898 43.4067 53.5586 43.4067C53.9395 43.4067 54.3599 43.272 54.8198 43.0024H54.8374L54.7451 43.6309ZM52.1172 41.5698L54.1958 41.3018C54.2222 40.9824 54.1489 40.7231 53.9761 40.5239C53.8032 40.3218 53.5352 40.2207 53.1719 40.2207C53.04 40.2207 52.9141 40.2456 52.7939 40.2954C52.6738 40.3452 52.561 40.4214 52.4556 40.5239C52.353 40.6235 52.271 40.7642 52.2095 40.9458C52.1479 41.1245 52.1172 41.3325 52.1172 41.5698Z" fill="black"/>
<path d="M35 19.18C43.4273 16.1463 54.5191 11.0895 75.4682 19.18M75.4682 19.18L72.8869 14.097M75.4682 19.18L69.4804 21.3355" stroke="black" stroke-width="2" stroke-linecap="round"/>
</svg>
