<svg width="101" height="88" viewBox="0 0 101 88" fill="none" xmlns="http://www.w3.org/2000/svg">
<path d="M39.3338 8.09897L39.4789 12H38.2849L38.4299 8.09897L38.2849 4.575H40.2813C40.9742 4.575 41.5188 4.74419 41.9152 5.08257C42.3116 5.42095 42.5098 5.86245 42.5098 6.40708C42.5098 6.8937 42.3809 7.30781 42.123 7.64941C41.8685 7.99102 41.4801 8.23271 40.9581 8.37451L43.3412 11.9807V12H41.9152L40.1459 8.50503V7.94912C40.5746 7.90078 40.9049 7.76704 41.1369 7.5479C41.3722 7.32554 41.4898 7.02422 41.4898 6.64395C41.4898 6.30234 41.3673 6.02036 41.1224 5.798C40.8807 5.57564 40.5278 5.46445 40.0638 5.46445H39.4402L39.3338 8.09897ZM47.8658 11.5939C47.5113 11.9291 46.9876 12.0967 46.2948 12.0967C45.9177 12.0967 45.5777 12.0242 45.2748 11.8792C44.9751 11.7341 44.7334 11.5392 44.5497 11.2942C44.366 11.0493 44.2258 10.7754 44.1292 10.4725C44.0325 10.1695 43.9841 9.85049 43.9841 9.51533C43.9841 9.09961 44.0421 8.72739 44.1582 8.39868C44.2774 8.06675 44.4385 7.79766 44.6416 7.59141C44.8446 7.38193 45.075 7.22402 45.3328 7.11768C45.5906 7.00811 45.8646 6.95332 46.1546 6.95332C46.87 6.95332 47.405 7.2063 47.7595 7.71226C48.1172 8.21499 48.2493 8.91753 48.1559 9.81987H44.9751C45.0234 10.3 45.1701 10.6755 45.415 10.9462C45.6631 11.2137 46.045 11.3474 46.5606 11.3474C46.9796 11.3474 47.442 11.1992 47.948 10.9027H47.9673L47.8658 11.5939ZM44.9751 9.32681L47.2616 9.03193C47.2906 8.68066 47.21 8.39546 47.0199 8.17632C46.8297 7.95396 46.5349 7.84277 46.1353 7.84277C45.9902 7.84277 45.8517 7.87017 45.7195 7.92495C45.5874 7.97974 45.4633 8.06353 45.3473 8.17632C45.2345 8.28589 45.1443 8.44058 45.0766 8.64038C45.0089 8.83696 44.9751 9.06577 44.9751 9.32681ZM51.6315 6.95332C52.131 6.95332 52.5306 7.03228 52.8303 7.19019L53.0285 8.34551H53.0092C52.5677 8.0168 52.0988 7.85244 51.6025 7.85244C51.1964 7.85244 50.8613 7.9894 50.597 8.26333C50.336 8.53726 50.2055 8.94492 50.2055 9.48633C50.2055 10.0954 50.3392 10.5579 50.6067 10.8737C50.8774 11.1895 51.2416 11.3474 51.6992 11.3474C51.9376 11.3474 52.16 11.3071 52.3663 11.2266C52.5725 11.146 52.79 11.0348 53.0188 10.893H53.0382L52.9367 11.5843C52.8045 11.7164 52.6128 11.8356 52.3614 11.942C52.1133 12.0451 51.8539 12.0967 51.5832 12.0967C50.8871 12.0967 50.3199 11.8501 49.8816 11.3571C49.4433 10.8608 49.2242 10.2308 49.2242 9.46699C49.2242 9.06094 49.2886 8.69517 49.4175 8.36968C49.5497 8.04419 49.7285 7.77993 49.9541 7.5769C50.1797 7.37388 50.4343 7.21919 50.7179 7.11284C51.0047 7.00649 51.3092 6.95332 51.6315 6.95332ZM56.2431 6.95332C56.6041 6.95332 56.9328 7.01938 57.2292 7.15151C57.5257 7.28364 57.769 7.46411 57.9592 7.69292C58.1525 7.91851 58.3008 8.18276 58.4039 8.48569C58.507 8.7854 58.5586 9.10605 58.5586 9.44766C58.5586 9.81504 58.507 10.1583 58.4039 10.4773C58.3008 10.7963 58.1542 11.0767 57.964 11.3184C57.7739 11.5601 57.5306 11.7502 57.2341 11.8888C56.9376 12.0274 56.6073 12.0967 56.2431 12.0967C55.7597 12.0967 55.3392 11.9758 54.9814 11.7341C54.627 11.4892 54.3611 11.1702 54.1838 10.777C54.0098 10.3806 53.9228 9.9375 53.9228 9.44766C53.9228 8.98682 54.0114 8.56948 54.1887 8.19565C54.3659 7.82183 54.6318 7.52212 54.9863 7.29653C55.344 7.06772 55.7629 6.95332 56.2431 6.95332ZM55.2473 10.8253C55.4761 11.1734 55.8081 11.3474 56.2431 11.3474C56.6782 11.3474 57.0085 11.1734 57.2341 10.8253C57.4629 10.4773 57.5773 10.0245 57.5773 9.46699C57.5773 9.0126 57.4581 8.63071 57.2196 8.32134C56.9843 8.00874 56.6588 7.85244 56.2431 7.85244C55.8242 7.85244 55.4955 8.00713 55.257 8.3165C55.0217 8.62588 54.9041 9.00938 54.9041 9.46699C54.9041 10.0213 55.0185 10.4741 55.2473 10.8253ZM61.807 7.94912C61.4751 7.94912 61.1464 8.0748 60.8209 8.32617L60.9176 12H59.8106L59.9266 8.33584L59.7478 7.06934V7.05H60.7774L60.7967 7.8041L60.9562 7.66392C61.2141 7.44155 61.4541 7.26753 61.6765 7.14185C61.9021 7.01616 62.1309 6.95332 62.3629 6.95332C62.9656 6.95332 63.3716 7.26914 63.5811 7.90078L63.847 7.66392C64.1048 7.44155 64.3449 7.26753 64.5672 7.14185C64.7928 7.01616 65.0216 6.95332 65.2537 6.95332C65.6823 6.95332 66.011 7.11445 66.2398 7.43672C66.4686 7.75898 66.5927 8.20049 66.612 8.76123L66.7184 12H65.6114L65.6984 9.08994C65.7048 8.86113 65.6871 8.671 65.6452 8.51953C65.6033 8.36484 65.534 8.24722 65.4374 8.16665C65.3439 8.08608 65.2392 8.02969 65.1231 7.99746C65.0071 7.96523 64.8653 7.94912 64.6978 7.94912C64.3626 7.94912 64.0226 8.07803 63.6778 8.33584C63.6971 8.48086 63.7116 8.62266 63.7213 8.76123L63.818 12H62.711L62.8077 9.08994C62.8141 8.86113 62.7964 8.671 62.7545 8.51953C62.7126 8.36484 62.6433 8.24722 62.5466 8.16665C62.4532 8.08608 62.3484 8.02969 62.2324 7.99746C62.1164 7.96523 61.9746 7.94912 61.807 7.94912ZM70.1602 7.94912C69.8282 7.94912 69.4995 8.0748 69.174 8.32617L69.2707 12H68.1637L68.2797 8.33584L68.1009 7.06934V7.05H69.1305L69.1499 7.8041L69.3094 7.66392C69.5672 7.44155 69.8073 7.26753 70.0296 7.14185C70.2552 7.01616 70.484 6.95332 70.7161 6.95332C71.3187 6.95332 71.7248 7.26914 71.9342 7.90078L72.2001 7.66392C72.4579 7.44155 72.698 7.26753 72.9204 7.14185C73.1459 7.01616 73.3748 6.95332 73.6068 6.95332C74.0354 6.95332 74.3641 7.11445 74.5929 7.43672C74.8217 7.75898 74.9458 8.20049 74.9651 8.76123L75.0715 12H73.9645L74.0515 9.08994C74.058 8.86113 74.0402 8.671 73.9983 8.51953C73.9564 8.36484 73.8872 8.24722 73.7905 8.16665C73.697 8.08608 73.5923 8.02969 73.4763 7.99746C73.3603 7.96523 73.2185 7.94912 73.0509 7.94912C72.7157 7.94912 72.3757 8.07803 72.0309 8.33584C72.0502 8.48086 72.0647 8.62266 72.0744 8.76123L72.1711 12H71.0641L71.1608 9.08994C71.1672 8.86113 71.1495 8.671 71.1076 8.51953C71.0657 8.36484 70.9964 8.24722 70.8998 8.16665C70.8063 8.08608 70.7016 8.02969 70.5855 7.99746C70.4695 7.96523 70.3277 7.94912 70.1602 7.94912ZM80.1375 11.5939C79.783 11.9291 79.2593 12.0967 78.5665 12.0967C78.1894 12.0967 77.8494 12.0242 77.5465 11.8792C77.2468 11.7341 77.0051 11.5392 76.8214 11.2942C76.6377 11.0493 76.4975 10.7754 76.4008 10.4725C76.3041 10.1695 76.2558 9.85049 76.2558 9.51533C76.2558 9.09961 76.3138 8.72739 76.4298 8.39868C76.5491 8.06675 76.7102 7.79766 76.9132 7.59141C77.1163 7.38193 77.3467 7.22402 77.6045 7.11768C77.8623 7.00811 78.1362 6.95332 78.4263 6.95332C79.1417 6.95332 79.6767 7.2063 80.0311 7.71226C80.3889 8.21499 80.521 8.91753 80.4275 9.81987H77.2468C77.2951 10.3 77.4417 10.6755 77.6867 10.9462C77.9348 11.2137 78.3167 11.3474 78.8323 11.3474C79.2513 11.3474 79.7137 11.1992 80.2197 10.9027H80.239L80.1375 11.5939ZM77.2468 9.32681L79.5332 9.03193C79.5623 8.68066 79.4817 8.39546 79.2915 8.17632C79.1014 7.95396 78.8065 7.84277 78.4069 7.84277C78.2619 7.84277 78.1233 7.87017 77.9912 7.92495C77.8591 7.97974 77.735 8.06353 77.619 8.17632C77.5062 8.28589 77.416 8.44058 77.3483 8.64038C77.2806 8.83696 77.2468 9.06577 77.2468 9.32681ZM83.8645 7.93945C83.5358 7.92979 83.17 8.06514 82.7672 8.34551L82.8639 12H81.7569L81.8729 8.34551L81.694 7.06934V7.05H82.7237L82.743 7.81377L82.9315 7.65425C83.4858 7.18696 83.9789 6.95332 84.4107 6.95332C84.8587 6.95332 85.2003 7.11445 85.4355 7.43672C85.674 7.75576 85.8029 8.20049 85.8223 8.7709L85.9334 12H84.8265L84.9135 9.09961C84.9264 8.65166 84.841 8.34551 84.6573 8.18115C84.4736 8.01357 84.2093 7.93301 83.8645 7.93945ZM89.5783 6.95332C90.0778 6.95332 90.4774 7.03228 90.7771 7.19019L90.9753 8.34551H90.956C90.5145 8.0168 90.0456 7.85244 89.5493 7.85244C89.1432 7.85244 88.8081 7.9894 88.5438 8.26333C88.2828 8.53726 88.1522 8.94492 88.1522 9.48633C88.1522 10.0954 88.286 10.5579 88.5535 10.8737C88.8242 11.1895 89.1883 11.3474 89.6459 11.3474C89.8844 11.3474 90.1068 11.3071 90.313 11.2266C90.5193 11.146 90.7368 11.0348 90.9656 10.893H90.985L90.8834 11.5843C90.7513 11.7164 90.5596 11.8356 90.3082 11.942C90.0601 12.0451 89.8006 12.0967 89.5299 12.0967C88.8338 12.0967 88.2666 11.8501 87.8284 11.3571C87.3901 10.8608 87.1709 10.2308 87.1709 9.46699C87.1709 9.06094 87.2354 8.69517 87.3643 8.36968C87.4964 8.04419 87.6753 7.77993 87.9009 7.5769C88.1265 7.37388 88.3811 7.21919 88.6646 7.11284C88.9515 7.00649 89.256 6.95332 89.5783 6.95332ZM95.7513 11.5939C95.3968 11.9291 94.8731 12.0967 94.1802 12.0967C93.8032 12.0967 93.4632 12.0242 93.1603 11.8792C92.8605 11.7341 92.6188 11.5392 92.4352 11.2942C92.2515 11.0493 92.1113 10.7754 92.0146 10.4725C91.9179 10.1695 91.8696 9.85049 91.8696 9.51533C91.8696 9.09961 91.9276 8.72739 92.0436 8.39868C92.1628 8.06675 92.324 7.79766 92.527 7.59141C92.73 7.38193 92.9604 7.22402 93.2183 7.11768C93.4761 7.00811 93.75 6.95332 94.04 6.95332C94.7555 6.95332 95.2904 7.2063 95.6449 7.71226C96.0026 8.21499 96.1348 8.91753 96.0413 9.81987H92.8605C92.9089 10.3 93.0555 10.6755 93.3004 10.9462C93.5486 11.2137 93.9305 11.3474 94.4461 11.3474C94.865 11.3474 95.3275 11.1992 95.8334 10.9027H95.8528L95.7513 11.5939ZM92.8605 9.32681L95.147 9.03193C95.176 8.68066 95.0955 8.39546 94.9053 8.17632C94.7152 7.95396 94.4203 7.84277 94.0207 7.84277C93.8757 7.84277 93.7371 7.87017 93.605 7.92495C93.4728 7.97974 93.3488 8.06353 93.2328 8.17632C93.12 8.28589 93.0297 8.44058 92.9621 8.64038C92.8944 8.83696 92.8605 9.06577 92.8605 9.32681ZM99.5073 8.0023C99.3333 8.0023 99.1447 8.04097 98.9417 8.11831C98.7387 8.19565 98.5518 8.29233 98.381 8.40835L98.4776 12H97.3707L97.4867 8.34551L97.3078 7.06934V7.05H98.3375L98.3568 7.86211L98.6082 7.65425C98.6275 7.63813 98.671 7.60107 98.7387 7.54307C98.8096 7.48506 98.8563 7.44639 98.8789 7.42705C98.9014 7.40772 98.9433 7.37388 99.0045 7.32554C99.069 7.27397 99.1157 7.23853 99.1447 7.21919C99.177 7.19985 99.2221 7.17246 99.2801 7.13701C99.3381 7.09834 99.3864 7.07256 99.4251 7.05967C99.4638 7.04355 99.5089 7.02583 99.5605 7.00649C99.6152 6.98394 99.6668 6.96943 99.7151 6.96299C99.7635 6.95654 99.8134 6.95332 99.865 6.95332C100.036 6.95332 100.168 6.95977 100.261 6.97266L100.46 8.20049H100.44C100.173 8.06836 99.8618 8.0023 99.5073 8.0023ZM47.1021 22.9533C47.6016 22.9533 48.0012 23.0323 48.3009 23.1902L48.4991 24.3455H48.4797C48.0382 24.0168 47.5693 23.8524 47.073 23.8524C46.667 23.8524 46.3318 23.9894 46.0676 24.2633C45.8065 24.5373 45.676 24.9449 45.676 25.4863C45.676 26.0954 45.8098 26.5579 46.0772 26.8737C46.3479 27.1895 46.7121 27.3474 47.1697 27.3474C47.4082 27.3474 47.6306 27.3071 47.8368 27.2266C48.0431 27.146 48.2606 27.0348 48.4894 26.893H48.5087L48.4072 27.5843C48.2751 27.7164 48.0833 27.8356 47.832 27.942C47.5838 28.0451 47.3244 28.0967 47.0537 28.0967C46.3576 28.0967 45.7904 27.8501 45.3521 27.3571C44.9139 26.8608 44.6947 26.2308 44.6947 25.467C44.6947 25.0609 44.7592 24.6952 44.8881 24.3697C45.0202 24.0442 45.1991 23.7799 45.4247 23.5769C45.6502 23.3739 45.9048 23.2192 46.1884 23.1128C46.4752 23.0065 46.7798 22.9533 47.1021 22.9533ZM53.275 27.5939C52.9206 27.9291 52.3969 28.0967 51.704 28.0967C51.327 28.0967 50.987 28.0242 50.684 27.8792C50.3843 27.7341 50.1426 27.5392 49.9589 27.2942C49.7752 27.0493 49.6351 26.7754 49.5384 26.4725C49.4417 26.1695 49.3934 25.8505 49.3934 25.5153C49.3934 25.0996 49.4514 24.7274 49.5674 24.3987C49.6866 24.0667 49.8478 23.7977 50.0508 23.5914C50.2538 23.3819 50.4842 23.224 50.742 23.1177C50.9999 23.0081 51.2738 22.9533 51.5638 22.9533C52.2792 22.9533 52.8142 23.2063 53.1687 23.7123C53.5264 24.215 53.6585 24.9175 53.5651 25.8199H50.3843C50.4327 26.3 50.5793 26.6755 50.8242 26.9462C51.0724 27.2137 51.4542 27.3474 51.9699 27.3474C52.3888 27.3474 52.8513 27.1992 53.3572 26.9027H53.3766L53.275 27.5939ZM50.3843 25.3268L52.6708 25.0319C52.6998 24.6807 52.6192 24.3955 52.4291 24.1763C52.239 23.954 51.9441 23.8428 51.5445 23.8428C51.3995 23.8428 51.2609 23.8702 51.1288 23.925C50.9966 23.9797 50.8726 24.0635 50.7565 24.1763C50.6438 24.2859 50.5535 24.4406 50.4858 24.6404C50.4182 24.837 50.3843 25.0658 50.3843 25.3268ZM57.8432 21.8995H57.9737L57.9833 23.079L59.4674 22.9533V23.8621L57.9833 23.7413L57.993 26.1873C57.993 26.603 58.0752 26.9011 58.2395 27.0815C58.4071 27.2588 58.615 27.3474 58.8631 27.3474C59.0726 27.3474 59.274 27.3007 59.4674 27.2072H59.4867L59.39 27.7535C59.303 27.8501 59.1725 27.9323 58.9985 28C58.8245 28.0645 58.644 28.0967 58.4571 28.0967C58.0252 28.0967 57.6772 27.9581 57.4129 27.681C57.1487 27.4006 57.0214 27.0058 57.0311 26.4966L57.0842 23.6639L56.3205 23.6059V23.4851L57.8432 21.8995ZM62.2566 27.3764C62.537 27.3764 62.8641 27.2314 63.2379 26.9414L63.2669 26.0809C63.0284 25.9488 62.7513 25.8827 62.4354 25.8827C62.1325 25.8827 61.8924 25.9488 61.7152 26.0809C61.5412 26.213 61.4542 26.3967 61.4542 26.632C61.4542 26.8543 61.5267 27.0348 61.6717 27.1734C61.8199 27.3087 62.0149 27.3764 62.2566 27.3764ZM63.2089 28L63.2186 27.5359C62.719 27.9098 62.2969 28.0967 61.9521 28.0967C61.4912 28.0967 61.1303 27.9646 60.8692 27.7003C60.6082 27.436 60.4777 27.1041 60.4777 26.7045C60.4777 26.4628 60.5228 26.2501 60.613 26.0664C60.7033 25.8827 60.8209 25.7361 60.9659 25.6265C61.1109 25.5137 61.285 25.4219 61.488 25.351C61.6942 25.2801 61.9005 25.2317 62.1067 25.206C62.313 25.1802 62.5354 25.1673 62.7738 25.1673C62.8641 25.1673 63.0349 25.1737 63.2862 25.1866L63.2959 24.9304C63.3023 24.6984 63.2814 24.505 63.2331 24.3503C63.1879 24.1957 63.1154 24.0813 63.0155 24.0071C62.9156 23.9298 62.8093 23.8766 62.6965 23.8476C62.5869 23.8186 62.4532 23.8041 62.2953 23.8041C61.857 23.8041 61.3301 23.9427 60.7146 24.2198H60.6952L60.8837 23.0597C61.5573 22.9888 62.0745 22.9533 62.4354 22.9533C63.0026 22.9533 63.4345 23.1145 63.731 23.4367C64.0307 23.7558 64.1902 24.2005 64.2095 24.7709L64.3159 28H63.2089ZM67.8688 23.9395C67.5401 23.9298 67.1744 24.0651 66.7715 24.3455L66.8682 28H65.7612L65.8772 24.3455L65.6984 23.0693V23.05H66.728L66.7474 23.8138L66.9359 23.6542C67.4902 23.187 67.9833 22.9533 68.4151 22.9533C68.863 22.9533 69.2046 23.1145 69.4399 23.4367C69.6784 23.7558 69.8073 24.2005 69.8266 24.7709L69.9378 28H68.8308L68.9178 25.0996C68.9307 24.6517 68.8453 24.3455 68.6616 24.1812C68.4779 24.0136 68.2137 23.933 67.8688 23.9395ZM73.5826 27.3474C73.9113 27.3474 74.2449 27.2314 74.5833 26.9994L74.6123 24.128C74.3158 23.9443 73.9758 23.8524 73.5923 23.8524C73.3538 23.8524 73.1411 23.8992 72.9542 23.9926C72.7673 24.0829 72.6174 24.2069 72.5046 24.3648C72.3918 24.5228 72.3064 24.7 72.2484 24.8966C72.1937 25.0899 72.1663 25.2962 72.1663 25.5153C72.1663 26.1051 72.2871 26.5579 72.5288 26.8737C72.7737 27.1895 73.125 27.3474 73.5826 27.3474ZM73.3458 30.5717C72.901 30.5717 72.3967 30.5104 71.8327 30.388L71.533 29.2278H71.5717C71.8778 29.3664 72.105 29.4663 72.2533 29.5275C72.4047 29.5888 72.5852 29.6484 72.7947 29.7064C73.0074 29.7644 73.1975 29.7934 73.3651 29.7934C73.7711 29.7934 74.0692 29.6629 74.2594 29.4019C74.4527 29.1408 74.5542 28.7332 74.5639 28.1789L74.5736 27.5553C74.1192 27.9162 73.6841 28.0967 73.2684 28.0967C72.8398 28.0967 72.4627 27.9758 72.1373 27.7341C71.815 27.4924 71.5733 27.1782 71.4122 26.7915C71.2542 26.4048 71.1753 25.9762 71.1753 25.5057C71.1753 25.1093 71.2381 24.7483 71.3638 24.4229C71.4927 24.0941 71.6651 23.825 71.8811 23.6156C72.1002 23.4029 72.3532 23.2401 72.64 23.1273C72.9268 23.0113 73.2313 22.9533 73.5536 22.9533C73.9468 22.9533 74.2997 23.0226 74.6123 23.1612L75.5646 23.05H75.5839L75.4727 24.2585L75.5452 27.7631C75.5484 27.9243 75.5452 28.0773 75.5355 28.2224C75.5291 28.3706 75.5082 28.543 75.4727 28.7396C75.4405 28.9362 75.3954 29.115 75.3374 29.2762C75.2793 29.4373 75.1939 29.6 75.0812 29.7644C74.9684 29.932 74.8362 30.0722 74.6848 30.185C74.5365 30.2978 74.3464 30.3896 74.1144 30.4605C73.8855 30.5346 73.6293 30.5717 73.3458 30.5717ZM79.219 24.0023C79.045 24.0023 78.8565 24.041 78.6535 24.1183C78.4504 24.1957 78.2635 24.2923 78.0927 24.4083L78.1894 28H77.0824L77.1984 24.3455L77.0196 23.0693V23.05H78.0492L78.0686 23.8621L78.3199 23.6542C78.3393 23.6381 78.3828 23.6011 78.4504 23.5431C78.5213 23.4851 78.5681 23.4464 78.5906 23.4271C78.6132 23.4077 78.6551 23.3739 78.7163 23.3255C78.7808 23.274 78.8275 23.2385 78.8565 23.2192C78.8887 23.1999 78.9338 23.1725 78.9918 23.137C79.0499 23.0983 79.0982 23.0726 79.1369 23.0597C79.1755 23.0436 79.2207 23.0258 79.2722 23.0065C79.327 22.9839 79.3786 22.9694 79.4269 22.963C79.4752 22.9565 79.5252 22.9533 79.5768 22.9533C79.7476 22.9533 79.8797 22.9598 79.9731 22.9727L80.1713 24.2005H80.152C79.8845 24.0684 79.5735 24.0023 79.219 24.0023ZM82.6947 27.3764C82.975 27.3764 83.3021 27.2314 83.676 26.9414L83.705 26.0809C83.4665 25.9488 83.1894 25.8827 82.8735 25.8827C82.5706 25.8827 82.3305 25.9488 82.1533 26.0809C81.9792 26.213 81.8922 26.3967 81.8922 26.632C81.8922 26.8543 81.9647 27.0348 82.1098 27.1734C82.258 27.3087 82.453 27.3764 82.6947 27.3764ZM83.647 28L83.6566 27.5359C83.1571 27.9098 82.735 28.0967 82.3901 28.0967C81.9293 28.0967 81.5684 27.9646 81.3073 27.7003C81.0463 27.436 80.9158 27.1041 80.9158 26.7045C80.9158 26.4628 80.9609 26.2501 81.0511 26.0664C81.1414 25.8827 81.259 25.7361 81.404 25.6265C81.549 25.5137 81.723 25.4219 81.9261 25.351C82.1323 25.2801 82.3386 25.2317 82.5448 25.206C82.7511 25.1802 82.9734 25.1673 83.2119 25.1673C83.3021 25.1673 83.4729 25.1737 83.7243 25.1866L83.734 24.9304C83.7404 24.6984 83.7195 24.505 83.6711 24.3503C83.626 24.1957 83.5535 24.0813 83.4536 24.0071C83.3537 23.9298 83.2474 23.8766 83.1346 23.8476C83.025 23.8186 82.8913 23.8041 82.7333 23.8041C82.2951 23.8041 81.7682 23.9427 81.1526 24.2198H81.1333L81.3218 23.0597C81.9954 22.9888 82.5126 22.9533 82.8735 22.9533C83.4407 22.9533 83.8726 23.1145 84.169 23.4367C84.4687 23.7558 84.6283 24.2005 84.6476 24.7709L84.754 28H83.647ZM88.1958 23.9491C87.8638 23.9491 87.5351 24.0748 87.2096 24.3262L87.3063 28H86.1993L86.3153 24.3358L86.1365 23.0693V23.05H87.1661L87.1854 23.8041L87.345 23.6639C87.6028 23.4416 87.8429 23.2675 88.0652 23.1418C88.2908 23.0162 88.5196 22.9533 88.7517 22.9533C89.3543 22.9533 89.7603 23.2691 89.9698 23.9008L90.2357 23.6639C90.4935 23.4416 90.7336 23.2675 90.956 23.1418C91.1815 23.0162 91.4103 22.9533 91.6424 22.9533C92.071 22.9533 92.3997 23.1145 92.6285 23.4367C92.8573 23.759 92.9814 24.2005 93.0007 24.7612L93.1071 28H92.0001L92.0871 25.0899C92.0936 24.8611 92.0758 24.671 92.0339 24.5195C91.992 24.3648 91.9228 24.2472 91.8261 24.1667C91.7326 24.0861 91.6279 24.0297 91.5119 23.9975C91.3958 23.9652 91.2541 23.9491 91.0865 23.9491C90.7513 23.9491 90.4113 24.078 90.0665 24.3358C90.0858 24.4809 90.1003 24.6227 90.11 24.7612L90.2067 28H89.0997L89.1964 25.0899C89.2028 24.8611 89.1851 24.671 89.1432 24.5195C89.1013 24.3648 89.032 24.2472 88.9353 24.1667C88.8419 24.0861 88.7372 24.0297 88.6211 23.9975C88.5051 23.9652 88.3633 23.9491 88.1958 23.9491Z" fill="black"/>
<path d="M37.7127 79.7123L37.7358 64.9993L23.0001 79.735L37.7127 79.7123Z" fill="#EBEBEB" stroke="#C2C2C2" stroke-width="0.6"/>
<path d="M28 49.9993L28 60.3547L38.5164 49.9993L28 49.9993Z" fill="#EBEBEB" stroke="#C2C2C2" stroke-width="0.6"/>
<path d="M20 57.1926L25.2099 62.3866V51.9993L20 57.1926Z" fill="#EBEBEB" stroke="#C2C2C2" stroke-width="0.6"/>
<path d="M15.2904 77.2093L10 71.9994L10 82.4192L15.2904 77.2093Z" fill="#EBEBEB" stroke="#C2C2C2" stroke-width="0.6" stroke-linejoin="bevel"/>
<path d="M11.4841 66.4522L1 56L1 76.9037L11.4841 66.4522Z" fill="#EBEBEB" stroke="#C2C2C2" stroke-width="0.6"/>
<path d="M26.4521 69.2414L21.2261 63.9993L16 69.2414L21.2261 74.4836L26.4521 69.2414Z" fill="#EBEBEB" stroke="#C2C2C2" stroke-width="0.6"/>
<path d="M18.2259 46.9994L18.2259 57.419L13 62.629L13 52.2089L18.2259 46.9994Z" fill="#EBEBEB" stroke="#C2C2C2" stroke-width="0.6"/>
<path d="M66.7946 38.9464C65.8113 50.946 61.4812 53.7571 49.7337 61.2649M49.7337 61.2649L54.6039 63.1393M49.7337 61.2649L51.5139 55.5713" stroke="black" stroke-width="2" stroke-linecap="round"/>
</svg>
