<svg width="97" height="27" viewBox="0 0 97 27" fill="none" xmlns="http://www.w3.org/2000/svg">
<path d="M14.3633 7.41211C14.8174 7.41211 15.1807 7.48389 15.4531 7.62744L15.6333 8.67773H15.6157C15.2144 8.37891 14.7881 8.22949 14.3369 8.22949C13.9678 8.22949 13.6631 8.354 13.4229 8.60303C13.1855 8.85205 13.0669 9.22266 13.0669 9.71484C13.0669 10.2686 13.1885 10.689 13.4316 10.9761C13.6777 11.2632 14.0088 11.4067 14.4248 11.4067C14.6416 11.4067 14.8438 11.3701 15.0312 11.2969C15.2188 11.2236 15.4165 11.1226 15.6245 10.9937H15.6421L15.5498 11.6221C15.4297 11.7422 15.2554 11.8506 15.0269 11.9473C14.8013 12.041 14.5654 12.0879 14.3193 12.0879C13.6865 12.0879 13.1709 11.8638 12.7725 11.4155C12.374 10.9644 12.1748 10.3916 12.1748 9.69727C12.1748 9.32812 12.2334 8.99561 12.3506 8.69971C12.4707 8.40381 12.6333 8.16357 12.8384 7.979C13.0435 7.79443 13.2749 7.65381 13.5327 7.55713C13.7935 7.46045 14.0703 7.41211 14.3633 7.41211ZM16.6748 12L16.7979 8.18555L16.6748 5.06982H17.6724L17.5537 8.18555L17.6724 12H16.6748ZM19.5137 5.61914C19.6777 5.61914 19.8125 5.66602 19.918 5.75977C20.0264 5.85059 20.0806 5.9751 20.0806 6.1333C20.0806 6.30029 20.0264 6.43359 19.918 6.5332C19.8125 6.63281 19.6777 6.68262 19.5137 6.68262C19.3584 6.68262 19.2266 6.63281 19.1182 6.5332C19.0098 6.43359 18.9556 6.30029 18.9556 6.1333C18.9556 5.9751 19.0098 5.85059 19.1182 5.75977C19.2266 5.66602 19.3584 5.61914 19.5137 5.61914ZM18.9731 7.5H19.9092V7.51758L20.0366 12H19.0303L19.1357 8.67773L18.9731 7.51758V7.5ZM25.1914 14.25H24.2114L24.2466 11.6045C23.8394 11.9268 23.4468 12.0879 23.0688 12.0879C22.6792 12.0879 22.3364 11.978 22.0405 11.7583C21.7476 11.5386 21.5278 11.2529 21.3813 10.9014C21.2378 10.5498 21.166 10.1602 21.166 9.73242C21.166 9.01172 21.3696 8.44482 21.7769 8.03174C22.1841 7.61865 22.7012 7.41211 23.3281 7.41211C23.6826 7.41211 23.9976 7.4707 24.2729 7.58789L25.1562 7.5H25.1738L25.0728 8.59863L25.1914 14.25ZM23.3545 11.4067C23.6562 11.4067 23.9565 11.3013 24.2554 11.0903L24.2905 8.47998C24.021 8.31299 23.7119 8.22949 23.3633 8.22949C23.1348 8.22949 22.9341 8.27197 22.7612 8.35693C22.5913 8.43896 22.4565 8.55322 22.3569 8.69971C22.2603 8.84326 22.187 9.00293 22.1372 9.17871C22.0903 9.35156 22.0669 9.53906 22.0669 9.74121C22.0669 10.2773 22.1768 10.689 22.3965 10.9761C22.6191 11.2632 22.9385 11.4067 23.3545 11.4067ZM29.1333 11.4771C28.6499 11.8843 28.2061 12.0879 27.8018 12.0879C27.4268 12.0879 27.1382 11.9414 26.936 11.6484C26.7368 11.3525 26.6328 10.9512 26.624 10.4443L26.5977 8.67773L26.4087 7.51758V7.5H27.5073L27.4502 10.1455C27.4414 10.5322 27.5073 10.8032 27.6479 10.9585C27.7915 11.1138 28.0024 11.1914 28.2808 11.1914C28.6177 11.1914 28.9648 11.0684 29.3223 10.8223L29.2344 7.5H30.2407L30.1353 10.8223L30.2979 11.9824V12H29.3618L29.3442 11.2969L29.1333 11.4771ZM34.8989 11.6309C34.5767 11.9355 34.1006 12.0879 33.4707 12.0879C33.1279 12.0879 32.8188 12.022 32.5435 11.8901C32.271 11.7583 32.0513 11.5811 31.8843 11.3584C31.7173 11.1357 31.5898 10.8867 31.502 10.6113C31.4141 10.3359 31.3701 10.0459 31.3701 9.74121C31.3701 9.36328 31.4229 9.0249 31.5283 8.72607C31.6367 8.42432 31.7832 8.17969 31.9678 7.99219C32.1523 7.80176 32.3618 7.6582 32.5962 7.56152C32.8306 7.46191 33.0796 7.41211 33.3433 7.41211C33.9937 7.41211 34.48 7.64209 34.8022 8.10205C35.1274 8.55908 35.2476 9.19775 35.1626 10.0181H32.271C32.3149 10.4546 32.4482 10.7959 32.6709 11.042C32.8965 11.2852 33.2437 11.4067 33.7124 11.4067C34.0933 11.4067 34.5137 11.272 34.9736 11.0024H34.9912L34.8989 11.6309ZM32.271 9.56982L34.3496 9.30176C34.376 8.98242 34.3027 8.72314 34.1299 8.52393C33.957 8.32178 33.689 8.2207 33.3257 8.2207C33.1938 8.2207 33.0679 8.24561 32.9478 8.29541C32.8276 8.34521 32.7148 8.42139 32.6094 8.52393C32.5068 8.62354 32.4248 8.76416 32.3633 8.9458C32.3018 9.12451 32.271 9.33252 32.271 9.56982ZM38.6562 5.61914C38.8203 5.61914 38.9551 5.66602 39.0605 5.75977C39.1689 5.85059 39.2231 5.9751 39.2231 6.1333C39.2231 6.30029 39.1689 6.43359 39.0605 6.5332C38.9551 6.63281 38.8203 6.68262 38.6562 6.68262C38.501 6.68262 38.3691 6.63281 38.2607 6.5332C38.1523 6.43359 38.0981 6.30029 38.0981 6.1333C38.0981 5.9751 38.1523 5.85059 38.2607 5.75977C38.3691 5.66602 38.501 5.61914 38.6562 5.61914ZM38.1157 7.5H39.0518V7.51758L39.1792 12H38.1729L38.2783 8.67773L38.1157 7.51758V7.5ZM42.4971 7.41211C42.9512 7.41211 43.3145 7.48389 43.5869 7.62744L43.7671 8.67773H43.7495C43.3481 8.37891 42.9219 8.22949 42.4707 8.22949C42.1016 8.22949 41.7969 8.354 41.5566 8.60303C41.3193 8.85205 41.2007 9.22266 41.2007 9.71484C41.2007 10.2686 41.3223 10.689 41.5654 10.9761C41.8115 11.2632 42.1426 11.4067 42.5586 11.4067C42.7754 11.4067 42.9775 11.3701 43.165 11.2969C43.3525 11.2236 43.5503 11.1226 43.7583 10.9937H43.7759L43.6836 11.6221C43.5635 11.7422 43.3892 11.8506 43.1606 11.9473C42.9351 12.041 42.6992 12.0879 42.4531 12.0879C41.8203 12.0879 41.3047 11.8638 40.9062 11.4155C40.5078 10.9644 40.3086 10.3916 40.3086 9.69727C40.3086 9.32812 40.3672 8.99561 40.4844 8.69971C40.6045 8.40381 40.7671 8.16357 40.9722 7.979C41.1772 7.79443 41.4087 7.65381 41.6665 7.55713C41.9272 7.46045 42.2041 7.41211 42.4971 7.41211ZM45.3008 5.61914C45.4648 5.61914 45.5996 5.66602 45.7051 5.75977C45.8135 5.85059 45.8677 5.9751 45.8677 6.1333C45.8677 6.30029 45.8135 6.43359 45.7051 6.5332C45.5996 6.63281 45.4648 6.68262 45.3008 6.68262C45.1455 6.68262 45.0137 6.63281 44.9053 6.5332C44.7969 6.43359 44.7427 6.30029 44.7427 6.1333C44.7427 5.9751 44.7969 5.85059 44.9053 5.75977C45.0137 5.66602 45.1455 5.61914 45.3008 5.61914ZM44.7603 7.5H45.6963V7.51758L45.8237 12H44.8174L44.9229 8.67773L44.7603 7.51758V7.5ZM50.917 11.4067C51.3037 11.4067 51.5967 11.2529 51.7959 10.9453C51.9951 10.6348 52.0947 10.2188 52.0947 9.69727C52.0859 9.25488 51.9819 8.9165 51.7827 8.68213C51.5864 8.44482 51.3037 8.32617 50.9346 8.32617C50.6475 8.32617 50.3179 8.43457 49.9458 8.65137L49.981 11.0728C50.2446 11.2954 50.5566 11.4067 50.917 11.4067ZM50.8335 12.0879C50.5581 12.0879 50.2798 12.0498 49.9985 11.9736L50.0337 14.25H49.0537L49.1416 8.58984L48.9834 7.51758V7.5H49.9106L49.937 8.146C50.186 7.92627 50.4233 7.74902 50.6489 7.61426C50.8774 7.47949 51.1104 7.41211 51.3477 7.41211C51.626 7.41211 51.8721 7.47803 52.0859 7.60986C52.3027 7.73877 52.4741 7.91162 52.6001 8.12842C52.7261 8.34521 52.8198 8.58105 52.8813 8.83594C52.9458 9.08789 52.978 9.3501 52.978 9.62256C52.978 9.76611 52.9692 9.90967 52.9517 10.0532C52.937 10.1938 52.9077 10.3477 52.8638 10.5146C52.8228 10.6787 52.7686 10.834 52.7012 10.9805C52.6338 11.127 52.543 11.269 52.4287 11.4067C52.3174 11.5444 52.1885 11.6631 52.042 11.7627C51.8984 11.8594 51.7227 11.9385 51.5146 12C51.3096 12.0586 51.0825 12.0879 50.8335 12.0879ZM55.9883 7.41211C56.3164 7.41211 56.6152 7.47217 56.8848 7.59229C57.1543 7.7124 57.3755 7.87646 57.5483 8.08447C57.7241 8.28955 57.8589 8.52979 57.9526 8.80518C58.0464 9.07764 58.0933 9.36914 58.0933 9.67969C58.0933 10.0137 58.0464 10.3257 57.9526 10.6157C57.8589 10.9058 57.7256 11.1606 57.5527 11.3804C57.3799 11.6001 57.1587 11.7729 56.8892 11.8989C56.6196 12.0249 56.3193 12.0879 55.9883 12.0879C55.5488 12.0879 55.1665 11.978 54.8413 11.7583C54.519 11.5356 54.2773 11.2456 54.1162 10.8882C53.958 10.5278 53.8789 10.125 53.8789 9.67969C53.8789 9.26074 53.9595 8.88135 54.1206 8.5415C54.2817 8.20166 54.5234 7.9292 54.8457 7.72412C55.1709 7.51611 55.5518 7.41211 55.9883 7.41211ZM55.083 10.9321C55.291 11.2485 55.5928 11.4067 55.9883 11.4067C56.3838 11.4067 56.6841 11.2485 56.8892 10.9321C57.0972 10.6157 57.2012 10.2041 57.2012 9.69727C57.2012 9.28418 57.0928 8.93701 56.876 8.65576C56.6621 8.37158 56.3662 8.22949 55.9883 8.22949C55.6074 8.22949 55.3086 8.37012 55.0918 8.65137C54.8779 8.93262 54.771 9.28125 54.771 9.69727C54.771 10.2012 54.875 10.6128 55.083 10.9321ZM61.811 11.4771C61.3276 11.8843 60.8838 12.0879 60.4795 12.0879C60.1045 12.0879 59.8159 11.9414 59.6138 11.6484C59.4146 11.3525 59.3105 10.9512 59.3018 10.4443L59.2754 8.67773L59.0864 7.51758V7.5H60.1851L60.1279 10.1455C60.1191 10.5322 60.1851 10.8032 60.3257 10.9585C60.4692 11.1138 60.6802 11.1914 60.9585 11.1914C61.2954 11.1914 61.6426 11.0684 62 10.8223L61.9121 7.5H62.9185L62.813 10.8223L62.9756 11.9824V12H62.0396L62.022 11.2969L61.811 11.4771ZM66.2275 8.36572C66.0693 8.36572 65.8979 8.40088 65.7134 8.47119C65.5288 8.5415 65.3589 8.62939 65.2036 8.73486L65.2915 12H64.2852L64.3906 8.67773L64.228 7.51758V7.5H65.1641L65.1816 8.23828L65.4102 8.04932C65.4277 8.03467 65.4673 8.00098 65.5288 7.94824C65.5933 7.89551 65.6357 7.86035 65.6562 7.84277C65.6768 7.8252 65.7148 7.79443 65.7705 7.75049C65.8291 7.70361 65.8716 7.67139 65.8979 7.65381C65.9272 7.63623 65.9683 7.61133 66.021 7.5791C66.0737 7.54395 66.1177 7.52051 66.1528 7.50879C66.188 7.49414 66.229 7.47803 66.2759 7.46045C66.3257 7.43994 66.3726 7.42676 66.4165 7.4209C66.4604 7.41504 66.5059 7.41211 66.5527 7.41211C66.708 7.41211 66.8281 7.41797 66.9131 7.42969L67.0933 8.5459H67.0757C66.8325 8.42578 66.5498 8.36572 66.2275 8.36572ZM2.96826 20.3657C2.81006 20.3657 2.63867 20.4009 2.4541 20.4712C2.26953 20.5415 2.09961 20.6294 1.94434 20.7349L2.03223 24H1.02588L1.13135 20.6777L0.96875 19.5176V19.5H1.90479L1.92236 20.2383L2.15088 20.0493C2.16846 20.0347 2.20801 20.001 2.26953 19.9482C2.33398 19.8955 2.37646 19.8604 2.39697 19.8428C2.41748 19.8252 2.45557 19.7944 2.51123 19.7505C2.56982 19.7036 2.6123 19.6714 2.63867 19.6538C2.66797 19.6362 2.70898 19.6113 2.76172 19.5791C2.81445 19.5439 2.8584 19.5205 2.89355 19.5088C2.92871 19.4941 2.96973 19.478 3.0166 19.4604C3.06641 19.4399 3.11328 19.4268 3.15723 19.4209C3.20117 19.415 3.24658 19.4121 3.29346 19.4121C3.44873 19.4121 3.56885 19.418 3.65381 19.4297L3.83398 20.5459H3.81641C3.57324 20.4258 3.29053 20.3657 2.96826 20.3657ZM7.80664 23.6309C7.48438 23.9355 7.0083 24.0879 6.37842 24.0879C6.03564 24.0879 5.72656 24.022 5.45117 23.8901C5.17871 23.7583 4.95898 23.5811 4.79199 23.3584C4.625 23.1357 4.49756 22.8867 4.40967 22.6113C4.32178 22.3359 4.27783 22.0459 4.27783 21.7412C4.27783 21.3633 4.33057 21.0249 4.43604 20.7261C4.54443 20.4243 4.69092 20.1797 4.87549 19.9922C5.06006 19.8018 5.26953 19.6582 5.50391 19.5615C5.73828 19.4619 5.9873 19.4121 6.25098 19.4121C6.90137 19.4121 7.3877 19.6421 7.70996 20.1021C8.03516 20.5591 8.15527 21.1978 8.07031 22.0181H5.17871C5.22266 22.4546 5.35596 22.7959 5.57861 23.042C5.8042 23.2852 6.15137 23.4067 6.62012 23.4067C7.00098 23.4067 7.42139 23.272 7.88135 23.0024H7.89893L7.80664 23.6309ZM5.17871 21.5698L7.25732 21.3018C7.28369 20.9824 7.21045 20.7231 7.0376 20.5239C6.86475 20.3218 6.59668 20.2207 6.2334 20.2207C6.10156 20.2207 5.97559 20.2456 5.85547 20.2954C5.73535 20.3452 5.62256 20.4214 5.51709 20.5239C5.41455 20.6235 5.33252 20.7642 5.271 20.9458C5.20947 21.1245 5.17871 21.3325 5.17871 21.5698ZM11.23 19.4121C11.6841 19.4121 12.0474 19.4839 12.3198 19.6274L12.5 20.6777H12.4824C12.0811 20.3789 11.6548 20.2295 11.2036 20.2295C10.8345 20.2295 10.5298 20.354 10.2896 20.603C10.0522 20.8521 9.93359 21.2227 9.93359 21.7148C9.93359 22.2686 10.0552 22.689 10.2983 22.9761C10.5444 23.2632 10.8755 23.4067 11.2915 23.4067C11.5083 23.4067 11.7104 23.3701 11.8979 23.2969C12.0854 23.2236 12.2832 23.1226 12.4912 22.9937H12.5088L12.4165 23.6221C12.2964 23.7422 12.1221 23.8506 11.8936 23.9473C11.668 24.041 11.4321 24.0879 11.186 24.0879C10.5532 24.0879 10.0376 23.8638 9.63916 23.4155C9.24072 22.9644 9.0415 22.3916 9.0415 21.6973C9.0415 21.3281 9.1001 20.9956 9.21729 20.6997C9.3374 20.4038 9.5 20.1636 9.70508 19.979C9.91016 19.7944 10.1416 19.6538 10.3994 19.5571C10.6602 19.4604 10.937 19.4121 11.23 19.4121ZM15.4224 19.4121C15.7505 19.4121 16.0493 19.4722 16.3188 19.5923C16.5884 19.7124 16.8096 19.8765 16.9824 20.0845C17.1582 20.2896 17.293 20.5298 17.3867 20.8052C17.4805 21.0776 17.5273 21.3691 17.5273 21.6797C17.5273 22.0137 17.4805 22.3257 17.3867 22.6157C17.293 22.9058 17.1597 23.1606 16.9868 23.3804C16.814 23.6001 16.5928 23.7729 16.3232 23.8989C16.0537 24.0249 15.7534 24.0879 15.4224 24.0879C14.9829 24.0879 14.6006 23.978 14.2754 23.7583C13.9531 23.5356 13.7114 23.2456 13.5503 22.8882C13.3921 22.5278 13.313 22.125 13.313 21.6797C13.313 21.2607 13.3936 20.8813 13.5547 20.5415C13.7158 20.2017 13.9575 19.9292 14.2798 19.7241C14.605 19.5161 14.9858 19.4121 15.4224 19.4121ZM14.5171 22.9321C14.7251 23.2485 15.0269 23.4067 15.4224 23.4067C15.8179 23.4067 16.1182 23.2485 16.3232 22.9321C16.5312 22.6157 16.6353 22.2041 16.6353 21.6973C16.6353 21.2842 16.5269 20.937 16.3101 20.6558C16.0962 20.3716 15.8003 20.2295 15.4224 20.2295C15.0415 20.2295 14.7427 20.3701 14.5259 20.6514C14.312 20.9326 14.2051 21.2812 14.2051 21.6973C14.2051 22.2012 14.3091 22.6128 14.5171 22.9321ZM20.4805 20.3174C20.1787 20.3174 19.8799 20.4316 19.584 20.6602L19.6719 24H18.6655L18.771 20.6689L18.6084 19.5176V19.5H19.5444L19.562 20.1855L19.707 20.0581C19.9414 19.856 20.1597 19.6978 20.3618 19.5835C20.5669 19.4692 20.7749 19.4121 20.9858 19.4121C21.5337 19.4121 21.9028 19.6992 22.0933 20.2734L22.335 20.0581C22.5693 19.856 22.7876 19.6978 22.9897 19.5835C23.1948 19.4692 23.4028 19.4121 23.6138 19.4121C24.0034 19.4121 24.3022 19.5586 24.5103 19.8516C24.7183 20.1445 24.8311 20.5459 24.8486 21.0557L24.9453 24H23.939L24.0181 21.3545C24.0239 21.1465 24.0078 20.9736 23.9697 20.8359C23.9316 20.6953 23.8687 20.5884 23.7808 20.5151C23.6958 20.4419 23.6006 20.3906 23.4951 20.3613C23.3896 20.332 23.2607 20.3174 23.1084 20.3174C22.8037 20.3174 22.4946 20.4346 22.1812 20.6689C22.1987 20.8008 22.2119 20.9297 22.2207 21.0557L22.3086 24H21.3022L21.3901 21.3545C21.396 21.1465 21.3799 20.9736 21.3418 20.8359C21.3037 20.6953 21.2407 20.5884 21.1528 20.5151C21.0679 20.4419 20.9727 20.3906 20.8672 20.3613C20.7617 20.332 20.6328 20.3174 20.4805 20.3174ZM29.5508 23.6309C29.2285 23.9355 28.7524 24.0879 28.1226 24.0879C27.7798 24.0879 27.4707 24.022 27.1953 23.8901C26.9229 23.7583 26.7031 23.5811 26.5361 23.3584C26.3691 23.1357 26.2417 22.8867 26.1538 22.6113C26.0659 22.3359 26.022 22.0459 26.022 21.7412C26.022 21.3633 26.0747 21.0249 26.1802 20.7261C26.2886 20.4243 26.4351 20.1797 26.6196 19.9922C26.8042 19.8018 27.0137 19.6582 27.248 19.5615C27.4824 19.4619 27.7314 19.4121 27.9951 19.4121C28.6455 19.4121 29.1318 19.6421 29.4541 20.1021C29.7793 20.5591 29.8994 21.1978 29.8145 22.0181H26.9229C26.9668 22.4546 27.1001 22.7959 27.3228 23.042C27.5483 23.2852 27.8955 23.4067 28.3643 23.4067C28.7451 23.4067 29.1655 23.272 29.6255 23.0024H29.6431L29.5508 23.6309ZM26.9229 21.5698L29.0015 21.3018C29.0278 20.9824 28.9546 20.7231 28.7817 20.5239C28.6089 20.3218 28.3408 20.2207 27.9775 20.2207C27.8457 20.2207 27.7197 20.2456 27.5996 20.2954C27.4795 20.3452 27.3667 20.4214 27.2612 20.5239C27.1587 20.6235 27.0767 20.7642 27.0151 20.9458C26.9536 21.1245 26.9229 21.3325 26.9229 21.5698ZM32.8379 20.3174C32.5361 20.3174 32.2373 20.4316 31.9414 20.6602L32.0293 24H31.0229L31.1284 20.6689L30.9658 19.5176V19.5H31.9019L31.9194 20.1855L32.0645 20.0581C32.2988 19.856 32.5171 19.6978 32.7192 19.5835C32.9243 19.4692 33.1323 19.4121 33.3433 19.4121C33.8911 19.4121 34.2603 19.6992 34.4507 20.2734L34.6924 20.0581C34.9268 19.856 35.145 19.6978 35.3472 19.5835C35.5522 19.4692 35.7603 19.4121 35.9712 19.4121C36.3608 19.4121 36.6597 19.5586 36.8677 19.8516C37.0757 20.1445 37.1885 20.5459 37.2061 21.0557L37.3027 24H36.2964L36.3755 21.3545C36.3813 21.1465 36.3652 20.9736 36.3271 20.8359C36.2891 20.6953 36.2261 20.5884 36.1382 20.5151C36.0532 20.4419 35.958 20.3906 35.8525 20.3613C35.7471 20.332 35.6182 20.3174 35.4658 20.3174C35.1611 20.3174 34.8521 20.4346 34.5386 20.6689C34.5562 20.8008 34.5693 20.9297 34.5781 21.0557L34.666 24H33.6597L33.7476 21.3545C33.7534 21.1465 33.7373 20.9736 33.6992 20.8359C33.6611 20.6953 33.5981 20.5884 33.5103 20.5151C33.4253 20.4419 33.3301 20.3906 33.2246 20.3613C33.1191 20.332 32.9902 20.3174 32.8379 20.3174ZM40.5327 20.3086C40.2339 20.2998 39.9014 20.4229 39.5352 20.6777L39.623 24H38.6167L38.7222 20.6777L38.5596 19.5176V19.5H39.4956L39.5132 20.1943L39.6846 20.0493C40.1885 19.6245 40.6367 19.4121 41.0293 19.4121C41.4365 19.4121 41.7471 19.5586 41.9609 19.8516C42.1777 20.1416 42.2949 20.5459 42.3125 21.0645L42.4136 24H41.4072L41.4863 21.3633C41.498 20.9561 41.4204 20.6777 41.2534 20.5283C41.0864 20.376 40.8462 20.3027 40.5327 20.3086ZM45.7271 19.4121C46.1812 19.4121 46.5444 19.4839 46.8169 19.6274L46.9971 20.6777H46.9795C46.5781 20.3789 46.1519 20.2295 45.7007 20.2295C45.3315 20.2295 45.0269 20.354 44.7866 20.603C44.5493 20.8521 44.4307 21.2227 44.4307 21.7148C44.4307 22.2686 44.5522 22.689 44.7954 22.9761C45.0415 23.2632 45.3726 23.4067 45.7886 23.4067C46.0054 23.4067 46.2075 23.3701 46.395 23.2969C46.5825 23.2236 46.7803 23.1226 46.9883 22.9937H47.0059L46.9136 23.6221C46.7935 23.7422 46.6191 23.8506 46.3906 23.9473C46.165 24.041 45.9292 24.0879 45.6831 24.0879C45.0503 24.0879 44.5347 23.8638 44.1362 23.4155C43.7378 22.9644 43.5386 22.3916 43.5386 21.6973C43.5386 21.3281 43.5972 20.9956 43.7144 20.6997C43.8345 20.4038 43.9971 20.1636 44.2021 19.979C44.4072 19.7944 44.6387 19.6538 44.8965 19.5571C45.1572 19.4604 45.4341 19.4121 45.7271 19.4121ZM51.3389 23.6309C51.0166 23.9355 50.5405 24.0879 49.9106 24.0879C49.5679 24.0879 49.2588 24.022 48.9834 23.8901C48.7109 23.7583 48.4912 23.5811 48.3242 23.3584C48.1572 23.1357 48.0298 22.8867 47.9419 22.6113C47.854 22.3359 47.8101 22.0459 47.8101 21.7412C47.8101 21.3633 47.8628 21.0249 47.9683 20.7261C48.0767 20.4243 48.2231 20.1797 48.4077 19.9922C48.5923 19.8018 48.8018 19.6582 49.0361 19.5615C49.2705 19.4619 49.5195 19.4121 49.7832 19.4121C50.4336 19.4121 50.9199 19.6421 51.2422 20.1021C51.5674 20.5591 51.6875 21.1978 51.6025 22.0181H48.7109C48.7549 22.4546 48.8882 22.7959 49.1108 23.042C49.3364 23.2852 49.6836 23.4067 50.1523 23.4067C50.5332 23.4067 50.9536 23.272 51.4136 23.0024H51.4312L51.3389 23.6309ZM48.7109 21.5698L50.7896 21.3018C50.8159 20.9824 50.7427 20.7231 50.5698 20.5239C50.397 20.3218 50.1289 20.2207 49.7656 20.2207C49.6338 20.2207 49.5078 20.2456 49.3877 20.2954C49.2676 20.3452 49.1548 20.4214 49.0493 20.5239C48.9468 20.6235 48.8647 20.7642 48.8032 20.9458C48.7417 21.1245 48.7109 21.3325 48.7109 21.5698ZM54.7534 20.3657C54.5952 20.3657 54.4238 20.4009 54.2393 20.4712C54.0547 20.5415 53.8848 20.6294 53.7295 20.7349L53.8174 24H52.811L52.9165 20.6777L52.7539 19.5176V19.5H53.6899L53.7075 20.2383L53.936 20.0493C53.9536 20.0347 53.9932 20.001 54.0547 19.9482C54.1191 19.8955 54.1616 19.8604 54.1821 19.8428C54.2026 19.8252 54.2407 19.7944 54.2964 19.7505C54.355 19.7036 54.3975 19.6714 54.4238 19.6538C54.4531 19.6362 54.4941 19.6113 54.5469 19.5791C54.5996 19.5439 54.6436 19.5205 54.6787 19.5088C54.7139 19.4941 54.7549 19.478 54.8018 19.4604C54.8516 19.4399 54.8984 19.4268 54.9424 19.4209C54.9863 19.415 55.0317 19.4121 55.0786 19.4121C55.2339 19.4121 55.354 19.418 55.439 19.4297L55.6191 20.5459H55.6016C55.3584 20.4258 55.0757 20.3657 54.7534 20.3657ZM58.2778 24L58.4009 20.1855L58.2778 17.0698H59.2754L59.1567 20.1855L59.2754 24H58.2778ZM63.9248 23.6309C63.6025 23.9355 63.1265 24.0879 62.4966 24.0879C62.1538 24.0879 61.8447 24.022 61.5693 23.8901C61.2969 23.7583 61.0771 23.5811 60.9102 23.3584C60.7432 23.1357 60.6157 22.8867 60.5278 22.6113C60.4399 22.3359 60.396 22.0459 60.396 21.7412C60.396 21.3633 60.4487 21.0249 60.5542 20.7261C60.6626 20.4243 60.8091 20.1797 60.9937 19.9922C61.1782 19.8018 61.3877 19.6582 61.6221 19.5615C61.8564 19.4619 62.1055 19.4121 62.3691 19.4121C63.0195 19.4121 63.5059 19.6421 63.8281 20.1021C64.1533 20.5591 64.2734 21.1978 64.1885 22.0181H61.2969C61.3408 22.4546 61.4741 22.7959 61.6968 23.042C61.9224 23.2852 62.2695 23.4067 62.7383 23.4067C63.1191 23.4067 63.5396 23.272 63.9995 23.0024H64.0171L63.9248 23.6309ZM61.2969 21.5698L63.3755 21.3018C63.4019 20.9824 63.3286 20.7231 63.1558 20.5239C62.9829 20.3218 62.7148 20.2207 62.3516 20.2207C62.2197 20.2207 62.0938 20.2456 61.9736 20.2954C61.8535 20.3452 61.7407 20.4214 61.6353 20.5239C61.5327 20.6235 61.4507 20.7642 61.3892 20.9458C61.3276 21.1245 61.2969 21.3325 61.2969 21.5698ZM67.6382 17.6191C67.8022 17.6191 67.937 17.666 68.0425 17.7598C68.1509 17.8506 68.2051 17.9751 68.2051 18.1333C68.2051 18.3003 68.1509 18.4336 68.0425 18.5332C67.937 18.6328 67.8022 18.6826 67.6382 18.6826C67.4829 18.6826 67.3511 18.6328 67.2427 18.5332C67.1343 18.4336 67.0801 18.3003 67.0801 18.1333C67.0801 17.9751 67.1343 17.8506 67.2427 17.7598C67.3511 17.666 67.4829 17.6191 67.6382 17.6191ZM67.1416 19.5H68.0952C68.0981 19.5 68.1025 19.9102 68.1084 20.7305C68.1143 21.5479 68.1187 22.3667 68.1216 23.187C68.1274 24.0044 68.1289 24.4131 68.126 24.4131C68.1318 24.6182 68.1274 24.7969 68.1128 24.9492C68.0981 25.1016 68.0659 25.2539 68.0161 25.4062C67.9663 25.5615 67.8945 25.6919 67.8008 25.7974C67.71 25.9028 67.584 25.9951 67.4229 26.0742C67.2646 26.1562 67.0757 26.2148 66.856 26.25L66.4033 25.5557V25.5381C66.7197 25.5381 66.9351 25.4663 67.0493 25.3228C67.1636 25.1792 67.2251 24.9214 67.2339 24.5493L67.3042 20.6777L67.1416 19.5176V19.5ZM72.8193 23.6309C72.4971 23.9355 72.021 24.0879 71.3911 24.0879C71.0483 24.0879 70.7393 24.022 70.4639 23.8901C70.1914 23.7583 69.9717 23.5811 69.8047 23.3584C69.6377 23.1357 69.5103 22.8867 69.4224 22.6113C69.3345 22.3359 69.2905 22.0459 69.2905 21.7412C69.2905 21.3633 69.3433 21.0249 69.4487 20.7261C69.5571 20.4243 69.7036 20.1797 69.8882 19.9922C70.0728 19.8018 70.2822 19.6582 70.5166 19.5615C70.751 19.4619 71 19.4121 71.2637 19.4121C71.9141 19.4121 72.4004 19.6421 72.7227 20.1021C73.0479 20.5591 73.168 21.1978 73.083 22.0181H70.1914C70.2354 22.4546 70.3687 22.7959 70.5913 23.042C70.8169 23.2852 71.1641 23.4067 71.6328 23.4067C72.0137 23.4067 72.4341 23.272 72.894 23.0024H72.9116L72.8193 23.6309ZM70.1914 21.5698L72.27 21.3018C72.2964 20.9824 72.2231 20.7231 72.0503 20.5239C71.8774 20.3218 71.6094 20.2207 71.2461 20.2207C71.1143 20.2207 70.9883 20.2456 70.8682 20.2954C70.748 20.3452 70.6353 20.4214 70.5298 20.5239C70.4272 20.6235 70.3452 20.7642 70.2837 20.9458C70.2222 21.1245 70.1914 21.3325 70.1914 21.5698ZM76.8711 23.4771C76.3877 23.8843 75.9438 24.0879 75.5396 24.0879C75.1646 24.0879 74.876 23.9414 74.6738 23.6484C74.4746 23.3525 74.3706 22.9512 74.3618 22.4443L74.3354 20.6777L74.1465 19.5176V19.5H75.2451L75.188 22.1455C75.1792 22.5322 75.2451 22.8032 75.3857 22.9585C75.5293 23.1138 75.7402 23.1914 76.0186 23.1914C76.3555 23.1914 76.7026 23.0684 77.0601 22.8223L76.9722 19.5H77.9785L77.873 22.8223L78.0356 23.9824V24H77.0996L77.082 23.2969L76.8711 23.4771Z" fill="black"/>
<path d="M95.6984 10.4533C89.6388 6.14849 82.1487 5.07672 72.0559 10.5962M72.0559 10.5962L74.4822 6.46973M72.0559 10.5962L76.8956 12.9265" stroke="black" stroke-width="2" stroke-linecap="round"/>
</svg>
