<svg width="90" height="31" viewBox="0 0 90 31" fill="none" xmlns="http://www.w3.org/2000/svg">
<path d="M29.5 14.3182C20 21.7146 15 20.4288 1.52276 16.8604M1.52276 16.8604L3.43853 21.7145M1.52276 16.8604L6.91932 14.3182" stroke="black" stroke-width="2" stroke-linecap="round"/>
<path d="M44.7458 6.45361L44.8777 10H43.7922L43.9241 6.45361L43.7922 3.25H45.6072C46.2371 3.25 46.7322 3.40381 47.0925 3.71143C47.4529 4.01904 47.6331 4.42041 47.6331 4.91553C47.6331 5.35791 47.5159 5.73438 47.2815 6.04492C47.05 6.35547 46.697 6.5752 46.2224 6.7041L48.3889 9.98242V10H47.0925L45.4841 6.82275V6.31738C45.8738 6.27344 46.1741 6.15186 46.385 5.95264C46.5989 5.75049 46.7058 5.47656 46.7058 5.13086C46.7058 4.82031 46.5945 4.56396 46.3718 4.36182C46.1521 4.15967 45.8313 4.05859 45.4094 4.05859H44.8425L44.7458 6.45361ZM52.5022 9.63086C52.1799 9.93555 51.7039 10.0879 51.074 10.0879C50.7312 10.0879 50.4221 10.022 50.1467 9.89014C49.8743 9.7583 49.6545 9.58105 49.4875 9.3584C49.3206 9.13574 49.1931 8.88672 49.1052 8.61133C49.0173 8.33594 48.9734 8.0459 48.9734 7.74121C48.9734 7.36328 49.0261 7.0249 49.1316 6.72607C49.24 6.42432 49.3865 6.17969 49.571 5.99219C49.7556 5.80176 49.9651 5.6582 50.1995 5.56152C50.4338 5.46191 50.6829 5.41211 50.9465 5.41211C51.5969 5.41211 52.0833 5.64209 52.4055 6.10205C52.7307 6.55908 52.8508 7.19775 52.7659 8.01807H49.8743C49.9182 8.45459 50.0515 8.7959 50.2742 9.04199C50.4998 9.28516 50.8469 9.40674 51.3157 9.40674C51.6965 9.40674 52.1169 9.27197 52.5769 9.00244H52.5945L52.5022 9.63086ZM49.8743 7.56982L51.9529 7.30176C51.9792 6.98242 51.906 6.72314 51.7332 6.52393C51.5603 6.32178 51.2922 6.2207 50.929 6.2207C50.7971 6.2207 50.6711 6.24561 50.551 6.29541C50.4309 6.34521 50.3181 6.42139 50.2126 6.52393C50.1101 6.62354 50.0281 6.76416 49.9666 6.9458C49.905 7.12451 49.8743 7.33252 49.8743 7.56982ZM54.8533 4.4541H54.9719L54.9807 5.52637L56.3298 5.41211V6.23828L54.9807 6.12842L54.9895 8.35205C54.9895 8.72998 55.0642 9.00098 55.2136 9.16504C55.366 9.32617 55.5549 9.40674 55.7805 9.40674C55.9709 9.40674 56.1541 9.36426 56.3298 9.2793H56.3474L56.2595 9.77588C56.1804 9.86377 56.0618 9.93848 55.9036 10C55.7454 10.0586 55.5813 10.0879 55.4114 10.0879C55.0188 10.0879 54.7024 9.96191 54.4622 9.70996C54.2219 9.45508 54.1062 9.09619 54.115 8.6333L54.1633 6.05811L53.469 6.00537V5.89551L54.8533 4.4541ZM59.3093 5.41211C59.6375 5.41211 59.9363 5.47217 60.2058 5.59229C60.4753 5.7124 60.6965 5.87646 60.8694 6.08447C61.0452 6.28955 61.1799 6.52979 61.2737 6.80518C61.3674 7.07764 61.4143 7.36914 61.4143 7.67969C61.4143 8.01367 61.3674 8.32568 61.2737 8.61572C61.1799 8.90576 61.0466 9.16064 60.8738 9.38037C60.7009 9.6001 60.4797 9.77295 60.2102 9.89893C59.9407 10.0249 59.6404 10.0879 59.3093 10.0879C58.8699 10.0879 58.4875 9.97803 58.1624 9.7583C57.8401 9.53564 57.5984 9.24561 57.4373 8.88818C57.2791 8.52783 57.2 8.125 57.2 7.67969C57.2 7.26074 57.2805 6.88135 57.4417 6.5415C57.6028 6.20166 57.8445 5.9292 58.1667 5.72412C58.4919 5.51611 58.8728 5.41211 59.3093 5.41211ZM58.4041 8.93213C58.6121 9.24854 58.9138 9.40674 59.3093 9.40674C59.7048 9.40674 60.0051 9.24854 60.2102 8.93213C60.4182 8.61572 60.5222 8.2041 60.5222 7.69727C60.5222 7.28418 60.4138 6.93701 60.197 6.65576C59.9832 6.37158 59.6873 6.22949 59.3093 6.22949C58.9285 6.22949 58.6296 6.37012 58.4128 6.65137C58.199 6.93262 58.092 7.28125 58.092 7.69727C58.092 8.20117 58.196 8.61279 58.4041 8.93213ZM65.1321 9.47705C64.6487 9.88428 64.2048 10.0879 63.8005 10.0879C63.4255 10.0879 63.137 9.94141 62.9348 9.64844C62.7356 9.35254 62.6316 8.95117 62.6228 8.44434L62.5964 6.67773L62.4075 5.51758V5.5H63.5061L63.449 8.14551C63.4402 8.53223 63.5061 8.80322 63.6467 8.9585C63.7903 9.11377 64.0012 9.19141 64.2795 9.19141C64.6165 9.19141 64.9636 9.06836 65.321 8.82227L65.2332 5.5H66.2395L66.134 8.82227L66.2966 9.98242V10H65.3606L65.343 9.29688L65.1321 9.47705ZM69.5486 6.36572C69.3904 6.36572 69.219 6.40088 69.0344 6.47119C68.8499 6.5415 68.6799 6.62939 68.5247 6.73486L68.6125 10H67.6062L67.7117 6.67773L67.5491 5.51758V5.5H68.4851L68.5027 6.23828L68.7312 6.04932C68.7488 6.03467 68.7883 6.00098 68.8499 5.94824C68.9143 5.89551 68.9568 5.86035 68.9773 5.84277C68.9978 5.8252 69.0359 5.79443 69.0916 5.75049C69.1501 5.70361 69.1926 5.67139 69.219 5.65381C69.2483 5.63623 69.2893 5.61133 69.342 5.5791C69.3948 5.54395 69.4387 5.52051 69.4739 5.50879C69.509 5.49414 69.55 5.47803 69.5969 5.46045C69.6467 5.43994 69.6936 5.42676 69.7375 5.4209C69.7815 5.41504 69.8269 5.41211 69.8738 5.41211C70.0291 5.41211 70.1492 5.41797 70.2341 5.42969L70.4143 6.5459H70.3967C70.1536 6.42578 69.8708 6.36572 69.5486 6.36572ZM74.51 9.43311C74.7649 9.43311 75.0623 9.30127 75.4021 9.0376L75.4285 8.25537C75.2117 8.13525 74.9597 8.0752 74.6726 8.0752C74.3972 8.0752 74.179 8.13525 74.0178 8.25537C73.8596 8.37549 73.7805 8.54248 73.7805 8.75635C73.7805 8.9585 73.8464 9.12256 73.9783 9.24854C74.113 9.37158 74.2903 9.43311 74.51 9.43311ZM75.3757 10L75.3845 9.57812C74.9304 9.91797 74.5466 10.0879 74.2332 10.0879C73.8142 10.0879 73.4861 9.96777 73.2488 9.72754C73.0115 9.4873 72.8928 9.18555 72.8928 8.82227C72.8928 8.60254 72.9338 8.40918 73.0159 8.24219C73.0979 8.0752 73.2048 7.94189 73.3367 7.84229C73.4685 7.73975 73.6267 7.65625 73.8113 7.5918C73.9988 7.52734 74.1863 7.4834 74.3738 7.45996C74.5613 7.43652 74.7634 7.4248 74.9802 7.4248C75.0623 7.4248 75.2175 7.43066 75.446 7.44238L75.4548 7.20947C75.4607 6.99854 75.4417 6.82275 75.3977 6.68213C75.3567 6.5415 75.2908 6.4375 75.2 6.37012C75.1091 6.2998 75.0125 6.25146 74.9099 6.2251C74.8103 6.19873 74.6887 6.18555 74.5452 6.18555C74.1467 6.18555 73.6677 6.31152 73.1082 6.56348H73.0906L73.262 5.50879C73.8743 5.44434 74.3445 5.41211 74.6726 5.41211C75.1882 5.41211 75.5808 5.55859 75.8503 5.85156C76.1228 6.1416 76.2678 6.5459 76.2854 7.06445L76.3821 10H75.3757ZM80.2756 9.47705C79.7922 9.88428 79.3484 10.0879 78.9441 10.0879C78.5691 10.0879 78.2805 9.94141 78.0784 9.64844C77.8792 9.35254 77.7751 8.95117 77.7664 8.44434L77.74 6.67773L77.551 5.51758V5.5H78.6497L78.5925 8.14551C78.5837 8.53223 78.6497 8.80322 78.7903 8.9585C78.9338 9.11377 79.1448 9.19141 79.4231 9.19141C79.76 9.19141 80.1072 9.06836 80.4646 8.82227L80.3767 5.5H81.3831L81.2776 8.82227L81.4402 9.98242V10H80.5042L80.4866 9.29688L80.2756 9.47705ZM41.4587 23.6045C41.2654 23.7217 40.9856 23.8315 40.6194 23.9341C40.2561 24.0366 39.8884 24.0879 39.5164 24.0879C39.0212 24.0879 38.5613 24.0088 38.1365 23.8506C37.7117 23.6924 37.3411 23.4668 37.0247 23.1738C36.7112 22.8809 36.4636 22.5132 36.282 22.0708C36.1033 21.6284 36.0139 21.1377 36.0139 20.5986C36.0139 19.5293 36.3333 18.6899 36.9719 18.0806C37.6106 17.4683 38.4763 17.1621 39.5691 17.1621C40.2224 17.1621 40.8728 17.2661 41.5203 17.4741L41.7004 18.7529H41.6829C41.3518 18.5186 41.0076 18.3428 40.6501 18.2256C40.2927 18.1084 39.8694 18.0498 39.3801 18.0498C39.1692 18.0498 38.9568 18.0747 38.7429 18.1245C38.532 18.1743 38.3167 18.2607 38.0969 18.3838C37.8801 18.5039 37.6882 18.6533 37.5212 18.832C37.3572 19.0107 37.2224 19.2422 37.1169 19.5264C37.0115 19.8105 36.9587 20.1284 36.9587 20.48C36.9587 21.3442 37.1829 22.0342 37.6311 22.5498C38.0823 23.0654 38.7166 23.3232 39.5339 23.3232C40.2136 23.3232 40.9094 23.0713 41.6213 22.5674H41.6389L41.4587 23.6045ZM44.7371 20.3086C44.4324 20.2998 44.0925 20.4258 43.7175 20.6865L43.8186 24H42.821L42.9441 20.1855L42.821 17.0698H43.8186L43.7 20.1855V20.2031L43.8801 20.0493C44.1204 19.8501 44.3489 19.6934 44.5657 19.5791C44.7854 19.4648 45.0037 19.4092 45.2205 19.4121C45.6277 19.4092 45.9397 19.5542 46.1565 19.8472C46.3733 20.1401 46.4905 20.5459 46.5081 21.0645L46.6091 24H45.6072L45.6819 21.3633C45.6936 20.9561 45.6174 20.6777 45.4534 20.5283C45.2893 20.376 45.0505 20.3027 44.7371 20.3086ZM49.8699 20.3657C49.7117 20.3657 49.5403 20.4009 49.3557 20.4712C49.1711 20.5415 49.0012 20.6294 48.8459 20.7349L48.9338 24H47.9275L48.033 20.6777L47.8704 19.5176V19.5H48.8064L48.824 20.2383L49.0525 20.0493C49.0701 20.0347 49.1096 20.001 49.1711 19.9482C49.2356 19.8955 49.2781 19.8604 49.2986 19.8428C49.3191 19.8252 49.3572 19.7944 49.4128 19.7505C49.4714 19.7036 49.5139 19.6714 49.5403 19.6538C49.5696 19.6362 49.6106 19.6113 49.6633 19.5791C49.7161 19.5439 49.76 19.5205 49.7952 19.5088C49.8303 19.4941 49.8713 19.478 49.9182 19.4604C49.968 19.4399 50.0149 19.4268 50.0588 19.4209C50.1028 19.415 50.1482 19.4121 50.1951 19.4121C50.3503 19.4121 50.4705 19.418 50.5554 19.4297L50.7356 20.5459H50.718C50.4749 20.4258 50.1921 20.3657 49.8699 20.3657ZM53.2888 19.4121C53.6169 19.4121 53.9158 19.4722 54.1853 19.5923C54.4548 19.7124 54.676 19.8765 54.8489 20.0845C55.0247 20.2896 55.1594 20.5298 55.2532 20.8052C55.3469 21.0776 55.3938 21.3691 55.3938 21.6797C55.3938 22.0137 55.3469 22.3257 55.2532 22.6157C55.1594 22.9058 55.0261 23.1606 54.8533 23.3804C54.6804 23.6001 54.4592 23.7729 54.1897 23.8989C53.9202 24.0249 53.6199 24.0879 53.2888 24.0879C52.8494 24.0879 52.467 23.978 52.1418 23.7583C51.8196 23.5356 51.5779 23.2456 51.4167 22.8882C51.2585 22.5278 51.1794 22.125 51.1794 21.6797C51.1794 21.2607 51.26 20.8813 51.4211 20.5415C51.5823 20.2017 51.824 19.9292 52.1462 19.7241C52.4714 19.5161 52.8523 19.4121 53.2888 19.4121ZM52.3835 22.9321C52.5916 23.2485 52.8933 23.4067 53.2888 23.4067C53.6843 23.4067 53.9846 23.2485 54.1897 22.9321C54.3977 22.6157 54.5017 22.2041 54.5017 21.6973C54.5017 21.2842 54.3933 20.937 54.1765 20.6558C53.9626 20.3716 53.6667 20.2295 53.2888 20.2295C52.908 20.2295 52.6091 20.3701 52.3923 20.6514C52.1785 20.9326 52.0715 21.2812 52.0715 21.6973C52.0715 22.2012 52.1755 22.6128 52.3835 22.9321ZM58.3469 20.3174C58.0452 20.3174 57.7463 20.4316 57.4504 20.6602L57.5383 24H56.532L56.6375 20.6689L56.4749 19.5176V19.5H57.4109L57.4285 20.1855L57.5735 20.0581C57.8079 19.856 58.0261 19.6978 58.2283 19.5835C58.4333 19.4692 58.6414 19.4121 58.8523 19.4121C59.4001 19.4121 59.7693 19.6992 59.9597 20.2734L60.2014 20.0581C60.4358 19.856 60.6541 19.6978 60.8562 19.5835C61.0613 19.4692 61.2693 19.4121 61.4802 19.4121C61.8699 19.4121 62.1687 19.5586 62.3767 19.8516C62.5847 20.1445 62.6975 20.5459 62.7151 21.0557L62.8118 24H61.8054L61.8845 21.3545C61.8904 21.1465 61.8743 20.9736 61.8362 20.8359C61.7981 20.6953 61.7351 20.5884 61.6472 20.5151C61.5623 20.4419 61.467 20.3906 61.3616 20.3613C61.2561 20.332 61.1272 20.3174 60.9749 20.3174C60.6702 20.3174 60.3611 20.4346 60.0476 20.6689C60.0652 20.8008 60.0784 20.9297 60.0872 21.0557L60.175 24H59.1687L59.2566 21.3545C59.2625 21.1465 59.2463 20.9736 59.2083 20.8359C59.1702 20.6953 59.1072 20.5884 59.0193 20.5151C58.9343 20.4419 58.8391 20.3906 58.7336 20.3613C58.6282 20.332 58.4993 20.3174 58.3469 20.3174ZM65.9978 19.4121C66.3259 19.4121 66.6248 19.4722 66.8943 19.5923C67.1638 19.7124 67.385 19.8765 67.5579 20.0845C67.7336 20.2896 67.8684 20.5298 67.9622 20.8052C68.0559 21.0776 68.1028 21.3691 68.1028 21.6797C68.1028 22.0137 68.0559 22.3257 67.9622 22.6157C67.8684 22.9058 67.7351 23.1606 67.5623 23.3804C67.3894 23.6001 67.1682 23.7729 66.8987 23.8989C66.6292 24.0249 66.3289 24.0879 65.9978 24.0879C65.5583 24.0879 65.176 23.978 64.8508 23.7583C64.5286 23.5356 64.2869 23.2456 64.1257 22.8882C63.9675 22.5278 63.8884 22.125 63.8884 21.6797C63.8884 21.2607 63.969 20.8813 64.1301 20.5415C64.2913 20.2017 64.533 19.9292 64.8552 19.7241C65.1804 19.5161 65.5613 19.4121 65.9978 19.4121ZM65.0925 22.9321C65.3005 23.2485 65.6023 23.4067 65.9978 23.4067C66.3933 23.4067 66.6936 23.2485 66.8987 22.9321C67.1067 22.6157 67.2107 22.2041 67.2107 21.6973C67.2107 21.2842 67.1023 20.937 66.8855 20.6558C66.6716 20.3716 66.3757 20.2295 65.9978 20.2295C65.6169 20.2295 65.3181 20.3701 65.1013 20.6514C64.8875 20.9326 64.7805 21.2812 64.7805 21.6973C64.7805 22.2012 64.8845 22.6128 65.0925 22.9321ZM71.1921 23.4067C71.491 23.4067 71.7942 23.3013 72.1018 23.0903L72.1282 20.48C71.8586 20.313 71.5496 20.2295 71.2009 20.2295C70.9841 20.2295 70.7908 20.272 70.6208 20.3569C70.4509 20.439 70.3147 20.5518 70.2122 20.6953C70.1096 20.8389 70.032 21 69.9792 21.1787C69.9294 21.3545 69.9045 21.542 69.9045 21.7412C69.9045 22.2773 70.0144 22.689 70.2341 22.9761C70.4568 23.2632 70.7761 23.4067 71.1921 23.4067ZM70.9768 26.3379C70.5725 26.3379 70.114 26.2822 69.6013 26.1709L69.3289 25.1162H69.364C69.6423 25.2422 69.8489 25.333 69.9836 25.3887C70.1213 25.4443 70.2854 25.4985 70.4758 25.5513C70.6692 25.604 70.842 25.6304 70.9944 25.6304C71.3635 25.6304 71.6345 25.5117 71.8074 25.2744C71.9832 25.0371 72.0754 24.6665 72.0842 24.1626L72.093 23.5957C71.6799 23.9238 71.2844 24.0879 70.9065 24.0879C70.5168 24.0879 70.1741 23.978 69.8782 23.7583C69.5852 23.5386 69.3655 23.2529 69.219 22.9014C69.0754 22.5498 69.0037 22.1602 69.0037 21.7324C69.0037 21.3721 69.0608 21.0439 69.175 20.748C69.2922 20.4492 69.449 20.2046 69.6453 20.0142C69.8445 19.8208 70.0745 19.6729 70.3352 19.5703C70.5959 19.4648 70.8728 19.4121 71.1658 19.4121C71.5232 19.4121 71.844 19.4751 72.1282 19.6011L72.9939 19.5H73.0115L72.9104 20.5986L72.9763 23.7847C72.9792 23.9312 72.9763 24.0703 72.9675 24.2021C72.9617 24.3369 72.9426 24.4937 72.9104 24.6724C72.8811 24.8511 72.8401 25.0137 72.7874 25.1602C72.7346 25.3066 72.657 25.4546 72.5544 25.604C72.4519 25.7563 72.3318 25.8838 72.1941 25.9863C72.0593 26.0889 71.8865 26.1724 71.6755 26.2368C71.4675 26.3042 71.2346 26.3379 70.9768 26.3379ZM76.3162 20.3657C76.158 20.3657 75.9866 20.4009 75.802 20.4712C75.6174 20.5415 75.4475 20.6294 75.2922 20.7349L75.3801 24H74.3738L74.4792 20.6777L74.3167 19.5176V19.5H75.2527L75.2703 20.2383L75.4988 20.0493C75.5164 20.0347 75.5559 20.001 75.6174 19.9482C75.6819 19.8955 75.7244 19.8604 75.7449 19.8428C75.7654 19.8252 75.8035 19.7944 75.8591 19.7505C75.9177 19.7036 75.9602 19.6714 75.9866 19.6538C76.0159 19.6362 76.0569 19.6113 76.1096 19.5791C76.1624 19.5439 76.2063 19.5205 76.2415 19.5088C76.2766 19.4941 76.3176 19.478 76.3645 19.4604C76.4143 19.4399 76.4612 19.4268 76.5051 19.4209C76.5491 19.415 76.5945 19.4121 76.6414 19.4121C76.7966 19.4121 76.9167 19.418 77.0017 19.4297L77.1819 20.5459H77.1643C76.9211 20.4258 76.6384 20.3657 76.3162 20.3657ZM79.4758 23.4331C79.7307 23.4331 80.0281 23.3013 80.3679 23.0376L80.3943 22.2554C80.1775 22.1353 79.9255 22.0752 79.6384 22.0752C79.363 22.0752 79.1448 22.1353 78.9836 22.2554C78.8254 22.3755 78.7463 22.5425 78.7463 22.7563C78.7463 22.9585 78.8123 23.1226 78.9441 23.2485C79.0789 23.3716 79.2561 23.4331 79.4758 23.4331ZM80.3416 24L80.3503 23.5781C79.8962 23.918 79.5125 24.0879 79.199 24.0879C78.78 24.0879 78.4519 23.9678 78.2146 23.7275C77.9773 23.4873 77.8586 23.1855 77.8586 22.8223C77.8586 22.6025 77.8997 22.4092 77.9817 22.2422C78.0637 22.0752 78.1707 21.9419 78.3025 21.8423C78.4343 21.7397 78.5925 21.6562 78.7771 21.5918C78.9646 21.5273 79.1521 21.4834 79.3396 21.46C79.5271 21.4365 79.7292 21.4248 79.946 21.4248C80.0281 21.4248 80.1833 21.4307 80.4119 21.4424L80.4207 21.2095C80.4265 20.9985 80.4075 20.8228 80.3635 20.6821C80.3225 20.5415 80.2566 20.4375 80.1658 20.3701C80.075 20.2998 79.9783 20.2515 79.8757 20.2251C79.7761 20.1987 79.6545 20.1855 79.511 20.1855C79.1125 20.1855 78.6335 20.3115 78.074 20.5635H78.0564L78.2278 19.5088C78.8401 19.4443 79.3103 19.4121 79.6384 19.4121C80.1541 19.4121 80.5466 19.5586 80.8162 19.8516C81.0886 20.1416 81.2336 20.5459 81.2512 21.0645L81.3479 24H80.3416ZM84.4768 20.3174C84.175 20.3174 83.8762 20.4316 83.5803 20.6602L83.6682 24H82.6619L82.7673 20.6689L82.6047 19.5176V19.5H83.5408L83.5583 20.1855L83.7034 20.0581C83.9377 19.856 84.156 19.6978 84.3582 19.5835C84.5632 19.4692 84.7712 19.4121 84.9822 19.4121C85.53 19.4121 85.8992 19.6992 86.0896 20.2734L86.3313 20.0581C86.5657 19.856 86.7839 19.6978 86.9861 19.5835C87.1912 19.4692 87.3992 19.4121 87.6101 19.4121C87.9998 19.4121 88.2986 19.5586 88.5066 19.8516C88.7146 20.1445 88.8274 20.5459 88.845 21.0557L88.9417 24H87.9353L88.0144 21.3545C88.0203 21.1465 88.0042 20.9736 87.9661 20.8359C87.928 20.6953 87.865 20.5884 87.7771 20.5151C87.6921 20.4419 87.5969 20.3906 87.4915 20.3613C87.386 20.332 87.2571 20.3174 87.1047 20.3174C86.8 20.3174 86.491 20.4346 86.1775 20.6689C86.1951 20.8008 86.2083 20.9297 86.217 21.0557L86.3049 24H85.2986L85.3865 21.3545C85.3923 21.1465 85.3762 20.9736 85.3381 20.8359C85.3 20.6953 85.2371 20.5884 85.1492 20.5151C85.0642 20.4419 84.969 20.3906 84.8635 20.3613C84.7581 20.332 84.6292 20.3174 84.4768 20.3174Z" fill="black"/>
</svg>
