<svg width="162" height="43" viewBox="0 0 162 43" fill="none" xmlns="http://www.w3.org/2000/svg">
<path d="M77.575 22.3182C68.075 29.7146 63.075 28.4288 49.5977 24.8604M49.5977 24.8604L51.5135 29.7145M49.5977 24.8604L54.9943 22.3182" stroke="black" stroke-width="2" stroke-linecap="round"/>
<path d="M87.9916 16.099L88.1366 20H86.9426L87.0876 16.099L86.9426 12.575H88.9391C89.6319 12.575 90.1766 12.7442 90.5729 13.0826C90.9693 13.4209 91.1675 13.8625 91.1675 14.4071C91.1675 14.8937 91.0386 15.3078 90.7808 15.6494C90.5262 15.991 90.1379 16.2327 89.6158 16.3745L91.999 19.9807V20H90.5729L88.8037 16.505V15.9491C89.2323 15.9008 89.5626 15.767 89.7947 15.5479C90.0299 15.3255 90.1476 15.0242 90.1476 14.6439C90.1476 14.3023 90.0251 14.0204 89.7802 13.798C89.5385 13.5756 89.1856 13.4645 88.7215 13.4645H88.0979L87.9916 16.099ZM96.5236 19.5939C96.1691 19.9291 95.6454 20.0967 94.9525 20.0967C94.5755 20.0967 94.2355 20.0242 93.9326 19.8792C93.6329 19.7341 93.3912 19.5392 93.2075 19.2942C93.0238 19.0493 92.8836 18.7754 92.7869 18.4725C92.6902 18.1695 92.6419 17.8505 92.6419 17.5153C92.6419 17.0996 92.6999 16.7274 92.8159 16.3987C92.9352 16.0667 93.0963 15.7977 93.2993 15.5914C93.5023 15.3819 93.7328 15.224 93.9906 15.1177C94.2484 15.0081 94.5223 14.9533 94.8124 14.9533C95.5278 14.9533 96.0627 15.2063 96.4172 15.7123C96.775 16.215 96.9071 16.9175 96.8136 17.8199H93.6329C93.6812 18.3 93.8278 18.6755 94.0728 18.9462C94.3209 19.2137 94.7028 19.3474 95.2184 19.3474C95.6374 19.3474 96.0998 19.1992 96.6058 18.9027H96.6251L96.5236 19.5939ZM93.6329 17.3268L95.9193 17.0319C95.9483 16.6807 95.8678 16.3955 95.6776 16.1763C95.4875 15.954 95.1926 15.8428 94.793 15.8428C94.648 15.8428 94.5094 15.8702 94.3773 15.925C94.2452 15.9797 94.1211 16.0635 94.0051 16.1763C93.8923 16.2859 93.8021 16.4406 93.7344 16.6404C93.6667 16.837 93.6329 17.0658 93.6329 17.3268ZM99.1098 13.8995H99.2403L99.25 15.079L100.734 14.9533V15.8621L99.25 15.7413L99.2596 18.1873C99.2596 18.603 99.3418 18.9011 99.5062 19.0815C99.6737 19.2588 99.8816 19.3474 100.13 19.3474C100.339 19.3474 100.541 19.3007 100.734 19.2072H100.753L100.657 19.7535C100.57 19.8501 100.439 19.9323 100.265 20C100.091 20.0645 99.9106 20.0967 99.7237 20.0967C99.2918 20.0967 98.9438 19.9581 98.6795 19.681C98.4153 19.4006 98.288 19.0058 98.2977 18.4966L98.3508 15.6639L97.5871 15.6059V15.4851L99.1098 13.8995ZM104.011 14.9533C104.372 14.9533 104.701 15.0194 104.998 15.1515C105.294 15.2836 105.537 15.4641 105.727 15.6929C105.921 15.9185 106.069 16.1828 106.172 16.4857C106.275 16.7854 106.327 17.1061 106.327 17.4477C106.327 17.815 106.275 18.1583 106.172 18.4773C106.069 18.7963 105.922 19.0767 105.732 19.3184C105.542 19.5601 105.299 19.7502 105.002 19.8888C104.706 20.0274 104.376 20.0967 104.011 20.0967C103.528 20.0967 103.107 19.9758 102.75 19.7341C102.395 19.4892 102.129 19.1702 101.952 18.777C101.778 18.3806 101.691 17.9375 101.691 17.4477C101.691 16.9868 101.78 16.5695 101.957 16.1957C102.134 15.8218 102.4 15.5221 102.755 15.2965C103.112 15.0677 103.531 14.9533 104.011 14.9533ZM103.016 18.8253C103.244 19.1734 103.576 19.3474 104.011 19.3474C104.446 19.3474 104.777 19.1734 105.002 18.8253C105.231 18.4773 105.346 18.0245 105.346 17.467C105.346 17.0126 105.226 16.6307 104.988 16.3213C104.753 16.0087 104.427 15.8524 104.011 15.8524C103.592 15.8524 103.264 16.0071 103.025 16.3165C102.79 16.6259 102.672 17.0094 102.672 17.467C102.672 18.0213 102.787 18.4741 103.016 18.8253ZM110.416 19.4248C109.885 19.8727 109.396 20.0967 108.952 20.0967C108.539 20.0967 108.222 19.9355 107.999 19.6133C107.78 19.2878 107.666 18.8463 107.656 18.2888L107.627 16.3455L107.419 15.0693V15.05H108.628L108.565 17.9601C108.555 18.3854 108.628 18.6835 108.783 18.8543C108.94 19.0251 109.173 19.1105 109.479 19.1105C109.849 19.1105 110.231 18.9752 110.624 18.7045L110.528 15.05H111.635L111.519 18.7045L111.697 19.9807V20H110.668L110.648 19.2266L110.416 19.4248ZM115.275 16.0023C115.101 16.0023 114.912 16.041 114.709 16.1183C114.506 16.1957 114.319 16.2923 114.148 16.4083L114.245 20H113.138L113.254 16.3455L113.075 15.0693V15.05H114.105L114.124 15.8621L114.375 15.6542C114.395 15.6381 114.438 15.6011 114.506 15.5431C114.577 15.4851 114.624 15.4464 114.646 15.4271C114.669 15.4077 114.711 15.3739 114.772 15.3255C114.836 15.274 114.883 15.2385 114.912 15.2192C114.944 15.1999 114.989 15.1725 115.047 15.137C115.105 15.0983 115.154 15.0726 115.192 15.0597C115.231 15.0436 115.276 15.0258 115.328 15.0065C115.383 14.9839 115.434 14.9694 115.482 14.963C115.531 14.9565 115.581 14.9533 115.632 14.9533C115.803 14.9533 115.935 14.9598 116.029 14.9727L116.227 16.2005H116.208C115.94 16.0684 115.629 16.0023 115.275 16.0023ZM120.732 19.3764C121.013 19.3764 121.34 19.2314 121.713 18.9414L121.742 18.0809C121.504 17.9488 121.227 17.8827 120.911 17.8827C120.608 17.8827 120.368 17.9488 120.191 18.0809C120.017 18.213 119.93 18.3967 119.93 18.632C119.93 18.8543 120.002 19.0348 120.147 19.1734C120.296 19.3087 120.49 19.3764 120.732 19.3764ZM121.684 20L121.694 19.5359C121.195 19.9098 120.772 20.0967 120.428 20.0967C119.967 20.0967 119.606 19.9646 119.345 19.7003C119.084 19.436 118.953 19.1041 118.953 18.7045C118.953 18.4628 118.998 18.2501 119.089 18.0664C119.179 17.8827 119.296 17.7361 119.442 17.6265C119.587 17.5137 119.761 17.4219 119.964 17.351C120.17 17.2801 120.376 17.2317 120.582 17.206C120.789 17.1802 121.011 17.1673 121.249 17.1673C121.34 17.1673 121.51 17.1737 121.762 17.1866L121.771 16.9304C121.778 16.6984 121.757 16.505 121.709 16.3503C121.664 16.1957 121.591 16.0813 121.491 16.0071C121.391 15.9298 121.285 15.8766 121.172 15.8476C121.063 15.8186 120.929 15.8041 120.771 15.8041C120.333 15.8041 119.806 15.9427 119.19 16.2198H119.171L119.359 15.0597C120.033 14.9888 120.55 14.9533 120.911 14.9533C121.478 14.9533 121.91 15.1145 122.207 15.4367C122.506 15.7558 122.666 16.2005 122.685 16.7709L122.791 20H121.684ZM127.074 19.4248C126.543 19.8727 126.054 20.0967 125.61 20.0967C125.197 20.0967 124.88 19.9355 124.657 19.6133C124.438 19.2878 124.324 18.8463 124.314 18.2888L124.285 16.3455L124.077 15.0693V15.05H125.286L125.223 17.9601C125.213 18.3854 125.286 18.6835 125.44 18.8543C125.598 19.0251 125.83 19.1105 126.137 19.1105C126.507 19.1105 126.889 18.9752 127.282 18.7045L127.186 15.05H128.293L128.177 18.7045L128.355 19.9807V20H127.326L127.306 19.2266L127.074 19.4248ZM92.6322 35.5649C92.4195 35.6938 92.1118 35.8147 91.7089 35.9275C91.3093 36.0403 90.9049 36.0967 90.4956 36.0967C89.951 36.0967 89.445 36.0097 88.9777 35.8356C88.5104 35.6616 88.1028 35.4135 87.7547 35.0912C87.4099 34.7689 87.1376 34.3645 86.9378 33.8779C86.7412 33.3913 86.6429 32.8515 86.6429 32.2585C86.6429 31.0822 86.9942 30.1589 87.6967 29.4886C88.3993 28.8151 89.3516 28.4783 90.5536 28.4783C91.2723 28.4783 91.9877 28.5927 92.6999 28.8215L92.8981 30.2282H92.8788C92.5146 29.9704 92.1359 29.7771 91.7428 29.6481C91.3496 29.5192 90.8839 29.4548 90.3458 29.4548C90.1137 29.4548 89.8801 29.4822 89.6448 29.537C89.4128 29.5917 89.1759 29.6868 88.9342 29.8222C88.6958 29.9543 88.4847 30.1187 88.301 30.3152C88.1205 30.5118 87.9723 30.7664 87.8562 31.079C87.7402 31.3916 87.6822 31.7413 87.6822 32.128C87.6822 33.0787 87.9288 33.8376 88.4218 34.4048C88.9181 34.972 89.6158 35.2556 90.5149 35.2556C91.2626 35.2556 92.028 34.9784 92.8111 34.4241H92.8304L92.6322 35.5649ZM96.2384 31.9395C95.9032 31.9298 95.5294 32.0684 95.1169 32.3552L95.2281 36H94.1308L94.2661 31.8041L94.1308 28.3768H95.2281L95.0976 31.8041V31.8234L95.2958 31.6542C95.56 31.4351 95.8114 31.2627 96.0499 31.137C96.2916 31.0113 96.5316 30.9501 96.7701 30.9533C97.2181 30.9501 97.5613 31.1096 97.7998 31.4319C98.0382 31.7542 98.1671 32.2005 98.1865 32.7709L98.2977 36H97.1955L97.2777 33.0996C97.2906 32.6517 97.2068 32.3455 97.0263 32.1812C96.8458 32.0136 96.5832 31.933 96.2384 31.9395ZM101.884 32.0023C101.71 32.0023 101.522 32.041 101.319 32.1183C101.116 32.1957 100.929 32.2923 100.758 32.4083L100.855 36H99.7479L99.8639 32.3455L99.685 31.0693V31.05H100.715L100.734 31.8621L100.985 31.6542C101.005 31.6381 101.048 31.6011 101.116 31.5431C101.187 31.4851 101.233 31.4464 101.256 31.4271C101.279 31.4077 101.321 31.3739 101.382 31.3255C101.446 31.274 101.493 31.2385 101.522 31.2192C101.554 31.1999 101.599 31.1725 101.657 31.137C101.715 31.0983 101.764 31.0726 101.802 31.0597C101.841 31.0436 101.886 31.0258 101.938 31.0065C101.992 30.9839 102.044 30.9694 102.092 30.963C102.141 30.9565 102.191 30.9533 102.242 30.9533C102.413 30.9533 102.545 30.9598 102.639 30.9727L102.837 32.2005H102.817C102.55 32.0684 102.239 32.0023 101.884 32.0023ZM105.645 30.9533C106.006 30.9533 106.335 31.0194 106.631 31.1515C106.928 31.2836 107.171 31.4641 107.361 31.6929C107.555 31.9185 107.703 32.1828 107.806 32.4857C107.909 32.7854 107.961 33.1061 107.961 33.4477C107.961 33.815 107.909 34.1583 107.806 34.4773C107.703 34.7963 107.556 35.0767 107.366 35.3184C107.176 35.5601 106.933 35.7502 106.636 35.8888C106.34 36.0274 106.009 36.0967 105.645 36.0967C105.162 36.0967 104.741 35.9758 104.384 35.7341C104.029 35.4892 103.763 35.1702 103.586 34.777C103.412 34.3806 103.325 33.9375 103.325 33.4477C103.325 32.9868 103.414 32.5695 103.591 32.1957C103.768 31.8218 104.034 31.5221 104.388 31.2965C104.746 31.0677 105.165 30.9533 105.645 30.9533ZM104.65 34.8253C104.878 35.1734 105.21 35.3474 105.645 35.3474C106.08 35.3474 106.411 35.1734 106.636 34.8253C106.865 34.4773 106.979 34.0245 106.979 33.467C106.979 33.0126 106.86 32.6307 106.622 32.3213C106.387 32.0087 106.061 31.8524 105.645 31.8524C105.226 31.8524 104.898 32.0071 104.659 32.3165C104.424 32.6259 104.306 33.0094 104.306 33.467C104.306 34.0213 104.421 34.4741 104.65 34.8253ZM111.209 31.9491C110.877 31.9491 110.549 32.0748 110.223 32.3262L110.32 36H109.213L109.329 32.3358L109.15 31.0693V31.05H110.18L110.199 31.8041L110.358 31.6639C110.616 31.4416 110.856 31.2675 111.079 31.1418C111.304 31.0162 111.533 30.9533 111.765 30.9533C112.368 30.9533 112.774 31.2691 112.983 31.9008L113.249 31.6639C113.507 31.4416 113.747 31.2675 113.969 31.1418C114.195 31.0162 114.424 30.9533 114.656 30.9533C115.084 30.9533 115.413 31.1145 115.642 31.4367C115.871 31.759 115.995 32.2005 116.014 32.7612L116.121 36H115.014L115.101 33.0899C115.107 32.8611 115.089 32.671 115.047 32.5195C115.006 32.3648 114.936 32.2472 114.84 32.1667C114.746 32.0861 114.641 32.0297 114.525 31.9975C114.409 31.9652 114.268 31.9491 114.1 31.9491C113.765 31.9491 113.425 32.078 113.08 32.3358C113.099 32.4809 113.114 32.6227 113.123 32.7612L113.22 36H112.113L112.21 33.0899C112.216 32.8611 112.199 32.671 112.157 32.5195C112.115 32.3648 112.046 32.2472 111.949 32.1667C111.855 32.0861 111.751 32.0297 111.635 31.9975C111.519 31.9652 111.377 31.9491 111.209 31.9491ZM119.625 30.9533C119.986 30.9533 120.315 31.0194 120.611 31.1515C120.908 31.2836 121.151 31.4641 121.341 31.6929C121.535 31.9185 121.683 32.1828 121.786 32.4857C121.889 32.7854 121.941 33.1061 121.941 33.4477C121.941 33.815 121.889 34.1583 121.786 34.4773C121.683 34.7963 121.536 35.0767 121.346 35.3184C121.156 35.5601 120.913 35.7502 120.616 35.8888C120.32 36.0274 119.989 36.0967 119.625 36.0967C119.142 36.0967 118.721 35.9758 118.364 35.7341C118.009 35.4892 117.743 35.1702 117.566 34.777C117.392 34.3806 117.305 33.9375 117.305 33.4477C117.305 32.9868 117.394 32.5695 117.571 32.1957C117.748 31.8218 118.014 31.5221 118.368 31.2965C118.726 31.0677 119.145 30.9533 119.625 30.9533ZM118.629 34.8253C118.858 35.1734 119.19 35.3474 119.625 35.3474C120.06 35.3474 120.391 35.1734 120.616 34.8253C120.845 34.4773 120.959 34.0245 120.959 33.467C120.959 33.0126 120.84 32.6307 120.602 32.3213C120.366 32.0087 120.041 31.8524 119.625 31.8524C119.206 31.8524 118.878 32.0071 118.639 32.3165C118.404 32.6259 118.286 33.0094 118.286 33.467C118.286 34.0213 118.401 34.4741 118.629 34.8253ZM125.339 35.3474C125.668 35.3474 126.001 35.2314 126.34 34.9994L126.369 32.128C126.072 31.9443 125.732 31.8524 125.349 31.8524C125.11 31.8524 124.897 31.8992 124.711 31.9926C124.524 32.0829 124.374 32.2069 124.261 32.3648C124.148 32.5228 124.063 32.7 124.005 32.8966C123.95 33.0899 123.923 33.2962 123.923 33.5153C123.923 34.1051 124.043 34.5579 124.285 34.8737C124.53 35.1895 124.881 35.3474 125.339 35.3474ZM125.102 38.5717C124.657 38.5717 124.153 38.5104 123.589 38.388L123.289 37.2278H123.328C123.634 37.3664 123.861 37.4663 124.01 37.5275C124.161 37.5888 124.342 37.6484 124.551 37.7064C124.764 37.7644 124.954 37.7934 125.121 37.7934C125.527 37.7934 125.826 37.6629 126.016 37.4019C126.209 37.1408 126.311 36.7332 126.32 36.1789L126.33 35.5553C125.876 35.9162 125.44 36.0967 125.025 36.0967C124.596 36.0967 124.219 35.9758 123.894 35.7341C123.571 35.4924 123.33 35.1782 123.169 34.7915C123.011 34.4048 122.932 33.9762 122.932 33.5057C122.932 33.1093 122.994 32.7483 123.12 32.4229C123.249 32.0941 123.421 31.825 123.637 31.6156C123.857 31.4029 124.11 31.2401 124.396 31.1273C124.683 31.0113 124.988 30.9533 125.31 30.9533C125.703 30.9533 126.056 31.0226 126.369 31.1612L127.321 31.05H127.34L127.229 32.2585L127.302 35.7631C127.305 35.9243 127.302 36.0773 127.292 36.2224C127.285 36.3706 127.264 36.543 127.229 36.7396C127.197 36.9362 127.152 37.115 127.094 37.2762C127.036 37.4373 126.95 37.6 126.837 37.7644C126.725 37.932 126.593 38.0722 126.441 38.185C126.293 38.2978 126.103 38.3896 125.871 38.4605C125.642 38.5346 125.386 38.5717 125.102 38.5717ZM130.975 32.0023C130.801 32.0023 130.613 32.041 130.41 32.1183C130.207 32.1957 130.02 32.2923 129.849 32.4083L129.946 36H128.839L128.955 32.3455L128.776 31.0693V31.05H129.806L129.825 31.8621L130.076 31.6542C130.096 31.6381 130.139 31.6011 130.207 31.5431C130.278 31.4851 130.324 31.4464 130.347 31.4271C130.37 31.4077 130.411 31.3739 130.473 31.3255C130.537 31.274 130.584 31.2385 130.613 31.2192C130.645 31.1999 130.69 31.1725 130.748 31.137C130.806 31.0983 130.855 31.0726 130.893 31.0597C130.932 31.0436 130.977 31.0258 131.029 31.0065C131.083 30.9839 131.135 30.9694 131.183 30.963C131.232 30.9565 131.282 30.9533 131.333 30.9533C131.504 30.9533 131.636 30.9598 131.729 30.9727L131.928 32.2005H131.908C131.641 32.0684 131.33 32.0023 130.975 32.0023ZM134.451 35.3764C134.731 35.3764 135.058 35.2314 135.432 34.9414L135.461 34.0809C135.223 33.9488 134.946 33.8827 134.63 33.8827C134.327 33.8827 134.087 33.9488 133.91 34.0809C133.736 34.213 133.649 34.3967 133.649 34.632C133.649 34.8543 133.721 35.0348 133.866 35.1734C134.014 35.3087 134.209 35.3764 134.451 35.3764ZM135.403 36L135.413 35.5359C134.913 35.9098 134.491 36.0967 134.146 36.0967C133.686 36.0967 133.325 35.9646 133.064 35.7003C132.803 35.436 132.672 35.1041 132.672 34.7045C132.672 34.4628 132.717 34.2501 132.807 34.0664C132.898 33.8827 133.015 33.7361 133.16 33.6265C133.305 33.5137 133.479 33.4219 133.682 33.351C133.889 33.2801 134.095 33.2317 134.301 33.206C134.507 33.1802 134.73 33.1673 134.968 33.1673C135.058 33.1673 135.229 33.1737 135.481 33.1866L135.49 32.9304C135.497 32.6984 135.476 32.505 135.427 32.3503C135.382 32.1957 135.31 32.0813 135.21 32.0071C135.11 31.9298 135.004 31.8766 134.891 31.8476C134.781 31.8186 134.648 31.8041 134.49 31.8041C134.051 31.8041 133.525 31.9427 132.909 32.2198H132.89L133.078 31.0597C133.752 30.9888 134.269 30.9533 134.63 30.9533C135.197 30.9533 135.629 31.1145 135.925 31.4367C136.225 31.7558 136.385 32.2005 136.404 32.7709L136.51 36H135.403ZM139.952 31.9491C139.62 31.9491 139.291 32.0748 138.966 32.3262L139.063 36H137.956L138.072 32.3358L137.893 31.0693V31.05H138.922L138.942 31.8041L139.101 31.6639C139.359 31.4416 139.599 31.2675 139.822 31.1418C140.047 31.0162 140.276 30.9533 140.508 30.9533C141.111 30.9533 141.517 31.2691 141.726 31.9008L141.992 31.6639C142.25 31.4416 142.49 31.2675 142.712 31.1418C142.938 31.0162 143.167 30.9533 143.399 30.9533C143.827 30.9533 144.156 31.1145 144.385 31.4367C144.614 31.759 144.738 32.2005 144.757 32.7612L144.863 36H143.756L143.843 33.0899C143.85 32.8611 143.832 32.671 143.79 32.5195C143.748 32.3648 143.679 32.2472 143.582 32.1667C143.489 32.0861 143.384 32.0297 143.268 31.9975C143.152 31.9652 143.01 31.9491 142.843 31.9491C142.508 31.9491 142.168 32.078 141.823 32.3358C141.842 32.4809 141.857 32.6227 141.866 32.7612L141.963 36H140.856L140.953 33.0899C140.959 32.8611 140.941 32.671 140.9 32.5195C140.858 32.3648 140.788 32.2472 140.692 32.1667C140.598 32.0861 140.494 32.0297 140.377 31.9975C140.261 31.9652 140.12 31.9491 139.952 31.9491Z" fill="black"/>
<path d="M22.0013 7L22.0573 7.00635C22.0704 7.00504 22.0836 7 22.0968 7H37.6088C37.825 7 38 7.17447 38 7.39V38.61C38 38.7135 37.9587 38.8125 37.8853 38.8857C37.8119 38.9588 37.7126 39 37.6088 39H6.39118C6.17503 39 6.00005 38.8255 6 38.61V7.39C6 7.17447 6.17499 7 6.39118 7H22.0013ZM7.3379 38.22H36.6621L29.5279 31.1289C29.5266 31.1277 29.5253 31.1264 29.5241 31.1251L22 23.6466L7.3379 38.22ZM6.78235 37.6687L21.4483 23.0927L13.9165 15.4694L6.78235 8.33386V37.6687ZM30.4097 30.9028L37.2176 37.6687V24.0938L30.4097 30.9028ZM22.5989 23.0546L29.8248 30.2804L37.0558 23.0927L29.8528 15.7997L22.5989 23.0546ZM22.093 22.4461L28.8692 15.585H15.1907L22.093 22.4461ZM30.114 14.9511H30.1535L37.2176 22.0155V7.77999H23.0321L30.114 14.9511ZM14.4058 14.805H28.8628L21.8382 7.77999H7.33917L14.4058 14.805Z" fill="black"/>
</svg>
