<svg width="162" height="43" viewBox="0 0 162 43" fill="none" xmlns="http://www.w3.org/2000/svg">
<rect width="162" height="43" fill="white"/>
<path d="M77.575 22.3182C68.075 29.7146 63.075 28.4288 49.5977 24.8604M49.5977 24.8604L51.5135 29.7145M49.5977 24.8604L54.9943 22.3182" stroke="black" stroke-width="2" stroke-linecap="round"/>
<path d="M87.9916 16.099L88.1366 20H86.9426L87.0876 16.099L86.9426 12.575H88.9391C89.6319 12.575 90.1766 12.7442 90.5729 13.0826C90.9693 13.4209 91.1675 13.8625 91.1675 14.4071C91.1675 14.8937 91.0386 15.3078 90.7808 15.6494C90.5262 15.991 90.1379 16.2327 89.6158 16.3745L91.999 19.9807V20H90.5729L88.8037 16.505V15.9491C89.2323 15.9008 89.5626 15.767 89.7947 15.5479C90.0299 15.3255 90.1476 15.0242 90.1476 14.6439C90.1476 14.3023 90.0251 14.0204 89.7802 13.798C89.5385 13.5756 89.1856 13.4645 88.7215 13.4645H88.0979L87.9916 16.099ZM96.5236 19.5939C96.1691 19.9291 95.6454 20.0967 94.9525 20.0967C94.5755 20.0967 94.2355 20.0242 93.9326 19.8792C93.6329 19.7341 93.3912 19.5392 93.2075 19.2942C93.0238 19.0493 92.8836 18.7754 92.7869 18.4725C92.6902 18.1695 92.6419 17.8505 92.6419 17.5153C92.6419 17.0996 92.6999 16.7274 92.8159 16.3987C92.9352 16.0667 93.0963 15.7977 93.2993 15.5914C93.5023 15.3819 93.7328 15.224 93.9906 15.1177C94.2484 15.0081 94.5223 14.9533 94.8124 14.9533C95.5278 14.9533 96.0627 15.2063 96.4172 15.7123C96.775 16.215 96.9071 16.9175 96.8136 17.8199H93.6329C93.6812 18.3 93.8278 18.6755 94.0728 18.9462C94.3209 19.2137 94.7028 19.3474 95.2184 19.3474C95.6374 19.3474 96.0998 19.1992 96.6058 18.9027H96.6251L96.5236 19.5939ZM93.6329 17.3268L95.9193 17.0319C95.9483 16.6807 95.8678 16.3955 95.6776 16.1763C95.4875 15.954 95.1926 15.8428 94.793 15.8428C94.648 15.8428 94.5094 15.8702 94.3773 15.925C94.2452 15.9797 94.1211 16.0635 94.0051 16.1763C93.8923 16.2859 93.8021 16.4406 93.7344 16.6404C93.6667 16.837 93.6329 17.0658 93.6329 17.3268ZM99.1098 13.8995H99.2403L99.25 15.079L100.734 14.9533V15.8621L99.25 15.7413L99.2596 18.1873C99.2596 18.603 99.3418 18.9011 99.5062 19.0815C99.6737 19.2588 99.8816 19.3474 100.13 19.3474C100.339 19.3474 100.541 19.3007 100.734 19.2072H100.753L100.657 19.7535C100.57 19.8501 100.439 19.9323 100.265 20C100.091 20.0645 99.9106 20.0967 99.7237 20.0967C99.2918 20.0967 98.9438 19.9581 98.6795 19.681C98.4153 19.4006 98.288 19.0058 98.2977 18.4966L98.3508 15.6639L97.5871 15.6059V15.4851L99.1098 13.8995ZM104.011 14.9533C104.372 14.9533 104.701 15.0194 104.998 15.1515C105.294 15.2836 105.537 15.4641 105.727 15.6929C105.921 15.9185 106.069 16.1828 106.172 16.4857C106.275 16.7854 106.327 17.1061 106.327 17.4477C106.327 17.815 106.275 18.1583 106.172 18.4773C106.069 18.7963 105.922 19.0767 105.732 19.3184C105.542 19.5601 105.299 19.7502 105.002 19.8888C104.706 20.0274 104.376 20.0967 104.011 20.0967C103.528 20.0967 103.107 19.9758 102.75 19.7341C102.395 19.4892 102.129 19.1702 101.952 18.777C101.778 18.3806 101.691 17.9375 101.691 17.4477C101.691 16.9868 101.78 16.5695 101.957 16.1957C102.134 15.8218 102.4 15.5221 102.755 15.2965C103.112 15.0677 103.531 14.9533 104.011 14.9533ZM103.016 18.8253C103.244 19.1734 103.576 19.3474 104.011 19.3474C104.446 19.3474 104.777 19.1734 105.002 18.8253C105.231 18.4773 105.346 18.0245 105.346 17.467C105.346 17.0126 105.226 16.6307 104.988 16.3213C104.753 16.0087 104.427 15.8524 104.011 15.8524C103.592 15.8524 103.264 16.0071 103.025 16.3165C102.79 16.6259 102.672 17.0094 102.672 17.467C102.672 18.0213 102.787 18.4741 103.016 18.8253ZM110.416 19.4248C109.885 19.8727 109.396 20.0967 108.952 20.0967C108.539 20.0967 108.222 19.9355 107.999 19.6133C107.78 19.2878 107.666 18.8463 107.656 18.2888L107.627 16.3455L107.419 15.0693V15.05H108.628L108.565 17.9601C108.555 18.3854 108.628 18.6835 108.783 18.8543C108.94 19.0251 109.173 19.1105 109.479 19.1105C109.849 19.1105 110.231 18.9752 110.624 18.7045L110.528 15.05H111.635L111.519 18.7045L111.697 19.9807V20H110.668L110.648 19.2266L110.416 19.4248ZM115.275 16.0023C115.101 16.0023 114.912 16.041 114.709 16.1183C114.506 16.1957 114.319 16.2923 114.148 16.4083L114.245 20H113.138L113.254 16.3455L113.075 15.0693V15.05H114.105L114.124 15.8621L114.375 15.6542C114.395 15.6381 114.438 15.6011 114.506 15.5431C114.577 15.4851 114.624 15.4464 114.646 15.4271C114.669 15.4077 114.711 15.3739 114.772 15.3255C114.836 15.274 114.883 15.2385 114.912 15.2192C114.944 15.1999 114.989 15.1725 115.047 15.137C115.105 15.0983 115.154 15.0726 115.192 15.0597C115.231 15.0436 115.276 15.0258 115.328 15.0065C115.383 14.9839 115.434 14.9694 115.482 14.963C115.531 14.9565 115.581 14.9533 115.632 14.9533C115.803 14.9533 115.935 14.9598 116.029 14.9727L116.227 16.2005H116.208C115.94 16.0684 115.629 16.0023 115.275 16.0023ZM120.732 19.3764C121.013 19.3764 121.34 19.2314 121.713 18.9414L121.742 18.0809C121.504 17.9488 121.227 17.8827 120.911 17.8827C120.608 17.8827 120.368 17.9488 120.191 18.0809C120.017 18.213 119.93 18.3967 119.93 18.632C119.93 18.8543 120.002 19.0348 120.147 19.1734C120.296 19.3087 120.49 19.3764 120.732 19.3764ZM121.684 20L121.694 19.5359C121.195 19.9098 120.772 20.0967 120.428 20.0967C119.967 20.0967 119.606 19.9646 119.345 19.7003C119.084 19.436 118.953 19.1041 118.953 18.7045C118.953 18.4628 118.998 18.2501 119.089 18.0664C119.179 17.8827 119.296 17.7361 119.442 17.6265C119.587 17.5137 119.761 17.4219 119.964 17.351C120.17 17.2801 120.376 17.2317 120.582 17.206C120.789 17.1802 121.011 17.1673 121.249 17.1673C121.34 17.1673 121.51 17.1737 121.762 17.1866L121.771 16.9304C121.778 16.6984 121.757 16.505 121.709 16.3503C121.664 16.1957 121.591 16.0813 121.491 16.0071C121.391 15.9298 121.285 15.8766 121.172 15.8476C121.063 15.8186 120.929 15.8041 120.771 15.8041C120.333 15.8041 119.806 15.9427 119.19 16.2198H119.171L119.359 15.0597C120.033 14.9888 120.55 14.9533 120.911 14.9533C121.478 14.9533 121.91 15.1145 122.207 15.4367C122.506 15.7558 122.666 16.2005 122.685 16.7709L122.791 20H121.684ZM127.074 19.4248C126.543 19.8727 126.054 20.0967 125.61 20.0967C125.197 20.0967 124.88 19.9355 124.657 19.6133C124.438 19.2878 124.324 18.8463 124.314 18.2888L124.285 16.3455L124.077 15.0693V15.05H125.286L125.223 17.9601C125.213 18.3854 125.286 18.6835 125.44 18.8543C125.598 19.0251 125.83 19.1105 126.137 19.1105C126.507 19.1105 126.889 18.9752 127.282 18.7045L127.186 15.05H128.293L128.177 18.7045L128.355 19.9807V20H127.326L127.306 19.2266L127.074 19.4248ZM133.924 14.9533C134.424 14.9533 134.823 15.0323 135.123 15.1902L135.321 16.3455H135.302C134.86 16.0168 134.391 15.8524 133.895 15.8524C133.489 15.8524 133.154 15.9894 132.89 16.2633C132.629 16.5373 132.498 16.9449 132.498 17.4863C132.498 18.0954 132.632 18.5579 132.899 18.8737C133.17 19.1895 133.534 19.3474 133.992 19.3474C134.23 19.3474 134.453 19.3071 134.659 19.2266C134.865 19.146 135.083 19.0348 135.311 18.893H135.331L135.229 19.5843C135.097 19.7164 134.905 19.8356 134.654 19.942C134.406 20.0451 134.146 20.0967 133.876 20.0967C133.18 20.0967 132.612 19.8501 132.174 19.3571C131.736 18.8608 131.517 18.2308 131.517 17.467C131.517 17.0609 131.581 16.6952 131.71 16.3697C131.842 16.0442 132.021 15.7799 132.247 15.5769C132.472 15.3739 132.727 15.2192 133.01 15.1128C133.297 15.0065 133.602 14.9533 133.924 14.9533ZM138.565 15.9395C138.23 15.9298 137.856 16.0684 137.443 16.3552L137.554 20H136.457L136.592 15.8041L136.457 12.3768H137.554L137.424 15.8041V15.8234L137.622 15.6542C137.886 15.4351 138.138 15.2627 138.376 15.137C138.618 15.0113 138.858 14.9501 139.096 14.9533C139.544 14.9501 139.888 15.1096 140.126 15.4319C140.365 15.7542 140.494 16.2005 140.513 16.7709L140.624 20H139.522L139.604 17.0996C139.617 16.6517 139.533 16.3455 139.353 16.1812C139.172 16.0136 138.91 15.933 138.565 15.9395ZM144.133 14.9533C144.494 14.9533 144.823 15.0194 145.12 15.1515C145.416 15.2836 145.659 15.4641 145.85 15.6929C146.043 15.9185 146.191 16.1828 146.294 16.4857C146.397 16.7854 146.449 17.1061 146.449 17.4477C146.449 17.815 146.397 18.1583 146.294 18.4773C146.191 18.7963 146.045 19.0767 145.854 19.3184C145.664 19.5601 145.421 19.7502 145.124 19.8888C144.828 20.0274 144.498 20.0967 144.133 20.0967C143.65 20.0967 143.23 19.9758 142.872 19.7341C142.517 19.4892 142.251 19.1702 142.074 18.777C141.9 18.3806 141.813 17.9375 141.813 17.4477C141.813 16.9868 141.902 16.5695 142.079 16.1957C142.256 15.8218 142.522 15.5221 142.877 15.2965C143.234 15.0677 143.653 14.9533 144.133 14.9533ZM143.138 18.8253C143.367 19.1734 143.698 19.3474 144.133 19.3474C144.569 19.3474 144.899 19.1734 145.124 18.8253C145.353 18.4773 145.468 18.0245 145.468 17.467C145.468 17.0126 145.348 16.6307 145.11 16.3213C144.875 16.0087 144.549 15.8524 144.133 15.8524C143.715 15.8524 143.386 16.0071 143.147 16.3165C142.912 16.6259 142.794 17.0094 142.794 17.467C142.794 18.0213 142.909 18.4741 143.138 18.8253ZM148.233 12.9811C148.413 12.9811 148.561 13.0326 148.677 13.1357C148.797 13.2356 148.856 13.3726 148.856 13.5466C148.856 13.7303 148.797 13.877 148.677 13.9865C148.561 14.0961 148.413 14.1509 148.233 14.1509C148.062 14.1509 147.917 14.0961 147.798 13.9865C147.678 13.877 147.619 13.7303 147.619 13.5466C147.619 13.3726 147.678 13.2356 147.798 13.1357C147.917 13.0326 148.062 12.9811 148.233 12.9811ZM147.638 15.05H148.668V15.0693L148.808 20H147.701L147.817 16.3455L147.638 15.0693V15.05ZM150.891 20H149.606V19.9807L151.549 17.496L149.794 15.0693V15.05H151.061L152.042 16.8434L152.975 15.05H154.212V15.0693L152.351 17.3268L154.251 19.9807V20H153.004L151.863 18.0181L150.891 20ZM88.9004 35.3474C89.2033 35.3474 89.5062 35.2475 89.8092 35.0477L89.9107 32.1086C89.6045 31.9378 89.271 31.8524 88.9101 31.8524C88.6716 31.8524 88.4589 31.8992 88.272 31.9926C88.0851 32.0829 87.9352 32.2069 87.8224 32.3648C87.7096 32.5228 87.6242 32.7 87.5662 32.8966C87.5114 33.0899 87.484 33.2962 87.484 33.5153C87.484 34.1051 87.6049 34.5579 87.8466 34.8737C88.0915 35.1895 88.4428 35.3474 88.9004 35.3474ZM89.8092 36L89.7995 35.6229C89.3645 35.9388 88.96 36.0967 88.5862 36.0967C88.1576 36.0967 87.7805 35.9758 87.455 35.7341C87.1328 35.4924 86.8911 35.1782 86.7299 34.7915C86.572 34.4048 86.4931 33.9762 86.4931 33.5057C86.4931 33.1093 86.5559 32.7483 86.6816 32.4229C86.8105 32.0941 86.9829 31.825 87.1988 31.6156C87.418 31.4029 87.6709 31.2401 87.9578 31.1273C88.2446 31.0113 88.5491 30.9533 88.8714 30.9533C89.2484 30.9533 89.5884 31.0178 89.8914 31.1467L89.7802 28.3768H90.8823L90.7518 31.8041L90.8823 36H89.8092ZM96.0015 35.5939C95.647 35.9291 95.1233 36.0967 94.4305 36.0967C94.0534 36.0967 93.7134 36.0242 93.4105 35.8792C93.1108 35.7341 92.8691 35.5392 92.6854 35.2942C92.5017 35.0493 92.3615 34.7754 92.2648 34.4725C92.1682 34.1695 92.1198 33.8505 92.1198 33.5153C92.1198 33.0996 92.1778 32.7274 92.2938 32.3987C92.4131 32.0667 92.5742 31.7977 92.7772 31.5914C92.9803 31.3819 93.2107 31.224 93.4685 31.1177C93.7263 31.0081 94.0002 30.9533 94.2903 30.9533C95.0057 30.9533 95.5407 31.2063 95.8952 31.7123C96.2529 32.215 96.385 32.9175 96.2916 33.8199H93.1108C93.1591 34.3 93.3058 34.6755 93.5507 34.9462C93.7988 35.2137 94.1807 35.3474 94.6963 35.3474C95.1153 35.3474 95.5777 35.1992 96.0837 34.9027H96.103L96.0015 35.5939ZM93.1108 33.3268L95.3973 33.0319C95.4263 32.6807 95.3457 32.3955 95.1556 32.1763C94.9654 31.954 94.6706 31.8428 94.2709 31.8428C94.1259 31.8428 93.9874 31.8702 93.8552 31.925C93.7231 31.9797 93.599 32.0635 93.483 32.1763C93.3702 32.2859 93.28 32.4406 93.2123 32.6404C93.1446 32.837 93.1108 33.0658 93.1108 33.3268ZM99.1629 31.8234C98.9309 31.8234 98.7488 31.8686 98.6167 31.9588C98.4878 32.0458 98.4233 32.1618 98.4233 32.3068C98.4233 32.4551 98.4781 32.5888 98.5877 32.7081C98.6973 32.8241 98.8858 32.9417 99.1533 33.0609L99.6608 33.2881C100.067 33.475 100.359 33.6716 100.536 33.8779C100.716 34.0841 100.806 34.3387 100.806 34.6417C100.806 35.0606 100.66 35.4086 100.367 35.6858C100.077 35.9597 99.656 36.0967 99.1049 36.0967C98.5571 36.0967 98.0882 35.9823 97.6982 35.7535L97.5097 34.6755H97.5291C97.832 34.9011 98.1124 35.0735 98.3702 35.1927C98.6312 35.3087 98.9019 35.3667 99.1823 35.3667C99.395 35.3667 99.5593 35.3136 99.6753 35.2072C99.7946 35.1009 99.8542 34.9559 99.8542 34.7722C99.8542 34.6046 99.7978 34.4628 99.685 34.3468C99.5722 34.2275 99.4046 34.1212 99.1823 34.0277L98.5297 33.7522C97.8175 33.4493 97.4614 32.9804 97.4614 32.3455C97.4614 31.9233 97.6193 31.5866 97.9351 31.3352C98.2541 31.0806 98.6731 30.9533 99.1919 30.9533C99.6721 30.9533 100.125 31.0419 100.55 31.2192L100.729 32.3455H100.71C100.481 32.1747 100.23 32.0458 99.9557 31.9588C99.6818 31.8686 99.4175 31.8234 99.1629 31.8234ZM105.104 29.8995H105.234L105.244 31.079L106.728 30.9533V31.8621L105.244 31.7413L105.254 34.1873C105.254 34.603 105.336 34.9011 105.5 35.0815C105.668 35.2588 105.876 35.3474 106.124 35.3474C106.333 35.3474 106.535 35.3007 106.728 35.2072H106.747L106.651 35.7535C106.564 35.8501 106.433 35.9323 106.259 36C106.085 36.0645 105.905 36.0967 105.718 36.0967C105.286 36.0967 104.938 35.9581 104.674 35.681C104.409 35.4006 104.282 35.0058 104.292 34.4966L104.345 31.6639L103.581 31.6059V31.4851L105.104 29.8995ZM109.517 35.3764C109.798 35.3764 110.125 35.2314 110.499 34.9414L110.528 34.0809C110.289 33.9488 110.012 33.8827 109.696 33.8827C109.393 33.8827 109.153 33.9488 108.976 34.0809C108.802 34.213 108.715 34.3967 108.715 34.632C108.715 34.8543 108.787 35.0348 108.932 35.1734C109.081 35.3087 109.276 35.3764 109.517 35.3764ZM110.47 36L110.479 35.5359C109.98 35.9098 109.558 36.0967 109.213 36.0967C108.752 36.0967 108.391 35.9646 108.13 35.7003C107.869 35.436 107.738 35.1041 107.738 34.7045C107.738 34.4628 107.784 34.2501 107.874 34.0664C107.964 33.8827 108.082 33.7361 108.227 33.6265C108.372 33.5137 108.546 33.4219 108.749 33.351C108.955 33.2801 109.161 33.2317 109.367 33.206C109.574 33.1802 109.796 33.1673 110.035 33.1673C110.125 33.1673 110.296 33.1737 110.547 33.1866L110.557 32.9304C110.563 32.6984 110.542 32.505 110.494 32.3503C110.449 32.1957 110.376 32.0813 110.276 32.0071C110.176 31.9298 110.07 31.8766 109.957 31.8476C109.848 31.8186 109.714 31.8041 109.556 31.8041C109.118 31.8041 108.591 31.9427 107.975 32.2198H107.956L108.144 31.0597C108.818 30.9888 109.335 30.9533 109.696 30.9533C110.263 30.9533 110.695 31.1145 110.992 31.4367C111.291 31.7558 111.451 32.2005 111.47 32.7709L111.577 36H110.47ZM115.13 31.9395C114.801 31.9298 114.435 32.0651 114.032 32.3455L114.129 36H113.022L113.138 32.3455L112.959 31.0693V31.05H113.989L114.008 31.8138L114.197 31.6542C114.751 31.187 115.244 30.9533 115.676 30.9533C116.124 30.9533 116.465 31.1145 116.701 31.4367C116.939 31.7558 117.068 32.2005 117.087 32.7709L117.199 36H116.092L116.179 33.0996C116.191 32.6517 116.106 32.3455 115.922 32.1812C115.739 32.0136 115.474 31.933 115.13 31.9395ZM120.843 35.3474C121.172 35.3474 121.506 35.2314 121.844 34.9994L121.873 32.128C121.577 31.9443 121.237 31.8524 120.853 31.8524C120.615 31.8524 120.402 31.8992 120.215 31.9926C120.028 32.0829 119.878 32.2069 119.765 32.3648C119.653 32.5228 119.567 32.7 119.509 32.8966C119.454 33.0899 119.427 33.2962 119.427 33.5153C119.427 34.1051 119.548 34.5579 119.79 34.8737C120.034 35.1895 120.386 35.3474 120.843 35.3474ZM120.606 38.5717C120.162 38.5717 119.657 38.5104 119.093 38.388L118.794 37.2278H118.832C119.139 37.3664 119.366 37.4663 119.514 37.5275C119.665 37.5888 119.846 37.6484 120.055 37.7064C120.268 37.7644 120.458 37.7934 120.626 37.7934C121.032 37.7934 121.33 37.6629 121.52 37.4019C121.713 37.1408 121.815 36.7332 121.825 36.1789L121.834 35.5553C121.38 35.9162 120.945 36.0967 120.529 36.0967C120.101 36.0967 119.723 35.9758 119.398 35.7341C119.076 35.4924 118.834 35.1782 118.673 34.7915C118.515 34.4048 118.436 33.9762 118.436 33.5057C118.436 33.1093 118.499 32.7483 118.625 32.4229C118.753 32.0941 118.926 31.825 119.142 31.6156C119.361 31.4029 119.614 31.2401 119.901 31.1273C120.188 31.0113 120.492 30.9533 120.814 30.9533C121.208 30.9533 121.56 31.0226 121.873 31.1612L122.825 31.05H122.845L122.733 32.2585L122.806 35.7631C122.809 35.9243 122.806 36.0773 122.796 36.2224C122.79 36.3706 122.769 36.543 122.733 36.7396C122.701 36.9362 122.656 37.115 122.598 37.2762C122.54 37.4373 122.455 37.6 122.342 37.7644C122.229 37.932 122.097 38.0722 121.946 38.185C121.797 38.2978 121.607 38.3896 121.375 38.4605C121.146 38.5346 120.89 38.5717 120.606 38.5717ZM126.48 32.0023C126.306 32.0023 126.117 32.041 125.914 32.1183C125.711 32.1957 125.524 32.2923 125.353 32.4083L125.45 36H124.343L124.459 32.3455L124.28 31.0693V31.05H125.31L125.329 31.8621L125.581 31.6542C125.6 31.6381 125.644 31.6011 125.711 31.5431C125.782 31.4851 125.829 31.4464 125.851 31.4271C125.874 31.4077 125.916 31.3739 125.977 31.3255C126.042 31.274 126.088 31.2385 126.117 31.2192C126.149 31.1999 126.195 31.1725 126.253 31.137C126.311 31.0983 126.359 31.0726 126.398 31.0597C126.436 31.0436 126.481 31.0258 126.533 31.0065C126.588 30.9839 126.639 30.9694 126.688 30.963C126.736 30.9565 126.786 30.9533 126.837 30.9533C127.008 30.9533 127.14 30.9598 127.234 30.9727L127.432 32.2005H127.413C127.145 32.0684 126.834 32.0023 126.48 32.0023ZM129.955 35.3764C130.236 35.3764 130.563 35.2314 130.937 34.9414L130.966 34.0809C130.727 33.9488 130.45 33.8827 130.134 33.8827C129.831 33.8827 129.591 33.9488 129.414 34.0809C129.24 34.213 129.153 34.3967 129.153 34.632C129.153 34.8543 129.225 35.0348 129.371 35.1734C129.519 35.3087 129.714 35.3764 129.955 35.3764ZM130.908 36L130.917 35.5359C130.418 35.9098 129.996 36.0967 129.651 36.0967C129.19 36.0967 128.829 35.9646 128.568 35.7003C128.307 35.436 128.177 35.1041 128.177 34.7045C128.177 34.4628 128.222 34.2501 128.312 34.0664C128.402 33.8827 128.52 33.7361 128.665 33.6265C128.81 33.5137 128.984 33.4219 129.187 33.351C129.393 33.2801 129.599 33.2317 129.806 33.206C130.012 33.1802 130.234 33.1673 130.473 33.1673C130.563 33.1673 130.734 33.1737 130.985 33.1866L130.995 32.9304C131.001 32.6984 130.98 32.505 130.932 32.3503C130.887 32.1957 130.814 32.0813 130.714 32.0071C130.614 31.9298 130.508 31.8766 130.395 31.8476C130.286 31.8186 130.152 31.8041 129.994 31.8041C129.556 31.8041 129.029 31.9427 128.413 32.2198H128.394L128.583 31.0597C129.256 30.9888 129.773 30.9533 130.134 30.9533C130.701 30.9533 131.133 31.1145 131.43 31.4367C131.729 31.7558 131.889 32.2005 131.908 32.7709L132.015 36H130.908ZM135.456 31.9491C135.125 31.9491 134.796 32.0748 134.47 32.3262L134.567 36H133.46L133.576 32.3358L133.397 31.0693V31.05H134.427L134.446 31.8041L134.606 31.6639C134.864 31.4416 135.104 31.2675 135.326 31.1418C135.552 31.0162 135.78 30.9533 136.012 30.9533C136.615 30.9533 137.021 31.2691 137.231 31.9008L137.496 31.6639C137.754 31.4416 137.994 31.2675 138.217 31.1418C138.442 31.0162 138.671 30.9533 138.903 30.9533C139.332 30.9533 139.66 31.1145 139.889 31.4367C140.118 31.759 140.242 32.2005 140.261 32.7612L140.368 36H139.261L139.348 33.0899C139.354 32.8611 139.337 32.671 139.295 32.5195C139.253 32.3648 139.183 32.2472 139.087 32.1667C138.993 32.0861 138.889 32.0297 138.773 31.9975C138.657 31.9652 138.515 31.9491 138.347 31.9491C138.012 31.9491 137.672 32.078 137.327 32.3358C137.347 32.4809 137.361 32.6227 137.371 32.7612L137.467 36H136.36L136.457 33.0899C136.464 32.8611 136.446 32.671 136.404 32.5195C136.362 32.3648 136.293 32.2472 136.196 32.1667C136.103 32.0861 135.998 32.0297 135.882 31.9975C135.766 31.9652 135.624 31.9491 135.456 31.9491ZM143.355 31.8234C143.123 31.8234 142.941 31.8686 142.809 31.9588C142.68 32.0458 142.616 32.1618 142.616 32.3068C142.616 32.4551 142.67 32.5888 142.78 32.7081C142.89 32.8241 143.078 32.9417 143.346 33.0609L143.853 33.2881C144.259 33.475 144.551 33.6716 144.728 33.8779C144.909 34.0841 144.999 34.3387 144.999 34.6417C144.999 35.0606 144.852 35.4086 144.559 35.6858C144.269 35.9597 143.848 36.0967 143.297 36.0967C142.749 36.0967 142.28 35.9823 141.891 35.7535L141.702 34.6755H141.721C142.024 34.9011 142.305 35.0735 142.562 35.1927C142.823 35.3087 143.094 35.3667 143.375 35.3667C143.587 35.3667 143.752 35.3136 143.868 35.2072C143.987 35.1009 144.046 34.9559 144.046 34.7722C144.046 34.6046 143.99 34.4628 143.877 34.3468C143.764 34.2275 143.597 34.1212 143.375 34.0277L142.722 33.7522C142.01 33.4493 141.654 32.9804 141.654 32.3455C141.654 31.9233 141.812 31.5866 142.127 31.3352C142.446 31.0806 142.865 30.9533 143.384 30.9533C143.864 30.9533 144.317 31.0419 144.743 31.2192L144.921 32.3455H144.902C144.673 32.1747 144.422 32.0458 144.148 31.9588C143.874 31.8686 143.61 31.8234 143.355 31.8234Z" fill="black"/>
<path d="M35.1332 24.6978L20.4202 24.6747L35.1559 39.4104L35.1332 24.6978Z" fill="#EBEBEB" stroke="#C2C2C2" stroke-width="0.6"/>
<path d="M5.61304 28.1302L5.61304 38.4856L16.1294 28.1302L5.61304 28.1302Z" fill="#EBEBEB" stroke="#C2C2C2" stroke-width="0.6"/>
<path d="M13.4524 7.19337L18.6623 12.3874V2L13.4524 7.19337Z" fill="#EBEBEB" stroke="#C2C2C2" stroke-width="0.6"/>
<path d="M13.5165 7.20993L8.22607 2.00006L8.22607 12.4198L13.5165 7.20993Z" fill="#EBEBEB" stroke="#C2C2C2" stroke-width="0.6" stroke-linejoin="bevel"/>
<path d="M13.4522 17.6782L3 28.1622L23.9037 28.1622L13.4522 17.6782Z" fill="#EBEBEB" stroke="#C2C2C2" stroke-width="0.6"/>
<path d="M18.6782 12.4684L13.4521 7.2262L8.22611 12.4684L13.4521 17.7105L18.6782 12.4684Z" fill="#EBEBEB" stroke="#C2C2C2" stroke-width="0.6"/>
<path d="M45.0001 11.4439L41.8004 21.36L35.2271 24.7135L38.4269 14.7968L45.0001 11.4439Z" fill="#EBEBEB" stroke="#C2C2C2" stroke-width="0.6"/>
</svg>
