<svg width="97" height="31" viewBox="0 0 97 31" fill="none" xmlns="http://www.w3.org/2000/svg">
<path d="M29.5 14.3182C20 21.7146 15 20.4288 1.52276 16.8604M1.52276 16.8604L3.43853 21.7145M1.52276 16.8604L6.91932 14.3182" stroke="black" stroke-width="2" stroke-linecap="round"/>
<path d="M36.2673 6.45361L36.3992 10H35.3137L35.4456 6.45361L35.3137 3.25H37.1287C37.7585 3.25 38.2537 3.40381 38.614 3.71143C38.9744 4.01904 39.1545 4.42041 39.1545 4.91553C39.1545 5.35791 39.0374 5.73438 38.803 6.04492C38.5715 6.35547 38.2185 6.5752 37.7439 6.7041L39.9104 9.98242V10H38.614L37.0056 6.82275V6.31738C37.3953 6.27344 37.6956 6.15186 37.9065 5.95264C38.1204 5.75049 38.2273 5.47656 38.2273 5.13086C38.2273 4.82031 38.116 4.56396 37.8933 4.36182C37.6736 4.15967 37.3528 4.05859 36.9309 4.05859H36.364L36.2673 6.45361ZM44.0237 9.63086C43.7014 9.93555 43.2253 10.0879 42.5955 10.0879C42.2527 10.0879 41.9436 10.022 41.6682 9.89014C41.3958 9.7583 41.176 9.58105 41.009 9.3584C40.842 9.13574 40.7146 8.88672 40.6267 8.61133C40.5388 8.33594 40.4949 8.0459 40.4949 7.74121C40.4949 7.36328 40.5476 7.0249 40.6531 6.72607C40.7615 6.42432 40.908 6.17969 41.0925 5.99219C41.2771 5.80176 41.4866 5.6582 41.7209 5.56152C41.9553 5.46191 42.2043 5.41211 42.468 5.41211C43.1184 5.41211 43.6047 5.64209 43.927 6.10205C44.2522 6.55908 44.3723 7.19775 44.2874 8.01807H41.3958C41.4397 8.45459 41.573 8.7959 41.7957 9.04199C42.0212 9.28516 42.3684 9.40674 42.8372 9.40674C43.218 9.40674 43.6384 9.27197 44.0984 9.00244H44.116L44.0237 9.63086ZM41.3958 7.56982L43.4744 7.30176C43.5007 6.98242 43.4275 6.72314 43.2546 6.52393C43.0818 6.32178 42.8137 6.2207 42.4504 6.2207C42.3186 6.2207 42.1926 6.24561 42.0725 6.29541C41.9524 6.34521 41.8396 6.42139 41.7341 6.52393C41.6316 6.62354 41.5496 6.76416 41.488 6.9458C41.4265 7.12451 41.3958 7.33252 41.3958 7.56982ZM46.3748 4.4541H46.4934L46.5022 5.52637L47.8513 5.41211V6.23828L46.5022 6.12842L46.511 8.35205C46.511 8.72998 46.5857 9.00098 46.7351 9.16504C46.8875 9.32617 47.0764 9.40674 47.302 9.40674C47.4924 9.40674 47.6755 9.36426 47.8513 9.2793H47.8689L47.781 9.77588C47.7019 9.86377 47.5833 9.93848 47.425 10C47.2668 10.0586 47.1028 10.0879 46.9329 10.0879C46.5403 10.0879 46.2239 9.96191 45.9836 9.70996C45.7434 9.45508 45.6277 9.09619 45.6365 8.6333L45.6848 6.05811L44.9905 6.00537V5.89551L46.3748 4.4541ZM50.8308 5.41211C51.1589 5.41211 51.4578 5.47217 51.7273 5.59229C51.9968 5.7124 52.218 5.87646 52.3909 6.08447C52.5667 6.28955 52.7014 6.52979 52.7952 6.80518C52.8889 7.07764 52.9358 7.36914 52.9358 7.67969C52.9358 8.01367 52.8889 8.32568 52.7952 8.61572C52.7014 8.90576 52.5681 9.16064 52.3953 9.38037C52.2224 9.6001 52.0012 9.77295 51.7317 9.89893C51.4622 10.0249 51.1619 10.0879 50.8308 10.0879C50.3914 10.0879 50.009 9.97803 49.6838 9.7583C49.3616 9.53564 49.1199 9.24561 48.9587 8.88818C48.8005 8.52783 48.7214 8.125 48.7214 7.67969C48.7214 7.26074 48.802 6.88135 48.9631 6.5415C49.1243 6.20166 49.366 5.9292 49.6882 5.72412C50.0134 5.51611 50.3943 5.41211 50.8308 5.41211ZM49.9255 8.93213C50.1335 9.24854 50.4353 9.40674 50.8308 9.40674C51.2263 9.40674 51.5266 9.24854 51.7317 8.93213C51.9397 8.61572 52.0437 8.2041 52.0437 7.69727C52.0437 7.28418 51.9353 6.93701 51.7185 6.65576C51.5046 6.37158 51.2087 6.22949 50.8308 6.22949C50.45 6.22949 50.1511 6.37012 49.9343 6.65137C49.7205 6.93262 49.6135 7.28125 49.6135 7.69727C49.6135 8.20117 49.7175 8.61279 49.9255 8.93213ZM56.6536 9.47705C56.1702 9.88428 55.7263 10.0879 55.322 10.0879C54.947 10.0879 54.6584 9.94141 54.4563 9.64844C54.2571 9.35254 54.1531 8.95117 54.1443 8.44434L54.1179 6.67773L53.929 5.51758V5.5H55.0276L54.9705 8.14551C54.9617 8.53223 55.0276 8.80322 55.1682 8.9585C55.3118 9.11377 55.5227 9.19141 55.801 9.19141C56.1379 9.19141 56.4851 9.06836 56.8425 8.82227L56.7546 5.5H57.761L57.6555 8.82227L57.8181 9.98242V10H56.8821L56.8645 9.29688L56.6536 9.47705ZM61.0701 6.36572C60.9119 6.36572 60.7405 6.40088 60.5559 6.47119C60.3713 6.5415 60.2014 6.62939 60.0461 6.73486L60.134 10H59.1277L59.2332 6.67773L59.0706 5.51758V5.5H60.0066L60.0242 6.23828L60.2527 6.04932C60.2703 6.03467 60.3098 6.00098 60.3713 5.94824C60.4358 5.89551 60.4783 5.86035 60.4988 5.84277C60.5193 5.8252 60.5574 5.79443 60.613 5.75049C60.6716 5.70361 60.7141 5.67139 60.7405 5.65381C60.7698 5.63623 60.8108 5.61133 60.8635 5.5791C60.9163 5.54395 60.9602 5.52051 60.9954 5.50879C61.0305 5.49414 61.0715 5.47803 61.1184 5.46045C61.1682 5.43994 61.2151 5.42676 61.259 5.4209C61.303 5.41504 61.3484 5.41211 61.3953 5.41211C61.5505 5.41211 61.6707 5.41797 61.7556 5.42969L61.9358 6.5459H61.9182C61.675 6.42578 61.3923 6.36572 61.0701 6.36572ZM66.0315 9.43311C66.2864 9.43311 66.5837 9.30127 66.9236 9.0376L66.95 8.25537C66.7332 8.13525 66.4812 8.0752 66.1941 8.0752C65.9187 8.0752 65.7004 8.13525 65.5393 8.25537C65.3811 8.37549 65.302 8.54248 65.302 8.75635C65.302 8.9585 65.3679 9.12256 65.4998 9.24854C65.6345 9.37158 65.8118 9.43311 66.0315 9.43311ZM66.8972 10L66.906 9.57812C66.4519 9.91797 66.0681 10.0879 65.7546 10.0879C65.3357 10.0879 65.0076 9.96777 64.7703 9.72754C64.533 9.4873 64.4143 9.18555 64.4143 8.82227C64.4143 8.60254 64.4553 8.40918 64.5374 8.24219C64.6194 8.0752 64.7263 7.94189 64.8582 7.84229C64.99 7.73975 65.1482 7.65625 65.3328 7.5918C65.5203 7.52734 65.7078 7.4834 65.8953 7.45996C66.0828 7.43652 66.2849 7.4248 66.5017 7.4248C66.5837 7.4248 66.739 7.43066 66.9675 7.44238L66.9763 7.20947C66.9822 6.99854 66.9631 6.82275 66.9192 6.68213C66.8782 6.5415 66.8123 6.4375 66.7214 6.37012C66.6306 6.2998 66.5339 6.25146 66.4314 6.2251C66.3318 6.19873 66.2102 6.18555 66.0667 6.18555C65.6682 6.18555 65.1892 6.31152 64.6296 6.56348H64.6121L64.7834 5.50879C65.3958 5.44434 65.866 5.41211 66.1941 5.41211C66.7097 5.41211 67.1023 5.55859 67.3718 5.85156C67.6443 6.1416 67.7893 6.5459 67.8069 7.06445L67.9036 10H66.8972ZM71.7971 9.47705C71.3137 9.88428 70.8699 10.0879 70.4656 10.0879C70.0906 10.0879 69.802 9.94141 69.5999 9.64844C69.4006 9.35254 69.2966 8.95117 69.2878 8.44434L69.2615 6.67773L69.0725 5.51758V5.5H70.1711L70.114 8.14551C70.1052 8.53223 70.1711 8.80322 70.3118 8.9585C70.4553 9.11377 70.6663 9.19141 70.9446 9.19141C71.2815 9.19141 71.6287 9.06836 71.9861 8.82227L71.8982 5.5H72.9045L72.7991 8.82227L72.9617 9.98242V10H72.0256L72.0081 9.29688L71.7971 9.47705ZM78.0242 5.41211C78.4783 5.41211 78.8416 5.48389 79.114 5.62744L79.2942 6.67773H79.2766C78.8752 6.37891 78.449 6.22949 77.9978 6.22949C77.6287 6.22949 77.324 6.354 77.0837 6.60303C76.8464 6.85205 76.7278 7.22266 76.7278 7.71484C76.7278 8.26855 76.8494 8.68896 77.0925 8.97607C77.3386 9.26318 77.6697 9.40674 78.0857 9.40674C78.3025 9.40674 78.5046 9.37012 78.6921 9.29688C78.8796 9.22363 79.0774 9.12256 79.2854 8.99365H79.303L79.2107 9.62207C79.0906 9.74219 78.9163 9.85059 78.6877 9.94727C78.4622 10.041 78.2263 10.0879 77.9802 10.0879C77.3474 10.0879 76.8318 9.86377 76.4333 9.41553C76.0349 8.96436 75.8357 8.3916 75.8357 7.69727C75.8357 7.32812 75.8943 6.99561 76.0115 6.69971C76.1316 6.40381 76.2942 6.16357 76.4993 5.979C76.7043 5.79443 76.9358 5.65381 77.1936 5.55713C77.4543 5.46045 77.7312 5.41211 78.0242 5.41211ZM82.2429 6.30859C81.9382 6.2998 81.5984 6.42578 81.2234 6.68652L81.3245 10H80.3269L80.45 6.18555L80.3269 3.06982H81.3245L81.2058 6.18555V6.20312L81.386 6.04932C81.6262 5.8501 81.8547 5.69336 82.0715 5.5791C82.2913 5.46484 82.5095 5.40918 82.7263 5.41211C83.1335 5.40918 83.4456 5.5542 83.6624 5.84717C83.8792 6.14014 83.9963 6.5459 84.0139 7.06445L84.115 10H83.113L83.1877 7.36328C83.1995 6.95605 83.1233 6.67773 82.9592 6.52832C82.7952 6.37598 82.5564 6.30273 82.2429 6.30859ZM87.3054 5.41211C87.6335 5.41211 87.9324 5.47217 88.2019 5.59229C88.4714 5.7124 88.6926 5.87646 88.8655 6.08447C89.0413 6.28955 89.176 6.52979 89.2698 6.80518C89.3635 7.07764 89.4104 7.36914 89.4104 7.67969C89.4104 8.01367 89.3635 8.32568 89.2698 8.61572C89.176 8.90576 89.0427 9.16064 88.8699 9.38037C88.697 9.6001 88.4758 9.77295 88.2063 9.89893C87.9368 10.0249 87.6365 10.0879 87.3054 10.0879C86.866 10.0879 86.4836 9.97803 86.1584 9.7583C85.8362 9.53564 85.5945 9.24561 85.4333 8.88818C85.2751 8.52783 85.196 8.125 85.196 7.67969C85.196 7.26074 85.2766 6.88135 85.4377 6.5415C85.5989 6.20166 85.8406 5.9292 86.1628 5.72412C86.488 5.51611 86.8689 5.41211 87.3054 5.41211ZM86.4001 8.93213C86.6082 9.24854 86.9099 9.40674 87.3054 9.40674C87.7009 9.40674 88.0012 9.24854 88.2063 8.93213C88.4143 8.61572 88.5183 8.2041 88.5183 7.69727C88.5183 7.28418 88.4099 6.93701 88.1931 6.65576C87.9792 6.37158 87.6833 6.22949 87.3054 6.22949C86.9246 6.22949 86.6257 6.37012 86.4089 6.65137C86.1951 6.93262 86.0881 7.28125 86.0881 7.69727C86.0881 8.20117 86.1921 8.61279 86.4001 8.93213ZM91.032 3.61914C91.196 3.61914 91.3308 3.66602 91.4363 3.75977C91.5447 3.85059 91.5989 3.9751 91.5989 4.1333C91.5989 4.30029 91.5447 4.43359 91.4363 4.5332C91.3308 4.63281 91.196 4.68262 91.032 4.68262C90.8767 4.68262 90.7449 4.63281 90.6365 4.5332C90.5281 4.43359 90.4739 4.30029 90.4739 4.1333C90.4739 3.9751 90.5281 3.85059 90.6365 3.75977C90.7449 3.66602 90.8767 3.61914 91.032 3.61914ZM90.4915 5.5H91.4275V5.51758L91.5549 10H90.5486L90.6541 6.67773L90.4915 5.51758V5.5ZM93.449 10H92.28V9.98242L94.0466 7.72363L92.4514 5.51758V5.5H93.6028L94.4949 7.13037L95.343 5.5H96.468V5.51758L94.7761 7.56982L96.5032 9.98242V10H95.3694L94.3323 8.19824L93.449 10ZM41.0486 23.4067C41.324 23.4067 41.5994 23.3159 41.8748 23.1343L41.967 20.4624C41.6887 20.3071 41.3855 20.2295 41.0574 20.2295C40.8406 20.2295 40.6472 20.272 40.4773 20.3569C40.3074 20.439 40.1711 20.5518 40.0686 20.6953C39.9661 20.8389 39.8884 21 39.8357 21.1787C39.7859 21.3545 39.761 21.542 39.761 21.7412C39.761 22.2773 39.8708 22.689 40.0906 22.9761C40.3132 23.2632 40.6326 23.4067 41.0486 23.4067ZM41.8748 24L41.866 23.6572C41.4705 23.9443 41.1028 24.0879 40.7629 24.0879C40.3733 24.0879 40.0305 23.978 39.7346 23.7583C39.4417 23.5386 39.2219 23.2529 39.0754 22.9014C38.9319 22.5498 38.8601 22.1602 38.8601 21.7324C38.8601 21.3721 38.9172 21.0439 39.0315 20.748C39.1487 20.4492 39.3054 20.2046 39.5017 20.0142C39.7009 19.8208 39.9309 19.6729 40.1917 19.5703C40.4524 19.4648 40.7292 19.4121 41.0222 19.4121C41.365 19.4121 41.6741 19.4707 41.9495 19.5879L41.8484 17.0698H42.8503L42.7317 20.1855L42.8503 24H41.8748ZM47.5042 23.6309C47.1819 23.9355 46.7058 24.0879 46.0759 24.0879C45.7332 24.0879 45.4241 24.022 45.1487 23.8901C44.8762 23.7583 44.6565 23.5811 44.4895 23.3584C44.3225 23.1357 44.1951 22.8867 44.1072 22.6113C44.0193 22.3359 43.9753 22.0459 43.9753 21.7412C43.9753 21.3633 44.0281 21.0249 44.1335 20.7261C44.2419 20.4243 44.3884 20.1797 44.573 19.9922C44.7576 19.8018 44.967 19.6582 45.2014 19.5615C45.4358 19.4619 45.6848 19.4121 45.9485 19.4121C46.5989 19.4121 47.0852 19.6421 47.4075 20.1021C47.7327 20.5591 47.8528 21.1978 47.7678 22.0181H44.8762C44.9202 22.4546 45.0535 22.7959 45.2761 23.042C45.5017 23.2852 45.8489 23.4067 46.3176 23.4067C46.6985 23.4067 47.1189 23.272 47.5789 23.0024H47.5964L47.5042 23.6309ZM44.8762 21.5698L46.9548 21.3018C46.9812 20.9824 46.908 20.7231 46.7351 20.5239C46.5623 20.3218 46.2942 20.2207 45.9309 20.2207C45.7991 20.2207 45.6731 20.2456 45.553 20.2954C45.4329 20.3452 45.3201 20.4214 45.2146 20.5239C45.1121 20.6235 45.03 20.7642 44.9685 20.9458C44.907 21.1245 44.8762 21.3325 44.8762 21.5698ZM50.3782 20.2031C50.1672 20.2031 50.0017 20.2441 49.8816 20.3262C49.7644 20.4053 49.7058 20.5107 49.7058 20.6426C49.7058 20.7773 49.7556 20.8989 49.8552 21.0073C49.9548 21.1128 50.1262 21.2197 50.3694 21.3281L50.8308 21.5347C51.2 21.7046 51.4651 21.8833 51.6262 22.0708C51.7903 22.2583 51.8723 22.4897 51.8723 22.7651C51.8723 23.146 51.739 23.4624 51.4724 23.7144C51.2087 23.9634 50.8264 24.0879 50.3254 24.0879C49.8274 24.0879 49.4011 23.9839 49.0466 23.7759L48.8752 22.7959H48.8928C49.1682 23.001 49.4231 23.1577 49.6575 23.2661C49.8948 23.3716 50.1409 23.4243 50.3958 23.4243C50.5891 23.4243 50.7385 23.376 50.844 23.2793C50.9524 23.1826 51.0066 23.0508 51.0066 22.8838C51.0066 22.7314 50.9553 22.6025 50.8528 22.4971C50.7502 22.3887 50.5979 22.292 50.3958 22.207L49.8025 21.9565C49.155 21.6812 48.8313 21.2549 48.8313 20.6777C48.8313 20.2939 48.9749 19.9878 49.262 19.7593C49.552 19.5278 49.9329 19.4121 50.4045 19.4121C50.8411 19.4121 51.2527 19.4927 51.6394 19.6538L51.802 20.6777H51.7844C51.5764 20.5225 51.3479 20.4053 51.0989 20.3262C50.8499 20.2441 50.6096 20.2031 50.3782 20.2031ZM55.7791 18.4541H55.8977L55.9065 19.5264L57.2556 19.4121V20.2383L55.9065 20.1284L55.9153 22.3521C55.9153 22.73 55.99 23.001 56.1394 23.165C56.2917 23.3262 56.4807 23.4067 56.7063 23.4067C56.8967 23.4067 57.0798 23.3643 57.2556 23.2793H57.2732L57.1853 23.7759C57.1062 23.8638 56.9875 23.9385 56.8293 24C56.6711 24.0586 56.5071 24.0879 56.3372 24.0879C55.9446 24.0879 55.6282 23.9619 55.3879 23.71C55.1477 23.4551 55.032 23.0962 55.0408 22.6333L55.0891 20.0581L54.3948 20.0054V19.8955L55.7791 18.4541ZM59.7913 23.4331C60.0461 23.4331 60.3435 23.3013 60.6833 23.0376L60.7097 22.2554C60.4929 22.1353 60.241 22.0752 59.9539 22.0752C59.6785 22.0752 59.4602 22.1353 59.2991 22.2554C59.1409 22.3755 59.0618 22.5425 59.0618 22.7563C59.0618 22.9585 59.1277 23.1226 59.2595 23.2485C59.3943 23.3716 59.5715 23.4331 59.7913 23.4331ZM60.657 24L60.6658 23.5781C60.2117 23.918 59.8279 24.0879 59.5144 24.0879C59.0955 24.0879 58.7673 23.9678 58.53 23.7275C58.2927 23.4873 58.1741 23.1855 58.1741 22.8223C58.1741 22.6025 58.2151 22.4092 58.2971 22.2422C58.3792 22.0752 58.4861 21.9419 58.6179 21.8423C58.7498 21.7397 58.908 21.6562 59.0925 21.5918C59.28 21.5273 59.4675 21.4834 59.655 21.46C59.8425 21.4365 60.0447 21.4248 60.2615 21.4248C60.3435 21.4248 60.4988 21.4307 60.7273 21.4424L60.7361 21.2095C60.7419 20.9985 60.7229 20.8228 60.679 20.6821C60.6379 20.5415 60.572 20.4375 60.4812 20.3701C60.3904 20.2998 60.2937 20.2515 60.1912 20.2251C60.0916 20.1987 59.97 20.1855 59.8264 20.1855C59.428 20.1855 58.949 20.3115 58.3894 20.5635H58.3718L58.5432 19.5088C59.1555 19.4443 59.6257 19.4121 59.9539 19.4121C60.4695 19.4121 60.8621 19.5586 61.1316 19.8516C61.4041 20.1416 61.5491 20.5459 61.5667 21.0645L61.6633 24H60.657ZM64.8933 20.3086C64.5945 20.2998 64.262 20.4229 63.8958 20.6777L63.9836 24H62.9773L63.0828 20.6777L62.9202 19.5176V19.5H63.8562L63.8738 20.1943L64.0452 20.0493C64.5491 19.6245 64.9973 19.4121 65.3899 19.4121C65.7971 19.4121 66.1077 19.5586 66.3215 19.8516C66.5383 20.1416 66.6555 20.5459 66.6731 21.0645L66.7742 24H65.7678L65.8469 21.3633C65.8586 20.9561 65.781 20.6777 65.614 20.5283C65.447 20.376 65.2068 20.3027 64.8933 20.3086ZM70.0876 23.4067C70.3865 23.4067 70.6897 23.3013 70.9973 23.0903L71.0237 20.48C70.7542 20.313 70.4451 20.2295 70.0964 20.2295C69.8796 20.2295 69.6863 20.272 69.5164 20.3569C69.3464 20.439 69.2102 20.5518 69.1077 20.6953C69.0051 20.8389 68.9275 21 68.8748 21.1787C68.825 21.3545 68.8 21.542 68.8 21.7412C68.8 22.2773 68.9099 22.689 69.1296 22.9761C69.3523 23.2632 69.6716 23.4067 70.0876 23.4067ZM69.8723 26.3379C69.468 26.3379 69.0095 26.2822 68.4968 26.1709L68.2244 25.1162H68.2595C68.5378 25.2422 68.7444 25.333 68.8792 25.3887C69.0168 25.4443 69.1809 25.4985 69.3713 25.5513C69.5647 25.604 69.7375 25.6304 69.8899 25.6304C70.259 25.6304 70.53 25.5117 70.7029 25.2744C70.8787 25.0371 70.9709 24.6665 70.9797 24.1626L70.9885 23.5957C70.5754 23.9238 70.1799 24.0879 69.802 24.0879C69.4124 24.0879 69.0696 23.978 68.7737 23.7583C68.4807 23.5386 68.261 23.2529 68.1145 22.9014C67.9709 22.5498 67.8992 22.1602 67.8992 21.7324C67.8992 21.3721 67.9563 21.0439 68.0706 20.748C68.1877 20.4492 68.3445 20.2046 68.5408 20.0142C68.74 19.8208 68.97 19.6729 69.2307 19.5703C69.4915 19.4648 69.7683 19.4121 70.0613 19.4121C70.4187 19.4121 70.7395 19.4751 71.0237 19.6011L71.8894 19.5H71.907L71.8059 20.5986L71.8718 23.7847C71.8748 23.9312 71.8718 24.0703 71.863 24.2021C71.8572 24.3369 71.8381 24.4937 71.8059 24.6724C71.7766 24.8511 71.7356 25.0137 71.6829 25.1602C71.6301 25.3066 71.5525 25.4546 71.45 25.604C71.3474 25.7563 71.2273 25.8838 71.0896 25.9863C70.9548 26.0889 70.782 26.1724 70.571 26.2368C70.363 26.3042 70.1301 26.3379 69.8723 26.3379ZM75.2117 20.3657C75.0535 20.3657 74.8821 20.4009 74.6975 20.4712C74.5129 20.5415 74.343 20.6294 74.1877 20.7349L74.2756 24H73.2693L73.3748 20.6777L73.2122 19.5176V19.5H74.1482L74.1658 20.2383L74.3943 20.0493C74.4119 20.0347 74.4514 20.001 74.5129 19.9482C74.5774 19.8955 74.6199 19.8604 74.6404 19.8428C74.6609 19.8252 74.699 19.7944 74.7546 19.7505C74.8132 19.7036 74.8557 19.6714 74.8821 19.6538C74.9114 19.6362 74.9524 19.6113 75.0051 19.5791C75.0579 19.5439 75.1018 19.5205 75.137 19.5088C75.1721 19.4941 75.2131 19.478 75.26 19.4604C75.3098 19.4399 75.3567 19.4268 75.4006 19.4209C75.4446 19.415 75.49 19.4121 75.5369 19.4121C75.6921 19.4121 75.8123 19.418 75.8972 19.4297L76.0774 20.5459H76.0598C75.8167 20.4258 75.5339 20.3657 75.2117 20.3657ZM78.3713 23.4331C78.6262 23.4331 78.9236 23.3013 79.2634 23.0376L79.2898 22.2554C79.073 22.1353 78.821 22.0752 78.5339 22.0752C78.2585 22.0752 78.0403 22.1353 77.8792 22.2554C77.7209 22.3755 77.6418 22.5425 77.6418 22.7563C77.6418 22.9585 77.7078 23.1226 77.8396 23.2485C77.9744 23.3716 78.1516 23.4331 78.3713 23.4331ZM79.2371 24L79.2458 23.5781C78.7917 23.918 78.408 24.0879 78.0945 24.0879C77.6755 24.0879 77.3474 23.9678 77.1101 23.7275C76.8728 23.4873 76.7542 23.1855 76.7542 22.8223C76.7542 22.6025 76.7952 22.4092 76.8772 22.2422C76.9592 22.0752 77.0662 21.9419 77.198 21.8423C77.3298 21.7397 77.488 21.6562 77.6726 21.5918C77.8601 21.5273 78.0476 21.4834 78.2351 21.46C78.4226 21.4365 78.6248 21.4248 78.8416 21.4248C78.9236 21.4248 79.0789 21.4307 79.3074 21.4424L79.3162 21.2095C79.322 20.9985 79.303 20.8228 79.259 20.6821C79.218 20.5415 79.1521 20.4375 79.0613 20.3701C78.9705 20.2998 78.8738 20.2515 78.7712 20.2251C78.6716 20.1987 78.55 20.1855 78.4065 20.1855C78.0081 20.1855 77.5291 20.3115 76.9695 20.5635H76.9519L77.1233 19.5088C77.7356 19.4443 78.2058 19.4121 78.5339 19.4121C79.0496 19.4121 79.4421 19.5586 79.7117 19.8516C79.9841 20.1416 80.1292 20.5459 80.1467 21.0645L80.2434 24H79.2371ZM83.3723 20.3174C83.0706 20.3174 82.7717 20.4316 82.4758 20.6602L82.5637 24H81.5574L81.6628 20.6689L81.5002 19.5176V19.5H82.4363L82.4539 20.1855L82.5989 20.0581C82.8333 19.856 83.0515 19.6978 83.2537 19.5835C83.4587 19.4692 83.6667 19.4121 83.8777 19.4121C84.4255 19.4121 84.7947 19.6992 84.9851 20.2734L85.2268 20.0581C85.4612 19.856 85.6794 19.6978 85.8816 19.5835C86.0867 19.4692 86.2947 19.4121 86.5056 19.4121C86.8953 19.4121 87.1941 19.5586 87.4021 19.8516C87.6101 20.1445 87.7229 20.5459 87.7405 21.0557L87.8372 24H86.8308L86.9099 21.3545C86.9158 21.1465 86.8997 20.9736 86.8616 20.8359C86.8235 20.6953 86.7605 20.5884 86.6726 20.5151C86.5876 20.4419 86.4924 20.3906 86.387 20.3613C86.2815 20.332 86.1526 20.3174 86.0002 20.3174C85.6956 20.3174 85.3865 20.4346 85.073 20.6689C85.0906 20.8008 85.1038 20.9297 85.1125 21.0557L85.2004 24H84.1941L84.282 21.3545C84.2878 21.1465 84.2717 20.9736 84.2336 20.8359C84.1956 20.6953 84.1326 20.5884 84.0447 20.5151C83.9597 20.4419 83.8645 20.3906 83.759 20.3613C83.6536 20.332 83.5247 20.3174 83.3723 20.3174ZM90.553 20.2031C90.342 20.2031 90.1765 20.2441 90.0564 20.3262C89.9392 20.4053 89.8806 20.5107 89.8806 20.6426C89.8806 20.7773 89.9304 20.8989 90.03 21.0073C90.1296 21.1128 90.301 21.2197 90.5442 21.3281L91.0056 21.5347C91.3748 21.7046 91.6399 21.8833 91.801 22.0708C91.9651 22.2583 92.0471 22.4897 92.0471 22.7651C92.0471 23.146 91.9138 23.4624 91.6472 23.7144C91.3835 23.9634 91.0012 24.0879 90.5002 24.0879C90.0022 24.0879 89.5759 23.9839 89.2214 23.7759L89.05 22.7959H89.0676C89.343 23.001 89.5979 23.1577 89.8323 23.2661C90.0696 23.3716 90.3157 23.4243 90.5706 23.4243C90.7639 23.4243 90.9133 23.376 91.0188 23.2793C91.1272 23.1826 91.1814 23.0508 91.1814 22.8838C91.1814 22.7314 91.1301 22.6025 91.0276 22.4971C90.925 22.3887 90.7727 22.292 90.5706 22.207L89.9773 21.9565C89.3298 21.6812 89.0061 21.2549 89.0061 20.6777C89.0061 20.2939 89.1497 19.9878 89.4368 19.7593C89.7268 19.5278 90.1077 19.4121 90.5793 19.4121C91.0159 19.4121 91.4275 19.4927 91.8142 19.6538L91.9768 20.6777H91.9592C91.7512 20.5225 91.5227 20.4053 91.2737 20.3262C91.0247 20.2441 90.7844 20.2031 90.553 20.2031Z" fill="black"/>
</svg>
