<svg width="89" height="31" viewBox="0 0 89 31" fill="none" xmlns="http://www.w3.org/2000/svg">
<path d="M29.5 14.3182C20 21.7146 15 20.4288 1.52276 16.8604M1.52276 16.8604L3.43853 21.7145M1.52276 16.8604L6.91932 14.3182" stroke="black" stroke-width="2" stroke-linecap="round"/>
<path d="M43.5413 6.45361L43.6731 10H42.5876L42.7195 6.45361L42.5876 3.25H44.4026C45.0325 3.25 45.5276 3.40381 45.8879 3.71143C46.2483 4.01904 46.4285 4.42041 46.4285 4.91553C46.4285 5.35791 46.3113 5.73438 46.0769 6.04492C45.8455 6.35547 45.4924 6.5752 45.0178 6.7041L47.1843 9.98242V10H45.8879L44.2795 6.82275V6.31738C44.6692 6.27344 44.9695 6.15186 45.1804 5.95264C45.3943 5.75049 45.5012 5.47656 45.5012 5.13086C45.5012 4.82031 45.3899 4.56396 45.1672 4.36182C44.9475 4.15967 44.6267 4.05859 44.2048 4.05859H43.6379L43.5413 6.45361ZM51.2976 9.63086C50.9753 9.93555 50.4993 10.0879 49.8694 10.0879C49.5266 10.0879 49.2175 10.022 48.9421 9.89014C48.6697 9.7583 48.45 9.58105 48.283 9.3584C48.116 9.13574 47.9885 8.88672 47.9006 8.61133C47.8127 8.33594 47.7688 8.0459 47.7688 7.74121C47.7688 7.36328 47.8215 7.0249 47.927 6.72607C48.0354 6.42432 48.1819 6.17969 48.3665 5.99219C48.551 5.80176 48.7605 5.6582 48.9949 5.56152C49.2292 5.46191 49.4783 5.41211 49.7419 5.41211C50.3923 5.41211 50.8787 5.64209 51.2009 6.10205C51.5261 6.55908 51.6462 7.19775 51.5613 8.01807H48.6697C48.7136 8.45459 48.8469 8.7959 49.0696 9.04199C49.2952 9.28516 49.6423 9.40674 50.1111 9.40674C50.4919 9.40674 50.9124 9.27197 51.3723 9.00244H51.3899L51.2976 9.63086ZM48.6697 7.56982L50.7483 7.30176C50.7747 6.98242 50.7014 6.72314 50.5286 6.52393C50.3557 6.32178 50.0876 6.2207 49.7244 6.2207C49.5925 6.2207 49.4666 6.24561 49.3464 6.29541C49.2263 6.34521 49.1135 6.42139 49.0081 6.52393C48.9055 6.62354 48.8235 6.76416 48.762 6.9458C48.7004 7.12451 48.6697 7.33252 48.6697 7.56982ZM53.6487 4.4541H53.7673L53.7761 5.52637L55.1252 5.41211V6.23828L53.7761 6.12842L53.7849 8.35205C53.7849 8.72998 53.8596 9.00098 54.009 9.16504C54.1614 9.32617 54.3503 9.40674 54.5759 9.40674C54.7664 9.40674 54.9495 9.36426 55.1252 9.2793H55.1428L55.0549 9.77588C54.9758 9.86377 54.8572 9.93848 54.699 10C54.5408 10.0586 54.3767 10.0879 54.2068 10.0879C53.8142 10.0879 53.4978 9.96191 53.2576 9.70996C53.0173 9.45508 52.9016 9.09619 52.9104 8.6333L52.9587 6.05811L52.2644 6.00537V5.89551L53.6487 4.4541ZM58.1047 5.41211C58.4329 5.41211 58.7317 5.47217 59.0012 5.59229C59.2708 5.7124 59.4919 5.87646 59.6648 6.08447C59.8406 6.28955 59.9753 6.52979 60.0691 6.80518C60.1628 7.07764 60.2097 7.36914 60.2097 7.67969C60.2097 8.01367 60.1628 8.32568 60.0691 8.61572C59.9753 8.90576 59.842 9.16064 59.6692 9.38037C59.4963 9.6001 59.2751 9.77295 59.0056 9.89893C58.7361 10.0249 58.4358 10.0879 58.1047 10.0879C57.6653 10.0879 57.283 9.97803 56.9578 9.7583C56.6355 9.53564 56.3938 9.24561 56.2327 8.88818C56.0745 8.52783 55.9954 8.125 55.9954 7.67969C55.9954 7.26074 56.0759 6.88135 56.2371 6.5415C56.3982 6.20166 56.6399 5.9292 56.9622 5.72412C57.2874 5.51611 57.6682 5.41211 58.1047 5.41211ZM57.1995 8.93213C57.4075 9.24854 57.7092 9.40674 58.1047 9.40674C58.5002 9.40674 58.8005 9.24854 59.0056 8.93213C59.2136 8.61572 59.3176 8.2041 59.3176 7.69727C59.3176 7.28418 59.2092 6.93701 58.9924 6.65576C58.7786 6.37158 58.4827 6.22949 58.1047 6.22949C57.7239 6.22949 57.425 6.37012 57.2083 6.65137C56.9944 6.93262 56.8875 7.28125 56.8875 7.69727C56.8875 8.20117 56.9915 8.61279 57.1995 8.93213ZM63.9275 9.47705C63.4441 9.88428 63.0002 10.0879 62.5959 10.0879C62.2209 10.0879 61.9324 9.94141 61.7302 9.64844C61.531 9.35254 61.427 8.95117 61.4182 8.44434L61.3918 6.67773L61.2029 5.51758V5.5H62.3015L62.2444 8.14551C62.2356 8.53223 62.3015 8.80322 62.4421 8.9585C62.5857 9.11377 62.7966 9.19141 63.075 9.19141C63.4119 9.19141 63.759 9.06836 64.1165 8.82227L64.0286 5.5H65.0349L64.9294 8.82227L65.092 9.98242V10H64.156L64.1384 9.29688L63.9275 9.47705ZM68.344 6.36572C68.1858 6.36572 68.0144 6.40088 67.8298 6.47119C67.6453 6.5415 67.4753 6.62939 67.3201 6.73486L67.408 10H66.4016L66.5071 6.67773L66.3445 5.51758V5.5H67.2805L67.2981 6.23828L67.5266 6.04932C67.5442 6.03467 67.5837 6.00098 67.6453 5.94824C67.7097 5.89551 67.7522 5.86035 67.7727 5.84277C67.7932 5.8252 67.8313 5.79443 67.887 5.75049C67.9456 5.70361 67.988 5.67139 68.0144 5.65381C68.0437 5.63623 68.0847 5.61133 68.1375 5.5791C68.1902 5.54395 68.2341 5.52051 68.2693 5.50879C68.3044 5.49414 68.3455 5.47803 68.3923 5.46045C68.4421 5.43994 68.489 5.42676 68.533 5.4209C68.5769 5.41504 68.6223 5.41211 68.6692 5.41211C68.8245 5.41211 68.9446 5.41797 69.0295 5.42969L69.2097 6.5459H69.1921C68.949 6.42578 68.6663 6.36572 68.344 6.36572ZM73.613 10.0879H73.1516L71.2356 5.51758V5.5H72.2903L73.5295 9.0376L74.593 5.5H75.6653V5.51758L73.613 10.0879ZM79.6863 9.63086C79.364 9.93555 78.8879 10.0879 78.2581 10.0879C77.9153 10.0879 77.6062 10.022 77.3308 9.89014C77.0583 9.7583 76.8386 9.58105 76.6716 9.3584C76.5046 9.13574 76.3772 8.88672 76.2893 8.61133C76.2014 8.33594 76.1575 8.0459 76.1575 7.74121C76.1575 7.36328 76.2102 7.0249 76.3157 6.72607C76.4241 6.42432 76.5706 6.17969 76.7551 5.99219C76.9397 5.80176 77.1492 5.6582 77.3835 5.56152C77.6179 5.46191 77.8669 5.41211 78.1306 5.41211C78.781 5.41211 79.2673 5.64209 79.5896 6.10205C79.9148 6.55908 80.0349 7.19775 79.95 8.01807H77.0583C77.1023 8.45459 77.2356 8.7959 77.4583 9.04199C77.6838 9.28516 78.031 9.40674 78.4998 9.40674C78.8806 9.40674 79.301 9.27197 79.761 9.00244H79.7786L79.6863 9.63086ZM77.0583 7.56982L79.137 7.30176C79.1633 6.98242 79.0901 6.72314 78.9172 6.52393C78.7444 6.32178 78.4763 6.2207 78.113 6.2207C77.9812 6.2207 77.8552 6.24561 77.7351 6.29541C77.615 6.34521 77.5022 6.42139 77.3967 6.52393C77.2942 6.62354 77.2122 6.76416 77.1506 6.9458C77.0891 7.12451 77.0583 7.33252 77.0583 7.56982ZM83.1008 6.36572C82.9426 6.36572 82.7712 6.40088 82.5867 6.47119C82.4021 6.5415 82.2322 6.62939 82.0769 6.73486L82.1648 10H81.1584L81.2639 6.67773L81.1013 5.51758V5.5H82.0374L82.0549 6.23828L82.2834 6.04932C82.301 6.03467 82.3406 6.00098 82.4021 5.94824C82.4666 5.89551 82.509 5.86035 82.5295 5.84277C82.55 5.8252 82.5881 5.79443 82.6438 5.75049C82.7024 5.70361 82.7449 5.67139 82.7712 5.65381C82.8005 5.63623 82.8416 5.61133 82.8943 5.5791C82.947 5.54395 82.991 5.52051 83.0261 5.50879C83.0613 5.49414 83.1023 5.47803 83.1492 5.46045C83.199 5.43994 83.2458 5.42676 83.2898 5.4209C83.3337 5.41504 83.3792 5.41211 83.426 5.41211C83.5813 5.41211 83.7014 5.41797 83.7864 5.42969L83.9666 6.5459H83.949C83.7058 6.42578 83.4231 6.36572 83.1008 6.36572ZM86.2341 6.20312C86.0232 6.20312 85.8577 6.24414 85.7375 6.32617C85.6204 6.40527 85.5618 6.51074 85.5618 6.64258C85.5618 6.77734 85.6116 6.89893 85.7112 7.00732C85.8108 7.11279 85.9822 7.21973 86.2253 7.32812L86.6868 7.53467C87.0559 7.70459 87.321 7.8833 87.4822 8.0708C87.6462 8.2583 87.7283 8.48975 87.7283 8.76514C87.7283 9.146 87.595 9.4624 87.3284 9.71436C87.0647 9.96338 86.6824 10.0879 86.1814 10.0879C85.6833 10.0879 85.2571 9.98389 84.9026 9.77588L84.7312 8.7959H84.7488C85.0242 9.00098 85.2791 9.15771 85.5134 9.26611C85.7507 9.37158 85.9968 9.42432 86.2517 9.42432C86.4451 9.42432 86.5945 9.37598 86.7 9.2793C86.8083 9.18262 86.8625 9.05078 86.8625 8.88379C86.8625 8.73145 86.8113 8.60254 86.7087 8.49707C86.6062 8.38867 86.4539 8.29199 86.2517 8.20703L85.6584 7.95654C85.011 7.68115 84.6873 7.25488 84.6873 6.67773C84.6873 6.29395 84.8308 5.98779 85.1179 5.75928C85.408 5.52783 85.7888 5.41211 86.2605 5.41211C86.697 5.41211 87.1086 5.49268 87.4954 5.65381L87.658 6.67773H87.6404C87.4324 6.52246 87.2039 6.40527 86.9548 6.32617C86.7058 6.24414 86.4656 6.20312 86.2341 6.20312ZM41.9592 24L42.0823 20.1855L41.9592 17.0698H42.9568L42.8381 20.1855L42.9568 24H41.9592ZM47.6062 23.6309C47.2839 23.9355 46.8079 24.0879 46.178 24.0879C45.8352 24.0879 45.5261 24.022 45.2507 23.8901C44.9783 23.7583 44.7585 23.5811 44.5916 23.3584C44.4246 23.1357 44.2971 22.8867 44.2092 22.6113C44.1213 22.3359 44.0774 22.0459 44.0774 21.7412C44.0774 21.3633 44.1301 21.0249 44.2356 20.7261C44.344 20.4243 44.4905 20.1797 44.675 19.9922C44.8596 19.8018 45.0691 19.6582 45.3035 19.5615C45.5378 19.4619 45.7869 19.4121 46.0505 19.4121C46.7009 19.4121 47.1873 19.6421 47.5095 20.1021C47.8347 20.5591 47.9548 21.1978 47.8699 22.0181H44.9783C45.0222 22.4546 45.1555 22.7959 45.3782 23.042C45.6038 23.2852 45.9509 23.4067 46.4197 23.4067C46.8005 23.4067 47.2209 23.272 47.6809 23.0024H47.6985L47.6062 23.6309ZM44.9783 21.5698L47.0569 21.3018C47.0833 20.9824 47.01 20.7231 46.8372 20.5239C46.6643 20.3218 46.3962 20.2207 46.033 20.2207C45.9011 20.2207 45.7751 20.2456 45.655 20.2954C45.5349 20.3452 45.4221 20.4214 45.3167 20.5239C45.2141 20.6235 45.1321 20.7642 45.0706 20.9458C45.009 21.1245 44.9783 21.3325 44.9783 21.5698ZM50.4802 20.2031C50.2693 20.2031 50.1038 20.2441 49.9836 20.3262C49.8665 20.4053 49.8079 20.5107 49.8079 20.6426C49.8079 20.7773 49.8577 20.8989 49.9573 21.0073C50.0569 21.1128 50.2283 21.2197 50.4714 21.3281L50.9329 21.5347C51.302 21.7046 51.5671 21.8833 51.7283 22.0708C51.8923 22.2583 51.9744 22.4897 51.9744 22.7651C51.9744 23.146 51.8411 23.4624 51.5745 23.7144C51.3108 23.9634 50.9285 24.0879 50.4275 24.0879C49.9294 24.0879 49.5032 23.9839 49.1487 23.7759L48.9773 22.7959H48.9949C49.2703 23.001 49.5251 23.1577 49.7595 23.2661C49.9968 23.3716 50.2429 23.4243 50.4978 23.4243C50.6912 23.4243 50.8406 23.376 50.946 23.2793C51.0544 23.1826 51.1086 23.0508 51.1086 22.8838C51.1086 22.7314 51.0574 22.6025 50.9548 22.4971C50.8523 22.3887 50.7 22.292 50.4978 22.207L49.9045 21.9565C49.2571 21.6812 48.9333 21.2549 48.9333 20.6777C48.9333 20.2939 49.0769 19.9878 49.364 19.7593C49.6541 19.5278 50.0349 19.4121 50.5066 19.4121C50.9431 19.4121 51.3547 19.4927 51.7415 19.6538L51.9041 20.6777H51.8865C51.6785 20.5225 51.45 20.4053 51.2009 20.3262C50.9519 20.2441 50.7117 20.2031 50.4802 20.2031ZM56.9534 19.4121C57.4075 19.4121 57.7708 19.4839 58.0432 19.6274L58.2234 20.6777H58.2058C57.8044 20.3789 57.3782 20.2295 56.927 20.2295C56.5579 20.2295 56.2532 20.354 56.0129 20.603C55.7756 20.8521 55.657 21.2227 55.657 21.7148C55.657 22.2686 55.7786 22.689 56.0217 22.9761C56.2678 23.2632 56.5989 23.4067 57.0149 23.4067C57.2317 23.4067 57.4338 23.3701 57.6213 23.2969C57.8088 23.2236 58.0066 23.1226 58.2146 22.9937H58.2322L58.1399 23.6221C58.0198 23.7422 57.8455 23.8506 57.6169 23.9473C57.3914 24.041 57.1555 24.0879 56.9094 24.0879C56.2766 24.0879 55.761 23.8638 55.3625 23.4155C54.9641 22.9644 54.7649 22.3916 54.7649 21.6973C54.7649 21.3281 54.8235 20.9956 54.9407 20.6997C55.0608 20.4038 55.2234 20.1636 55.4285 19.979C55.6335 19.7944 55.865 19.6538 56.1228 19.5571C56.3835 19.4604 56.6604 19.4121 56.9534 19.4121ZM61.1458 19.4121C61.4739 19.4121 61.7727 19.4722 62.0422 19.5923C62.3118 19.7124 62.533 19.8765 62.7058 20.0845C62.8816 20.2896 63.0164 20.5298 63.1101 20.8052C63.2039 21.0776 63.2507 21.3691 63.2507 21.6797C63.2507 22.0137 63.2039 22.3257 63.1101 22.6157C63.0164 22.9058 62.8831 23.1606 62.7102 23.3804C62.5374 23.6001 62.3162 23.7729 62.0466 23.8989C61.7771 24.0249 61.4768 24.0879 61.1458 24.0879C60.7063 24.0879 60.324 23.978 59.9988 23.7583C59.6765 23.5356 59.4348 23.2456 59.2737 22.8882C59.1155 22.5278 59.0364 22.125 59.0364 21.6797C59.0364 21.2607 59.1169 20.8813 59.2781 20.5415C59.4392 20.2017 59.6809 19.9292 60.0032 19.7241C60.3284 19.5161 60.7092 19.4121 61.1458 19.4121ZM60.2405 22.9321C60.4485 23.2485 60.7502 23.4067 61.1458 23.4067C61.5413 23.4067 61.8416 23.2485 62.0466 22.9321C62.2546 22.6157 62.3586 22.2041 62.3586 21.6973C62.3586 21.2842 62.2502 20.937 62.0334 20.6558C61.8196 20.3716 61.5237 20.2295 61.1458 20.2295C60.7649 20.2295 60.4661 20.3701 60.2493 20.6514C60.0354 20.9326 59.9285 21.2812 59.9285 21.6973C59.9285 22.2012 60.0325 22.6128 60.2405 22.9321ZM66.9685 23.4771C66.4851 23.8843 66.0413 24.0879 65.637 24.0879C65.262 24.0879 64.9734 23.9414 64.7712 23.6484C64.572 23.3525 64.468 22.9512 64.4592 22.4443L64.4329 20.6777L64.2439 19.5176V19.5H65.3425L65.2854 22.1455C65.2766 22.5322 65.3425 22.8032 65.4832 22.9585C65.6267 23.1138 65.8376 23.1914 66.116 23.1914C66.4529 23.1914 66.8 23.0684 67.1575 22.8223L67.0696 19.5H68.0759L67.9705 22.8223L68.1331 23.9824V24H67.197L67.1794 23.2969L66.9685 23.4771ZM69.4338 24L69.5569 20.1855L69.4338 17.0698H70.4314L70.3127 20.1855L70.4314 24H69.4338ZM75.0808 23.6309C74.7585 23.9355 74.2825 24.0879 73.6526 24.0879C73.3098 24.0879 73.0007 24.022 72.7253 23.8901C72.4529 23.7583 72.2332 23.5811 72.0662 23.3584C71.8992 23.1357 71.7717 22.8867 71.6838 22.6113C71.5959 22.3359 71.552 22.0459 71.552 21.7412C71.552 21.3633 71.6047 21.0249 71.7102 20.7261C71.8186 20.4243 71.9651 20.1797 72.1497 19.9922C72.3342 19.8018 72.5437 19.6582 72.7781 19.5615C73.0125 19.4619 73.2615 19.4121 73.5251 19.4121C74.1755 19.4121 74.6619 19.6421 74.9841 20.1021C75.3093 20.5591 75.4294 21.1978 75.3445 22.0181H72.4529C72.4968 22.4546 72.6301 22.7959 72.8528 23.042C73.0784 23.2852 73.4255 23.4067 73.8943 23.4067C74.2751 23.4067 74.6956 23.272 75.1555 23.0024H75.1731L75.0808 23.6309ZM72.4529 21.5698L74.5315 21.3018C74.5579 20.9824 74.4846 20.7231 74.3118 20.5239C74.1389 20.3218 73.8708 20.2207 73.5076 20.2207C73.3757 20.2207 73.2498 20.2456 73.1296 20.2954C73.0095 20.3452 72.8967 20.4214 72.7913 20.5239C72.6887 20.6235 72.6067 20.7642 72.5452 20.9458C72.4836 21.1245 72.4529 21.3325 72.4529 21.5698ZM79.1326 23.4771C78.6492 23.8843 78.2053 24.0879 77.801 24.0879C77.426 24.0879 77.1375 23.9414 76.9353 23.6484C76.7361 23.3525 76.6321 22.9512 76.6233 22.4443L76.5969 20.6777L76.408 19.5176V19.5H77.5066L77.4495 22.1455C77.4407 22.5322 77.5066 22.8032 77.6472 22.9585C77.7908 23.1138 78.0017 23.1914 78.28 23.1914C78.6169 23.1914 78.9641 23.0684 79.3215 22.8223L79.2336 19.5H80.24L80.1345 22.8223L80.2971 23.9824V24H79.3611L79.3435 23.2969L79.1326 23.4771ZM83.5491 20.3657C83.3909 20.3657 83.2195 20.4009 83.0349 20.4712C82.8503 20.5415 82.6804 20.6294 82.5251 20.7349L82.613 24H81.6067L81.7122 20.6777L81.5496 19.5176V19.5H82.4856L82.5032 20.2383L82.7317 20.0493C82.7493 20.0347 82.7888 20.001 82.8503 19.9482C82.9148 19.8955 82.9573 19.8604 82.9778 19.8428C82.9983 19.8252 83.0364 19.7944 83.092 19.7505C83.1506 19.7036 83.1931 19.6714 83.2195 19.6538C83.2488 19.6362 83.2898 19.6113 83.3425 19.5791C83.3953 19.5439 83.4392 19.5205 83.4744 19.5088C83.5095 19.4941 83.5505 19.478 83.5974 19.4604C83.6472 19.4399 83.6941 19.4268 83.738 19.4209C83.782 19.415 83.8274 19.4121 83.8743 19.4121C84.0295 19.4121 84.1497 19.418 84.2346 19.4297L84.4148 20.5459H84.3972C84.1541 20.4258 83.8713 20.3657 83.5491 20.3657ZM86.6824 20.2031C86.4714 20.2031 86.3059 20.2441 86.1858 20.3262C86.0686 20.4053 86.01 20.5107 86.01 20.6426C86.01 20.7773 86.0598 20.8989 86.1594 21.0073C86.259 21.1128 86.4304 21.2197 86.6736 21.3281L87.135 21.5347C87.5042 21.7046 87.7693 21.8833 87.9304 22.0708C88.0945 22.2583 88.1765 22.4897 88.1765 22.7651C88.1765 23.146 88.0432 23.4624 87.7766 23.7144C87.5129 23.9634 87.1306 24.0879 86.6296 24.0879C86.1316 24.0879 85.7053 23.9839 85.3508 23.7759L85.1794 22.7959H85.197C85.4724 23.001 85.7273 23.1577 85.9617 23.2661C86.199 23.3716 86.4451 23.4243 86.7 23.4243C86.8933 23.4243 87.0427 23.376 87.1482 23.2793C87.2566 23.1826 87.3108 23.0508 87.3108 22.8838C87.3108 22.7314 87.2595 22.6025 87.157 22.4971C87.0544 22.3887 86.9021 22.292 86.7 22.207L86.1067 21.9565C85.4592 21.6812 85.1355 21.2549 85.1355 20.6777C85.1355 20.2939 85.2791 19.9878 85.5662 19.7593C85.8562 19.5278 86.2371 19.4121 86.7087 19.4121C87.1453 19.4121 87.5569 19.4927 87.9436 19.6538L88.1062 20.6777H88.0886C87.8806 20.5225 87.6521 20.4053 87.4031 20.3262C87.1541 20.2441 86.9138 20.2031 86.6824 20.2031Z" fill="black"/>
</svg>
